M48
;Layer_Color=9474304
;FILE_FORMAT=2:5
INCH,LZ
;TYPE=PLATED
T1F00S00C0.01000
T2F00S00C0.01181
T3F00S00C0.01378
T4F00S00C0.01500
T5F00S00C0.04000
;TYPE=NON_PLATED
T7F00S00C0.12598
%
T01
X0050098Y0100689
T02
X006063Y-005876
X0037598Y-0081693
X0022047Y-008061
X001063Y-007815
X-0001673Y-0079232
X-0011614Y-0077658
X-0023819Y-0078642
X-0035925Y-0076968
X-0040059Y-0067913
X-0050591Y-0068799
X-0054331Y-0061122
X-0048819Y-0078543
X-0038976Y-0029823
X0015059Y-0049803
X0031496Y-0017717
X0035335Y-0009449
X0044193Y0016535
X0042815Y0037697
X0045079Y004065
X0035138Y0062894
X003061Y0074016
X0037106Y0078543
X0036024Y0093209
X0036713Y0101476
X0025Y0085138
X0011417Y008937
X0004331Y0085827
X0003347Y0102854
X-0006791
X-0016143Y0102681
X-0031988Y0103839
X-0038287Y010502
X-0043898Y0067224
X-0044293Y0054333
X-0040899Y0054431
X-003622Y0053248
X-0036319Y0047835
X-0034941Y0043209
X-0036971Y0036647
X-003508Y0032105
X-0046752Y0026575
X-0046654Y0022171
X-0037866Y0010799
X-0034252Y0012795
X-0035039Y0007874
X-0037795Y0004134
Y-0011909
X-0016831Y0034843
X-0016732Y0047441
X-0007579Y0041437
X0005807Y0039272
X0005709Y0050394
X0002461Y0059842
X-0000787Y0068504
X-0010433Y0056595
X0017126Y0057579
X0020079Y0066535
X0014469Y0044587
X0017618Y0033661
X-003563Y0060433
X-0058071Y0077165
X-0060532Y0081004
T03
X0020276Y-0023031
X0040059Y0012795
T04
X0038583Y0058268
T05
X-0054921Y-004
Y-003
Y-002
X-0025276Y-0068721
X-0015276Y-0068701
X-0005276
X0014724
X0024724
X0054862Y-00465
Y-00365
Y-00165
Y-00065
X0054843Y00035
X0054882Y0027279
Y0037279
Y004728
Y0057279
X0054921Y0081059
Y0091059
X-0054921Y0067559
Y0057559
Y0047559
Y0037559
Y001378
Y0003779
T07
X0048327Y-0069488
X-0048335Y0092421
M30
