G04*
G04 #@! TF.GenerationSoftware,Altium Limited,Altium Designer,20.1.8 (145)*
G04*
G04 Layer_Physical_Order=1*
G04 Layer_Color=255*
%FSLAX25Y25*%
%MOIN*%
G70*
G04*
G04 #@! TF.SameCoordinates,E63724BA-16F5-4366-9E26-62C3D329C696*
G04*
G04*
G04 #@! TF.FilePolarity,Positive*
G04*
G01*
G75*
%ADD12C,0.01000*%
%ADD13R,0.07480X0.04213*%
%ADD19C,0.00300*%
%ADD20C,0.02000*%
%ADD21C,0.03000*%
%ADD22C,0.01500*%
%ADD23C,0.12598*%
%ADD24C,0.06500*%
%ADD25R,0.06500X0.06500*%
%ADD26R,0.06500X0.06500*%
%ADD27C,0.02362*%
%ADD28C,0.02000*%
%ADD29C,0.02559*%
%ADD30C,0.03000*%
G36*
X49558Y106097D02*
X51808Y105557D01*
X53945Y104672D01*
X55918Y103463D01*
X57677Y101961D01*
X59180Y100201D01*
X60388Y98229D01*
X61274Y96092D01*
X61814Y93842D01*
X61991Y91590D01*
X61980Y91536D01*
X61980Y-62427D01*
X61480Y-62568D01*
X61088Y-61927D01*
X61083Y-61905D01*
X61042Y-61843D01*
X61040Y-61835D01*
X60928Y-61667D01*
X60362Y-60744D01*
X59887Y-60188D01*
X59829Y-60100D01*
X59791Y-60075D01*
X59790Y-60074D01*
X59711Y-59954D01*
X59659Y-59920D01*
X59398Y-59614D01*
X59329Y-59512D01*
X59305Y-59495D01*
X59277Y-59454D01*
X59240Y-59429D01*
X58846Y-58969D01*
X58357Y-58551D01*
X58329Y-58509D01*
X58285Y-58480D01*
X58268Y-58454D01*
X58158Y-58381D01*
X57862Y-58128D01*
X57829Y-58079D01*
X57715Y-58002D01*
X57697Y-57987D01*
X57675Y-57954D01*
X57600Y-57904D01*
X57071Y-57452D01*
X56120Y-56869D01*
X55949Y-56755D01*
X55938Y-56753D01*
X55859Y-56700D01*
X55836Y-56696D01*
X55081Y-56233D01*
X54509Y-55996D01*
X54449Y-55955D01*
X54377Y-55941D01*
X54044Y-55803D01*
X53949Y-55740D01*
X53894Y-55729D01*
X53851Y-55700D01*
X53743Y-55679D01*
X53488Y-55573D01*
X53449Y-55547D01*
X53402Y-55537D01*
X52924Y-55339D01*
X52360Y-55204D01*
X52354Y-55200D01*
X52296Y-55189D01*
X51968Y-55110D01*
X51949Y-55097D01*
X51747Y-55057D01*
X50654Y-54794D01*
X50047Y-54747D01*
X50000Y-54737D01*
X49980Y-54741D01*
X49655Y-54716D01*
X49500Y-54685D01*
X49433Y-54698D01*
X49109Y-54673D01*
X49000Y-54651D01*
X48953Y-54660D01*
X48327Y-54611D01*
X47560Y-54672D01*
X47500Y-54660D01*
X47361Y-54687D01*
X47060Y-54711D01*
X47000Y-54699D01*
X46862Y-54726D01*
X46000Y-54794D01*
X45124Y-55005D01*
X45051Y-55019D01*
X45044Y-55024D01*
X44736Y-55098D01*
X44551Y-55134D01*
X44534Y-55146D01*
X44357Y-55189D01*
X44299Y-55200D01*
X44294Y-55204D01*
X43729Y-55339D01*
X43129Y-55588D01*
X43051Y-55603D01*
X42985Y-55648D01*
X42910Y-55679D01*
X42802Y-55700D01*
X42711Y-55761D01*
X42663Y-55781D01*
X42551Y-55803D01*
X42457Y-55866D01*
X42088Y-56019D01*
X42051Y-56027D01*
X42020Y-56047D01*
X41573Y-56233D01*
X41060Y-56547D01*
X41051Y-56549D01*
X40988Y-56591D01*
X40817Y-56696D01*
X40795Y-56700D01*
X40628Y-56812D01*
X40570Y-56847D01*
X40551Y-56851D01*
X40414Y-56943D01*
X39582Y-57452D01*
X39171Y-57804D01*
X39171Y-57804D01*
X39171Y-57804D01*
X39054Y-57904D01*
X38978Y-57954D01*
X38956Y-57987D01*
X38803Y-58118D01*
X38671Y-58206D01*
X38633Y-58264D01*
X38495Y-58381D01*
X38385Y-58454D01*
X38353Y-58502D01*
X38214Y-58621D01*
X38171Y-58650D01*
X38158Y-58669D01*
X37807Y-58969D01*
X37414Y-59429D01*
X37376Y-59454D01*
X37318Y-59541D01*
X37227Y-59648D01*
X37171Y-59685D01*
X37084Y-59816D01*
X36995Y-59920D01*
X36943Y-59954D01*
X36863Y-60074D01*
X36678Y-60290D01*
X36671Y-60295D01*
X36660Y-60312D01*
X36291Y-60744D01*
X35726Y-61667D01*
X35613Y-61835D01*
X35609Y-61857D01*
X35480Y-62068D01*
X35417Y-62162D01*
X35414Y-62175D01*
X35071Y-62734D01*
X34920Y-63100D01*
X34917Y-63105D01*
X34916Y-63110D01*
X34845Y-63280D01*
X34808Y-63335D01*
X34795Y-63400D01*
X34655Y-63739D01*
X34591Y-63835D01*
X34569Y-63948D01*
X34454Y-64226D01*
X34417Y-64281D01*
X34410Y-64315D01*
X34397Y-64335D01*
X34386Y-64388D01*
X34178Y-64891D01*
X33956Y-65815D01*
X33943Y-65835D01*
X33923Y-65937D01*
X33917Y-65946D01*
X33878Y-66139D01*
X33633Y-67161D01*
X33587Y-67748D01*
X33580Y-67783D01*
X33583Y-67799D01*
X33557Y-68131D01*
X33526Y-68283D01*
X33539Y-68350D01*
X33514Y-68667D01*
X33491Y-68783D01*
X33501Y-68834D01*
X33450Y-69488D01*
X33508Y-70225D01*
X33496Y-70284D01*
X33523Y-70418D01*
X33547Y-70722D01*
X33535Y-70784D01*
X33563Y-70926D01*
X33633Y-71816D01*
X33841Y-72682D01*
X33851Y-72732D01*
X33854Y-72737D01*
X33878Y-72838D01*
X33917Y-73030D01*
X33929Y-73048D01*
X33965Y-73232D01*
X33977Y-73251D01*
X34178Y-74085D01*
X34404Y-74631D01*
X34417Y-74696D01*
X34426Y-74709D01*
X34430Y-74732D01*
X34471Y-74793D01*
X34606Y-75120D01*
X34629Y-75232D01*
X34692Y-75328D01*
X34842Y-75688D01*
X34850Y-75732D01*
X34876Y-75770D01*
X34916Y-75866D01*
X34917Y-75872D01*
X34920Y-75876D01*
X35071Y-76242D01*
X35368Y-76727D01*
X35369Y-76732D01*
X35397Y-76773D01*
X35414Y-76802D01*
X35417Y-76814D01*
X35480Y-76909D01*
X35666Y-77212D01*
X35670Y-77232D01*
X35769Y-77381D01*
X36291Y-78233D01*
X36660Y-78664D01*
X36671Y-78681D01*
X36678Y-78686D01*
X36931Y-78982D01*
X37018Y-79113D01*
X37075Y-79150D01*
X37084Y-79161D01*
X37171Y-79291D01*
X37227Y-79329D01*
X37422Y-79557D01*
X37459Y-79613D01*
X37483Y-79629D01*
X37807Y-80008D01*
X38158Y-80308D01*
X38171Y-80326D01*
X38214Y-80355D01*
X38451Y-80558D01*
X38488Y-80613D01*
X38614Y-80697D01*
X38633Y-80713D01*
X38671Y-80770D01*
X38803Y-80858D01*
X39083Y-81098D01*
X39093Y-81113D01*
X39128Y-81135D01*
X39171Y-81173D01*
X39171Y-81173D01*
X39171Y-81173D01*
X39582Y-81524D01*
X40414Y-82034D01*
X40551Y-82125D01*
X40570Y-82129D01*
X40825Y-82285D01*
X40947Y-82367D01*
X41029Y-82535D01*
X40885Y-82859D01*
X40682Y-83035D01*
X-47252D01*
X-47306Y-83046D01*
X-49558Y-82869D01*
X-51808Y-82329D01*
X-53945Y-81444D01*
X-55918Y-80235D01*
X-57677Y-78732D01*
X-59180Y-76973D01*
X-60388Y-75001D01*
X-61274Y-72863D01*
X-61814Y-70613D01*
X-61957Y-68801D01*
X-61980Y-68307D01*
X-61980Y-68307D01*
X-61980Y-67814D01*
X-61980Y85347D01*
X-61889Y85373D01*
X-61426Y85399D01*
X-61088Y84848D01*
X-61040Y84795D01*
X-61024Y84772D01*
X-61023Y84768D01*
X-60967Y84683D01*
X-60936Y84600D01*
X-60709Y84229D01*
X-60398Y83893D01*
X-60273Y83836D01*
X-60156Y83758D01*
X-60134Y83724D01*
X-59570Y83160D01*
X-59539Y83115D01*
X-59470Y82768D01*
X-59216Y82387D01*
X-59059Y82141D01*
X-58854Y81902D01*
X-58712Y81781D01*
X-58342Y81464D01*
X-58329Y81445D01*
X-58286Y81416D01*
X-58255Y81390D01*
X-58253Y81387D01*
X-58247Y81383D01*
X-57842Y81037D01*
X-57829Y81018D01*
X-57784Y80987D01*
X-57079Y80386D01*
X-55089Y79166D01*
X-54735Y79020D01*
X-54735Y79019D01*
X-54735Y79019D01*
X-54510Y78926D01*
X-54449Y78885D01*
X-54376Y78871D01*
X-54044Y78733D01*
X-53949Y78670D01*
X-53898Y78659D01*
X-53859Y78633D01*
X-53751Y78612D01*
X-53486Y78502D01*
X-53449Y78477D01*
X-53449Y78477D01*
X-53223Y78393D01*
X-52932Y78272D01*
X-52751Y78229D01*
X-51034Y77817D01*
X-51034D01*
X-50662Y77728D01*
X-49577Y77642D01*
X-49500Y77627D01*
X-49467Y77634D01*
X-48823Y77583D01*
X-48785Y77575D01*
X-48768Y77578D01*
X-48335Y77544D01*
X-47902Y77578D01*
X-47885Y77575D01*
X-47846Y77583D01*
X-47522Y77608D01*
X-47500Y77604D01*
X-47448Y77614D01*
X-47020Y77648D01*
X-47000Y77644D01*
X-46954Y77653D01*
X-46321Y77703D01*
X-46007Y77728D01*
X-45636Y77817D01*
X-45636D01*
X-45130Y77938D01*
X-43738Y78272D01*
X-43446Y78393D01*
X-43130Y78524D01*
X-43051Y78540D01*
X-42954Y78605D01*
X-42810Y78633D01*
X-42560Y78738D01*
X-42551Y78740D01*
X-42544Y78745D01*
X-42096Y78952D01*
X-42086Y78957D01*
X-42051Y78964D01*
X-42051Y78964D01*
X-41872Y79045D01*
X-41581Y79166D01*
X-41422Y79263D01*
X-39590Y80386D01*
X-38738Y81113D01*
X-38671Y81158D01*
X-38651Y81187D01*
X-38519Y81301D01*
X-38422Y81383D01*
X-38416Y81387D01*
X-38145Y81620D01*
X-38133Y81630D01*
X-38117Y81641D01*
X-38055Y81697D01*
X-37815Y81902D01*
X-37694Y82043D01*
X-37402Y82386D01*
X-37399Y82387D01*
X-37396Y82392D01*
X-37190Y82633D01*
X-37171Y82646D01*
X-37141Y82691D01*
X-36987Y82871D01*
X-36963Y82887D01*
X-36925Y82944D01*
X-36503Y83437D01*
X-36299Y83677D01*
X-36134Y83945D01*
X-35244Y85399D01*
X-35079Y85667D01*
X-34959Y85958D01*
X-34817Y86268D01*
X-34804Y86333D01*
X-34602Y86764D01*
X-34599Y86768D01*
X-34599Y86768D01*
X-34599Y86768D01*
X-34598Y86771D01*
X-34418Y87233D01*
X-34417Y87235D01*
X-34306Y87533D01*
X-34186Y87824D01*
X-34142Y88005D01*
X-33964Y88748D01*
Y88748D01*
X-33641Y90094D01*
X-33558Y91144D01*
X-33544Y91216D01*
X-33550Y91248D01*
X-33514Y91706D01*
X-33512Y91716D01*
X-33513Y91721D01*
X-33496Y91932D01*
X-33489Y91971D01*
X-33492Y91988D01*
X-33458Y92421D01*
X-33492Y92854D01*
X-33489Y92871D01*
X-33496Y92910D01*
X-33519Y93199D01*
X-33515Y93217D01*
X-33523Y93257D01*
X-33558Y93692D01*
X-33553Y93717D01*
X-33564Y93772D01*
X-33616Y94435D01*
X-33641Y94749D01*
X-33730Y95121D01*
Y95121D01*
X-33849Y95615D01*
X-33849Y95615D01*
X-33985Y96184D01*
Y96184D01*
X-34112Y96712D01*
X-34186Y97019D01*
X-34306Y97310D01*
X-34417Y97607D01*
X-34417Y97608D01*
X-34438Y97665D01*
X-34479Y97726D01*
X-34483Y97735D01*
X-34635Y98156D01*
X-34637Y98165D01*
X-34637Y98165D01*
Y98165D01*
X-34640Y98170D01*
X-34836Y98588D01*
X-34850Y98621D01*
X-34858Y98665D01*
X-34858Y98665D01*
X-34959Y98884D01*
X-35079Y99175D01*
X-35177Y99334D01*
X-35475Y99821D01*
X-35475Y99821D01*
X-35674Y100145D01*
X-35674Y100145D01*
X-36299Y101166D01*
X-36991Y101977D01*
X-37038Y102046D01*
X-37067Y102066D01*
X-37142Y102153D01*
X-37171Y102196D01*
X-37190Y102209D01*
X-37492Y102562D01*
X-37492Y102563D01*
X-37514Y102596D01*
X-37514Y102596D01*
X-37611Y102701D01*
X-37815Y102941D01*
X-38055Y103146D01*
X-38117Y103202D01*
X-38133Y103212D01*
X-38459Y103491D01*
X-38459Y103491D01*
X-38504Y103530D01*
X-38515Y103546D01*
X-38552Y103570D01*
X-38651Y103655D01*
X-38671Y103684D01*
X-38738Y103729D01*
X-39590Y104457D01*
X-39859Y104622D01*
X-41581Y105677D01*
X-41791Y105764D01*
X-41691Y106264D01*
X47252D01*
X47306Y106275D01*
X49558Y106097D01*
D02*
G37*
%LPC*%
G36*
X54921Y95346D02*
X53812Y95200D01*
X52778Y94771D01*
X51890Y94090D01*
X51810Y93985D01*
X51376Y93552D01*
X50923Y93125D01*
X50086Y92415D01*
X49738Y92160D01*
X49422Y91957D01*
X49154Y91812D01*
X48940Y91722D01*
X48792Y91682D01*
X48758Y91679D01*
X48712D01*
X48665Y91669D01*
X48610Y91664D01*
X48560Y91648D01*
X48127Y91562D01*
X47631Y91231D01*
X38031Y81631D01*
X37647Y81273D01*
X37233Y80927D01*
X37087Y80821D01*
X36976Y80749D01*
X36952Y80737D01*
X36255Y80598D01*
X35534Y80116D01*
X35052Y79394D01*
X34883Y78543D01*
X35052Y77692D01*
X35534Y76971D01*
X36255Y76489D01*
X37106Y76319D01*
X37957Y76489D01*
X38679Y76971D01*
X39161Y77692D01*
X39299Y78389D01*
X39312Y78413D01*
X39362Y78490D01*
X40273Y79548D01*
X49317Y88591D01*
X49419Y88581D01*
X49796Y88519D01*
X50174Y88434D01*
X51028Y88170D01*
X51444Y88008D01*
X52380Y87575D01*
X52706Y87402D01*
X52778Y87347D01*
X53812Y86918D01*
X54921Y86772D01*
X56031Y86918D01*
X57065Y87347D01*
X57952Y88028D01*
X58634Y88916D01*
X59062Y89950D01*
X59208Y91059D01*
X59062Y92168D01*
X58634Y93202D01*
X57952Y94090D01*
X57065Y94771D01*
X56031Y95200D01*
X54921Y95346D01*
D02*
G37*
G36*
Y85346D02*
X53812Y85200D01*
X52778Y84771D01*
X51890Y84090D01*
X51209Y83202D01*
X50781Y82169D01*
X50635Y81059D01*
X50781Y79950D01*
X51209Y78916D01*
X51890Y78028D01*
X52778Y77347D01*
X53812Y76918D01*
X54921Y76772D01*
X56031Y76918D01*
X57065Y77347D01*
X57952Y78028D01*
X58634Y78916D01*
X59062Y79950D01*
X59208Y81059D01*
X59062Y82169D01*
X58634Y83202D01*
X57952Y84090D01*
X57065Y84771D01*
X56031Y85200D01*
X54921Y85346D01*
D02*
G37*
G36*
X59171Y75309D02*
X55421D01*
Y71559D01*
X59171D01*
Y75309D01*
D02*
G37*
G36*
X54421D02*
X50671D01*
Y71559D01*
X54421D01*
Y75309D01*
D02*
G37*
G36*
X59171Y70559D02*
X55421D01*
Y66809D01*
X59171D01*
Y70559D01*
D02*
G37*
G36*
X54421D02*
X50671D01*
Y66809D01*
X54421D01*
Y70559D01*
D02*
G37*
G36*
X30610Y76240D02*
X29759Y76070D01*
X29206Y75701D01*
X28290Y75644D01*
X-9843D01*
X-10428Y75527D01*
X-10924Y75196D01*
X-23325Y62794D01*
X-23579Y62415D01*
X-24079Y62545D01*
Y65102D01*
Y71315D01*
X-33559D01*
Y68754D01*
X-41060D01*
X-41585Y68773D01*
X-42122Y68821D01*
X-42301Y68848D01*
X-42430Y68876D01*
X-42456Y68884D01*
X-43047Y69279D01*
X-43898Y69448D01*
X-44749Y69279D01*
X-45470Y68797D01*
X-45952Y68075D01*
X-46121Y67224D01*
X-45952Y66373D01*
X-45470Y65652D01*
X-44851Y65238D01*
X-44946Y64738D01*
X-49807D01*
X-49862Y64839D01*
X-49997Y65143D01*
X-50130Y65504D01*
X-50252Y65904D01*
X-50599Y67522D01*
X-50693Y68150D01*
X-50724Y68236D01*
X-50781Y68669D01*
X-51209Y69702D01*
X-51890Y70590D01*
X-52778Y71271D01*
X-53812Y71700D01*
X-54921Y71846D01*
X-56031Y71700D01*
X-57065Y71271D01*
X-57952Y70590D01*
X-58634Y69702D01*
X-59062Y68669D01*
X-59208Y67559D01*
X-59062Y66450D01*
X-58634Y65416D01*
X-57952Y64528D01*
X-57065Y63847D01*
X-56031Y63418D01*
X-55605Y63362D01*
X-55527Y63333D01*
X-54288Y63130D01*
X-53275Y62892D01*
X-52867Y62767D01*
X-52505Y62635D01*
X-52202Y62500D01*
X-51958Y62368D01*
X-51775Y62243D01*
X-51727Y62202D01*
X-51652Y62127D01*
X-51604Y62095D01*
X-51594Y62086D01*
X-51572Y62073D01*
X-51156Y61796D01*
X-50571Y61679D01*
X-33559D01*
Y59088D01*
X-45792D01*
X-46248Y59096D01*
X-48123Y59235D01*
X-48912Y59351D01*
X-49628Y59500D01*
X-50257Y59677D01*
X-50797Y59878D01*
X-51249Y60100D01*
X-51615Y60336D01*
X-51849Y60536D01*
X-51890Y60590D01*
X-52778Y61271D01*
X-53812Y61700D01*
X-54921Y61846D01*
X-56031Y61700D01*
X-57065Y61271D01*
X-57952Y60590D01*
X-58634Y59702D01*
X-59062Y58669D01*
X-59208Y57559D01*
X-59062Y56450D01*
X-58634Y55416D01*
X-57952Y54528D01*
X-57065Y53847D01*
X-56031Y53418D01*
X-54921Y53272D01*
X-53812Y53418D01*
X-52778Y53847D01*
X-51890Y54528D01*
X-51849Y54582D01*
X-51615Y54782D01*
X-51249Y55018D01*
X-50797Y55239D01*
X-50257Y55441D01*
X-49628Y55618D01*
X-48912Y55767D01*
X-48123Y55883D01*
X-46397Y56011D01*
X-46169Y55714D01*
X-46121Y55524D01*
X-46348Y55184D01*
X-46517Y54333D01*
X-46348Y53482D01*
X-45953Y52892D01*
X-45945Y52866D01*
X-45926Y52776D01*
X-45823Y51384D01*
Y45278D01*
X-45706Y44693D01*
X-45375Y44196D01*
X-38886Y37707D01*
X-39025Y37499D01*
X-39195Y36647D01*
X-39025Y35796D01*
X-38543Y35075D01*
X-37822Y34593D01*
X-36971Y34424D01*
X-36183Y34580D01*
X-36023Y34098D01*
X-36652Y33678D01*
X-37134Y32956D01*
X-37304Y32105D01*
X-37134Y31254D01*
X-36652Y30533D01*
X-35931Y30051D01*
X-35080Y29882D01*
X-34229Y30051D01*
X-34023Y30188D01*
X-33559Y29897D01*
Y29089D01*
X-45202D01*
X-45787Y28972D01*
X-46208Y28690D01*
X-46752Y28799D01*
X-47404Y28669D01*
X-47904Y28984D01*
Y43232D01*
X-48020Y43817D01*
X-48352Y44314D01*
X-48615Y44578D01*
X-48715Y44683D01*
X-49046Y45069D01*
X-49350Y45465D01*
X-49628Y45872D01*
X-49880Y46289D01*
X-50108Y46718D01*
X-50310Y47158D01*
X-50487Y47610D01*
X-50640Y48075D01*
X-50762Y48530D01*
X-50781Y48669D01*
X-51209Y49702D01*
X-51890Y50590D01*
X-52778Y51271D01*
X-53812Y51700D01*
X-54921Y51846D01*
X-56031Y51700D01*
X-57065Y51271D01*
X-57952Y50590D01*
X-58634Y49702D01*
X-59062Y48669D01*
X-59208Y47559D01*
X-59062Y46450D01*
X-58634Y45416D01*
X-57952Y44528D01*
X-57065Y43847D01*
X-56031Y43418D01*
X-54921Y43272D01*
X-54827Y43285D01*
X-53608Y43235D01*
X-53047Y43172D01*
X-52528Y43082D01*
X-52061Y42970D01*
X-51648Y42838D01*
X-51289Y42687D01*
X-50982Y42522D01*
X-50963Y42509D01*
Y40203D01*
X-51463Y40033D01*
X-51890Y40590D01*
X-52778Y41271D01*
X-53812Y41700D01*
X-54921Y41846D01*
X-56031Y41700D01*
X-57065Y41271D01*
X-57952Y40590D01*
X-58634Y39702D01*
X-59062Y38669D01*
X-59208Y37559D01*
X-59062Y36450D01*
X-58634Y35416D01*
X-57952Y34528D01*
X-57065Y33847D01*
X-56031Y33419D01*
X-54921Y33272D01*
X-53812Y33419D01*
X-52778Y33847D01*
X-51890Y34528D01*
X-51463Y35085D01*
X-50963Y34916D01*
Y31809D01*
X-54421D01*
Y27559D01*
Y23309D01*
X-50963D01*
Y21159D01*
X-50846Y20573D01*
X-50515Y20077D01*
X-46974Y16537D01*
X-46478Y16205D01*
X-45893Y16089D01*
X-33559D01*
Y15391D01*
X-34004Y14970D01*
X-34252Y15019D01*
X-35103Y14850D01*
X-35824Y14368D01*
X-36307Y13646D01*
X-36423Y13060D01*
X-36950Y12810D01*
X-37015Y12854D01*
X-37866Y13023D01*
X-38717Y12854D01*
X-39439Y12372D01*
X-39921Y11650D01*
X-40059Y10953D01*
X-40072Y10929D01*
X-40122Y10852D01*
X-41033Y9795D01*
X-41558Y9270D01*
X-41889Y8774D01*
X-42006Y8189D01*
Y3680D01*
X-42468Y3489D01*
X-47384Y8405D01*
X-47702Y8733D01*
X-48929Y10157D01*
X-49405Y10798D01*
X-49806Y11409D01*
X-50125Y11979D01*
X-50365Y12503D01*
X-50528Y12980D01*
X-50620Y13405D01*
X-50643Y13713D01*
X-50635Y13780D01*
X-50781Y14889D01*
X-51209Y15923D01*
X-51890Y16811D01*
X-52778Y17492D01*
X-53812Y17920D01*
X-54921Y18066D01*
X-56031Y17920D01*
X-57065Y17492D01*
X-57952Y16811D01*
X-58634Y15923D01*
X-59062Y14889D01*
X-59208Y13780D01*
X-59062Y12670D01*
X-58634Y11636D01*
X-57952Y10748D01*
X-57065Y10067D01*
X-56031Y9639D01*
X-54921Y9493D01*
X-54854Y9502D01*
X-54547Y9478D01*
X-54122Y9386D01*
X-53645Y9223D01*
X-53120Y8984D01*
X-52551Y8664D01*
X-51940Y8263D01*
X-51299Y7787D01*
X-49875Y6560D01*
X-49547Y6242D01*
X-49083Y5778D01*
X-49190Y5482D01*
X-49321Y5309D01*
X-49360D01*
X-49399Y5312D01*
X-49578Y5347D01*
X-49793Y5413D01*
X-50040Y5514D01*
X-50317Y5655D01*
X-50621Y5834D01*
X-50941Y6048D01*
X-51684Y6623D01*
X-51869Y6784D01*
X-51890Y6811D01*
X-51980Y6880D01*
X-52083Y6969D01*
X-52135Y6999D01*
X-52778Y7492D01*
X-53812Y7920D01*
X-54921Y8066D01*
X-56031Y7920D01*
X-57065Y7492D01*
X-57952Y6811D01*
X-58634Y5923D01*
X-59062Y4889D01*
X-59208Y3779D01*
X-59062Y2670D01*
X-58634Y1636D01*
X-57952Y748D01*
X-57065Y67D01*
X-56031Y-361D01*
X-54921Y-507D01*
X-53812Y-361D01*
X-52778Y67D01*
X-52135Y560D01*
X-52083Y590D01*
X-51980Y679D01*
X-51890Y748D01*
X-51869Y776D01*
X-51684Y936D01*
X-50941Y1511D01*
X-50621Y1725D01*
X-50317Y1905D01*
X-50040Y2045D01*
X-49793Y2146D01*
X-49784Y2149D01*
X-38299Y-9336D01*
X-38444Y-9815D01*
X-38646Y-9855D01*
X-39368Y-10337D01*
X-39850Y-11058D01*
X-40019Y-11909D01*
X-39850Y-12760D01*
X-39368Y-13482D01*
X-38646Y-13964D01*
X-37949Y-14103D01*
X-37925Y-14115D01*
X-37848Y-14165D01*
X-36791Y-15077D01*
X-33070Y-18798D01*
X-32573Y-19129D01*
X-31988Y-19246D01*
X28659D01*
X29184Y-19265D01*
X29721Y-19313D01*
X29899Y-19341D01*
X30028Y-19368D01*
X30054Y-19376D01*
X30645Y-19771D01*
X31496Y-19940D01*
X32347Y-19771D01*
X33068Y-19289D01*
X33305Y-18935D01*
X33805Y-19086D01*
Y-22103D01*
X-1519Y-57427D01*
X-8578D01*
X-9163Y-57544D01*
X-9659Y-57875D01*
X-12588Y-60804D01*
X-15887Y-64032D01*
X-16487Y-64570D01*
X-16574Y-64638D01*
X-17419Y-64988D01*
X-18307Y-65670D01*
X-18988Y-66558D01*
X-19416Y-67591D01*
X-19562Y-68701D01*
X-19416Y-69810D01*
X-18988Y-70844D01*
X-18307Y-71732D01*
X-17419Y-72413D01*
X-16385Y-72841D01*
X-15276Y-72988D01*
X-14166Y-72841D01*
X-13132Y-72413D01*
X-12245Y-71732D01*
X-11563Y-70844D01*
X-11135Y-69810D01*
X-10989Y-68701D01*
X-11091Y-67928D01*
X-11089Y-67869D01*
X-11210Y-67125D01*
X-11254Y-66452D01*
X-11231Y-65803D01*
X-11141Y-65175D01*
X-10986Y-64565D01*
X-10762Y-63969D01*
X-10469Y-63383D01*
X-10105Y-62807D01*
X-9665Y-62238D01*
X-9299Y-61841D01*
X-7944Y-60486D01*
X-886D01*
X-301Y-60370D01*
X196Y-60038D01*
X36416Y-23818D01*
X36455Y-23760D01*
X36955Y-23911D01*
Y-38189D01*
X37071Y-38774D01*
X37403Y-39270D01*
X44982Y-46849D01*
X45478Y-47181D01*
X46063Y-47297D01*
X46372D01*
X46810Y-47310D01*
X47514Y-47377D01*
X48176Y-47487D01*
X48796Y-47640D01*
X49376Y-47833D01*
X49917Y-48066D01*
X50422Y-48340D01*
X50891Y-48654D01*
X51329Y-49010D01*
X51743Y-49416D01*
X51831Y-49531D01*
X52719Y-50212D01*
X53753Y-50641D01*
X54862Y-50787D01*
X55972Y-50641D01*
X57006Y-50212D01*
X57893Y-49531D01*
X58575Y-48643D01*
X59003Y-47609D01*
X59149Y-46500D01*
X59003Y-45390D01*
X58575Y-44357D01*
X57893Y-43469D01*
X57006Y-42788D01*
X55972Y-42359D01*
X54862Y-42213D01*
X53753Y-42359D01*
X52719Y-42788D01*
X52378Y-43049D01*
X52316Y-43075D01*
X51983Y-43297D01*
X51631Y-43476D01*
X51200Y-43644D01*
X50691Y-43797D01*
X50104Y-43931D01*
X49462Y-44040D01*
X46996Y-44235D01*
X46771Y-44238D01*
X46696D01*
X40014Y-37555D01*
Y-32692D01*
X40476Y-32501D01*
X45557Y-37582D01*
X46053Y-37913D01*
X46638Y-38029D01*
X46999D01*
X47333Y-38038D01*
X47993Y-38092D01*
X48618Y-38181D01*
X49208Y-38305D01*
X49764Y-38462D01*
X50287Y-38651D01*
X50778Y-38873D01*
X51238Y-39127D01*
X51669Y-39414D01*
X52106Y-39760D01*
X52177Y-39796D01*
X52719Y-40212D01*
X53753Y-40641D01*
X54862Y-40787D01*
X55972Y-40641D01*
X57006Y-40212D01*
X57893Y-39531D01*
X58575Y-38643D01*
X59003Y-37609D01*
X59149Y-36500D01*
X59003Y-35390D01*
X58575Y-34357D01*
X57893Y-33469D01*
X57006Y-32788D01*
X55972Y-32359D01*
X54862Y-32213D01*
X53753Y-32359D01*
X52719Y-32788D01*
X52177Y-33204D01*
X52106Y-33240D01*
X51670Y-33586D01*
X51238Y-33873D01*
X50778Y-34127D01*
X50287Y-34349D01*
X49765Y-34538D01*
X49208Y-34695D01*
X48618Y-34819D01*
X47993Y-34908D01*
X47333Y-34962D01*
X47265Y-34964D01*
X42014Y-29713D01*
Y-16291D01*
X42476Y-16100D01*
X43957Y-17581D01*
X44453Y-17913D01*
X45039Y-18029D01*
X45733D01*
X46189Y-18037D01*
X48064Y-18176D01*
X48853Y-18292D01*
X49569Y-18441D01*
X50197Y-18618D01*
X50738Y-18820D01*
X51190Y-19041D01*
X51556Y-19277D01*
X51790Y-19478D01*
X51831Y-19531D01*
X52719Y-20212D01*
X53753Y-20641D01*
X54862Y-20787D01*
X55972Y-20641D01*
X57006Y-20212D01*
X57893Y-19531D01*
X58575Y-18643D01*
X59003Y-17609D01*
X59149Y-16500D01*
X59003Y-15391D01*
X58575Y-14357D01*
X57893Y-13469D01*
X57006Y-12788D01*
X55972Y-12359D01*
X54862Y-12213D01*
X53753Y-12359D01*
X52719Y-12788D01*
X51831Y-13469D01*
X51790Y-13522D01*
X51556Y-13723D01*
X51190Y-13959D01*
X50738Y-14180D01*
X50197Y-14382D01*
X49569Y-14559D01*
X48853Y-14708D01*
X48063Y-14824D01*
X46189Y-14963D01*
X45733Y-14971D01*
X45672D01*
X44049Y-13348D01*
Y-4202D01*
X44549Y-3995D01*
X48135Y-7581D01*
X48631Y-7913D01*
X49128Y-8012D01*
X49149Y-8017D01*
X49160Y-8018D01*
X49217Y-8029D01*
X49329D01*
X49369Y-8032D01*
X49551Y-8067D01*
X49765Y-8132D01*
X50008Y-8232D01*
X50280Y-8369D01*
X50576Y-8544D01*
X50886Y-8754D01*
X51606Y-9319D01*
X51800Y-9491D01*
X51831Y-9531D01*
X51941Y-9615D01*
X51990Y-9659D01*
X52022Y-9677D01*
X52719Y-10212D01*
X53753Y-10641D01*
X54862Y-10787D01*
X55972Y-10641D01*
X57006Y-10212D01*
X57893Y-9531D01*
X58575Y-8643D01*
X59003Y-7609D01*
X59149Y-6500D01*
X59003Y-5390D01*
X58575Y-4357D01*
X57893Y-3469D01*
X57006Y-2788D01*
X55972Y-2359D01*
X54862Y-2213D01*
X53753Y-2359D01*
X52719Y-2788D01*
X52022Y-3323D01*
X51990Y-3341D01*
X51941Y-3385D01*
X51831Y-3469D01*
X51800Y-3509D01*
X51606Y-3681D01*
X50886Y-4247D01*
X50576Y-4456D01*
X50280Y-4631D01*
X50008Y-4768D01*
X49765Y-4868D01*
X49751Y-4872D01*
X46805Y-1925D01*
Y2067D01*
X46689Y2652D01*
X46357Y3148D01*
X39416Y10089D01*
X39663Y10550D01*
X40059Y10471D01*
X40949Y10648D01*
X41110Y10756D01*
X46104D01*
X47541Y9320D01*
X48570Y8205D01*
X49104Y7536D01*
X49559Y6893D01*
X49928Y6288D01*
X50212Y5723D01*
X50415Y5202D01*
X50541Y4728D01*
X50597Y4300D01*
X50588Y3832D01*
X50595Y3796D01*
X50556Y3500D01*
X50702Y2390D01*
X51130Y1357D01*
X51811Y469D01*
X52699Y-212D01*
X53733Y-641D01*
X54843Y-787D01*
X55952Y-641D01*
X56986Y-212D01*
X57874Y469D01*
X58555Y1357D01*
X58983Y2390D01*
X59129Y3500D01*
X58983Y4609D01*
X58555Y5643D01*
X57874Y6531D01*
X56986Y7212D01*
X55952Y7641D01*
X55504Y7700D01*
X55490Y7707D01*
X55379Y7740D01*
X55291Y7788D01*
X51564Y11064D01*
X48391Y14237D01*
X47729Y14679D01*
X46949Y14834D01*
X46281D01*
X46014Y15335D01*
X46248Y15684D01*
X46397Y16438D01*
X46404Y16452D01*
X46473Y16563D01*
X46567Y16694D01*
X47338Y17573D01*
X49508Y19742D01*
X49836Y20060D01*
X50177Y20354D01*
X50632Y20146D01*
Y17780D01*
X54382D01*
Y21530D01*
X52456D01*
X52306Y22029D01*
X52511Y22164D01*
X53081Y22484D01*
X53606Y22723D01*
X54082Y22886D01*
X54508Y22978D01*
X54815Y23002D01*
X54882Y22993D01*
X55991Y23139D01*
X57025Y23567D01*
X57913Y24248D01*
X58594Y25136D01*
X59022Y26170D01*
X59169Y27279D01*
X59022Y28389D01*
X58594Y29423D01*
X57913Y30311D01*
X57025Y30992D01*
X55991Y31420D01*
X54882Y31566D01*
X53772Y31420D01*
X52739Y30992D01*
X51851Y30311D01*
X51170Y29423D01*
X50741Y28389D01*
X50595Y27279D01*
X50604Y27213D01*
X50581Y26905D01*
X50489Y26480D01*
X50326Y26003D01*
X50086Y25479D01*
X49766Y24909D01*
X49366Y24298D01*
X48889Y23657D01*
X47662Y22233D01*
X47345Y21905D01*
X45207Y19767D01*
X44683Y19267D01*
X44272Y18919D01*
X44126Y18809D01*
X44015Y18735D01*
X43985Y18718D01*
X43342Y18590D01*
X42620Y18108D01*
X42138Y17386D01*
X41969Y16535D01*
X42138Y15684D01*
X42372Y15335D01*
X42105Y14834D01*
X41110D01*
X40949Y14942D01*
X40635Y15005D01*
X36383Y19257D01*
X35721Y19699D01*
X34941Y19854D01*
X33961D01*
X33620Y19876D01*
X33559Y19884D01*
Y22414D01*
X34058Y22513D01*
X34555Y22844D01*
X50279Y38569D01*
X50573Y38455D01*
X50731Y38314D01*
X50595Y37279D01*
X50741Y36170D01*
X51170Y35136D01*
X51851Y34248D01*
X52739Y33567D01*
X53772Y33139D01*
X54882Y32993D01*
X55991Y33139D01*
X57025Y33567D01*
X57913Y34248D01*
X58594Y35136D01*
X59022Y36170D01*
X59169Y37279D01*
X59022Y38389D01*
X58594Y39423D01*
X57913Y40311D01*
X57025Y40992D01*
X55991Y41420D01*
X54882Y41566D01*
X54116Y41465D01*
X53909Y41943D01*
X54464Y42397D01*
X54896Y42705D01*
X55242Y42920D01*
X55471Y43031D01*
X55674Y43091D01*
X55691Y43099D01*
X55991Y43139D01*
X57025Y43567D01*
X57913Y44248D01*
X58594Y45136D01*
X59022Y46170D01*
X59169Y47280D01*
X59022Y48389D01*
X58594Y49423D01*
X57913Y50311D01*
X57025Y50992D01*
X55991Y51420D01*
X54923Y51561D01*
X54791Y51750D01*
X54664Y52009D01*
X54911Y52256D01*
X55243Y52752D01*
X55301Y53048D01*
X55991Y53139D01*
X57025Y53567D01*
X57913Y54248D01*
X58594Y55136D01*
X59022Y56170D01*
X59169Y57279D01*
X59022Y58389D01*
X58594Y59423D01*
X57913Y60311D01*
X57025Y60992D01*
X55991Y61420D01*
X54882Y61566D01*
X53772Y61420D01*
X52739Y60992D01*
X51851Y60311D01*
X51170Y59423D01*
X50741Y58389D01*
X50595Y57279D01*
X50741Y56170D01*
X51170Y55136D01*
X51851Y54248D01*
X51961Y54164D01*
X51994Y53665D01*
X34021Y35692D01*
X33559Y35883D01*
Y37709D01*
X28819D01*
X24079D01*
Y35102D01*
Y32286D01*
X23693Y31969D01*
X23622Y31983D01*
X-23622D01*
X-23693Y31969D01*
X-24079Y32286D01*
Y32709D01*
X-28819D01*
Y33709D01*
X-24079D01*
Y35102D01*
Y38148D01*
X-23872Y38189D01*
X-23376Y38521D01*
X-21163Y40734D01*
X-20831Y41230D01*
X-20715Y41816D01*
Y61079D01*
X-9209Y72585D01*
X28240D01*
X28634Y72571D01*
X28973Y72540D01*
X29038Y72443D01*
X29759Y71961D01*
X30206Y71872D01*
X30272Y71721D01*
X30307Y71342D01*
X30274Y71315D01*
X24079D01*
Y65102D01*
Y60102D01*
Y55102D01*
Y53709D01*
X28819D01*
X33559D01*
Y55102D01*
Y56415D01*
X33669Y56424D01*
X35078D01*
X35374Y56422D01*
X36190Y56398D01*
X36776Y56349D01*
X36815Y56344D01*
X37548Y55854D01*
X38524Y55660D01*
X39499Y55854D01*
X40326Y56406D01*
X40385Y56465D01*
X40938Y57292D01*
X41132Y58268D01*
X40938Y59243D01*
X40385Y60070D01*
X39558Y60623D01*
X38583Y60817D01*
X37607Y60623D01*
X36884Y60139D01*
X36843Y60128D01*
X36696Y60101D01*
X35175Y60006D01*
X34058Y59994D01*
X33928Y60022D01*
X33559Y60146D01*
Y60724D01*
X34059Y60991D01*
X34287Y60839D01*
X35138Y60670D01*
X35989Y60839D01*
X36710Y61321D01*
X37192Y62043D01*
X37362Y62894D01*
X37192Y63745D01*
X36710Y64466D01*
X35989Y64948D01*
X35138Y65118D01*
X34287Y64948D01*
X34059Y64796D01*
X33559Y65063D01*
Y71315D01*
X30947D01*
X30913Y71342D01*
X30949Y71721D01*
X31014Y71872D01*
X31461Y71961D01*
X32183Y72443D01*
X32665Y73165D01*
X32834Y74016D01*
X32665Y74867D01*
X32183Y75588D01*
X31461Y76070D01*
X30610Y76240D01*
D02*
G37*
G36*
X33559Y52709D02*
X28819D01*
X24079D01*
Y50102D01*
Y45102D01*
Y43709D01*
X28819D01*
X33559D01*
Y45102D01*
Y50102D01*
Y52709D01*
D02*
G37*
G36*
Y42709D02*
X28819D01*
X24079D01*
Y40102D01*
Y38709D01*
X28819D01*
X33559D01*
Y40102D01*
Y42709D01*
D02*
G37*
G36*
X-55421Y31809D02*
X-59171D01*
Y28059D01*
X-55421D01*
Y31809D01*
D02*
G37*
G36*
Y27059D02*
X-59171D01*
Y23309D01*
X-55421D01*
Y27059D01*
D02*
G37*
G36*
X59132Y21530D02*
X55382D01*
Y17780D01*
X59132D01*
Y21530D01*
D02*
G37*
G36*
Y16780D02*
X55382D01*
Y13029D01*
X59132D01*
Y16780D01*
D02*
G37*
G36*
X54382D02*
X50632D01*
Y13029D01*
X54382D01*
Y16780D01*
D02*
G37*
G36*
X-50671Y-1970D02*
X-54421D01*
Y-5720D01*
X-50671D01*
Y-1970D01*
D02*
G37*
G36*
X-55421D02*
X-59171D01*
Y-5720D01*
X-55421D01*
Y-1970D01*
D02*
G37*
G36*
X-50671Y-6720D02*
X-54421D01*
Y-10470D01*
X-50671D01*
Y-6720D01*
D02*
G37*
G36*
X-55421D02*
X-59171D01*
Y-10470D01*
X-55421D01*
Y-6720D01*
D02*
G37*
G36*
X-54921Y-15713D02*
X-56031Y-15859D01*
X-57065Y-16288D01*
X-57952Y-16969D01*
X-58634Y-17857D01*
X-59062Y-18891D01*
X-59208Y-20000D01*
X-59062Y-21110D01*
X-58634Y-22143D01*
X-57952Y-23031D01*
X-57065Y-23712D01*
X-56031Y-24141D01*
X-54921Y-24287D01*
X-53812Y-24141D01*
X-52778Y-23712D01*
X-51890Y-23031D01*
X-51209Y-22143D01*
X-50781Y-21110D01*
X-50635Y-20000D01*
X-50781Y-18891D01*
X-51209Y-17857D01*
X-51890Y-16969D01*
X-52778Y-16288D01*
X-53812Y-15859D01*
X-54921Y-15713D01*
D02*
G37*
G36*
X20276Y-20707D02*
X19386Y-20884D01*
X19224Y-20992D01*
X-47006D01*
X-47786Y-21147D01*
X-48448Y-21590D01*
X-49772Y-22914D01*
X-51182Y-24129D01*
X-51819Y-24601D01*
X-52422Y-24993D01*
X-52976Y-25299D01*
X-53479Y-25520D01*
X-53925Y-25661D01*
X-54310Y-25729D01*
X-54728Y-25738D01*
X-54731Y-25738D01*
X-54921Y-25713D01*
X-56031Y-25859D01*
X-57065Y-26288D01*
X-57952Y-26969D01*
X-58634Y-27857D01*
X-59062Y-28890D01*
X-59208Y-30000D01*
X-59062Y-31109D01*
X-58634Y-32143D01*
X-57952Y-33031D01*
X-57065Y-33712D01*
X-56031Y-34141D01*
X-54921Y-34287D01*
X-53812Y-34141D01*
X-52778Y-33712D01*
X-51890Y-33031D01*
X-51209Y-32143D01*
X-50781Y-31109D01*
X-50699Y-30489D01*
X-50684Y-30456D01*
X-50645Y-30280D01*
X-50561Y-30088D01*
X-50376Y-29771D01*
X-50112Y-29387D01*
X-47393Y-26303D01*
X-46161Y-25071D01*
X19224D01*
X19386Y-25179D01*
X20276Y-25356D01*
X21165Y-25179D01*
X21919Y-24675D01*
X22423Y-23921D01*
X22600Y-23031D01*
X22423Y-22142D01*
X21919Y-21388D01*
X21165Y-20884D01*
X20276Y-20707D01*
D02*
G37*
G36*
X59112Y-22250D02*
X55362D01*
Y-26000D01*
X59112D01*
Y-22250D01*
D02*
G37*
G36*
X54362D02*
X50612D01*
Y-26000D01*
X54362D01*
Y-22250D01*
D02*
G37*
G36*
X59112Y-27000D02*
X55362D01*
Y-30750D01*
X59112D01*
Y-27000D01*
D02*
G37*
G36*
X54362D02*
X50612D01*
Y-30750D01*
X54362D01*
Y-27000D01*
D02*
G37*
G36*
X-54921Y-35713D02*
X-56031Y-35859D01*
X-57065Y-36288D01*
X-57952Y-36969D01*
X-58634Y-37857D01*
X-59062Y-38890D01*
X-59208Y-40000D01*
X-59062Y-41109D01*
X-58634Y-42143D01*
X-57952Y-43031D01*
X-57065Y-43712D01*
X-56031Y-44141D01*
X-54921Y-44287D01*
X-53812Y-44141D01*
X-52778Y-43712D01*
X-51890Y-43031D01*
X-51209Y-42143D01*
X-50781Y-41109D01*
X-50635Y-40000D01*
X-50781Y-38890D01*
X-51209Y-37857D01*
X-51890Y-36969D01*
X-52778Y-36288D01*
X-53812Y-35859D01*
X-54921Y-35713D01*
D02*
G37*
G36*
X-50671Y-45750D02*
X-54421D01*
Y-49500D01*
X-50671D01*
Y-45750D01*
D02*
G37*
G36*
X-55421D02*
X-59171D01*
Y-49500D01*
X-55421D01*
Y-45750D01*
D02*
G37*
G36*
X-50671Y-50500D02*
X-54421D01*
Y-54250D01*
X-50671D01*
Y-50500D01*
D02*
G37*
G36*
X-55421D02*
X-59171D01*
Y-54250D01*
X-55421D01*
Y-50500D01*
D02*
G37*
G36*
X8974Y-64451D02*
X474D01*
Y-72951D01*
X8974D01*
Y-64451D01*
D02*
G37*
G36*
X24724Y-64414D02*
X23615Y-64560D01*
X22581Y-64988D01*
X21693Y-65670D01*
X21012Y-66558D01*
X20584Y-67591D01*
X20438Y-68701D01*
X20584Y-69810D01*
X21012Y-70844D01*
X21693Y-71732D01*
X22581Y-72413D01*
X23615Y-72841D01*
X24724Y-72988D01*
X25834Y-72841D01*
X26868Y-72413D01*
X27755Y-71732D01*
X28437Y-70844D01*
X28865Y-69810D01*
X29011Y-68701D01*
X28865Y-67591D01*
X28437Y-66558D01*
X27755Y-65670D01*
X26868Y-64988D01*
X25834Y-64560D01*
X24724Y-64414D01*
D02*
G37*
G36*
X14724D02*
X13615Y-64560D01*
X12581Y-64988D01*
X11693Y-65670D01*
X11012Y-66558D01*
X10584Y-67591D01*
X10438Y-68701D01*
X10584Y-69810D01*
X11012Y-70844D01*
X11693Y-71732D01*
X12581Y-72413D01*
X13615Y-72841D01*
X14724Y-72988D01*
X15834Y-72841D01*
X16868Y-72413D01*
X17755Y-71732D01*
X18437Y-70844D01*
X18865Y-69810D01*
X19011Y-68701D01*
X18865Y-67591D01*
X18437Y-66558D01*
X17755Y-65670D01*
X16868Y-64988D01*
X15834Y-64560D01*
X14724Y-64414D01*
D02*
G37*
G36*
X-5276D02*
X-6385Y-64560D01*
X-7419Y-64988D01*
X-8307Y-65670D01*
X-8988Y-66558D01*
X-9416Y-67591D01*
X-9562Y-68701D01*
X-9416Y-69810D01*
X-8988Y-70844D01*
X-8307Y-71732D01*
X-7419Y-72413D01*
X-6385Y-72841D01*
X-5276Y-72988D01*
X-4166Y-72841D01*
X-3132Y-72413D01*
X-2245Y-71732D01*
X-1563Y-70844D01*
X-1135Y-69810D01*
X-989Y-68701D01*
X-1135Y-67591D01*
X-1563Y-66558D01*
X-2245Y-65670D01*
X-3132Y-64988D01*
X-4166Y-64560D01*
X-5276Y-64414D01*
D02*
G37*
G36*
X-38976Y-27599D02*
X-39827Y-27768D01*
X-40549Y-28250D01*
X-41031Y-28972D01*
X-41200Y-29823D01*
X-41031Y-30674D01*
X-40549Y-31395D01*
X-39827Y-31877D01*
X-39131Y-32016D01*
X-39107Y-32029D01*
X-39029Y-32078D01*
X-37972Y-32990D01*
X-26805Y-44157D01*
Y-59591D01*
X-26812Y-60047D01*
X-26952Y-61922D01*
X-27068Y-62712D01*
X-27217Y-63427D01*
X-27393Y-64056D01*
X-27595Y-64596D01*
X-27817Y-65048D01*
X-28052Y-65414D01*
X-28253Y-65648D01*
X-28307Y-65689D01*
X-28988Y-66577D01*
X-29416Y-67611D01*
X-29562Y-68721D01*
X-29416Y-69830D01*
X-28988Y-70864D01*
X-28307Y-71752D01*
X-27419Y-72433D01*
X-26385Y-72861D01*
X-25276Y-73007D01*
X-24166Y-72861D01*
X-23132Y-72433D01*
X-22244Y-71752D01*
X-21563Y-70864D01*
X-21135Y-69830D01*
X-20989Y-68721D01*
X-21135Y-67611D01*
X-21563Y-66577D01*
X-22244Y-65689D01*
X-22298Y-65648D01*
X-22499Y-65414D01*
X-22735Y-65048D01*
X-22956Y-64596D01*
X-23158Y-64056D01*
X-23335Y-63427D01*
X-23483Y-62712D01*
X-23600Y-61922D01*
X-23739Y-60047D01*
X-23746Y-59591D01*
Y-43524D01*
X-23863Y-42938D01*
X-24194Y-42442D01*
X-35889Y-30748D01*
X-36246Y-30363D01*
X-36592Y-29949D01*
X-36699Y-29803D01*
X-36770Y-29693D01*
X-36783Y-29669D01*
X-36922Y-28972D01*
X-37404Y-28250D01*
X-38125Y-27768D01*
X-38976Y-27599D01*
D02*
G37*
%LPD*%
G36*
X53346Y88217D02*
X52834Y88489D01*
X51843Y88947D01*
X51364Y89133D01*
X50437Y89420D01*
X49990Y89520D01*
X49553Y89592D01*
X49127Y89635D01*
X48712Y89649D01*
Y90649D01*
X48979Y90676D01*
X49273Y90756D01*
X49593Y90890D01*
X49941Y91078D01*
X50316Y91319D01*
X50718Y91614D01*
X51603Y92365D01*
X52086Y92821D01*
X52596Y93330D01*
X53346Y88217D01*
D02*
G37*
G36*
X39887Y80617D02*
X39583Y80308D01*
X38543Y79102D01*
X38432Y78929D01*
X38352Y78777D01*
X38303Y78649D01*
X38287Y78543D01*
X37106Y79724D01*
X37212Y79741D01*
X37341Y79789D01*
X37492Y79869D01*
X37665Y79980D01*
X37862Y80124D01*
X38321Y80508D01*
X38871Y81020D01*
X39180Y81324D01*
X39887Y80617D01*
D02*
G37*
G36*
X29881Y73331D02*
X29811Y73385D01*
X29709Y73433D01*
X29573Y73476D01*
X29404Y73512D01*
X29202Y73544D01*
X28698Y73589D01*
X28062Y73611D01*
X27694Y73614D01*
X27809Y74614D01*
X28186Y74616D01*
X29881Y74721D01*
X29928Y74747D01*
X29881Y73331D01*
D02*
G37*
G36*
X-32535Y66474D02*
X-32545Y66522D01*
X-32576Y66564D01*
X-32626Y66602D01*
X-32697Y66634D01*
X-32788Y66662D01*
X-32899Y66684D01*
X-33031Y66702D01*
X-33355Y66722D01*
X-33547Y66724D01*
Y67724D01*
X-33355Y67727D01*
X-32899Y67764D01*
X-32788Y67787D01*
X-32697Y67814D01*
X-32626Y67847D01*
X-32576Y67884D01*
X-32545Y67927D01*
X-32535Y67974D01*
Y66474D01*
D02*
G37*
G36*
X-42976Y67996D02*
X-42851Y67939D01*
X-42688Y67889D01*
X-42486Y67845D01*
X-42246Y67808D01*
X-41649Y67755D01*
X-40898Y67728D01*
X-40465Y67724D01*
Y66724D01*
X-40898Y66721D01*
X-42486Y66604D01*
X-42688Y66560D01*
X-42851Y66510D01*
X-42976Y66452D01*
X-43063Y66389D01*
Y68060D01*
X-42976Y67996D01*
D02*
G37*
G36*
X34303Y62058D02*
X34217Y62122D01*
X34092Y62179D01*
X33928Y62229D01*
X33726Y62273D01*
X33486Y62310D01*
X32951Y62358D01*
X32899Y62354D01*
X32788Y62331D01*
X32697Y62304D01*
X32626Y62271D01*
X32576Y62234D01*
X32545Y62191D01*
X32535Y62144D01*
Y62376D01*
X32139Y62390D01*
X31705Y62394D01*
Y63394D01*
X32139Y63397D01*
X32535Y63426D01*
Y63644D01*
X32545Y63596D01*
X32576Y63554D01*
X32626Y63516D01*
X32697Y63484D01*
X32788Y63456D01*
X32828Y63448D01*
X33726Y63515D01*
X33928Y63558D01*
X34092Y63608D01*
X34217Y63666D01*
X34303Y63729D01*
Y62058D01*
D02*
G37*
G36*
X-51602Y67339D02*
X-51239Y65647D01*
X-51097Y65180D01*
X-50943Y64760D01*
X-50778Y64389D01*
X-50602Y64065D01*
X-50415Y63790D01*
X-50217Y63562D01*
X-50924Y62855D01*
X-51152Y63053D01*
X-51427Y63240D01*
X-51751Y63416D01*
X-52122Y63581D01*
X-52542Y63734D01*
X-53010Y63877D01*
X-54089Y64130D01*
X-55361Y64339D01*
X-51701Y67999D01*
X-51602Y67339D01*
D02*
G37*
G36*
X-32535Y62459D02*
X-32545Y62506D01*
X-32576Y62549D01*
X-32626Y62586D01*
X-32697Y62619D01*
X-32788Y62646D01*
X-32899Y62669D01*
X-33031Y62686D01*
X-33355Y62706D01*
X-33547Y62709D01*
Y63709D01*
X-33355Y63711D01*
X-32899Y63749D01*
X-32788Y63771D01*
X-32697Y63799D01*
X-32626Y63831D01*
X-32576Y63869D01*
X-32545Y63911D01*
X-32535Y63959D01*
Y62459D01*
D02*
G37*
G36*
X32550Y59262D02*
X32596Y59199D01*
X32671Y59142D01*
X32777Y59094D01*
X32913Y59052D01*
X33079Y59019D01*
X33276Y58992D01*
X33649Y58969D01*
X35212Y58987D01*
X36821Y59087D01*
X37070Y59133D01*
X37267Y59187D01*
X37414Y59247D01*
X37509Y59315D01*
X37537Y57192D01*
X37455Y57243D01*
X37321Y57288D01*
X37132Y57328D01*
X36891Y57363D01*
X36247Y57416D01*
X35393Y57441D01*
X33828Y57456D01*
X33760Y57455D01*
X33079Y57399D01*
X32913Y57365D01*
X32777Y57324D01*
X32671Y57275D01*
X32596Y57219D01*
X32550Y57155D01*
X32535Y57084D01*
Y59334D01*
X32550Y59262D01*
D02*
G37*
G36*
X-32535Y56809D02*
X-32545Y56857D01*
X-32576Y56899D01*
X-32626Y56937D01*
X-32697Y56969D01*
X-32788Y56997D01*
X-32899Y57019D01*
X-33031Y57037D01*
X-33355Y57057D01*
X-33547Y57059D01*
Y58059D01*
X-33355Y58062D01*
X-32899Y58099D01*
X-32788Y58122D01*
X-32697Y58149D01*
X-32626Y58182D01*
X-32576Y58219D01*
X-32545Y58262D01*
X-32535Y58309D01*
Y56809D01*
D02*
G37*
G36*
X-52226Y59517D02*
X-51751Y59211D01*
X-51200Y58941D01*
X-50573Y58707D01*
X-49870Y58509D01*
X-49090Y58347D01*
X-48235Y58221D01*
X-46294Y58077D01*
X-45210Y58059D01*
Y57059D01*
X-46294Y57041D01*
X-48235Y56897D01*
X-49090Y56771D01*
X-49870Y56609D01*
X-50573Y56411D01*
X-51200Y56177D01*
X-51751Y55907D01*
X-52226Y55601D01*
X-52625Y55260D01*
Y59859D01*
X-52226Y59517D01*
D02*
G37*
G36*
X54688Y54035D02*
X54620Y54032D01*
X54559Y54014D01*
X54505Y53982D01*
X54459Y53934D01*
X54419Y53872D01*
X54387Y53794D01*
X54362Y53702D01*
X54344Y53596D01*
X54333Y53474D01*
X54330Y53337D01*
X53329D01*
X53327Y53542D01*
X53284Y54051D01*
X53259Y54185D01*
X53228Y54303D01*
X53191Y54403D01*
X53149Y54485D01*
X53101Y54550D01*
X53047Y54597D01*
X54688Y54035D01*
D02*
G37*
G36*
X-35299Y54020D02*
X-35174Y53963D01*
X-35011Y53913D01*
X-34809Y53869D01*
X-34568Y53832D01*
X-33972Y53778D01*
X-33307Y53755D01*
X-32899Y53788D01*
X-32788Y53811D01*
X-32697Y53838D01*
X-32626Y53870D01*
X-32576Y53908D01*
X-32545Y53951D01*
X-32535Y53998D01*
Y52498D01*
X-32545Y52545D01*
X-32576Y52588D01*
X-32626Y52626D01*
X-32697Y52658D01*
X-32788Y52685D01*
X-32899Y52708D01*
X-33031Y52725D01*
X-33276Y52741D01*
X-34809Y52627D01*
X-35011Y52584D01*
X-35174Y52533D01*
X-35299Y52476D01*
X-35386Y52412D01*
Y54084D01*
X-35299Y54020D01*
D02*
G37*
G36*
X-40127Y53509D02*
X-40185Y53385D01*
X-40235Y53221D01*
X-40279Y53019D01*
X-40315Y52779D01*
X-40369Y52182D01*
X-40396Y51431D01*
X-40399Y50998D01*
X-41399D01*
X-41403Y51431D01*
X-41520Y53019D01*
X-41564Y53221D01*
X-41614Y53385D01*
X-41671Y53509D01*
X-41735Y53596D01*
X-40064D01*
X-40127Y53509D01*
D02*
G37*
G36*
X-43522Y53412D02*
X-43579Y53287D01*
X-43629Y53124D01*
X-43673Y52922D01*
X-43710Y52681D01*
X-43763Y52085D01*
X-43790Y51334D01*
X-43793Y50901D01*
X-44793D01*
X-44797Y51334D01*
X-44914Y52922D01*
X-44958Y53124D01*
X-45008Y53287D01*
X-45065Y53412D01*
X-45129Y53499D01*
X-43458D01*
X-43522Y53412D01*
D02*
G37*
G36*
X-35398Y48607D02*
X-35273Y48550D01*
X-35109Y48499D01*
X-34907Y48456D01*
X-34667Y48419D01*
X-34070Y48365D01*
X-33337Y48339D01*
X-32899Y48375D01*
X-32788Y48397D01*
X-32697Y48425D01*
X-32626Y48457D01*
X-32576Y48495D01*
X-32545Y48537D01*
X-32535Y48585D01*
Y47085D01*
X-32545Y47132D01*
X-32576Y47175D01*
X-32626Y47212D01*
X-32697Y47245D01*
X-32788Y47272D01*
X-32899Y47295D01*
X-33031Y47312D01*
X-33329Y47331D01*
X-34907Y47214D01*
X-35109Y47170D01*
X-35273Y47120D01*
X-35398Y47063D01*
X-35484Y46999D01*
Y48670D01*
X-35398Y48607D01*
D02*
G37*
G36*
X-51618Y47784D02*
X-51447Y47265D01*
X-51248Y46759D01*
X-51022Y46266D01*
X-50768Y45786D01*
X-50486Y45320D01*
X-50176Y44867D01*
X-49838Y44427D01*
X-49473Y44000D01*
X-49079Y43586D01*
X-49787Y42879D01*
X-50096Y43151D01*
X-50450Y43394D01*
X-50850Y43609D01*
X-51296Y43795D01*
X-51786Y43953D01*
X-52322Y44081D01*
X-52903Y44181D01*
X-53530Y44253D01*
X-54919Y44309D01*
X-51761Y48316D01*
X-51618Y47784D01*
D02*
G37*
G36*
X-34020Y43981D02*
X-33895Y43924D01*
X-33731Y43873D01*
X-33529Y43830D01*
X-33289Y43793D01*
X-32869Y43755D01*
X-32788Y43771D01*
X-32697Y43799D01*
X-32626Y43831D01*
X-32576Y43869D01*
X-32545Y43911D01*
X-32535Y43959D01*
Y43733D01*
X-31942Y43712D01*
X-31509Y43709D01*
Y42709D01*
X-31942Y42705D01*
X-32535Y42661D01*
Y42459D01*
X-32545Y42506D01*
X-32576Y42549D01*
X-32626Y42586D01*
X-32697Y42619D01*
X-32779Y42643D01*
X-33529Y42588D01*
X-33731Y42544D01*
X-33895Y42494D01*
X-34020Y42437D01*
X-34106Y42373D01*
Y44044D01*
X-34020Y43981D01*
D02*
G37*
G36*
X55387Y44069D02*
X55102Y43985D01*
X54749Y43814D01*
X54330Y43554D01*
X53844Y43207D01*
X52672Y42248D01*
X51234Y40937D01*
X49529Y39275D01*
X48691Y39851D01*
X49341Y40541D01*
X49912Y41233D01*
X50405Y41928D01*
X50820Y42624D01*
X51156Y43323D01*
X51414Y44024D01*
X51593Y44727D01*
X51694Y45432D01*
X51717Y46139D01*
X51661Y46848D01*
X55387Y44069D01*
D02*
G37*
G36*
X32545Y34176D02*
X32576Y34133D01*
X32626Y34096D01*
X32697Y34063D01*
X32788Y34036D01*
X32899Y34013D01*
X33031Y33996D01*
X33355Y33976D01*
X33547Y33973D01*
Y32973D01*
X33355Y32971D01*
X32899Y32933D01*
X32788Y32911D01*
X32697Y32883D01*
X32626Y32851D01*
X32576Y32813D01*
X32545Y32771D01*
X32535Y32723D01*
Y34223D01*
X32545Y34176D01*
D02*
G37*
G36*
X-44848Y27206D02*
X-44985Y27068D01*
X-45578Y26399D01*
X-45589Y26370D01*
X-46169Y27602D01*
X-46128Y27585D01*
X-46082Y27579D01*
X-46032Y27584D01*
X-45978Y27599D01*
X-45919Y27625D01*
X-45855Y27661D01*
X-45787Y27708D01*
X-45714Y27766D01*
X-45637Y27834D01*
X-45555Y27913D01*
X-44848Y27206D01*
D02*
G37*
G36*
X-32535Y26809D02*
X-32545Y26857D01*
X-32576Y26899D01*
X-32626Y26937D01*
X-32697Y26969D01*
X-32788Y26997D01*
X-32899Y27019D01*
X-33031Y27037D01*
X-33355Y27057D01*
X-33547Y27059D01*
Y28059D01*
X-33355Y28062D01*
X-32899Y28099D01*
X-32788Y28122D01*
X-32697Y28149D01*
X-32626Y28182D01*
X-32576Y28219D01*
X-32545Y28262D01*
X-32535Y28309D01*
Y26809D01*
D02*
G37*
G36*
X50412Y47370D02*
X50601Y47238D01*
X50653Y46842D01*
X50644Y46769D01*
X50696Y46115D01*
X50677Y45520D01*
X50591Y44925D01*
X50439Y44326D01*
X50216Y43721D01*
X49921Y43107D01*
X49550Y42485D01*
X49103Y41854D01*
X48576Y41216D01*
X48183Y40799D01*
X34021Y26637D01*
X33559Y26828D01*
Y27709D01*
X28819D01*
Y28709D01*
X33559D01*
Y31944D01*
X33965D01*
X34551Y32060D01*
X35047Y32392D01*
X50153Y47498D01*
X50412Y47370D01*
D02*
G37*
G36*
X32544Y24584D02*
X32572Y24551D01*
X32619Y24521D01*
X32685Y24496D01*
X32770Y24475D01*
X32873Y24457D01*
X32995Y24443D01*
X33295Y24428D01*
X33473Y24426D01*
Y23426D01*
X33295Y23424D01*
X32873Y23395D01*
X32770Y23377D01*
X32685Y23356D01*
X32619Y23331D01*
X32572Y23301D01*
X32544Y23268D01*
X32535Y23231D01*
Y24621D01*
X32544Y24584D01*
D02*
G37*
G36*
X-32535Y21912D02*
X-32545Y21960D01*
X-32576Y22002D01*
X-32626Y22040D01*
X-32697Y22072D01*
X-32788Y22100D01*
X-32899Y22122D01*
X-33031Y22140D01*
X-33355Y22160D01*
X-33547Y22162D01*
Y23162D01*
X-33355Y23165D01*
X-32899Y23202D01*
X-32788Y23225D01*
X-32697Y23252D01*
X-32626Y23285D01*
X-32576Y23322D01*
X-32545Y23365D01*
X-32535Y23412D01*
Y21912D01*
D02*
G37*
G36*
X-43110Y22162D02*
X-43507Y22155D01*
X-44210Y22098D01*
X-44517Y22049D01*
X-44792Y21985D01*
X-45038Y21907D01*
X-45253Y21814D01*
X-45438Y21708D01*
X-45592Y21587D01*
X-45717Y21452D01*
X-45956Y23124D01*
X-43650Y23162D01*
X-43110Y22162D01*
D02*
G37*
G36*
X54884Y24029D02*
X54360Y23990D01*
X53808Y23870D01*
X53228Y23672D01*
X52619Y23393D01*
X51982Y23036D01*
X51316Y22599D01*
X50622Y22083D01*
X49148Y20813D01*
X48368Y20059D01*
X47661Y20766D01*
X48415Y21546D01*
X49686Y23020D01*
X50202Y23714D01*
X50639Y24379D01*
X50996Y25017D01*
X51274Y25626D01*
X51473Y26206D01*
X51592Y26758D01*
X51632Y27281D01*
X54884Y24029D01*
D02*
G37*
G36*
X-32535Y16868D02*
X-32545Y16916D01*
X-32576Y16958D01*
X-32626Y16996D01*
X-32697Y17028D01*
X-32788Y17056D01*
X-32899Y17078D01*
X-33031Y17096D01*
X-33355Y17116D01*
X-33547Y17118D01*
Y18118D01*
X-33355Y18121D01*
X-32899Y18158D01*
X-32788Y18181D01*
X-32697Y18208D01*
X-32626Y18241D01*
X-32576Y18278D01*
X-32545Y18321D01*
X-32535Y18368D01*
Y16868D01*
D02*
G37*
G36*
X46958Y18649D02*
X46656Y18342D01*
X45767Y17329D01*
X45625Y17129D01*
X45514Y16952D01*
X45436Y16795D01*
X45389Y16661D01*
X45374Y16548D01*
X44179Y17717D01*
X44278Y17733D01*
X44401Y17783D01*
X44547Y17864D01*
X44717Y17977D01*
X44910Y18122D01*
X45366Y18509D01*
X46225Y19330D01*
X46958Y18649D01*
D02*
G37*
G36*
X32555Y19220D02*
X32616Y19135D01*
X32716Y19060D01*
X32857Y18995D01*
X33038Y18940D01*
X33259Y18895D01*
X33521Y18860D01*
X34165Y18820D01*
X34547Y18815D01*
Y16815D01*
X34165Y16810D01*
X33259Y16735D01*
X33038Y16690D01*
X32857Y16635D01*
X32716Y16570D01*
X32616Y16495D01*
X32555Y16410D01*
X32535Y16315D01*
Y19315D01*
X32555Y19220D01*
D02*
G37*
G36*
X32545Y13911D02*
X32576Y13869D01*
X32626Y13831D01*
X32697Y13799D01*
X32788Y13771D01*
X32899Y13749D01*
X33031Y13731D01*
X33355Y13711D01*
X33547Y13709D01*
Y12709D01*
X33355Y12706D01*
X32899Y12669D01*
X32788Y12646D01*
X32697Y12619D01*
X32626Y12586D01*
X32576Y12549D01*
X32545Y12506D01*
X32535Y12459D01*
Y13959D01*
X32545Y13911D01*
D02*
G37*
G36*
X-33331Y13567D02*
X-33206Y13510D01*
X-33042Y13460D01*
X-32840Y13416D01*
X-32682Y13392D01*
X-32626Y13418D01*
X-32576Y13455D01*
X-32545Y13498D01*
X-32535Y13545D01*
Y13373D01*
X-32003Y13326D01*
X-31253Y13299D01*
X-30820Y13295D01*
Y12295D01*
X-31253Y12292D01*
X-32535Y12197D01*
Y12045D01*
X-32545Y12093D01*
X-32576Y12135D01*
X-32626Y12173D01*
X-32659Y12188D01*
X-32840Y12174D01*
X-33042Y12131D01*
X-33206Y12080D01*
X-33331Y12023D01*
X-33417Y11960D01*
Y12294D01*
X-33547Y12295D01*
Y13295D01*
X-33417Y13297D01*
Y13631D01*
X-33331Y13567D01*
D02*
G37*
G36*
X-37865Y9618D02*
X-37972Y9602D01*
X-38100Y9554D01*
X-38252Y9474D01*
X-38425Y9362D01*
X-38621Y9218D01*
X-39081Y8834D01*
X-39631Y8322D01*
X-39939Y8019D01*
X-40647Y8726D01*
X-40343Y9034D01*
X-39303Y10240D01*
X-39191Y10414D01*
X-39111Y10565D01*
X-39063Y10694D01*
X-39047Y10800D01*
X-37865Y9618D01*
D02*
G37*
G36*
X32545Y8911D02*
X32576Y8869D01*
X32626Y8831D01*
X32697Y8799D01*
X32788Y8771D01*
X32899Y8749D01*
X33031Y8731D01*
X33355Y8711D01*
X33547Y8709D01*
Y7709D01*
X33355Y7706D01*
X32899Y7669D01*
X32788Y7646D01*
X32697Y7619D01*
X32626Y7586D01*
X32576Y7549D01*
X32545Y7506D01*
X32535Y7459D01*
Y8959D01*
X32545Y8911D01*
D02*
G37*
G36*
X-34118Y8646D02*
X-33993Y8589D01*
X-33830Y8539D01*
X-33628Y8495D01*
X-33387Y8458D01*
X-32899Y8414D01*
X-32899Y8414D01*
X-32788Y8437D01*
X-32697Y8464D01*
X-32626Y8496D01*
X-32576Y8534D01*
X-32545Y8576D01*
X-32535Y8624D01*
Y8395D01*
X-32040Y8377D01*
X-31607Y8374D01*
Y7374D01*
X-32040Y7371D01*
X-32535Y7334D01*
Y7124D01*
X-32545Y7171D01*
X-32576Y7214D01*
X-32626Y7252D01*
X-32697Y7284D01*
X-32788Y7311D01*
X-32802Y7314D01*
X-33628Y7253D01*
X-33830Y7209D01*
X-33993Y7159D01*
X-34118Y7102D01*
X-34205Y7038D01*
Y8710D01*
X-34118Y8646D01*
D02*
G37*
G36*
X-51631Y13258D02*
X-51512Y12706D01*
X-51313Y12126D01*
X-51035Y11517D01*
X-50678Y10879D01*
X-50241Y10214D01*
X-49725Y9520D01*
X-48455Y8046D01*
X-47701Y7266D01*
X-48408Y6559D01*
X-49187Y7313D01*
X-50661Y8583D01*
X-51355Y9099D01*
X-52021Y9536D01*
X-52658Y9894D01*
X-53267Y10171D01*
X-53848Y10370D01*
X-54400Y10490D01*
X-54923Y10530D01*
X-51671Y13781D01*
X-51631Y13258D01*
D02*
G37*
G36*
X50701Y10465D02*
X54706Y6944D01*
X54988Y6794D01*
X55196Y6731D01*
X51608Y3814D01*
X51617Y4357D01*
X51543Y4925D01*
X51386Y5519D01*
X51145Y6138D01*
X50820Y6783D01*
X50411Y7453D01*
X49920Y8149D01*
X49344Y8870D01*
X47942Y10388D01*
X49838Y11320D01*
X50701Y10465D01*
D02*
G37*
G36*
X-32535Y3384D02*
X-32545Y3431D01*
X-32576Y3474D01*
X-32626Y3511D01*
X-32697Y3544D01*
X-32788Y3571D01*
X-32899Y3594D01*
X-33031Y3611D01*
X-33355Y3631D01*
X-33547Y3634D01*
Y4634D01*
X-33355Y4636D01*
X-32899Y4674D01*
X-32788Y4696D01*
X-32697Y4724D01*
X-32626Y4756D01*
X-32576Y4794D01*
X-32545Y4836D01*
X-32535Y4884D01*
Y3384D01*
D02*
G37*
G36*
X-36874Y4906D02*
X-36749Y4849D01*
X-36586Y4798D01*
X-36384Y4755D01*
X-36143Y4718D01*
X-35547Y4664D01*
X-34796Y4637D01*
X-34363Y4634D01*
Y3634D01*
X-34796Y3630D01*
X-36384Y3513D01*
X-36586Y3469D01*
X-36749Y3419D01*
X-36874Y3362D01*
X-36961Y3298D01*
Y4970D01*
X-36874Y4906D01*
D02*
G37*
G36*
X32545Y3911D02*
X32576Y3869D01*
X32626Y3831D01*
X32697Y3799D01*
X32788Y3771D01*
X32899Y3749D01*
X33031Y3731D01*
X33355Y3711D01*
X33547Y3709D01*
Y2709D01*
X33355Y2706D01*
X32899Y2669D01*
X32788Y2646D01*
X32697Y2619D01*
X32626Y2586D01*
X32576Y2549D01*
X32545Y2506D01*
X32535Y2459D01*
Y3959D01*
X32545Y3911D01*
D02*
G37*
G36*
X-52331Y5834D02*
X-51538Y5220D01*
X-51164Y4970D01*
X-50806Y4759D01*
X-50464Y4587D01*
X-50138Y4452D01*
X-49827Y4356D01*
X-49532Y4299D01*
X-49252Y4279D01*
Y3280D01*
X-49532Y3260D01*
X-49827Y3203D01*
X-50138Y3107D01*
X-50464Y2972D01*
X-50806Y2800D01*
X-51164Y2589D01*
X-51538Y2339D01*
X-52331Y1725D01*
X-52751Y1360D01*
Y6199D01*
X-52331Y5834D01*
D02*
G37*
G36*
X-32535Y-2522D02*
X-32545Y-2474D01*
X-32576Y-2432D01*
X-32626Y-2394D01*
X-32697Y-2362D01*
X-32788Y-2334D01*
X-32899Y-2312D01*
X-33031Y-2294D01*
X-33355Y-2274D01*
X-33547Y-2272D01*
Y-1272D01*
X-33355Y-1269D01*
X-32899Y-1232D01*
X-32788Y-1209D01*
X-32697Y-1182D01*
X-32626Y-1149D01*
X-32576Y-1112D01*
X-32545Y-1069D01*
X-32535Y-1022D01*
Y-2522D01*
D02*
G37*
G36*
Y-7049D02*
X-32545Y-7002D01*
X-32576Y-6959D01*
X-32626Y-6922D01*
X-32697Y-6889D01*
X-32788Y-6862D01*
X-32899Y-6839D01*
X-33031Y-6822D01*
X-33355Y-6802D01*
X-33547Y-6799D01*
Y-5799D01*
X-33355Y-5797D01*
X-32899Y-5759D01*
X-32788Y-5737D01*
X-32697Y-5709D01*
X-32626Y-5677D01*
X-32576Y-5639D01*
X-32545Y-5597D01*
X-32535Y-5549D01*
Y-7049D01*
D02*
G37*
G36*
X52666Y-8896D02*
X52259Y-8535D01*
X51487Y-7929D01*
X51122Y-7682D01*
X50770Y-7474D01*
X50432Y-7303D01*
X50107Y-7171D01*
X49797Y-7076D01*
X49500Y-7019D01*
X49217Y-7000D01*
Y-6000D01*
X49500Y-5981D01*
X49797Y-5924D01*
X50107Y-5829D01*
X50432Y-5697D01*
X50770Y-5526D01*
X51122Y-5318D01*
X51487Y-5071D01*
X52259Y-4465D01*
X52666Y-4104D01*
Y-8896D01*
D02*
G37*
G36*
X28739Y-8883D02*
X28706Y-8911D01*
X28677Y-8958D01*
X28652Y-9024D01*
X28630Y-9108D01*
X28613Y-9212D01*
X28599Y-9334D01*
X28584Y-9634D01*
X28582Y-9812D01*
X27582D01*
X27580Y-9634D01*
X27551Y-9212D01*
X27533Y-9108D01*
X27512Y-9024D01*
X27486Y-8958D01*
X27457Y-8911D01*
X27424Y-8883D01*
X27387Y-8874D01*
X28776D01*
X28739Y-8883D01*
D02*
G37*
G36*
X36107Y-10370D02*
X36050Y-10495D01*
X35999Y-10658D01*
X35956Y-10860D01*
X35919Y-11101D01*
X35865Y-11698D01*
X35838Y-12448D01*
X35835Y-12881D01*
X34835D01*
X34831Y-12448D01*
X34714Y-10860D01*
X34670Y-10658D01*
X34620Y-10495D01*
X34563Y-10370D01*
X34499Y-10283D01*
X36170D01*
X36107Y-10370D01*
D02*
G37*
G36*
X-36598Y-12015D02*
X-36550Y-12144D01*
X-36470Y-12295D01*
X-36358Y-12468D01*
X-36214Y-12665D01*
X-35830Y-13125D01*
X-35319Y-13674D01*
X-35015Y-13983D01*
X-35722Y-14690D01*
X-36031Y-14386D01*
X-37236Y-13347D01*
X-37410Y-13235D01*
X-37561Y-13155D01*
X-37690Y-13106D01*
X-37796Y-13091D01*
X-36614Y-11909D01*
X-36598Y-12015D01*
D02*
G37*
G36*
X30661Y-18552D02*
X30575Y-18488D01*
X30450Y-18431D01*
X30286Y-18381D01*
X30084Y-18337D01*
X29844Y-18301D01*
X29247Y-18247D01*
X28497Y-18220D01*
X28064Y-18216D01*
Y-17217D01*
X28497Y-17213D01*
X30084Y-17096D01*
X30286Y-17052D01*
X30450Y-17002D01*
X30575Y-16945D01*
X30661Y-16881D01*
Y-18552D01*
D02*
G37*
G36*
X52565Y-18800D02*
X52167Y-18458D01*
X51692Y-18152D01*
X51142Y-17882D01*
X50514Y-17648D01*
X49811Y-17450D01*
X49031Y-17288D01*
X48176Y-17162D01*
X46235Y-17018D01*
X45151Y-17000D01*
Y-16000D01*
X46235Y-15982D01*
X48176Y-15838D01*
X49031Y-15712D01*
X49811Y-15550D01*
X50514Y-15352D01*
X51142Y-15118D01*
X51692Y-14848D01*
X52167Y-14542D01*
X52565Y-14200D01*
Y-18800D01*
D02*
G37*
G36*
X52740Y-38961D02*
X52269Y-38589D01*
X51768Y-38255D01*
X51235Y-37961D01*
X50672Y-37706D01*
X50077Y-37490D01*
X49452Y-37314D01*
X48795Y-37176D01*
X48107Y-37078D01*
X47388Y-37020D01*
X46638Y-37000D01*
Y-36000D01*
X47388Y-35980D01*
X48107Y-35922D01*
X48795Y-35824D01*
X49452Y-35686D01*
X50077Y-35510D01*
X50672Y-35294D01*
X51235Y-35039D01*
X51768Y-34745D01*
X52269Y-34411D01*
X52740Y-34039D01*
Y-38961D01*
D02*
G37*
G36*
X52483Y-48714D02*
X52009Y-48249D01*
X51498Y-47833D01*
X50949Y-47466D01*
X50363Y-47148D01*
X49740Y-46879D01*
X49079Y-46659D01*
X48381Y-46488D01*
X47646Y-46366D01*
X46873Y-46292D01*
X46063Y-46268D01*
Y-45268D01*
X47044Y-45254D01*
X49587Y-45053D01*
X50302Y-44932D01*
X50951Y-44784D01*
X51533Y-44609D01*
X52049Y-44407D01*
X52499Y-44179D01*
X52882Y-43923D01*
X52483Y-48714D01*
D02*
G37*
G36*
X-9871Y-60957D02*
X-10445Y-61580D01*
X-10941Y-62221D01*
X-11359Y-62881D01*
X-11698Y-63561D01*
X-11960Y-64259D01*
X-12143Y-64976D01*
X-12248Y-65712D01*
X-12275Y-66467D01*
X-12224Y-67241D01*
X-12095Y-68033D01*
X-16131Y-65565D01*
X-16023Y-65503D01*
X-15830Y-65350D01*
X-15190Y-64776D01*
X-11229Y-60901D01*
X-9871Y-60957D01*
D02*
G37*
G36*
X-47173Y-24613D02*
X-48013Y-25465D01*
X-50917Y-28758D01*
X-51238Y-29224D01*
X-51472Y-29625D01*
X-51619Y-29962D01*
X-51680Y-30235D01*
X-54707Y-26757D01*
X-54210Y-26747D01*
X-53681Y-26653D01*
X-53119Y-26475D01*
X-52524Y-26213D01*
X-51897Y-25868D01*
X-51237Y-25439D01*
X-50545Y-24926D01*
X-49062Y-23649D01*
X-48272Y-22884D01*
X-47173Y-24613D01*
D02*
G37*
G36*
X-37779Y-29928D02*
X-37731Y-30057D01*
X-37651Y-30208D01*
X-37539Y-30382D01*
X-37395Y-30578D01*
X-37011Y-31038D01*
X-36500Y-31588D01*
X-36196Y-31896D01*
X-36903Y-32603D01*
X-37211Y-32300D01*
X-38417Y-31260D01*
X-38591Y-31148D01*
X-38742Y-31068D01*
X-38871Y-31020D01*
X-38977Y-31004D01*
X-37795Y-29822D01*
X-37779Y-29928D01*
D02*
G37*
G36*
X-24758Y-60094D02*
X-24614Y-62034D01*
X-24488Y-62890D01*
X-24326Y-63669D01*
X-24128Y-64373D01*
X-23894Y-65000D01*
X-23624Y-65551D01*
X-23318Y-66025D01*
X-22976Y-66424D01*
X-27575D01*
X-27233Y-66025D01*
X-26927Y-65551D01*
X-26657Y-65000D01*
X-26423Y-64373D01*
X-26226Y-63669D01*
X-26063Y-62890D01*
X-25938Y-62034D01*
X-25794Y-60094D01*
X-25776Y-59009D01*
X-24776D01*
X-24758Y-60094D01*
D02*
G37*
D12*
X-45893Y17618D02*
X-29410D01*
X-49433Y21159D02*
X-45893Y17618D01*
X-49433Y21159D02*
Y43232D01*
X-35080Y32376D02*
X-34154Y33302D01*
X-35080Y32105D02*
Y32376D01*
X-40899Y44712D02*
X-34154Y37966D01*
Y33302D02*
Y37966D01*
X-40899Y44712D02*
Y54431D01*
X48712Y90149D02*
X54011D01*
X37106Y78543D02*
X48712Y90149D01*
X44193Y16590D02*
X54882Y27279D01*
X44193Y16535D02*
Y16590D01*
X-40476Y8189D02*
X-37866Y10799D01*
X-40476Y3023D02*
Y8189D01*
Y3023D02*
X-35681Y-1772D01*
X-28839D01*
X-37795Y4134D02*
X-29744D01*
X-37166Y36973D02*
X-36906Y36713D01*
X-37166Y36973D02*
Y38150D01*
X-44293Y45278D02*
X-37166Y38150D01*
X-46654Y22662D02*
X-29405D01*
X-28839Y23228D01*
X-53760Y47559D02*
X-49433Y43232D01*
X-29410Y17618D02*
X-28819Y18209D01*
X-46186Y26575D02*
X-45202Y27559D01*
X-46752Y26575D02*
X-46186D01*
X-44293Y45278D02*
Y54333D01*
X35335Y-22736D02*
Y-9449D01*
X-8578Y-58957D02*
X-886D01*
X35335Y-22736D01*
X-15276Y-68701D02*
X-14440Y-67865D01*
X-15558Y-65938D02*
X-8578Y-58957D01*
X-29469Y27559D02*
X-28819Y28209D01*
X-45202Y27559D02*
X-29469D01*
X28819Y-1791D02*
X29095Y-2067D01*
X33169D02*
X38484Y-7382D01*
X29095Y-2067D02*
X33169D01*
X28819Y3209D02*
X33575D01*
X40484Y-30346D02*
Y-3700D01*
X33575Y3209D02*
X40484Y-3700D01*
X-34843Y-6299D02*
X-29311D01*
X-54921Y13780D02*
X-34843Y-6299D01*
X-29311D02*
X-28819Y-6791D01*
X-28839Y-1772D02*
X-28819Y-1791D01*
X-49252Y3779D02*
X-32382Y-13091D01*
X24803D02*
X28082Y-9812D01*
X-32382Y-13091D02*
X24803D01*
X29134Y62894D02*
X35138D01*
X28819Y63209D02*
X29134Y62894D01*
X-36220Y53248D02*
X-28858D01*
X-28819Y53209D01*
X54011Y90149D02*
X54921Y91059D01*
X-31772Y67224D02*
X-29803Y69193D01*
X-43898Y67224D02*
X-31772D01*
X-34252Y12795D02*
X-29232D01*
X-28819Y13209D01*
X-35039Y7874D02*
X-31182D01*
X-30788Y7480D01*
X-30493Y7776D01*
X-29872Y7155D01*
X-31988Y-17717D02*
X31496D01*
X-37795Y-11909D02*
X-31988Y-17717D01*
X-29744Y4134D02*
X-28819Y3209D01*
X-36319Y47835D02*
X-29193D01*
X-28819Y48209D01*
X-34941Y43209D02*
X-28819D01*
X-28839Y23228D02*
X-28819Y23209D01*
X-38976Y-29823D02*
X-25276Y-43524D01*
Y-68721D02*
Y-43524D01*
X-29872Y7155D02*
X-28819Y8209D01*
X-22244Y41816D02*
Y61713D01*
X-24458Y39602D02*
X-22244Y41816D01*
Y61713D02*
X-9843Y74114D01*
X29084Y33473D02*
X33965D01*
X53829Y53337D02*
Y56227D01*
X33965Y33473D02*
X53829Y53337D01*
X28819Y33209D02*
X29084Y33473D01*
X28819Y23209D02*
X29536Y23926D01*
X53829Y44282D02*
Y46227D01*
X29536Y23926D02*
X33473D01*
X53829Y44282D01*
Y46227D02*
X54882Y47280D01*
X53829Y56227D02*
X54882Y57279D01*
X30512Y74114D02*
X30610Y74016D01*
X-9843Y74114D02*
X30512D01*
X-28819Y38209D02*
X-27426Y39602D01*
X-24458D01*
X45276Y-2559D02*
Y2067D01*
X49217Y-6500D02*
X54862D01*
X45276Y-2559D02*
X49217Y-6500D01*
X34134Y13209D02*
X45276Y2067D01*
X28819Y13209D02*
X34134D01*
X42520Y-13981D02*
Y98D01*
X45039Y-16500D02*
X54862D01*
X42520Y-13981D02*
X45039Y-16500D01*
X34409Y8209D02*
X42520Y98D01*
X28819Y8209D02*
X34409D01*
X38484Y-38189D02*
Y-7382D01*
X46063Y-45768D02*
X54130D01*
X38484Y-38189D02*
X46063Y-45768D01*
X46638Y-36500D02*
X54862D01*
X40484Y-30346D02*
X46638Y-36500D01*
X54130Y-45768D02*
X54862Y-46500D01*
X28082Y-7529D02*
X28819Y-6791D01*
X28082Y-9812D02*
Y-7529D01*
X-54921Y3779D02*
X-49252D01*
X-29803Y69193D02*
X-28819Y68209D01*
X-54921Y47559D02*
X-53760D01*
X-54921Y67559D02*
X-50571Y63209D01*
X-28819D01*
X-54921Y57559D02*
X-29469D01*
X-28819Y58209D01*
D13*
Y68209D02*
D03*
Y23209D02*
D03*
Y18209D02*
D03*
Y13209D02*
D03*
Y8209D02*
D03*
Y3209D02*
D03*
Y-1791D02*
D03*
Y-6791D02*
D03*
X28819D02*
D03*
Y-1791D02*
D03*
Y3209D02*
D03*
X-28819Y63209D02*
D03*
X28819Y8209D02*
D03*
Y13209D02*
D03*
Y18209D02*
D03*
Y23209D02*
D03*
Y28209D02*
D03*
Y33209D02*
D03*
Y38209D02*
D03*
Y43209D02*
D03*
Y48209D02*
D03*
Y53209D02*
D03*
X-28819Y58209D02*
D03*
X28819D02*
D03*
Y63209D02*
D03*
Y68209D02*
D03*
X-28819Y53209D02*
D03*
Y48209D02*
D03*
Y43209D02*
D03*
Y38209D02*
D03*
Y33209D02*
D03*
Y28209D02*
D03*
D19*
X-36016Y98373D02*
G03*
X-36279Y98889I-12319J-5952D01*
G01*
D02*
G03*
X-37099Y100227I-12056J-6467D01*
G01*
D02*
G03*
X-37439Y100695I-11236J-7806D01*
G01*
X-35237Y96373D02*
G03*
X-35415Y96923I-13098J-3952D01*
G01*
X-34870Y94847D02*
G03*
X-35237Y96373I-13464J-2426D01*
G01*
X-35522Y97216D02*
G03*
X-35720Y97716I-12813J-4795D01*
G01*
X-35720Y97717D02*
G03*
X-35942Y98216I-12615J-5295D01*
G01*
X-37439Y100695D02*
G03*
X-38343Y101767I-10896J-8274D01*
G01*
X-38458Y101889D02*
G03*
X-38867Y102298I-9876J-9467D01*
G01*
X-34780Y94275D02*
G03*
X-34870Y94847I-13555J-1854D01*
G01*
X-34661Y91971D02*
G03*
X-34654Y92421I-13674J450D01*
G01*
D02*
G03*
X-34661Y92871I-13681J0D01*
G01*
X-34780Y90567D02*
G03*
X-34661Y91971I-13555J1854D01*
G01*
Y92871D02*
G03*
X-34780Y94275I-13674J-450D01*
G01*
X-40061Y103317D02*
G03*
X-40529Y103657I-8274J-10896D01*
G01*
D02*
G03*
X-41867Y104477I-7806J-11236D01*
G01*
X-38946Y102373D02*
G03*
X-40061Y103317I-9388J-9951D01*
G01*
X-34870Y89996D02*
G03*
X-34780Y90567I-13464J2425D01*
G01*
X-35237Y88470D02*
G03*
X-34870Y89996I-13098J3952D01*
G01*
X-35416Y87919D02*
G03*
X-35237Y88470I-12919J4502D01*
G01*
X-35682Y87217D02*
G03*
X-35500Y87684I-12652J5205D01*
G01*
X-35900Y86717D02*
G03*
X-35682Y87216I-12435J5705D01*
G01*
X-36279Y85954D02*
G03*
X-36016Y86469I-12056J6467D01*
G01*
X-37099Y84615D02*
G03*
X-36279Y85954I-11236J7806D01*
G01*
X-37439Y84148D02*
G03*
X-37099Y84615I-10896J8274D01*
G01*
X-38458Y82954D02*
G03*
X-37439Y84148I-9876J9467D01*
G01*
X-38867Y82545D02*
G03*
X-38458Y82954I-9467J9876D01*
G01*
X-40061Y81526D02*
G03*
X-38946Y82470I-8274J10896D01*
G01*
X-40529Y81186D02*
G03*
X-40061Y81526I-7806J11236D01*
G01*
X-41867Y80365D02*
G03*
X-40529Y81186I-6468J12056D01*
G01*
X-42383Y80103D02*
G03*
X-41867Y80365I-5952J12319D01*
G01*
X-43000Y79823D02*
G03*
X-42500Y80047I-5335J12598D01*
G01*
X-43833Y79502D02*
G03*
X-43500Y79623I-4502J12919D01*
G01*
X-44383Y79323D02*
G03*
X-43833Y79502I-3952J13098D01*
G01*
X-45909Y78957D02*
G03*
X-44383Y79323I-2425J13464D01*
G01*
X-46481Y78866D02*
G03*
X-45909Y78957I-1854J13555D01*
G01*
X-47885Y78748D02*
G03*
X-46481Y78866I-450J13674D01*
G01*
X-41867Y104477D02*
G03*
X-48212Y106102I-6468J-12056D01*
G01*
D02*
G03*
X-61850Y91536I960J-14566D01*
G01*
X-40886Y92421D02*
G03*
X-48335Y99870I-7449J0D01*
G01*
D02*
G03*
X-55784Y92421I0J-7449D01*
G01*
X-48335Y84972D02*
G03*
X-40886Y92421I0J7449D01*
G01*
X-55784D02*
G03*
X-48335Y84972I7449J0D01*
G01*
X-52286Y79323D02*
G03*
X-50760Y78957I3952J13098D01*
G01*
X-52836Y79502D02*
G03*
X-52286Y79323I4502J12919D01*
G01*
X-48785Y78748D02*
G03*
X-48335Y78740I450J13674D01*
G01*
X-50189Y78866D02*
G03*
X-48785Y78748I1854J13555D01*
G01*
X-48335Y78740D02*
G03*
X-47885Y78748I0J13681D01*
G01*
X-50760Y78957D02*
G03*
X-50189Y78866I2425J13464D01*
G01*
X-61850Y90298D02*
G03*
X-60391Y85954I13515J2123D01*
G01*
X-54287Y80103D02*
G03*
X-54000Y79968I5952J12319D01*
G01*
X-56141Y81186D02*
G03*
X-54802Y80365I7806J11236D01*
G01*
D02*
G03*
X-54287Y80103I6467J12056D01*
G01*
X-54000Y79968D02*
G03*
X-53500Y79753I5665J12453D01*
G01*
X-53410Y79716D02*
G03*
X-53000Y79560I5075J12705D01*
G01*
X-58211Y82954D02*
G03*
X-57802Y82545I9876J9467D01*
G01*
X-56608Y81525D02*
G03*
X-56141Y81186I8274J10896D01*
G01*
X-57802Y82545D02*
G03*
X-56608Y81525I9467J9876D01*
G01*
X61850Y-67416D02*
G03*
X48327Y-55807I-13523J-2072D01*
G01*
X55776Y-69488D02*
G03*
X48327Y-62039I-7449J0D01*
G01*
X47252Y-82905D02*
G03*
X61850Y-68312I0J14598D01*
G01*
X48327Y-76937D02*
G03*
X55776Y-69488I0J7449D01*
G01*
X48327Y-55807D02*
G03*
X34646Y-69488I0J-13681D01*
G01*
X48327Y-62039D02*
G03*
X40878Y-69488I0J-7449D01*
G01*
X34646D02*
G03*
X45651Y-82905I13681J0D01*
G01*
X40878Y-69488D02*
G03*
X48327Y-76937I7449J0D01*
G01*
X-35933Y98172D02*
X-35784Y97812D01*
X-37099Y100227D02*
X-36777Y99701D01*
X-36673Y99533D02*
X-36474Y99208D01*
X-35237Y96373D02*
X-35125Y95910D01*
X-35697Y97604D02*
X-35562Y97278D01*
X-44456Y99717D02*
X-36786D01*
X-43956Y99217D02*
X-36480D01*
X-38321Y101728D02*
X-38119Y101492D01*
X-37831Y101154D02*
X-37568Y100846D01*
X-41956Y97216D02*
X-35521D01*
X-42456Y97716D02*
X-35720D01*
X-41456Y96716D02*
X-35345D01*
X-43456Y98716D02*
X-36188D01*
X-42956Y98216D02*
X-35942D01*
X-34780Y94275D02*
X-34740Y93767D01*
X-40886Y94217D02*
X-34775D01*
X-34724Y93563D02*
X-34700Y93259D01*
X-34989Y95341D02*
X-34870Y94847D01*
X-40886Y95717D02*
X-35078D01*
X-34716Y91374D02*
X-34691Y91692D01*
X-34760Y90824D02*
X-34734Y91156D01*
X-40886Y93217D02*
X-34688D01*
X-40886Y93717D02*
X-34725D01*
X-40886Y92716D02*
X-34657D01*
X-40886Y95217D02*
X-34959D01*
X-40956Y96216D02*
X-35199D01*
X-40886Y94717D02*
X-34848D01*
X-40886Y91716D02*
X-34684D01*
X-40886Y92216D02*
X-34655D01*
X-40886Y91216D02*
X-34716D01*
X-40886Y90716D02*
X-34768D01*
X-40886Y90216D02*
X-34832D01*
X-39853Y103139D02*
X-39565Y102894D01*
X-39220Y102599D02*
X-38972Y102387D01*
X-41445Y104218D02*
X-41182Y104057D01*
X-41030Y103964D02*
X-40529Y103657D01*
X-41000Y96260D02*
Y103946D01*
X-41500Y96760D02*
Y104254D01*
X-42500Y97760D02*
Y104796D01*
X-43000Y98260D02*
Y105019D01*
X-42000Y97260D02*
Y104548D01*
X-45500Y99870D02*
Y105806D01*
X-46000Y99870D02*
Y105902D01*
X-45000Y99870D02*
Y105690D01*
X-47000Y99870D02*
Y106037D01*
X-47500Y99870D02*
Y106077D01*
X-46500Y99870D02*
Y105979D01*
X-44000Y99260D02*
Y105398D01*
X-44500Y99760D02*
Y105554D01*
X-43500Y98760D02*
Y105220D01*
X-46000Y99495D02*
Y99870D01*
X-45500Y99310D02*
Y99870D01*
X-41925Y96216D02*
X-40956D01*
X-42249Y96716D02*
X-41456D01*
X-41654Y95717D02*
X-40886D01*
X-42000Y96340D02*
Y97260D01*
X-42500Y97052D02*
Y97760D01*
X-42634Y97216D02*
X-41956D01*
X-41248Y94717D02*
X-40886D01*
X-41430Y95217D02*
X-40886D01*
X-41219Y90216D02*
X-40886D01*
X-41000Y93721D02*
Y96260D01*
X-41500Y95384D02*
Y96760D01*
X-40886Y92421D02*
Y96146D01*
X-44000Y98479D02*
Y99260D01*
X-45283Y99217D02*
X-43956D01*
X-44352Y98716D02*
X-43456D01*
X-44500Y98808D02*
Y99760D01*
X-45000Y99082D02*
Y99870D01*
X-46829Y99717D02*
X-44456D01*
X-43655Y98216D02*
X-42956D01*
X-44610Y99870D02*
X-40886Y96146D01*
X-43095Y97716D02*
X-42456D01*
X-43500Y98088D02*
Y98760D01*
X-43000Y97620D02*
Y98260D01*
X-35020Y89372D02*
X-34870Y89996D01*
X-35000Y89456D02*
Y95391D01*
X-35500Y87684D02*
Y97159D01*
X-35237Y88470D02*
X-35104Y89022D01*
X-36500Y85593D02*
Y99250D01*
X-37000Y84777D02*
Y100066D01*
X-36000Y86503D02*
Y98340D01*
X-38000Y83475D02*
Y101367D01*
X-38500Y82911D02*
Y101932D01*
X-37500Y84076D02*
Y100767D01*
X-40886Y89217D02*
X-35052D01*
X-40886Y89717D02*
X-34937D01*
X-40886Y88717D02*
X-35177D01*
X-41394Y89717D02*
X-40886D01*
X-41610Y89217D02*
X-40886D01*
X-41872Y88717D02*
X-40886D01*
X-39500Y81987D02*
Y102855D01*
X-40000Y81578D02*
Y103265D01*
X-39000Y82432D02*
Y102411D01*
X-40500Y81206D02*
Y103637D01*
X-40886Y88697D02*
Y92421D01*
X-35660Y87330D02*
X-35534Y87632D01*
X-35887Y86782D02*
X-35746Y87121D01*
X-37099Y84615D02*
X-36733Y85212D01*
X-37763Y83768D02*
X-37568Y83996D01*
X-41366Y88217D02*
X-35316D01*
X-41866Y87717D02*
X-35488D01*
X-42366Y87217D02*
X-35682D01*
X-42866Y86717D02*
X-35900D01*
X-43366Y86216D02*
X-36141D01*
X-43866Y85716D02*
X-36421D01*
X-44366Y85216D02*
X-36729D01*
X-41030Y80879D02*
X-40529Y81186D01*
X-41000Y88582D02*
Y91121D01*
X-41500Y88082D02*
Y89459D01*
X-42186Y88217D02*
X-41366D01*
X-42000Y87582D02*
Y88502D01*
X-42500Y87082D02*
Y87791D01*
X-42559Y87717D02*
X-41866D01*
X-41000Y80897D02*
Y88582D01*
X-41500Y80590D02*
Y88082D01*
X-42000Y80295D02*
Y87582D01*
X-42500Y80047D02*
Y87082D01*
X-43000Y86582D02*
Y87222D01*
Y79823D02*
Y86582D01*
X-43006Y87217D02*
X-42366D01*
X-43545Y86717D02*
X-42866D01*
X-44213Y86216D02*
X-43366D01*
X-43500Y86083D02*
Y86754D01*
X-44000Y85583D02*
Y86363D01*
X-45089Y85716D02*
X-43866D01*
X-43500Y79623D02*
Y86083D01*
X-44610Y84972D02*
X-40886Y88697D01*
X-44000Y79445D02*
Y85583D01*
X-44500Y85083D02*
Y86035D01*
X-45000Y84972D02*
Y85760D01*
X-42906Y79886D02*
X-42534Y80040D01*
X-45500Y84972D02*
Y85533D01*
X-44500Y79295D02*
Y85083D01*
X-45000Y79174D02*
Y84972D01*
X-45318Y79099D02*
X-45008Y79173D01*
X-45500Y79055D02*
Y84972D01*
X-45909Y78957D02*
X-45404Y79078D01*
X-46000Y84972D02*
Y85348D01*
X-46443Y85216D02*
X-44366D01*
X-46000Y78941D02*
Y84972D01*
X-46500Y78865D02*
Y84972D01*
X-46955Y78829D02*
X-46481Y78866D01*
X-47000Y78816D02*
Y84972D01*
X-47452Y78790D02*
X-47151Y78814D01*
X-48000Y78744D02*
Y84972D01*
X-47500Y78776D02*
Y84972D01*
X-50716Y105717D02*
X-45108D01*
X-52344Y105217D02*
X-43492D01*
X-48000Y99870D02*
Y106098D01*
X-49000Y99870D02*
Y106028D01*
X-49500Y99870D02*
Y105959D01*
X-48500Y99870D02*
Y106080D01*
X-50000Y99870D02*
Y105872D01*
X-50500Y99870D02*
Y105768D01*
X-51000Y99870D02*
Y105644D01*
X-51500Y99870D02*
Y105502D01*
X-52000Y99870D02*
Y105340D01*
X-56007Y103217D02*
X-39943D01*
X-56638Y102717D02*
X-39344D01*
X-57203Y102216D02*
X-38783D01*
X-53526Y104717D02*
X-42335D01*
X-54483Y104217D02*
X-41442D01*
X-55297Y103717D02*
X-40626D01*
X-52500Y99430D02*
Y105157D01*
X-57714Y101716D02*
X-38311D01*
X-53000Y98930D02*
Y104954D01*
X-53500Y98430D02*
Y104729D01*
X-48335Y99870D02*
X-44610D01*
X-52059D02*
X-48335D01*
X-52213Y99717D02*
X-49841D01*
X-50500Y99549D02*
Y99870D01*
X-51000Y99377D02*
Y99870D01*
X-52713Y99217D02*
X-51386D01*
X-51500Y99164D02*
Y99870D01*
X-52000Y98906D02*
Y99870D01*
X-52500Y98597D02*
Y99430D01*
X-53000Y98228D02*
Y98930D01*
X-53213Y98716D02*
X-52317D01*
X-58178Y101216D02*
X-37867D01*
X-58601Y100716D02*
X-37457D01*
X-58988Y100216D02*
X-37092D01*
X-59342Y99717D02*
X-52213D01*
X-59666Y99217D02*
X-52713D01*
X-59962Y98716D02*
X-53213D01*
X-55784Y96146D02*
X-52059Y99870D01*
X-53713Y98216D02*
X-53015D01*
X-53500Y97789D02*
Y98430D01*
X-54213Y97716D02*
X-53574D01*
X-54000Y97258D02*
Y97930D01*
Y104480D01*
X-54713Y97216D02*
X-54035D01*
X-54500Y97430D02*
Y104207D01*
X-55000Y96930D02*
Y103908D01*
X-55213Y96716D02*
X-54421D01*
X-54500Y96602D02*
Y97430D01*
X-55000Y95747D02*
Y96930D01*
X-55713Y96216D02*
X-54744D01*
X-55500Y94457D02*
Y96430D01*
Y103580D01*
X-55784Y95717D02*
X-55015D01*
X-60231Y98216D02*
X-53713D01*
X-60477Y97716D02*
X-54213D01*
X-60699Y97216D02*
X-54713D01*
X-60900Y96716D02*
X-55213D01*
X-61079Y96216D02*
X-55713D01*
X-61238Y95717D02*
X-55784D01*
Y95217D02*
X-55239D01*
X-55784Y92421D02*
Y96146D01*
Y94717D02*
X-55421D01*
X-61378Y95217D02*
X-55784D01*
X-61499Y94717D02*
X-55784D01*
Y89217D02*
X-55059D01*
X-55784Y89717D02*
X-55275D01*
X-55784Y88717D02*
X-54797D01*
X-55784Y90216D02*
X-55450D01*
X-61602Y94217D02*
X-55784D01*
X-61505Y88717D02*
X-55784D01*
X-55000Y87913D02*
Y89095D01*
X-55303Y88217D02*
X-54483D01*
X-61354D02*
X-55303D01*
X-55784Y88697D02*
Y92421D01*
X-61500Y88700D02*
Y94713D01*
X-55500Y88413D02*
Y90385D01*
X-61834Y92216D02*
X-55784D01*
X-61849Y91716D02*
X-55784D01*
X-61850Y91216D02*
X-55784D01*
X-61686Y93717D02*
X-55784D01*
X-61753Y93217D02*
X-55784D01*
X-61802Y92716D02*
X-55784D01*
X-61837Y90216D02*
X-55784D01*
X-61850Y90716D02*
X-55784D01*
X-61635Y89217D02*
X-55784D01*
X-61850Y90298D02*
Y91536D01*
X-61746Y89717D02*
X-55784D01*
X-50500Y84972D02*
Y85294D01*
X-48335Y84972D02*
X-44610D01*
X-51000D02*
Y85466D01*
X-51500Y84972D02*
Y85678D01*
X-52000Y79255D02*
Y84972D01*
X-49000Y78770D02*
Y84972D01*
X-49500Y78799D02*
Y84972D01*
X-48500Y78741D02*
Y84972D01*
X-51000Y79014D02*
Y84972D01*
X-51500Y79130D02*
Y84972D01*
X-50000Y78852D02*
Y84972D01*
X-52303Y85216D02*
X-50226D01*
X-52803Y85716D02*
X-51580D01*
X-59940Y85216D02*
X-52303D01*
X-52500Y85413D02*
Y86246D01*
X-53303Y86216D02*
X-52456D01*
X-60245Y85716D02*
X-52803D01*
X-52000Y84972D02*
Y85936D01*
X-52059Y84972D02*
X-48335D01*
X-55784Y88697D02*
X-52059Y84972D01*
X-52500Y79390D02*
Y85413D01*
X-50500Y78913D02*
Y84972D01*
X-51841Y79216D02*
X-44818D01*
X-51474Y79128D02*
X-50760Y78957D01*
X-52030Y79262D02*
X-51694Y79181D01*
X-49886Y78843D02*
X-49563Y78817D01*
X-49341Y78800D02*
X-49015Y78774D01*
X-58968Y84216D02*
X-37387D01*
X-59521Y84716D02*
X-37037D01*
X-58558Y83716D02*
X-37792D01*
X-57978Y82717D02*
X-38692D01*
X-58387Y83217D02*
X-38228D01*
X-57424Y82217D02*
X-39245D01*
X-56185Y81217D02*
X-40485D01*
X-56832Y81717D02*
X-39837D01*
X-55384Y80717D02*
X-41292D01*
X-54517Y80216D02*
X-42153D01*
X-53410Y79716D02*
X-43259D01*
X-54000Y86913D02*
Y87585D01*
X-54303Y87217D02*
X-53664D01*
X-53500Y86413D02*
Y87054D01*
X-54500Y87413D02*
Y88241D01*
X-57000Y81847D02*
Y102402D01*
X-54803Y87717D02*
X-54110D01*
X-54500Y80208D02*
Y87413D01*
X-55000Y80487D02*
Y87913D01*
X-54000Y79968D02*
Y86913D01*
X-56000Y81099D02*
Y103222D01*
X-56500Y81444D02*
Y102831D01*
X-55500Y80791D02*
Y88413D01*
X-60000Y85309D02*
Y98648D01*
X-61181Y87717D02*
X-54803D01*
X-60987Y87217D02*
X-54303D01*
X-60500Y86162D02*
Y97667D01*
X-61000Y87248D02*
Y96444D01*
X-57500Y82274D02*
Y101932D01*
X-58000Y82739D02*
Y101414D01*
X-58500Y83629D02*
Y100841D01*
X-59000Y84249D02*
Y100201D01*
X-59500Y84707D02*
Y99478D01*
X-53000Y85913D02*
Y86614D01*
X-53803Y86717D02*
X-53124D01*
X-55231Y80629D02*
X-54802Y80365D01*
X-53000Y79560D02*
Y85913D01*
X-53500Y79753D02*
Y86413D01*
X-53927Y79954D02*
X-53595Y79816D01*
X-60528Y86216D02*
X-53303D01*
X-60770Y86717D02*
X-53803D01*
X-59936Y85212D02*
X-59709Y84842D01*
X-60391Y85954D02*
X-60088Y85460D01*
X-59305Y84553D02*
X-58741Y83989D01*
X-56141Y81186D02*
X-55507Y80797D01*
X-57404Y82205D02*
X-57100Y81946D01*
X-56846Y81728D02*
X-56608Y81525D01*
X55296Y-65284D02*
X61346D01*
X54796Y-64784D02*
X61173D01*
X55776Y-65784D02*
X61497D01*
X55000Y-64988D02*
Y-57545D01*
X55500Y-65488D02*
Y-57838D01*
X55776Y-69488D02*
Y-65764D01*
X54789Y-65784D02*
X55776D01*
X55000Y-66178D02*
Y-64988D01*
X55500Y-67480D02*
Y-65488D01*
X53796Y-63784D02*
X60762D01*
X53296Y-63283D02*
X60520D01*
X54296Y-64284D02*
X60979D01*
X52296Y-62283D02*
X59957D01*
X52796Y-62783D02*
X60252D01*
X52051Y-62039D02*
X55776Y-65764D01*
X54476Y-65284D02*
X55296D01*
X55776Y-67783D02*
X61850D01*
X55776Y-67283D02*
X61829D01*
X55776Y-68283D02*
X61850D01*
X55776Y-66284D02*
X61627D01*
X55776Y-66783D02*
X61738D01*
X61850Y-68307D02*
Y-67416D01*
X55776Y-70284D02*
X61716D01*
X61500Y-71485D02*
Y-65795D01*
X55776Y-70784D02*
X61638D01*
X55442Y-67283D02*
X55776D01*
Y-68783D02*
X61842D01*
X55051Y-66284D02*
X55776D01*
X55267Y-66783D02*
X55776D01*
Y-69283D02*
X61817D01*
X55776Y-69784D02*
X61775D01*
X55776Y-71284D02*
X61543D01*
X55413Y-71784D02*
X55776D01*
X52000Y-62039D02*
Y-56309D01*
X51500Y-62039D02*
Y-56180D01*
X52500Y-62488D02*
Y-56459D01*
X50500Y-62039D02*
Y-55981D01*
X51000Y-62039D02*
Y-56071D01*
X54000Y-63988D02*
Y-57039D01*
X54500Y-64488D02*
Y-57279D01*
X53000Y-62988D02*
Y-56630D01*
X53500Y-63488D02*
Y-56823D01*
X48000Y-62039D02*
Y-55811D01*
X47500Y-62039D02*
Y-55832D01*
X47000Y-62039D02*
Y-55872D01*
X46500Y-62039D02*
Y-55930D01*
X46000Y-62039D02*
Y-56006D01*
X49500Y-62039D02*
Y-55857D01*
X50000Y-62039D02*
Y-55910D01*
X48500Y-62039D02*
Y-55808D01*
X49000Y-62039D02*
Y-55824D01*
X53500Y-64129D02*
Y-63488D01*
X52449Y-63283D02*
X53296D01*
X53117Y-63784D02*
X53796D01*
X52500Y-63318D02*
Y-62488D01*
X53000Y-63687D02*
Y-62988D01*
X54500Y-65319D02*
Y-64488D01*
X54102Y-64784D02*
X54796D01*
X54000Y-64661D02*
Y-63988D01*
X53656Y-64284D02*
X54296D01*
X48327Y-62039D02*
X52051D01*
X50219Y-62283D02*
X52296D01*
X46000Y-62412D02*
Y-62039D01*
X50500Y-62363D02*
Y-62039D01*
X52000Y-63008D02*
Y-62039D01*
X51573Y-62783D02*
X52796D01*
X51000Y-62535D02*
Y-62039D01*
X51500Y-62749D02*
Y-62039D01*
X60500Y-74438D02*
Y-63244D01*
X60000Y-75420D02*
Y-62353D01*
X61000Y-73216D02*
Y-64334D01*
X59000Y-76972D02*
Y-60929D01*
X59500Y-76250D02*
Y-61593D01*
X58000Y-78185D02*
Y-59813D01*
X58500Y-77612D02*
Y-60341D01*
X57000Y-79173D02*
Y-58908D01*
X57500Y-78703D02*
Y-59338D01*
X55776Y-72284D02*
X61298D01*
X55776Y-71784D02*
X61430D01*
X55231Y-72284D02*
X55776D01*
Y-73213D02*
Y-69488D01*
X55500Y-73488D02*
Y-71496D01*
X56500Y-79602D02*
Y-58517D01*
X56000Y-79994D02*
Y-58161D01*
X55776Y-72783D02*
X61147D01*
X55705Y-73283D02*
X60976D01*
X55205Y-73783D02*
X60784D01*
X55007Y-72783D02*
X55776D01*
X54736Y-73283D02*
X55705D01*
X55500Y-80352D02*
Y-73488D01*
X54705Y-74283D02*
X60571D01*
X55000Y-73988D02*
Y-72798D01*
Y-80679D02*
Y-73988D01*
X54205Y-74783D02*
X60335D01*
X53705Y-75283D02*
X60075D01*
X54413Y-73783D02*
X55205D01*
X54027Y-74283D02*
X54705D01*
X53205Y-75783D02*
X59790D01*
X52705Y-76284D02*
X59478D01*
X52051Y-76937D02*
X55776Y-73213D01*
X52205Y-76784D02*
X59137D01*
X54500Y-74489D02*
Y-73657D01*
X54000Y-74989D02*
Y-74315D01*
X53566Y-74783D02*
X54205D01*
X53500Y-75489D02*
Y-74848D01*
X53007Y-75283D02*
X53705D01*
X54500Y-80979D02*
Y-74489D01*
X54000Y-81252D02*
Y-74989D01*
X53500Y-81501D02*
Y-75489D01*
X53000Y-81726D02*
Y-75989D01*
Y-75289D01*
X52309Y-75783D02*
X53205D01*
X52500Y-76489D02*
Y-75658D01*
X51378Y-76284D02*
X52705D01*
X52000Y-76937D02*
Y-75968D01*
X52500Y-81929D02*
Y-76489D01*
X51500Y-76937D02*
Y-76227D01*
X51000Y-76937D02*
Y-76441D01*
X52000Y-82111D02*
Y-76937D01*
X49832Y-76784D02*
X52205D01*
X51500Y-82273D02*
Y-76937D01*
X50500D02*
Y-76613D01*
X51000Y-82416D02*
Y-76937D01*
X50000Y-82644D02*
Y-76937D01*
X50500Y-82539D02*
Y-76937D01*
X49000Y-82800D02*
Y-76937D01*
X49500Y-82731D02*
Y-76937D01*
X48500Y-82852D02*
Y-76937D01*
X48327D02*
X52051D01*
X46000D02*
Y-76565D01*
X48000Y-82886D02*
Y-76937D01*
X47000Y-82905D02*
Y-76937D01*
X47500Y-82903D02*
Y-76937D01*
X46000Y-82905D02*
Y-76937D01*
X46500Y-82905D02*
Y-76937D01*
X44748Y-56283D02*
X51906D01*
X43251Y-56783D02*
X53403D01*
X42145Y-57284D02*
X54509D01*
X45500Y-62039D02*
Y-56102D01*
X45000Y-62039D02*
Y-56218D01*
X44500Y-62142D02*
Y-56353D01*
X44000Y-62642D02*
Y-56509D01*
X43500Y-63142D02*
Y-56687D01*
X43000Y-63642D02*
Y-56887D01*
X39807Y-58784D02*
X56846D01*
X39214Y-59284D02*
X57439D01*
X38684Y-59784D02*
X57970D01*
X41243Y-57784D02*
X55410D01*
X40477Y-58284D02*
X56177D01*
X37772Y-60783D02*
X58881D01*
X37379Y-61283D02*
X59275D01*
X38205Y-60283D02*
X58448D01*
X45500Y-62596D02*
Y-62039D01*
X44602D02*
X48327D01*
X44358Y-62283D02*
X46435D01*
X45000Y-62823D02*
Y-62039D01*
X43858Y-62783D02*
X45081D01*
X44500Y-63097D02*
Y-62142D01*
X43358Y-63283D02*
X44205D01*
X44000Y-63425D02*
Y-62642D01*
X43500Y-63815D02*
Y-63142D01*
X37021Y-61783D02*
X59632D01*
X36696Y-62283D02*
X44358D01*
X36401Y-62783D02*
X43858D01*
X36134Y-63283D02*
X43358D01*
X40878Y-65764D02*
X44602Y-62039D01*
X43000Y-64281D02*
Y-63642D01*
X42858Y-63784D02*
X43537D01*
X42500Y-64141D02*
Y-57110D01*
X42358Y-64284D02*
X42998D01*
X41858Y-64784D02*
X42551D01*
X42000Y-64641D02*
Y-57358D01*
X42500Y-64847D02*
Y-64141D01*
X42000Y-65556D02*
Y-64641D01*
X41358Y-65284D02*
X42178D01*
X41500Y-65141D02*
Y-57632D01*
Y-66508D02*
Y-65141D01*
X35892Y-63784D02*
X42858D01*
X35674Y-64284D02*
X42358D01*
X35480Y-64784D02*
X41858D01*
X41000Y-65641D02*
Y-57934D01*
X35308Y-65284D02*
X41358D01*
X41000Y-68144D02*
Y-65641D01*
X40878Y-65784D02*
X41864D01*
X40878Y-69488D02*
Y-65764D01*
X35157Y-65784D02*
X40878D01*
Y-66284D02*
X41602D01*
X35026D02*
X40878D01*
Y-66783D02*
X41386D01*
X34916D02*
X40878D01*
X34824Y-67283D02*
X40878D01*
Y-71784D02*
X41240D01*
X40878Y-72284D02*
X41422D01*
X40878Y-67283D02*
X41212D01*
X34840Y-71784D02*
X40878D01*
X34664Y-68783D02*
X40878D01*
X34647Y-69283D02*
X40878D01*
X34752Y-67783D02*
X40878D01*
X34699Y-68283D02*
X40878D01*
X34707Y-70784D02*
X40878D01*
X34764Y-71284D02*
X40878D01*
X34649Y-69784D02*
X40878D01*
X34669Y-70284D02*
X40878D01*
X44500Y-76835D02*
Y-75879D01*
X43949Y-76284D02*
X45275D01*
X44449Y-76784D02*
X46821D01*
X43500Y-75835D02*
Y-75162D01*
X44000Y-76335D02*
Y-75552D01*
X45000Y-76937D02*
Y-76153D01*
X45500Y-76937D02*
Y-76380D01*
X43500Y-82289D02*
Y-75835D01*
X44000Y-82467D02*
Y-76335D01*
X43449Y-75783D02*
X44345D01*
X42949Y-75283D02*
X43647D01*
X36453Y-76284D02*
X43949D01*
X42449Y-74783D02*
X43088D01*
X36180Y-75783D02*
X43449D01*
X40878Y-73213D02*
X44602Y-76937D01*
X36753Y-76784D02*
X44449D01*
X42327Y-81783D02*
X52864D01*
X41395Y-81283D02*
X53939D01*
X43484Y-82284D02*
X51467D01*
X44500Y-82623D02*
Y-76835D01*
X44602Y-76937D02*
X48327D01*
X45101Y-82784D02*
X49132D01*
X45651Y-82905D02*
X47252D01*
X45000Y-82759D02*
Y-76937D01*
X45500Y-82874D02*
Y-76937D01*
X37084Y-77284D02*
X58764D01*
X37447Y-77784D02*
X58356D01*
X37848Y-78284D02*
X57909D01*
X38288Y-78784D02*
X57418D01*
X38776Y-79283D02*
X56876D01*
X39317Y-79783D02*
X56274D01*
X39922Y-80283D02*
X55599D01*
X40607Y-80783D02*
X54831D01*
X41500Y-73835D02*
Y-72469D01*
X41000Y-73335D02*
Y-70832D01*
X40878Y-72783D02*
X41646D01*
X38500Y-79007D02*
Y-59969D01*
X40878Y-73213D02*
Y-69488D01*
X40500Y-80709D02*
Y-58267D01*
X40000Y-80344D02*
Y-58633D01*
X39500Y-79941D02*
Y-59035D01*
X39000Y-79497D02*
Y-59479D01*
X36000Y-75423D02*
Y-63553D01*
X34934Y-72284D02*
X40878D01*
X35500Y-74247D02*
Y-64729D01*
X35000Y-72582D02*
Y-66395D01*
X38000Y-78462D02*
Y-60514D01*
X37500Y-77852D02*
Y-61124D01*
X37000Y-77161D02*
Y-61815D01*
X36500Y-76366D02*
Y-62611D01*
X42500Y-74835D02*
Y-74129D01*
X41949Y-74283D02*
X42627D01*
X43000Y-75335D02*
Y-74695D01*
X42000Y-74335D02*
Y-73420D01*
X41449Y-73783D02*
X42241D01*
X42500Y-81866D02*
Y-74835D01*
X43000Y-82090D02*
Y-75335D01*
X41500Y-81344D02*
Y-73835D01*
X42000Y-81618D02*
Y-74335D01*
X40949Y-73283D02*
X41917D01*
X35337Y-73783D02*
X41449D01*
X35048Y-72783D02*
X40878D01*
X35183Y-73283D02*
X40949D01*
X35712Y-74783D02*
X42449D01*
X35934Y-75283D02*
X42949D01*
X41000Y-81042D02*
Y-73335D01*
X35514Y-74283D02*
X41949D01*
D20*
X40059Y12795D02*
X46949D01*
X54843Y4902D01*
X39961Y12795D02*
X40059D01*
X34941Y17815D02*
X39961Y12795D01*
X29212Y17815D02*
X34941D01*
X-53974Y-30000D02*
X-47006Y-23031D01*
X20276D01*
D21*
X54843Y3500D02*
Y4902D01*
X28819Y18209D02*
X29212Y17815D01*
X-54921Y-30000D02*
X-53974D01*
X38524Y58209D02*
X38583Y58268D01*
D22*
X28819Y58209D02*
X38524D01*
D23*
X48327Y-69488D02*
D03*
X-48335Y92421D02*
D03*
D24*
X-54921Y-30000D02*
D03*
Y-40000D02*
D03*
Y-20000D02*
D03*
Y3779D02*
D03*
Y13780D02*
D03*
Y47559D02*
D03*
Y37559D02*
D03*
Y57559D02*
D03*
Y67559D02*
D03*
X-25276Y-68721D02*
D03*
X14724Y-68701D02*
D03*
X24724D02*
D03*
X-5276D02*
D03*
X-15276D02*
D03*
X54882Y57279D02*
D03*
Y47280D02*
D03*
Y27279D02*
D03*
Y37279D02*
D03*
X54843Y3500D02*
D03*
X54862Y-36500D02*
D03*
Y-46500D02*
D03*
Y-16500D02*
D03*
Y-6500D02*
D03*
X54921Y91059D02*
D03*
Y81059D02*
D03*
D25*
X-54921Y-50000D02*
D03*
Y-6221D02*
D03*
Y27559D02*
D03*
X54882Y17279D02*
D03*
X54862Y-26500D02*
D03*
X54921Y71059D02*
D03*
D26*
X4724Y-68701D02*
D03*
D27*
X-46654Y22171D02*
D03*
X-35080Y32105D02*
D03*
X-36971Y36647D02*
D03*
X37106Y78543D02*
D03*
X44193Y16535D02*
D03*
X-37795Y4134D02*
D03*
X-46752Y26575D02*
D03*
X-44293Y54333D02*
D03*
X-35630Y60433D02*
D03*
X14469Y44587D02*
D03*
X45079Y40650D02*
D03*
X42815Y37697D02*
D03*
X17618Y33661D02*
D03*
X-16831Y34843D02*
D03*
X17126Y57579D02*
D03*
X5807Y39272D02*
D03*
X22047Y-80610D02*
D03*
X10630Y-78150D02*
D03*
X-1673Y-79232D02*
D03*
X-11614Y-77658D02*
D03*
X-23819Y-78642D02*
D03*
X-60532Y81004D02*
D03*
X-38287Y105020D02*
D03*
X-31988Y103839D02*
D03*
X-58071Y77165D02*
D03*
X36024Y93209D02*
D03*
X36713Y101476D02*
D03*
X25000Y85138D02*
D03*
X4331Y85827D02*
D03*
X2461Y59842D02*
D03*
X-787Y68504D02*
D03*
X-16732Y47441D02*
D03*
X-7579Y41437D02*
D03*
X20079Y66535D02*
D03*
X5709Y50394D02*
D03*
X-10433Y56595D02*
D03*
X15059Y-49803D02*
D03*
X60630Y-58760D02*
D03*
X37598Y-81693D02*
D03*
X-48819Y-78543D02*
D03*
X-50591Y-68799D02*
D03*
X-35925Y-76968D02*
D03*
X-40059Y-67913D02*
D03*
X-54331Y-61122D02*
D03*
X3347Y102854D02*
D03*
X-6791D02*
D03*
X11417Y89370D02*
D03*
X-16143Y102681D02*
D03*
X35335Y-9449D02*
D03*
X35138Y62894D02*
D03*
X-36220Y53248D02*
D03*
X-40899Y54431D02*
D03*
X-43898Y67224D02*
D03*
X-34252Y12795D02*
D03*
X-37866Y10799D02*
D03*
X-35039Y7874D02*
D03*
X-37795Y-11909D02*
D03*
X-36319Y47835D02*
D03*
X-34941Y43209D02*
D03*
X-38976Y-29823D02*
D03*
X31496Y-17717D02*
D03*
X30610Y74016D02*
D03*
D28*
X50098Y100689D02*
D03*
D29*
X40059Y12795D02*
D03*
X20276Y-23031D02*
D03*
D30*
X38583Y58268D02*
D03*
M02*
