G04*
G04 #@! TF.GenerationSoftware,Altium Limited,Altium Designer,20.1.8 (145)*
G04*
G04 Layer_Color=16711935*
%FSLAX25Y25*%
%MOIN*%
G70*
G04*
G04 #@! TF.SameCoordinates,FF8AD340-37D9-483E-B564-930531A4ACC2*
G04*
G04*
G04 #@! TF.FilePolarity,Negative*
G04*
G01*
G75*
%ADD15C,0.13398*%
%ADD16C,0.07300*%
%ADD17R,0.07300X0.07300*%
%ADD18R,0.07300X0.07300*%
D15*
X48327Y-69488D02*
D03*
X-48335Y92421D02*
D03*
D16*
X-54921Y-30000D02*
D03*
Y-40000D02*
D03*
Y-20000D02*
D03*
Y3779D02*
D03*
Y13780D02*
D03*
Y47559D02*
D03*
Y37559D02*
D03*
Y57559D02*
D03*
Y67559D02*
D03*
X-25276Y-68721D02*
D03*
X14724Y-68701D02*
D03*
X24724D02*
D03*
X-5276D02*
D03*
X-15276D02*
D03*
X54882Y57279D02*
D03*
Y47280D02*
D03*
Y27279D02*
D03*
Y37279D02*
D03*
X54843Y3500D02*
D03*
X54862Y-36500D02*
D03*
Y-46500D02*
D03*
Y-16500D02*
D03*
Y-6500D02*
D03*
X54921Y91059D02*
D03*
Y81059D02*
D03*
D17*
X-54921Y-50000D02*
D03*
Y-6221D02*
D03*
Y27559D02*
D03*
X54882Y17279D02*
D03*
X54862Y-26500D02*
D03*
X54921Y71059D02*
D03*
D18*
X4724Y-68701D02*
D03*
M02*
