G04*
G04 #@! TF.GenerationSoftware,Altium Limited,Altium Designer,20.1.8 (145)*
G04*
G04 Layer_Physical_Order=2*
G04 Layer_Color=16711680*
%FSLAX25Y25*%
%MOIN*%
G70*
G04*
G04 #@! TF.SameCoordinates,E63724BA-16F5-4366-9E26-62C3D329C696*
G04*
G04*
G04 #@! TF.FilePolarity,Positive*
G04*
G01*
G75*
%ADD12C,0.01000*%
%ADD19C,0.00300*%
%ADD20C,0.02000*%
%ADD21C,0.03000*%
%ADD22C,0.01500*%
%ADD23C,0.12598*%
%ADD24C,0.06500*%
%ADD25R,0.06500X0.06500*%
%ADD26R,0.06500X0.06500*%
%ADD27C,0.02362*%
%ADD28C,0.02000*%
%ADD29C,0.02559*%
%ADD30C,0.03000*%
G36*
X49558Y106097D02*
X51808Y105557D01*
X53945Y104672D01*
X55918Y103463D01*
X57677Y101961D01*
X59180Y100201D01*
X60388Y98229D01*
X61274Y96092D01*
X61814Y93842D01*
X61991Y91590D01*
X61980Y91536D01*
X61980Y-62427D01*
X61480Y-62568D01*
X61088Y-61927D01*
X61083Y-61905D01*
X61042Y-61843D01*
X61040Y-61835D01*
X60909Y-61629D01*
X60909Y-61626D01*
X60795Y-61450D01*
X60792Y-61452D01*
X60655Y-61246D01*
X60274Y-60992D01*
X59858Y-60909D01*
X59373Y-60424D01*
Y-60018D01*
X59284Y-59569D01*
X59043Y-59210D01*
X59048Y-59205D01*
X58846Y-58969D01*
X58701Y-58845D01*
X58357Y-58551D01*
X58329Y-58509D01*
X58285Y-58480D01*
X58268Y-58454D01*
X58158Y-58381D01*
X57862Y-58128D01*
X57829Y-58079D01*
X57715Y-58002D01*
X57697Y-57987D01*
X57675Y-57954D01*
X57600Y-57904D01*
X57071Y-57452D01*
X56120Y-56869D01*
X55949Y-56755D01*
X55938Y-56753D01*
X55859Y-56700D01*
X55836Y-56696D01*
X55081Y-56233D01*
X54509Y-55996D01*
X54449Y-55955D01*
X54377Y-55941D01*
X54044Y-55803D01*
X53949Y-55740D01*
X53894Y-55729D01*
X53851Y-55700D01*
X53743Y-55679D01*
X53488Y-55573D01*
X53449Y-55547D01*
X53402Y-55537D01*
X52924Y-55339D01*
X52360Y-55204D01*
X52354Y-55200D01*
X52296Y-55189D01*
X51968Y-55110D01*
X51949Y-55097D01*
X51747Y-55057D01*
X50654Y-54794D01*
X50047Y-54747D01*
X50000Y-54737D01*
X49980Y-54741D01*
X49655Y-54716D01*
X49500Y-54685D01*
X49433Y-54698D01*
X49109Y-54673D01*
X49000Y-54651D01*
X48953Y-54660D01*
X48327Y-54611D01*
X47560Y-54672D01*
X47500Y-54660D01*
X47361Y-54687D01*
X47060Y-54711D01*
X47000Y-54699D01*
X46862Y-54726D01*
X46000Y-54794D01*
X45124Y-55005D01*
X45051Y-55019D01*
X45044Y-55024D01*
X44736Y-55098D01*
X44551Y-55134D01*
X44534Y-55146D01*
X44357Y-55189D01*
X44299Y-55200D01*
X44294Y-55204D01*
X43729Y-55339D01*
X43129Y-55588D01*
X43051Y-55603D01*
X42985Y-55648D01*
X42910Y-55679D01*
X42802Y-55700D01*
X42711Y-55761D01*
X42663Y-55781D01*
X42551Y-55803D01*
X42457Y-55866D01*
X42088Y-56019D01*
X42051Y-56027D01*
X42020Y-56047D01*
X41573Y-56233D01*
X41060Y-56547D01*
X41051Y-56549D01*
X40988Y-56591D01*
X40817Y-56696D01*
X40795Y-56700D01*
X40628Y-56812D01*
X40570Y-56847D01*
X40551Y-56851D01*
X40414Y-56943D01*
X39582Y-57452D01*
X39171Y-57804D01*
X39171Y-57804D01*
X39171Y-57804D01*
X39054Y-57904D01*
X38978Y-57954D01*
X38956Y-57987D01*
X38803Y-58118D01*
X38671Y-58206D01*
X38633Y-58264D01*
X38495Y-58381D01*
X38385Y-58454D01*
X38353Y-58502D01*
X38214Y-58621D01*
X38171Y-58650D01*
X38158Y-58669D01*
X37807Y-58969D01*
X37414Y-59429D01*
X37376Y-59454D01*
X37318Y-59541D01*
X37227Y-59648D01*
X37171Y-59685D01*
X37084Y-59816D01*
X36995Y-59920D01*
X36943Y-59954D01*
X36863Y-60074D01*
X36678Y-60290D01*
X36671Y-60295D01*
X36660Y-60312D01*
X36291Y-60744D01*
X35726Y-61667D01*
X35613Y-61835D01*
X35609Y-61857D01*
X35480Y-62068D01*
X35417Y-62162D01*
X35414Y-62175D01*
X35071Y-62734D01*
X34920Y-63100D01*
X34917Y-63105D01*
X34916Y-63110D01*
X34845Y-63280D01*
X34808Y-63335D01*
X34795Y-63400D01*
X34655Y-63739D01*
X34591Y-63835D01*
X34569Y-63948D01*
X34454Y-64226D01*
X34417Y-64281D01*
X34410Y-64315D01*
X34397Y-64335D01*
X34386Y-64388D01*
X34178Y-64891D01*
X33956Y-65815D01*
X33943Y-65835D01*
X33923Y-65937D01*
X33917Y-65946D01*
X33878Y-66139D01*
X33633Y-67161D01*
X33587Y-67748D01*
X33580Y-67783D01*
X33583Y-67799D01*
X33557Y-68131D01*
X33526Y-68283D01*
X33539Y-68350D01*
X33514Y-68667D01*
X33491Y-68783D01*
X33501Y-68834D01*
X33450Y-69488D01*
X33508Y-70225D01*
X33496Y-70284D01*
X33523Y-70418D01*
X33547Y-70722D01*
X33535Y-70784D01*
X33563Y-70926D01*
X33633Y-71816D01*
X33841Y-72682D01*
X33851Y-72732D01*
X33854Y-72737D01*
X33878Y-72838D01*
X33917Y-73030D01*
X33929Y-73048D01*
X33965Y-73232D01*
X33977Y-73251D01*
X34178Y-74085D01*
X34404Y-74631D01*
X34417Y-74696D01*
X34426Y-74709D01*
X34430Y-74732D01*
X34471Y-74793D01*
X34606Y-75120D01*
X34629Y-75232D01*
X34692Y-75328D01*
X34842Y-75688D01*
X34850Y-75732D01*
X34876Y-75770D01*
X34916Y-75866D01*
X34917Y-75872D01*
X34920Y-75876D01*
X35071Y-76242D01*
X35368Y-76727D01*
X35369Y-76732D01*
X35397Y-76773D01*
X35414Y-76802D01*
X35417Y-76814D01*
X35480Y-76909D01*
X35666Y-77212D01*
X35670Y-77232D01*
X35769Y-77381D01*
X36291Y-78233D01*
X36660Y-78664D01*
X36671Y-78681D01*
X36678Y-78686D01*
X36931Y-78982D01*
X37018Y-79113D01*
X37075Y-79150D01*
X37084Y-79161D01*
X37171Y-79291D01*
X37227Y-79329D01*
X37422Y-79557D01*
X37459Y-79613D01*
X37483Y-79629D01*
X37807Y-80008D01*
X38158Y-80308D01*
X38171Y-80326D01*
X38214Y-80355D01*
X38451Y-80558D01*
X38488Y-80613D01*
X38614Y-80697D01*
X38633Y-80713D01*
X38671Y-80770D01*
X38803Y-80858D01*
X39083Y-81098D01*
X39093Y-81113D01*
X39128Y-81135D01*
X39171Y-81173D01*
X39171Y-81173D01*
X39171Y-81173D01*
X39582Y-81524D01*
X40414Y-82034D01*
X40551Y-82125D01*
X40570Y-82129D01*
X40825Y-82285D01*
X40947Y-82367D01*
X41029Y-82535D01*
X40885Y-82859D01*
X40682Y-83035D01*
X-47252D01*
X-47306Y-83046D01*
X-49558Y-82869D01*
X-51808Y-82329D01*
X-53945Y-81444D01*
X-55918Y-80235D01*
X-57677Y-78732D01*
X-59180Y-76973D01*
X-60388Y-75001D01*
X-61274Y-72863D01*
X-61814Y-70613D01*
X-61957Y-68801D01*
X-61980Y-68307D01*
X-61980Y-68307D01*
X-61980Y-67814D01*
X-61980Y85347D01*
X-61889Y85373D01*
X-61426Y85399D01*
X-61088Y84848D01*
X-61040Y84795D01*
X-61024Y84772D01*
X-61023Y84768D01*
X-60967Y84683D01*
X-60936Y84600D01*
X-60709Y84229D01*
X-60398Y83893D01*
X-60273Y83836D01*
X-60156Y83758D01*
X-60134Y83724D01*
X-59570Y83160D01*
X-59539Y83115D01*
X-59470Y82768D01*
X-59216Y82387D01*
X-59059Y82141D01*
X-58854Y81902D01*
X-58712Y81781D01*
X-58342Y81464D01*
X-58329Y81445D01*
X-58286Y81416D01*
X-58255Y81390D01*
X-58253Y81387D01*
X-58247Y81383D01*
X-57842Y81037D01*
X-57829Y81018D01*
X-57784Y80987D01*
X-57079Y80386D01*
X-55089Y79166D01*
X-54735Y79020D01*
X-54735Y79019D01*
X-54735Y79019D01*
X-54510Y78926D01*
X-54449Y78885D01*
X-54376Y78871D01*
X-54044Y78733D01*
X-53949Y78670D01*
X-53898Y78659D01*
X-53859Y78633D01*
X-53751Y78612D01*
X-53486Y78502D01*
X-53449Y78477D01*
X-53449Y78477D01*
X-53223Y78393D01*
X-52932Y78272D01*
X-52751Y78229D01*
X-51034Y77817D01*
X-51034D01*
X-50662Y77728D01*
X-49577Y77642D01*
X-49500Y77627D01*
X-49467Y77634D01*
X-48823Y77583D01*
X-48785Y77575D01*
X-48768Y77578D01*
X-48335Y77544D01*
X-47902Y77578D01*
X-47885Y77575D01*
X-47846Y77583D01*
X-47522Y77608D01*
X-47500Y77604D01*
X-47448Y77614D01*
X-47020Y77648D01*
X-47000Y77644D01*
X-46954Y77653D01*
X-46321Y77703D01*
Y77703D01*
X-46007Y77728D01*
X-45839Y77768D01*
X-45636Y77817D01*
X-45636D01*
X-45130Y77938D01*
X-43738Y78272D01*
X-43446Y78393D01*
X-43130Y78524D01*
X-43051Y78540D01*
X-42954Y78605D01*
X-42810Y78633D01*
X-42560Y78738D01*
X-42551Y78740D01*
X-42544Y78745D01*
X-42096Y78952D01*
X-42086Y78957D01*
X-42051Y78964D01*
X-42051Y78964D01*
X-41872Y79045D01*
X-41581Y79166D01*
X-41422Y79263D01*
X-39590Y80386D01*
X-38738Y81113D01*
X-38671Y81158D01*
X-38651Y81187D01*
X-38519Y81301D01*
X-38422Y81383D01*
X-38416Y81387D01*
X-38145Y81620D01*
X-38133Y81630D01*
X-38117Y81641D01*
X-38055Y81697D01*
X-37815Y81902D01*
X-37694Y82043D01*
X-37402Y82386D01*
X-37399Y82387D01*
X-37396Y82392D01*
X-37190Y82633D01*
X-37171Y82646D01*
X-37141Y82691D01*
X-36987Y82871D01*
X-36963Y82887D01*
X-36925Y82944D01*
X-36503Y83437D01*
X-36299Y83677D01*
X-36134Y83945D01*
X-35244Y85399D01*
X-35079Y85667D01*
X-34959Y85958D01*
X-34817Y86268D01*
X-34804Y86333D01*
X-34602Y86764D01*
X-34599Y86768D01*
X-34599Y86768D01*
X-34599Y86768D01*
X-34598Y86771D01*
X-34418Y87233D01*
X-34417Y87235D01*
X-34306Y87533D01*
X-34186Y87824D01*
X-34142Y88005D01*
X-33964Y88748D01*
Y88748D01*
X-33714Y89788D01*
X-33714D01*
X-33641Y90094D01*
X-33627Y90267D01*
X-33558Y91144D01*
X-33544Y91216D01*
X-33550Y91248D01*
X-33514Y91706D01*
X-33512Y91716D01*
X-33513Y91721D01*
X-33496Y91932D01*
X-33489Y91971D01*
X-33492Y91988D01*
X-33458Y92421D01*
X-33492Y92854D01*
X-33489Y92871D01*
X-33496Y92910D01*
X-33519Y93199D01*
X-33515Y93217D01*
X-33523Y93257D01*
X-33558Y93692D01*
X-33553Y93717D01*
X-33564Y93772D01*
X-33616Y94435D01*
X-33641Y94749D01*
X-33730Y95121D01*
Y95121D01*
X-33849Y95615D01*
X-33849Y95615D01*
X-33985Y96184D01*
Y96184D01*
X-34112Y96712D01*
X-34186Y97019D01*
X-34306Y97310D01*
X-34417Y97607D01*
X-34417Y97608D01*
X-34438Y97665D01*
X-34479Y97726D01*
X-34483Y97735D01*
X-34635Y98156D01*
X-34637Y98165D01*
X-34637Y98165D01*
Y98165D01*
X-34640Y98170D01*
X-34836Y98588D01*
X-34850Y98621D01*
X-34858Y98665D01*
X-34858Y98665D01*
X-34959Y98884D01*
X-35079Y99175D01*
X-35177Y99334D01*
X-35475Y99821D01*
X-35475Y99821D01*
X-35674Y100145D01*
X-35674Y100145D01*
X-36299Y101166D01*
X-36991Y101977D01*
X-37038Y102046D01*
X-37067Y102066D01*
X-37142Y102153D01*
X-37171Y102196D01*
X-37190Y102209D01*
X-37492Y102562D01*
X-37492Y102563D01*
X-37514Y102596D01*
X-37514Y102596D01*
X-37611Y102701D01*
X-37815Y102941D01*
X-38055Y103146D01*
X-38117Y103202D01*
X-38133Y103212D01*
X-38459Y103491D01*
X-38459Y103491D01*
X-38504Y103530D01*
X-38515Y103546D01*
X-38552Y103570D01*
X-38651Y103655D01*
X-38671Y103684D01*
X-38738Y103729D01*
X-39590Y104457D01*
X-39859Y104622D01*
X-41581Y105677D01*
X-41791Y105764D01*
X-41691Y106264D01*
X47252D01*
X47306Y106275D01*
X49558Y106097D01*
D02*
G37*
%LPC*%
G36*
X54921Y95346D02*
X53812Y95200D01*
X52778Y94771D01*
X51890Y94090D01*
X51209Y93202D01*
X50781Y92168D01*
X50635Y91059D01*
X50781Y89950D01*
X51209Y88916D01*
X51890Y88028D01*
X52778Y87347D01*
X53812Y86918D01*
X54921Y86772D01*
X56031Y86918D01*
X57065Y87347D01*
X57952Y88028D01*
X58634Y88916D01*
X59062Y89950D01*
X59208Y91059D01*
X59062Y92168D01*
X58634Y93202D01*
X57952Y94090D01*
X57065Y94771D01*
X56031Y95200D01*
X54921Y95346D01*
D02*
G37*
G36*
Y85346D02*
X53812Y85200D01*
X52778Y84771D01*
X52101Y84252D01*
X52077Y84240D01*
X51763Y83993D01*
X51423Y83797D01*
X50984Y83608D01*
X50447Y83434D01*
X49814Y83281D01*
X49109Y83157D01*
X46346Y82932D01*
X45982Y82927D01*
X-32185D01*
X-32770Y82811D01*
X-33266Y82479D01*
X-42223Y73522D01*
X-42555Y73026D01*
X-42671Y72441D01*
Y69584D01*
X-43171Y69304D01*
X-43898Y69448D01*
X-44749Y69279D01*
X-45470Y68797D01*
X-45952Y68075D01*
X-46091Y67379D01*
X-46104Y67355D01*
X-46153Y67277D01*
X-47065Y66220D01*
X-48818Y64467D01*
X-49149Y63971D01*
X-49266Y63386D01*
Y45378D01*
X-49547Y45096D01*
X-49875Y44779D01*
X-51299Y43552D01*
X-51940Y43075D01*
X-52551Y42674D01*
X-53120Y42355D01*
X-53645Y42115D01*
X-54122Y41952D01*
X-54547Y41860D01*
X-54854Y41837D01*
X-54921Y41846D01*
X-56031Y41700D01*
X-57065Y41271D01*
X-57952Y40590D01*
X-58634Y39702D01*
X-59062Y38669D01*
X-59208Y37559D01*
X-59062Y36450D01*
X-58634Y35416D01*
X-57952Y34528D01*
X-57065Y33847D01*
X-56031Y33419D01*
X-54921Y33272D01*
X-53812Y33419D01*
X-52778Y33847D01*
X-51890Y34528D01*
X-51209Y35416D01*
X-50781Y36450D01*
X-50635Y37559D01*
X-50643Y37626D01*
X-50620Y37933D01*
X-50528Y38359D01*
X-50365Y38835D01*
X-50125Y39360D01*
X-49806Y39930D01*
X-49405Y40541D01*
X-48929Y41181D01*
X-47702Y42605D01*
X-47384Y42933D01*
X-46655Y43663D01*
X-46323Y44159D01*
X-46207Y44744D01*
Y52439D01*
X-45707Y52654D01*
X-45145Y52279D01*
X-44293Y52109D01*
X-43442Y52279D01*
X-42919Y52628D01*
X-42677Y52753D01*
X-42183Y52666D01*
X-41750Y52376D01*
X-40899Y52207D01*
X-40048Y52376D01*
X-39789Y52549D01*
X-39471Y52161D01*
X-45054Y46578D01*
X-45385Y46081D01*
X-45502Y45496D01*
Y28918D01*
X-46002Y28649D01*
X-46752Y28799D01*
X-47603Y28629D01*
X-48324Y28147D01*
X-48807Y27426D01*
X-48976Y26575D01*
X-48961Y26500D01*
X-48976Y26463D01*
X-49036Y26350D01*
X-49132Y26198D01*
X-49255Y26030D01*
X-49846Y25348D01*
X-50209Y24985D01*
X-50671Y25176D01*
Y27059D01*
X-54421D01*
Y23309D01*
X-51578D01*
X-51431Y23130D01*
Y16966D01*
X-51619Y16903D01*
X-51931Y16842D01*
X-52778Y17492D01*
X-53812Y17920D01*
X-54921Y18066D01*
X-56031Y17920D01*
X-57065Y17492D01*
X-57952Y16811D01*
X-58634Y15923D01*
X-59062Y14889D01*
X-59208Y13780D01*
X-59062Y12670D01*
X-58634Y11636D01*
X-57952Y10748D01*
X-57065Y10067D01*
X-56031Y9639D01*
X-54921Y9493D01*
X-53812Y9639D01*
X-52778Y10067D01*
X-51931Y10717D01*
X-51619Y10656D01*
X-51431Y10593D01*
Y6966D01*
X-51619Y6903D01*
X-51931Y6842D01*
X-52778Y7492D01*
X-53812Y7920D01*
X-54921Y8066D01*
X-56031Y7920D01*
X-57065Y7492D01*
X-57952Y6811D01*
X-58634Y5923D01*
X-59062Y4889D01*
X-59208Y3779D01*
X-59062Y2670D01*
X-58634Y1636D01*
X-57952Y748D01*
X-57065Y67D01*
X-56031Y-361D01*
X-54921Y-507D01*
X-53812Y-361D01*
X-52778Y67D01*
X-51931Y717D01*
X-51619Y656D01*
X-51431Y593D01*
Y-1970D01*
X-54421D01*
Y-6220D01*
Y-10470D01*
X-51431D01*
Y-14304D01*
X-51620Y-14451D01*
X-51983Y-14692D01*
X-52376Y-14912D01*
X-52799Y-15110D01*
X-53255Y-15286D01*
X-53729Y-15435D01*
X-54833Y-15678D01*
X-55431Y-15761D01*
X-55521Y-15792D01*
X-56031Y-15859D01*
X-57065Y-16288D01*
X-57952Y-16969D01*
X-58634Y-17857D01*
X-59062Y-18891D01*
X-59208Y-20000D01*
X-59062Y-21110D01*
X-58634Y-22143D01*
X-57952Y-23031D01*
X-57065Y-23712D01*
X-56031Y-24141D01*
X-54921Y-24287D01*
X-53812Y-24141D01*
X-52778Y-23712D01*
X-51890Y-23031D01*
X-51209Y-22143D01*
X-50781Y-21110D01*
X-50713Y-20599D01*
X-50682Y-20510D01*
X-50597Y-19898D01*
X-50491Y-19343D01*
X-50361Y-18822D01*
X-50207Y-18334D01*
X-50031Y-17878D01*
X-49931Y-17664D01*
X-49431Y-17775D01*
Y-36835D01*
X-50605Y-38009D01*
X-51195Y-37891D01*
X-51209Y-37857D01*
X-51890Y-36969D01*
X-52778Y-36288D01*
X-53812Y-35859D01*
X-54921Y-35713D01*
X-56031Y-35859D01*
X-57065Y-36288D01*
X-57952Y-36969D01*
X-58634Y-37857D01*
X-59062Y-38890D01*
X-59208Y-40000D01*
X-59062Y-41109D01*
X-58634Y-42143D01*
X-57952Y-43031D01*
X-57065Y-43712D01*
X-56031Y-44141D01*
X-54921Y-44287D01*
X-53812Y-44141D01*
X-52778Y-43712D01*
X-51890Y-43031D01*
X-51209Y-42143D01*
X-51043Y-41744D01*
X-51003Y-41691D01*
X-50967Y-41618D01*
X-50966Y-41617D01*
X-50966Y-41617D01*
X-50959Y-41611D01*
X-50937Y-41598D01*
X-50892Y-41579D01*
X-50820Y-41558D01*
X-50720Y-41539D01*
X-50629Y-41529D01*
X-50433D01*
X-49848Y-41413D01*
X-49352Y-41081D01*
X-46820Y-38550D01*
X-46489Y-38054D01*
X-46372Y-37468D01*
Y-35770D01*
X-45872Y-35618D01*
X-45668Y-35924D01*
X-32479Y-49113D01*
X-31983Y-49444D01*
X-31398Y-49561D01*
X-14413D01*
X-6805Y-57169D01*
Y-59571D01*
X-6813Y-60028D01*
X-6952Y-61902D01*
X-7068Y-62692D01*
X-7216Y-63407D01*
X-7393Y-64036D01*
X-7595Y-64577D01*
X-7817Y-65029D01*
X-8052Y-65395D01*
X-8253Y-65628D01*
X-8307Y-65670D01*
X-8988Y-66558D01*
X-9416Y-67591D01*
X-9562Y-68701D01*
X-9416Y-69810D01*
X-8988Y-70844D01*
X-8307Y-71732D01*
X-7419Y-72413D01*
X-6385Y-72841D01*
X-5276Y-72988D01*
X-4166Y-72841D01*
X-3132Y-72413D01*
X-2245Y-71732D01*
X-1563Y-70844D01*
X-1135Y-69810D01*
X-989Y-68701D01*
X-1135Y-67591D01*
X-1563Y-66558D01*
X-2245Y-65670D01*
X-2298Y-65628D01*
X-2499Y-65395D01*
X-2735Y-65029D01*
X-2956Y-64577D01*
X-3158Y-64036D01*
X-3335Y-63407D01*
X-3483Y-62692D01*
X-3600Y-61902D01*
X-3739Y-60028D01*
X-3746Y-59571D01*
Y-56535D01*
X-3863Y-55950D01*
X-4194Y-55454D01*
X-12184Y-47464D01*
X-11993Y-47002D01*
X-8311D01*
X3195Y-58508D01*
Y-64451D01*
X474D01*
Y-72951D01*
X8974D01*
Y-64451D01*
X6254D01*
Y-57874D01*
X6137Y-57289D01*
X5806Y-56793D01*
X-6596Y-44391D01*
X-7092Y-44060D01*
X-7677Y-43943D01*
X-28894D01*
X-40845Y-31993D01*
X-40803Y-31827D01*
X-40233Y-31607D01*
X-39827Y-31877D01*
X-38976Y-32047D01*
X-38125Y-31877D01*
X-37404Y-31395D01*
X-36922Y-30674D01*
X-36753Y-29823D01*
X-36922Y-28972D01*
X-37404Y-28250D01*
X-38125Y-27768D01*
X-38416Y-27711D01*
X-38473Y-27682D01*
X-38526Y-27667D01*
X-38547Y-27659D01*
X-38585Y-27639D01*
X-38789Y-27508D01*
X-38883Y-27437D01*
X-39057Y-27283D01*
Y-14245D01*
X-38557Y-13982D01*
X-37795Y-14133D01*
X-37069Y-13989D01*
X-36569Y-14269D01*
Y-27756D01*
X-36452Y-28341D01*
X-36121Y-28837D01*
X-22243Y-42715D01*
X-21747Y-43047D01*
X-21161Y-43163D01*
X-3980D01*
X13178Y-60321D01*
X13132Y-61416D01*
X13045Y-62165D01*
X12924Y-62864D01*
X12770Y-63503D01*
X12586Y-64080D01*
X12374Y-64597D01*
X12136Y-65054D01*
X11874Y-65454D01*
X11702Y-65663D01*
X11693Y-65670D01*
X11649Y-65727D01*
X11551Y-65846D01*
X11535Y-65875D01*
X11012Y-66558D01*
X10584Y-67591D01*
X10438Y-68701D01*
X10584Y-69810D01*
X11012Y-70844D01*
X11693Y-71732D01*
X12581Y-72413D01*
X13615Y-72841D01*
X14724Y-72988D01*
X15834Y-72841D01*
X16868Y-72413D01*
X17755Y-71732D01*
X18437Y-70844D01*
X18865Y-69810D01*
X19011Y-68701D01*
X18865Y-67591D01*
X18437Y-66558D01*
X17913Y-65875D01*
X17898Y-65846D01*
X17800Y-65727D01*
X17755Y-65670D01*
X17747Y-65663D01*
X17575Y-65454D01*
X17312Y-65054D01*
X17075Y-64597D01*
X16862Y-64080D01*
X16679Y-63503D01*
X16525Y-62864D01*
X16406Y-62178D01*
X16262Y-60571D01*
X16254Y-60174D01*
Y-59705D01*
X16137Y-59119D01*
X15806Y-58623D01*
X-2265Y-40552D01*
X-2761Y-40221D01*
X-3346Y-40104D01*
X-20528D01*
X-33510Y-27122D01*
Y5037D01*
X-33491Y5562D01*
X-33443Y6099D01*
X-33415Y6277D01*
X-33388Y6406D01*
X-33380Y6432D01*
X-32985Y7023D01*
X-32816Y7874D01*
X-32985Y8725D01*
X-33467Y9447D01*
X-34188Y9929D01*
X-35039Y10098D01*
X-35214Y10411D01*
X-34776Y10676D01*
X-34252Y10571D01*
X-33401Y10741D01*
X-32680Y11223D01*
X-32197Y11944D01*
X-32028Y12795D01*
X-32197Y13646D01*
X-32680Y14368D01*
X-33401Y14850D01*
X-33675Y14904D01*
Y29075D01*
X-33669Y29387D01*
X-33622Y29996D01*
X-33591Y30219D01*
X-33556Y30399D01*
X-33522Y30523D01*
X-33507Y30533D01*
X-33025Y31254D01*
X-32856Y32105D01*
X-33025Y32956D01*
X-33507Y33678D01*
X-34229Y34160D01*
X-35080Y34329D01*
X-35273Y34291D01*
X-35785Y34699D01*
X-35788Y34815D01*
X-35398Y35075D01*
X-34916Y35796D01*
X-34747Y36647D01*
X-34916Y37499D01*
X-35398Y38220D01*
X-36120Y38702D01*
X-36502Y38778D01*
X-36666Y39320D01*
X-35866Y40121D01*
X-35481Y40479D01*
X-35067Y40824D01*
X-34922Y40931D01*
X-34811Y41003D01*
X-34787Y41015D01*
X-34090Y41154D01*
X-33368Y41636D01*
X-32886Y42358D01*
X-32717Y43209D01*
X-32886Y44060D01*
X-33368Y44781D01*
X-34090Y45263D01*
X-34941Y45432D01*
X-35151Y45391D01*
X-35346Y45862D01*
X-34746Y46262D01*
X-34264Y46984D01*
X-34095Y47835D01*
X-34264Y48686D01*
X-34746Y49407D01*
X-35468Y49889D01*
X-36319Y50059D01*
X-36576Y50007D01*
X-36812Y50470D01*
X-36761Y50518D01*
X-36347Y50864D01*
X-36201Y50971D01*
X-36090Y51042D01*
X-36066Y51055D01*
X-35370Y51193D01*
X-34648Y51675D01*
X-34166Y52397D01*
X-33997Y53248D01*
X-34166Y54099D01*
X-34648Y54821D01*
X-35370Y55303D01*
X-36220Y55472D01*
X-37071Y55303D01*
X-37793Y54821D01*
X-38213Y54191D01*
X-38684Y54387D01*
X-38675Y54431D01*
X-38845Y55282D01*
X-39327Y56003D01*
X-39353Y56021D01*
X-39356Y56029D01*
X-39391Y56152D01*
X-39427Y56332D01*
X-39457Y56544D01*
X-39514Y57443D01*
Y58470D01*
X-38060Y59924D01*
X-37729Y60420D01*
X-37612Y61005D01*
Y70756D01*
X-31355Y77014D01*
X34269D01*
X34794Y76995D01*
X35331Y76947D01*
X35509Y76919D01*
X35638Y76891D01*
X35664Y76884D01*
X36255Y76489D01*
X37106Y76319D01*
X37957Y76489D01*
X38679Y76971D01*
X39161Y77692D01*
X39330Y78543D01*
X39166Y79368D01*
X39162Y79456D01*
X39419Y79868D01*
X45397D01*
X47136Y79798D01*
X47984Y79703D01*
X48765Y79569D01*
X49466Y79401D01*
X50088Y79200D01*
X50630Y78971D01*
X51093Y78716D01*
X51481Y78439D01*
X51809Y78134D01*
X51890Y78028D01*
X52778Y77347D01*
X53812Y76918D01*
X54921Y76772D01*
X56031Y76918D01*
X57065Y77347D01*
X57952Y78028D01*
X58634Y78916D01*
X59062Y79950D01*
X59208Y81059D01*
X59062Y82169D01*
X58634Y83202D01*
X57952Y84090D01*
X57065Y84771D01*
X56031Y85200D01*
X54921Y85346D01*
D02*
G37*
G36*
X59171Y75309D02*
X55421D01*
Y71559D01*
X59171D01*
Y75309D01*
D02*
G37*
G36*
X54421D02*
X50671D01*
Y71559D01*
X54421D01*
Y75309D01*
D02*
G37*
G36*
X59171Y70559D02*
X55421D01*
Y66809D01*
X59171D01*
Y70559D01*
D02*
G37*
G36*
X54421D02*
X50671D01*
Y66809D01*
X54421D01*
Y70559D01*
D02*
G37*
G36*
X-54921Y71846D02*
X-56031Y71700D01*
X-57065Y71271D01*
X-57952Y70590D01*
X-58634Y69702D01*
X-59062Y68669D01*
X-59208Y67559D01*
X-59062Y66450D01*
X-58634Y65416D01*
X-57952Y64528D01*
X-57065Y63847D01*
X-56031Y63418D01*
X-54921Y63272D01*
X-53812Y63418D01*
X-52778Y63847D01*
X-51890Y64528D01*
X-51209Y65416D01*
X-50781Y66450D01*
X-50635Y67559D01*
X-50781Y68669D01*
X-51209Y69702D01*
X-51890Y70590D01*
X-52778Y71271D01*
X-53812Y71700D01*
X-54921Y71846D01*
D02*
G37*
G36*
Y61846D02*
X-56031Y61700D01*
X-57065Y61271D01*
X-57952Y60590D01*
X-58634Y59702D01*
X-59062Y58669D01*
X-59208Y57559D01*
X-59062Y56450D01*
X-58634Y55416D01*
X-57952Y54528D01*
X-57065Y53847D01*
X-56031Y53418D01*
X-54921Y53272D01*
X-53812Y53418D01*
X-52778Y53847D01*
X-51890Y54528D01*
X-51209Y55416D01*
X-50781Y56450D01*
X-50635Y57559D01*
X-50781Y58669D01*
X-51209Y59702D01*
X-51890Y60590D01*
X-52778Y61271D01*
X-53812Y61700D01*
X-54921Y61846D01*
D02*
G37*
G36*
X54882Y61566D02*
X53772Y61420D01*
X52739Y60992D01*
X51851Y60311D01*
X51170Y59423D01*
X50741Y58389D01*
X50595Y57279D01*
X50741Y56170D01*
X51170Y55136D01*
X51851Y54248D01*
X52739Y53567D01*
X53772Y53139D01*
X54882Y52993D01*
X55991Y53139D01*
X57025Y53567D01*
X57913Y54248D01*
X58594Y55136D01*
X59022Y56170D01*
X59169Y57279D01*
X59022Y58389D01*
X58594Y59423D01*
X57913Y60311D01*
X57025Y60992D01*
X55991Y61420D01*
X54882Y61566D01*
D02*
G37*
G36*
X-54921Y51846D02*
X-56031Y51700D01*
X-57065Y51271D01*
X-57952Y50590D01*
X-58634Y49702D01*
X-59062Y48669D01*
X-59208Y47559D01*
X-59062Y46450D01*
X-58634Y45416D01*
X-57952Y44528D01*
X-57065Y43847D01*
X-56031Y43418D01*
X-54921Y43272D01*
X-53812Y43418D01*
X-52778Y43847D01*
X-51890Y44528D01*
X-51209Y45416D01*
X-50781Y46450D01*
X-50635Y47559D01*
X-50781Y48669D01*
X-51209Y49702D01*
X-51890Y50590D01*
X-52778Y51271D01*
X-53812Y51700D01*
X-54921Y51846D01*
D02*
G37*
G36*
X54882Y51566D02*
X53772Y51420D01*
X52739Y50992D01*
X51851Y50311D01*
X51170Y49423D01*
X50741Y48389D01*
X50595Y47280D01*
X50741Y46170D01*
X51170Y45136D01*
X51851Y44248D01*
X52739Y43567D01*
X53772Y43139D01*
X54882Y42993D01*
X55991Y43139D01*
X57025Y43567D01*
X57913Y44248D01*
X58594Y45136D01*
X59022Y46170D01*
X59169Y47280D01*
X59022Y48389D01*
X58594Y49423D01*
X57913Y50311D01*
X57025Y50992D01*
X55991Y51420D01*
X54882Y51566D01*
D02*
G37*
G36*
X30610Y76240D02*
X29759Y76070D01*
X29038Y75588D01*
X28556Y74867D01*
X28386Y74016D01*
X28556Y73165D01*
X29038Y72443D01*
X29759Y71961D01*
X30586Y71797D01*
X31233Y71230D01*
X44238Y58225D01*
Y46949D01*
X44355Y46363D01*
X44686Y45867D01*
X47337Y43216D01*
X48513Y41939D01*
X49040Y41274D01*
X49494Y40628D01*
X49867Y40013D01*
X50161Y39430D01*
X50379Y38881D01*
X50524Y38368D01*
X50600Y37891D01*
X50614Y37421D01*
X50595Y37279D01*
X50741Y36170D01*
X51170Y35136D01*
X51851Y34248D01*
X52739Y33567D01*
X53772Y33139D01*
X54882Y32993D01*
X55991Y33139D01*
X57025Y33567D01*
X57913Y34248D01*
X58594Y35136D01*
X59022Y36170D01*
X59169Y37279D01*
X59022Y38389D01*
X58594Y39423D01*
X57913Y40311D01*
X57025Y40992D01*
X55991Y41420D01*
X55180Y41527D01*
X55146Y41538D01*
X54758Y41587D01*
X54387Y41690D01*
X53949Y41869D01*
X53450Y42129D01*
X52896Y42471D01*
X52310Y42885D01*
X50195Y44691D01*
X49946Y44933D01*
X47297Y47582D01*
Y58858D01*
X47181Y59443D01*
X46849Y59940D01*
X33307Y73481D01*
X32874Y73946D01*
X32831Y73998D01*
X32834Y74016D01*
X32665Y74867D01*
X32183Y75588D01*
X31461Y76070D01*
X30610Y76240D01*
D02*
G37*
G36*
X-50671Y31809D02*
X-54421D01*
Y28059D01*
X-50671D01*
Y31809D01*
D02*
G37*
G36*
X-55421D02*
X-59171D01*
Y28059D01*
X-55421D01*
Y31809D01*
D02*
G37*
G36*
Y27059D02*
X-59171D01*
Y23309D01*
X-55421D01*
Y27059D01*
D02*
G37*
G36*
X54882Y31566D02*
X53772Y31420D01*
X52739Y30992D01*
X51851Y30311D01*
X51170Y29423D01*
X50741Y28389D01*
X50595Y27279D01*
X50741Y26170D01*
X51170Y25136D01*
X51851Y24248D01*
X52739Y23567D01*
X53772Y23139D01*
X54882Y22993D01*
X55991Y23139D01*
X57025Y23567D01*
X57913Y24248D01*
X58594Y25136D01*
X59022Y26170D01*
X59169Y27279D01*
X59022Y28389D01*
X58594Y29423D01*
X57913Y30311D01*
X57025Y30992D01*
X55991Y31420D01*
X54882Y31566D01*
D02*
G37*
G36*
X59132Y21530D02*
X55382D01*
Y17780D01*
X59132D01*
Y21530D01*
D02*
G37*
G36*
Y16780D02*
X55382D01*
Y13029D01*
X59132D01*
Y16780D01*
D02*
G37*
G36*
X35138Y65118D02*
X34287Y64948D01*
X33565Y64466D01*
X33083Y63745D01*
X32914Y62894D01*
X33083Y62043D01*
X33565Y61321D01*
X33622Y61283D01*
X33635Y61251D01*
X33672Y61129D01*
X33710Y60953D01*
X33743Y60746D01*
X33805Y59846D01*
Y-6611D01*
X33786Y-7136D01*
X33738Y-7673D01*
X33711Y-7852D01*
X33683Y-7981D01*
X33675Y-8007D01*
X33280Y-8598D01*
X33111Y-9449D01*
X33280Y-10300D01*
X33762Y-11021D01*
X34385Y-11437D01*
X34297Y-11937D01*
X29331D01*
X28550Y-12092D01*
X27889Y-12535D01*
X19577Y-20846D01*
X19386Y-20884D01*
X18632Y-21388D01*
X18128Y-22142D01*
X17951Y-23031D01*
X18128Y-23921D01*
X18632Y-24675D01*
X19386Y-25179D01*
X20276Y-25356D01*
X21165Y-25179D01*
X21919Y-24675D01*
X22423Y-23921D01*
X22461Y-23730D01*
X28834Y-17357D01*
X29295Y-17603D01*
X29272Y-17717D01*
X29441Y-18568D01*
X29924Y-19289D01*
X30645Y-19771D01*
X31496Y-19940D01*
X32347Y-19771D01*
X32771Y-19488D01*
X32841Y-19456D01*
X32897Y-19417D01*
X32921Y-19404D01*
X32983Y-19379D01*
X33080Y-19349D01*
X33211Y-19319D01*
X33354Y-19295D01*
X33813Y-19259D01*
X34310Y-19251D01*
Y-19251D01*
X36034Y-19115D01*
X37716Y-18711D01*
X39314Y-18049D01*
X40789Y-17145D01*
X42105Y-16022D01*
X43228Y-14706D01*
X44132Y-13232D01*
X44794Y-11634D01*
X45197Y-9952D01*
X45280Y-8907D01*
X45606Y-8419D01*
X45722Y-7834D01*
Y13698D01*
X45741Y14223D01*
X45789Y14760D01*
X45817Y14939D01*
X45845Y15068D01*
X45853Y15094D01*
X46141Y15525D01*
X46641Y15373D01*
Y-17371D01*
X23463Y-40549D01*
X23076Y-41128D01*
X22940Y-41811D01*
Y-60093D01*
X22940Y-60129D01*
X22895Y-61119D01*
X22716Y-62866D01*
X22589Y-63575D01*
X22436Y-64199D01*
X22263Y-64722D01*
X22076Y-65142D01*
X21886Y-65459D01*
X21739Y-65634D01*
X21693Y-65670D01*
X21012Y-66558D01*
X20584Y-67591D01*
X20438Y-68701D01*
X20584Y-69810D01*
X21012Y-70844D01*
X21693Y-71732D01*
X22581Y-72413D01*
X23615Y-72841D01*
X24724Y-72988D01*
X25834Y-72841D01*
X26868Y-72413D01*
X27755Y-71732D01*
X28437Y-70844D01*
X28865Y-69810D01*
X29011Y-68701D01*
X28865Y-67591D01*
X28437Y-66558D01*
X27755Y-65670D01*
X27710Y-65634D01*
X27563Y-65459D01*
X27372Y-65142D01*
X27186Y-64722D01*
X27013Y-64199D01*
X26860Y-63575D01*
X26735Y-62876D01*
X26509Y-60110D01*
X26509Y-60093D01*
Y-42550D01*
X49687Y-19372D01*
X50074Y-18793D01*
X50209Y-18110D01*
X50209Y-18110D01*
Y-17550D01*
X50709Y-17517D01*
X50722Y-17609D01*
X51150Y-18643D01*
X51831Y-19531D01*
X52719Y-20212D01*
X53753Y-20641D01*
X54862Y-20787D01*
X55972Y-20641D01*
X57006Y-20212D01*
X57893Y-19531D01*
X58575Y-18643D01*
X59003Y-17609D01*
X59149Y-16500D01*
X59003Y-15391D01*
X58575Y-14357D01*
X57893Y-13469D01*
X57006Y-12788D01*
X55972Y-12359D01*
X54862Y-12213D01*
X53753Y-12359D01*
X52719Y-12788D01*
X51831Y-13469D01*
X51150Y-14357D01*
X50722Y-15391D01*
X50709Y-15483D01*
X50209Y-15450D01*
Y-7550D01*
X50709Y-7518D01*
X50722Y-7609D01*
X51150Y-8643D01*
X51831Y-9531D01*
X52719Y-10212D01*
X53753Y-10641D01*
X54862Y-10787D01*
X55972Y-10641D01*
X57006Y-10212D01*
X57893Y-9531D01*
X58575Y-8643D01*
X59003Y-7609D01*
X59149Y-6500D01*
X59003Y-5390D01*
X58575Y-4357D01*
X57893Y-3469D01*
X57006Y-2788D01*
X55972Y-2359D01*
X54862Y-2213D01*
X53753Y-2359D01*
X52719Y-2788D01*
X51831Y-3469D01*
X51150Y-4357D01*
X50722Y-5390D01*
X50709Y-5483D01*
X50209Y-5450D01*
Y2320D01*
X50702Y2390D01*
X51130Y1357D01*
X51811Y469D01*
X52699Y-212D01*
X53733Y-641D01*
X54843Y-787D01*
X55952Y-641D01*
X56986Y-212D01*
X57874Y469D01*
X58555Y1357D01*
X58983Y2390D01*
X59129Y3500D01*
X58983Y4609D01*
X58555Y5643D01*
X57874Y6531D01*
X56986Y7212D01*
X55952Y7641D01*
X54843Y7787D01*
X53733Y7641D01*
X52699Y7212D01*
X51811Y6531D01*
X51130Y5643D01*
X50702Y4609D01*
X50209Y4680D01*
Y12842D01*
X50632Y13029D01*
X50709Y13029D01*
X54382D01*
Y17280D01*
Y21530D01*
X50632D01*
Y18156D01*
X50132Y18107D01*
X50074Y18399D01*
X49687Y18978D01*
X49687Y18978D01*
X41548Y27117D01*
Y57382D01*
X41412Y58065D01*
X41392Y58094D01*
X41427Y58268D01*
X41233Y59243D01*
X40680Y60070D01*
X39853Y60623D01*
X38878Y60817D01*
X38583D01*
X37607Y60623D01*
X37314Y60427D01*
X36876Y60667D01*
X36883Y61050D01*
X36916Y61502D01*
X36933Y61634D01*
X36938Y61663D01*
X37192Y62043D01*
X37362Y62894D01*
X37192Y63745D01*
X36710Y64466D01*
X35989Y64948D01*
X35138Y65118D01*
D02*
G37*
G36*
X-55421Y-1970D02*
X-59171D01*
Y-5720D01*
X-55421D01*
Y-1970D01*
D02*
G37*
G36*
Y-6720D02*
X-59171D01*
Y-10470D01*
X-55421D01*
Y-6720D01*
D02*
G37*
G36*
X23622Y31983D02*
X-23622D01*
X-24110Y31886D01*
X-24523Y31610D01*
X-24800Y31196D01*
X-24896Y30709D01*
Y-9843D01*
X-24896Y-9843D01*
X-24800Y-10330D01*
X-24523Y-10744D01*
X-24110Y-11020D01*
X-23622Y-11117D01*
X23622D01*
X24110Y-11020D01*
X24523Y-10744D01*
X24800Y-10330D01*
X24896Y-9843D01*
Y30709D01*
X24800Y31196D01*
X24523Y31610D01*
X24110Y31886D01*
X23622Y31983D01*
D02*
G37*
G36*
X59112Y-22250D02*
X55362D01*
Y-26000D01*
X59112D01*
Y-22250D01*
D02*
G37*
G36*
X54362D02*
X50612D01*
Y-26000D01*
X54362D01*
Y-22250D01*
D02*
G37*
G36*
X59112Y-27000D02*
X55362D01*
Y-30750D01*
X59112D01*
Y-27000D01*
D02*
G37*
G36*
X54362D02*
X50612D01*
Y-30750D01*
X54362D01*
Y-27000D01*
D02*
G37*
G36*
X-54921Y-25713D02*
X-56031Y-25859D01*
X-57065Y-26288D01*
X-57952Y-26969D01*
X-58634Y-27857D01*
X-59062Y-28890D01*
X-59208Y-30000D01*
X-59062Y-31109D01*
X-58634Y-32143D01*
X-57952Y-33031D01*
X-57065Y-33712D01*
X-56031Y-34141D01*
X-54921Y-34287D01*
X-53812Y-34141D01*
X-52778Y-33712D01*
X-51890Y-33031D01*
X-51209Y-32143D01*
X-50781Y-31109D01*
X-50635Y-30000D01*
X-50781Y-28890D01*
X-51209Y-27857D01*
X-51890Y-26969D01*
X-52778Y-26288D01*
X-53812Y-25859D01*
X-54921Y-25713D01*
D02*
G37*
G36*
X54862Y-32213D02*
X53753Y-32359D01*
X52719Y-32788D01*
X51831Y-33469D01*
X51150Y-34357D01*
X50722Y-35390D01*
X50576Y-36500D01*
X50722Y-37609D01*
X51150Y-38643D01*
X51831Y-39531D01*
X52719Y-40212D01*
X53753Y-40641D01*
X54862Y-40787D01*
X55972Y-40641D01*
X57006Y-40212D01*
X57893Y-39531D01*
X58575Y-38643D01*
X59003Y-37609D01*
X59149Y-36500D01*
X59003Y-35390D01*
X58575Y-34357D01*
X57893Y-33469D01*
X57006Y-32788D01*
X55972Y-32359D01*
X54862Y-32213D01*
D02*
G37*
G36*
X-50671Y-45750D02*
X-54421D01*
Y-49500D01*
X-50671D01*
Y-45750D01*
D02*
G37*
G36*
X-55421D02*
X-59171D01*
Y-49500D01*
X-55421D01*
Y-45750D01*
D02*
G37*
G36*
X54862Y-42213D02*
X53753Y-42359D01*
X52719Y-42788D01*
X51831Y-43469D01*
X51150Y-44357D01*
X50722Y-45390D01*
X50576Y-46500D01*
X50722Y-47609D01*
X51150Y-48643D01*
X51831Y-49531D01*
X52719Y-50212D01*
X53753Y-50641D01*
X54862Y-50787D01*
X55972Y-50641D01*
X57006Y-50212D01*
X57893Y-49531D01*
X58575Y-48643D01*
X59003Y-47609D01*
X59149Y-46500D01*
X59003Y-45390D01*
X58575Y-44357D01*
X57893Y-43469D01*
X57006Y-42788D01*
X55972Y-42359D01*
X54862Y-42213D01*
D02*
G37*
G36*
X-50671Y-50500D02*
X-54421D01*
Y-54250D01*
X-50671D01*
Y-50500D01*
D02*
G37*
G36*
X-55421D02*
X-59171D01*
Y-54250D01*
X-55421D01*
Y-50500D01*
D02*
G37*
G36*
X-15276Y-64414D02*
X-16385Y-64560D01*
X-17419Y-64988D01*
X-18307Y-65670D01*
X-18988Y-66558D01*
X-19416Y-67591D01*
X-19562Y-68701D01*
X-19416Y-69810D01*
X-18988Y-70844D01*
X-18307Y-71732D01*
X-17419Y-72413D01*
X-16385Y-72841D01*
X-15276Y-72988D01*
X-14166Y-72841D01*
X-13132Y-72413D01*
X-12245Y-71732D01*
X-11563Y-70844D01*
X-11135Y-69810D01*
X-10989Y-68701D01*
X-11135Y-67591D01*
X-11563Y-66558D01*
X-12245Y-65670D01*
X-13132Y-64988D01*
X-14166Y-64560D01*
X-15276Y-64414D01*
D02*
G37*
G36*
X-25276Y-64434D02*
X-26385Y-64580D01*
X-27419Y-65008D01*
X-28307Y-65689D01*
X-28988Y-66577D01*
X-29416Y-67611D01*
X-29562Y-68721D01*
X-29416Y-69830D01*
X-28988Y-70864D01*
X-28307Y-71752D01*
X-27419Y-72433D01*
X-26385Y-72861D01*
X-25276Y-73007D01*
X-24166Y-72861D01*
X-23132Y-72433D01*
X-22244Y-71752D01*
X-21563Y-70864D01*
X-21135Y-69830D01*
X-20989Y-68721D01*
X-21135Y-67611D01*
X-21563Y-66577D01*
X-22244Y-65689D01*
X-23132Y-65008D01*
X-24166Y-64580D01*
X-25276Y-64434D01*
D02*
G37*
%LPD*%
G36*
X52548Y78839D02*
X52127Y79230D01*
X51637Y79580D01*
X51076Y79889D01*
X50444Y80157D01*
X49742Y80383D01*
X48970Y80568D01*
X48127Y80712D01*
X47213Y80815D01*
X45175Y80898D01*
X45281Y81898D01*
X46394Y81913D01*
X49239Y82144D01*
X50023Y82283D01*
X50724Y82452D01*
X51344Y82653D01*
X51881Y82884D01*
X52335Y83146D01*
X52707Y83438D01*
X52548Y78839D01*
D02*
G37*
G36*
X36272Y77708D02*
X36185Y77771D01*
X36060Y77829D01*
X35897Y77879D01*
X35695Y77922D01*
X35454Y77959D01*
X34858Y78013D01*
X34107Y78040D01*
X33674Y78043D01*
Y79043D01*
X34107Y79047D01*
X35695Y79164D01*
X35897Y79208D01*
X36060Y79258D01*
X36185Y79315D01*
X36272Y79379D01*
Y77708D01*
D02*
G37*
G36*
X-43897Y66043D02*
X-44003Y66027D01*
X-44132Y65979D01*
X-44283Y65899D01*
X-44457Y65787D01*
X-44653Y65643D01*
X-45113Y65259D01*
X-45663Y64748D01*
X-45971Y64444D01*
X-46678Y65151D01*
X-46374Y65460D01*
X-45335Y66665D01*
X-45223Y66839D01*
X-45143Y66990D01*
X-45095Y67119D01*
X-45079Y67225D01*
X-43897Y66043D01*
D02*
G37*
G36*
X-40539Y57495D02*
X-40472Y56439D01*
X-40432Y56159D01*
X-40383Y55915D01*
X-40325Y55707D01*
X-40258Y55535D01*
X-40182Y55398D01*
X-40097Y55298D01*
X-41769Y55230D01*
X-41726Y55300D01*
X-41688Y55410D01*
X-41654Y55563D01*
X-41625Y55756D01*
X-41579Y56267D01*
X-41546Y57342D01*
X-41543Y57783D01*
X-40543Y57919D01*
X-40539Y57495D01*
D02*
G37*
G36*
X-43790Y57333D02*
X-43673Y55745D01*
X-43629Y55543D01*
X-43579Y55379D01*
X-43522Y55255D01*
X-43458Y55168D01*
X-45129D01*
X-45065Y55255D01*
X-45008Y55379D01*
X-44958Y55543D01*
X-44914Y55745D01*
X-44877Y55985D01*
X-44824Y56582D01*
X-44797Y57333D01*
X-44793Y57766D01*
X-43793D01*
X-43790Y57333D01*
D02*
G37*
G36*
X-36220Y52067D02*
X-36326Y52051D01*
X-36455Y52003D01*
X-36606Y51923D01*
X-36780Y51811D01*
X-36976Y51667D01*
X-37436Y51283D01*
X-37985Y50771D01*
X-38294Y50467D01*
X-39001Y51175D01*
X-38697Y51483D01*
X-37658Y52689D01*
X-37546Y52863D01*
X-37466Y53014D01*
X-37418Y53142D01*
X-37402Y53249D01*
X-36220Y52067D01*
D02*
G37*
G36*
X-36318Y46654D02*
X-36424Y46637D01*
X-36553Y46589D01*
X-36704Y46510D01*
X-36878Y46398D01*
X-37074Y46253D01*
X-37534Y45870D01*
X-38084Y45358D01*
X-38392Y45054D01*
X-39099Y45761D01*
X-38796Y46070D01*
X-37756Y47276D01*
X-37644Y47449D01*
X-37564Y47600D01*
X-37516Y47729D01*
X-37500Y47835D01*
X-36318Y46654D01*
D02*
G37*
G36*
X-34940Y42028D02*
X-35046Y42011D01*
X-35175Y41963D01*
X-35326Y41884D01*
X-35500Y41772D01*
X-35696Y41628D01*
X-36156Y41244D01*
X-36706Y40732D01*
X-37014Y40428D01*
X-37721Y41135D01*
X-37418Y41444D01*
X-36378Y42649D01*
X-36266Y42823D01*
X-36186Y42974D01*
X-36138Y43103D01*
X-36122Y43209D01*
X-34940Y42028D01*
D02*
G37*
G36*
X-47701Y44072D02*
X-48455Y43293D01*
X-49725Y41819D01*
X-50241Y41125D01*
X-50678Y40459D01*
X-51035Y39822D01*
X-51313Y39213D01*
X-51512Y38633D01*
X-51631Y38081D01*
X-51671Y37557D01*
X-54923Y40809D01*
X-54400Y40849D01*
X-53848Y40968D01*
X-53267Y41167D01*
X-52658Y41445D01*
X-52021Y41802D01*
X-51355Y42239D01*
X-50661Y42755D01*
X-49187Y44025D01*
X-48408Y44780D01*
X-47701Y44072D01*
D02*
G37*
G36*
X-34273Y31242D02*
X-34355Y31144D01*
X-34429Y31008D01*
X-34493Y30837D01*
X-34549Y30630D01*
X-34597Y30386D01*
X-34636Y30106D01*
X-34688Y29437D01*
X-34705Y28623D01*
X-35705Y28741D01*
X-35707Y29181D01*
X-35822Y30962D01*
X-35858Y31116D01*
X-35899Y31229D01*
X-35945Y31301D01*
X-34273Y31242D01*
D02*
G37*
G36*
X-46679Y25396D02*
X-46746Y25376D01*
X-46841Y25324D01*
X-46963Y25240D01*
X-47112Y25122D01*
X-47727Y24575D01*
X-48589Y23735D01*
X-49438Y24301D01*
X-49145Y24601D01*
X-48455Y25395D01*
X-48289Y25625D01*
X-48154Y25837D01*
X-48051Y26031D01*
X-47979Y26208D01*
X-47940Y26366D01*
X-47931Y26508D01*
X-46679Y25396D01*
D02*
G37*
G36*
X-46967Y21032D02*
X-46989Y21032D01*
X-47020Y21022D01*
X-47058Y21001D01*
X-47104Y20970D01*
X-47159Y20929D01*
X-47291Y20816D01*
X-47548Y20569D01*
X-48255Y21276D01*
X-48163Y21370D01*
X-47854Y21720D01*
X-47823Y21766D01*
X-47803Y21805D01*
X-47792Y21835D01*
X-47792Y21858D01*
X-46967Y21032D01*
D02*
G37*
G36*
X-37261Y14176D02*
X-37258Y13737D01*
X-37136Y11953D01*
X-37097Y11798D01*
X-37054Y11683D01*
X-37006Y11608D01*
X-38677Y11658D01*
X-38598Y11755D01*
X-38527Y11888D01*
X-38465Y12059D01*
X-38411Y12265D01*
X-38365Y12509D01*
X-38327Y12788D01*
X-38278Y13458D01*
X-38261Y14275D01*
X-37261Y14176D01*
D02*
G37*
G36*
X-34268Y6953D02*
X-34324Y6828D01*
X-34375Y6664D01*
X-34418Y6462D01*
X-34455Y6222D01*
X-34509Y5625D01*
X-34536Y4875D01*
X-34539Y4442D01*
X-35539D01*
X-35543Y4875D01*
X-35660Y6462D01*
X-35704Y6664D01*
X-35754Y6828D01*
X-35811Y6953D01*
X-35875Y7039D01*
X-34204D01*
X-34268Y6953D01*
D02*
G37*
G36*
X-37023Y3213D02*
X-37080Y3088D01*
X-37131Y2924D01*
X-37174Y2722D01*
X-37211Y2482D01*
X-37265Y1885D01*
X-37292Y1135D01*
X-37295Y702D01*
X-38295D01*
X-38299Y1135D01*
X-38416Y2722D01*
X-38460Y2924D01*
X-38510Y3088D01*
X-38567Y3213D01*
X-38631Y3299D01*
X-36960D01*
X-37023Y3213D01*
D02*
G37*
G36*
X-37292Y-8910D02*
X-37174Y-10498D01*
X-37131Y-10700D01*
X-37080Y-10863D01*
X-37023Y-10988D01*
X-36960Y-11075D01*
X-38631D01*
X-38567Y-10988D01*
X-38510Y-10863D01*
X-38460Y-10700D01*
X-38416Y-10498D01*
X-38379Y-10257D01*
X-38326Y-9661D01*
X-38299Y-8910D01*
X-38295Y-8477D01*
X-37295D01*
X-37292Y-8910D01*
D02*
G37*
G36*
X-49548Y-15334D02*
X-49888Y-15703D01*
X-50200Y-16102D01*
X-50485Y-16531D01*
X-50741Y-16989D01*
X-50969Y-17478D01*
X-51170Y-17997D01*
X-51342Y-18545D01*
X-51487Y-19123D01*
X-51604Y-19732D01*
X-51692Y-20370D01*
X-55291Y-16771D01*
X-54653Y-16682D01*
X-53466Y-16421D01*
X-52918Y-16249D01*
X-52399Y-16048D01*
X-51911Y-15820D01*
X-51452Y-15563D01*
X-51023Y-15279D01*
X-50624Y-14967D01*
X-50255Y-14627D01*
X-49548Y-15334D01*
D02*
G37*
G36*
X-40043Y-27774D02*
X-39528Y-28227D01*
X-39375Y-28344D01*
X-39094Y-28524D01*
X-38968Y-28589D01*
X-38851Y-28635D01*
X-38743Y-28665D01*
X-40156Y-29875D01*
X-40171Y-29710D01*
X-40200Y-29546D01*
X-40242Y-29383D01*
X-40300Y-29223D01*
X-40371Y-29064D01*
X-40456Y-28907D01*
X-40556Y-28751D01*
X-40670Y-28598D01*
X-40798Y-28446D01*
X-40940Y-28295D01*
X-40233Y-27588D01*
X-40043Y-27774D01*
D02*
G37*
G36*
X-51847Y-38902D02*
X-51760Y-39028D01*
X-51655Y-39138D01*
X-51533Y-39234D01*
X-51393Y-39315D01*
X-51236Y-39382D01*
X-51062Y-39434D01*
X-50870Y-39470D01*
X-50660Y-39493D01*
X-50433Y-39500D01*
Y-40500D01*
X-50660Y-40507D01*
X-50870Y-40530D01*
X-51062Y-40566D01*
X-51236Y-40618D01*
X-51393Y-40685D01*
X-51533Y-40766D01*
X-51655Y-40862D01*
X-51760Y-40972D01*
X-51847Y-41098D01*
X-51916Y-41238D01*
Y-38762D01*
X-51847Y-38902D01*
D02*
G37*
G36*
X5227Y-64655D02*
X5264Y-65110D01*
X5287Y-65222D01*
X5314Y-65313D01*
X5347Y-65384D01*
X5384Y-65434D01*
X5427Y-65465D01*
X5474Y-65475D01*
X3974D01*
X4022Y-65465D01*
X4064Y-65434D01*
X4102Y-65384D01*
X4134Y-65313D01*
X4162Y-65222D01*
X4184Y-65110D01*
X4202Y-64979D01*
X4222Y-64655D01*
X4224Y-64463D01*
X5224D01*
X5227Y-64655D01*
D02*
G37*
G36*
X-4758Y-60074D02*
X-4614Y-62014D01*
X-4488Y-62870D01*
X-4326Y-63650D01*
X-4128Y-64353D01*
X-3894Y-64980D01*
X-3624Y-65531D01*
X-3318Y-66006D01*
X-2976Y-66404D01*
X-7575D01*
X-7233Y-66006D01*
X-6927Y-65531D01*
X-6657Y-64980D01*
X-6423Y-64353D01*
X-6225Y-63650D01*
X-6064Y-62870D01*
X-5938Y-62014D01*
X-5794Y-60074D01*
X-5776Y-58990D01*
X-4776D01*
X-4758Y-60074D01*
D02*
G37*
G36*
X15243Y-60628D02*
X15394Y-62311D01*
X15526Y-63071D01*
X15696Y-63777D01*
X15903Y-64429D01*
X16149Y-65026D01*
X16432Y-65570D01*
X16752Y-66059D01*
X17111Y-66494D01*
X12338D01*
X12697Y-66059D01*
X13017Y-65570D01*
X13300Y-65026D01*
X13545Y-64429D01*
X13753Y-63777D01*
X13923Y-63071D01*
X14055Y-62311D01*
X14149Y-61496D01*
X14224Y-59705D01*
X15224D01*
X15243Y-60628D01*
D02*
G37*
G36*
X31624Y73947D02*
X31666Y73855D01*
X31734Y73742D01*
X31831Y73608D01*
X32107Y73273D01*
X32728Y72608D01*
X32990Y72343D01*
X32283Y71636D01*
X32018Y71898D01*
X30884Y72891D01*
X30770Y72961D01*
X30679Y73002D01*
X30610Y73016D01*
X31610Y74016D01*
X31624Y73947D01*
D02*
G37*
G36*
X49508Y43937D02*
X51683Y42079D01*
X52333Y41620D01*
X52946Y41241D01*
X53520Y40943D01*
X54057Y40724D01*
X54556Y40585D01*
X55018Y40527D01*
X51634Y37406D01*
X51617Y37987D01*
X51521Y38588D01*
X51346Y39208D01*
X51092Y39848D01*
X50760Y40508D01*
X50348Y41186D01*
X49858Y41885D01*
X49288Y42603D01*
X47913Y44097D01*
X48707Y44717D01*
X49508Y43937D01*
D02*
G37*
G36*
X35985Y62046D02*
X35953Y61940D01*
X35925Y61793D01*
X35901Y61604D01*
X35864Y61098D01*
X35835Y59578D01*
X34835Y59390D01*
X34830Y59810D01*
X34757Y60860D01*
X34713Y61140D01*
X34660Y61385D01*
X34596Y61595D01*
X34523Y61770D01*
X34441Y61910D01*
X34348Y62015D01*
X36020Y62108D01*
X35985Y62046D01*
D02*
G37*
G36*
X40514Y54343D02*
X39014Y53831D01*
X39002Y54300D01*
X38966Y54735D01*
X38906Y55136D01*
X38822Y55503D01*
X38714Y55835D01*
X38582Y56132D01*
X38426Y56396D01*
X38246Y56625D01*
X38042Y56819D01*
X37814Y56979D01*
X39934Y57617D01*
X40514Y54343D01*
D02*
G37*
G36*
X44965Y15614D02*
X44908Y15489D01*
X44857Y15326D01*
X44814Y15124D01*
X44777Y14883D01*
X44723Y14287D01*
X44696Y13536D01*
X44693Y13103D01*
X43693D01*
X43690Y13536D01*
X43572Y15124D01*
X43528Y15326D01*
X43478Y15489D01*
X43421Y15614D01*
X43357Y15701D01*
X45029D01*
X44965Y15614D01*
D02*
G37*
G36*
X35838Y-6450D02*
X35956Y-8037D01*
X35999Y-8239D01*
X36050Y-8403D01*
X36107Y-8528D01*
X36170Y-8614D01*
X34499D01*
X34563Y-8528D01*
X34620Y-8403D01*
X34670Y-8239D01*
X34714Y-8037D01*
X34751Y-7797D01*
X34804Y-7200D01*
X34831Y-6450D01*
X34835Y-6017D01*
X35835D01*
X35838Y-6450D01*
D02*
G37*
G36*
X32360Y-16885D02*
X32490Y-16955D01*
X32643Y-17016D01*
X32816Y-17069D01*
X33011Y-17114D01*
X33228Y-17151D01*
X33726Y-17200D01*
X34007Y-17212D01*
X34310Y-17217D01*
Y-18216D01*
X34007Y-18221D01*
X33228Y-18282D01*
X33011Y-18319D01*
X32816Y-18364D01*
X32643Y-18417D01*
X32490Y-18478D01*
X32360Y-18548D01*
X32250Y-18625D01*
Y-16808D01*
X32360Y-16885D01*
D02*
G37*
G36*
X25490Y-60159D02*
X25722Y-63008D01*
X25862Y-63787D01*
X26032Y-64481D01*
X26234Y-65090D01*
X26466Y-65613D01*
X26730Y-66051D01*
X27024Y-66404D01*
X22425D01*
X22719Y-66051D01*
X22983Y-65613D01*
X23215Y-65090D01*
X23417Y-64481D01*
X23587Y-63787D01*
X23727Y-63008D01*
X23912Y-61194D01*
X23959Y-60159D01*
X23974Y-59039D01*
X25474D01*
X25490Y-60159D01*
D02*
G37*
D12*
X34310Y-17717D02*
G03*
X43799Y-8227I0J9489D01*
G01*
X-40587Y-27942D02*
Y18324D01*
Y-27942D02*
X-38976Y-29552D01*
X-40587Y18324D02*
X-39972Y18938D01*
Y38177D01*
X-34941Y43209D01*
X-38976Y-29823D02*
Y-29552D01*
X-43972Y20595D02*
Y45496D01*
X-44587Y19980D02*
X-43972Y20595D01*
Y45496D02*
X-36220Y53248D01*
X-41972Y19766D02*
Y42181D01*
X-42587Y19152D02*
X-41972Y19766D01*
Y42181D02*
X-36319Y47835D01*
X-37761Y10904D02*
Y35489D01*
X-37866Y10799D02*
X-37761Y10904D01*
Y35489D02*
X-36971Y36279D01*
X-35205Y31980D02*
X-35080Y32105D01*
X-36971Y36279D02*
Y36647D01*
X-44293Y54333D02*
Y59053D01*
X-41142Y62205D01*
Y72441D01*
X-41043Y54575D02*
X-40899Y54431D01*
X-41043Y59103D02*
X-39142Y61005D01*
X-41043Y54575D02*
Y59103D01*
X-31988Y78543D02*
X37106D01*
X-39142Y71390D02*
X-31988Y78543D01*
X44193Y-7834D02*
Y16535D01*
X43799Y-8227D02*
X44193Y-7834D01*
X-37795Y-11909D02*
Y4134D01*
X-47902Y20923D02*
X-46654Y22171D01*
X-47902Y-37468D02*
Y20923D01*
X-49902Y23130D02*
X-46752Y26280D01*
Y26575D01*
X-49902Y-14980D02*
Y23130D01*
X-50433Y-40000D02*
X-47902Y-37468D01*
X-44587Y-34843D02*
Y19980D01*
X-42587Y-32413D02*
Y19152D01*
Y-32413D02*
X-29528Y-45472D01*
X-44587Y-34843D02*
X-31398Y-48031D01*
X35138Y62894D02*
X35335Y62697D01*
Y-9449D02*
Y62697D01*
X14724Y-68701D02*
Y-59705D01*
X-3346Y-41634D02*
X14724Y-59705D01*
X-21161Y-41634D02*
X-3346D01*
X-7677Y-45472D02*
X4724Y-57874D01*
Y-68701D02*
Y-57874D01*
X-29528Y-45472D02*
X-7677D01*
X-13780Y-48031D02*
X-5276Y-56535D01*
Y-68701D02*
Y-56535D01*
X-31398Y-48031D02*
X-13780D01*
X31496Y-17717D02*
X34310D01*
X-39142Y61005D02*
Y71390D01*
X54583Y81398D02*
X54921Y81059D01*
X-32185Y81398D02*
X54583D01*
X-41142Y72441D02*
X-32185Y81398D01*
X-47736Y44744D02*
Y63386D01*
X-43898Y67224D01*
X-35205Y14019D02*
Y31980D01*
Y14019D02*
X-34252Y13066D01*
Y12795D02*
Y13066D01*
X-54921Y-20000D02*
X-49902Y-14980D01*
X-35039Y-27756D02*
X-21161Y-41634D01*
X-35039Y-27756D02*
Y7874D01*
X-54921Y37559D02*
X-47736Y44744D01*
X45768Y46949D02*
Y58858D01*
X54882Y37279D02*
Y37835D01*
X45768Y46949D02*
X54882Y37835D01*
X30610Y74016D02*
X45768Y58858D01*
X-54921Y-40000D02*
X-50433D01*
D19*
X-36016Y98373D02*
G03*
X-36279Y98889I-12319J-5952D01*
G01*
D02*
G03*
X-37099Y100227I-12056J-6467D01*
G01*
D02*
G03*
X-37439Y100695I-11236J-7806D01*
G01*
X-35237Y96373D02*
G03*
X-35415Y96923I-13098J-3952D01*
G01*
X-34870Y94847D02*
G03*
X-35237Y96373I-13464J-2426D01*
G01*
X-35522Y97216D02*
G03*
X-35720Y97716I-12813J-4795D01*
G01*
X-35720Y97717D02*
G03*
X-35942Y98216I-12615J-5295D01*
G01*
X-37439Y100695D02*
G03*
X-38343Y101767I-10896J-8274D01*
G01*
X-38458Y101889D02*
G03*
X-38867Y102298I-9876J-9467D01*
G01*
X-34780Y94275D02*
G03*
X-34870Y94847I-13555J-1854D01*
G01*
X-34661Y91971D02*
G03*
X-34654Y92421I-13674J450D01*
G01*
D02*
G03*
X-34661Y92871I-13681J0D01*
G01*
X-34780Y90567D02*
G03*
X-34661Y91971I-13555J1854D01*
G01*
Y92871D02*
G03*
X-34780Y94275I-13674J-450D01*
G01*
X-40061Y103317D02*
G03*
X-40529Y103657I-8274J-10896D01*
G01*
D02*
G03*
X-41867Y104477I-7806J-11236D01*
G01*
X-38946Y102373D02*
G03*
X-40061Y103317I-9388J-9951D01*
G01*
X-34870Y89996D02*
G03*
X-34780Y90567I-13464J2425D01*
G01*
X-35237Y88470D02*
G03*
X-34870Y89996I-13098J3952D01*
G01*
X-35416Y87919D02*
G03*
X-35237Y88470I-12919J4502D01*
G01*
X-35682Y87217D02*
G03*
X-35500Y87684I-12652J5205D01*
G01*
X-35900Y86717D02*
G03*
X-35682Y87216I-12435J5705D01*
G01*
X-36279Y85954D02*
G03*
X-36016Y86469I-12056J6467D01*
G01*
X-37099Y84615D02*
G03*
X-36279Y85954I-11236J7806D01*
G01*
X-37439Y84148D02*
G03*
X-37099Y84615I-10896J8274D01*
G01*
X-38458Y82954D02*
G03*
X-37439Y84148I-9876J9467D01*
G01*
X-38867Y82545D02*
G03*
X-38458Y82954I-9467J9876D01*
G01*
X-40061Y81526D02*
G03*
X-38946Y82470I-8274J10896D01*
G01*
X-40529Y81186D02*
G03*
X-40061Y81526I-7806J11236D01*
G01*
X-41867Y80365D02*
G03*
X-40529Y81186I-6468J12056D01*
G01*
X-42383Y80103D02*
G03*
X-41867Y80365I-5952J12319D01*
G01*
X-43000Y79823D02*
G03*
X-42500Y80047I-5335J12598D01*
G01*
X-43833Y79502D02*
G03*
X-43500Y79623I-4502J12919D01*
G01*
X-44383Y79323D02*
G03*
X-43833Y79502I-3952J13098D01*
G01*
X-45909Y78957D02*
G03*
X-44383Y79323I-2425J13464D01*
G01*
X-46481Y78866D02*
G03*
X-45909Y78957I-1854J13555D01*
G01*
X-47885Y78748D02*
G03*
X-46481Y78866I-450J13674D01*
G01*
X-41867Y104477D02*
G03*
X-48212Y106102I-6468J-12056D01*
G01*
D02*
G03*
X-61850Y91536I960J-14566D01*
G01*
X-40886Y92421D02*
G03*
X-48335Y99870I-7449J0D01*
G01*
D02*
G03*
X-55784Y92421I0J-7449D01*
G01*
X-48335Y84972D02*
G03*
X-40886Y92421I0J7449D01*
G01*
X-55784D02*
G03*
X-48335Y84972I7449J0D01*
G01*
X-52286Y79323D02*
G03*
X-50760Y78957I3952J13098D01*
G01*
X-52836Y79502D02*
G03*
X-52286Y79323I4502J12919D01*
G01*
X-48785Y78748D02*
G03*
X-48335Y78740I450J13674D01*
G01*
X-50189Y78866D02*
G03*
X-48785Y78748I1854J13555D01*
G01*
X-48335Y78740D02*
G03*
X-47885Y78748I0J13681D01*
G01*
X-50760Y78957D02*
G03*
X-50189Y78866I2425J13464D01*
G01*
X-61850Y90298D02*
G03*
X-60391Y85954I13515J2123D01*
G01*
X-54287Y80103D02*
G03*
X-54000Y79968I5952J12319D01*
G01*
X-56141Y81186D02*
G03*
X-54802Y80365I7806J11236D01*
G01*
D02*
G03*
X-54287Y80103I6467J12056D01*
G01*
X-54000Y79968D02*
G03*
X-53500Y79753I5665J12453D01*
G01*
X-53410Y79716D02*
G03*
X-53000Y79560I5075J12705D01*
G01*
X-58211Y82954D02*
G03*
X-57802Y82545I9876J9467D01*
G01*
X-56608Y81525D02*
G03*
X-56141Y81186I8274J10896D01*
G01*
X-57802Y82545D02*
G03*
X-56608Y81525I9467J9876D01*
G01*
X61850Y-67416D02*
G03*
X59825Y-62075I-13523J-2072D01*
G01*
X58200Y-60018D02*
G03*
X48327Y-55807I-9874J-9470D01*
G01*
X55776Y-69488D02*
G03*
X48327Y-62039I-7449J0D01*
G01*
X47252Y-82905D02*
G03*
X61850Y-68312I0J14598D01*
G01*
X48327Y-76937D02*
G03*
X55776Y-69488I0J7449D01*
G01*
X48327Y-55807D02*
G03*
X34646Y-69488I0J-13681D01*
G01*
X48327Y-62039D02*
G03*
X40878Y-69488I0J-7449D01*
G01*
X34646D02*
G03*
X45651Y-82905I13681J0D01*
G01*
X40878Y-69488D02*
G03*
X48327Y-76937I7449J0D01*
G01*
X-35933Y98172D02*
X-35784Y97812D01*
X-37099Y100227D02*
X-36777Y99701D01*
X-36673Y99533D02*
X-36474Y99208D01*
X-35237Y96373D02*
X-35125Y95910D01*
X-35697Y97604D02*
X-35562Y97278D01*
X-44456Y99717D02*
X-36786D01*
X-43956Y99217D02*
X-36480D01*
X-38321Y101728D02*
X-38119Y101492D01*
X-37831Y101154D02*
X-37568Y100846D01*
X-41956Y97216D02*
X-35521D01*
X-42456Y97716D02*
X-35720D01*
X-41456Y96716D02*
X-35345D01*
X-43456Y98716D02*
X-36188D01*
X-42956Y98216D02*
X-35942D01*
X-34780Y94275D02*
X-34740Y93767D01*
X-40886Y94217D02*
X-34775D01*
X-34724Y93563D02*
X-34700Y93259D01*
X-34989Y95341D02*
X-34870Y94847D01*
X-40886Y95717D02*
X-35078D01*
X-34716Y91374D02*
X-34691Y91692D01*
X-34760Y90824D02*
X-34734Y91156D01*
X-40886Y93217D02*
X-34688D01*
X-40886Y93717D02*
X-34725D01*
X-40886Y92716D02*
X-34657D01*
X-40886Y95217D02*
X-34959D01*
X-40956Y96216D02*
X-35199D01*
X-40886Y94717D02*
X-34848D01*
X-40886Y91716D02*
X-34684D01*
X-40886Y92216D02*
X-34655D01*
X-40886Y91216D02*
X-34716D01*
X-40886Y90716D02*
X-34768D01*
X-40886Y90216D02*
X-34832D01*
X-39853Y103139D02*
X-39565Y102894D01*
X-39220Y102599D02*
X-38972Y102387D01*
X-41445Y104218D02*
X-41182Y104057D01*
X-41030Y103964D02*
X-40529Y103657D01*
X-41000Y96260D02*
Y103946D01*
X-41500Y96760D02*
Y104254D01*
X-42500Y97760D02*
Y104796D01*
X-43000Y98260D02*
Y105019D01*
X-42000Y97260D02*
Y104548D01*
X-45500Y99870D02*
Y105806D01*
X-46000Y99870D02*
Y105902D01*
X-45000Y99870D02*
Y105690D01*
X-47000Y99870D02*
Y106037D01*
X-47500Y99870D02*
Y106077D01*
X-46500Y99870D02*
Y105979D01*
X-44000Y99260D02*
Y105398D01*
X-44500Y99760D02*
Y105554D01*
X-43500Y98760D02*
Y105220D01*
X-46000Y99495D02*
Y99870D01*
X-45500Y99310D02*
Y99870D01*
X-41925Y96216D02*
X-40956D01*
X-42249Y96716D02*
X-41456D01*
X-41654Y95717D02*
X-40886D01*
X-42000Y96340D02*
Y97260D01*
X-42500Y97052D02*
Y97760D01*
X-42634Y97216D02*
X-41956D01*
X-41248Y94717D02*
X-40886D01*
X-41430Y95217D02*
X-40886D01*
X-41219Y90216D02*
X-40886D01*
X-41000Y93721D02*
Y96260D01*
X-41500Y95384D02*
Y96760D01*
X-40886Y92421D02*
Y96146D01*
X-44000Y98479D02*
Y99260D01*
X-45283Y99217D02*
X-43956D01*
X-44352Y98716D02*
X-43456D01*
X-44500Y98808D02*
Y99760D01*
X-45000Y99082D02*
Y99870D01*
X-46829Y99717D02*
X-44456D01*
X-43655Y98216D02*
X-42956D01*
X-44610Y99870D02*
X-40886Y96146D01*
X-43095Y97716D02*
X-42456D01*
X-43500Y98088D02*
Y98760D01*
X-43000Y97620D02*
Y98260D01*
X-35020Y89372D02*
X-34870Y89996D01*
X-35000Y89456D02*
Y95391D01*
X-35500Y87684D02*
Y97159D01*
X-35237Y88470D02*
X-35104Y89022D01*
X-36500Y85593D02*
Y99250D01*
X-37000Y84777D02*
Y100066D01*
X-36000Y86503D02*
Y98340D01*
X-38000Y83475D02*
Y101367D01*
X-38500Y82911D02*
Y101932D01*
X-37500Y84076D02*
Y100767D01*
X-40886Y89217D02*
X-35052D01*
X-40886Y89717D02*
X-34937D01*
X-40886Y88717D02*
X-35177D01*
X-41394Y89717D02*
X-40886D01*
X-41610Y89217D02*
X-40886D01*
X-41872Y88717D02*
X-40886D01*
X-39500Y81987D02*
Y102855D01*
X-40000Y81578D02*
Y103265D01*
X-39000Y82432D02*
Y102411D01*
X-40500Y81206D02*
Y103637D01*
X-40886Y88697D02*
Y92421D01*
X-35660Y87330D02*
X-35534Y87632D01*
X-35887Y86782D02*
X-35746Y87121D01*
X-37099Y84615D02*
X-36733Y85212D01*
X-37763Y83768D02*
X-37568Y83996D01*
X-41366Y88217D02*
X-35316D01*
X-41866Y87717D02*
X-35488D01*
X-42366Y87217D02*
X-35682D01*
X-42866Y86717D02*
X-35900D01*
X-43366Y86216D02*
X-36141D01*
X-43866Y85716D02*
X-36421D01*
X-44366Y85216D02*
X-36729D01*
X-41030Y80879D02*
X-40529Y81186D01*
X-41000Y88582D02*
Y91121D01*
X-41500Y88082D02*
Y89459D01*
X-42186Y88217D02*
X-41366D01*
X-42000Y87582D02*
Y88502D01*
X-42500Y87082D02*
Y87791D01*
X-42559Y87717D02*
X-41866D01*
X-41000Y80897D02*
Y88582D01*
X-41500Y80590D02*
Y88082D01*
X-42000Y80295D02*
Y87582D01*
X-42500Y80047D02*
Y87082D01*
X-43000Y86582D02*
Y87222D01*
Y79823D02*
Y86582D01*
X-43006Y87217D02*
X-42366D01*
X-43545Y86717D02*
X-42866D01*
X-44213Y86216D02*
X-43366D01*
X-43500Y86083D02*
Y86754D01*
X-44000Y85583D02*
Y86363D01*
X-45089Y85716D02*
X-43866D01*
X-43500Y79623D02*
Y86083D01*
X-44610Y84972D02*
X-40886Y88697D01*
X-44000Y79445D02*
Y85583D01*
X-44500Y85083D02*
Y86035D01*
X-45000Y84972D02*
Y85760D01*
X-42906Y79886D02*
X-42534Y80040D01*
X-45500Y84972D02*
Y85533D01*
X-44500Y79295D02*
Y85083D01*
X-45000Y79174D02*
Y84972D01*
X-45318Y79099D02*
X-45008Y79173D01*
X-45500Y79055D02*
Y84972D01*
X-45909Y78957D02*
X-45404Y79078D01*
X-46000Y84972D02*
Y85348D01*
X-46443Y85216D02*
X-44366D01*
X-46000Y78941D02*
Y84972D01*
X-46500Y78865D02*
Y84972D01*
X-46955Y78829D02*
X-46481Y78866D01*
X-47000Y78816D02*
Y84972D01*
X-47452Y78790D02*
X-47151Y78814D01*
X-48000Y78744D02*
Y84972D01*
X-47500Y78776D02*
Y84972D01*
X-50716Y105717D02*
X-45108D01*
X-52344Y105217D02*
X-43492D01*
X-48000Y99870D02*
Y106098D01*
X-49000Y99870D02*
Y106028D01*
X-49500Y99870D02*
Y105959D01*
X-48500Y99870D02*
Y106080D01*
X-50000Y99870D02*
Y105872D01*
X-50500Y99870D02*
Y105768D01*
X-51000Y99870D02*
Y105644D01*
X-51500Y99870D02*
Y105502D01*
X-52000Y99870D02*
Y105340D01*
X-56007Y103217D02*
X-39943D01*
X-56638Y102717D02*
X-39344D01*
X-57203Y102216D02*
X-38783D01*
X-53526Y104717D02*
X-42335D01*
X-54483Y104217D02*
X-41442D01*
X-55297Y103717D02*
X-40626D01*
X-52500Y99430D02*
Y105157D01*
X-57714Y101716D02*
X-38311D01*
X-53000Y98930D02*
Y104954D01*
X-53500Y98430D02*
Y104729D01*
X-48335Y99870D02*
X-44610D01*
X-52059D02*
X-48335D01*
X-52213Y99717D02*
X-49841D01*
X-50500Y99549D02*
Y99870D01*
X-51000Y99377D02*
Y99870D01*
X-52713Y99217D02*
X-51386D01*
X-51500Y99164D02*
Y99870D01*
X-52000Y98906D02*
Y99870D01*
X-52500Y98597D02*
Y99430D01*
X-53000Y98228D02*
Y98930D01*
X-53213Y98716D02*
X-52317D01*
X-58178Y101216D02*
X-37867D01*
X-58601Y100716D02*
X-37457D01*
X-58988Y100216D02*
X-37092D01*
X-59342Y99717D02*
X-52213D01*
X-59666Y99217D02*
X-52713D01*
X-59962Y98716D02*
X-53213D01*
X-55784Y96146D02*
X-52059Y99870D01*
X-53713Y98216D02*
X-53015D01*
X-53500Y97789D02*
Y98430D01*
X-54213Y97716D02*
X-53574D01*
X-54000Y97258D02*
Y97930D01*
Y104480D01*
X-54713Y97216D02*
X-54035D01*
X-54500Y97430D02*
Y104207D01*
X-55000Y96930D02*
Y103908D01*
X-55213Y96716D02*
X-54421D01*
X-54500Y96602D02*
Y97430D01*
X-55000Y95747D02*
Y96930D01*
X-55713Y96216D02*
X-54744D01*
X-55500Y94457D02*
Y96430D01*
Y103580D01*
X-55784Y95717D02*
X-55015D01*
X-60231Y98216D02*
X-53713D01*
X-60477Y97716D02*
X-54213D01*
X-60699Y97216D02*
X-54713D01*
X-60900Y96716D02*
X-55213D01*
X-61079Y96216D02*
X-55713D01*
X-61238Y95717D02*
X-55784D01*
Y95217D02*
X-55239D01*
X-55784Y92421D02*
Y96146D01*
Y94717D02*
X-55421D01*
X-61378Y95217D02*
X-55784D01*
X-61499Y94717D02*
X-55784D01*
Y89217D02*
X-55059D01*
X-55784Y89717D02*
X-55275D01*
X-55784Y88717D02*
X-54797D01*
X-55784Y90216D02*
X-55450D01*
X-61602Y94217D02*
X-55784D01*
X-61505Y88717D02*
X-55784D01*
X-55000Y87913D02*
Y89095D01*
X-55303Y88217D02*
X-54483D01*
X-61354D02*
X-55303D01*
X-55784Y88697D02*
Y92421D01*
X-61500Y88700D02*
Y94713D01*
X-55500Y88413D02*
Y90385D01*
X-61834Y92216D02*
X-55784D01*
X-61849Y91716D02*
X-55784D01*
X-61850Y91216D02*
X-55784D01*
X-61686Y93717D02*
X-55784D01*
X-61753Y93217D02*
X-55784D01*
X-61802Y92716D02*
X-55784D01*
X-61837Y90216D02*
X-55784D01*
X-61850Y90716D02*
X-55784D01*
X-61635Y89217D02*
X-55784D01*
X-61850Y90298D02*
Y91536D01*
X-61746Y89717D02*
X-55784D01*
X-50500Y84972D02*
Y85294D01*
X-48335Y84972D02*
X-44610D01*
X-51000D02*
Y85466D01*
X-51500Y84972D02*
Y85678D01*
X-52000Y79255D02*
Y84972D01*
X-49000Y78770D02*
Y84972D01*
X-49500Y78799D02*
Y84972D01*
X-48500Y78741D02*
Y84972D01*
X-51000Y79014D02*
Y84972D01*
X-51500Y79130D02*
Y84972D01*
X-50000Y78852D02*
Y84972D01*
X-52303Y85216D02*
X-50226D01*
X-52803Y85716D02*
X-51580D01*
X-59940Y85216D02*
X-52303D01*
X-52500Y85413D02*
Y86246D01*
X-53303Y86216D02*
X-52456D01*
X-60245Y85716D02*
X-52803D01*
X-52000Y84972D02*
Y85936D01*
X-52059Y84972D02*
X-48335D01*
X-55784Y88697D02*
X-52059Y84972D01*
X-52500Y79390D02*
Y85413D01*
X-50500Y78913D02*
Y84972D01*
X-51841Y79216D02*
X-44818D01*
X-51474Y79128D02*
X-50760Y78957D01*
X-52030Y79262D02*
X-51694Y79181D01*
X-49886Y78843D02*
X-49563Y78817D01*
X-49341Y78800D02*
X-49015Y78774D01*
X-58968Y84216D02*
X-37387D01*
X-59521Y84716D02*
X-37037D01*
X-58558Y83716D02*
X-37792D01*
X-57978Y82717D02*
X-38692D01*
X-58387Y83217D02*
X-38228D01*
X-57424Y82217D02*
X-39245D01*
X-56185Y81217D02*
X-40485D01*
X-56832Y81717D02*
X-39837D01*
X-55384Y80717D02*
X-41292D01*
X-54517Y80216D02*
X-42153D01*
X-53410Y79716D02*
X-43259D01*
X-54000Y86913D02*
Y87585D01*
X-54303Y87217D02*
X-53664D01*
X-53500Y86413D02*
Y87054D01*
X-54500Y87413D02*
Y88241D01*
X-57000Y81847D02*
Y102402D01*
X-54803Y87717D02*
X-54110D01*
X-54500Y80208D02*
Y87413D01*
X-55000Y80487D02*
Y87913D01*
X-54000Y79968D02*
Y86913D01*
X-56000Y81099D02*
Y103222D01*
X-56500Y81444D02*
Y102831D01*
X-55500Y80791D02*
Y88413D01*
X-60000Y85309D02*
Y98648D01*
X-61181Y87717D02*
X-54803D01*
X-60987Y87217D02*
X-54303D01*
X-60500Y86162D02*
Y97667D01*
X-61000Y87248D02*
Y96444D01*
X-57500Y82274D02*
Y101932D01*
X-58000Y82739D02*
Y101414D01*
X-58500Y83629D02*
Y100841D01*
X-59000Y84249D02*
Y100201D01*
X-59500Y84707D02*
Y99478D01*
X-53000Y85913D02*
Y86614D01*
X-53803Y86717D02*
X-53124D01*
X-55231Y80629D02*
X-54802Y80365D01*
X-53000Y79560D02*
Y85913D01*
X-53500Y79753D02*
Y86413D01*
X-53927Y79954D02*
X-53595Y79816D01*
X-60528Y86216D02*
X-53303D01*
X-60770Y86717D02*
X-53803D01*
X-59936Y85212D02*
X-59709Y84842D01*
X-60391Y85954D02*
X-60088Y85460D01*
X-59305Y84553D02*
X-58741Y83989D01*
X-56141Y81186D02*
X-55507Y80797D01*
X-57404Y82205D02*
X-57100Y81946D01*
X-56846Y81728D02*
X-56608Y81525D01*
X59366Y-62075D02*
X59825D01*
X54796Y-64784D02*
X61173D01*
X55296Y-65284D02*
X61346D01*
X58200Y-60910D02*
Y-60018D01*
Y-60910D02*
X59366Y-62075D01*
X55776Y-69488D02*
Y-65764D01*
X55500Y-65488D02*
Y-57838D01*
Y-67480D02*
Y-65488D01*
X53296Y-63283D02*
X60520D01*
X52796Y-62783D02*
X60252D01*
X53796Y-63784D02*
X60762D01*
X52296Y-62283D02*
X59957D01*
X52051Y-62039D02*
X55776Y-65764D01*
X54296Y-64284D02*
X60979D01*
X54476Y-65284D02*
X55296D01*
X55776Y-67283D02*
X61829D01*
X55776Y-66783D02*
X61738D01*
X55776Y-67783D02*
X61850D01*
X55776Y-65784D02*
X61497D01*
X55776Y-66284D02*
X61627D01*
X61850Y-68307D02*
Y-67416D01*
X55776Y-69784D02*
X61775D01*
X61500Y-71485D02*
Y-65795D01*
X55776Y-70284D02*
X61716D01*
X55442Y-67283D02*
X55776D01*
X55267Y-66783D02*
X55776D01*
Y-68283D02*
X61850D01*
X54789Y-65784D02*
X55776D01*
X55051Y-66284D02*
X55776D01*
Y-68783D02*
X61842D01*
X55776Y-69283D02*
X61817D01*
X55776Y-70784D02*
X61638D01*
X55776Y-71284D02*
X61543D01*
X52500Y-62488D02*
Y-56459D01*
X52000Y-62039D02*
Y-56309D01*
X53000Y-62988D02*
Y-56630D01*
X51000Y-62039D02*
Y-56071D01*
X51500Y-62039D02*
Y-56180D01*
X54500Y-64488D02*
Y-57279D01*
X55000Y-64988D02*
Y-57545D01*
X53500Y-63488D02*
Y-56823D01*
X54000Y-63988D02*
Y-57039D01*
X48500Y-62039D02*
Y-55808D01*
X48000Y-62039D02*
Y-55811D01*
X47500Y-62039D02*
Y-55832D01*
X47000Y-62039D02*
Y-55872D01*
X46500Y-62039D02*
Y-55930D01*
X50000Y-62039D02*
Y-55910D01*
X50500Y-62039D02*
Y-55981D01*
X49000Y-62039D02*
Y-55824D01*
X49500Y-62039D02*
Y-55857D01*
X53500Y-64129D02*
Y-63488D01*
X53117Y-63784D02*
X53796D01*
X53656Y-64284D02*
X54296D01*
X52500Y-63318D02*
Y-62488D01*
X53000Y-63687D02*
Y-62988D01*
X54102Y-64784D02*
X54796D01*
X55000Y-66178D02*
Y-64988D01*
X54000Y-64661D02*
Y-63988D01*
X54500Y-65319D02*
Y-64488D01*
X48327Y-62039D02*
X52051D01*
X50219Y-62283D02*
X52296D01*
X50500Y-62363D02*
Y-62039D01*
X51000Y-62535D02*
Y-62039D01*
X51573Y-62783D02*
X52796D01*
X52449Y-63283D02*
X53296D01*
X51500Y-62749D02*
Y-62039D01*
X52000Y-63008D02*
Y-62039D01*
X60500Y-74438D02*
Y-63244D01*
X60000Y-75420D02*
Y-62353D01*
X61000Y-73216D02*
Y-64334D01*
X59000Y-76972D02*
Y-61709D01*
X59500Y-76250D02*
Y-62075D01*
X58000Y-78185D02*
Y-59813D01*
X58500Y-77612D02*
Y-61209D01*
X57000Y-79173D02*
Y-58908D01*
X57500Y-78703D02*
Y-59338D01*
X55776Y-71784D02*
X61430D01*
X55413D02*
X55776D01*
X55231Y-72284D02*
X55776D01*
Y-73213D02*
Y-69488D01*
X55500Y-73488D02*
Y-71496D01*
X56500Y-79602D02*
Y-58517D01*
X56000Y-79994D02*
Y-58161D01*
X55776Y-72783D02*
X61147D01*
X55776Y-72284D02*
X61298D01*
X55705Y-73283D02*
X60976D01*
X55007Y-72783D02*
X55776D01*
X54736Y-73283D02*
X55705D01*
X55500Y-80352D02*
Y-73488D01*
X55205Y-73783D02*
X60784D01*
X55000Y-73988D02*
Y-72798D01*
Y-80679D02*
Y-73988D01*
X54705Y-74283D02*
X60571D01*
X54205Y-74783D02*
X60335D01*
X54413Y-73783D02*
X55205D01*
X53705Y-75283D02*
X60075D01*
X53205Y-75783D02*
X59790D01*
X52705Y-76284D02*
X59478D01*
X52051Y-76937D02*
X55776Y-73213D01*
X52205Y-76784D02*
X59137D01*
X54500Y-74489D02*
Y-73657D01*
X54027Y-74283D02*
X54705D01*
X53566Y-74783D02*
X54205D01*
X54000Y-74989D02*
Y-74315D01*
X53007Y-75283D02*
X53705D01*
X54500Y-80979D02*
Y-74489D01*
X54000Y-81252D02*
Y-74989D01*
X53500Y-75489D02*
Y-74848D01*
Y-81501D02*
Y-75489D01*
X53000Y-75989D02*
Y-75289D01*
X52309Y-75783D02*
X53205D01*
X51378Y-76284D02*
X52705D01*
X52500Y-76489D02*
Y-75658D01*
X51500Y-76937D02*
Y-76227D01*
X53000Y-81726D02*
Y-75989D01*
X52500Y-81929D02*
Y-76489D01*
X52000Y-76937D02*
Y-75968D01*
X51000Y-76937D02*
Y-76441D01*
X52000Y-82111D02*
Y-76937D01*
X49832Y-76784D02*
X52205D01*
X51500Y-82273D02*
Y-76937D01*
X50500D02*
Y-76613D01*
X51000Y-82416D02*
Y-76937D01*
X50000Y-82644D02*
Y-76937D01*
X50500Y-82539D02*
Y-76937D01*
X49000Y-82800D02*
Y-76937D01*
X49500Y-82731D02*
Y-76937D01*
X48500Y-82852D02*
Y-76937D01*
X48327D02*
X52051D01*
X46000D02*
Y-76565D01*
X48000Y-82886D02*
Y-76937D01*
X47000Y-82905D02*
Y-76937D01*
X47500Y-82903D02*
Y-76937D01*
X46000Y-82905D02*
Y-76937D01*
X46500Y-82905D02*
Y-76937D01*
X46000Y-62039D02*
Y-56006D01*
X44748Y-56283D02*
X51906D01*
X43251Y-56783D02*
X53403D01*
X45500Y-62039D02*
Y-56102D01*
X45000Y-62039D02*
Y-56218D01*
X44500Y-62142D02*
Y-56353D01*
X44000Y-62642D02*
Y-56509D01*
X43500Y-63142D02*
Y-56687D01*
X43000Y-63642D02*
Y-56887D01*
X40477Y-58284D02*
X56177D01*
X39807Y-58784D02*
X56846D01*
X39214Y-59284D02*
X57439D01*
X42145Y-57284D02*
X54509D01*
X41243Y-57784D02*
X55410D01*
X38205Y-60283D02*
X58200D01*
X37772Y-60783D02*
X58200D01*
X38684Y-59784D02*
X57970D01*
X46000Y-62412D02*
Y-62039D01*
X44602D02*
X48327D01*
X44358Y-62283D02*
X46435D01*
X45500Y-62596D02*
Y-62039D01*
X43858Y-62783D02*
X45081D01*
X45000Y-62823D02*
Y-62039D01*
X44500Y-63097D02*
Y-62142D01*
X44000Y-63425D02*
Y-62642D01*
X43500Y-63815D02*
Y-63142D01*
X37379Y-61283D02*
X58574D01*
X37021Y-61783D02*
X59074D01*
X36696Y-62283D02*
X44358D01*
X36401Y-62783D02*
X43858D01*
X43358Y-63283D02*
X44205D01*
X40878Y-65764D02*
X44602Y-62039D01*
X36134Y-63283D02*
X43358D01*
X42858Y-63784D02*
X43537D01*
X43000Y-64281D02*
Y-63642D01*
X42358Y-64284D02*
X42998D01*
X41858Y-64784D02*
X42551D01*
X42500Y-64141D02*
Y-57110D01*
X42000Y-64641D02*
Y-57358D01*
X42500Y-64847D02*
Y-64141D01*
X42000Y-65556D02*
Y-64641D01*
X41500Y-65141D02*
Y-57632D01*
Y-66508D02*
Y-65141D01*
X35892Y-63784D02*
X42858D01*
X35674Y-64284D02*
X42358D01*
X41358Y-65284D02*
X42178D01*
X35480Y-64784D02*
X41858D01*
X35308Y-65284D02*
X41358D01*
X41000Y-65641D02*
Y-57934D01*
Y-68144D02*
Y-65641D01*
X40878Y-69488D02*
Y-65764D01*
X35157Y-65784D02*
X40878D01*
Y-66284D02*
X41602D01*
X40878Y-65784D02*
X41864D01*
X40878Y-66783D02*
X41386D01*
X35026Y-66284D02*
X40878D01*
X34916Y-66783D02*
X40878D01*
Y-67283D02*
X41212D01*
X40878Y-71784D02*
X41240D01*
X34824Y-67283D02*
X40878D01*
X34840Y-71784D02*
X40878D01*
X34664Y-68783D02*
X40878D01*
X34647Y-69283D02*
X40878D01*
X34752Y-67783D02*
X40878D01*
X34699Y-68283D02*
X40878D01*
X34707Y-70784D02*
X40878D01*
X34764Y-71284D02*
X40878D01*
X34649Y-69784D02*
X40878D01*
X34669Y-70284D02*
X40878D01*
X44500Y-76835D02*
Y-75879D01*
X43949Y-76284D02*
X45275D01*
X44449Y-76784D02*
X46821D01*
X43500Y-75835D02*
Y-75162D01*
X44000Y-76335D02*
Y-75552D01*
X45000Y-76937D02*
Y-76153D01*
X45500Y-76937D02*
Y-76380D01*
X43500Y-82289D02*
Y-75835D01*
X44000Y-82467D02*
Y-76335D01*
X43449Y-75783D02*
X44345D01*
X42949Y-75283D02*
X43647D01*
X36453Y-76284D02*
X43949D01*
X42449Y-74783D02*
X43088D01*
X36180Y-75783D02*
X43449D01*
X40878Y-73213D02*
X44602Y-76937D01*
X36753Y-76784D02*
X44449D01*
X42327Y-81783D02*
X52864D01*
X41395Y-81283D02*
X53939D01*
X43484Y-82284D02*
X51467D01*
X44500Y-82623D02*
Y-76835D01*
X44602Y-76937D02*
X48327D01*
X45101Y-82784D02*
X49132D01*
X45651Y-82905D02*
X47252D01*
X45000Y-82759D02*
Y-76937D01*
X45500Y-82874D02*
Y-76937D01*
X37084Y-77284D02*
X58764D01*
X37447Y-77784D02*
X58356D01*
X37848Y-78284D02*
X57909D01*
X38288Y-78784D02*
X57418D01*
X38776Y-79283D02*
X56876D01*
X39317Y-79783D02*
X56274D01*
X39922Y-80283D02*
X55599D01*
X40607Y-80783D02*
X54831D01*
X41500Y-73835D02*
Y-72469D01*
X40878Y-72284D02*
X41422D01*
X40878Y-72783D02*
X41646D01*
X40878Y-73213D02*
Y-69488D01*
X41000Y-73335D02*
Y-70832D01*
X40500Y-80709D02*
Y-58267D01*
X40000Y-80344D02*
Y-58633D01*
X39500Y-79941D02*
Y-59035D01*
X39000Y-79497D02*
Y-59479D01*
X36500Y-76366D02*
Y-62611D01*
X36000Y-75423D02*
Y-63553D01*
X34934Y-72284D02*
X40878D01*
X35500Y-74247D02*
Y-64729D01*
X35000Y-72582D02*
Y-66395D01*
X38500Y-79007D02*
Y-59969D01*
X38000Y-78462D02*
Y-60514D01*
X37500Y-77852D02*
Y-61124D01*
X37000Y-77161D02*
Y-61815D01*
X42500Y-74835D02*
Y-74129D01*
X41949Y-74283D02*
X42627D01*
X43000Y-75335D02*
Y-74695D01*
X42000Y-74335D02*
Y-73420D01*
X41449Y-73783D02*
X42241D01*
X42500Y-81866D02*
Y-74835D01*
X43000Y-82090D02*
Y-75335D01*
X41500Y-81344D02*
Y-73835D01*
X42000Y-81618D02*
Y-74335D01*
X40949Y-73283D02*
X41917D01*
X35337Y-73783D02*
X41449D01*
X35048Y-72783D02*
X40878D01*
X35183Y-73283D02*
X40949D01*
X35712Y-74783D02*
X42449D01*
X35934Y-75283D02*
X42949D01*
X41000Y-81042D02*
Y-73335D01*
X35514Y-74283D02*
X41949D01*
D20*
X35939Y-13976D02*
G03*
X40059Y-9055I-401J4520D01*
G01*
Y12795D01*
X29331Y-13976D02*
X35939D01*
X20276Y-23031D02*
X29331Y-13976D01*
D21*
X38583Y58268D02*
X38878D01*
D22*
X48425Y-18110D02*
Y17717D01*
X24724Y-68701D02*
Y-41811D01*
X48425Y-18110D01*
X39764Y26378D02*
Y57382D01*
Y26378D02*
X48425Y17717D01*
X38878Y58268D02*
X39764Y57382D01*
D23*
X48327Y-69488D02*
D03*
X-48335Y92421D02*
D03*
D24*
X-54921Y-30000D02*
D03*
Y-40000D02*
D03*
Y-20000D02*
D03*
Y3779D02*
D03*
Y13780D02*
D03*
Y47559D02*
D03*
Y37559D02*
D03*
Y57559D02*
D03*
Y67559D02*
D03*
X-25276Y-68721D02*
D03*
X14724Y-68701D02*
D03*
X24724D02*
D03*
X-5276D02*
D03*
X-15276D02*
D03*
X54882Y57279D02*
D03*
Y47280D02*
D03*
Y27279D02*
D03*
Y37279D02*
D03*
X54843Y3500D02*
D03*
X54862Y-36500D02*
D03*
Y-46500D02*
D03*
Y-16500D02*
D03*
Y-6500D02*
D03*
X54921Y91059D02*
D03*
Y81059D02*
D03*
D25*
X-54921Y-50000D02*
D03*
Y-6221D02*
D03*
Y27559D02*
D03*
X54882Y17279D02*
D03*
X54862Y-26500D02*
D03*
X54921Y71059D02*
D03*
D26*
X4724Y-68701D02*
D03*
D27*
X-46654Y22171D02*
D03*
X-35080Y32105D02*
D03*
X-36971Y36647D02*
D03*
X37106Y78543D02*
D03*
X44193Y16535D02*
D03*
X-37795Y4134D02*
D03*
X-46752Y26575D02*
D03*
X-44293Y54333D02*
D03*
X-35630Y60433D02*
D03*
X14469Y44587D02*
D03*
X45079Y40650D02*
D03*
X42815Y37697D02*
D03*
X17618Y33661D02*
D03*
X-16831Y34843D02*
D03*
X17126Y57579D02*
D03*
X5807Y39272D02*
D03*
X22047Y-80610D02*
D03*
X10630Y-78150D02*
D03*
X-1673Y-79232D02*
D03*
X-11614Y-77658D02*
D03*
X-23819Y-78642D02*
D03*
X-60532Y81004D02*
D03*
X-38287Y105020D02*
D03*
X-31988Y103839D02*
D03*
X-58071Y77165D02*
D03*
X36024Y93209D02*
D03*
X36713Y101476D02*
D03*
X25000Y85138D02*
D03*
X4331Y85827D02*
D03*
X2461Y59842D02*
D03*
X-787Y68504D02*
D03*
X-16732Y47441D02*
D03*
X-7579Y41437D02*
D03*
X20079Y66535D02*
D03*
X5709Y50394D02*
D03*
X-10433Y56595D02*
D03*
X15059Y-49803D02*
D03*
X60630Y-58760D02*
D03*
X37598Y-81693D02*
D03*
X-48819Y-78543D02*
D03*
X-50591Y-68799D02*
D03*
X-35925Y-76968D02*
D03*
X-40059Y-67913D02*
D03*
X-54331Y-61122D02*
D03*
X3347Y102854D02*
D03*
X-6791D02*
D03*
X11417Y89370D02*
D03*
X-16143Y102681D02*
D03*
X35335Y-9449D02*
D03*
X35138Y62894D02*
D03*
X-36220Y53248D02*
D03*
X-40899Y54431D02*
D03*
X-43898Y67224D02*
D03*
X-34252Y12795D02*
D03*
X-37866Y10799D02*
D03*
X-35039Y7874D02*
D03*
X-37795Y-11909D02*
D03*
X-36319Y47835D02*
D03*
X-34941Y43209D02*
D03*
X-38976Y-29823D02*
D03*
X31496Y-17717D02*
D03*
X30610Y74016D02*
D03*
D28*
X50098Y100689D02*
D03*
D29*
X40059Y12795D02*
D03*
X20276Y-23031D02*
D03*
D30*
X38583Y58268D02*
D03*
M02*
