G04*
G04 #@! TF.GenerationSoftware,Altium Limited,Altium Designer,20.1.8 (145)*
G04*
G04 Layer_Color=32896*
%FSLAX25Y25*%
%MOIN*%
G70*
G04*
G04 #@! TF.SameCoordinates,FF8AD340-37D9-483E-B564-930531A4ACC2*
G04*
G04*
G04 #@! TF.FilePolarity,Positive*
G04*
G01*
G75*
%ADD31C,0.00020*%
%ADD32R,0.86614X0.35433*%
G36*
X13711Y95469D02*
X13296D01*
Y95836D01*
X13711D01*
Y95469D01*
D02*
G37*
G36*
X-15438Y95469D02*
X-15853D01*
Y95836D01*
X-15438D01*
Y95469D01*
D02*
G37*
G36*
X7203Y95218D02*
X7272Y95210D01*
X7337Y95199D01*
X7399Y95185D01*
X7457Y95163D01*
X7512Y95145D01*
X7559Y95123D01*
X7603Y95101D01*
X7643Y95076D01*
X7679Y95054D01*
X7708Y95035D01*
X7734Y95017D01*
X7752Y94999D01*
X7767Y94988D01*
X7774Y94981D01*
X7778Y94977D01*
X7821Y94930D01*
X7858Y94883D01*
X7890Y94832D01*
X7920Y94781D01*
X7941Y94726D01*
X7963Y94675D01*
X7992Y94581D01*
X8000Y94537D01*
X8007Y94497D01*
X8014Y94460D01*
X8018Y94428D01*
X8021Y94402D01*
Y94384D01*
Y94369D01*
Y94366D01*
X8018Y94293D01*
X8007Y94227D01*
X7992Y94162D01*
X7974Y94104D01*
X7952Y94049D01*
X7927Y93998D01*
X7898Y93951D01*
X7869Y93911D01*
X7843Y93871D01*
X7814Y93838D01*
X7789Y93813D01*
X7767Y93787D01*
X7749Y93769D01*
X7734Y93758D01*
X7723Y93751D01*
X7719Y93747D01*
X7676Y93718D01*
X7628Y93692D01*
X7526Y93652D01*
X7421Y93623D01*
X7319Y93605D01*
X7272Y93598D01*
X7228Y93590D01*
X7192Y93587D01*
X7155D01*
X7130Y93583D01*
X7090D01*
X7006Y93587D01*
X6929Y93590D01*
X6860Y93598D01*
X6791Y93609D01*
X6729Y93620D01*
X6675Y93630D01*
X6624Y93645D01*
X6576Y93660D01*
X6536Y93674D01*
X6504Y93689D01*
X6475Y93700D01*
X6449Y93711D01*
X6431Y93721D01*
X6416Y93729D01*
X6409Y93736D01*
X6405D01*
X6376Y93754D01*
X6351Y93776D01*
X6314Y93813D01*
X6285Y93849D01*
X6263Y93885D01*
X6252Y93911D01*
X6249Y93936D01*
X6245Y93951D01*
Y93954D01*
X6249Y93980D01*
X6252Y94005D01*
X6271Y94045D01*
X6282Y94060D01*
X6293Y94071D01*
X6296Y94074D01*
X6300Y94078D01*
X6318Y94096D01*
X6340Y94111D01*
X6362Y94118D01*
X6380Y94125D01*
X6394Y94129D01*
X6409Y94133D01*
X6420D01*
X6442Y94129D01*
X6467Y94122D01*
X6511Y94100D01*
X6529Y94086D01*
X6544Y94074D01*
X6551Y94067D01*
X6555Y94064D01*
X6584Y94042D01*
X6609Y94024D01*
X6656Y93994D01*
X6678Y93984D01*
X6693Y93976D01*
X6704Y93973D01*
X6707D01*
X6762Y93958D01*
X6820Y93947D01*
X6878Y93940D01*
X6937Y93936D01*
X6984Y93933D01*
X7024Y93929D01*
X7119D01*
X7177Y93933D01*
X7228Y93940D01*
X7275Y93947D01*
X7315Y93954D01*
X7355Y93965D01*
X7392Y93976D01*
X7421Y93987D01*
X7446Y93998D01*
X7472Y94009D01*
X7490Y94020D01*
X7505Y94027D01*
X7526Y94042D01*
X7534Y94045D01*
X7581Y94093D01*
X7617Y94144D01*
X7639Y94198D01*
X7658Y94249D01*
X7668Y94297D01*
X7672Y94333D01*
X7676Y94348D01*
Y94358D01*
Y94362D01*
Y94366D01*
X7668Y94446D01*
X7654Y94515D01*
X7628Y94577D01*
X7603Y94631D01*
X7577Y94671D01*
X7552Y94704D01*
X7537Y94722D01*
X7530Y94730D01*
X7472Y94777D01*
X7406Y94814D01*
X7337Y94839D01*
X7275Y94857D01*
X7221Y94868D01*
X7195Y94872D01*
X7173D01*
X7159Y94875D01*
X7133D01*
X7057Y94872D01*
X6988Y94864D01*
X6929Y94850D01*
X6878Y94835D01*
X6838Y94821D01*
X6809Y94806D01*
X6791Y94799D01*
X6784Y94795D01*
X6758Y94777D01*
X6736Y94752D01*
X6718Y94730D01*
X6707Y94708D01*
X6696Y94686D01*
X6689Y94668D01*
X6686Y94657D01*
Y94653D01*
X6678Y94621D01*
X6667Y94595D01*
X6660Y94573D01*
X6649Y94555D01*
X6642Y94544D01*
X6635Y94537D01*
X6631Y94529D01*
X6609Y94515D01*
X6591Y94508D01*
X6551Y94493D01*
X6533D01*
X6518Y94490D01*
X6507D01*
X6478Y94493D01*
X6456Y94497D01*
X6416Y94515D01*
X6402Y94526D01*
X6391Y94533D01*
X6387Y94537D01*
X6384Y94541D01*
X6365Y94562D01*
X6354Y94591D01*
X6340Y94650D01*
X6336Y94675D01*
X6333Y94697D01*
Y94715D01*
Y94719D01*
Y94941D01*
X6336Y94985D01*
X6340Y95021D01*
X6347Y95050D01*
X6358Y95076D01*
X6369Y95094D01*
X6376Y95108D01*
X6380Y95116D01*
X6384Y95119D01*
X6402Y95137D01*
X6424Y95152D01*
X6442Y95159D01*
X6464Y95166D01*
X6482Y95170D01*
X6493Y95174D01*
X6507D01*
X6533Y95170D01*
X6555Y95163D01*
X6595Y95145D01*
X6613Y95130D01*
X6624Y95123D01*
X6631Y95116D01*
X6635Y95112D01*
X6715Y95148D01*
X6755Y95163D01*
X6787Y95174D01*
X6820Y95181D01*
X6842Y95188D01*
X6857Y95192D01*
X6864D01*
X6959Y95210D01*
X7002Y95214D01*
X7042Y95218D01*
X7079Y95221D01*
X7130D01*
X7203Y95218D01*
D02*
G37*
G36*
X-21947Y95218D02*
X-21878Y95210D01*
X-21812Y95199D01*
X-21750Y95185D01*
X-21692Y95163D01*
X-21637Y95145D01*
X-21590Y95123D01*
X-21546Y95101D01*
X-21506Y95076D01*
X-21470Y95054D01*
X-21441Y95035D01*
X-21415Y95017D01*
X-21397Y94999D01*
X-21383Y94988D01*
X-21375Y94981D01*
X-21372Y94977D01*
X-21328Y94930D01*
X-21292Y94883D01*
X-21259Y94832D01*
X-21230Y94781D01*
X-21208Y94726D01*
X-21186Y94675D01*
X-21157Y94581D01*
X-21149Y94537D01*
X-21142Y94497D01*
X-21135Y94460D01*
X-21131Y94428D01*
X-21128Y94402D01*
Y94384D01*
Y94369D01*
Y94366D01*
X-21131Y94293D01*
X-21142Y94227D01*
X-21157Y94162D01*
X-21175Y94104D01*
X-21197Y94049D01*
X-21222Y93998D01*
X-21251Y93951D01*
X-21281Y93911D01*
X-21306Y93871D01*
X-21335Y93838D01*
X-21361Y93813D01*
X-21383Y93787D01*
X-21401Y93769D01*
X-21415Y93758D01*
X-21426Y93751D01*
X-21430Y93747D01*
X-21473Y93718D01*
X-21521Y93692D01*
X-21623Y93652D01*
X-21728Y93623D01*
X-21830Y93605D01*
X-21878Y93598D01*
X-21921Y93590D01*
X-21958Y93587D01*
X-21994D01*
X-22019Y93583D01*
X-22060D01*
X-22143Y93587D01*
X-22220Y93590D01*
X-22289Y93598D01*
X-22358Y93609D01*
X-22420Y93620D01*
X-22474Y93630D01*
X-22525Y93645D01*
X-22573Y93660D01*
X-22613Y93674D01*
X-22646Y93689D01*
X-22675Y93700D01*
X-22700Y93711D01*
X-22718Y93721D01*
X-22733Y93729D01*
X-22740Y93736D01*
X-22744D01*
X-22773Y93754D01*
X-22798Y93776D01*
X-22835Y93813D01*
X-22864Y93849D01*
X-22886Y93885D01*
X-22897Y93911D01*
X-22900Y93936D01*
X-22904Y93951D01*
Y93954D01*
X-22900Y93980D01*
X-22897Y94005D01*
X-22878Y94045D01*
X-22868Y94060D01*
X-22857Y94071D01*
X-22853Y94074D01*
X-22849Y94078D01*
X-22831Y94096D01*
X-22809Y94111D01*
X-22787Y94118D01*
X-22769Y94125D01*
X-22755Y94129D01*
X-22740Y94133D01*
X-22729D01*
X-22707Y94129D01*
X-22682Y94122D01*
X-22638Y94100D01*
X-22620Y94086D01*
X-22605Y94074D01*
X-22598Y94067D01*
X-22595Y94064D01*
X-22566Y94042D01*
X-22540Y94024D01*
X-22493Y93994D01*
X-22471Y93984D01*
X-22456Y93976D01*
X-22445Y93973D01*
X-22442D01*
X-22387Y93958D01*
X-22329Y93947D01*
X-22271Y93940D01*
X-22212Y93936D01*
X-22165Y93933D01*
X-22125Y93929D01*
X-22030D01*
X-21972Y93933D01*
X-21921Y93940D01*
X-21874Y93947D01*
X-21834Y93954D01*
X-21794Y93965D01*
X-21757Y93976D01*
X-21728Y93987D01*
X-21703Y93998D01*
X-21677Y94009D01*
X-21659Y94020D01*
X-21644Y94027D01*
X-21623Y94042D01*
X-21615Y94045D01*
X-21568Y94093D01*
X-21532Y94144D01*
X-21510Y94198D01*
X-21492Y94249D01*
X-21481Y94297D01*
X-21477Y94333D01*
X-21473Y94348D01*
Y94358D01*
Y94362D01*
Y94366D01*
X-21481Y94446D01*
X-21495Y94515D01*
X-21521Y94577D01*
X-21546Y94631D01*
X-21572Y94671D01*
X-21597Y94704D01*
X-21612Y94722D01*
X-21619Y94730D01*
X-21677Y94777D01*
X-21743Y94814D01*
X-21812Y94839D01*
X-21874Y94857D01*
X-21928Y94868D01*
X-21954Y94872D01*
X-21976D01*
X-21990Y94875D01*
X-22016D01*
X-22092Y94872D01*
X-22161Y94864D01*
X-22220Y94850D01*
X-22271Y94835D01*
X-22311Y94821D01*
X-22340Y94806D01*
X-22358Y94799D01*
X-22365Y94795D01*
X-22391Y94777D01*
X-22413Y94752D01*
X-22431Y94730D01*
X-22442Y94708D01*
X-22453Y94686D01*
X-22460Y94668D01*
X-22464Y94657D01*
Y94653D01*
X-22471Y94621D01*
X-22482Y94595D01*
X-22489Y94573D01*
X-22500Y94555D01*
X-22507Y94544D01*
X-22514Y94537D01*
X-22518Y94529D01*
X-22540Y94515D01*
X-22558Y94508D01*
X-22598Y94493D01*
X-22616D01*
X-22631Y94490D01*
X-22642D01*
X-22671Y94493D01*
X-22693Y94497D01*
X-22733Y94515D01*
X-22748Y94526D01*
X-22758Y94533D01*
X-22762Y94537D01*
X-22766Y94541D01*
X-22784Y94562D01*
X-22795Y94591D01*
X-22809Y94650D01*
X-22813Y94675D01*
X-22817Y94697D01*
Y94715D01*
Y94719D01*
Y94941D01*
X-22813Y94985D01*
X-22809Y95021D01*
X-22802Y95050D01*
X-22791Y95076D01*
X-22780Y95094D01*
X-22773Y95108D01*
X-22769Y95116D01*
X-22766Y95119D01*
X-22748Y95137D01*
X-22726Y95152D01*
X-22707Y95159D01*
X-22686Y95166D01*
X-22667Y95170D01*
X-22657Y95174D01*
X-22642D01*
X-22616Y95170D01*
X-22595Y95163D01*
X-22555Y95145D01*
X-22536Y95130D01*
X-22525Y95123D01*
X-22518Y95116D01*
X-22514Y95112D01*
X-22434Y95148D01*
X-22394Y95163D01*
X-22362Y95174D01*
X-22329Y95181D01*
X-22307Y95188D01*
X-22292Y95192D01*
X-22285D01*
X-22190Y95210D01*
X-22147Y95214D01*
X-22107Y95218D01*
X-22070Y95221D01*
X-22019D01*
X-21947Y95218D01*
D02*
G37*
G36*
X5899Y95833D02*
X5939Y95829D01*
X5972Y95822D01*
X5998Y95811D01*
X6016Y95800D01*
X6030Y95793D01*
X6038Y95789D01*
X6041Y95785D01*
X6059Y95767D01*
X6070Y95745D01*
X6085Y95705D01*
X6089Y95687D01*
X6092Y95676D01*
Y95665D01*
Y95662D01*
X6089Y95636D01*
X6085Y95611D01*
X6067Y95571D01*
X6056Y95556D01*
X6049Y95545D01*
X6045Y95542D01*
X6041Y95538D01*
X6016Y95523D01*
X5990Y95512D01*
X5928Y95498D01*
X5899Y95494D01*
X5878Y95490D01*
X5797D01*
Y93984D01*
X5841D01*
X5878Y93980D01*
X5907Y93973D01*
X5928Y93969D01*
X5947Y93962D01*
X5958Y93954D01*
X5961Y93951D01*
X5965D01*
X5987Y93925D01*
X6005Y93900D01*
X6016Y93878D01*
X6027Y93856D01*
X6030Y93838D01*
X6034Y93823D01*
Y93813D01*
Y93809D01*
X6030Y93783D01*
X6027Y93758D01*
X6009Y93718D01*
X5998Y93703D01*
X5990Y93692D01*
X5987Y93689D01*
X5983Y93685D01*
X5958Y93670D01*
X5932Y93660D01*
X5870Y93645D01*
X5841Y93641D01*
X5819Y93638D01*
X5452D01*
X5408Y93641D01*
X5368Y93645D01*
X5339Y93652D01*
X5313Y93663D01*
X5295Y93670D01*
X5281Y93678D01*
X5273Y93681D01*
X5270Y93685D01*
X5251Y93703D01*
X5237Y93725D01*
X5230Y93747D01*
X5222Y93765D01*
X5219Y93783D01*
X5215Y93798D01*
Y93805D01*
Y93809D01*
X5219Y93838D01*
X5226Y93863D01*
X5251Y93907D01*
X5266Y93925D01*
X5277Y93940D01*
X5284Y93947D01*
X5288Y93951D01*
X5306Y93962D01*
X5328Y93969D01*
X5382Y93980D01*
X5408Y93984D01*
X5452D01*
Y94635D01*
X5397Y94686D01*
X5350Y94730D01*
X5310Y94762D01*
X5277Y94788D01*
X5248Y94806D01*
X5230Y94821D01*
X5215Y94824D01*
X5211Y94828D01*
X5175Y94843D01*
X5142Y94857D01*
X5106Y94864D01*
X5077Y94868D01*
X5048Y94872D01*
X5026Y94875D01*
X5007D01*
X4949Y94872D01*
X4902Y94864D01*
X4862Y94850D01*
X4826Y94839D01*
X4800Y94824D01*
X4782Y94810D01*
X4771Y94802D01*
X4767Y94799D01*
X4746Y94777D01*
X4731Y94748D01*
X4720Y94719D01*
X4713Y94686D01*
X4709Y94657D01*
X4705Y94635D01*
Y94621D01*
Y94613D01*
Y93984D01*
X4749D01*
X4786Y93980D01*
X4815Y93973D01*
X4837Y93969D01*
X4855Y93962D01*
X4866Y93954D01*
X4869Y93951D01*
X4873D01*
X4895Y93925D01*
X4913Y93900D01*
X4924Y93878D01*
X4935Y93856D01*
X4938Y93838D01*
X4942Y93823D01*
Y93813D01*
Y93809D01*
X4938Y93783D01*
X4935Y93758D01*
X4917Y93718D01*
X4906Y93703D01*
X4898Y93692D01*
X4895Y93689D01*
X4891Y93685D01*
X4866Y93670D01*
X4840Y93660D01*
X4778Y93645D01*
X4749Y93641D01*
X4727Y93638D01*
X4360D01*
X4316Y93641D01*
X4276Y93645D01*
X4247Y93652D01*
X4221Y93663D01*
X4203Y93670D01*
X4189Y93678D01*
X4181Y93681D01*
X4178Y93685D01*
X4159Y93703D01*
X4145Y93725D01*
X4138Y93747D01*
X4130Y93765D01*
X4127Y93783D01*
X4123Y93798D01*
Y93805D01*
Y93809D01*
X4127Y93838D01*
X4134Y93863D01*
X4159Y93907D01*
X4174Y93925D01*
X4185Y93940D01*
X4192Y93947D01*
X4196Y93951D01*
X4214Y93962D01*
X4236Y93969D01*
X4290Y93980D01*
X4316Y93984D01*
X4360D01*
Y94635D01*
X4363Y94708D01*
X4374Y94770D01*
X4389Y94828D01*
X4407Y94875D01*
X4425Y94915D01*
X4440Y94945D01*
X4451Y94959D01*
X4454Y94966D01*
X4491Y95014D01*
X4531Y95054D01*
X4567Y95086D01*
X4603Y95112D01*
X4636Y95134D01*
X4662Y95148D01*
X4680Y95156D01*
X4687Y95159D01*
X4742Y95181D01*
X4796Y95196D01*
X4851Y95207D01*
X4902Y95214D01*
X4942Y95218D01*
X4978Y95221D01*
X5007D01*
X5091Y95218D01*
X5131Y95210D01*
X5164Y95207D01*
X5193Y95199D01*
X5219Y95192D01*
X5233Y95188D01*
X5237D01*
X5317Y95159D01*
X5353Y95145D01*
X5386Y95130D01*
X5412Y95116D01*
X5433Y95105D01*
X5448Y95097D01*
X5452Y95094D01*
Y95836D01*
X5856D01*
X5899Y95833D01*
D02*
G37*
G36*
X9419Y95221D02*
X9481Y95214D01*
X9539Y95203D01*
X9594Y95188D01*
X9649Y95170D01*
X9696Y95148D01*
X9743Y95130D01*
X9783Y95108D01*
X9820Y95083D01*
X9852Y95065D01*
X9882Y95043D01*
X9903Y95025D01*
X9922Y95010D01*
X9936Y94999D01*
X9943Y94992D01*
X9947Y94988D01*
X9987Y94945D01*
X10024Y94894D01*
X10056Y94846D01*
X10085Y94795D01*
X10107Y94748D01*
X10125Y94701D01*
X10154Y94606D01*
X10165Y94566D01*
X10173Y94526D01*
X10176Y94490D01*
X10180Y94460D01*
X10184Y94435D01*
Y94417D01*
Y94406D01*
Y94402D01*
X10180Y94337D01*
X10173Y94278D01*
X10162Y94220D01*
X10147Y94162D01*
X10129Y94111D01*
X10107Y94064D01*
X10089Y94020D01*
X10063Y93980D01*
X10042Y93944D01*
X10024Y93911D01*
X10002Y93882D01*
X9983Y93860D01*
X9969Y93842D01*
X9958Y93827D01*
X9951Y93820D01*
X9947Y93816D01*
X9900Y93776D01*
X9852Y93740D01*
X9801Y93707D01*
X9754Y93681D01*
X9703Y93660D01*
X9652Y93641D01*
X9561Y93612D01*
X9517Y93601D01*
X9477Y93594D01*
X9441Y93590D01*
X9412Y93587D01*
X9386Y93583D01*
X9354D01*
X9263Y93590D01*
X9223Y93594D01*
X9186Y93601D01*
X9154Y93609D01*
X9132Y93612D01*
X9114Y93620D01*
X9110D01*
X9023Y93652D01*
X8982Y93670D01*
X8946Y93689D01*
X8917Y93703D01*
X8891Y93718D01*
X8877Y93725D01*
X8873Y93729D01*
Y93565D01*
X8877Y93518D01*
X8888Y93474D01*
X8902Y93437D01*
X8917Y93408D01*
X8931Y93383D01*
X8946Y93361D01*
X8957Y93350D01*
X8961Y93347D01*
X8997Y93317D01*
X9037Y93296D01*
X9077Y93281D01*
X9117Y93270D01*
X9154Y93263D01*
X9183Y93259D01*
X9594D01*
X9638Y93256D01*
X9674Y93252D01*
X9703Y93245D01*
X9729Y93237D01*
X9747Y93226D01*
X9761Y93219D01*
X9769Y93216D01*
X9772Y93212D01*
X9791Y93194D01*
X9801Y93172D01*
X9816Y93132D01*
X9820Y93114D01*
X9823Y93103D01*
Y93092D01*
Y93088D01*
X9820Y93063D01*
X9816Y93037D01*
X9798Y92997D01*
X9787Y92983D01*
X9780Y92972D01*
X9776Y92968D01*
X9772Y92964D01*
X9751Y92946D01*
X9721Y92935D01*
X9663Y92921D01*
X9638Y92917D01*
X9616Y92913D01*
X9201D01*
X9128Y92917D01*
X9059Y92928D01*
X9001Y92946D01*
X8946Y92964D01*
X8902Y92983D01*
X8873Y93001D01*
X8851Y93012D01*
X8844Y93015D01*
X8789Y93055D01*
X8738Y93095D01*
X8698Y93132D01*
X8666Y93172D01*
X8640Y93205D01*
X8622Y93230D01*
X8611Y93245D01*
X8608Y93252D01*
X8582Y93303D01*
X8560Y93357D01*
X8546Y93412D01*
X8538Y93459D01*
X8531Y93503D01*
X8527Y93540D01*
Y93561D01*
Y93565D01*
Y93569D01*
Y94832D01*
X8469D01*
X8426Y94835D01*
X8386Y94839D01*
X8356Y94846D01*
X8331Y94857D01*
X8313Y94864D01*
X8298Y94872D01*
X8291Y94875D01*
X8287Y94879D01*
X8269Y94897D01*
X8254Y94919D01*
X8247Y94941D01*
X8240Y94959D01*
X8236Y94977D01*
X8233Y94992D01*
Y94999D01*
Y95003D01*
X8236Y95032D01*
X8240Y95054D01*
X8258Y95094D01*
X8269Y95108D01*
X8280Y95119D01*
X8283Y95123D01*
X8287Y95126D01*
X8309Y95145D01*
X8338Y95156D01*
X8400Y95170D01*
X8426Y95174D01*
X8447Y95178D01*
X8873D01*
Y95076D01*
X8953Y95123D01*
X8993Y95141D01*
X9030Y95159D01*
X9059Y95170D01*
X9081Y95178D01*
X9095Y95185D01*
X9103D01*
X9146Y95199D01*
X9194Y95207D01*
X9234Y95214D01*
X9274Y95221D01*
X9306D01*
X9332Y95225D01*
X9354D01*
X9419Y95221D01*
D02*
G37*
G36*
X-9319D02*
X-9258Y95214D01*
X-9199Y95203D01*
X-9145Y95188D01*
X-9090Y95170D01*
X-9043Y95148D01*
X-8996Y95130D01*
X-8956Y95108D01*
X-8919Y95083D01*
X-8886Y95065D01*
X-8857Y95043D01*
X-8835Y95025D01*
X-8817Y95010D01*
X-8803Y94999D01*
X-8795Y94992D01*
X-8792Y94988D01*
X-8752Y94945D01*
X-8715Y94894D01*
X-8682Y94846D01*
X-8653Y94795D01*
X-8631Y94748D01*
X-8613Y94701D01*
X-8584Y94606D01*
X-8573Y94566D01*
X-8566Y94526D01*
X-8562Y94490D01*
X-8559Y94460D01*
X-8555Y94435D01*
Y94417D01*
Y94406D01*
Y94402D01*
X-8559Y94337D01*
X-8566Y94278D01*
X-8577Y94220D01*
X-8591Y94162D01*
X-8610Y94111D01*
X-8631Y94064D01*
X-8650Y94020D01*
X-8675Y93980D01*
X-8697Y93944D01*
X-8715Y93911D01*
X-8737Y93882D01*
X-8755Y93860D01*
X-8770Y93842D01*
X-8781Y93827D01*
X-8788Y93820D01*
X-8792Y93816D01*
X-8839Y93776D01*
X-8886Y93740D01*
X-8937Y93707D01*
X-8985Y93681D01*
X-9036Y93660D01*
X-9087Y93641D01*
X-9178Y93612D01*
X-9221Y93601D01*
X-9261Y93594D01*
X-9298Y93590D01*
X-9327Y93587D01*
X-9352Y93583D01*
X-9385D01*
X-9476Y93590D01*
X-9516Y93594D01*
X-9552Y93601D01*
X-9585Y93609D01*
X-9607Y93612D01*
X-9625Y93620D01*
X-9629D01*
X-9716Y93652D01*
X-9756Y93670D01*
X-9793Y93689D01*
X-9822Y93703D01*
X-9847Y93718D01*
X-9862Y93725D01*
X-9866Y93729D01*
Y93565D01*
X-9862Y93518D01*
X-9851Y93474D01*
X-9836Y93437D01*
X-9822Y93408D01*
X-9807Y93383D01*
X-9793Y93361D01*
X-9782Y93350D01*
X-9778Y93347D01*
X-9742Y93317D01*
X-9702Y93296D01*
X-9662Y93281D01*
X-9622Y93270D01*
X-9585Y93263D01*
X-9556Y93259D01*
X-9145D01*
X-9101Y93256D01*
X-9065Y93252D01*
X-9036Y93245D01*
X-9010Y93237D01*
X-8992Y93226D01*
X-8977Y93219D01*
X-8970Y93216D01*
X-8966Y93212D01*
X-8948Y93194D01*
X-8937Y93172D01*
X-8923Y93132D01*
X-8919Y93114D01*
X-8915Y93103D01*
Y93092D01*
Y93088D01*
X-8919Y93063D01*
X-8923Y93037D01*
X-8941Y92997D01*
X-8952Y92983D01*
X-8959Y92972D01*
X-8963Y92968D01*
X-8966Y92964D01*
X-8988Y92946D01*
X-9017Y92935D01*
X-9076Y92921D01*
X-9101Y92917D01*
X-9123Y92913D01*
X-9538D01*
X-9611Y92917D01*
X-9680Y92928D01*
X-9738Y92946D01*
X-9793Y92964D01*
X-9836Y92983D01*
X-9866Y93001D01*
X-9887Y93012D01*
X-9895Y93015D01*
X-9949Y93055D01*
X-10000Y93095D01*
X-10040Y93132D01*
X-10073Y93172D01*
X-10098Y93205D01*
X-10117Y93230D01*
X-10128Y93245D01*
X-10131Y93252D01*
X-10157Y93303D01*
X-10178Y93357D01*
X-10193Y93412D01*
X-10200Y93459D01*
X-10208Y93503D01*
X-10211Y93540D01*
Y93561D01*
Y93565D01*
Y93569D01*
Y94832D01*
X-10270D01*
X-10313Y94835D01*
X-10353Y94839D01*
X-10382Y94846D01*
X-10408Y94857D01*
X-10426Y94864D01*
X-10441Y94872D01*
X-10448Y94875D01*
X-10452Y94879D01*
X-10470Y94897D01*
X-10476Y94907D01*
X-10481Y94897D01*
X-10492Y94886D01*
X-10495Y94883D01*
X-10499Y94879D01*
X-10521Y94864D01*
X-10550Y94854D01*
X-10608Y94839D01*
X-10637Y94835D01*
X-10659Y94832D01*
X-10681D01*
Y93984D01*
X-10637Y93980D01*
X-10597Y93976D01*
X-10564Y93969D01*
X-10543Y93958D01*
X-10521Y93947D01*
X-10510Y93940D01*
X-10503Y93936D01*
X-10499Y93933D01*
X-10481Y93914D01*
X-10466Y93893D01*
X-10459Y93874D01*
X-10452Y93853D01*
X-10448Y93834D01*
X-10444Y93823D01*
Y93813D01*
Y93809D01*
X-10448Y93783D01*
X-10452Y93758D01*
X-10473Y93718D01*
X-10481Y93703D01*
X-10492Y93692D01*
X-10495Y93689D01*
X-10499Y93685D01*
X-10521Y93670D01*
X-10550Y93660D01*
X-10608Y93645D01*
X-10637Y93641D01*
X-10659Y93638D01*
X-11027D01*
X-11070Y93641D01*
X-11110Y93645D01*
X-11140Y93652D01*
X-11165Y93663D01*
X-11183Y93670D01*
X-11198Y93678D01*
X-11205Y93681D01*
X-11209Y93685D01*
X-11227Y93703D01*
X-11241Y93725D01*
X-11249Y93747D01*
X-11256Y93765D01*
X-11260Y93783D01*
X-11263Y93798D01*
Y93805D01*
Y93809D01*
X-11260Y93838D01*
X-11256Y93860D01*
X-11238Y93900D01*
X-11227Y93914D01*
X-11216Y93925D01*
X-11212Y93929D01*
X-11209Y93933D01*
X-11187Y93951D01*
X-11158Y93962D01*
X-11096Y93976D01*
X-11070Y93980D01*
X-11049Y93984D01*
X-11027D01*
Y94682D01*
X-11056Y94722D01*
X-11081Y94755D01*
X-11107Y94781D01*
X-11125Y94802D01*
X-11143Y94817D01*
X-11154Y94828D01*
X-11161Y94835D01*
X-11165D01*
X-11187Y94850D01*
X-11212Y94857D01*
X-11249Y94872D01*
X-11267D01*
X-11278Y94875D01*
X-11289D01*
X-11329Y94872D01*
X-11354Y94861D01*
X-11372Y94846D01*
X-11376Y94843D01*
X-11387Y94828D01*
X-11394Y94814D01*
X-11405Y94777D01*
X-11409Y94759D01*
Y94744D01*
Y94737D01*
Y94733D01*
Y93638D01*
X-11755D01*
X-11798Y93641D01*
X-11838Y93645D01*
X-11868Y93652D01*
X-11893Y93663D01*
X-11911Y93670D01*
X-11926Y93678D01*
X-11933Y93681D01*
X-11937Y93685D01*
X-11955Y93703D01*
X-11969Y93725D01*
X-11977Y93747D01*
X-11984Y93765D01*
X-11988Y93783D01*
X-11991Y93798D01*
Y93805D01*
Y93809D01*
X-11988Y93838D01*
X-11984Y93860D01*
X-11966Y93900D01*
X-11955Y93914D01*
X-11944Y93925D01*
X-11940Y93929D01*
X-11937Y93933D01*
X-11915Y93951D01*
X-11886Y93962D01*
X-11824Y93976D01*
X-11798Y93980D01*
X-11777Y93984D01*
X-11755D01*
Y94682D01*
X-11787Y94722D01*
X-11817Y94755D01*
X-11842Y94784D01*
X-11864Y94806D01*
X-11878Y94824D01*
X-11893Y94835D01*
X-11900Y94839D01*
X-11904Y94843D01*
X-11940Y94861D01*
X-11977Y94872D01*
X-11991Y94875D01*
X-12009D01*
X-12049Y94872D01*
X-12079Y94861D01*
X-12097Y94846D01*
X-12100Y94843D01*
X-12111Y94828D01*
X-12119Y94814D01*
X-12126Y94777D01*
X-12130Y94759D01*
Y94748D01*
Y94737D01*
Y94733D01*
Y93638D01*
X-12475D01*
X-12519Y93641D01*
X-12559Y93645D01*
X-12588Y93652D01*
X-12614Y93663D01*
X-12632Y93670D01*
X-12646Y93678D01*
X-12654Y93681D01*
X-12657Y93685D01*
X-12676Y93703D01*
X-12690Y93725D01*
X-12697Y93747D01*
X-12705Y93765D01*
X-12708Y93783D01*
X-12712Y93798D01*
Y93805D01*
Y93809D01*
X-12708Y93838D01*
X-12705Y93860D01*
X-12686Y93900D01*
X-12676Y93914D01*
X-12665Y93925D01*
X-12661Y93929D01*
X-12657Y93933D01*
X-12636Y93951D01*
X-12606Y93962D01*
X-12544Y93976D01*
X-12519Y93980D01*
X-12497Y93984D01*
X-12475D01*
Y94759D01*
Y94799D01*
X-12468Y94839D01*
X-12450Y94908D01*
X-12424Y94970D01*
X-12395Y95021D01*
X-12366Y95061D01*
X-12341Y95090D01*
X-12323Y95108D01*
X-12319Y95116D01*
X-12315D01*
X-12268Y95152D01*
X-12217Y95178D01*
X-12162Y95196D01*
X-12115Y95207D01*
X-12071Y95218D01*
X-12035Y95221D01*
X-12002D01*
X-11933Y95214D01*
X-11900Y95210D01*
X-11871Y95203D01*
X-11846Y95196D01*
X-11828Y95192D01*
X-11817Y95185D01*
X-11813D01*
X-11747Y95152D01*
X-11715Y95134D01*
X-11689Y95116D01*
X-11664Y95101D01*
X-11645Y95086D01*
X-11635Y95079D01*
X-11631Y95076D01*
X-11580Y95123D01*
X-11533Y95159D01*
X-11514Y95170D01*
X-11500Y95178D01*
X-11489Y95185D01*
X-11485D01*
X-11431Y95207D01*
X-11383Y95218D01*
X-11365Y95221D01*
X-11336D01*
X-11274Y95218D01*
X-11245Y95210D01*
X-11223Y95207D01*
X-11201Y95199D01*
X-11187Y95192D01*
X-11180Y95188D01*
X-11176D01*
X-11150Y95174D01*
X-11125Y95159D01*
X-11078Y95123D01*
X-11056Y95105D01*
X-11041Y95090D01*
X-11030Y95079D01*
X-11027Y95076D01*
Y95178D01*
X-10681D01*
X-10637Y95174D01*
X-10597Y95170D01*
X-10564Y95163D01*
X-10543Y95152D01*
X-10521Y95141D01*
X-10510Y95134D01*
X-10503Y95130D01*
X-10499Y95126D01*
X-10481Y95108D01*
X-10475Y95101D01*
X-10470Y95108D01*
X-10459Y95119D01*
X-10455Y95123D01*
X-10452Y95126D01*
X-10430Y95145D01*
X-10401Y95156D01*
X-10339Y95170D01*
X-10313Y95174D01*
X-10291Y95178D01*
X-9866D01*
Y95076D01*
X-9785Y95123D01*
X-9745Y95141D01*
X-9709Y95159D01*
X-9680Y95170D01*
X-9658Y95178D01*
X-9643Y95185D01*
X-9636D01*
X-9593Y95199D01*
X-9545Y95207D01*
X-9505Y95214D01*
X-9465Y95221D01*
X-9432D01*
X-9407Y95225D01*
X-9385D01*
X-9319Y95221D01*
D02*
G37*
G36*
X-25849Y95218D02*
X-25820Y95210D01*
X-25798Y95207D01*
X-25776Y95199D01*
X-25761Y95192D01*
X-25754Y95188D01*
X-25750D01*
X-25725Y95174D01*
X-25699Y95159D01*
X-25652Y95123D01*
X-25630Y95105D01*
X-25616Y95090D01*
X-25605Y95079D01*
X-25601Y95076D01*
Y95178D01*
X-25255D01*
X-25212Y95174D01*
X-25172Y95170D01*
X-25139Y95163D01*
X-25117Y95152D01*
X-25095Y95141D01*
X-25084Y95134D01*
X-25077Y95130D01*
X-25073Y95126D01*
X-25055Y95108D01*
X-25041Y95086D01*
X-25033Y95068D01*
X-25026Y95046D01*
X-25023Y95028D01*
X-25019Y95017D01*
Y95006D01*
Y95003D01*
X-25023Y94977D01*
X-25026Y94952D01*
X-25048Y94912D01*
X-25055Y94897D01*
X-25066Y94886D01*
X-25070Y94883D01*
X-25073Y94879D01*
X-25095Y94864D01*
X-25124Y94854D01*
X-25183Y94839D01*
X-25212Y94835D01*
X-25234Y94832D01*
X-25255D01*
Y93984D01*
X-25212Y93980D01*
X-25172Y93976D01*
X-25139Y93969D01*
X-25117Y93958D01*
X-25095Y93947D01*
X-25084Y93940D01*
X-25077Y93936D01*
X-25073Y93933D01*
X-25055Y93914D01*
X-25041Y93893D01*
X-25033Y93874D01*
X-25026Y93853D01*
X-25023Y93834D01*
X-25019Y93823D01*
Y93813D01*
Y93809D01*
X-25023Y93783D01*
X-25026Y93758D01*
X-25048Y93718D01*
X-25055Y93703D01*
X-25066Y93692D01*
X-25070Y93689D01*
X-25073Y93685D01*
X-25095Y93670D01*
X-25124Y93660D01*
X-25183Y93645D01*
X-25212Y93641D01*
X-25234Y93638D01*
X-25601D01*
X-25645Y93641D01*
X-25685Y93645D01*
X-25714Y93652D01*
X-25739Y93663D01*
X-25758Y93670D01*
X-25772Y93678D01*
X-25780Y93681D01*
X-25783Y93685D01*
X-25801Y93703D01*
X-25816Y93725D01*
X-25823Y93747D01*
X-25831Y93765D01*
X-25834Y93783D01*
X-25838Y93798D01*
Y93805D01*
Y93809D01*
X-25834Y93838D01*
X-25831Y93860D01*
X-25812Y93900D01*
X-25801Y93914D01*
X-25791Y93925D01*
X-25787Y93929D01*
X-25783Y93933D01*
X-25761Y93951D01*
X-25732Y93962D01*
X-25670Y93976D01*
X-25645Y93980D01*
X-25623Y93984D01*
X-25601D01*
Y94682D01*
X-25630Y94722D01*
X-25656Y94755D01*
X-25681Y94781D01*
X-25699Y94802D01*
X-25718Y94817D01*
X-25729Y94828D01*
X-25736Y94835D01*
X-25739D01*
X-25761Y94850D01*
X-25787Y94857D01*
X-25823Y94872D01*
X-25841D01*
X-25852Y94875D01*
X-25863D01*
X-25903Y94872D01*
X-25929Y94861D01*
X-25947Y94846D01*
X-25951Y94843D01*
X-25962Y94828D01*
X-25969Y94814D01*
X-25980Y94777D01*
X-25983Y94759D01*
Y94744D01*
Y94737D01*
Y94733D01*
Y93638D01*
X-26329D01*
X-26373Y93641D01*
X-26413Y93645D01*
X-26442Y93652D01*
X-26467Y93663D01*
X-26486Y93670D01*
X-26500Y93678D01*
X-26508Y93681D01*
X-26511Y93685D01*
X-26529Y93703D01*
X-26544Y93725D01*
X-26551Y93747D01*
X-26559Y93765D01*
X-26562Y93783D01*
X-26566Y93798D01*
Y93805D01*
Y93809D01*
X-26562Y93838D01*
X-26559Y93860D01*
X-26540Y93900D01*
X-26529Y93914D01*
X-26518Y93925D01*
X-26515Y93929D01*
X-26511Y93933D01*
X-26489Y93951D01*
X-26460Y93962D01*
X-26398Y93976D01*
X-26373Y93980D01*
X-26351Y93984D01*
X-26329D01*
Y94682D01*
X-26362Y94722D01*
X-26391Y94755D01*
X-26417Y94784D01*
X-26438Y94806D01*
X-26453Y94824D01*
X-26467Y94835D01*
X-26475Y94839D01*
X-26478Y94843D01*
X-26515Y94861D01*
X-26551Y94872D01*
X-26566Y94875D01*
X-26584D01*
X-26624Y94872D01*
X-26653Y94861D01*
X-26671Y94846D01*
X-26675Y94843D01*
X-26686Y94828D01*
X-26693Y94814D01*
X-26700Y94777D01*
X-26704Y94759D01*
Y94748D01*
Y94737D01*
Y94733D01*
Y93638D01*
X-27050D01*
X-27094Y93641D01*
X-27134Y93645D01*
X-27163Y93652D01*
X-27188Y93663D01*
X-27207Y93670D01*
X-27221Y93678D01*
X-27228Y93681D01*
X-27232Y93685D01*
X-27250Y93703D01*
X-27265Y93725D01*
X-27272Y93747D01*
X-27279Y93765D01*
X-27283Y93783D01*
X-27286Y93798D01*
Y93805D01*
Y93809D01*
X-27283Y93838D01*
X-27279Y93860D01*
X-27261Y93900D01*
X-27250Y93914D01*
X-27239Y93925D01*
X-27236Y93929D01*
X-27232Y93933D01*
X-27210Y93951D01*
X-27181Y93962D01*
X-27119Y93976D01*
X-27094Y93980D01*
X-27072Y93984D01*
X-27050D01*
Y94759D01*
Y94799D01*
X-27043Y94839D01*
X-27024Y94908D01*
X-26999Y94970D01*
X-26970Y95021D01*
X-26941Y95061D01*
X-26915Y95090D01*
X-26897Y95108D01*
X-26893Y95116D01*
X-26890D01*
X-26842Y95152D01*
X-26792Y95178D01*
X-26737Y95196D01*
X-26690Y95207D01*
X-26646Y95218D01*
X-26610Y95221D01*
X-26577D01*
X-26508Y95214D01*
X-26475Y95210D01*
X-26446Y95203D01*
X-26420Y95196D01*
X-26402Y95192D01*
X-26391Y95185D01*
X-26388D01*
X-26322Y95152D01*
X-26289Y95134D01*
X-26264Y95116D01*
X-26238Y95101D01*
X-26220Y95086D01*
X-26209Y95079D01*
X-26206Y95076D01*
X-26155Y95123D01*
X-26107Y95159D01*
X-26089Y95170D01*
X-26074Y95178D01*
X-26063Y95185D01*
X-26060D01*
X-26005Y95207D01*
X-25958Y95218D01*
X-25940Y95221D01*
X-25911D01*
X-25849Y95218D01*
D02*
G37*
G36*
X3115Y95218D02*
X3155Y95214D01*
X3195Y95210D01*
X3228Y95207D01*
X3253Y95203D01*
X3268Y95199D01*
X3275D01*
X3373Y95181D01*
X3417Y95170D01*
X3457Y95163D01*
X3490Y95156D01*
X3515Y95148D01*
X3530Y95141D01*
X3537D01*
X3570Y95130D01*
X3595Y95123D01*
X3617Y95116D01*
X3635Y95108D01*
X3650Y95101D01*
X3657Y95097D01*
X3664Y95094D01*
X3683Y95079D01*
X3697Y95061D01*
X3708Y95050D01*
X3712Y95043D01*
X3719Y95017D01*
X3723Y94992D01*
X3726Y94974D01*
Y94970D01*
Y94966D01*
X3723Y94937D01*
X3719Y94915D01*
X3701Y94875D01*
X3694Y94861D01*
X3686Y94850D01*
X3683Y94843D01*
X3679Y94839D01*
X3661Y94824D01*
X3639Y94814D01*
X3602Y94799D01*
X3588Y94795D01*
X3573Y94792D01*
X3541D01*
X3519Y94795D01*
X3472Y94802D01*
X3453Y94806D01*
X3435Y94810D01*
X3424Y94814D01*
X3421D01*
X3333Y94835D01*
X3253Y94850D01*
X3184Y94861D01*
X3126Y94868D01*
X3082Y94872D01*
X3049Y94875D01*
X3020D01*
X2955Y94872D01*
X2900Y94868D01*
X2856Y94861D01*
X2820Y94850D01*
X2794Y94839D01*
X2780Y94832D01*
X2769Y94828D01*
X2765Y94824D01*
X2743Y94802D01*
X2725Y94784D01*
X2714Y94759D01*
X2703Y94741D01*
X2700Y94722D01*
X2696Y94708D01*
Y94697D01*
Y94693D01*
Y94610D01*
X2773Y94621D01*
X2842Y94631D01*
X2904Y94639D01*
X2958Y94642D01*
X3002Y94646D01*
X3064D01*
X3137Y94642D01*
X3202Y94639D01*
X3268Y94628D01*
X3326Y94617D01*
X3381Y94602D01*
X3431Y94588D01*
X3479Y94570D01*
X3519Y94551D01*
X3555Y94533D01*
X3588Y94515D01*
X3617Y94500D01*
X3639Y94486D01*
X3657Y94475D01*
X3668Y94464D01*
X3675Y94460D01*
X3679Y94457D01*
X3719Y94420D01*
X3752Y94388D01*
X3781Y94351D01*
X3806Y94315D01*
X3828Y94282D01*
X3846Y94249D01*
X3872Y94187D01*
X3890Y94133D01*
X3897Y94093D01*
X3901Y94078D01*
Y94067D01*
Y94060D01*
Y94056D01*
X3897Y94024D01*
X3894Y93991D01*
X3872Y93929D01*
X3846Y93874D01*
X3814Y93823D01*
X3781Y93783D01*
X3752Y93754D01*
X3734Y93736D01*
X3730Y93729D01*
X3726D01*
X3657Y93681D01*
X3581Y93645D01*
X3508Y93620D01*
X3435Y93601D01*
X3373Y93590D01*
X3344Y93587D01*
X3322D01*
X3300Y93583D01*
X3275D01*
X3173Y93587D01*
X3126Y93594D01*
X3082Y93601D01*
X3042Y93605D01*
X3013Y93612D01*
X2995Y93616D01*
X2987D01*
X2929Y93630D01*
X2874Y93645D01*
X2823Y93663D01*
X2780Y93678D01*
X2747Y93696D01*
X2718Y93707D01*
X2703Y93714D01*
X2696Y93718D01*
Y93638D01*
X2292D01*
X2248Y93641D01*
X2208Y93645D01*
X2179Y93652D01*
X2154Y93663D01*
X2136Y93670D01*
X2121Y93678D01*
X2114Y93681D01*
X2110Y93685D01*
X2092Y93703D01*
X2077Y93725D01*
X2070Y93747D01*
X2063Y93765D01*
X2059Y93783D01*
X2056Y93798D01*
Y93805D01*
Y93809D01*
X2059Y93838D01*
X2063Y93860D01*
X2081Y93900D01*
X2092Y93914D01*
X2103Y93925D01*
X2107Y93929D01*
X2110Y93933D01*
X2132Y93951D01*
X2161Y93962D01*
X2223Y93976D01*
X2248Y93980D01*
X2270Y93984D01*
X2350D01*
Y94697D01*
X2354Y94741D01*
X2358Y94784D01*
X2379Y94861D01*
X2409Y94926D01*
X2441Y94981D01*
X2474Y95021D01*
X2503Y95054D01*
X2525Y95072D01*
X2529Y95079D01*
X2532D01*
X2605Y95126D01*
X2685Y95163D01*
X2769Y95188D01*
X2849Y95203D01*
X2922Y95214D01*
X2951Y95218D01*
X2976D01*
X3002Y95221D01*
X3031D01*
X3115Y95218D01*
D02*
G37*
G36*
X-13542Y95218D02*
X-13502Y95214D01*
X-13462Y95210D01*
X-13429Y95207D01*
X-13404Y95203D01*
X-13389Y95199D01*
X-13382D01*
X-13283Y95181D01*
X-13240Y95170D01*
X-13200Y95163D01*
X-13167Y95156D01*
X-13141Y95148D01*
X-13127Y95141D01*
X-13120D01*
X-13087Y95130D01*
X-13061Y95123D01*
X-13040Y95116D01*
X-13021Y95108D01*
X-13007Y95101D01*
X-13000Y95097D01*
X-12992Y95094D01*
X-12974Y95079D01*
X-12959Y95061D01*
X-12949Y95050D01*
X-12945Y95043D01*
X-12938Y95017D01*
X-12934Y94992D01*
X-12930Y94974D01*
Y94970D01*
Y94966D01*
X-12934Y94937D01*
X-12938Y94915D01*
X-12956Y94875D01*
X-12963Y94861D01*
X-12970Y94850D01*
X-12974Y94843D01*
X-12978Y94839D01*
X-12996Y94824D01*
X-13018Y94814D01*
X-13054Y94799D01*
X-13069Y94795D01*
X-13083Y94792D01*
X-13116D01*
X-13138Y94795D01*
X-13185Y94802D01*
X-13203Y94806D01*
X-13222Y94810D01*
X-13232Y94814D01*
X-13236D01*
X-13323Y94835D01*
X-13404Y94850D01*
X-13473Y94861D01*
X-13531Y94868D01*
X-13575Y94872D01*
X-13607Y94875D01*
X-13636D01*
X-13702Y94872D01*
X-13757Y94868D01*
X-13800Y94861D01*
X-13837Y94850D01*
X-13862Y94839D01*
X-13877Y94832D01*
X-13888Y94828D01*
X-13891Y94824D01*
X-13913Y94802D01*
X-13931Y94784D01*
X-13942Y94759D01*
X-13953Y94741D01*
X-13957Y94722D01*
X-13961Y94708D01*
Y94697D01*
Y94693D01*
Y94610D01*
X-13884Y94621D01*
X-13815Y94631D01*
X-13753Y94639D01*
X-13698Y94642D01*
X-13655Y94646D01*
X-13593D01*
X-13520Y94642D01*
X-13454Y94639D01*
X-13389Y94628D01*
X-13331Y94617D01*
X-13276Y94602D01*
X-13225Y94588D01*
X-13178Y94570D01*
X-13138Y94551D01*
X-13101Y94533D01*
X-13069Y94515D01*
X-13040Y94500D01*
X-13018Y94486D01*
X-13000Y94475D01*
X-12989Y94464D01*
X-12981Y94460D01*
X-12978Y94457D01*
X-12938Y94420D01*
X-12905Y94388D01*
X-12876Y94351D01*
X-12850Y94315D01*
X-12829Y94282D01*
X-12810Y94249D01*
X-12785Y94187D01*
X-12767Y94133D01*
X-12759Y94093D01*
X-12756Y94078D01*
Y94067D01*
Y94060D01*
Y94056D01*
X-12759Y94024D01*
X-12763Y93991D01*
X-12785Y93929D01*
X-12810Y93874D01*
X-12843Y93823D01*
X-12876Y93783D01*
X-12905Y93754D01*
X-12923Y93736D01*
X-12927Y93729D01*
X-12930D01*
X-13000Y93681D01*
X-13076Y93645D01*
X-13149Y93620D01*
X-13222Y93601D01*
X-13283Y93590D01*
X-13313Y93587D01*
X-13334D01*
X-13356Y93583D01*
X-13382D01*
X-13484Y93587D01*
X-13531Y93594D01*
X-13575Y93601D01*
X-13615Y93605D01*
X-13644Y93612D01*
X-13662Y93616D01*
X-13669D01*
X-13727Y93630D01*
X-13782Y93645D01*
X-13833Y93663D01*
X-13877Y93678D01*
X-13909Y93696D01*
X-13939Y93707D01*
X-13953Y93714D01*
X-13961Y93718D01*
Y93638D01*
X-14365D01*
X-14408Y93641D01*
X-14448Y93645D01*
X-14477Y93652D01*
X-14503Y93663D01*
X-14521Y93670D01*
X-14536Y93678D01*
X-14543Y93681D01*
X-14547Y93685D01*
X-14565Y93703D01*
X-14579Y93725D01*
X-14587Y93747D01*
X-14594Y93765D01*
X-14597Y93783D01*
X-14601Y93798D01*
Y93805D01*
Y93809D01*
X-14597Y93838D01*
X-14594Y93860D01*
X-14576Y93900D01*
X-14565Y93914D01*
X-14554Y93925D01*
X-14550Y93929D01*
X-14547Y93933D01*
X-14525Y93951D01*
X-14496Y93962D01*
X-14434Y93976D01*
X-14408Y93980D01*
X-14386Y93984D01*
X-14306D01*
Y94697D01*
X-14303Y94741D01*
X-14299Y94784D01*
X-14277Y94861D01*
X-14248Y94926D01*
X-14215Y94981D01*
X-14183Y95021D01*
X-14153Y95054D01*
X-14132Y95072D01*
X-14128Y95079D01*
X-14124D01*
X-14051Y95126D01*
X-13971Y95163D01*
X-13888Y95188D01*
X-13808Y95203D01*
X-13735Y95214D01*
X-13706Y95218D01*
X-13680D01*
X-13655Y95221D01*
X-13626D01*
X-13542Y95218D01*
D02*
G37*
G36*
X-4435Y95174D02*
X-4413Y95170D01*
X-4376Y95152D01*
X-4362Y95141D01*
X-4351Y95134D01*
X-4344Y95130D01*
X-4340Y95126D01*
X-4322Y95108D01*
X-4311Y95086D01*
X-4296Y95046D01*
X-4293Y95028D01*
X-4289Y95017D01*
Y95006D01*
Y95003D01*
X-4293Y94977D01*
X-4296Y94952D01*
X-4315Y94912D01*
X-4325Y94897D01*
X-4333Y94886D01*
X-4336Y94883D01*
X-4340Y94879D01*
X-4362Y94864D01*
X-4384Y94854D01*
X-4420Y94839D01*
X-4438Y94835D01*
X-4449Y94832D01*
X-4460D01*
X-4751Y93638D01*
X-5072D01*
X-5319Y94275D01*
X-5574Y93638D01*
X-5894D01*
X-6182Y94832D01*
X-6207Y94835D01*
X-6229Y94839D01*
X-6266Y94857D01*
X-6280Y94864D01*
X-6291Y94872D01*
X-6298Y94875D01*
X-6302Y94879D01*
X-6320Y94897D01*
X-6335Y94919D01*
X-6342Y94941D01*
X-6349Y94959D01*
X-6353Y94977D01*
X-6357Y94992D01*
Y94999D01*
Y95003D01*
X-6353Y95032D01*
X-6349Y95054D01*
X-6331Y95094D01*
X-6320Y95108D01*
X-6309Y95119D01*
X-6306Y95123D01*
X-6302Y95126D01*
X-6280Y95145D01*
X-6262Y95156D01*
X-6222Y95170D01*
X-6207Y95174D01*
X-6193Y95178D01*
X-5825D01*
X-5778Y95174D01*
X-5738Y95170D01*
X-5705Y95163D01*
X-5676Y95152D01*
X-5658Y95141D01*
X-5643Y95134D01*
X-5636Y95130D01*
X-5632Y95126D01*
X-5614Y95108D01*
X-5603Y95086D01*
X-5588Y95046D01*
X-5585Y95028D01*
X-5581Y95017D01*
Y95006D01*
Y95003D01*
X-5585Y94974D01*
X-5592Y94948D01*
X-5618Y94905D01*
X-5629Y94886D01*
X-5640Y94872D01*
X-5647Y94864D01*
X-5650Y94861D01*
X-5669Y94850D01*
X-5694Y94843D01*
X-5723Y94839D01*
X-5752Y94835D01*
X-5778Y94832D01*
X-5825D01*
X-5687Y94275D01*
X-5468Y94843D01*
X-5166D01*
X-4948Y94275D01*
X-4813Y94832D01*
X-4860Y94835D01*
X-4901Y94839D01*
X-4933Y94846D01*
X-4959Y94854D01*
X-4977Y94861D01*
X-4988Y94864D01*
X-4995Y94872D01*
X-4999D01*
X-5021Y94894D01*
X-5035Y94915D01*
X-5046Y94937D01*
X-5053Y94959D01*
X-5057Y94977D01*
X-5061Y94992D01*
Y94999D01*
Y95003D01*
X-5057Y95032D01*
X-5053Y95054D01*
X-5035Y95094D01*
X-5024Y95108D01*
X-5013Y95119D01*
X-5010Y95123D01*
X-5006Y95126D01*
X-4981Y95145D01*
X-4952Y95156D01*
X-4890Y95170D01*
X-4860Y95174D01*
X-4835Y95178D01*
X-4460D01*
X-4435Y95174D01*
D02*
G37*
G36*
X16346D02*
X16386Y95170D01*
X16415Y95163D01*
X16441Y95152D01*
X16459Y95141D01*
X16474Y95134D01*
X16481Y95130D01*
X16485Y95126D01*
X16503Y95108D01*
X16514Y95086D01*
X16528Y95046D01*
X16532Y95028D01*
X16535Y95017D01*
Y95006D01*
Y95003D01*
X16532Y94977D01*
X16528Y94952D01*
X16510Y94912D01*
X16499Y94897D01*
X16492Y94886D01*
X16488Y94883D01*
X16485Y94879D01*
X16463Y94864D01*
X16433Y94854D01*
X16372Y94839D01*
X16346Y94835D01*
X16324Y94832D01*
X16303D01*
X15698Y93645D01*
X15895Y93259D01*
X16241D01*
X16284Y93256D01*
X16324Y93252D01*
X16357Y93245D01*
X16383Y93237D01*
X16401Y93226D01*
X16415Y93219D01*
X16423Y93216D01*
X16426Y93212D01*
X16444Y93194D01*
X16455Y93172D01*
X16470Y93132D01*
X16474Y93114D01*
X16477Y93103D01*
Y93092D01*
Y93088D01*
X16474Y93063D01*
X16470Y93037D01*
X16452Y92997D01*
X16441Y92983D01*
X16433Y92972D01*
X16430Y92968D01*
X16426Y92964D01*
X16401Y92946D01*
X16375Y92935D01*
X16313Y92921D01*
X16284Y92917D01*
X16262Y92913D01*
X15378D01*
X15331Y92917D01*
X15294Y92921D01*
X15261Y92928D01*
X15236Y92939D01*
X15218Y92950D01*
X15203Y92957D01*
X15196Y92961D01*
X15192Y92964D01*
X15174Y92983D01*
X15159Y93004D01*
X15152Y93026D01*
X15145Y93044D01*
X15141Y93063D01*
X15138Y93077D01*
Y93085D01*
Y93088D01*
X15141Y93117D01*
X15156Y93146D01*
X15170Y93176D01*
X15192Y93201D01*
X15211Y93226D01*
X15229Y93245D01*
X15243Y93256D01*
X15247Y93259D01*
X15509D01*
X14708Y94832D01*
X14664Y94835D01*
X14624Y94839D01*
X14595Y94846D01*
X14570Y94857D01*
X14552Y94864D01*
X14537Y94872D01*
X14530Y94875D01*
X14526Y94879D01*
X14508Y94897D01*
X14493Y94919D01*
X14486Y94941D01*
X14479Y94959D01*
X14475Y94977D01*
X14471Y94992D01*
Y94999D01*
Y95003D01*
X14475Y95032D01*
X14479Y95054D01*
X14497Y95094D01*
X14508Y95108D01*
X14519Y95119D01*
X14523Y95123D01*
X14526Y95126D01*
X14548Y95145D01*
X14577Y95156D01*
X14639Y95170D01*
X14664Y95174D01*
X14686Y95178D01*
X15098D01*
X15141Y95174D01*
X15181Y95170D01*
X15211Y95163D01*
X15236Y95152D01*
X15254Y95141D01*
X15269Y95134D01*
X15276Y95130D01*
X15280Y95126D01*
X15298Y95108D01*
X15309Y95086D01*
X15323Y95046D01*
X15327Y95028D01*
X15331Y95017D01*
Y95006D01*
Y95003D01*
X15327Y94977D01*
X15323Y94952D01*
X15305Y94912D01*
X15294Y94897D01*
X15287Y94886D01*
X15283Y94883D01*
X15280Y94879D01*
X15258Y94864D01*
X15229Y94854D01*
X15167Y94839D01*
X15141Y94835D01*
X15120Y94832D01*
X15098D01*
X15505Y94027D01*
X15913Y94832D01*
X15869Y94835D01*
X15829Y94839D01*
X15800Y94846D01*
X15775Y94857D01*
X15756Y94864D01*
X15742Y94872D01*
X15735Y94875D01*
X15731Y94879D01*
X15713Y94897D01*
X15698Y94919D01*
X15691Y94941D01*
X15684Y94959D01*
X15680Y94977D01*
X15676Y94992D01*
Y94999D01*
Y95003D01*
X15680Y95032D01*
X15684Y95054D01*
X15702Y95094D01*
X15713Y95108D01*
X15724Y95119D01*
X15727Y95123D01*
X15731Y95126D01*
X15753Y95145D01*
X15782Y95156D01*
X15844Y95170D01*
X15869Y95174D01*
X15891Y95178D01*
X16303D01*
X16346Y95174D01*
D02*
G37*
G36*
X-2950Y95720D02*
X-2924Y95716D01*
X-2884Y95698D01*
X-2869Y95687D01*
X-2858Y95676D01*
X-2855Y95673D01*
X-2851Y95669D01*
X-2837Y95647D01*
X-2826Y95618D01*
X-2811Y95560D01*
X-2808Y95534D01*
X-2804Y95512D01*
Y95498D01*
Y95490D01*
Y95178D01*
X-2677D01*
X-2633Y95174D01*
X-2596Y95170D01*
X-2567Y95163D01*
X-2542Y95152D01*
X-2524Y95141D01*
X-2509Y95134D01*
X-2502Y95130D01*
X-2498Y95126D01*
X-2480Y95108D01*
X-2469Y95086D01*
X-2454Y95046D01*
X-2451Y95028D01*
X-2447Y95017D01*
Y95006D01*
Y95003D01*
X-2451Y94977D01*
X-2454Y94952D01*
X-2473Y94912D01*
X-2484Y94897D01*
X-2491Y94886D01*
X-2495Y94883D01*
X-2498Y94879D01*
X-2520Y94864D01*
X-2549Y94854D01*
X-2607Y94839D01*
X-2633Y94835D01*
X-2655Y94832D01*
X-2804D01*
Y94064D01*
X-2808Y94027D01*
X-2811Y93991D01*
X-2829Y93925D01*
X-2855Y93867D01*
X-2884Y93816D01*
X-2913Y93776D01*
X-2939Y93747D01*
X-2957Y93729D01*
X-2964Y93721D01*
X-2997Y93696D01*
X-3030Y93674D01*
X-3106Y93641D01*
X-3186Y93616D01*
X-3266Y93601D01*
X-3339Y93590D01*
X-3368Y93587D01*
X-3394D01*
X-3419Y93583D01*
X-3448D01*
X-3514Y93587D01*
X-3583Y93594D01*
X-3652Y93605D01*
X-3717Y93616D01*
X-3772Y93627D01*
X-3798Y93634D01*
X-3819Y93638D01*
X-3838Y93641D01*
X-3849Y93645D01*
X-3856Y93649D01*
X-3859D01*
X-3903Y93660D01*
X-3943Y93674D01*
X-4016Y93700D01*
X-4074Y93725D01*
X-4118Y93747D01*
X-4151Y93765D01*
X-4172Y93780D01*
X-4187Y93791D01*
X-4191Y93794D01*
X-4209Y93813D01*
X-4223Y93834D01*
X-4231Y93853D01*
X-4238Y93871D01*
X-4242Y93885D01*
X-4245Y93900D01*
Y93907D01*
Y93911D01*
X-4242Y93936D01*
X-4238Y93962D01*
X-4220Y94002D01*
X-4209Y94016D01*
X-4202Y94027D01*
X-4198Y94031D01*
X-4194Y94034D01*
X-4176Y94053D01*
X-4154Y94064D01*
X-4114Y94078D01*
X-4100Y94082D01*
X-4085Y94086D01*
X-4074D01*
X-4056Y94082D01*
X-4034Y94078D01*
X-3991Y94064D01*
X-3969Y94053D01*
X-3954Y94045D01*
X-3943Y94042D01*
X-3940Y94038D01*
X-3852Y94002D01*
X-3768Y93976D01*
X-3685Y93954D01*
X-3608Y93944D01*
X-3543Y93936D01*
X-3517Y93933D01*
X-3492D01*
X-3474Y93929D01*
X-3448D01*
X-3386Y93933D01*
X-3332Y93936D01*
X-3288Y93947D01*
X-3252Y93958D01*
X-3226Y93965D01*
X-3208Y93976D01*
X-3197Y93980D01*
X-3193Y93984D01*
X-3179Y94002D01*
X-3168Y94024D01*
X-3157Y94071D01*
X-3153Y94096D01*
X-3150Y94115D01*
Y94129D01*
Y94133D01*
Y94832D01*
X-3790D01*
X-3834Y94835D01*
X-3870Y94839D01*
X-3900Y94846D01*
X-3925Y94857D01*
X-3943Y94864D01*
X-3958Y94872D01*
X-3965Y94875D01*
X-3969Y94879D01*
X-3987Y94897D01*
X-4001Y94919D01*
X-4009Y94941D01*
X-4016Y94959D01*
X-4020Y94977D01*
X-4023Y94992D01*
Y94999D01*
Y95003D01*
X-4020Y95032D01*
X-4016Y95054D01*
X-3998Y95094D01*
X-3987Y95108D01*
X-3976Y95119D01*
X-3972Y95123D01*
X-3969Y95126D01*
X-3947Y95145D01*
X-3918Y95156D01*
X-3859Y95170D01*
X-3834Y95174D01*
X-3812Y95178D01*
X-3150D01*
Y95490D01*
X-3146Y95534D01*
X-3142Y95571D01*
X-3135Y95600D01*
X-3124Y95625D01*
X-3113Y95643D01*
X-3106Y95658D01*
X-3102Y95665D01*
X-3099Y95669D01*
X-3080Y95687D01*
X-3059Y95702D01*
X-3040Y95709D01*
X-3019Y95716D01*
X-3001Y95720D01*
X-2990Y95723D01*
X-2975D01*
X-2950Y95720D01*
D02*
G37*
G36*
X13918Y95174D02*
X13958Y95170D01*
X13991Y95163D01*
X14017Y95152D01*
X14035Y95141D01*
X14049Y95134D01*
X14057Y95130D01*
X14060Y95126D01*
X14078Y95108D01*
X14089Y95086D01*
X14104Y95046D01*
X14108Y95028D01*
X14111Y95017D01*
Y95006D01*
Y95003D01*
X14108Y94977D01*
X14104Y94952D01*
X14086Y94912D01*
X14075Y94897D01*
X14067Y94886D01*
X14064Y94883D01*
X14060Y94879D01*
X14035Y94864D01*
X14009Y94854D01*
X13947Y94839D01*
X13918Y94835D01*
X13896Y94832D01*
X13594D01*
Y93984D01*
X14009D01*
X14053Y93980D01*
X14093Y93976D01*
X14126Y93969D01*
X14151Y93958D01*
X14169Y93947D01*
X14184Y93940D01*
X14191Y93936D01*
X14195Y93933D01*
X14213Y93914D01*
X14224Y93893D01*
X14239Y93853D01*
X14242Y93834D01*
X14246Y93823D01*
Y93813D01*
Y93809D01*
X14242Y93783D01*
X14239Y93758D01*
X14220Y93718D01*
X14209Y93703D01*
X14202Y93692D01*
X14199Y93689D01*
X14195Y93685D01*
X14169Y93670D01*
X14144Y93660D01*
X14082Y93645D01*
X14053Y93641D01*
X14031Y93638D01*
X12833D01*
X12790Y93641D01*
X12750Y93645D01*
X12721Y93652D01*
X12695Y93663D01*
X12677Y93670D01*
X12663Y93678D01*
X12655Y93681D01*
X12652Y93685D01*
X12633Y93703D01*
X12619Y93725D01*
X12611Y93747D01*
X12604Y93765D01*
X12601Y93783D01*
X12597Y93798D01*
Y93805D01*
Y93809D01*
X12601Y93838D01*
X12604Y93860D01*
X12622Y93900D01*
X12633Y93914D01*
X12644Y93925D01*
X12648Y93929D01*
X12652Y93933D01*
X12673Y93951D01*
X12702Y93962D01*
X12764Y93976D01*
X12790Y93980D01*
X12812Y93984D01*
X13249D01*
Y95178D01*
X13875D01*
X13918Y95174D01*
D02*
G37*
G36*
X11330Y95214D02*
X11374Y95207D01*
X11410Y95199D01*
X11439Y95192D01*
X11465Y95185D01*
X11479Y95181D01*
X11483Y95178D01*
X11523Y95159D01*
X11563Y95141D01*
X11600Y95123D01*
X11629Y95101D01*
X11654Y95086D01*
X11672Y95072D01*
X11687Y95061D01*
X11691Y95057D01*
Y95178D01*
X12036D01*
X12080Y95174D01*
X12120Y95170D01*
X12153Y95163D01*
X12178Y95152D01*
X12197Y95141D01*
X12211Y95134D01*
X12218Y95130D01*
X12222Y95126D01*
X12240Y95108D01*
X12251Y95086D01*
X12266Y95046D01*
X12269Y95028D01*
X12273Y95017D01*
Y95006D01*
Y95003D01*
X12269Y94977D01*
X12266Y94952D01*
X12247Y94912D01*
X12237Y94897D01*
X12229Y94886D01*
X12226Y94883D01*
X12222Y94879D01*
X12197Y94864D01*
X12171Y94854D01*
X12109Y94839D01*
X12080Y94835D01*
X12058Y94832D01*
X12036D01*
Y93984D01*
X12080D01*
X12116Y93980D01*
X12146Y93973D01*
X12167Y93969D01*
X12186Y93962D01*
X12197Y93954D01*
X12200Y93951D01*
X12204D01*
X12226Y93925D01*
X12244Y93900D01*
X12255Y93878D01*
X12266Y93856D01*
X12269Y93838D01*
X12273Y93823D01*
Y93813D01*
Y93809D01*
X12269Y93783D01*
X12266Y93758D01*
X12247Y93718D01*
X12237Y93703D01*
X12229Y93692D01*
X12226Y93689D01*
X12222Y93685D01*
X12197Y93670D01*
X12171Y93660D01*
X12109Y93645D01*
X12080Y93641D01*
X12058Y93638D01*
X11691D01*
X11647Y93641D01*
X11607Y93645D01*
X11578Y93652D01*
X11552Y93663D01*
X11534Y93670D01*
X11519Y93678D01*
X11512Y93681D01*
X11509Y93685D01*
X11490Y93703D01*
X11476Y93725D01*
X11469Y93747D01*
X11461Y93765D01*
X11458Y93783D01*
X11454Y93798D01*
Y93805D01*
Y93809D01*
X11458Y93838D01*
X11465Y93863D01*
X11490Y93907D01*
X11505Y93925D01*
X11516Y93940D01*
X11523Y93947D01*
X11527Y93951D01*
X11545Y93962D01*
X11567Y93969D01*
X11621Y93980D01*
X11647Y93984D01*
X11691D01*
Y94628D01*
X11640Y94679D01*
X11596Y94722D01*
X11556Y94759D01*
X11523Y94784D01*
X11498Y94806D01*
X11476Y94817D01*
X11465Y94824D01*
X11461Y94828D01*
X11425Y94843D01*
X11389Y94857D01*
X11356Y94864D01*
X11323Y94868D01*
X11294Y94872D01*
X11272Y94875D01*
X11250D01*
X11192Y94872D01*
X11145Y94864D01*
X11105Y94854D01*
X11068Y94843D01*
X11043Y94828D01*
X11024Y94817D01*
X11013Y94810D01*
X11010Y94806D01*
X10988Y94784D01*
X10973Y94759D01*
X10963Y94730D01*
X10955Y94701D01*
X10952Y94679D01*
X10948Y94657D01*
Y94642D01*
Y94639D01*
Y93984D01*
X10992Y93980D01*
X11032Y93976D01*
X11065Y93969D01*
X11090Y93958D01*
X11108Y93947D01*
X11123Y93940D01*
X11130Y93936D01*
X11134Y93933D01*
X11152Y93914D01*
X11163Y93893D01*
X11177Y93853D01*
X11181Y93834D01*
X11185Y93823D01*
Y93813D01*
Y93809D01*
X11181Y93783D01*
X11177Y93758D01*
X11159Y93718D01*
X11148Y93703D01*
X11141Y93692D01*
X11137Y93689D01*
X11134Y93685D01*
X11108Y93670D01*
X11083Y93660D01*
X11021Y93645D01*
X10992Y93641D01*
X10970Y93638D01*
X10602D01*
X10559Y93641D01*
X10519Y93645D01*
X10489Y93652D01*
X10464Y93663D01*
X10446Y93670D01*
X10431Y93678D01*
X10424Y93681D01*
X10420Y93685D01*
X10402Y93703D01*
X10387Y93725D01*
X10380Y93747D01*
X10373Y93765D01*
X10369Y93783D01*
X10366Y93798D01*
Y93805D01*
Y93809D01*
X10369Y93838D01*
X10373Y93860D01*
X10391Y93900D01*
X10402Y93914D01*
X10413Y93925D01*
X10417Y93929D01*
X10420Y93933D01*
X10442Y93951D01*
X10471Y93962D01*
X10533Y93976D01*
X10559Y93980D01*
X10580Y93984D01*
X10602D01*
Y94628D01*
X10610Y94715D01*
X10624Y94795D01*
X10650Y94864D01*
X10675Y94923D01*
X10701Y94966D01*
X10726Y94999D01*
X10741Y95021D01*
X10748Y95028D01*
X10784Y95061D01*
X10821Y95094D01*
X10861Y95119D01*
X10901Y95141D01*
X10981Y95174D01*
X11057Y95196D01*
X11126Y95210D01*
X11159Y95214D01*
X11185Y95218D01*
X11207Y95221D01*
X11287D01*
X11330Y95214D01*
D02*
G37*
G36*
X-15231Y95174D02*
X-15191Y95170D01*
X-15158Y95163D01*
X-15133Y95152D01*
X-15114Y95141D01*
X-15100Y95134D01*
X-15092Y95130D01*
X-15089Y95126D01*
X-15071Y95108D01*
X-15060Y95086D01*
X-15045Y95046D01*
X-15042Y95028D01*
X-15038Y95017D01*
Y95006D01*
Y95003D01*
X-15042Y94977D01*
X-15045Y94952D01*
X-15063Y94912D01*
X-15074Y94897D01*
X-15082Y94886D01*
X-15085Y94883D01*
X-15089Y94879D01*
X-15114Y94864D01*
X-15140Y94854D01*
X-15202Y94839D01*
X-15231Y94835D01*
X-15253Y94832D01*
X-15555D01*
Y93984D01*
X-15140D01*
X-15096Y93980D01*
X-15056Y93976D01*
X-15023Y93969D01*
X-14998Y93958D01*
X-14980Y93947D01*
X-14965Y93940D01*
X-14958Y93936D01*
X-14954Y93933D01*
X-14936Y93914D01*
X-14925Y93893D01*
X-14910Y93853D01*
X-14907Y93834D01*
X-14903Y93823D01*
Y93813D01*
Y93809D01*
X-14907Y93783D01*
X-14910Y93758D01*
X-14929Y93718D01*
X-14940Y93703D01*
X-14947Y93692D01*
X-14951Y93689D01*
X-14954Y93685D01*
X-14980Y93670D01*
X-15005Y93660D01*
X-15067Y93645D01*
X-15096Y93641D01*
X-15118Y93638D01*
X-16316D01*
X-16359Y93641D01*
X-16399Y93645D01*
X-16428Y93652D01*
X-16454Y93663D01*
X-16472Y93670D01*
X-16487Y93678D01*
X-16494Y93681D01*
X-16498Y93685D01*
X-16516Y93703D01*
X-16530Y93725D01*
X-16538Y93747D01*
X-16545Y93765D01*
X-16548Y93783D01*
X-16552Y93798D01*
Y93805D01*
Y93809D01*
X-16548Y93838D01*
X-16545Y93860D01*
X-16527Y93900D01*
X-16516Y93914D01*
X-16505Y93925D01*
X-16501Y93929D01*
X-16498Y93933D01*
X-16476Y93951D01*
X-16447Y93962D01*
X-16385Y93976D01*
X-16359Y93980D01*
X-16337Y93984D01*
X-15901D01*
Y95178D01*
X-15274D01*
X-15231Y95174D01*
D02*
G37*
G36*
X-17313Y95833D02*
X-17273Y95829D01*
X-17240Y95822D01*
X-17215Y95811D01*
X-17196Y95800D01*
X-17182Y95793D01*
X-17175Y95789D01*
X-17171Y95785D01*
X-17153Y95767D01*
X-17142Y95745D01*
X-17127Y95705D01*
X-17124Y95687D01*
X-17120Y95676D01*
Y95665D01*
Y95662D01*
X-17124Y95636D01*
X-17127Y95611D01*
X-17145Y95571D01*
X-17156Y95556D01*
X-17164Y95545D01*
X-17167Y95542D01*
X-17171Y95538D01*
X-17196Y95523D01*
X-17222Y95512D01*
X-17284Y95498D01*
X-17313Y95494D01*
X-17335Y95490D01*
X-17637D01*
Y93984D01*
X-17222D01*
X-17178Y93980D01*
X-17138Y93976D01*
X-17105Y93969D01*
X-17080Y93958D01*
X-17062Y93947D01*
X-17047Y93940D01*
X-17040Y93936D01*
X-17036Y93933D01*
X-17018Y93914D01*
X-17007Y93893D01*
X-16993Y93853D01*
X-16989Y93834D01*
X-16985Y93823D01*
Y93813D01*
Y93809D01*
X-16989Y93783D01*
X-16993Y93758D01*
X-17011Y93718D01*
X-17022Y93703D01*
X-17029Y93692D01*
X-17033Y93689D01*
X-17036Y93685D01*
X-17062Y93670D01*
X-17087Y93660D01*
X-17149Y93645D01*
X-17178Y93641D01*
X-17200Y93638D01*
X-18398D01*
X-18441Y93641D01*
X-18481Y93645D01*
X-18510Y93652D01*
X-18536Y93663D01*
X-18554Y93670D01*
X-18569Y93678D01*
X-18576Y93681D01*
X-18580Y93685D01*
X-18598Y93703D01*
X-18612Y93725D01*
X-18620Y93747D01*
X-18627Y93765D01*
X-18631Y93783D01*
X-18634Y93798D01*
Y93805D01*
Y93809D01*
X-18631Y93838D01*
X-18627Y93860D01*
X-18609Y93900D01*
X-18598Y93914D01*
X-18587Y93925D01*
X-18583Y93929D01*
X-18580Y93933D01*
X-18558Y93951D01*
X-18529Y93962D01*
X-18467Y93976D01*
X-18441Y93980D01*
X-18419Y93984D01*
X-17983D01*
Y95836D01*
X-17357D01*
X-17313Y95833D01*
D02*
G37*
G36*
X-7339Y95884D02*
X-7281Y95876D01*
X-7226Y95862D01*
X-7175Y95844D01*
X-7128Y95822D01*
X-7085Y95796D01*
X-7045Y95771D01*
X-7008Y95745D01*
X-6975Y95716D01*
X-6946Y95691D01*
X-6924Y95665D01*
X-6903Y95643D01*
X-6888Y95625D01*
X-6877Y95611D01*
X-6870Y95603D01*
X-6866Y95600D01*
X-6830Y95545D01*
X-6801Y95487D01*
X-6775Y95432D01*
X-6750Y95370D01*
X-6713Y95258D01*
X-6691Y95148D01*
X-6684Y95097D01*
X-6677Y95054D01*
X-6673Y95010D01*
X-6670Y94977D01*
X-6666Y94948D01*
Y94926D01*
Y94912D01*
Y94908D01*
Y94351D01*
X-6670Y94257D01*
X-6680Y94165D01*
X-6695Y94078D01*
X-6713Y94002D01*
X-6720Y93965D01*
X-6728Y93936D01*
X-6735Y93907D01*
X-6742Y93885D01*
X-6750Y93867D01*
X-6753Y93853D01*
X-6757Y93845D01*
Y93842D01*
X-6797Y93751D01*
X-6841Y93674D01*
X-6884Y93605D01*
X-6932Y93550D01*
X-6972Y93507D01*
X-7008Y93478D01*
X-7030Y93459D01*
X-7034Y93452D01*
X-7037D01*
X-7095Y93419D01*
X-7157Y93394D01*
X-7219Y93376D01*
X-7277Y93365D01*
X-7328Y93357D01*
X-7368Y93350D01*
X-7405D01*
X-7507Y93354D01*
X-7601Y93368D01*
X-7678Y93387D01*
X-7747Y93408D01*
X-7798Y93430D01*
X-7820Y93441D01*
X-7834Y93449D01*
X-7849Y93456D01*
X-7860Y93463D01*
X-7863Y93467D01*
X-7867D01*
X-7907Y93496D01*
X-7936Y93525D01*
X-7954Y93554D01*
X-7969Y93580D01*
X-7976Y93601D01*
X-7984Y93616D01*
Y93627D01*
Y93630D01*
Y93649D01*
X-7976Y93667D01*
X-7965Y93696D01*
X-7951Y93714D01*
X-7947Y93721D01*
X-7944D01*
X-7929Y93736D01*
X-7914Y93743D01*
X-7885Y93758D01*
X-7863Y93761D01*
X-7853D01*
X-7834Y93758D01*
X-7820Y93754D01*
X-7791Y93736D01*
X-7765Y93718D01*
X-7762Y93714D01*
X-7758Y93711D01*
X-7736Y93692D01*
X-7714Y93678D01*
X-7667Y93652D01*
X-7649Y93645D01*
X-7631Y93638D01*
X-7620Y93634D01*
X-7616D01*
X-7547Y93616D01*
X-7514Y93612D01*
X-7481Y93609D01*
X-7456Y93605D01*
X-7416D01*
X-7343Y93612D01*
X-7277Y93627D01*
X-7223Y93652D01*
X-7179Y93681D01*
X-7143Y93707D01*
X-7117Y93732D01*
X-7099Y93747D01*
X-7095Y93754D01*
X-7066Y93798D01*
X-7037Y93845D01*
X-6994Y93947D01*
X-6964Y94053D01*
X-6943Y94151D01*
X-6935Y94198D01*
X-6932Y94242D01*
X-6924Y94278D01*
Y94311D01*
X-6921Y94340D01*
Y94358D01*
Y94373D01*
Y94377D01*
Y94890D01*
X-6924Y94974D01*
X-6935Y95057D01*
X-6950Y95134D01*
X-6968Y95199D01*
X-6986Y95258D01*
X-6994Y95283D01*
X-7001Y95301D01*
X-7008Y95319D01*
X-7012Y95330D01*
X-7015Y95338D01*
Y95341D01*
X-7037Y95389D01*
X-7063Y95429D01*
X-7092Y95461D01*
X-7117Y95494D01*
X-7139Y95516D01*
X-7157Y95534D01*
X-7172Y95545D01*
X-7175Y95549D01*
X-7216Y95578D01*
X-7259Y95596D01*
X-7296Y95611D01*
X-7332Y95622D01*
X-7361Y95629D01*
X-7383Y95632D01*
X-7405D01*
X-7459Y95629D01*
X-7510Y95618D01*
X-7550Y95600D01*
X-7587Y95582D01*
X-7616Y95560D01*
X-7638Y95545D01*
X-7652Y95531D01*
X-7656Y95527D01*
X-7689Y95487D01*
X-7714Y95443D01*
X-7729Y95396D01*
X-7743Y95352D01*
X-7751Y95312D01*
X-7754Y95283D01*
Y95261D01*
Y95258D01*
Y95254D01*
Y95148D01*
X-7652Y95134D01*
X-7561Y95112D01*
X-7481Y95079D01*
X-7416Y95046D01*
X-7365Y95017D01*
X-7343Y95003D01*
X-7325Y94988D01*
X-7314Y94977D01*
X-7303Y94970D01*
X-7299Y94966D01*
X-7296Y94963D01*
X-7266Y94934D01*
X-7241Y94901D01*
X-7201Y94835D01*
X-7172Y94773D01*
X-7154Y94715D01*
X-7139Y94664D01*
X-7136Y94624D01*
X-7132Y94610D01*
Y94599D01*
Y94591D01*
Y94588D01*
X-7139Y94515D01*
X-7154Y94446D01*
X-7179Y94388D01*
X-7208Y94337D01*
X-7234Y94293D01*
X-7259Y94260D01*
X-7274Y94242D01*
X-7281Y94235D01*
X-7339Y94184D01*
X-7401Y94147D01*
X-7459Y94122D01*
X-7514Y94104D01*
X-7561Y94093D01*
X-7601Y94089D01*
X-7616Y94086D01*
X-7652D01*
X-7671Y94089D01*
X-7711Y94093D01*
X-7725D01*
X-7740Y94096D01*
X-7754D01*
Y94086D01*
X-7936D01*
X-7965Y94093D01*
X-7987Y94096D01*
X-8005Y94104D01*
X-8020Y94111D01*
X-8031Y94115D01*
X-8038Y94122D01*
X-8053Y94136D01*
X-8064Y94151D01*
X-8078Y94184D01*
X-8082Y94206D01*
Y94213D01*
Y94217D01*
X-8078Y94246D01*
X-8071Y94267D01*
X-8060Y94289D01*
X-8045Y94304D01*
X-8031Y94318D01*
X-8020Y94326D01*
X-8013Y94333D01*
X-8009D01*
Y95258D01*
X-8005Y95327D01*
X-7994Y95392D01*
X-7980Y95451D01*
X-7962Y95501D01*
X-7944Y95545D01*
X-7929Y95578D01*
X-7918Y95596D01*
X-7914Y95603D01*
X-7878Y95658D01*
X-7838Y95705D01*
X-7802Y95742D01*
X-7765Y95771D01*
X-7733Y95793D01*
X-7707Y95811D01*
X-7692Y95818D01*
X-7685Y95822D01*
X-7634Y95844D01*
X-7583Y95858D01*
X-7536Y95873D01*
X-7492Y95880D01*
X-7456Y95884D01*
X-7427Y95887D01*
X-7401D01*
X-7339Y95884D01*
D02*
G37*
G36*
X1015Y95218D02*
X1094Y95203D01*
X1171Y95185D01*
X1240Y95163D01*
X1298Y95141D01*
X1320Y95130D01*
X1342Y95123D01*
X1357Y95116D01*
X1367Y95108D01*
X1375Y95105D01*
X1378D01*
X1455Y95057D01*
X1520Y95006D01*
X1579Y94952D01*
X1626Y94905D01*
X1662Y94857D01*
X1688Y94821D01*
X1699Y94806D01*
X1702Y94795D01*
X1710Y94792D01*
Y94788D01*
X1746Y94712D01*
X1775Y94639D01*
X1793Y94570D01*
X1808Y94508D01*
X1815Y94457D01*
X1819Y94417D01*
X1823Y94402D01*
Y94391D01*
Y94384D01*
Y94380D01*
X1819Y94304D01*
X1804Y94235D01*
X1786Y94165D01*
X1764Y94107D01*
X1746Y94056D01*
X1728Y94020D01*
X1721Y94005D01*
X1713Y93994D01*
X1710Y93991D01*
Y93987D01*
X1662Y93922D01*
X1611Y93860D01*
X1557Y93809D01*
X1502Y93769D01*
X1455Y93732D01*
X1419Y93711D01*
X1404Y93700D01*
X1393Y93692D01*
X1386Y93689D01*
X1382D01*
X1298Y93652D01*
X1218Y93627D01*
X1142Y93609D01*
X1073Y93598D01*
X1015Y93590D01*
X989Y93587D01*
X967Y93583D01*
X927D01*
X840Y93587D01*
X752Y93601D01*
X676Y93620D01*
X607Y93638D01*
X549Y93660D01*
X527Y93667D01*
X505Y93674D01*
X490Y93681D01*
X479Y93689D01*
X472Y93692D01*
X469D01*
X392Y93736D01*
X323Y93783D01*
X265Y93834D01*
X221Y93882D01*
X184Y93922D01*
X159Y93958D01*
X141Y93980D01*
X137Y93984D01*
Y93987D01*
X101Y94060D01*
X72Y94129D01*
X53Y94195D01*
X39Y94253D01*
X32Y94304D01*
X24Y94344D01*
Y94358D01*
Y94369D01*
Y94373D01*
Y94377D01*
X28Y94453D01*
X43Y94529D01*
X61Y94599D01*
X79Y94661D01*
X101Y94712D01*
X119Y94752D01*
X126Y94766D01*
X134Y94777D01*
X137Y94781D01*
Y94784D01*
X184Y94857D01*
X236Y94919D01*
X294Y94974D01*
X348Y95017D01*
X396Y95054D01*
X436Y95079D01*
X450Y95090D01*
X461Y95097D01*
X469Y95101D01*
X472D01*
X556Y95141D01*
X636Y95170D01*
X712Y95192D01*
X781Y95207D01*
X840Y95214D01*
X865Y95218D01*
X887Y95221D01*
X927D01*
X1015Y95218D01*
D02*
G37*
G36*
X-1111Y94042D02*
X-1075Y94034D01*
X-1042Y94024D01*
X-1017Y94013D01*
X-995Y93998D01*
X-980Y93987D01*
X-969Y93980D01*
X-966Y93976D01*
X-944Y93951D01*
X-926Y93922D01*
X-915Y93896D01*
X-904Y93871D01*
X-900Y93849D01*
X-896Y93831D01*
Y93816D01*
Y93813D01*
X-900Y93776D01*
X-907Y93747D01*
X-918Y93718D01*
X-933Y93692D01*
X-944Y93674D01*
X-955Y93660D01*
X-962Y93652D01*
X-966Y93649D01*
X-995Y93627D01*
X-1024Y93612D01*
X-1057Y93598D01*
X-1086Y93590D01*
X-1115Y93587D01*
X-1137Y93583D01*
X-1155D01*
X-1199Y93587D01*
X-1235Y93594D01*
X-1268Y93605D01*
X-1293Y93616D01*
X-1315Y93627D01*
X-1333Y93638D01*
X-1341Y93645D01*
X-1344Y93649D01*
X-1370Y93674D01*
X-1388Y93703D01*
X-1399Y93729D01*
X-1410Y93754D01*
X-1413Y93780D01*
X-1417Y93798D01*
Y93809D01*
Y93813D01*
X-1413Y93849D01*
X-1406Y93878D01*
X-1395Y93907D01*
X-1381Y93933D01*
X-1366Y93951D01*
X-1355Y93965D01*
X-1348Y93973D01*
X-1344Y93976D01*
X-1315Y93998D01*
X-1286Y94016D01*
X-1253Y94027D01*
X-1224Y94038D01*
X-1195Y94042D01*
X-1173Y94045D01*
X-1155D01*
X-1111Y94042D01*
D02*
G37*
G36*
X-19850Y94042D02*
X-19814Y94034D01*
X-19781Y94024D01*
X-19755Y94013D01*
X-19734Y93998D01*
X-19719Y93987D01*
X-19708Y93980D01*
X-19704Y93976D01*
X-19683Y93951D01*
X-19664Y93922D01*
X-19654Y93896D01*
X-19643Y93871D01*
X-19639Y93849D01*
X-19635Y93831D01*
Y93816D01*
Y93813D01*
X-19639Y93776D01*
X-19646Y93747D01*
X-19657Y93718D01*
X-19672Y93692D01*
X-19683Y93674D01*
X-19693Y93660D01*
X-19701Y93652D01*
X-19704Y93649D01*
X-19734Y93627D01*
X-19763Y93612D01*
X-19795Y93598D01*
X-19825Y93590D01*
X-19854Y93587D01*
X-19875Y93583D01*
X-19894D01*
X-19937Y93587D01*
X-19974Y93594D01*
X-20007Y93605D01*
X-20032Y93616D01*
X-20054Y93627D01*
X-20072Y93638D01*
X-20079Y93645D01*
X-20083Y93649D01*
X-20108Y93674D01*
X-20127Y93703D01*
X-20138Y93729D01*
X-20148Y93754D01*
X-20152Y93780D01*
X-20156Y93798D01*
Y93809D01*
Y93813D01*
X-20152Y93849D01*
X-20145Y93878D01*
X-20134Y93907D01*
X-20119Y93933D01*
X-20105Y93951D01*
X-20094Y93965D01*
X-20087Y93973D01*
X-20083Y93976D01*
X-20054Y93998D01*
X-20025Y94016D01*
X-19992Y94027D01*
X-19963Y94038D01*
X-19934Y94042D01*
X-19912Y94045D01*
X-19894D01*
X-19850Y94042D01*
D02*
G37*
G36*
X-23970Y95218D02*
X-23890Y95203D01*
X-23814Y95185D01*
X-23745Y95163D01*
X-23687Y95141D01*
X-23665Y95130D01*
X-23643Y95123D01*
X-23628Y95116D01*
X-23617Y95108D01*
X-23610Y95105D01*
X-23607D01*
X-23530Y95057D01*
X-23464Y95006D01*
X-23406Y94952D01*
X-23359Y94905D01*
X-23323Y94857D01*
X-23297Y94821D01*
X-23286Y94806D01*
X-23282Y94795D01*
X-23275Y94792D01*
Y94788D01*
X-23239Y94712D01*
X-23210Y94639D01*
X-23191Y94570D01*
X-23177Y94508D01*
X-23170Y94457D01*
X-23166Y94417D01*
X-23162Y94402D01*
Y94391D01*
Y94384D01*
Y94380D01*
X-23166Y94304D01*
X-23181Y94235D01*
X-23199Y94165D01*
X-23221Y94107D01*
X-23239Y94056D01*
X-23257Y94020D01*
X-23264Y94005D01*
X-23272Y93994D01*
X-23275Y93991D01*
Y93987D01*
X-23323Y93922D01*
X-23373Y93860D01*
X-23428Y93809D01*
X-23483Y93769D01*
X-23530Y93732D01*
X-23566Y93711D01*
X-23581Y93700D01*
X-23592Y93692D01*
X-23599Y93689D01*
X-23603D01*
X-23687Y93652D01*
X-23767Y93627D01*
X-23843Y93609D01*
X-23912Y93598D01*
X-23970Y93590D01*
X-23996Y93587D01*
X-24018Y93583D01*
X-24058D01*
X-24145Y93587D01*
X-24233Y93601D01*
X-24309Y93620D01*
X-24378Y93638D01*
X-24436Y93660D01*
X-24458Y93667D01*
X-24480Y93674D01*
X-24495Y93681D01*
X-24506Y93689D01*
X-24513Y93692D01*
X-24517D01*
X-24593Y93736D01*
X-24662Y93783D01*
X-24720Y93834D01*
X-24764Y93882D01*
X-24800Y93922D01*
X-24826Y93958D01*
X-24844Y93980D01*
X-24848Y93984D01*
Y93987D01*
X-24884Y94060D01*
X-24913Y94129D01*
X-24931Y94195D01*
X-24946Y94253D01*
X-24953Y94304D01*
X-24961Y94344D01*
Y94358D01*
Y94369D01*
Y94373D01*
Y94377D01*
X-24957Y94453D01*
X-24942Y94529D01*
X-24924Y94599D01*
X-24906Y94661D01*
X-24884Y94712D01*
X-24866Y94752D01*
X-24859Y94766D01*
X-24851Y94777D01*
X-24848Y94781D01*
Y94784D01*
X-24800Y94857D01*
X-24749Y94919D01*
X-24691Y94974D01*
X-24637Y95017D01*
X-24589Y95054D01*
X-24549Y95079D01*
X-24535Y95090D01*
X-24524Y95097D01*
X-24517Y95101D01*
X-24513D01*
X-24429Y95141D01*
X-24349Y95170D01*
X-24273Y95192D01*
X-24204Y95207D01*
X-24145Y95214D01*
X-24120Y95218D01*
X-24098Y95221D01*
X-24058D01*
X-23970Y95218D01*
D02*
G37*
G36*
X30147Y-14351D02*
X30224Y-14362D01*
X30290Y-14395D01*
X30355Y-14416D01*
X30399Y-14449D01*
X30432Y-14482D01*
X30453Y-14493D01*
X30464Y-14504D01*
X30519Y-14559D01*
X30563Y-14624D01*
X30585Y-14690D01*
X30606Y-14755D01*
X30617Y-14810D01*
X30628Y-14843D01*
Y-14876D01*
Y-14886D01*
Y-14941D01*
Y-14996D01*
X30617Y-15116D01*
Y-15171D01*
Y-15214D01*
Y-15247D01*
Y-15258D01*
Y-15346D01*
X30606Y-15422D01*
Y-15488D01*
Y-15542D01*
Y-15586D01*
Y-15619D01*
Y-15630D01*
Y-15641D01*
Y-15805D01*
X30617Y-15990D01*
X30628Y-16176D01*
Y-16351D01*
X30639Y-16515D01*
X30650Y-16646D01*
X30661Y-16701D01*
Y-16734D01*
Y-16756D01*
Y-16767D01*
X30683Y-17018D01*
X30694Y-17247D01*
X30705Y-17444D01*
Y-17597D01*
X30716Y-17728D01*
Y-17816D01*
Y-17870D01*
Y-17892D01*
Y-17936D01*
Y-17991D01*
X30705Y-18111D01*
Y-18155D01*
X30694Y-18198D01*
Y-18231D01*
Y-18242D01*
X30683Y-18329D01*
Y-18395D01*
X30672Y-18461D01*
Y-18515D01*
Y-18548D01*
Y-18581D01*
Y-18592D01*
Y-18603D01*
X30661Y-18690D01*
X30650Y-18767D01*
X30617Y-18832D01*
X30585Y-18887D01*
X30563Y-18931D01*
X30530Y-18963D01*
X30519Y-18985D01*
X30508Y-18996D01*
X30443Y-19051D01*
X30377Y-19084D01*
X30235Y-19127D01*
X30180Y-19138D01*
X30136Y-19149D01*
X30093D01*
X30005Y-19138D01*
X29929Y-19127D01*
X29863Y-19094D01*
X29798Y-19062D01*
X29754Y-19040D01*
X29721Y-19007D01*
X29699Y-18996D01*
X29688Y-18985D01*
X29634Y-18920D01*
X29590Y-18854D01*
X29557Y-18789D01*
X29535Y-18734D01*
X29524Y-18679D01*
X29513Y-18635D01*
Y-18603D01*
Y-18592D01*
Y-18548D01*
Y-18493D01*
X29502Y-18373D01*
Y-18318D01*
X29492Y-18286D01*
Y-18253D01*
Y-18242D01*
X29481Y-18155D01*
Y-18089D01*
X29470Y-18023D01*
Y-17969D01*
Y-17936D01*
Y-17903D01*
Y-17881D01*
Y-17739D01*
X29459Y-17630D01*
Y-17575D01*
X29448Y-17542D01*
Y-17521D01*
Y-17510D01*
X29437Y-17346D01*
X29426Y-17291D01*
Y-17236D01*
X29415Y-17193D01*
Y-17160D01*
Y-17149D01*
Y-17138D01*
X29338Y-16887D01*
X29251Y-16657D01*
X29164Y-16460D01*
X29087Y-16296D01*
X29011Y-16165D01*
X28945Y-16067D01*
X28901Y-16001D01*
X28890Y-15980D01*
X28759Y-15826D01*
X28628Y-15717D01*
X28519Y-15630D01*
X28409Y-15575D01*
X28322Y-15542D01*
X28245Y-15531D01*
X28202Y-15520D01*
X28191D01*
X28136Y-15531D01*
X28093Y-15575D01*
X28060Y-15630D01*
X28038Y-15695D01*
X28027Y-15761D01*
X28016Y-15815D01*
Y-15859D01*
Y-15870D01*
Y-15936D01*
Y-16001D01*
X28027Y-16045D01*
Y-16056D01*
Y-16067D01*
X28038Y-16132D01*
Y-16176D01*
Y-16198D01*
Y-16209D01*
Y-16253D01*
Y-16307D01*
Y-16439D01*
X28049Y-16493D01*
Y-16537D01*
Y-16570D01*
Y-16581D01*
Y-16668D01*
X28060Y-16745D01*
Y-16810D01*
Y-16854D01*
Y-16898D01*
Y-16919D01*
Y-16930D01*
Y-16941D01*
X28049Y-17247D01*
X28038Y-17390D01*
X28027Y-17521D01*
Y-17630D01*
X28016Y-17717D01*
X28005Y-17772D01*
Y-17794D01*
X27961Y-18111D01*
X27940Y-18264D01*
X27929Y-18384D01*
X27907Y-18504D01*
X27896Y-18581D01*
X27885Y-18635D01*
Y-18657D01*
X27874Y-18745D01*
X27841Y-18821D01*
X27776Y-18941D01*
X27688Y-19029D01*
X27590Y-19084D01*
X27491Y-19127D01*
X27404Y-19138D01*
X27349Y-19149D01*
X27327D01*
X27240Y-19138D01*
X27163Y-19127D01*
X27098Y-19105D01*
X27032Y-19073D01*
X26989Y-19040D01*
X26956Y-19018D01*
X26934Y-19007D01*
X26923Y-18996D01*
X26868Y-18931D01*
X26825Y-18876D01*
X26792Y-18810D01*
X26770Y-18745D01*
X26759Y-18690D01*
X26748Y-18646D01*
Y-18624D01*
Y-18614D01*
Y-18483D01*
X26759Y-18351D01*
X26770Y-18209D01*
X26792Y-18089D01*
X26803Y-17969D01*
X26825Y-17881D01*
X26836Y-17816D01*
Y-17794D01*
X26868Y-17608D01*
X26890Y-17444D01*
X26901Y-17302D01*
X26912Y-17182D01*
X26923Y-17094D01*
Y-17018D01*
Y-16974D01*
Y-16963D01*
Y-16887D01*
X26912Y-16788D01*
Y-16723D01*
Y-16701D01*
Y-16690D01*
Y-16395D01*
X26923Y-16089D01*
X26945Y-15815D01*
X26978Y-15597D01*
X27011Y-15411D01*
X27054Y-15269D01*
X27087Y-15160D01*
X27109Y-15105D01*
X27120Y-15083D01*
X27185Y-14963D01*
X27251Y-14865D01*
X27327Y-14777D01*
X27415Y-14701D01*
X27502Y-14635D01*
X27590Y-14591D01*
X27776Y-14504D01*
X27940Y-14460D01*
X28005Y-14449D01*
X28071Y-14438D01*
X28125Y-14427D01*
X28202D01*
X28322Y-14438D01*
X28442Y-14449D01*
X28683Y-14526D01*
X28890Y-14624D01*
X29087Y-14733D01*
X29240Y-14843D01*
X29306Y-14897D01*
X29360Y-14941D01*
X29404Y-14985D01*
X29437Y-15018D01*
X29459Y-15029D01*
X29470Y-15040D01*
X29481Y-14996D01*
X29492Y-14876D01*
X29513Y-14777D01*
X29546Y-14690D01*
X29590Y-14613D01*
X29634Y-14548D01*
X29677Y-14504D01*
X29787Y-14416D01*
X29885Y-14373D01*
X29972Y-14351D01*
X30038Y-14340D01*
X30060D01*
X30147Y-14351D01*
D02*
G37*
G36*
X36148Y-14559D02*
X36224Y-14570D01*
X36301Y-14591D01*
X36356Y-14624D01*
X36410Y-14657D01*
X36443Y-14679D01*
X36465Y-14690D01*
X36476Y-14701D01*
X36531Y-14755D01*
X36574Y-14821D01*
X36596Y-14886D01*
X36618Y-14952D01*
X36629Y-15007D01*
X36640Y-15040D01*
Y-15072D01*
Y-15083D01*
Y-15171D01*
X36629Y-15258D01*
X36607Y-15455D01*
Y-15531D01*
X36596Y-15597D01*
X36585Y-15641D01*
Y-15663D01*
X36541Y-15969D01*
X36498Y-16253D01*
X36454Y-16515D01*
X36410Y-16745D01*
X36378Y-16952D01*
X36345Y-17127D01*
X36312Y-17291D01*
X36290Y-17433D01*
X36268Y-17553D01*
X36246Y-17652D01*
X36224Y-17728D01*
X36213Y-17794D01*
X36203Y-17849D01*
Y-17881D01*
X36192Y-17892D01*
Y-17903D01*
X36137Y-18111D01*
X36071Y-18286D01*
X36006Y-18450D01*
X35951Y-18581D01*
X35897Y-18690D01*
X35853Y-18767D01*
X35831Y-18810D01*
X35820Y-18832D01*
X35743Y-18941D01*
X35667Y-19029D01*
X35601Y-19084D01*
X35536Y-19127D01*
X35492Y-19149D01*
X35448Y-19160D01*
X35427Y-19171D01*
X35416D01*
X35295Y-19149D01*
X35186Y-19116D01*
X35099Y-19073D01*
X35022Y-19018D01*
X34967Y-18963D01*
X34924Y-18920D01*
X34902Y-18887D01*
X34891Y-18876D01*
X34815Y-18799D01*
X34749Y-18712D01*
X34716Y-18646D01*
X34705Y-18624D01*
Y-18614D01*
X34629Y-18417D01*
X34563Y-18231D01*
X34497Y-18067D01*
X34432Y-17903D01*
X34377Y-17761D01*
X34334Y-17630D01*
X34279Y-17510D01*
X34246Y-17411D01*
X34202Y-17313D01*
X34170Y-17236D01*
X34148Y-17171D01*
X34126Y-17116D01*
X34104Y-17073D01*
X34093Y-17040D01*
X34082Y-17029D01*
Y-17018D01*
X34071Y-16985D01*
X34060Y-16952D01*
X34017Y-16865D01*
X33984Y-16799D01*
X33973Y-16777D01*
Y-16767D01*
X33940Y-16952D01*
X33918Y-17127D01*
X33885Y-17291D01*
X33864Y-17433D01*
X33842Y-17564D01*
X33820Y-17674D01*
X33798Y-17783D01*
X33776Y-17870D01*
X33765Y-17947D01*
X33743Y-18012D01*
X33732Y-18067D01*
X33722Y-18111D01*
X33700Y-18166D01*
Y-18187D01*
X33645Y-18362D01*
X33579Y-18515D01*
X33514Y-18646D01*
X33448Y-18767D01*
X33383Y-18865D01*
X33317Y-18941D01*
X33252Y-19007D01*
X33186Y-19062D01*
X33120Y-19105D01*
X33066Y-19138D01*
X32978Y-19171D01*
X32913Y-19193D01*
X32891D01*
X32771Y-19182D01*
X32672Y-19149D01*
X32574Y-19105D01*
X32497Y-19051D01*
X32443Y-19007D01*
X32388Y-18963D01*
X32366Y-18931D01*
X32355Y-18920D01*
X32257Y-18778D01*
X32180Y-18635D01*
X32104Y-18515D01*
X32049Y-18395D01*
X32006Y-18308D01*
X31973Y-18231D01*
X31962Y-18176D01*
X31951Y-18166D01*
X31787Y-17663D01*
X31634Y-17149D01*
X31481Y-16646D01*
X31415Y-16417D01*
X31350Y-16198D01*
X31295Y-15990D01*
X31240Y-15794D01*
X31186Y-15630D01*
X31153Y-15488D01*
X31120Y-15378D01*
X31098Y-15291D01*
X31076Y-15236D01*
Y-15214D01*
X31065Y-15160D01*
X31055Y-15127D01*
Y-15105D01*
Y-15094D01*
X31065Y-15018D01*
X31087Y-14941D01*
X31142Y-14821D01*
X31186Y-14777D01*
X31208Y-14744D01*
X31229Y-14733D01*
X31240Y-14723D01*
X31306Y-14668D01*
X31383Y-14624D01*
X31448Y-14602D01*
X31514Y-14580D01*
X31568Y-14570D01*
X31612Y-14559D01*
X31656D01*
X31798Y-14570D01*
X31918Y-14613D01*
X32006Y-14668D01*
X32071Y-14733D01*
X32115Y-14810D01*
X32148Y-14865D01*
X32169Y-14908D01*
Y-14919D01*
X32224Y-15138D01*
X32279Y-15335D01*
X32322Y-15531D01*
X32377Y-15706D01*
X32421Y-15881D01*
X32454Y-16034D01*
X32530Y-16318D01*
X32596Y-16559D01*
X32650Y-16767D01*
X32694Y-16930D01*
X32727Y-17073D01*
X32760Y-17182D01*
X32781Y-17269D01*
X32792Y-17335D01*
X32803Y-17379D01*
X32814Y-17400D01*
X32825Y-17422D01*
Y-17433D01*
X32836Y-17390D01*
X32847Y-17324D01*
X32858Y-17258D01*
X32869Y-17171D01*
X32902Y-16985D01*
X32945Y-16777D01*
X32978Y-16581D01*
X32989Y-16493D01*
X33000Y-16417D01*
X33011Y-16351D01*
X33022Y-16307D01*
X33033Y-16275D01*
Y-16264D01*
X33077Y-16023D01*
X33109Y-15815D01*
X33142Y-15630D01*
X33175Y-15466D01*
X33208Y-15346D01*
X33219Y-15247D01*
X33241Y-15192D01*
Y-15171D01*
X33273Y-15061D01*
X33306Y-14974D01*
X33350Y-14886D01*
X33404Y-14821D01*
X33503Y-14712D01*
X33601Y-14646D01*
X33700Y-14602D01*
X33776Y-14580D01*
X33831Y-14570D01*
X33853D01*
X33940Y-14580D01*
X34017Y-14591D01*
X34148Y-14657D01*
X34257Y-14744D01*
X34345Y-14843D01*
X34410Y-14941D01*
X34454Y-15029D01*
X34476Y-15094D01*
X34487Y-15105D01*
Y-15116D01*
X34563Y-15346D01*
X34629Y-15564D01*
X34705Y-15772D01*
X34771Y-15969D01*
X34825Y-16154D01*
X34891Y-16318D01*
X34946Y-16482D01*
X34989Y-16624D01*
X35033Y-16756D01*
X35077Y-16865D01*
X35110Y-16963D01*
X35142Y-17040D01*
X35164Y-17105D01*
X35186Y-17149D01*
X35197Y-17182D01*
Y-17193D01*
X35230Y-16941D01*
X35274Y-16723D01*
X35295Y-16537D01*
X35317Y-16395D01*
X35339Y-16285D01*
X35350Y-16209D01*
X35361Y-16154D01*
Y-16143D01*
Y-16089D01*
X35372Y-16012D01*
X35383Y-15925D01*
X35394Y-15815D01*
X35405Y-15728D01*
Y-15641D01*
X35416Y-15586D01*
Y-15564D01*
X35427Y-15444D01*
X35448Y-15335D01*
X35459Y-15236D01*
X35470Y-15149D01*
X35481Y-15083D01*
X35492Y-15040D01*
X35503Y-15007D01*
Y-14996D01*
X35558Y-14843D01*
X35634Y-14733D01*
X35722Y-14657D01*
X35820Y-14602D01*
X35908Y-14570D01*
X35984Y-14559D01*
X36039Y-14548D01*
X36061D01*
X36148Y-14559D01*
D02*
G37*
G36*
X24365Y-14548D02*
X24540Y-14570D01*
X24715Y-14613D01*
X24868Y-14668D01*
X25010Y-14723D01*
X25152Y-14788D01*
X25273Y-14865D01*
X25382Y-14941D01*
X25480Y-15018D01*
X25568Y-15094D01*
X25644Y-15160D01*
X25710Y-15214D01*
X25754Y-15269D01*
X25786Y-15313D01*
X25808Y-15335D01*
X25819Y-15346D01*
X25918Y-15488D01*
X25994Y-15630D01*
X26070Y-15772D01*
X26136Y-15925D01*
X26234Y-16220D01*
X26300Y-16493D01*
X26322Y-16624D01*
X26333Y-16734D01*
X26344Y-16843D01*
X26355Y-16930D01*
X26366Y-17007D01*
Y-17062D01*
Y-17094D01*
Y-17105D01*
X26355Y-17280D01*
X26333Y-17444D01*
X26300Y-17597D01*
X26256Y-17739D01*
X26147Y-17991D01*
X26081Y-18100D01*
X26016Y-18198D01*
X25961Y-18286D01*
X25896Y-18362D01*
X25841Y-18417D01*
X25786Y-18472D01*
X25743Y-18515D01*
X25710Y-18548D01*
X25688Y-18559D01*
X25677Y-18570D01*
X25557Y-18657D01*
X25426Y-18723D01*
X25152Y-18843D01*
X24890Y-18920D01*
X24628Y-18985D01*
X24508Y-18996D01*
X24409Y-19018D01*
X24311Y-19029D01*
X24223D01*
X24158Y-19040D01*
X24059D01*
X23819Y-19029D01*
X23600Y-19007D01*
X23393Y-18963D01*
X23207Y-18920D01*
X23054Y-18876D01*
X22934Y-18832D01*
X22890Y-18821D01*
X22857Y-18810D01*
X22846Y-18799D01*
X22835D01*
X22715Y-18745D01*
X22606Y-18679D01*
X22507Y-18614D01*
X22431Y-18559D01*
X22365Y-18493D01*
X22311Y-18428D01*
X22223Y-18308D01*
X22169Y-18198D01*
X22147Y-18111D01*
X22136Y-18056D01*
Y-18034D01*
X22158Y-17892D01*
X22201Y-17783D01*
X22278Y-17706D01*
X22354Y-17663D01*
X22431Y-17630D01*
X22507Y-17619D01*
X22551Y-17608D01*
X22573D01*
X22660Y-17619D01*
X22748Y-17641D01*
X22923Y-17706D01*
X22999Y-17750D01*
X23065Y-17783D01*
X23108Y-17805D01*
X23119Y-17816D01*
X23272Y-17892D01*
X23425Y-17947D01*
X23589Y-17980D01*
X23731Y-18001D01*
X23863Y-18023D01*
X23961Y-18034D01*
X24191D01*
X24311Y-18023D01*
X24420Y-18001D01*
X24518Y-17980D01*
X24595Y-17969D01*
X24650Y-17947D01*
X24693Y-17936D01*
X24704D01*
X24890Y-17838D01*
X24978Y-17783D01*
X25043Y-17739D01*
X25098Y-17695D01*
X25141Y-17652D01*
X25163Y-17630D01*
X25174Y-17619D01*
X23797Y-17007D01*
X23666Y-16952D01*
X23557Y-16898D01*
X23360Y-16799D01*
X23196Y-16723D01*
X23065Y-16657D01*
X22977Y-16602D01*
X22912Y-16570D01*
X22879Y-16548D01*
X22868Y-16537D01*
X22781Y-16471D01*
X22693Y-16406D01*
X22573Y-16264D01*
X22475Y-16122D01*
X22420Y-16001D01*
X22376Y-15892D01*
X22365Y-15805D01*
X22354Y-15750D01*
Y-15728D01*
X22365Y-15608D01*
X22376Y-15499D01*
X22409Y-15400D01*
X22453Y-15302D01*
X22551Y-15149D01*
X22671Y-15007D01*
X22792Y-14908D01*
X22890Y-14832D01*
X22934Y-14810D01*
X22955Y-14788D01*
X22977Y-14777D01*
X22988D01*
X23174Y-14701D01*
X23371Y-14635D01*
X23568Y-14591D01*
X23764Y-14570D01*
X23928Y-14548D01*
X23994D01*
X24059Y-14537D01*
X24180D01*
X24365Y-14548D01*
D02*
G37*
G36*
X40214Y-12602D02*
X40476Y-12646D01*
X40728Y-12711D01*
X40957Y-12799D01*
X41187Y-12897D01*
X41383Y-13006D01*
X41580Y-13127D01*
X41744Y-13247D01*
X41897Y-13367D01*
X42039Y-13487D01*
X42159Y-13597D01*
X42258Y-13695D01*
X42334Y-13783D01*
X42389Y-13848D01*
X42422Y-13892D01*
X42433Y-13903D01*
X42586Y-14121D01*
X42717Y-14340D01*
X42837Y-14570D01*
X42935Y-14788D01*
X43023Y-15007D01*
X43088Y-15225D01*
X43154Y-15422D01*
X43198Y-15619D01*
X43231Y-15794D01*
X43263Y-15958D01*
X43285Y-16100D01*
X43296Y-16220D01*
Y-16318D01*
X43307Y-16395D01*
Y-16450D01*
Y-16460D01*
X43296Y-16679D01*
X43263Y-16887D01*
X43220Y-17083D01*
X43165Y-17269D01*
X43099Y-17444D01*
X43023Y-17597D01*
X42935Y-17750D01*
X42848Y-17881D01*
X42772Y-18001D01*
X42684Y-18100D01*
X42608Y-18198D01*
X42542Y-18264D01*
X42487Y-18329D01*
X42444Y-18373D01*
X42411Y-18395D01*
X42400Y-18406D01*
X42236Y-18526D01*
X42061Y-18635D01*
X41886Y-18734D01*
X41711Y-18810D01*
X41536Y-18876D01*
X41361Y-18931D01*
X41034Y-19018D01*
X40881Y-19051D01*
X40749Y-19073D01*
X40618Y-19084D01*
X40520Y-19094D01*
X40433Y-19105D01*
X40312D01*
X40039Y-19094D01*
X39777Y-19051D01*
X39525Y-18985D01*
X39296Y-18898D01*
X39077Y-18799D01*
X38880Y-18690D01*
X38695Y-18570D01*
X38531Y-18450D01*
X38378Y-18329D01*
X38247Y-18209D01*
X38137Y-18100D01*
X38039Y-18001D01*
X37973Y-17914D01*
X37919Y-17849D01*
X37886Y-17805D01*
X37875Y-17794D01*
X37733Y-17575D01*
X37602Y-17357D01*
X37492Y-17127D01*
X37405Y-16908D01*
X37317Y-16690D01*
X37252Y-16482D01*
X37197Y-16285D01*
X37154Y-16089D01*
X37121Y-15914D01*
X37099Y-15750D01*
X37077Y-15608D01*
X37066Y-15488D01*
X37055Y-15378D01*
Y-15313D01*
Y-15258D01*
Y-15247D01*
X37066Y-15007D01*
X37088Y-14777D01*
X37121Y-14570D01*
X37164Y-14373D01*
X37219Y-14198D01*
X37285Y-14034D01*
X37350Y-13892D01*
X37416Y-13761D01*
X37481Y-13641D01*
X37547Y-13542D01*
X37613Y-13455D01*
X37667Y-13378D01*
X37711Y-13323D01*
X37744Y-13291D01*
X37766Y-13269D01*
X37776Y-13258D01*
X37919Y-13138D01*
X38072Y-13039D01*
X38247Y-12952D01*
X38421Y-12875D01*
X38596Y-12810D01*
X38782Y-12755D01*
X39132Y-12679D01*
X39296Y-12646D01*
X39449Y-12624D01*
X39580Y-12613D01*
X39700Y-12602D01*
X39799Y-12591D01*
X39941D01*
X40214Y-12602D01*
D02*
G37*
G36*
X18944Y-14504D02*
X19108Y-14515D01*
X19414Y-14580D01*
X19687Y-14668D01*
X19928Y-14766D01*
X20026Y-14821D01*
X20125Y-14876D01*
X20201Y-14919D01*
X20267Y-14963D01*
X20321Y-14996D01*
X20365Y-15029D01*
X20387Y-15040D01*
X20398Y-15050D01*
X20420Y-14963D01*
X20441Y-14886D01*
X20518Y-14777D01*
X20606Y-14690D01*
X20704Y-14624D01*
X20791Y-14591D01*
X20868Y-14580D01*
X20922Y-14570D01*
X20944D01*
X21032Y-14580D01*
X21119Y-14591D01*
X21185Y-14624D01*
X21239Y-14646D01*
X21294Y-14679D01*
X21327Y-14712D01*
X21338Y-14723D01*
X21349Y-14733D01*
X21392Y-14788D01*
X21425Y-14854D01*
X21458Y-14985D01*
X21469Y-15040D01*
X21480Y-15072D01*
Y-15105D01*
Y-15116D01*
Y-15171D01*
Y-15225D01*
Y-15357D01*
X21491Y-15411D01*
Y-15455D01*
Y-15488D01*
Y-15499D01*
Y-15586D01*
Y-15663D01*
Y-15728D01*
Y-15783D01*
Y-15826D01*
Y-15859D01*
Y-15870D01*
Y-15881D01*
Y-18592D01*
X21480Y-18668D01*
X21469Y-18745D01*
X21425Y-18854D01*
X21403Y-18898D01*
X21382Y-18931D01*
X21360Y-18941D01*
Y-18952D01*
X21305Y-19007D01*
X21239Y-19051D01*
X21174Y-19084D01*
X21108Y-19105D01*
X21054Y-19116D01*
X21010Y-19127D01*
X20966D01*
X20879Y-19116D01*
X20802Y-19105D01*
X20737Y-19084D01*
X20671Y-19051D01*
X20627Y-19018D01*
X20595Y-18996D01*
X20573Y-18985D01*
X20562Y-18974D01*
X20507Y-18909D01*
X20463Y-18854D01*
X20441Y-18789D01*
X20420Y-18723D01*
X20409Y-18668D01*
X20398Y-18624D01*
Y-18603D01*
Y-18592D01*
Y-16515D01*
X20321Y-16373D01*
X20223Y-16242D01*
X20125Y-16122D01*
X20026Y-16023D01*
X19917Y-15936D01*
X19808Y-15859D01*
X19698Y-15783D01*
X19589Y-15728D01*
X19392Y-15641D01*
X19305Y-15608D01*
X19228Y-15586D01*
X19163Y-15575D01*
X19119Y-15564D01*
X19086Y-15553D01*
X19075D01*
X19064Y-15980D01*
X19053Y-16067D01*
X19042Y-16154D01*
X18977Y-16285D01*
X18900Y-16373D01*
X18802Y-16439D01*
X18704Y-16471D01*
X18616Y-16493D01*
X18562Y-16504D01*
X18540D01*
X18441Y-16493D01*
X18354Y-16482D01*
X18288Y-16450D01*
X18223Y-16406D01*
X18113Y-16307D01*
X18048Y-16187D01*
X18004Y-16078D01*
X17971Y-15980D01*
Y-15936D01*
X17960Y-15903D01*
Y-15892D01*
Y-15881D01*
Y-15848D01*
X17950Y-15805D01*
Y-15717D01*
Y-15673D01*
Y-15630D01*
Y-15608D01*
Y-15597D01*
X17960Y-15400D01*
X17982Y-15236D01*
X18026Y-15083D01*
X18081Y-14963D01*
X18146Y-14854D01*
X18212Y-14766D01*
X18288Y-14690D01*
X18365Y-14635D01*
X18441Y-14580D01*
X18518Y-14548D01*
X18649Y-14515D01*
X18704Y-14504D01*
X18747Y-14493D01*
X18780D01*
X18944Y-14504D01*
D02*
G37*
G36*
X14920Y99459D02*
X14970Y99448D01*
X15031Y99437D01*
X15098Y99415D01*
X15170Y99387D01*
X15237Y99348D01*
X15298Y99304D01*
X15303Y99298D01*
X15320Y99282D01*
X15342Y99254D01*
X15364Y99215D01*
X15392Y99171D01*
X15414Y99121D01*
X15431Y99065D01*
X15437Y99004D01*
Y98999D01*
Y98982D01*
X15431Y98949D01*
X15420Y98915D01*
X15409Y98877D01*
X15387Y98832D01*
X15359Y98788D01*
X15320Y98749D01*
X15314Y98743D01*
X15298Y98732D01*
X15270Y98716D01*
X15237Y98699D01*
X15187Y98677D01*
X15137Y98660D01*
X15070Y98649D01*
X15004Y98643D01*
X14931D01*
X14876Y98649D01*
Y99465D01*
X14887D01*
X14920Y99459D01*
D02*
G37*
G36*
X16535Y97561D02*
Y97567D01*
Y97123D01*
D01*
Y96457D01*
X13816D01*
D01*
X13400D01*
X13433Y96462D01*
X13477Y96468D01*
X13572Y96490D01*
X13611Y96507D01*
X13649Y96534D01*
X13655Y96540D01*
X13660Y96545D01*
X13672Y96562D01*
X13688Y96584D01*
X13716Y96645D01*
X13722Y96684D01*
X13727Y96723D01*
Y96729D01*
Y96745D01*
X13722Y96762D01*
X13716Y96790D01*
X13694Y96851D01*
X13677Y96884D01*
X13649Y96912D01*
X13644Y96917D01*
X13633Y96923D01*
X13611Y96934D01*
X13583Y96951D01*
X13544Y96962D01*
X13494Y96973D01*
X13433Y96978D01*
X13366Y96984D01*
X12839D01*
X12539Y97572D01*
X13461Y99382D01*
X13494D01*
X13527Y99387D01*
X13566Y99393D01*
X13660Y99415D01*
X13705Y99432D01*
X13738Y99454D01*
X13744Y99459D01*
X13749Y99465D01*
X13760Y99481D01*
X13777Y99504D01*
X13805Y99565D01*
X13810Y99603D01*
X13816Y99642D01*
Y99665D01*
X13810Y99681D01*
X13805Y99709D01*
X13783Y99770D01*
X13766Y99803D01*
X13738Y99831D01*
X13733Y99837D01*
X13722Y99842D01*
X13699Y99853D01*
X13672Y99870D01*
X13633Y99887D01*
X13588Y99898D01*
X13527Y99903D01*
X13461Y99909D01*
X12834D01*
X12800Y99903D01*
X12761Y99898D01*
X12667Y99875D01*
X12623Y99859D01*
X12589Y99831D01*
X12584Y99826D01*
X12578Y99820D01*
X12562Y99803D01*
X12545Y99781D01*
X12517Y99720D01*
X12512Y99687D01*
X12506Y99642D01*
Y99637D01*
Y99626D01*
X12512Y99603D01*
X12517Y99576D01*
X12528Y99548D01*
X12539Y99515D01*
X12562Y99481D01*
X12589Y99454D01*
X12595Y99448D01*
X12606Y99443D01*
X12628Y99432D01*
X12656Y99420D01*
X12695Y99404D01*
X12739Y99393D01*
X12800Y99387D01*
X12867Y99382D01*
X12245Y98155D01*
X11624Y99382D01*
X11657D01*
X11690Y99387D01*
X11729Y99393D01*
X11823Y99415D01*
X11868Y99432D01*
X11901Y99454D01*
X11907Y99459D01*
X11912Y99465D01*
X11923Y99481D01*
X11940Y99504D01*
X11968Y99565D01*
X11973Y99603D01*
X11979Y99642D01*
Y99648D01*
Y99665D01*
X11973Y99681D01*
X11968Y99709D01*
X11946Y99770D01*
X11929Y99803D01*
X11901Y99831D01*
X11896Y99837D01*
X11885Y99842D01*
X11862Y99853D01*
X11835Y99870D01*
X11796Y99887D01*
X11751Y99898D01*
X11690Y99903D01*
X11624Y99909D01*
X12268D01*
X10669D01*
X10996D01*
X10963Y99903D01*
X10924Y99898D01*
X10830Y99875D01*
X10786Y99859D01*
X10752Y99831D01*
X10747Y99826D01*
X10741Y99820D01*
X10725Y99803D01*
X10708Y99781D01*
X10680Y99720D01*
X10675Y99687D01*
X10669Y99642D01*
Y99626D01*
X10675Y99603D01*
X10680Y99576D01*
X10691Y99548D01*
X10702Y99515D01*
X10725Y99481D01*
X10752Y99454D01*
X10758Y99448D01*
X10769Y99443D01*
X10791Y99432D01*
X10819Y99420D01*
X10858Y99404D01*
X10902Y99393D01*
X10963Y99387D01*
X11030Y99382D01*
X12251Y96984D01*
X11851D01*
X11846Y96978D01*
X11823Y96962D01*
X11796Y96934D01*
X11768Y96895D01*
X11735Y96856D01*
X11712Y96812D01*
X11690Y96767D01*
X11685Y96723D01*
Y96718D01*
Y96706D01*
X11690Y96684D01*
X11696Y96657D01*
X11707Y96629D01*
X11718Y96595D01*
X11740Y96562D01*
X11768Y96534D01*
X11773Y96529D01*
X11785Y96523D01*
X11807Y96512D01*
X11835Y96495D01*
X11873Y96479D01*
X11923Y96468D01*
X11979Y96462D01*
X12051Y96457D01*
X10669D01*
Y96462D01*
Y96457D01*
X4131D01*
D01*
X3265D01*
X3299Y96462D01*
X3337Y96468D01*
X3426Y96490D01*
X3471Y96507D01*
X3504Y96534D01*
X3510Y96540D01*
X3515Y96545D01*
X3526Y96562D01*
X3543Y96584D01*
X3571Y96645D01*
X3576Y96684D01*
X3582Y96723D01*
Y96729D01*
Y96745D01*
X3576Y96762D01*
X3571Y96790D01*
X3548Y96851D01*
X3532Y96884D01*
X3504Y96912D01*
X3498Y96917D01*
X3487Y96923D01*
X3465Y96934D01*
X3437Y96951D01*
X3399Y96962D01*
X3354Y96973D01*
X3299Y96978D01*
X3232Y96984D01*
X2605D01*
X2561Y96990D01*
X2505Y97001D01*
X2444Y97017D01*
X2383Y97039D01*
X2322Y97073D01*
X2266Y97117D01*
X2261Y97123D01*
X2244Y97139D01*
X2222Y97173D01*
X2200Y97211D01*
X2178Y97256D01*
X2155Y97311D01*
X2139Y97378D01*
X2133Y97450D01*
Y97700D01*
X2139Y97694D01*
X2161Y97683D01*
X2200Y97661D01*
X2244Y97639D01*
X2300Y97611D01*
X2361Y97583D01*
X2494Y97533D01*
X2499D01*
X2527Y97522D01*
X2561Y97517D01*
X2610Y97506D01*
X2666Y97495D01*
X2727Y97489D01*
X2866Y97478D01*
X2916D01*
X2955Y97483D01*
X2999Y97489D01*
X3054Y97495D01*
X3115Y97506D01*
X3182Y97522D01*
X3321Y97567D01*
X3399Y97594D01*
X3476Y97628D01*
X3548Y97667D01*
X3626Y97716D01*
X3698Y97772D01*
X3770Y97833D01*
X3776Y97839D01*
X3787Y97850D01*
X3804Y97872D01*
X3826Y97900D01*
X3854Y97933D01*
X3887Y97977D01*
X3915Y98027D01*
X3948Y98083D01*
X3987Y98144D01*
X4015Y98211D01*
X4048Y98283D01*
X4076Y98360D01*
X4098Y98449D01*
X4115Y98538D01*
X4126Y98627D01*
X4131Y98727D01*
Y98777D01*
X4126Y98815D01*
X4120Y98860D01*
X4115Y98915D01*
X4103Y98976D01*
X4087Y99037D01*
X4042Y99182D01*
X4015Y99254D01*
X3981Y99326D01*
X3937Y99404D01*
X3887Y99476D01*
X3831Y99554D01*
X3770Y99620D01*
X3765Y99626D01*
X3754Y99637D01*
X3732Y99654D01*
X3704Y99676D01*
X3670Y99703D01*
X3626Y99737D01*
X3576Y99765D01*
X3521Y99803D01*
X3460Y99837D01*
X3387Y99864D01*
X3315Y99898D01*
X3232Y99925D01*
X3149Y99948D01*
X3060Y99964D01*
X2966Y99975D01*
X2866Y99981D01*
X4131D01*
X1156D01*
X2833D01*
X2794Y99975D01*
X2744D01*
X2683Y99964D01*
X2622Y99953D01*
X2549Y99942D01*
X2483Y99920D01*
X2472D01*
X2450Y99909D01*
X2416Y99898D01*
X2372Y99881D01*
X2316Y99853D01*
X2255Y99826D01*
X2133Y99753D01*
Y99909D01*
X1484D01*
X1450Y99903D01*
X1412Y99898D01*
X1317Y99875D01*
X1273Y99859D01*
X1240Y99831D01*
X1234Y99826D01*
X1228Y99820D01*
X1212Y99803D01*
X1195Y99781D01*
X1168Y99720D01*
X1162Y99687D01*
X1156Y99642D01*
Y99626D01*
X1162Y99603D01*
X1168Y99576D01*
X1179Y99548D01*
X1190Y99515D01*
X1212Y99481D01*
X1240Y99454D01*
X1245Y99448D01*
X1256Y99443D01*
X1278Y99432D01*
X1306Y99420D01*
X1345Y99404D01*
X1390Y99393D01*
X1450Y99387D01*
X1517Y99382D01*
X1606D01*
Y97456D01*
Y97450D01*
Y97445D01*
Y97411D01*
X1612Y97356D01*
X1623Y97289D01*
X1634Y97217D01*
X1656Y97134D01*
X1689Y97050D01*
X1728Y96973D01*
X1734Y96962D01*
X1750Y96939D01*
X1778Y96901D01*
X1817Y96851D01*
X1867Y96790D01*
X1928Y96734D01*
X2005Y96673D01*
X2089Y96612D01*
X2100Y96606D01*
X2133Y96590D01*
X2178Y96562D01*
X2244Y96534D01*
X2327Y96507D01*
X2416Y96479D01*
X2522Y96462D01*
X2633Y96457D01*
X1156D01*
Y96462D01*
Y96457D01*
X-27337D01*
Y97561D01*
Y97805D01*
X-27332Y97783D01*
X-27326Y97755D01*
X-27315Y97728D01*
X-27304Y97694D01*
X-27282Y97661D01*
X-27254Y97633D01*
X-27248Y97628D01*
X-27237Y97622D01*
X-27215Y97611D01*
X-27187Y97600D01*
X-27149Y97583D01*
X-27104Y97572D01*
X-27043Y97567D01*
X-26977Y97561D01*
X-26416D01*
X-26383Y97567D01*
X-26338Y97572D01*
X-26244Y97594D01*
X-26205Y97611D01*
X-26166Y97633D01*
X-26161Y97639D01*
X-26155Y97644D01*
X-26144Y97661D01*
X-26127Y97683D01*
X-26100Y97744D01*
X-26094Y97783D01*
X-26089Y97822D01*
Y97828D01*
Y97844D01*
X-26094Y97861D01*
X-26100Y97889D01*
X-26122Y97950D01*
X-26138Y97983D01*
X-26166Y98011D01*
X-26172Y98016D01*
X-26183Y98022D01*
X-26205Y98033D01*
X-26233Y98049D01*
X-26272Y98066D01*
X-26322Y98077D01*
X-26383Y98083D01*
X-26449Y98088D01*
Y99087D01*
Y99093D01*
Y99115D01*
X-26444Y99148D01*
X-26438Y99182D01*
X-26427Y99226D01*
X-26410Y99270D01*
X-26388Y99309D01*
X-26355Y99343D01*
X-26349Y99348D01*
X-26333Y99359D01*
X-26305Y99376D01*
X-26266Y99398D01*
X-26211Y99415D01*
X-26150Y99432D01*
X-26077Y99443D01*
X-25989Y99448D01*
X-25955D01*
X-25922Y99443D01*
X-25878Y99437D01*
X-25828Y99432D01*
X-25778Y99420D01*
X-25722Y99398D01*
X-25667Y99376D01*
X-25661Y99370D01*
X-25645Y99359D01*
X-25611Y99343D01*
X-25572Y99309D01*
X-25523Y99270D01*
X-25461Y99215D01*
X-25395Y99148D01*
X-25317Y99071D01*
Y98088D01*
X-25384D01*
X-25423Y98083D01*
X-25506Y98066D01*
X-25539Y98055D01*
X-25567Y98038D01*
X-25572Y98033D01*
X-25583Y98022D01*
X-25600Y98000D01*
X-25622Y97972D01*
X-25661Y97905D01*
X-25672Y97866D01*
X-25678Y97822D01*
Y97816D01*
Y97805D01*
X-25672Y97783D01*
X-25667Y97755D01*
X-25656Y97728D01*
X-25645Y97694D01*
X-25622Y97661D01*
X-25595Y97633D01*
X-25589Y97628D01*
X-25578Y97622D01*
X-25556Y97611D01*
X-25528Y97600D01*
X-25489Y97583D01*
X-25445Y97572D01*
X-25384Y97567D01*
X-25317Y97561D01*
X-24429D01*
X-24757D01*
X-24723Y97567D01*
X-24679Y97572D01*
X-24585Y97594D01*
X-24546Y97611D01*
X-24507Y97633D01*
X-24501Y97639D01*
X-24496Y97644D01*
X-24485Y97661D01*
X-24468Y97683D01*
X-24440Y97744D01*
X-24435Y97783D01*
X-24429Y97822D01*
Y99975D01*
D01*
Y99665D01*
X-24435Y99681D01*
X-24440Y99709D01*
X-24462Y99770D01*
X-24479Y99803D01*
X-24507Y99831D01*
X-24512Y99837D01*
X-24523Y99842D01*
X-24546Y99853D01*
X-24573Y99870D01*
X-24612Y99887D01*
X-24662Y99898D01*
X-24723Y99903D01*
X-24790Y99909D01*
X-25317D01*
Y99726D01*
X-25323Y99731D01*
X-25345Y99748D01*
X-25373Y99770D01*
X-25411Y99792D01*
X-25456Y99826D01*
X-25511Y99853D01*
X-25572Y99881D01*
X-25633Y99909D01*
X-25639Y99914D01*
X-25661Y99920D01*
X-25700Y99931D01*
X-25745Y99942D01*
X-25800Y99953D01*
X-25867Y99964D01*
X-25933Y99975D01*
X-24429D01*
X-27337D01*
Y100991D01*
X16535D01*
X14377D01*
X15375D01*
X15331Y100986D01*
X15276Y100980D01*
X15209Y100969D01*
X15137Y100947D01*
X15059Y100924D01*
X14981Y100891D01*
X14970Y100886D01*
X14948Y100874D01*
X14909Y100847D01*
X14859Y100813D01*
X14804Y100769D01*
X14748Y100714D01*
X14687Y100641D01*
X14632Y100558D01*
X14626Y100547D01*
X14610Y100519D01*
X14587Y100469D01*
X14560Y100403D01*
X14532Y100325D01*
X14510Y100236D01*
X14493Y100136D01*
X14488Y100031D01*
Y98621D01*
X14482D01*
X14471Y98610D01*
X14454Y98599D01*
X14432Y98577D01*
X14410Y98555D01*
X14393Y98521D01*
X14382Y98488D01*
X14377Y98444D01*
Y98427D01*
X14382Y98394D01*
X14404Y98344D01*
X14421Y98321D01*
X14443Y98299D01*
X14454Y98288D01*
X14471Y98283D01*
X14493Y98272D01*
X14521Y98260D01*
X14554Y98255D01*
X14599Y98244D01*
X14876D01*
Y98260D01*
X14898D01*
X14920Y98255D01*
X14943D01*
X15004Y98249D01*
X15031Y98244D01*
X15087D01*
X15109Y98249D01*
X15170Y98255D01*
X15242Y98272D01*
X15326Y98299D01*
X15414Y98338D01*
X15509Y98394D01*
X15597Y98471D01*
X15609Y98482D01*
X15631Y98510D01*
X15670Y98560D01*
X15709Y98627D01*
X15753Y98704D01*
X15792Y98793D01*
X15814Y98899D01*
X15825Y99010D01*
Y99015D01*
Y99026D01*
Y99043D01*
X15820Y99065D01*
X15814Y99126D01*
X15792Y99204D01*
X15764Y99293D01*
X15720Y99387D01*
X15658Y99487D01*
X15620Y99537D01*
X15575Y99581D01*
X15570Y99587D01*
X15564Y99592D01*
X15548Y99603D01*
X15531Y99620D01*
X15503Y99642D01*
X15470Y99665D01*
X15392Y99709D01*
X15292Y99759D01*
X15170Y99809D01*
X15031Y99842D01*
X14876Y99864D01*
Y100025D01*
Y100031D01*
Y100036D01*
Y100070D01*
X14882Y100114D01*
X14893Y100175D01*
X14915Y100242D01*
X14937Y100314D01*
X14976Y100381D01*
X15026Y100442D01*
X15031Y100447D01*
X15054Y100469D01*
X15087Y100491D01*
X15131Y100525D01*
X15187Y100553D01*
X15248Y100580D01*
X15326Y100597D01*
X15409Y100602D01*
X15442D01*
X15475Y100597D01*
X15520Y100586D01*
X15575Y100569D01*
X15631Y100547D01*
X15697Y100519D01*
X15758Y100475D01*
X15764Y100469D01*
X15786Y100453D01*
X15814Y100425D01*
X15847Y100392D01*
X15886Y100342D01*
X15931Y100292D01*
X15969Y100231D01*
X16003Y100159D01*
Y100153D01*
X16008Y100142D01*
X16014Y100125D01*
X16025Y100098D01*
X16036Y100070D01*
X16047Y100031D01*
X16075Y99942D01*
X16103Y99842D01*
X16125Y99726D01*
X16141Y99598D01*
X16147Y99470D01*
Y98688D01*
Y98682D01*
Y98660D01*
Y98632D01*
X16141Y98588D01*
Y98538D01*
X16130Y98482D01*
X16125Y98416D01*
X16114Y98344D01*
X16080Y98194D01*
X16036Y98033D01*
X15969Y97878D01*
X15925Y97805D01*
X15880Y97739D01*
X15875Y97728D01*
X15847Y97705D01*
X15808Y97667D01*
X15753Y97628D01*
X15686Y97583D01*
X15603Y97544D01*
X15503Y97522D01*
X15392Y97511D01*
X15331D01*
X15292Y97517D01*
X15242Y97522D01*
X15192Y97528D01*
X15087Y97556D01*
X15081D01*
X15065Y97561D01*
X15037Y97572D01*
X15009Y97583D01*
X14937Y97622D01*
X14904Y97644D01*
X14870Y97672D01*
X14865Y97678D01*
X14859Y97683D01*
X14820Y97711D01*
X14776Y97739D01*
X14754Y97744D01*
X14726Y97750D01*
X14709D01*
X14676Y97744D01*
X14632Y97722D01*
X14610Y97711D01*
X14587Y97689D01*
X14582D01*
X14576Y97678D01*
X14554Y97650D01*
X14537Y97606D01*
X14526Y97578D01*
Y97550D01*
Y97544D01*
Y97528D01*
X14537Y97506D01*
X14548Y97472D01*
X14571Y97434D01*
X14599Y97389D01*
X14643Y97345D01*
X14704Y97300D01*
X14709D01*
X14715Y97295D01*
X14732Y97284D01*
X14754Y97272D01*
X14776Y97261D01*
X14809Y97245D01*
X14887Y97211D01*
X14992Y97178D01*
X15109Y97150D01*
X15253Y97128D01*
X15409Y97123D01*
X15464D01*
X15525Y97134D01*
X15603Y97145D01*
X15692Y97162D01*
X15786Y97189D01*
X15880Y97228D01*
X15969Y97278D01*
X15975D01*
X15980Y97289D01*
X16014Y97317D01*
X16069Y97361D01*
X16130Y97428D01*
X16202Y97511D01*
X16269Y97617D01*
X16336Y97733D01*
X16397Y97872D01*
Y97878D01*
X16402Y97889D01*
X16408Y97911D01*
X16419Y97939D01*
X16430Y97972D01*
X16441Y98016D01*
X16452Y98061D01*
X16463Y98116D01*
X16491Y98233D01*
X16513Y98366D01*
X16530Y98505D01*
X16535Y98649D01*
Y98266D01*
Y99576D01*
Y99559D01*
X16530Y99603D01*
X16524Y99654D01*
X16519Y99720D01*
X16508Y99787D01*
X16497Y99864D01*
X16463Y100031D01*
X16408Y100203D01*
X16369Y100297D01*
X16330Y100381D01*
X16286Y100469D01*
X16230Y100553D01*
X16225Y100558D01*
X16214Y100569D01*
X16197Y100591D01*
X16175Y100619D01*
X16141Y100653D01*
X16108Y100691D01*
X16064Y100730D01*
X16014Y100775D01*
X15958Y100813D01*
X15897Y100852D01*
X15831Y100891D01*
X15758Y100924D01*
X15681Y100952D01*
X15597Y100974D01*
X15509Y100986D01*
X15414Y100991D01*
X16535D01*
D01*
Y97561D01*
D02*
G37*
G36*
X2921Y99448D02*
X2977Y99443D01*
X3049Y99426D01*
X3132Y99404D01*
X3221Y99365D01*
X3310Y99309D01*
X3393Y99237D01*
X3404Y99226D01*
X3426Y99198D01*
X3460Y99154D01*
X3498Y99093D01*
X3537Y99015D01*
X3571Y98932D01*
X3593Y98832D01*
X3604Y98727D01*
Y98721D01*
Y98716D01*
Y98699D01*
X3598Y98677D01*
X3593Y98621D01*
X3576Y98555D01*
X3554Y98471D01*
X3515Y98388D01*
X3465Y98299D01*
X3393Y98216D01*
X3382Y98205D01*
X3354Y98183D01*
X3310Y98149D01*
X3249Y98111D01*
X3171Y98072D01*
X3082Y98038D01*
X2982Y98016D01*
X2871Y98005D01*
X2844D01*
X2821Y98011D01*
X2766Y98016D01*
X2694Y98033D01*
X2610Y98055D01*
X2522Y98094D01*
X2433Y98144D01*
X2350Y98216D01*
X2338Y98227D01*
X2316Y98255D01*
X2283Y98299D01*
X2239Y98360D01*
X2200Y98438D01*
X2166Y98521D01*
X2144Y98621D01*
X2133Y98727D01*
Y98732D01*
Y98738D01*
Y98754D01*
X2139Y98777D01*
X2144Y98832D01*
X2161Y98899D01*
X2183Y98982D01*
X2222Y99065D01*
X2277Y99154D01*
X2350Y99237D01*
X2361Y99248D01*
X2389Y99270D01*
X2433Y99304D01*
X2494Y99348D01*
X2572Y99387D01*
X2660Y99420D01*
X2760Y99443D01*
X2871Y99454D01*
X2899D01*
X2921Y99448D01*
D02*
G37*
G36*
X-24429Y97844D02*
X-24435Y97866D01*
X-24440Y97894D01*
X-24457Y97927D01*
X-24474Y97961D01*
X-24501Y98000D01*
X-24535Y98038D01*
X-24540D01*
X-24546Y98044D01*
X-24562Y98055D01*
X-24590Y98066D01*
X-24623Y98072D01*
X-24668Y98083D01*
X-24723Y98088D01*
X-24790D01*
Y99382D01*
X-24757D01*
X-24723Y99387D01*
X-24679Y99393D01*
X-24585Y99415D01*
X-24546Y99432D01*
X-24507Y99454D01*
X-24501Y99459D01*
X-24496Y99465D01*
X-24485Y99481D01*
X-24468Y99504D01*
X-24440Y99565D01*
X-24435Y99603D01*
X-24429Y99642D01*
Y97844D01*
D02*
G37*
G36*
X-26089Y99970D02*
X-26127Y99964D01*
X-26177Y99959D01*
X-26283Y99936D01*
X-26399Y99903D01*
X-26522Y99853D01*
X-26583Y99820D01*
X-26644Y99781D01*
X-26699Y99731D01*
X-26755Y99681D01*
X-26766Y99670D01*
X-26788Y99637D01*
X-26827Y99587D01*
X-26866Y99520D01*
X-26904Y99432D01*
X-26943Y99326D01*
X-26965Y99204D01*
X-26977Y99071D01*
Y98088D01*
X-27010D01*
X-27043Y98083D01*
X-27082Y98077D01*
X-27176Y98055D01*
X-27221Y98038D01*
X-27254Y98011D01*
X-27260Y98005D01*
X-27265Y98000D01*
X-27282Y97983D01*
X-27299Y97961D01*
X-27326Y97900D01*
X-27332Y97866D01*
X-27337Y97822D01*
Y99975D01*
X-26055D01*
X-26089Y99970D01*
D02*
G37*
%LPC*%
G36*
X9375Y94879D02*
X9357D01*
X9285Y94872D01*
X9219Y94857D01*
X9161Y94835D01*
X9110Y94810D01*
X9070Y94781D01*
X9041Y94759D01*
X9023Y94744D01*
X9015Y94737D01*
X8968Y94682D01*
X8931Y94624D01*
X8906Y94570D01*
X8891Y94515D01*
X8880Y94471D01*
X8877Y94435D01*
X8873Y94420D01*
Y94409D01*
Y94406D01*
Y94402D01*
X8880Y94333D01*
X8895Y94267D01*
X8917Y94213D01*
X8942Y94162D01*
X8971Y94122D01*
X8993Y94093D01*
X9008Y94074D01*
X9015Y94067D01*
X9070Y94020D01*
X9128Y93987D01*
X9186Y93962D01*
X9241Y93947D01*
X9288Y93936D01*
X9325Y93933D01*
X9339Y93929D01*
X9357D01*
X9430Y93936D01*
X9496Y93951D01*
X9554Y93973D01*
X9605Y93998D01*
X9645Y94024D01*
X9674Y94045D01*
X9692Y94060D01*
X9700Y94067D01*
X9747Y94122D01*
X9780Y94180D01*
X9805Y94235D01*
X9820Y94289D01*
X9831Y94333D01*
X9834Y94369D01*
X9838Y94384D01*
Y94395D01*
Y94398D01*
Y94402D01*
X9831Y94471D01*
X9816Y94537D01*
X9794Y94591D01*
X9769Y94642D01*
X9743Y94682D01*
X9721Y94712D01*
X9707Y94730D01*
X9700Y94737D01*
X9645Y94784D01*
X9587Y94821D01*
X9528Y94846D01*
X9474Y94861D01*
X9426Y94872D01*
X9390Y94875D01*
X9375Y94879D01*
D02*
G37*
G36*
X-9363D02*
X-9381D01*
X-9454Y94872D01*
X-9520Y94857D01*
X-9578Y94835D01*
X-9629Y94810D01*
X-9669Y94781D01*
X-9698Y94759D01*
X-9716Y94744D01*
X-9724Y94737D01*
X-9771Y94682D01*
X-9807Y94624D01*
X-9833Y94570D01*
X-9847Y94515D01*
X-9858Y94471D01*
X-9862Y94435D01*
X-9866Y94420D01*
Y94409D01*
Y94406D01*
Y94402D01*
X-9858Y94333D01*
X-9844Y94267D01*
X-9822Y94213D01*
X-9796Y94162D01*
X-9767Y94122D01*
X-9745Y94093D01*
X-9731Y94074D01*
X-9724Y94067D01*
X-9669Y94020D01*
X-9611Y93987D01*
X-9552Y93962D01*
X-9498Y93947D01*
X-9450Y93936D01*
X-9414Y93933D01*
X-9400Y93929D01*
X-9381D01*
X-9309Y93936D01*
X-9243Y93951D01*
X-9185Y93973D01*
X-9134Y93998D01*
X-9094Y94024D01*
X-9065Y94045D01*
X-9047Y94060D01*
X-9039Y94067D01*
X-8992Y94122D01*
X-8959Y94180D01*
X-8934Y94235D01*
X-8919Y94289D01*
X-8908Y94333D01*
X-8905Y94369D01*
X-8901Y94384D01*
Y94395D01*
Y94398D01*
Y94402D01*
X-8908Y94471D01*
X-8923Y94537D01*
X-8945Y94591D01*
X-8970Y94642D01*
X-8996Y94682D01*
X-9017Y94712D01*
X-9032Y94730D01*
X-9039Y94737D01*
X-9094Y94784D01*
X-9152Y94821D01*
X-9210Y94846D01*
X-9265Y94861D01*
X-9312Y94872D01*
X-9349Y94875D01*
X-9363Y94879D01*
D02*
G37*
G36*
X3118Y94300D02*
X3016D01*
X2947Y94293D01*
X2882Y94286D01*
X2823Y94278D01*
X2773Y94271D01*
X2733Y94264D01*
X2718Y94260D01*
X2707D01*
X2700Y94257D01*
X2696D01*
Y94111D01*
X2743Y94082D01*
X2794Y94053D01*
X2842Y94031D01*
X2889Y94013D01*
X2926Y93994D01*
X2958Y93984D01*
X2976Y93980D01*
X2980Y93976D01*
X2984D01*
X3042Y93962D01*
X3093Y93951D01*
X3140Y93940D01*
X3184Y93936D01*
X3217Y93933D01*
X3242Y93929D01*
X3264D01*
X3315Y93933D01*
X3362Y93936D01*
X3402Y93947D01*
X3435Y93958D01*
X3464Y93965D01*
X3482Y93976D01*
X3493Y93980D01*
X3497Y93984D01*
X3511Y93994D01*
X3522Y94009D01*
X3533Y94034D01*
X3541Y94056D01*
Y94060D01*
Y94064D01*
X3537Y94089D01*
X3526Y94111D01*
X3511Y94133D01*
X3493Y94155D01*
X3475Y94169D01*
X3461Y94184D01*
X3450Y94191D01*
X3446Y94195D01*
X3388Y94231D01*
X3326Y94257D01*
X3264Y94275D01*
X3206Y94286D01*
X3158Y94297D01*
X3118Y94300D01*
D02*
G37*
G36*
X-13538Y94300D02*
X-13640D01*
X-13709Y94293D01*
X-13775Y94286D01*
X-13833Y94278D01*
X-13884Y94271D01*
X-13924Y94264D01*
X-13939Y94260D01*
X-13950D01*
X-13957Y94257D01*
X-13961D01*
Y94111D01*
X-13913Y94082D01*
X-13862Y94053D01*
X-13815Y94031D01*
X-13768Y94013D01*
X-13731Y93994D01*
X-13698Y93984D01*
X-13680Y93980D01*
X-13677Y93976D01*
X-13673D01*
X-13615Y93962D01*
X-13564Y93951D01*
X-13516Y93940D01*
X-13473Y93936D01*
X-13440Y93933D01*
X-13415Y93929D01*
X-13393D01*
X-13342Y93933D01*
X-13294Y93936D01*
X-13254Y93947D01*
X-13222Y93958D01*
X-13192Y93965D01*
X-13174Y93976D01*
X-13163Y93980D01*
X-13160Y93984D01*
X-13145Y93994D01*
X-13134Y94009D01*
X-13123Y94034D01*
X-13116Y94056D01*
Y94060D01*
Y94064D01*
X-13120Y94089D01*
X-13131Y94111D01*
X-13145Y94133D01*
X-13163Y94155D01*
X-13182Y94169D01*
X-13196Y94184D01*
X-13207Y94191D01*
X-13211Y94195D01*
X-13269Y94231D01*
X-13331Y94257D01*
X-13393Y94275D01*
X-13451Y94286D01*
X-13498Y94297D01*
X-13538Y94300D01*
D02*
G37*
G36*
X-7747Y94886D02*
X-7754D01*
Y94351D01*
X-7718Y94348D01*
X-7671D01*
X-7627Y94351D01*
X-7583Y94358D01*
X-7550Y94369D01*
X-7518Y94384D01*
X-7496Y94395D01*
X-7478Y94406D01*
X-7467Y94413D01*
X-7463Y94417D01*
X-7438Y94442D01*
X-7419Y94471D01*
X-7405Y94500D01*
X-7398Y94526D01*
X-7390Y94548D01*
X-7387Y94570D01*
Y94581D01*
Y94584D01*
X-7390Y94624D01*
X-7401Y94661D01*
X-7416Y94693D01*
X-7434Y94722D01*
X-7448Y94748D01*
X-7463Y94766D01*
X-7474Y94777D01*
X-7478Y94781D01*
X-7518Y94810D01*
X-7561Y94835D01*
X-7609Y94854D01*
X-7652Y94868D01*
X-7692Y94875D01*
X-7725Y94883D01*
X-7747Y94886D01*
D02*
G37*
G36*
X949Y94875D02*
X927D01*
X876Y94872D01*
X833Y94868D01*
X745Y94846D01*
X672Y94814D01*
X610Y94781D01*
X559Y94744D01*
X523Y94712D01*
X512Y94701D01*
X501Y94690D01*
X494Y94686D01*
Y94682D01*
X454Y94631D01*
X421Y94577D01*
X399Y94526D01*
X385Y94479D01*
X378Y94438D01*
X370Y94406D01*
Y94384D01*
Y94380D01*
Y94377D01*
Y94344D01*
X378Y94315D01*
X396Y94257D01*
X421Y94206D01*
X450Y94158D01*
X479Y94122D01*
X505Y94093D01*
X523Y94074D01*
X527Y94067D01*
X530D01*
X592Y94020D01*
X661Y93987D01*
X727Y93962D01*
X789Y93947D01*
X843Y93936D01*
X869Y93933D01*
X887D01*
X905Y93929D01*
X927D01*
X1011Y93936D01*
X1087Y93951D01*
X1153Y93973D01*
X1211Y93998D01*
X1258Y94024D01*
X1291Y94045D01*
X1313Y94060D01*
X1317Y94067D01*
X1320D01*
X1349Y94093D01*
X1371Y94122D01*
X1411Y94177D01*
X1437Y94227D01*
X1459Y94275D01*
X1469Y94315D01*
X1473Y94344D01*
X1477Y94366D01*
Y94373D01*
X1473Y94409D01*
X1469Y94446D01*
X1451Y94511D01*
X1426Y94573D01*
X1397Y94624D01*
X1371Y94664D01*
X1346Y94697D01*
X1328Y94715D01*
X1320Y94722D01*
X1258Y94773D01*
X1193Y94810D01*
X1127Y94839D01*
X1065Y94857D01*
X1011Y94868D01*
X985Y94872D01*
X967D01*
X949Y94875D01*
D02*
G37*
G36*
X-24036Y94875D02*
X-24058D01*
X-24109Y94872D01*
X-24152Y94868D01*
X-24240Y94846D01*
X-24313Y94814D01*
X-24374Y94781D01*
X-24426Y94744D01*
X-24462Y94712D01*
X-24473Y94701D01*
X-24484Y94690D01*
X-24491Y94686D01*
Y94682D01*
X-24531Y94631D01*
X-24564Y94577D01*
X-24586Y94526D01*
X-24600Y94479D01*
X-24608Y94438D01*
X-24615Y94406D01*
Y94384D01*
Y94380D01*
Y94377D01*
Y94344D01*
X-24608Y94315D01*
X-24589Y94257D01*
X-24564Y94206D01*
X-24535Y94158D01*
X-24506Y94122D01*
X-24480Y94093D01*
X-24462Y94074D01*
X-24458Y94067D01*
X-24455D01*
X-24393Y94020D01*
X-24324Y93987D01*
X-24258Y93962D01*
X-24196Y93947D01*
X-24142Y93936D01*
X-24116Y93933D01*
X-24098D01*
X-24080Y93929D01*
X-24058D01*
X-23974Y93936D01*
X-23898Y93951D01*
X-23832Y93973D01*
X-23774Y93998D01*
X-23727Y94024D01*
X-23694Y94045D01*
X-23672Y94060D01*
X-23668Y94067D01*
X-23665D01*
X-23636Y94093D01*
X-23614Y94122D01*
X-23574Y94177D01*
X-23548Y94227D01*
X-23526Y94275D01*
X-23516Y94315D01*
X-23512Y94344D01*
X-23508Y94366D01*
Y94373D01*
X-23512Y94409D01*
X-23516Y94446D01*
X-23534Y94511D01*
X-23559Y94573D01*
X-23588Y94624D01*
X-23614Y94664D01*
X-23639Y94697D01*
X-23658Y94715D01*
X-23665Y94722D01*
X-23727Y94773D01*
X-23792Y94810D01*
X-23858Y94839D01*
X-23920Y94857D01*
X-23974Y94868D01*
X-24000Y94872D01*
X-24018D01*
X-24036Y94875D01*
D02*
G37*
G36*
X24245Y-15542D02*
X24180D01*
X24016Y-15553D01*
X23874Y-15564D01*
X23753Y-15597D01*
X23644Y-15619D01*
X23557Y-15652D01*
X23502Y-15684D01*
X23458Y-15695D01*
X23447Y-15706D01*
X23578Y-15794D01*
X23731Y-15870D01*
X23885Y-15947D01*
X24027Y-16023D01*
X24147Y-16089D01*
X24256Y-16132D01*
X24322Y-16165D01*
X24333Y-16176D01*
X24343D01*
X24682Y-16318D01*
X24835Y-16384D01*
X24978Y-16450D01*
X25087Y-16493D01*
X25185Y-16537D01*
X25240Y-16559D01*
X25262Y-16570D01*
X25196Y-16384D01*
X25131Y-16231D01*
X25054Y-16100D01*
X24988Y-15990D01*
X24923Y-15914D01*
X24879Y-15848D01*
X24846Y-15815D01*
X24835Y-15805D01*
X24726Y-15717D01*
X24617Y-15652D01*
X24508Y-15608D01*
X24409Y-15575D01*
X24311Y-15553D01*
X24245Y-15542D01*
D02*
G37*
G36*
X39984Y-13717D02*
X39766D01*
X39613Y-13728D01*
X39460Y-13750D01*
X39329Y-13772D01*
X39208Y-13793D01*
X39099Y-13815D01*
X39012Y-13848D01*
X38924Y-13881D01*
X38848Y-13914D01*
X38782Y-13936D01*
X38695Y-13990D01*
X38640Y-14034D01*
X38618Y-14045D01*
X38552Y-14110D01*
X38487Y-14198D01*
X38389Y-14373D01*
X38323Y-14570D01*
X38268Y-14777D01*
X38247Y-14952D01*
X38236Y-15040D01*
Y-15105D01*
X38225Y-15160D01*
Y-15214D01*
Y-15236D01*
Y-15247D01*
X38236Y-15444D01*
X38247Y-15630D01*
X38312Y-15969D01*
X38399Y-16285D01*
X38454Y-16428D01*
X38509Y-16559D01*
X38563Y-16679D01*
X38618Y-16788D01*
X38662Y-16876D01*
X38706Y-16952D01*
X38738Y-17018D01*
X38771Y-17062D01*
X38782Y-17083D01*
X38793Y-17094D01*
X38913Y-17247D01*
X39033Y-17390D01*
X39154Y-17510D01*
X39285Y-17608D01*
X39416Y-17695D01*
X39536Y-17761D01*
X39656Y-17827D01*
X39777Y-17870D01*
X39984Y-17936D01*
X40083Y-17947D01*
X40159Y-17969D01*
X40225D01*
X40268Y-17980D01*
X40312D01*
X40596Y-17958D01*
X40848Y-17914D01*
X41066Y-17849D01*
X41252Y-17772D01*
X41405Y-17706D01*
X41515Y-17641D01*
X41558Y-17608D01*
X41591Y-17597D01*
X41602Y-17575D01*
X41613D01*
X41700Y-17488D01*
X41788Y-17400D01*
X41919Y-17225D01*
X42006Y-17040D01*
X42072Y-16854D01*
X42105Y-16701D01*
X42127Y-16570D01*
X42138Y-16526D01*
Y-16493D01*
Y-16471D01*
Y-16460D01*
X42127Y-16275D01*
X42116Y-16089D01*
X42039Y-15739D01*
X41941Y-15433D01*
X41886Y-15291D01*
X41831Y-15160D01*
X41777Y-15040D01*
X41722Y-14930D01*
X41668Y-14832D01*
X41624Y-14755D01*
X41580Y-14701D01*
X41547Y-14646D01*
X41536Y-14624D01*
X41526Y-14613D01*
X41394Y-14460D01*
X41274Y-14318D01*
X41132Y-14198D01*
X41001Y-14099D01*
X40870Y-14012D01*
X40738Y-13936D01*
X40607Y-13881D01*
X40487Y-13826D01*
X40378Y-13793D01*
X40268Y-13761D01*
X40181Y-13739D01*
X40094Y-13728D01*
X40028D01*
X39984Y-13717D01*
D02*
G37*
G36*
X10325Y100913D02*
X7811D01*
D01*
X8876D01*
Y100353D01*
X9509D01*
Y100913D01*
X10325D01*
D02*
G37*
G36*
X-2468D02*
X-3084D01*
Y99781D01*
X-3089Y99787D01*
X-3112Y99798D01*
X-3145Y99814D01*
X-3184Y99837D01*
X-3234Y99859D01*
X-3289Y99881D01*
X-3411Y99925D01*
X-3417D01*
X-3439Y99931D01*
X-3478Y99942D01*
X-3522Y99953D01*
X-3572Y99959D01*
X-3633Y99970D01*
X-3761Y99975D01*
X-3805D01*
X-3861Y99970D01*
X-3922Y99964D01*
X-4000Y99953D01*
X-4083Y99936D01*
X-4166Y99914D01*
X-4249Y99881D01*
X-4260Y99875D01*
X-4288Y99864D01*
X-4327Y99842D01*
X-4377Y99809D01*
X-4433Y99770D01*
X-4488Y99720D01*
X-4549Y99659D01*
X-4605Y99587D01*
X-4610Y99576D01*
X-4627Y99554D01*
X-4649Y99509D01*
X-4677Y99448D01*
X-4704Y99376D01*
X-4727Y99287D01*
X-4743Y99193D01*
X-4749Y99082D01*
Y98088D01*
X-4815D01*
X-4854Y98083D01*
X-4938Y98066D01*
X-4971Y98055D01*
X-4999Y98038D01*
X-5004Y98033D01*
X-5015Y98022D01*
X-5032Y98000D01*
X-5054Y97972D01*
X-5093Y97905D01*
X-5104Y97866D01*
X-5110Y97822D01*
Y97805D01*
X-5104Y97783D01*
X-5099Y97755D01*
X-5087Y97728D01*
X-5076Y97694D01*
X-5054Y97661D01*
X-5026Y97633D01*
X-5021Y97628D01*
X-5010Y97622D01*
X-4987Y97611D01*
X-4960Y97600D01*
X-4921Y97583D01*
X-4876Y97572D01*
X-4815Y97567D01*
X-4749Y97561D01*
X-5110D01*
Y97805D01*
Y97561D01*
D01*
X-2107D01*
D01*
X-2523D01*
X-2490Y97567D01*
X-2446Y97572D01*
X-2351Y97594D01*
X-2312Y97611D01*
X-2273Y97633D01*
X-2268Y97639D01*
X-2262Y97644D01*
X-2251Y97661D01*
X-2235Y97683D01*
X-2207Y97744D01*
X-2201Y97783D01*
X-2196Y97822D01*
Y97828D01*
Y97844D01*
X-2201Y97866D01*
X-2207Y97894D01*
X-2224Y97927D01*
X-2240Y97961D01*
X-2268Y98000D01*
X-2301Y98038D01*
X-2307D01*
X-2312Y98044D01*
X-2329Y98055D01*
X-2357Y98066D01*
X-2390Y98072D01*
X-2434Y98083D01*
X-2490Y98088D01*
X-2557D01*
Y100386D01*
X-2434D01*
X-2401Y100392D01*
X-2357Y100397D01*
X-2262Y100419D01*
X-2224Y100436D01*
X-2185Y100458D01*
X-2179Y100464D01*
X-2174Y100469D01*
X-2162Y100486D01*
X-2146Y100508D01*
X-2118Y100569D01*
X-2113Y100608D01*
X-2107Y100647D01*
Y100669D01*
X-2113Y100686D01*
X-2118Y100714D01*
X-2140Y100775D01*
X-2157Y100808D01*
X-2185Y100836D01*
X-2190Y100841D01*
X-2201Y100847D01*
X-2224Y100858D01*
X-2251Y100874D01*
X-2290Y100891D01*
X-2340Y100902D01*
X-2401Y100908D01*
X-2468Y100913D01*
D02*
G37*
G36*
X-18341Y100913D02*
X-18957D01*
Y99781D01*
X-18962Y99787D01*
X-18985Y99798D01*
X-19018Y99814D01*
X-19057Y99837D01*
X-19107Y99859D01*
X-19162Y99881D01*
X-19284Y99925D01*
X-19290D01*
X-19312Y99931D01*
X-19351Y99942D01*
X-19395Y99953D01*
X-19445Y99959D01*
X-19506Y99970D01*
X-19634Y99975D01*
X-19678D01*
X-19734Y99970D01*
X-19795Y99964D01*
X-19873Y99953D01*
X-19956Y99936D01*
X-20039Y99914D01*
X-20122Y99881D01*
X-20133Y99875D01*
X-20161Y99864D01*
X-20200Y99842D01*
X-20250Y99809D01*
X-20305Y99770D01*
X-20361Y99720D01*
X-20422Y99659D01*
X-20478Y99587D01*
X-20483Y99576D01*
X-20500Y99554D01*
X-20522Y99509D01*
X-20550Y99448D01*
X-20577Y99376D01*
X-20600Y99287D01*
X-20616Y99193D01*
X-20622Y99082D01*
Y98088D01*
X-20688D01*
X-20727Y98083D01*
X-20810Y98066D01*
X-20844Y98055D01*
X-20872Y98038D01*
X-20877Y98033D01*
X-20888Y98022D01*
X-20905Y98000D01*
X-20927Y97972D01*
X-20966Y97905D01*
X-20977Y97866D01*
X-20983Y97822D01*
Y97805D01*
X-20977Y97783D01*
X-20971Y97755D01*
X-20960Y97728D01*
X-20949Y97694D01*
X-20927Y97661D01*
X-20899Y97633D01*
X-20894Y97628D01*
X-20883Y97622D01*
X-20861Y97611D01*
X-20833Y97600D01*
X-20794Y97583D01*
X-20750Y97572D01*
X-20688Y97567D01*
X-20622Y97561D01*
X-20983D01*
D01*
X-17980D01*
D01*
X-18396D01*
X-18363Y97567D01*
X-18319Y97572D01*
X-18224Y97594D01*
X-18185Y97611D01*
X-18146Y97633D01*
X-18141Y97639D01*
X-18135Y97644D01*
X-18124Y97661D01*
X-18108Y97683D01*
X-18080Y97744D01*
X-18074Y97783D01*
X-18069Y97822D01*
Y97828D01*
Y97844D01*
X-18074Y97866D01*
X-18080Y97894D01*
X-18097Y97927D01*
X-18113Y97961D01*
X-18141Y98000D01*
X-18174Y98038D01*
X-18180D01*
X-18185Y98044D01*
X-18202Y98055D01*
X-18230Y98066D01*
X-18263Y98072D01*
X-18307Y98083D01*
X-18363Y98088D01*
X-18430D01*
Y100386D01*
X-18307D01*
X-18274Y100392D01*
X-18230Y100397D01*
X-18135Y100419D01*
X-18097Y100436D01*
X-18058Y100458D01*
X-18052Y100464D01*
X-18047Y100469D01*
X-18035Y100486D01*
X-18019Y100508D01*
X-17991Y100569D01*
X-17986Y100608D01*
X-17980Y100647D01*
Y100669D01*
X-17986Y100686D01*
X-17991Y100714D01*
X-18013Y100775D01*
X-18030Y100808D01*
X-18058Y100836D01*
X-18063Y100841D01*
X-18074Y100847D01*
X-18097Y100858D01*
X-18124Y100874D01*
X-18163Y100891D01*
X-18213Y100902D01*
X-18274Y100908D01*
X-18341Y100913D01*
D02*
G37*
G36*
X7317Y99975D02*
D01*
Y99665D01*
X7311Y99681D01*
X7306Y99709D01*
X7284Y99770D01*
X7267Y99803D01*
X7239Y99831D01*
X7234Y99837D01*
X7222Y99842D01*
X7200Y99853D01*
X7173Y99870D01*
X7134Y99887D01*
X7084Y99898D01*
X7023Y99903D01*
X6956Y99909D01*
X6429D01*
Y99726D01*
X6423Y99731D01*
X6401Y99748D01*
X6373Y99770D01*
X6335Y99792D01*
X6290Y99826D01*
X6235Y99853D01*
X6174Y99881D01*
X6112Y99909D01*
X6107Y99914D01*
X6085Y99920D01*
X6046Y99931D01*
X6002Y99942D01*
X5946Y99953D01*
X5879Y99964D01*
X5813Y99975D01*
X7317D01*
X4409D01*
D01*
X5691D01*
X5657Y99970D01*
X5619Y99964D01*
X5569Y99959D01*
X5463Y99936D01*
X5347Y99903D01*
X5224Y99853D01*
X5164Y99820D01*
X5102Y99781D01*
X5047Y99731D01*
X4991Y99681D01*
X4980Y99670D01*
X4958Y99637D01*
X4919Y99587D01*
X4880Y99520D01*
X4842Y99432D01*
X4803Y99326D01*
X4781Y99204D01*
X4769Y99071D01*
Y98088D01*
X4736D01*
X4703Y98083D01*
X4664Y98077D01*
X4570Y98055D01*
X4525Y98038D01*
X4492Y98011D01*
X4486Y98005D01*
X4481Y98000D01*
X4464Y97983D01*
X4448Y97961D01*
X4420Y97900D01*
X4414Y97866D01*
X4409Y97822D01*
Y97805D01*
X4414Y97783D01*
X4420Y97755D01*
X4431Y97728D01*
X4442Y97694D01*
X4464Y97661D01*
X4492Y97633D01*
X4498Y97628D01*
X4509Y97622D01*
X4531Y97611D01*
X4558Y97600D01*
X4597Y97583D01*
X4642Y97572D01*
X4703Y97567D01*
X4769Y97561D01*
X5330D01*
X5363Y97567D01*
X5408Y97572D01*
X5502Y97594D01*
X5541Y97611D01*
X5580Y97633D01*
X5585Y97639D01*
X5591Y97644D01*
X5602Y97661D01*
X5619Y97683D01*
X5646Y97744D01*
X5652Y97783D01*
X5657Y97822D01*
Y97828D01*
Y97844D01*
X5652Y97861D01*
X5646Y97889D01*
X5624Y97950D01*
X5607Y97983D01*
X5580Y98011D01*
X5574Y98016D01*
X5563Y98022D01*
X5541Y98033D01*
X5513Y98049D01*
X5474Y98066D01*
X5424Y98077D01*
X5363Y98083D01*
X5297Y98088D01*
Y99087D01*
Y99093D01*
Y99115D01*
X5302Y99148D01*
X5308Y99182D01*
X5319Y99226D01*
X5336Y99270D01*
X5358Y99309D01*
X5391Y99343D01*
X5397Y99348D01*
X5413Y99359D01*
X5441Y99376D01*
X5480Y99398D01*
X5535Y99415D01*
X5596Y99432D01*
X5669Y99443D01*
X5757Y99448D01*
X5791D01*
X5824Y99443D01*
X5868Y99437D01*
X5918Y99432D01*
X5968Y99420D01*
X6024Y99398D01*
X6079Y99376D01*
X6085Y99370D01*
X6101Y99359D01*
X6135Y99343D01*
X6174Y99309D01*
X6224Y99270D01*
X6285Y99215D01*
X6351Y99148D01*
X6429Y99071D01*
Y98088D01*
X6362D01*
X6323Y98083D01*
X6240Y98066D01*
X6207Y98055D01*
X6179Y98038D01*
X6174Y98033D01*
X6163Y98022D01*
X6146Y98000D01*
X6124Y97972D01*
X6085Y97905D01*
X6074Y97866D01*
X6068Y97822D01*
Y97816D01*
Y97805D01*
X6074Y97783D01*
X6079Y97755D01*
X6090Y97728D01*
X6101Y97694D01*
X6124Y97661D01*
X6151Y97633D01*
X6157Y97628D01*
X6168Y97622D01*
X6190Y97611D01*
X6218Y97600D01*
X6257Y97583D01*
X6301Y97572D01*
X6362Y97567D01*
X6429Y97561D01*
X7317D01*
X6989D01*
X7023Y97567D01*
X7067Y97572D01*
X7162Y97594D01*
X7200Y97611D01*
X7239Y97633D01*
X7245Y97639D01*
X7250Y97644D01*
X7261Y97661D01*
X7278Y97683D01*
X7306Y97744D01*
X7311Y97783D01*
X7317Y97822D01*
Y99975D01*
D02*
G37*
G36*
X-5448D02*
X-8262D01*
D01*
X-6819D01*
X-6858Y99970D01*
X-6897D01*
X-6941Y99964D01*
X-7052Y99948D01*
X-7174Y99925D01*
X-7302Y99887D01*
X-7424Y99831D01*
X-7535Y99759D01*
X-7541D01*
X-7546Y99748D01*
X-7579Y99720D01*
X-7624Y99670D01*
X-7674Y99609D01*
X-7724Y99526D01*
X-7768Y99426D01*
X-7801Y99309D01*
X-7807Y99243D01*
X-7812Y99176D01*
Y98088D01*
X-7935D01*
X-7968Y98083D01*
X-8007Y98077D01*
X-8101Y98055D01*
X-8145Y98038D01*
X-8179Y98011D01*
X-8184Y98005D01*
X-8190Y98000D01*
X-8207Y97983D01*
X-8223Y97961D01*
X-8251Y97900D01*
X-8256Y97866D01*
X-8262Y97822D01*
Y97805D01*
X-8256Y97783D01*
X-8251Y97755D01*
X-8240Y97728D01*
X-8229Y97694D01*
X-8207Y97661D01*
X-8179Y97633D01*
X-8173Y97628D01*
X-8162Y97622D01*
X-8140Y97611D01*
X-8112Y97600D01*
X-8073Y97583D01*
X-8029Y97572D01*
X-7968Y97567D01*
X-7901Y97561D01*
X-7285D01*
Y97683D01*
X-7274Y97678D01*
X-7252Y97667D01*
X-7208Y97650D01*
X-7158Y97622D01*
X-7091Y97600D01*
X-7013Y97572D01*
X-6930Y97550D01*
X-6841Y97528D01*
X-6830D01*
X-6802Y97522D01*
X-6758Y97511D01*
X-6697Y97506D01*
X-6630Y97495D01*
X-6558Y97483D01*
X-6403Y97478D01*
X-6364D01*
X-6331Y97483D01*
X-6297D01*
X-6253Y97489D01*
X-6159Y97506D01*
X-6047Y97533D01*
X-5937Y97572D01*
X-5820Y97628D01*
X-5714Y97700D01*
X-5709D01*
X-5703Y97711D01*
X-5676Y97739D01*
X-5631Y97783D01*
X-5581Y97844D01*
X-5531Y97922D01*
X-5492Y98005D01*
X-5459Y98099D01*
X-5454Y98149D01*
X-5448Y98199D01*
Y97561D01*
Y98233D01*
X-5454Y98255D01*
X-5465Y98316D01*
X-5492Y98399D01*
X-5531Y98493D01*
X-5559Y98544D01*
X-5592Y98593D01*
X-5631Y98649D01*
X-5676Y98704D01*
X-5726Y98754D01*
X-5787Y98810D01*
X-5792Y98815D01*
X-5803Y98821D01*
X-5820Y98838D01*
X-5848Y98854D01*
X-5881Y98877D01*
X-5925Y98899D01*
X-5975Y98926D01*
X-6031Y98954D01*
X-6092Y98982D01*
X-6164Y99010D01*
X-6242Y99032D01*
X-6325Y99054D01*
X-6414Y99071D01*
X-6514Y99087D01*
X-6614Y99093D01*
X-6725Y99098D01*
X-6819D01*
X-6886Y99093D01*
X-6969Y99087D01*
X-7063Y99076D01*
X-7169Y99060D01*
X-7285Y99043D01*
Y99171D01*
Y99176D01*
Y99193D01*
X-7280Y99215D01*
X-7274Y99243D01*
X-7257Y99270D01*
X-7241Y99309D01*
X-7213Y99337D01*
X-7180Y99370D01*
X-7174Y99376D01*
X-7158Y99382D01*
X-7135Y99393D01*
X-7096Y99409D01*
X-7041Y99426D01*
X-6974Y99437D01*
X-6891Y99443D01*
X-6791Y99448D01*
X-6747D01*
X-6697Y99443D01*
X-6630Y99437D01*
X-6542Y99426D01*
X-6436Y99409D01*
X-6314Y99387D01*
X-6181Y99354D01*
X-6175D01*
X-6159Y99348D01*
X-6131Y99343D01*
X-6103Y99337D01*
X-6031Y99326D01*
X-5998Y99321D01*
X-5948D01*
X-5925Y99326D01*
X-5903Y99332D01*
X-5848Y99354D01*
X-5814Y99370D01*
X-5787Y99393D01*
X-5781Y99398D01*
X-5776Y99409D01*
X-5765Y99426D01*
X-5753Y99448D01*
X-5726Y99509D01*
X-5720Y99542D01*
X-5714Y99587D01*
Y99592D01*
Y99598D01*
X-5720Y99626D01*
X-5726Y99665D01*
X-5737Y99703D01*
X-5742Y99714D01*
X-5759Y99731D01*
X-5781Y99759D01*
X-5809Y99781D01*
X-5820Y99787D01*
X-5831Y99792D01*
X-5853Y99803D01*
X-5881Y99814D01*
X-5914Y99826D01*
X-5953Y99837D01*
X-6003Y99853D01*
X-6014D01*
X-6036Y99864D01*
X-6075Y99875D01*
X-6125Y99887D01*
X-6186Y99898D01*
X-6253Y99914D01*
X-6403Y99942D01*
X-6414D01*
X-6436Y99948D01*
X-6475Y99953D01*
X-6525Y99959D01*
X-6586Y99964D01*
X-6647Y99970D01*
X-6775Y99975D01*
X-5448D01*
D02*
G37*
G36*
X-8617D02*
X-11359D01*
X-10044D01*
X-10077Y99970D01*
X-10116Y99964D01*
X-10204Y99953D01*
X-10310Y99931D01*
X-10426Y99898D01*
X-10549Y99853D01*
X-10676Y99792D01*
X-10682D01*
X-10693Y99787D01*
X-10710Y99776D01*
X-10732Y99759D01*
X-10793Y99720D01*
X-10865Y99665D01*
X-10948Y99598D01*
X-11037Y99515D01*
X-11115Y99420D01*
X-11187Y99309D01*
Y99304D01*
X-11192Y99298D01*
X-11203Y99282D01*
X-11215Y99259D01*
X-11242Y99198D01*
X-11276Y99121D01*
X-11303Y99026D01*
X-11331Y98921D01*
X-11353Y98804D01*
X-11359Y98688D01*
Y98638D01*
X-11348Y98577D01*
X-11337Y98499D01*
X-11315Y98410D01*
X-11287Y98310D01*
X-11242Y98205D01*
X-11187Y98094D01*
Y98088D01*
X-11181Y98083D01*
X-11153Y98049D01*
X-11115Y97994D01*
X-11059Y97933D01*
X-10993Y97861D01*
X-10904Y97783D01*
X-10798Y97711D01*
X-10682Y97644D01*
X-10676D01*
X-10665Y97639D01*
X-10649Y97628D01*
X-10626Y97617D01*
X-10593Y97606D01*
X-10560Y97594D01*
X-10471Y97561D01*
X-10365Y97533D01*
X-10249Y97506D01*
X-10116Y97483D01*
X-9983Y97478D01*
X-9921D01*
X-9888Y97483D01*
X-9849Y97489D01*
X-9760Y97500D01*
X-9655Y97517D01*
X-9539Y97544D01*
X-9416Y97583D01*
X-9289Y97639D01*
X-9283D01*
X-9272Y97644D01*
X-9255Y97655D01*
X-9233Y97672D01*
X-9178Y97705D01*
X-9106Y97761D01*
X-9022Y97822D01*
X-8939Y97900D01*
X-8861Y97994D01*
X-8789Y98094D01*
Y98099D01*
X-8784Y98105D01*
X-8773Y98122D01*
X-8761Y98144D01*
X-8734Y98199D01*
X-8706Y98277D01*
X-8673Y98366D01*
X-8645Y98471D01*
X-8623Y98577D01*
X-8617Y98693D01*
Y97572D01*
Y98727D01*
X-8623Y98749D01*
X-8628Y98810D01*
X-8639Y98888D01*
X-8662Y98982D01*
X-8689Y99087D01*
X-8734Y99198D01*
X-8789Y99315D01*
Y99321D01*
X-8800Y99326D01*
X-8806Y99343D01*
X-8822Y99365D01*
X-8861Y99420D01*
X-8917Y99493D01*
X-8989Y99565D01*
X-9078Y99648D01*
X-9178Y99726D01*
X-9294Y99798D01*
X-9300D01*
X-9311Y99803D01*
X-9328Y99814D01*
X-9350Y99826D01*
X-9383Y99837D01*
X-9416Y99853D01*
X-9505Y99887D01*
X-9611Y99920D01*
X-9727Y99948D01*
X-9849Y99970D01*
X-9983Y99975D01*
X-8617D01*
Y98993D01*
Y99975D01*
D02*
G37*
G36*
X-12053Y99304D02*
X-14267Y99304D01*
Y98821D01*
X-12053Y98821D01*
Y99304D01*
D02*
G37*
G36*
X-21266Y99975D02*
D01*
Y98738D01*
X-21271Y98771D01*
Y98810D01*
X-21277Y98854D01*
X-21288Y98910D01*
X-21299Y98971D01*
X-21316Y99037D01*
X-21338Y99110D01*
X-21365Y99182D01*
X-21399Y99259D01*
X-21438Y99337D01*
X-21488Y99415D01*
X-21543Y99487D01*
X-21604Y99559D01*
X-21676Y99626D01*
X-21682Y99631D01*
X-21693Y99642D01*
X-21715Y99659D01*
X-21748Y99681D01*
X-21787Y99709D01*
X-21837Y99737D01*
X-21887Y99770D01*
X-21948Y99803D01*
X-22015Y99831D01*
X-22087Y99864D01*
X-22248Y99920D01*
X-22337Y99942D01*
X-22431Y99959D01*
X-22525Y99970D01*
X-22625Y99975D01*
X-24013D01*
X-22681D01*
X-22742Y99970D01*
X-22820Y99959D01*
X-22908Y99948D01*
X-23008Y99925D01*
X-23114Y99898D01*
X-23214Y99859D01*
X-23219D01*
X-23225Y99853D01*
X-23258Y99842D01*
X-23308Y99814D01*
X-23369Y99787D01*
X-23430Y99753D01*
X-23502Y99709D01*
X-23563Y99665D01*
X-23619Y99615D01*
X-23624Y99603D01*
X-23652Y99581D01*
X-23685Y99537D01*
X-23724Y99481D01*
X-23774Y99415D01*
X-23824Y99332D01*
X-23874Y99243D01*
X-23924Y99143D01*
X-23930Y99132D01*
X-23935Y99110D01*
X-23952Y99065D01*
X-23968Y99010D01*
X-23980Y98943D01*
X-23996Y98865D01*
X-24002Y98782D01*
X-24007Y98688D01*
X-24013Y98466D01*
X-21837D01*
X-21843Y98455D01*
X-21854Y98432D01*
X-21871Y98394D01*
X-21904Y98344D01*
X-21943Y98288D01*
X-21993Y98233D01*
X-22054Y98177D01*
X-22126Y98127D01*
X-22137Y98122D01*
X-22165Y98111D01*
X-22209Y98088D01*
X-22276Y98066D01*
X-22359Y98044D01*
X-22459Y98022D01*
X-22570Y98011D01*
X-22697Y98005D01*
X-22753D01*
X-22781Y98011D01*
X-22814D01*
X-22859Y98016D01*
X-22908Y98022D01*
X-22958Y98027D01*
X-23019Y98033D01*
X-23153Y98055D01*
X-23308Y98088D01*
X-23480Y98127D01*
X-23491D01*
X-23513Y98138D01*
X-23547Y98144D01*
X-23591Y98155D01*
X-23680Y98172D01*
X-23724Y98183D01*
X-23774D01*
X-23796Y98177D01*
X-23819Y98172D01*
X-23880Y98149D01*
X-23907Y98133D01*
X-23935Y98105D01*
X-23941Y98099D01*
X-23946Y98094D01*
X-23957Y98077D01*
X-23974Y98055D01*
X-24002Y97994D01*
X-24007Y97961D01*
X-24013Y97916D01*
Y97900D01*
X-24007Y97883D01*
X-24002Y97855D01*
X-23980Y97800D01*
X-23963Y97772D01*
X-23935Y97744D01*
X-23930Y97739D01*
X-23913Y97728D01*
X-23880Y97711D01*
X-23835Y97689D01*
X-23763Y97661D01*
X-23724Y97644D01*
X-23680Y97628D01*
X-23624Y97611D01*
X-23569Y97594D01*
X-23502Y97578D01*
X-23430Y97561D01*
X-23425D01*
X-23414Y97556D01*
X-23391D01*
X-23363Y97550D01*
X-23325Y97544D01*
X-23286Y97533D01*
X-23236Y97528D01*
X-23186Y97522D01*
X-23064Y97506D01*
X-22936Y97489D01*
X-22797Y97483D01*
X-22659Y97478D01*
X-22598D01*
X-21266D01*
X-22598D01*
X-22553Y97483D01*
X-22498Y97489D01*
X-22437Y97495D01*
X-22370Y97506D01*
X-22292Y97522D01*
X-22131Y97567D01*
X-22048Y97594D01*
X-21965Y97628D01*
X-21882Y97667D01*
X-21798Y97716D01*
X-21715Y97772D01*
X-21643Y97833D01*
X-21637Y97839D01*
X-21626Y97850D01*
X-21610Y97872D01*
X-21582Y97900D01*
X-21554Y97933D01*
X-21527Y97977D01*
X-21488Y98022D01*
X-21454Y98077D01*
X-21421Y98138D01*
X-21388Y98205D01*
X-21327Y98360D01*
X-21299Y98438D01*
X-21282Y98527D01*
X-21271Y98621D01*
X-21266Y98716D01*
Y97528D01*
Y99975D01*
D02*
G37*
G36*
X835Y99975D02*
D01*
Y98727D01*
X829Y98765D01*
X823Y98815D01*
X812Y98871D01*
X801Y98932D01*
X790Y98999D01*
X746Y99143D01*
X712Y99221D01*
X679Y99304D01*
X635Y99382D01*
X585Y99459D01*
X529Y99531D01*
X463Y99603D01*
X457Y99609D01*
X446Y99620D01*
X424Y99637D01*
X396Y99665D01*
X357Y99692D01*
X313Y99720D01*
X257Y99753D01*
X196Y99792D01*
X130Y99826D01*
X58Y99859D01*
X-26Y99887D01*
X-115Y99920D01*
X-209Y99942D01*
X-309Y99959D01*
X-414Y99970D01*
X-525Y99975D01*
X835D01*
X-603D01*
X-659Y99970D01*
X-720Y99964D01*
X-786Y99959D01*
X-930Y99931D01*
X-941D01*
X-964Y99925D01*
X-997Y99914D01*
X-1047Y99903D01*
X-1097Y99887D01*
X-1158Y99864D01*
X-1280Y99809D01*
X-1286Y99814D01*
X-1297Y99826D01*
X-1313Y99837D01*
X-1341Y99859D01*
X-1402Y99887D01*
X-1436Y99898D01*
X-1474Y99903D01*
X-1496D01*
X-1513Y99898D01*
X-1541Y99892D01*
X-1574Y99881D01*
X-1602Y99870D01*
X-1635Y99848D01*
X-1663Y99820D01*
X-1669Y99814D01*
X-1674Y99803D01*
X-1685Y99781D01*
X-1702Y99753D01*
X-1719Y99714D01*
X-1730Y99670D01*
X-1735Y99615D01*
X-1741Y99548D01*
Y99209D01*
Y99204D01*
Y99176D01*
X-1735Y99143D01*
X-1730Y99104D01*
X-1707Y99015D01*
X-1691Y98971D01*
X-1663Y98937D01*
X-1657Y98932D01*
X-1652Y98926D01*
X-1635Y98915D01*
X-1613Y98899D01*
X-1552Y98871D01*
X-1519Y98865D01*
X-1474Y98860D01*
X-1458D01*
X-1436Y98865D01*
X-1408D01*
X-1347Y98888D01*
X-1319Y98899D01*
X-1286Y98921D01*
X-1280Y98932D01*
X-1269Y98943D01*
X-1258Y98960D01*
X-1241Y98988D01*
X-1230Y99021D01*
X-1213Y99060D01*
X-1202Y99110D01*
Y99115D01*
X-1197Y99132D01*
X-1186Y99159D01*
X-1169Y99193D01*
X-1152Y99226D01*
X-1125Y99259D01*
X-1091Y99298D01*
X-1053Y99326D01*
X-1041Y99332D01*
X-1014Y99343D01*
X-969Y99365D01*
X-908Y99387D01*
X-831Y99409D01*
X-742Y99432D01*
X-636Y99443D01*
X-520Y99448D01*
X-481D01*
X-459Y99443D01*
X-425D01*
X-387Y99437D01*
X-303Y99420D01*
X-209Y99393D01*
X-103Y99354D01*
X-4Y99298D01*
X85Y99226D01*
X96Y99215D01*
X118Y99187D01*
X157Y99137D01*
X196Y99076D01*
X235Y98993D01*
X274Y98899D01*
X296Y98793D01*
X307Y98671D01*
Y98666D01*
Y98660D01*
Y98643D01*
X302Y98621D01*
X296Y98566D01*
X280Y98493D01*
X252Y98416D01*
X218Y98333D01*
X163Y98255D01*
X91Y98183D01*
X80Y98177D01*
X46Y98155D01*
X24Y98144D01*
X-4Y98127D01*
X-42Y98111D01*
X-81Y98094D01*
X-126Y98077D01*
X-181Y98061D01*
X-242Y98044D01*
X-303Y98033D01*
X-375Y98022D01*
X-453Y98011D01*
X-542Y98005D01*
X-686D01*
X-747Y98011D01*
X-819Y98016D01*
X-908Y98022D01*
X-997Y98033D01*
X-1086Y98049D01*
X-1169Y98072D01*
X-1175D01*
X-1191Y98077D01*
X-1213Y98088D01*
X-1247Y98105D01*
X-1319Y98149D01*
X-1358Y98177D01*
X-1402Y98211D01*
X-1408Y98216D01*
X-1419Y98227D01*
X-1441Y98244D01*
X-1469Y98266D01*
X-1535Y98299D01*
X-1574Y98310D01*
X-1608Y98316D01*
X-1624D01*
X-1646Y98310D01*
X-1669Y98305D01*
X-1696Y98294D01*
X-1730Y98283D01*
X-1763Y98260D01*
X-1791Y98233D01*
X-1796Y98227D01*
X-1802Y98222D01*
X-1818Y98205D01*
X-1835Y98183D01*
X-1863Y98122D01*
X-1868Y98083D01*
X-1874Y98044D01*
Y98049D01*
Y98044D01*
Y98038D01*
X-1868Y98016D01*
X-1863Y97977D01*
X-1846Y97939D01*
X-1813Y97883D01*
X-1768Y97828D01*
X-1713Y97772D01*
X-1674Y97739D01*
X-1630Y97711D01*
X-1624D01*
X-1613Y97700D01*
X-1591Y97689D01*
X-1563Y97672D01*
X-1524Y97655D01*
X-1480Y97639D01*
X-1430Y97617D01*
X-1369Y97594D01*
X-1297Y97572D01*
X-1219Y97550D01*
X-1136Y97533D01*
X-1041Y97517D01*
X-936Y97500D01*
X-831Y97489D01*
X-714Y97483D01*
X-586Y97478D01*
X-1874D01*
X-525D01*
X-486Y97483D01*
X-431D01*
X-375Y97489D01*
X-309Y97500D01*
X-237Y97511D01*
X-81Y97539D01*
X80Y97583D01*
X235Y97644D01*
X307Y97683D01*
X374Y97728D01*
X379Y97733D01*
X396Y97744D01*
X418Y97761D01*
X446Y97789D01*
X479Y97828D01*
X518Y97866D01*
X563Y97916D01*
X601Y97977D01*
X646Y98038D01*
X690Y98111D01*
X729Y98188D01*
X762Y98272D01*
X790Y98360D01*
X812Y98460D01*
X829Y98560D01*
X835Y98671D01*
Y99975D01*
D02*
G37*
G36*
X-15039Y99975D02*
D01*
Y98727D01*
X-15044Y98765D01*
X-15050Y98815D01*
X-15061Y98871D01*
X-15072Y98932D01*
X-15083Y98999D01*
X-15127Y99143D01*
X-15161Y99221D01*
X-15194Y99304D01*
X-15238Y99382D01*
X-15288Y99459D01*
X-15344Y99531D01*
X-15410Y99603D01*
X-15416Y99609D01*
X-15427Y99620D01*
X-15449Y99637D01*
X-15477Y99665D01*
X-15516Y99692D01*
X-15560Y99720D01*
X-15616Y99753D01*
X-15677Y99792D01*
X-15743Y99826D01*
X-15815Y99859D01*
X-15899Y99887D01*
X-15988Y99920D01*
X-16082Y99942D01*
X-16182Y99959D01*
X-16287Y99970D01*
X-16398Y99975D01*
X-15039D01*
X-16476D01*
X-16532Y99970D01*
X-16592Y99964D01*
X-16659Y99959D01*
X-16803Y99931D01*
X-16815D01*
X-16837Y99925D01*
X-16870Y99914D01*
X-16920Y99903D01*
X-16970Y99887D01*
X-17031Y99864D01*
X-17153Y99809D01*
X-17159Y99814D01*
X-17170Y99826D01*
X-17186Y99837D01*
X-17214Y99859D01*
X-17275Y99887D01*
X-17309Y99898D01*
X-17347Y99903D01*
X-17369D01*
X-17386Y99898D01*
X-17414Y99892D01*
X-17447Y99881D01*
X-17475Y99870D01*
X-17508Y99848D01*
X-17536Y99820D01*
X-17542Y99814D01*
X-17547Y99803D01*
X-17558Y99781D01*
X-17575Y99753D01*
X-17592Y99714D01*
X-17603Y99670D01*
X-17608Y99615D01*
X-17614Y99548D01*
Y99209D01*
Y99204D01*
Y99176D01*
X-17608Y99143D01*
X-17603Y99104D01*
X-17580Y99015D01*
X-17564Y98971D01*
X-17536Y98937D01*
X-17530Y98932D01*
X-17525Y98926D01*
X-17508Y98915D01*
X-17486Y98899D01*
X-17425Y98871D01*
X-17392Y98865D01*
X-17347Y98860D01*
X-17331D01*
X-17309Y98865D01*
X-17281D01*
X-17220Y98888D01*
X-17192Y98899D01*
X-17159Y98921D01*
X-17153Y98932D01*
X-17142Y98943D01*
X-17131Y98960D01*
X-17114Y98988D01*
X-17103Y99021D01*
X-17086Y99060D01*
X-17075Y99110D01*
Y99115D01*
X-17070Y99132D01*
X-17059Y99159D01*
X-17042Y99193D01*
X-17025Y99226D01*
X-16998Y99259D01*
X-16964Y99298D01*
X-16926Y99326D01*
X-16914Y99332D01*
X-16887Y99343D01*
X-16842Y99365D01*
X-16781Y99387D01*
X-16703Y99409D01*
X-16615Y99432D01*
X-16509Y99443D01*
X-16393Y99448D01*
X-16354D01*
X-16332Y99443D01*
X-16298D01*
X-16260Y99437D01*
X-16176Y99420D01*
X-16082Y99393D01*
X-15977Y99354D01*
X-15877Y99298D01*
X-15788Y99226D01*
X-15777Y99215D01*
X-15755Y99187D01*
X-15716Y99137D01*
X-15677Y99076D01*
X-15638Y98993D01*
X-15599Y98899D01*
X-15577Y98793D01*
X-15566Y98671D01*
Y98666D01*
Y98660D01*
Y98643D01*
X-15571Y98621D01*
X-15577Y98566D01*
X-15594Y98493D01*
X-15621Y98416D01*
X-15655Y98333D01*
X-15710Y98255D01*
X-15782Y98183D01*
X-15793Y98177D01*
X-15827Y98155D01*
X-15849Y98144D01*
X-15877Y98127D01*
X-15915Y98111D01*
X-15954Y98094D01*
X-15999Y98077D01*
X-16054Y98061D01*
X-16115Y98044D01*
X-16176Y98033D01*
X-16248Y98022D01*
X-16326Y98011D01*
X-16415Y98005D01*
X-16559D01*
X-16620Y98011D01*
X-16692Y98016D01*
X-16781Y98022D01*
X-16870Y98033D01*
X-16959Y98049D01*
X-17042Y98072D01*
X-17048D01*
X-17064Y98077D01*
X-17086Y98088D01*
X-17120Y98105D01*
X-17192Y98149D01*
X-17231Y98177D01*
X-17275Y98211D01*
X-17281Y98216D01*
X-17292Y98227D01*
X-17314Y98244D01*
X-17342Y98266D01*
X-17408Y98299D01*
X-17447Y98310D01*
X-17481Y98316D01*
X-17497D01*
X-17519Y98310D01*
X-17542Y98305D01*
X-17569Y98294D01*
X-17603Y98283D01*
X-17636Y98260D01*
X-17664Y98233D01*
X-17669Y98227D01*
X-17675Y98222D01*
X-17691Y98205D01*
X-17708Y98183D01*
X-17736Y98122D01*
X-17741Y98083D01*
X-17747Y98044D01*
Y98038D01*
X-17741Y98016D01*
X-17736Y97977D01*
X-17719Y97939D01*
X-17686Y97883D01*
X-17641Y97828D01*
X-17586Y97772D01*
X-17547Y97739D01*
X-17503Y97711D01*
X-17497D01*
X-17486Y97700D01*
X-17464Y97689D01*
X-17436Y97672D01*
X-17397Y97655D01*
X-17353Y97639D01*
X-17303Y97617D01*
X-17242Y97594D01*
X-17170Y97572D01*
X-17092Y97550D01*
X-17009Y97533D01*
X-16914Y97517D01*
X-16809Y97500D01*
X-16703Y97489D01*
X-16587Y97483D01*
X-16459Y97478D01*
X-17747D01*
X-16398D01*
X-16359Y97483D01*
X-16304D01*
X-16248Y97489D01*
X-16182Y97500D01*
X-16110Y97511D01*
X-15954Y97539D01*
X-15793Y97583D01*
X-15638Y97644D01*
X-15566Y97683D01*
X-15499Y97728D01*
X-15494Y97733D01*
X-15477Y97744D01*
X-15455Y97761D01*
X-15427Y97789D01*
X-15394Y97828D01*
X-15355Y97866D01*
X-15311Y97916D01*
X-15272Y97977D01*
X-15227Y98038D01*
X-15183Y98111D01*
X-15144Y98188D01*
X-15111Y98272D01*
X-15083Y98360D01*
X-15061Y98460D01*
X-15044Y98560D01*
X-15039Y98671D01*
Y99975D01*
D02*
G37*
G36*
X-5448Y99975D02*
D01*
Y98493D01*
Y99975D01*
D02*
G37*
G36*
X9759Y99909D02*
X8804D01*
Y98088D01*
X8138D01*
X8105Y98083D01*
X8066Y98077D01*
X7972Y98055D01*
X7927Y98038D01*
X7894Y98011D01*
X7888Y98005D01*
X7883Y98000D01*
X7866Y97983D01*
X7850Y97961D01*
X7822Y97900D01*
X7816Y97866D01*
X7811Y97822D01*
Y97805D01*
X7816Y97783D01*
X7822Y97755D01*
X7833Y97728D01*
X7844Y97694D01*
X7866Y97661D01*
X7894Y97633D01*
X7900Y97628D01*
X7911Y97622D01*
X7933Y97611D01*
X7961Y97600D01*
X7999Y97583D01*
X8044Y97572D01*
X8105Y97567D01*
X8172Y97561D01*
X10325D01*
X9997D01*
X10031Y97567D01*
X10075Y97572D01*
X10170Y97594D01*
X10208Y97611D01*
X10247Y97633D01*
X10253Y97639D01*
X10258Y97644D01*
X10270Y97661D01*
X10286Y97683D01*
X10314Y97744D01*
X10319Y97783D01*
X10325Y97822D01*
Y97844D01*
X10319Y97861D01*
X10314Y97889D01*
X10292Y97950D01*
X10275Y97983D01*
X10247Y98011D01*
X10242Y98016D01*
X10231Y98022D01*
X10208Y98033D01*
X10181Y98049D01*
X10142Y98066D01*
X10092Y98077D01*
X10031Y98083D01*
X9964Y98088D01*
X9331D01*
Y99382D01*
X9792D01*
X9826Y99387D01*
X9870Y99393D01*
X9964Y99415D01*
X10003Y99432D01*
X10042Y99454D01*
X10047Y99459D01*
X10053Y99465D01*
X10064Y99481D01*
X10081Y99504D01*
X10108Y99565D01*
X10114Y99603D01*
X10120Y99642D01*
Y99648D01*
Y99665D01*
X10114Y99681D01*
X10108Y99709D01*
X10086Y99770D01*
X10070Y99803D01*
X10042Y99831D01*
X10036Y99837D01*
X10025Y99842D01*
X10003Y99853D01*
X9975Y99870D01*
X9937Y99887D01*
X9887Y99898D01*
X9826Y99903D01*
X9759Y99909D01*
D02*
G37*
G36*
X-6403Y97478D02*
D01*
X-6675D01*
X-6403D01*
D02*
G37*
%LPD*%
G36*
X-22598Y97478D02*
D01*
D01*
D01*
D02*
G37*
%LPC*%
G36*
X15409Y97123D02*
X14377D01*
X15409D01*
D01*
D02*
G37*
%LPD*%
G36*
X-3700Y99443D02*
X-3655Y99437D01*
X-3611Y99432D01*
X-3556Y99420D01*
X-3506Y99398D01*
X-3450Y99376D01*
X-3445Y99370D01*
X-3422Y99365D01*
X-3395Y99343D01*
X-3350Y99315D01*
X-3300Y99276D01*
X-3239Y99226D01*
X-3167Y99159D01*
X-3084Y99082D01*
Y98088D01*
X-3150D01*
X-3189Y98083D01*
X-3272Y98066D01*
X-3306Y98055D01*
X-3334Y98038D01*
X-3339Y98033D01*
X-3350Y98022D01*
X-3367Y98000D01*
X-3389Y97972D01*
X-3428Y97905D01*
X-3439Y97866D01*
X-3445Y97822D01*
Y97816D01*
Y97805D01*
X-3439Y97783D01*
X-3433Y97755D01*
X-3422Y97728D01*
X-3411Y97694D01*
X-3389Y97661D01*
X-3361Y97633D01*
X-3356Y97628D01*
X-3345Y97622D01*
X-3322Y97611D01*
X-3295Y97600D01*
X-3256Y97583D01*
X-3212Y97572D01*
X-3150Y97567D01*
X-3084Y97561D01*
X-4188D01*
X-4155Y97567D01*
X-4111Y97572D01*
X-4016Y97594D01*
X-3977Y97611D01*
X-3938Y97633D01*
X-3933Y97639D01*
X-3927Y97644D01*
X-3916Y97661D01*
X-3900Y97683D01*
X-3872Y97744D01*
X-3866Y97783D01*
X-3861Y97822D01*
Y97828D01*
Y97844D01*
X-3866Y97866D01*
X-3872Y97894D01*
X-3889Y97927D01*
X-3905Y97961D01*
X-3933Y98000D01*
X-3966Y98038D01*
X-3972D01*
X-3977Y98044D01*
X-3994Y98055D01*
X-4022Y98066D01*
X-4055Y98072D01*
X-4100Y98083D01*
X-4155Y98088D01*
X-4222D01*
Y99049D01*
Y99060D01*
Y99082D01*
X-4216Y99115D01*
X-4211Y99159D01*
X-4199Y99209D01*
X-4183Y99254D01*
X-4160Y99298D01*
X-4127Y99332D01*
X-4122Y99337D01*
X-4105Y99348D01*
X-4077Y99370D01*
X-4038Y99393D01*
X-3983Y99409D01*
X-3922Y99432D01*
X-3850Y99443D01*
X-3761Y99448D01*
X-3733D01*
X-3700Y99443D01*
D02*
G37*
G36*
X-19573Y99443D02*
X-19529Y99437D01*
X-19484Y99432D01*
X-19429Y99420D01*
X-19379Y99398D01*
X-19323Y99376D01*
X-19318Y99370D01*
X-19295Y99365D01*
X-19268Y99343D01*
X-19223Y99315D01*
X-19173Y99276D01*
X-19112Y99226D01*
X-19040Y99159D01*
X-18957Y99082D01*
Y98088D01*
X-19023D01*
X-19062Y98083D01*
X-19146Y98066D01*
X-19179Y98055D01*
X-19207Y98038D01*
X-19212Y98033D01*
X-19223Y98022D01*
X-19240Y98000D01*
X-19262Y97972D01*
X-19301Y97905D01*
X-19312Y97866D01*
X-19318Y97822D01*
Y97816D01*
Y97805D01*
X-19312Y97783D01*
X-19307Y97755D01*
X-19295Y97728D01*
X-19284Y97694D01*
X-19262Y97661D01*
X-19234Y97633D01*
X-19229Y97628D01*
X-19218Y97622D01*
X-19196Y97611D01*
X-19168Y97600D01*
X-19129Y97583D01*
X-19084Y97572D01*
X-19023Y97567D01*
X-18957Y97561D01*
X-20061D01*
X-20028Y97567D01*
X-19984Y97572D01*
X-19889Y97594D01*
X-19850Y97611D01*
X-19812Y97633D01*
X-19806Y97639D01*
X-19800Y97644D01*
X-19789Y97661D01*
X-19773Y97683D01*
X-19745Y97744D01*
X-19739Y97783D01*
X-19734Y97822D01*
Y97828D01*
Y97844D01*
X-19739Y97866D01*
X-19745Y97894D01*
X-19762Y97927D01*
X-19778Y97961D01*
X-19806Y98000D01*
X-19839Y98038D01*
X-19845D01*
X-19850Y98044D01*
X-19867Y98055D01*
X-19895Y98066D01*
X-19928Y98072D01*
X-19973Y98083D01*
X-20028Y98088D01*
X-20095D01*
Y99049D01*
Y99060D01*
Y99082D01*
X-20089Y99115D01*
X-20084Y99159D01*
X-20072Y99209D01*
X-20056Y99254D01*
X-20033Y99298D01*
X-20000Y99332D01*
X-19995Y99337D01*
X-19978Y99348D01*
X-19950Y99370D01*
X-19911Y99393D01*
X-19856Y99409D01*
X-19795Y99432D01*
X-19723Y99443D01*
X-19634Y99448D01*
X-19606D01*
X-19573Y99443D01*
D02*
G37*
G36*
X7317Y97844D02*
X7311Y97866D01*
X7306Y97894D01*
X7289Y97927D01*
X7272Y97961D01*
X7245Y98000D01*
X7211Y98038D01*
X7206D01*
X7200Y98044D01*
X7184Y98055D01*
X7156Y98066D01*
X7123Y98072D01*
X7078Y98083D01*
X7023Y98088D01*
X6956D01*
Y99382D01*
X6989D01*
X7023Y99387D01*
X7067Y99393D01*
X7162Y99415D01*
X7200Y99432D01*
X7239Y99454D01*
X7245Y99459D01*
X7250Y99465D01*
X7261Y99481D01*
X7278Y99504D01*
X7306Y99565D01*
X7311Y99603D01*
X7317Y99642D01*
Y97844D01*
D02*
G37*
G36*
X-6580Y98566D02*
X-6508Y98549D01*
X-6419Y98532D01*
X-6325Y98505D01*
X-6231Y98466D01*
X-6142Y98410D01*
X-6136Y98405D01*
X-6120Y98394D01*
X-6098Y98371D01*
X-6070Y98349D01*
X-6042Y98316D01*
X-6020Y98283D01*
X-6003Y98249D01*
X-5998Y98211D01*
Y98205D01*
Y98199D01*
X-6009Y98166D01*
X-6025Y98127D01*
X-6042Y98105D01*
X-6064Y98088D01*
X-6070Y98083D01*
X-6086Y98077D01*
X-6114Y98061D01*
X-6159Y98049D01*
X-6208Y98033D01*
X-6269Y98016D01*
X-6342Y98011D01*
X-6419Y98005D01*
X-6453D01*
X-6492Y98011D01*
X-6542Y98016D01*
X-6608Y98022D01*
X-6680Y98038D01*
X-6758Y98055D01*
X-6847Y98077D01*
X-6852D01*
X-6858Y98083D01*
X-6886Y98088D01*
X-6936Y98105D01*
X-6991Y98133D01*
X-7063Y98160D01*
X-7135Y98194D01*
X-7213Y98238D01*
X-7285Y98283D01*
Y98505D01*
X-7280D01*
X-7269Y98510D01*
X-7252D01*
X-7230Y98516D01*
X-7169Y98527D01*
X-7091Y98538D01*
X-7002Y98549D01*
X-6902Y98560D01*
X-6797Y98571D01*
X-6641D01*
X-6580Y98566D01*
D02*
G37*
G36*
X-9921Y99443D02*
X-9894D01*
X-9855Y99437D01*
X-9772Y99420D01*
X-9677Y99393D01*
X-9577Y99348D01*
X-9477Y99293D01*
X-9383Y99215D01*
X-9372Y99204D01*
X-9344Y99176D01*
X-9305Y99126D01*
X-9267Y99065D01*
X-9222Y98988D01*
X-9183Y98893D01*
X-9155Y98793D01*
X-9150Y98738D01*
X-9144Y98682D01*
Y98671D01*
X-9150Y98638D01*
X-9155Y98593D01*
X-9172Y98532D01*
X-9206Y98460D01*
X-9244Y98383D01*
X-9305Y98299D01*
X-9339Y98255D01*
X-9383Y98216D01*
X-9389D01*
X-9394Y98205D01*
X-9427Y98183D01*
X-9477Y98149D01*
X-9550Y98111D01*
X-9638Y98072D01*
X-9738Y98038D01*
X-9855Y98016D01*
X-9983Y98005D01*
X-10016D01*
X-10044Y98011D01*
X-10071D01*
X-10110Y98016D01*
X-10193Y98033D01*
X-10288Y98055D01*
X-10388Y98094D01*
X-10493Y98144D01*
X-10587Y98216D01*
X-10593D01*
X-10599Y98227D01*
X-10626Y98255D01*
X-10665Y98299D01*
X-10710Y98355D01*
X-10754Y98427D01*
X-10793Y98505D01*
X-10820Y98593D01*
X-10832Y98638D01*
Y98688D01*
Y98693D01*
Y98699D01*
Y98732D01*
X-10820Y98782D01*
X-10809Y98843D01*
X-10787Y98915D01*
X-10754Y98993D01*
X-10704Y99076D01*
X-10643Y99154D01*
Y99159D01*
X-10632Y99165D01*
X-10615Y99182D01*
X-10599Y99198D01*
X-10543Y99248D01*
X-10465Y99304D01*
X-10371Y99354D01*
X-10260Y99404D01*
X-10127Y99437D01*
X-10060Y99443D01*
X-9983Y99448D01*
X-9949D01*
X-9921Y99443D01*
D02*
G37*
G36*
X-22542Y99443D02*
X-22481Y99432D01*
X-22403Y99420D01*
X-22326Y99398D01*
X-22248Y99370D01*
X-22170Y99332D01*
X-22159Y99326D01*
X-22137Y99309D01*
X-22104Y99287D01*
X-22059Y99248D01*
X-22009Y99198D01*
X-21954Y99143D01*
X-21904Y99071D01*
X-21854Y98993D01*
X-23425D01*
X-23419Y99004D01*
X-23402Y99032D01*
X-23375Y99071D01*
X-23341Y99121D01*
X-23291Y99176D01*
X-23236Y99232D01*
X-23175Y99287D01*
X-23103Y99332D01*
X-23092Y99337D01*
X-23069Y99348D01*
X-23025Y99370D01*
X-22970Y99393D01*
X-22903Y99409D01*
X-22825Y99432D01*
X-22736Y99443D01*
X-22637Y99448D01*
X-22592D01*
X-22542Y99443D01*
D02*
G37*
D31*
X22634Y89988D02*
X29334D01*
X21174Y97988D02*
X30814D01*
X21174Y98008D02*
X30814D01*
X21174Y98028D02*
X30814D01*
X21174Y98048D02*
X30814D01*
X21174Y98068D02*
X30814D01*
X21174Y98088D02*
X30814D01*
X21174Y98108D02*
X30814D01*
X21174Y98128D02*
X30814D01*
X21174Y98148D02*
X30814D01*
X21174Y98168D02*
X30814D01*
X21174Y98188D02*
X30814D01*
X21174Y98208D02*
X30814D01*
X21194Y98228D02*
X30794D01*
X21194Y98248D02*
X30794D01*
X21194Y98268D02*
X30794D01*
X21194Y98288D02*
X30794D01*
X21194Y98308D02*
X30794D01*
X21194Y98328D02*
X30794D01*
X21194Y98348D02*
X30794D01*
X21194Y98368D02*
X30794D01*
X21214Y98388D02*
X30774D01*
X21214Y98408D02*
X30774D01*
X21214Y98428D02*
X30774D01*
X21214Y98448D02*
X30774D01*
X21214Y98468D02*
X30774D01*
X21214Y98488D02*
X30774D01*
X21234Y98508D02*
X30754D01*
X21234Y98528D02*
X30754D01*
X21234Y98548D02*
X30754D01*
X21234Y98568D02*
X30754D01*
X21234Y98588D02*
X30754D01*
X21254Y98608D02*
X30734D01*
X21254Y98628D02*
X30734D01*
X21254Y98648D02*
X30734D01*
X21274Y98668D02*
X30714D01*
X21274Y98688D02*
X30714D01*
X21274Y98708D02*
X30714D01*
X21274Y98728D02*
X30714D01*
X21294Y98748D02*
X30694D01*
X21294Y98768D02*
X30694D01*
X21294Y98788D02*
X30694D01*
X21314Y98808D02*
X30674D01*
X21314Y98828D02*
X30674D01*
X21314Y98848D02*
X30674D01*
X21314Y98868D02*
X30674D01*
X21334Y98888D02*
X30654D01*
X21334Y98908D02*
X30654D01*
X21334Y98928D02*
X30654D01*
X21354Y98948D02*
X30634D01*
X21354Y98968D02*
X30634D01*
X21374Y98988D02*
X30614D01*
X21374Y99008D02*
X30614D01*
X21374Y99028D02*
X30614D01*
X21394Y99048D02*
X30594D01*
X21394Y99068D02*
X30594D01*
X21414Y99088D02*
X30574D01*
X21414Y99108D02*
X30574D01*
X21414Y99128D02*
X30574D01*
X21434Y99148D02*
X30554D01*
X21434Y99168D02*
X30554D01*
X21454Y99188D02*
X30534D01*
X21454Y99208D02*
X30534D01*
X21474Y99228D02*
X30514D01*
X21474Y99248D02*
X30514D01*
X21494Y99268D02*
X30494D01*
X21494Y99288D02*
X30494D01*
X21514Y99308D02*
X30474D01*
X21514Y99328D02*
X30474D01*
X21534Y99348D02*
X30454D01*
X21534Y99368D02*
X30454D01*
X21554Y99388D02*
X30434D01*
X21574Y99408D02*
X30414D01*
X21574Y99428D02*
X30414D01*
X21594Y99448D02*
X30394D01*
X21594Y99468D02*
X30394D01*
X21614Y99488D02*
X30374D01*
X21634Y99508D02*
X30354D01*
X21634Y99528D02*
X30354D01*
X21654Y99548D02*
X30334D01*
X21654Y99568D02*
X30334D01*
X21674Y99588D02*
X30314D01*
X21694Y99608D02*
X30294D01*
X21714Y99628D02*
X30274D01*
X21714Y99648D02*
X30274D01*
X21734Y99668D02*
X30254D01*
X21754Y99688D02*
X30234D01*
X21754Y99708D02*
X30234D01*
X21774Y99728D02*
X30214D01*
X21794Y99748D02*
X30194D01*
X21814Y99768D02*
X30174D01*
X21814Y99788D02*
X30174D01*
X21834Y99808D02*
X30154D01*
X21854Y99828D02*
X30134D01*
X21874Y99848D02*
X30114D01*
X21894Y99868D02*
X30094D01*
X21914Y99888D02*
X30074D01*
X21934Y99908D02*
X30054D01*
X21934Y99928D02*
X30054D01*
X21934Y99948D02*
X30054D01*
X21934Y99968D02*
X30054D01*
X21914Y99988D02*
X30074D01*
X21914Y100008D02*
X30074D01*
X21914Y100028D02*
X30074D01*
X21894Y100048D02*
X30094D01*
X21894Y100068D02*
X30094D01*
X21894Y100088D02*
X30094D01*
X21874Y100108D02*
X30114D01*
X21874Y100128D02*
X30114D01*
X21874Y100148D02*
X30114D01*
X21874Y100168D02*
X30134D01*
X21854Y100188D02*
X30134D01*
X21854Y100208D02*
X30134D01*
X21854Y100228D02*
X30134D01*
X21854Y100248D02*
X30154D01*
X21834Y100268D02*
X30154D01*
X21834Y100288D02*
X30154D01*
X21834Y100308D02*
X30154D01*
X21834Y100328D02*
X30154D01*
X21834Y100348D02*
X30154D01*
X21834Y100368D02*
X30174D01*
X21814Y100388D02*
X30174D01*
X21814Y100408D02*
X30174D01*
X21814Y100428D02*
X30174D01*
X21814Y100448D02*
X30174D01*
X21814Y100468D02*
X30174D01*
X21814Y100488D02*
X30174D01*
X21814Y100508D02*
X30174D01*
X21794Y100528D02*
X30194D01*
X21794Y100548D02*
X30194D01*
X21794Y100568D02*
X30194D01*
X21794Y100588D02*
X30194D01*
X21794Y100608D02*
X30194D01*
X21794Y100628D02*
X30194D01*
X21794Y100648D02*
X30194D01*
X21794Y100668D02*
X30194D01*
X21794Y100688D02*
X30194D01*
X21794Y100708D02*
X30194D01*
X21794Y100728D02*
X30194D01*
X21794Y100748D02*
X30194D01*
X21794Y100768D02*
X30194D01*
X21794Y100788D02*
X30194D01*
X21794Y100808D02*
X30194D01*
X21794Y100828D02*
X30194D01*
X21794Y100848D02*
X30194D01*
X21794Y100868D02*
X30194D01*
X21794Y100888D02*
X30194D01*
X21794Y100908D02*
X30194D01*
X21794Y100928D02*
X30194D01*
X21794Y100948D02*
X30194D01*
X21794Y100968D02*
X30194D01*
X21794Y100988D02*
X30194D01*
X21794Y101008D02*
X30194D01*
X21794Y101028D02*
X30194D01*
X21794Y101048D02*
X30194D01*
X21794Y101068D02*
X30194D01*
X21794Y101088D02*
X30194D01*
X21814Y101108D02*
X30194D01*
X21814Y101128D02*
X30174D01*
X21814Y101148D02*
X30174D01*
X21814Y101168D02*
X30174D01*
X21814Y101188D02*
X30174D01*
X24174Y101208D02*
X27794D01*
X24254Y101228D02*
X27734D01*
X32594D02*
X33074D01*
X24334Y101248D02*
X27654D01*
X32594D02*
X33074D01*
X24414Y101268D02*
X27574D01*
X32574D02*
X33054D01*
X24494Y101288D02*
X27494D01*
X32554D02*
X33054D01*
X32554Y101308D02*
X33034D01*
X32534Y101328D02*
X33034D01*
X32534Y101348D02*
X33014D01*
X32514Y101368D02*
X33014D01*
X32514Y101388D02*
X32994D01*
X32494Y101408D02*
X32994D01*
X32474Y101428D02*
X32974D01*
X32474Y101448D02*
X32974D01*
X32454Y101468D02*
X32954D01*
X32454Y101488D02*
X32954D01*
X32434Y101508D02*
X32934D01*
X32414Y101528D02*
X32934D01*
X32414Y101548D02*
X32914D01*
X32394Y101568D02*
X32894D01*
X32394Y101588D02*
X32894D01*
X32374Y101608D02*
X32874D01*
X32354Y101628D02*
X32874D01*
X32354Y101648D02*
X32854D01*
X32334Y101668D02*
X32834D01*
X32314Y101688D02*
X32834D01*
X32314Y101708D02*
X32814D01*
X32294Y101728D02*
X32814D01*
X32294Y101748D02*
X32794D01*
X32274Y101768D02*
X32774D01*
X32254Y101788D02*
X32774D01*
X32254Y101808D02*
X32754D01*
X32234Y101828D02*
X32754D01*
X32214Y101848D02*
X32734D01*
X32194Y101868D02*
X32714D01*
X32194Y101888D02*
X32714D01*
X32174Y101908D02*
X32694D01*
X32174Y101928D02*
X32694D01*
X32154Y101948D02*
X32674D01*
X32134Y101968D02*
X32654D01*
X32114Y101988D02*
X32654D01*
X32114Y102008D02*
X32634D01*
X32094Y102028D02*
X32614D01*
X32074Y102048D02*
X32614D01*
X32074Y102068D02*
X32594D01*
X23054Y105068D02*
X24634D01*
X23094Y105088D02*
X24754D01*
X23154Y105108D02*
X24874D01*
X23214Y105128D02*
X25014D01*
X23254Y105148D02*
X25174D01*
X23314Y105168D02*
X25394D01*
X23374Y105188D02*
X25774D01*
X23434Y105208D02*
X28554D01*
X23494Y105228D02*
X28494D01*
X23534Y105248D02*
X28454D01*
X23594Y105268D02*
X28394D01*
X23654Y105288D02*
X28314D01*
X23734Y105308D02*
X28254D01*
X23794Y105328D02*
X28194D01*
X23874Y105348D02*
X28114D01*
X23934Y105368D02*
X28054D01*
X24014Y105388D02*
X27974D01*
X24094Y105408D02*
X27894D01*
X24174Y105428D02*
X27814D01*
X24254Y105448D02*
X27714D01*
X24354Y105468D02*
X27634D01*
X24454Y105488D02*
X27534D01*
X24554Y105508D02*
X27434D01*
X22594Y90008D02*
X29394D01*
X22554Y90028D02*
X29434D01*
X22514Y90048D02*
X29474D01*
X23814Y90068D02*
X28194D01*
X23894Y90088D02*
X28114D01*
X23934Y90108D02*
X28054D01*
X23954Y90128D02*
X28034D01*
X23994Y90148D02*
X27994D01*
X24014Y90168D02*
X27974D01*
X24034Y90188D02*
X27954D01*
X24034Y90208D02*
X27954D01*
X24054Y90228D02*
X27934D01*
X24074Y90248D02*
X27914D01*
X24074Y90268D02*
X27914D01*
X24094Y90288D02*
X27894D01*
X24094Y90308D02*
X27894D01*
X24094Y90328D02*
X27894D01*
X24094Y90348D02*
X27894D01*
X24114Y90368D02*
X27874D01*
X24114Y90388D02*
X27874D01*
X24114Y90408D02*
X27874D01*
X24114Y90428D02*
X27874D01*
X24114Y90448D02*
X27874D01*
X24114Y90468D02*
X27874D01*
X24114Y90488D02*
X27874D01*
X24114Y90508D02*
X27874D01*
X24114Y90528D02*
X27874D01*
X24114Y90548D02*
X27874D01*
X24114Y90568D02*
X27874D01*
X24114Y90588D02*
X27874D01*
X24114Y90608D02*
X27874D01*
X24114Y90628D02*
X27874D01*
X24114Y90648D02*
X27874D01*
X24114Y90668D02*
X27874D01*
X24114Y90688D02*
X27874D01*
X24114Y90708D02*
X27874D01*
X24114Y90728D02*
X27874D01*
X24114Y90748D02*
X27874D01*
X24114Y90768D02*
X27874D01*
X24114Y90788D02*
X27874D01*
X24114Y90808D02*
X27874D01*
X24114Y90828D02*
X27874D01*
X24114Y90848D02*
X27874D01*
X24114Y90868D02*
X27874D01*
X24114Y90888D02*
X27874D01*
X24114Y90908D02*
X27874D01*
X24114Y90928D02*
X27874D01*
X24114Y90948D02*
X27874D01*
X24114Y90968D02*
X27874D01*
X24114Y90988D02*
X27874D01*
X24114Y91008D02*
X27874D01*
X24114Y91028D02*
X27874D01*
X24114Y91048D02*
X27874D01*
X24114Y91068D02*
X27874D01*
X24114Y91088D02*
X27874D01*
X24114Y91108D02*
X27874D01*
X24114Y91128D02*
X27874D01*
X24114Y91148D02*
X27874D01*
X24114Y91168D02*
X27874D01*
X24114Y91188D02*
X27874D01*
X24114Y91208D02*
X27874D01*
X24114Y91228D02*
X27874D01*
X24114Y91248D02*
X27874D01*
X24114Y91268D02*
X27874D01*
X24114Y91288D02*
X27874D01*
X24114Y91308D02*
X27874D01*
X24114Y91328D02*
X27874D01*
X24114Y91348D02*
X27874D01*
X24114Y91368D02*
X27874D01*
X24114Y91388D02*
X27874D01*
X24114Y91408D02*
X27874D01*
X24114Y91428D02*
X27874D01*
X24114Y91448D02*
X27874D01*
X24114Y91468D02*
X27874D01*
X24114Y91488D02*
X27874D01*
X24114Y91508D02*
X27874D01*
X24114Y91528D02*
X27874D01*
X24114Y91548D02*
X27874D01*
X24114Y91568D02*
X27874D01*
X24114Y91588D02*
X27874D01*
X24114Y91608D02*
X27874D01*
X24114Y91628D02*
X27874D01*
X24114Y91648D02*
X27874D01*
X24114Y91668D02*
X27874D01*
X24114Y91688D02*
X27874D01*
X24114Y91708D02*
X27874D01*
X24114Y91728D02*
X27874D01*
X24114Y91748D02*
X27874D01*
X24114Y91768D02*
X29314D01*
X24114Y91788D02*
X29374D01*
X24114Y91808D02*
X29434D01*
X24114Y91828D02*
X29474D01*
X24114Y91848D02*
X29534D01*
X24114Y91868D02*
X29574D01*
X24114Y91888D02*
X29614D01*
X24114Y91908D02*
X29654D01*
X24114Y91928D02*
X29674D01*
X24114Y91948D02*
X29714D01*
X24114Y91968D02*
X29754D01*
X24114Y91988D02*
X29774D01*
X24114Y92008D02*
X29814D01*
X24114Y92028D02*
X29834D01*
X24114Y92048D02*
X29874D01*
X24114Y92068D02*
X29894D01*
X24114Y92088D02*
X29914D01*
X24114Y92108D02*
X29934D01*
X24114Y92128D02*
X29974D01*
X24114Y92148D02*
X29994D01*
X24114Y92168D02*
X30014D01*
X24114Y92188D02*
X30034D01*
X24114Y92208D02*
X30054D01*
X24114Y92228D02*
X30074D01*
X24114Y92248D02*
X30094D01*
X24094Y92268D02*
X30114D01*
X24094Y92288D02*
X30134D01*
X24094Y92308D02*
X30134D01*
X24094Y92328D02*
X30154D01*
X24094Y92348D02*
X30174D01*
X24094Y92368D02*
X30194D01*
X24094Y92388D02*
X30214D01*
X24094Y92408D02*
X30214D01*
X24094Y92428D02*
X30234D01*
X24094Y92448D02*
X30254D01*
X24094Y92468D02*
X30254D01*
X24094Y92488D02*
X30274D01*
X24094Y92508D02*
X30294D01*
X24094Y92528D02*
X30294D01*
X24094Y92548D02*
X30314D01*
X24094Y92568D02*
X30314D01*
X24094Y92588D02*
X30334D01*
X24094Y92608D02*
X30354D01*
X24114Y92628D02*
X30354D01*
X24114Y92648D02*
X30374D01*
X24114Y92668D02*
X30374D01*
X24114Y92688D02*
X30374D01*
X24114Y92708D02*
X30394D01*
X24114Y92728D02*
X30394D01*
X24114Y92748D02*
X30414D01*
X24114Y92768D02*
X30414D01*
X24114Y92788D02*
X28474D01*
X24114Y92808D02*
X28354D01*
X32054D02*
X32594D01*
X24114Y92828D02*
X28274D01*
X32074D02*
X32614D01*
X24114Y92848D02*
X28194D01*
X32094D02*
X32614D01*
X24114Y92868D02*
X28134D01*
X32114D02*
X32634D01*
X24114Y92888D02*
X28074D01*
X32114D02*
X32654D01*
X24114Y92908D02*
X28014D01*
X32134D02*
X32654D01*
X24134Y92928D02*
X27954D01*
X32154D02*
X32674D01*
X24134Y92948D02*
X27914D01*
X32174D02*
X32674D01*
X24134Y92968D02*
X27874D01*
X32174D02*
X32694D01*
X24134Y92988D02*
X27854D01*
X32194D02*
X32714D01*
X24134Y93008D02*
X27854D01*
X32194D02*
X32714D01*
X24134Y93028D02*
X27854D01*
X32214D02*
X32734D01*
X24134Y93048D02*
X27854D01*
X32234D02*
X32754D01*
X24154Y93068D02*
X27834D01*
X32254D02*
X32754D01*
X24154Y93088D02*
X27834D01*
X32254D02*
X32774D01*
X24154Y93108D02*
X27834D01*
X32274D02*
X32774D01*
X24154Y93128D02*
X27834D01*
X32294D02*
X32794D01*
X24154Y93148D02*
X27834D01*
X32294D02*
X32814D01*
X24174Y93168D02*
X27814D01*
X32314D02*
X32814D01*
X24174Y93188D02*
X27814D01*
X32314D02*
X32834D01*
X24174Y93208D02*
X27814D01*
X32334D02*
X32834D01*
X24174Y93228D02*
X27814D01*
X32354D02*
X32854D01*
X24194Y93248D02*
X27794D01*
X32354D02*
X32874D01*
X24194Y93268D02*
X27794D01*
X32374D02*
X32874D01*
X24194Y93288D02*
X27794D01*
X32394D02*
X32894D01*
X24194Y93308D02*
X27794D01*
X32394D02*
X32894D01*
X24214Y93328D02*
X27774D01*
X32414D02*
X32914D01*
X24214Y93348D02*
X27774D01*
X32414D02*
X32934D01*
X24214Y93368D02*
X27774D01*
X32434D02*
X32934D01*
X24234Y93388D02*
X27754D01*
X32454D02*
X32954D01*
X24234Y93408D02*
X27754D01*
X32454D02*
X32954D01*
X24234Y93428D02*
X27754D01*
X32474D02*
X32974D01*
X24254Y93448D02*
X27734D01*
X32474D02*
X32974D01*
X24254Y93468D02*
X27734D01*
X32494D02*
X32994D01*
X24274Y93488D02*
X27734D01*
X32514D02*
X32994D01*
X24274Y93508D02*
X27714D01*
X32514D02*
X33014D01*
X24274Y93528D02*
X27714D01*
X32534D02*
X33014D01*
X24294Y93548D02*
X27694D01*
X32534D02*
X33034D01*
X24294Y93568D02*
X27694D01*
X32554D02*
X33034D01*
X24314Y93588D02*
X27674D01*
X32554D02*
X33054D01*
X24314Y93608D02*
X27674D01*
X32574D02*
X33054D01*
X24334Y93628D02*
X27654D01*
X32594D02*
X33074D01*
X24334Y93648D02*
X27654D01*
X32594D02*
X33074D01*
X24354Y93668D02*
X27634D01*
X24354Y93688D02*
X27634D01*
X24374Y93708D02*
X27614D01*
X24374Y93728D02*
X27614D01*
X24394Y93748D02*
X27594D01*
X24414Y93768D02*
X27574D01*
X24414Y93788D02*
X27574D01*
X24434Y93808D02*
X27554D01*
X24454Y93828D02*
X27534D01*
X24474Y93848D02*
X27514D01*
X24474Y93868D02*
X27514D01*
X24494Y93888D02*
X27494D01*
X24514Y93908D02*
X27474D01*
X24534Y93928D02*
X27454D01*
X24554Y93948D02*
X27434D01*
X24574Y93968D02*
X27414D01*
X24594Y93988D02*
X27394D01*
X24594Y94008D02*
X27414D01*
X24474Y94028D02*
X27574D01*
X24334Y94048D02*
X27694D01*
X24214Y94068D02*
X27814D01*
X24094Y94088D02*
X27914D01*
X23974Y94108D02*
X28034D01*
X23894Y94128D02*
X28114D01*
X23814Y94148D02*
X28194D01*
X23734Y94168D02*
X28274D01*
X23654Y94188D02*
X28354D01*
X23574Y94208D02*
X28434D01*
X23494Y94228D02*
X28494D01*
X23434Y94248D02*
X28554D01*
X23374Y94268D02*
X28614D01*
X23314Y94288D02*
X28674D01*
X23254Y94308D02*
X28734D01*
X23214Y94328D02*
X28794D01*
X23154Y94348D02*
X28834D01*
X23114Y94368D02*
X28874D01*
X23054Y94388D02*
X28934D01*
X23014Y94408D02*
X28974D01*
X22974Y94428D02*
X29014D01*
X22934Y94448D02*
X29074D01*
X22894Y94468D02*
X29094D01*
X22854Y94488D02*
X29134D01*
X22814Y94508D02*
X29174D01*
X22774Y94528D02*
X29214D01*
X22734Y94548D02*
X29254D01*
X22694Y94568D02*
X29294D01*
X22674Y94588D02*
X29314D01*
X22634Y94608D02*
X29354D01*
X22594Y94628D02*
X29394D01*
X22574Y94648D02*
X29414D01*
X22534Y94668D02*
X29454D01*
X22514Y94688D02*
X29474D01*
X22474Y94708D02*
X29514D01*
X22454Y94728D02*
X29534D01*
X22434Y94748D02*
X29554D01*
X22394Y94768D02*
X29594D01*
X22374Y94788D02*
X29614D01*
X22354Y94808D02*
X29634D01*
X22314Y94828D02*
X29674D01*
X22294Y94848D02*
X29694D01*
X22274Y94868D02*
X29714D01*
X22254Y94888D02*
X29734D01*
X22234Y94908D02*
X29754D01*
X22214Y94928D02*
X29774D01*
X22194Y94948D02*
X29794D01*
X22154Y94968D02*
X29834D01*
X22134Y94988D02*
X29854D01*
X22114Y95008D02*
X29874D01*
X22094Y95028D02*
X29894D01*
X22074Y95048D02*
X29914D01*
X22054Y95068D02*
X29934D01*
X22034Y95088D02*
X29954D01*
X22014Y95108D02*
X29974D01*
X22014Y95128D02*
X29974D01*
X21994Y95148D02*
X29994D01*
X21974Y95168D02*
X30014D01*
X21954Y95188D02*
X30034D01*
X21934Y95208D02*
X30054D01*
X21914Y95228D02*
X30074D01*
X21914Y95248D02*
X30074D01*
X21894Y95268D02*
X30094D01*
X21874Y95288D02*
X30114D01*
X21854Y95308D02*
X30134D01*
X21834Y95328D02*
X30154D01*
X21834Y95348D02*
X30154D01*
X21814Y95368D02*
X30174D01*
X21794Y95388D02*
X30194D01*
X21794Y95408D02*
X30194D01*
X21774Y95428D02*
X30214D01*
X21754Y95448D02*
X30234D01*
X21754Y95468D02*
X30234D01*
X21734Y95488D02*
X30254D01*
X21714Y95508D02*
X30274D01*
X21714Y95528D02*
X30274D01*
X21694Y95548D02*
X30294D01*
X21694Y95568D02*
X30294D01*
X21674Y95588D02*
X30314D01*
X21654Y95608D02*
X30334D01*
X21654Y95628D02*
X30334D01*
X21634Y95648D02*
X30354D01*
X21634Y95668D02*
X30354D01*
X21614Y95688D02*
X30374D01*
X21614Y95708D02*
X30374D01*
X21594Y95728D02*
X30394D01*
X21594Y95748D02*
X30394D01*
X21574Y95768D02*
X30414D01*
X21574Y95788D02*
X30414D01*
X21554Y95808D02*
X30434D01*
X21554Y95828D02*
X30434D01*
X21534Y95848D02*
X30454D01*
X21534Y95868D02*
X30454D01*
X21514Y95888D02*
X30474D01*
X21514Y95908D02*
X30474D01*
X21494Y95928D02*
X30494D01*
X21494Y95948D02*
X30494D01*
X21494Y95968D02*
X30494D01*
X21474Y95988D02*
X30514D01*
X21474Y96008D02*
X30514D01*
X21454Y96028D02*
X30534D01*
X21454Y96048D02*
X30534D01*
X21434Y96068D02*
X30554D01*
X21434Y96088D02*
X30554D01*
X21434Y96108D02*
X30554D01*
X21414Y96128D02*
X30574D01*
X21414Y96148D02*
X30574D01*
X21414Y96168D02*
X30574D01*
X21394Y96188D02*
X30594D01*
X21394Y96208D02*
X30594D01*
X21394Y96228D02*
X30594D01*
X21374Y96248D02*
X30614D01*
X21374Y96268D02*
X30614D01*
X21374Y96288D02*
X30614D01*
X21354Y96308D02*
X30634D01*
X21354Y96328D02*
X30634D01*
X21354Y96348D02*
X30634D01*
X21354Y96368D02*
X30634D01*
X21334Y96388D02*
X30654D01*
X21334Y96408D02*
X30654D01*
X21334Y96428D02*
X30654D01*
X21314Y96448D02*
X30674D01*
X21314Y96468D02*
X30674D01*
X21314Y96488D02*
X30674D01*
X21314Y96508D02*
X30674D01*
X21314Y96528D02*
X30674D01*
X21294Y96548D02*
X30694D01*
X21294Y96568D02*
X30694D01*
X21294Y96588D02*
X30694D01*
X21294Y96608D02*
X30694D01*
X21274Y96628D02*
X30714D01*
X21274Y96648D02*
X30714D01*
X21274Y96668D02*
X30714D01*
X21274Y96688D02*
X30714D01*
X21274Y96708D02*
X30714D01*
X21254Y96728D02*
X30734D01*
X21254Y96748D02*
X30734D01*
X21254Y96768D02*
X30734D01*
X21254Y96788D02*
X30734D01*
X21254Y96808D02*
X30734D01*
X21234Y96828D02*
X30754D01*
X21234Y96848D02*
X30754D01*
X21234Y96868D02*
X30754D01*
X21234Y96888D02*
X30754D01*
X21234Y96908D02*
X30754D01*
X21234Y96928D02*
X30754D01*
X21214Y96948D02*
X30774D01*
X21214Y96968D02*
X30774D01*
X21214Y96988D02*
X30774D01*
X21214Y97008D02*
X30774D01*
X21214Y97028D02*
X30774D01*
X21214Y97048D02*
X30774D01*
X21214Y97068D02*
X30774D01*
X21214Y97088D02*
X30774D01*
X21194Y97108D02*
X30794D01*
X21194Y97128D02*
X30794D01*
X21194Y97148D02*
X30794D01*
X21194Y97168D02*
X30794D01*
X21194Y97188D02*
X30794D01*
X21194Y97208D02*
X30794D01*
X21194Y97228D02*
X30794D01*
X21194Y97248D02*
X30794D01*
X21194Y97268D02*
X30794D01*
X21194Y97288D02*
X30794D01*
X21174Y97308D02*
X30814D01*
X21174Y97328D02*
X30814D01*
X21174Y97348D02*
X30814D01*
X21174Y97368D02*
X30814D01*
X21174Y97388D02*
X30814D01*
X21174Y97408D02*
X30814D01*
X21174Y97428D02*
X30814D01*
X21174Y97448D02*
X30814D01*
X21174Y97468D02*
X30814D01*
X21174Y97488D02*
X30814D01*
X21174Y97508D02*
X30814D01*
X21174Y97528D02*
X30814D01*
X21174Y97548D02*
X30814D01*
X21174Y97568D02*
X30814D01*
X21174Y97588D02*
X30814D01*
X21174Y97608D02*
X30814D01*
X21174Y97628D02*
X30814D01*
X21174Y97648D02*
X30814D01*
X21174Y97668D02*
X30814D01*
X21174Y97688D02*
X30814D01*
X21174Y97708D02*
X30814D01*
X21174Y97728D02*
X30834D01*
X21154Y97748D02*
X30834D01*
X21154Y97768D02*
X30834D01*
X21154Y97788D02*
X30834D01*
X21154Y97808D02*
X30834D01*
X21154Y97828D02*
X30834D01*
X21154Y97848D02*
X30834D01*
X21154Y97868D02*
X30834D01*
X21154Y97888D02*
X30834D01*
X21174Y97908D02*
X30814D01*
X21174Y97928D02*
X30814D01*
X21174Y97948D02*
X30814D01*
X21174Y97968D02*
X30814D01*
X24554Y89368D02*
X27434D01*
X24454Y89388D02*
X27534D01*
X24354Y89408D02*
X27634D01*
X24254Y89428D02*
X27714D01*
X24174Y89448D02*
X27814D01*
X24094Y89468D02*
X27894D01*
X24014Y89488D02*
X27974D01*
X23934Y89508D02*
X28054D01*
X23874Y89528D02*
X28114D01*
X23794Y89548D02*
X28194D01*
X23734Y89568D02*
X28254D01*
X23674Y89588D02*
X28314D01*
X23594Y89608D02*
X28394D01*
X23534Y89628D02*
X28454D01*
X23494Y89648D02*
X28494D01*
X23434Y89668D02*
X28554D01*
X23374Y89688D02*
X28614D01*
X23314Y89708D02*
X28674D01*
X23254Y89728D02*
X28734D01*
X23214Y89748D02*
X28774D01*
X23154Y89768D02*
X28834D01*
X23094Y89788D02*
X28874D01*
X23054Y89808D02*
X28934D01*
X23014Y89828D02*
X28974D01*
X22954Y89848D02*
X29034D01*
X22914Y89868D02*
X29074D01*
X22854Y89888D02*
X29134D01*
X22814Y89908D02*
X29174D01*
X22774Y89928D02*
X29214D01*
X22734Y89948D02*
X29254D01*
X22694Y89968D02*
X29294D01*
X18014Y97988D02*
X18454D01*
X33534D02*
X33974D01*
X18014Y98008D02*
X18454D01*
X18014Y98028D02*
X18454D01*
X18014Y98048D02*
X18454D01*
X18034Y98068D02*
X18454D01*
X18034Y98088D02*
X18454D01*
X18034Y98108D02*
X18454D01*
X18034Y98128D02*
X18454D01*
X18034Y98148D02*
X18454D01*
X18034Y98168D02*
X18454D01*
X18034Y98188D02*
X18474D01*
X18034Y98208D02*
X18474D01*
X18034Y98228D02*
X18474D01*
X18034Y98248D02*
X18474D01*
X18034Y98268D02*
X18474D01*
X18034Y98288D02*
X18474D01*
X18054Y98308D02*
X18474D01*
X18054Y98328D02*
X18474D01*
X18054Y98348D02*
X18474D01*
X18054Y98368D02*
X18474D01*
X18054Y98388D02*
X18474D01*
X18054Y98408D02*
X18494D01*
X18054Y98428D02*
X18494D01*
X18054Y98448D02*
X18494D01*
X18054Y98468D02*
X18494D01*
X18074Y98488D02*
X18494D01*
X18074Y98508D02*
X18494D01*
X18074Y98528D02*
X18494D01*
X18074Y98548D02*
X18514D01*
X18074Y98568D02*
X18514D01*
X18074Y98588D02*
X18514D01*
X18074Y98608D02*
X18514D01*
X18094Y98628D02*
X18514D01*
X18094Y98648D02*
X18514D01*
X18094Y98668D02*
X18514D01*
X18094Y98688D02*
X18534D01*
X18094Y98708D02*
X18534D01*
X18094Y98728D02*
X18534D01*
X18094Y98748D02*
X18534D01*
X18114Y98768D02*
X18534D01*
X18114Y98788D02*
X18534D01*
X18114Y98808D02*
X18554D01*
X18114Y98828D02*
X18554D01*
X18114Y98848D02*
X18554D01*
X18114Y98868D02*
X18554D01*
X18134Y98888D02*
X18554D01*
X18134Y98908D02*
X18574D01*
X18134Y98928D02*
X18574D01*
X18134Y98948D02*
X18574D01*
X18134Y98968D02*
X18574D01*
X18134Y98988D02*
X18574D01*
X18154Y99008D02*
X18574D01*
X18154Y99028D02*
X18594D01*
X18154Y99048D02*
X18594D01*
X18154Y99068D02*
X18594D01*
X18154Y99088D02*
X18594D01*
X18174Y99108D02*
X18594D01*
X18174Y99128D02*
X18614D01*
X18174Y99148D02*
X18614D01*
X18174Y99168D02*
X18614D01*
X18194Y99188D02*
X18614D01*
X18194Y99208D02*
X18634D01*
X18194Y99228D02*
X18634D01*
X18194Y99248D02*
X18634D01*
X18194Y99268D02*
X18634D01*
X18214Y99288D02*
X18654D01*
X18214Y99308D02*
X18654D01*
X18214Y99328D02*
X18654D01*
X18214Y99348D02*
X18654D01*
X18234Y99368D02*
X18674D01*
X18234Y99388D02*
X18674D01*
X18234Y99408D02*
X18674D01*
X18234Y99428D02*
X18674D01*
X18234Y99448D02*
X18694D01*
X18254Y99468D02*
X18694D01*
X18254Y99488D02*
X18694D01*
X18254Y99508D02*
X18694D01*
X18254Y99528D02*
X18714D01*
X18274Y99548D02*
X18714D01*
X18274Y99568D02*
X18714D01*
X18274Y99588D02*
X18714D01*
X18294Y99608D02*
X18734D01*
X18294Y99628D02*
X18734D01*
X18294Y99648D02*
X18734D01*
X18294Y99668D02*
X18754D01*
X18314Y99688D02*
X18754D01*
X18314Y99708D02*
X18754D01*
X18314Y99728D02*
X18774D01*
X18314Y99748D02*
X18774D01*
X18334Y99768D02*
X18774D01*
X18334Y99788D02*
X18774D01*
X18334Y99808D02*
X18794D01*
X18354Y99828D02*
X18794D01*
X18354Y99848D02*
X18794D01*
X18354Y99868D02*
X18814D01*
X18354Y99888D02*
X18814D01*
X18374Y99908D02*
X18814D01*
X18374Y99928D02*
X18834D01*
X18374Y99948D02*
X18834D01*
X18394Y99968D02*
X18834D01*
X18394Y99988D02*
X18854D01*
X18394Y100008D02*
X18854D01*
X18414Y100028D02*
X18854D01*
X18414Y100048D02*
X18874D01*
X18414Y100068D02*
X18874D01*
X18434Y100088D02*
X18874D01*
X18434Y100108D02*
X18894D01*
X18434Y100128D02*
X18894D01*
X18454Y100148D02*
X18894D01*
X18454Y100168D02*
X18914D01*
X18454Y100188D02*
X18914D01*
X18474Y100208D02*
X18934D01*
X18474Y100228D02*
X18934D01*
X18474Y100248D02*
X18934D01*
X18494Y100268D02*
X18954D01*
X18494Y100288D02*
X18954D01*
X18514Y100308D02*
X18974D01*
X18514Y100328D02*
X18974D01*
X18514Y100348D02*
X18974D01*
X18534Y100368D02*
X18994D01*
X18534Y100388D02*
X18994D01*
X18534Y100408D02*
X18994D01*
X18554Y100428D02*
X19014D01*
X18554Y100448D02*
X19014D01*
X18554Y100468D02*
X19034D01*
X18574Y100488D02*
X19034D01*
X18574Y100508D02*
X19054D01*
X18594Y100528D02*
X19054D01*
X18594Y100548D02*
X19054D01*
X18614Y100568D02*
X19074D01*
X18614Y100588D02*
X19074D01*
X18614Y100608D02*
X19094D01*
X18634Y100628D02*
X19094D01*
X18634Y100648D02*
X19114D01*
X18654Y100668D02*
X19114D01*
X18654Y100688D02*
X19114D01*
X18654Y100708D02*
X19134D01*
X18674Y100728D02*
X19134D01*
X18674Y100748D02*
X19154D01*
X18694Y100768D02*
X19154D01*
X18694Y100788D02*
X19174D01*
X18714Y100808D02*
X19174D01*
X18714Y100828D02*
X19194D01*
X18714Y100848D02*
X19194D01*
X18734Y100868D02*
X19214D01*
X18734Y100888D02*
X19214D01*
X18754Y100908D02*
X19234D01*
X18754Y100928D02*
X19234D01*
X18774Y100948D02*
X19254D01*
X18774Y100968D02*
X19254D01*
X18794Y100988D02*
X19274D01*
X18794Y101008D02*
X19274D01*
X18814Y101028D02*
X19294D01*
X18814Y101048D02*
X19294D01*
X18834Y101068D02*
X19314D01*
X18834Y101088D02*
X19314D01*
X18854Y101108D02*
X19334D01*
X18854Y101128D02*
X19334D01*
X18854Y101148D02*
X19354D01*
X18874Y101168D02*
X19354D01*
X18874Y101188D02*
X19374D01*
X18894Y101208D02*
X19374D01*
X21814D02*
X24074D01*
X18914Y101228D02*
X19394D01*
X21814D02*
X24034D01*
X18914Y101248D02*
X19394D01*
X21814D02*
X24014D01*
X18934Y101268D02*
X19414D01*
X21834D02*
X23974D01*
X18934Y101288D02*
X19434D01*
X21834D02*
X23954D01*
X18954Y101308D02*
X19434D01*
X21834D02*
X23914D01*
X18954Y101328D02*
X19454D01*
X21834D02*
X23894D01*
X18974Y101348D02*
X19454D01*
X21834D02*
X23854D01*
X18974Y101368D02*
X19474D01*
X21834D02*
X23834D01*
X18994Y101388D02*
X19474D01*
X21834D02*
X23794D01*
X18994Y101408D02*
X19494D01*
X21854D02*
X23754D01*
X19014Y101428D02*
X19514D01*
X21854D02*
X23734D01*
X19014Y101448D02*
X19514D01*
X21854D02*
X23694D01*
X19034Y101468D02*
X19534D01*
X21854D02*
X23674D01*
X19034Y101488D02*
X19534D01*
X21874D02*
X23634D01*
X19054Y101508D02*
X19554D01*
X21874D02*
X23594D01*
X19054Y101528D02*
X19574D01*
X21874D02*
X23554D01*
X19074Y101548D02*
X19574D01*
X21874D02*
X23534D01*
X19094Y101568D02*
X19594D01*
X21894D02*
X23494D01*
X19094Y101588D02*
X19594D01*
X21894D02*
X23454D01*
X19114Y101608D02*
X19614D01*
X21894D02*
X23414D01*
X19114Y101628D02*
X19634D01*
X21894D02*
X23374D01*
X19134Y101648D02*
X19634D01*
X21914D02*
X23334D01*
X19154Y101668D02*
X19654D01*
X21914D02*
X23314D01*
X19154Y101688D02*
X19674D01*
X21914D02*
X23274D01*
X19174Y101708D02*
X19674D01*
X21914D02*
X23214D01*
X19174Y101728D02*
X19694D01*
X21934D02*
X23174D01*
X19194Y101748D02*
X19694D01*
X21934D02*
X23134D01*
X19214Y101768D02*
X19714D01*
X21934D02*
X23094D01*
X19214Y101788D02*
X19734D01*
X21954D02*
X23054D01*
X19234Y101808D02*
X19734D01*
X21954D02*
X22994D01*
X19234Y101828D02*
X19754D01*
X21954D02*
X22934D01*
X19254Y101848D02*
X19774D01*
X21974D02*
X22894D01*
X19274Y101868D02*
X19794D01*
X21974D02*
X22834D01*
X19274Y101888D02*
X19794D01*
X21974D02*
X22794D01*
X19294Y101908D02*
X19814D01*
X21994D02*
X22714D01*
X19294Y101928D02*
X19814D01*
X21994D02*
X22654D01*
X19314Y101948D02*
X19834D01*
X22014D02*
X22574D01*
X19334Y101968D02*
X19854D01*
X22014D02*
X22494D01*
X19334Y101988D02*
X19874D01*
X22034D02*
X22374D01*
X19354Y102008D02*
X19874D01*
X19374Y102028D02*
X19894D01*
X19374Y102048D02*
X19914D01*
X19394Y102068D02*
X19914D01*
X19414Y102088D02*
X19934D01*
X19414Y102108D02*
X19954D01*
X19434Y102128D02*
X19974D01*
X19454Y102148D02*
X19994D01*
X19454Y102168D02*
X19994D01*
X19474Y102188D02*
X20014D01*
X19494Y102208D02*
X20034D01*
X19514Y102228D02*
X20034D01*
X19514Y102248D02*
X20054D01*
X19534Y102268D02*
X20074D01*
X19554Y102288D02*
X20094D01*
X19554Y102308D02*
X20114D01*
X19574Y102328D02*
X20114D01*
X19594Y102348D02*
X20134D01*
X19614Y102368D02*
X20154D01*
X19614Y102388D02*
X20174D01*
X19634Y102408D02*
X20194D01*
X19654Y102428D02*
X20194D01*
X19674Y102448D02*
X20214D01*
X19674Y102468D02*
X20234D01*
X19694Y102488D02*
X20254D01*
X19714Y102508D02*
X20274D01*
X19734Y102528D02*
X20294D01*
X19734Y102548D02*
X20294D01*
X19754Y102568D02*
X20314D01*
X19774Y102588D02*
X20334D01*
X19794Y102608D02*
X20354D01*
X19794Y102628D02*
X20374D01*
X19814Y102648D02*
X20394D01*
X19834Y102668D02*
X20414D01*
X19854Y102688D02*
X20434D01*
X19874Y102708D02*
X20454D01*
X19894Y102728D02*
X20454D01*
X19894Y102748D02*
X20474D01*
X19914Y102768D02*
X20494D01*
X19934Y102788D02*
X20514D01*
X19954Y102808D02*
X20534D01*
X19974Y102828D02*
X20554D01*
X19994Y102848D02*
X20574D01*
X19994Y102868D02*
X20594D01*
X20014Y102888D02*
X20614D01*
X20034Y102908D02*
X20634D01*
X20054Y102928D02*
X20654D01*
X20074Y102948D02*
X20674D01*
X20094Y102968D02*
X20694D01*
X20114Y102988D02*
X20714D01*
X20134Y103008D02*
X20734D01*
X20154Y103028D02*
X20754D01*
X20154Y103048D02*
X20774D01*
X20174Y103068D02*
X20794D01*
X20194Y103088D02*
X20814D01*
X20214Y103108D02*
X20834D01*
X20234Y103128D02*
X20854D01*
X20254Y103148D02*
X20874D01*
X20274Y103168D02*
X20894D01*
X20294Y103188D02*
X20914D01*
X20314Y103208D02*
X20934D01*
X20334Y103228D02*
X20954D01*
X20354Y103248D02*
X20974D01*
X20374Y103268D02*
X21014D01*
X20394Y103288D02*
X21034D01*
X20414Y103308D02*
X21054D01*
X20434Y103328D02*
X21074D01*
X20454Y103348D02*
X21094D01*
X20474Y103368D02*
X21114D01*
X20494Y103388D02*
X21134D01*
X20514Y103408D02*
X21174D01*
X20534Y103428D02*
X21194D01*
X20554Y103448D02*
X21214D01*
X20574Y103468D02*
X21234D01*
X20594Y103488D02*
X21254D01*
X20614Y103508D02*
X21274D01*
X20634Y103528D02*
X21314D01*
X20654Y103548D02*
X21334D01*
X20674Y103568D02*
X21354D01*
X20714Y103588D02*
X21374D01*
X20734Y103608D02*
X21414D01*
X20754Y103628D02*
X21434D01*
X20774Y103648D02*
X21454D01*
X20794Y103668D02*
X21494D01*
X20814Y103688D02*
X21514D01*
X20834Y103708D02*
X21534D01*
X20854Y103728D02*
X21574D01*
X20894Y103748D02*
X21594D01*
X20914Y103768D02*
X21614D01*
X20934Y103788D02*
X21654D01*
X20954Y103808D02*
X21674D01*
X20974Y103828D02*
X21714D01*
X21014Y103848D02*
X21734D01*
X21034Y103868D02*
X21754D01*
X21054Y103888D02*
X21794D01*
X21074Y103908D02*
X21814D01*
X21114Y103928D02*
X21854D01*
X21134Y103948D02*
X21874D01*
X21154Y103968D02*
X21914D01*
X21174Y103988D02*
X21934D01*
X21214Y104008D02*
X21974D01*
X21234Y104028D02*
X21994D01*
X21254Y104048D02*
X22034D01*
X21294Y104068D02*
X22074D01*
X21314Y104088D02*
X22094D01*
X21334Y104108D02*
X22134D01*
X21374Y104128D02*
X22174D01*
X21394Y104148D02*
X22194D01*
X21414Y104168D02*
X22234D01*
X21454Y104188D02*
X22274D01*
X21474Y104208D02*
X22294D01*
X21514Y104228D02*
X22334D01*
X21534Y104248D02*
X22374D01*
X21574Y104268D02*
X22414D01*
X21594Y104288D02*
X22434D01*
X21634Y104308D02*
X22474D01*
X21654Y104328D02*
X22514D01*
X21674Y104348D02*
X22554D01*
X21714Y104368D02*
X22594D01*
X21754Y104388D02*
X22634D01*
X21774Y104408D02*
X22674D01*
X21814Y104428D02*
X22714D01*
X21834Y104448D02*
X22754D01*
X21874Y104468D02*
X22794D01*
X21914Y104488D02*
X22834D01*
X21934Y104508D02*
X22874D01*
X21974Y104528D02*
X22914D01*
X21994Y104548D02*
X22974D01*
X22034Y104568D02*
X23014D01*
X22074Y104588D02*
X23054D01*
X22114Y104608D02*
X23114D01*
X22134Y104628D02*
X23154D01*
X22174Y104648D02*
X23214D01*
X22214Y104668D02*
X23254D01*
X22254Y104688D02*
X23314D01*
X22294Y104708D02*
X23354D01*
X22334Y104728D02*
X23414D01*
X22354Y104748D02*
X23454D01*
X22394Y104768D02*
X23514D01*
X22434Y104788D02*
X23574D01*
X22474Y104808D02*
X23634D01*
X22514Y104828D02*
X23694D01*
X22554Y104848D02*
X23754D01*
X22594Y104868D02*
X23834D01*
X22634Y104888D02*
X23894D01*
X22694Y104908D02*
X23954D01*
X22734Y104928D02*
X24014D01*
X22774Y104948D02*
X24094D01*
X22814Y104968D02*
X24174D01*
X22854Y104988D02*
X24254D01*
X22914Y105008D02*
X24354D01*
X22954Y105028D02*
X24434D01*
X23014Y105048D02*
X24534D01*
X22474Y90068D02*
X23654D01*
X22434Y90088D02*
X23574D01*
X22394Y90108D02*
X23514D01*
X22354Y90128D02*
X23454D01*
X22334Y90148D02*
X23394D01*
X22294Y90168D02*
X23334D01*
X22254Y90188D02*
X23294D01*
X22214Y90208D02*
X23234D01*
X22174Y90228D02*
X23194D01*
X22154Y90248D02*
X23134D01*
X22114Y90268D02*
X23094D01*
X22074Y90288D02*
X23054D01*
X22034Y90308D02*
X23014D01*
X21994Y90328D02*
X22954D01*
X21974Y90348D02*
X22914D01*
X21934Y90368D02*
X22874D01*
X21914Y90388D02*
X22834D01*
X21874Y90408D02*
X22794D01*
X21834Y90428D02*
X22754D01*
X21814Y90448D02*
X22714D01*
X21774Y90468D02*
X22654D01*
X21754Y90488D02*
X22634D01*
X21714Y90508D02*
X22594D01*
X21674Y90528D02*
X22554D01*
X21654Y90548D02*
X22514D01*
X21634Y90568D02*
X22474D01*
X21594Y90588D02*
X22434D01*
X21574Y90608D02*
X22394D01*
X21534Y90628D02*
X22374D01*
X21514Y90648D02*
X22334D01*
X21474Y90668D02*
X22294D01*
X21454Y90688D02*
X22254D01*
X21414Y90708D02*
X22234D01*
X21394Y90728D02*
X22194D01*
X21374Y90748D02*
X22154D01*
X21334Y90768D02*
X22134D01*
X21314Y90788D02*
X22094D01*
X21294Y90808D02*
X22054D01*
X21254Y90828D02*
X22034D01*
X21234Y90848D02*
X21994D01*
X21214Y90868D02*
X21974D01*
X21174Y90888D02*
X21934D01*
X21154Y90908D02*
X21914D01*
X21134Y90928D02*
X21874D01*
X21114Y90948D02*
X21854D01*
X21074Y90968D02*
X21814D01*
X21054Y90988D02*
X21794D01*
X21034Y91008D02*
X21754D01*
X21014Y91028D02*
X21734D01*
X20974Y91048D02*
X21694D01*
X20954Y91068D02*
X21674D01*
X20934Y91088D02*
X21634D01*
X20914Y91108D02*
X21614D01*
X20894Y91128D02*
X21594D01*
X20854Y91148D02*
X21554D01*
X20834Y91168D02*
X21534D01*
X20814Y91188D02*
X21514D01*
X20794Y91208D02*
X21474D01*
X20774Y91228D02*
X21454D01*
X20754Y91248D02*
X21434D01*
X20734Y91268D02*
X21394D01*
X20714Y91288D02*
X21374D01*
X20674Y91308D02*
X21354D01*
X20654Y91328D02*
X21334D01*
X20634Y91348D02*
X21294D01*
X20614Y91368D02*
X21274D01*
X20594Y91388D02*
X21254D01*
X20574Y91408D02*
X21234D01*
X20554Y91428D02*
X21214D01*
X20534Y91448D02*
X21174D01*
X20514Y91468D02*
X21154D01*
X20494Y91488D02*
X21134D01*
X20474Y91508D02*
X21114D01*
X20454Y91528D02*
X21094D01*
X20434Y91548D02*
X21074D01*
X20414Y91568D02*
X21054D01*
X20394Y91588D02*
X21014D01*
X20374Y91608D02*
X20994D01*
X20354Y91628D02*
X20974D01*
X20334Y91648D02*
X20954D01*
X20314Y91668D02*
X20934D01*
X20294Y91688D02*
X20914D01*
X20274Y91708D02*
X20894D01*
X20254Y91728D02*
X20874D01*
X20234Y91748D02*
X20854D01*
X20214Y91768D02*
X20834D01*
X20194Y91788D02*
X20814D01*
X20174Y91808D02*
X20794D01*
X20154Y91828D02*
X20774D01*
X20154Y91848D02*
X20754D01*
X20134Y91868D02*
X20734D01*
X20114Y91888D02*
X20714D01*
X20094Y91908D02*
X20694D01*
X20074Y91928D02*
X20674D01*
X20054Y91948D02*
X20654D01*
X20034Y91968D02*
X20634D01*
X20014Y91988D02*
X20614D01*
X19994Y92008D02*
X20594D01*
X19994Y92028D02*
X20574D01*
X19974Y92048D02*
X20554D01*
X19954Y92068D02*
X20534D01*
X19934Y92088D02*
X20514D01*
X19914Y92108D02*
X20494D01*
X19894Y92128D02*
X20474D01*
X19894Y92148D02*
X20454D01*
X19874Y92168D02*
X20434D01*
X19854Y92188D02*
X20414D01*
X19834Y92208D02*
X20414D01*
X19814Y92228D02*
X20394D01*
X19794Y92248D02*
X20374D01*
X19794Y92268D02*
X20354D01*
X19774Y92288D02*
X20334D01*
X19754Y92308D02*
X20314D01*
X19734Y92328D02*
X20294D01*
X19734Y92348D02*
X20274D01*
X19714Y92368D02*
X20274D01*
X19694Y92388D02*
X20254D01*
X19674Y92408D02*
X20234D01*
X19674Y92428D02*
X20214D01*
X19654Y92448D02*
X20194D01*
X19634Y92468D02*
X20174D01*
X19614Y92488D02*
X20174D01*
X19614Y92508D02*
X20154D01*
X19594Y92528D02*
X20134D01*
X19574Y92548D02*
X20114D01*
X19554Y92568D02*
X20094D01*
X19554Y92588D02*
X20094D01*
X19534Y92608D02*
X20074D01*
X19514Y92628D02*
X20054D01*
X19514Y92648D02*
X20034D01*
X19494Y92668D02*
X20034D01*
X19474Y92688D02*
X20014D01*
X19454Y92708D02*
X19994D01*
X19454Y92728D02*
X19974D01*
X19434Y92748D02*
X19974D01*
X19414Y92768D02*
X19954D01*
X19414Y92788D02*
X19934D01*
X19394Y92808D02*
X19914D01*
X19374Y92828D02*
X19914D01*
X19374Y92848D02*
X19894D01*
X19354Y92868D02*
X19874D01*
X19334Y92888D02*
X19854D01*
X19334Y92908D02*
X19854D01*
X19314Y92928D02*
X19834D01*
X19294Y92948D02*
X19814D01*
X19294Y92968D02*
X19814D01*
X19274Y92988D02*
X19794D01*
X19274Y93008D02*
X19774D01*
X19254Y93028D02*
X19774D01*
X19234Y93048D02*
X19754D01*
X19234Y93068D02*
X19734D01*
X19214Y93088D02*
X19734D01*
X19214Y93108D02*
X19714D01*
X19194Y93128D02*
X19694D01*
X19174Y93148D02*
X19694D01*
X19174Y93168D02*
X19674D01*
X19154Y93188D02*
X19654D01*
X19154Y93208D02*
X19654D01*
X19134Y93228D02*
X19634D01*
X19114Y93248D02*
X19614D01*
X19114Y93268D02*
X19614D01*
X19094Y93288D02*
X19594D01*
X19094Y93308D02*
X19594D01*
X19074Y93328D02*
X19574D01*
X19054Y93348D02*
X19554D01*
X19054Y93368D02*
X19554D01*
X19034Y93388D02*
X19534D01*
X19034Y93408D02*
X19534D01*
X19014Y93428D02*
X19514D01*
X19014Y93448D02*
X19494D01*
X18994Y93468D02*
X19494D01*
X18994Y93488D02*
X19474D01*
X18974Y93508D02*
X19474D01*
X18974Y93528D02*
X19454D01*
X18954Y93548D02*
X19454D01*
X18954Y93568D02*
X19434D01*
X18934Y93588D02*
X19414D01*
X18934Y93608D02*
X19414D01*
X18914Y93628D02*
X19394D01*
X18914Y93648D02*
X19394D01*
X18894Y93668D02*
X19374D01*
X18874Y93688D02*
X19374D01*
X18874Y93708D02*
X19354D01*
X18854Y93728D02*
X19354D01*
X18854Y93748D02*
X19334D01*
X18854Y93768D02*
X19314D01*
X18834Y93788D02*
X19314D01*
X18834Y93808D02*
X19294D01*
X18814Y93828D02*
X19294D01*
X18814Y93848D02*
X19274D01*
X18794Y93868D02*
X19274D01*
X18794Y93888D02*
X19254D01*
X18774Y93908D02*
X19254D01*
X18774Y93928D02*
X19234D01*
X18754Y93948D02*
X19234D01*
X18754Y93968D02*
X19214D01*
X18734Y93988D02*
X19214D01*
X18734Y94008D02*
X19194D01*
X18714Y94028D02*
X19194D01*
X18714Y94048D02*
X19194D01*
X18714Y94068D02*
X19174D01*
X18694Y94088D02*
X19174D01*
X18694Y94108D02*
X19154D01*
X18674Y94128D02*
X19154D01*
X18674Y94148D02*
X19134D01*
X18654Y94168D02*
X19134D01*
X18654Y94188D02*
X19114D01*
X18654Y94208D02*
X19114D01*
X18634Y94228D02*
X19094D01*
X18634Y94248D02*
X19094D01*
X18614Y94268D02*
X19094D01*
X18614Y94288D02*
X19074D01*
X18614Y94308D02*
X19074D01*
X18594Y94328D02*
X19054D01*
X18594Y94348D02*
X19054D01*
X18574Y94368D02*
X19034D01*
X18574Y94388D02*
X19034D01*
X18554Y94408D02*
X19034D01*
X18554Y94428D02*
X19014D01*
X18554Y94448D02*
X19014D01*
X18534Y94468D02*
X18994D01*
X18534Y94488D02*
X18994D01*
X18534Y94508D02*
X18994D01*
X18514Y94528D02*
X18974D01*
X18514Y94548D02*
X18974D01*
X18514Y94568D02*
X18954D01*
X18494Y94588D02*
X18954D01*
X18494Y94608D02*
X18954D01*
X18474Y94628D02*
X18934D01*
X18474Y94648D02*
X18934D01*
X18474Y94668D02*
X18914D01*
X18454Y94688D02*
X18914D01*
X18454Y94708D02*
X18914D01*
X18454Y94728D02*
X18894D01*
X18434Y94748D02*
X18894D01*
X18434Y94768D02*
X18894D01*
X18434Y94788D02*
X18874D01*
X18414Y94808D02*
X18874D01*
X18414Y94828D02*
X18874D01*
X18414Y94848D02*
X18854D01*
X18394Y94868D02*
X18854D01*
X18394Y94888D02*
X18854D01*
X18394Y94908D02*
X18834D01*
X18374Y94928D02*
X18834D01*
X18374Y94948D02*
X18834D01*
X18374Y94968D02*
X18814D01*
X18354Y94988D02*
X18814D01*
X18354Y95008D02*
X18814D01*
X18354Y95028D02*
X18794D01*
X18354Y95048D02*
X18794D01*
X18334Y95068D02*
X18794D01*
X18334Y95088D02*
X18774D01*
X18334Y95108D02*
X18774D01*
X18314Y95128D02*
X18774D01*
X18314Y95148D02*
X18754D01*
X18314Y95168D02*
X18754D01*
X18314Y95188D02*
X18754D01*
X18294Y95208D02*
X18754D01*
X18294Y95228D02*
X18734D01*
X18294Y95248D02*
X18734D01*
X18294Y95268D02*
X18734D01*
X18274Y95288D02*
X18714D01*
X18274Y95308D02*
X18714D01*
X18274Y95328D02*
X18714D01*
X18254Y95348D02*
X18714D01*
X18254Y95368D02*
X18694D01*
X18254Y95388D02*
X18694D01*
X18254Y95408D02*
X18694D01*
X18234Y95428D02*
X18674D01*
X18234Y95448D02*
X18674D01*
X18234Y95468D02*
X18674D01*
X18234Y95488D02*
X18674D01*
X18234Y95508D02*
X18674D01*
X18214Y95528D02*
X18654D01*
X18214Y95548D02*
X18654D01*
X18214Y95568D02*
X18654D01*
X18214Y95588D02*
X18654D01*
X18194Y95608D02*
X18634D01*
X18194Y95628D02*
X18634D01*
X18194Y95648D02*
X18634D01*
X18194Y95668D02*
X18634D01*
X18194Y95688D02*
X18614D01*
X18174Y95708D02*
X18614D01*
X18174Y95728D02*
X18614D01*
X18174Y95748D02*
X18614D01*
X18174Y95768D02*
X18594D01*
X18154Y95788D02*
X18594D01*
X18154Y95808D02*
X18594D01*
X18154Y95828D02*
X18594D01*
X18154Y95848D02*
X18594D01*
X18154Y95868D02*
X18574D01*
X18134Y95888D02*
X18574D01*
X18134Y95908D02*
X18574D01*
X18134Y95928D02*
X18574D01*
X18134Y95948D02*
X18574D01*
X18134Y95968D02*
X18574D01*
X18134Y95988D02*
X18554D01*
X18114Y96008D02*
X18554D01*
X18114Y96028D02*
X18554D01*
X18114Y96048D02*
X18554D01*
X18114Y96068D02*
X18554D01*
X18114Y96088D02*
X18534D01*
X18114Y96108D02*
X18534D01*
X18094Y96128D02*
X18534D01*
X18094Y96148D02*
X18534D01*
X18094Y96168D02*
X18534D01*
X18094Y96188D02*
X18534D01*
X18094Y96208D02*
X18514D01*
X18094Y96228D02*
X18514D01*
X18094Y96248D02*
X18514D01*
X18074Y96268D02*
X18514D01*
X18074Y96288D02*
X18514D01*
X18074Y96308D02*
X18514D01*
X18074Y96328D02*
X18494D01*
X18074Y96348D02*
X18494D01*
X18074Y96368D02*
X18494D01*
X18074Y96388D02*
X18494D01*
X18054Y96408D02*
X18494D01*
X18054Y96428D02*
X18494D01*
X18054Y96448D02*
X18494D01*
X18054Y96468D02*
X18494D01*
X18054Y96488D02*
X18474D01*
X18054Y96508D02*
X18474D01*
X18054Y96528D02*
X18474D01*
X18054Y96548D02*
X18474D01*
X18054Y96568D02*
X18474D01*
X18034Y96588D02*
X18474D01*
X18034Y96608D02*
X18474D01*
X18034Y96628D02*
X18474D01*
X18034Y96648D02*
X18474D01*
X18034Y96668D02*
X18474D01*
X18034Y96688D02*
X18454D01*
X18034Y96708D02*
X18454D01*
X18034Y96728D02*
X18454D01*
X18034Y96748D02*
X18454D01*
X18034Y96768D02*
X18454D01*
X18034Y96788D02*
X18454D01*
X18034Y96808D02*
X18454D01*
X18014Y96828D02*
X18454D01*
X18014Y96848D02*
X18454D01*
X18014Y96868D02*
X18454D01*
X18014Y96888D02*
X18454D01*
X18014Y96908D02*
X18454D01*
X18014Y96928D02*
X18454D01*
X18014Y96948D02*
X18434D01*
X18014Y96968D02*
X18434D01*
X18014Y96988D02*
X18434D01*
X18014Y97008D02*
X18434D01*
X18014Y97028D02*
X18434D01*
X18014Y97048D02*
X18434D01*
X18014Y97068D02*
X18434D01*
X18014Y97088D02*
X18434D01*
X18014Y97108D02*
X18434D01*
X18014Y97128D02*
X18434D01*
X18014Y97148D02*
X18434D01*
X18014Y97168D02*
X18434D01*
X18014Y97188D02*
X18434D01*
X18014Y97208D02*
X18434D01*
X18014Y97228D02*
X18434D01*
X17994Y97248D02*
X18434D01*
X17994Y97268D02*
X18434D01*
X17994Y97288D02*
X18434D01*
X17994Y97308D02*
X18434D01*
X17994Y97328D02*
X18434D01*
X17994Y97348D02*
X18434D01*
X17994Y97368D02*
X18434D01*
X17994Y97388D02*
X18434D01*
X17994Y97408D02*
X18434D01*
X17994Y97428D02*
X18434D01*
X17994Y97448D02*
X18434D01*
X17994Y97468D02*
X18434D01*
X17994Y97488D02*
X18434D01*
X17994Y97508D02*
X18434D01*
X17994Y97528D02*
X18434D01*
X17994Y97548D02*
X18434D01*
X17994Y97568D02*
X18434D01*
X17994Y97588D02*
X18434D01*
X17994Y97608D02*
X18434D01*
X17994Y97628D02*
X18434D01*
X18014Y97648D02*
X18434D01*
X18014Y97668D02*
X18434D01*
X18014Y97688D02*
X18434D01*
X18014Y97708D02*
X18434D01*
X18014Y97728D02*
X18434D01*
X18014Y97748D02*
X18434D01*
X18014Y97768D02*
X18434D01*
X18014Y97788D02*
X18434D01*
X18014Y97808D02*
X18434D01*
X18014Y97828D02*
X18434D01*
X18014Y97848D02*
X18434D01*
X18014Y97868D02*
X18434D01*
X18014Y97888D02*
X18434D01*
X18014Y97908D02*
X18434D01*
X18014Y97928D02*
X18454D01*
X18014Y97948D02*
X18454D01*
X18014Y97968D02*
X18454D01*
X27914Y101208D02*
X30174D01*
X27954Y101228D02*
X30174D01*
X27974Y101248D02*
X30174D01*
X28014Y101268D02*
X30174D01*
X28034Y101288D02*
X30154D01*
X24614Y101308D02*
X27374D01*
X28074D02*
X30154D01*
X24714Y101328D02*
X27274D01*
X28094D02*
X30154D01*
X24814Y101348D02*
X27174D01*
X28134D02*
X30154D01*
X24934Y101368D02*
X27054D01*
X28154D02*
X30154D01*
X25074Y101388D02*
X26914D01*
X28194D02*
X30154D01*
X25254Y101408D02*
X26734D01*
X28234D02*
X30134D01*
X25494Y101428D02*
X26514D01*
X28254D02*
X30134D01*
X25954Y101448D02*
X26034D01*
X28294D02*
X30134D01*
X28314Y101468D02*
X30134D01*
X28354Y101488D02*
X30134D01*
X28394Y101508D02*
X30114D01*
X28434Y101528D02*
X30114D01*
X28454Y101548D02*
X30114D01*
X28494Y101568D02*
X30094D01*
X28534Y101588D02*
X30094D01*
X28574Y101608D02*
X30094D01*
X28614Y101628D02*
X30094D01*
X28654Y101648D02*
X30074D01*
X28674Y101668D02*
X30074D01*
X28734Y101688D02*
X30074D01*
X28774Y101708D02*
X30074D01*
X28814Y101728D02*
X30054D01*
X28854Y101748D02*
X30054D01*
X28894Y101768D02*
X30054D01*
X28934Y101788D02*
X30034D01*
X28994Y101808D02*
X30034D01*
X29034Y101828D02*
X30034D01*
X29094Y101848D02*
X30014D01*
X29154Y101868D02*
X30014D01*
X29194Y101888D02*
X30014D01*
X29274Y101908D02*
X29994D01*
X29334Y101928D02*
X29994D01*
X29414Y101948D02*
X29994D01*
X29514Y101968D02*
X29974D01*
X29614Y101988D02*
X29954D01*
X32054Y102088D02*
X32574D01*
X32034Y102108D02*
X32574D01*
X32014Y102128D02*
X32554D01*
X32014Y102148D02*
X32534D01*
X31994Y102168D02*
X32534D01*
X31974Y102188D02*
X32514D01*
X31954Y102208D02*
X32494D01*
X31954Y102228D02*
X32474D01*
X31934Y102248D02*
X32474D01*
X31914Y102268D02*
X32454D01*
X31894Y102288D02*
X32434D01*
X31874Y102308D02*
X32434D01*
X31874Y102328D02*
X32414D01*
X31854Y102348D02*
X32394D01*
X31834Y102368D02*
X32374D01*
X31814Y102388D02*
X32374D01*
X31794Y102408D02*
X32354D01*
X31794Y102428D02*
X32334D01*
X31774Y102448D02*
X32314D01*
X31754Y102468D02*
X32314D01*
X31734Y102488D02*
X32294D01*
X31714Y102508D02*
X32274D01*
X31694Y102528D02*
X32254D01*
X31694Y102548D02*
X32254D01*
X31674Y102568D02*
X32234D01*
X31654Y102588D02*
X32214D01*
X31634Y102608D02*
X32194D01*
X31614Y102628D02*
X32194D01*
X31594Y102648D02*
X32174D01*
X31574Y102668D02*
X32154D01*
X31554Y102688D02*
X32134D01*
X31534Y102708D02*
X32114D01*
X31534Y102728D02*
X32094D01*
X31514Y102748D02*
X32094D01*
X31494Y102768D02*
X32074D01*
X31474Y102788D02*
X32054D01*
X31454Y102808D02*
X32034D01*
X31434Y102828D02*
X32014D01*
X31414Y102848D02*
X31994D01*
X31394Y102868D02*
X31994D01*
X31374Y102888D02*
X31974D01*
X31354Y102908D02*
X31954D01*
X31334Y102928D02*
X31934D01*
X31314Y102948D02*
X31914D01*
X31294Y102968D02*
X31894D01*
X31274Y102988D02*
X31874D01*
X31254Y103008D02*
X31854D01*
X31234Y103028D02*
X31834D01*
X31214Y103048D02*
X31834D01*
X31194Y103068D02*
X31814D01*
X31174Y103088D02*
X31794D01*
X31154Y103108D02*
X31774D01*
X31134Y103128D02*
X31754D01*
X31114Y103148D02*
X31734D01*
X31094Y103168D02*
X31714D01*
X31074Y103188D02*
X31694D01*
X31054Y103208D02*
X31674D01*
X31034Y103228D02*
X31654D01*
X31014Y103248D02*
X31634D01*
X30974Y103268D02*
X31614D01*
X30954Y103288D02*
X31594D01*
X30934Y103308D02*
X31574D01*
X30914Y103328D02*
X31554D01*
X30894Y103348D02*
X31534D01*
X30874Y103368D02*
X31514D01*
X30854Y103388D02*
X31494D01*
X30814Y103408D02*
X31474D01*
X30794Y103428D02*
X31454D01*
X30774Y103448D02*
X31434D01*
X30754Y103468D02*
X31414D01*
X30734Y103488D02*
X31394D01*
X30714Y103508D02*
X31374D01*
X30674Y103528D02*
X31354D01*
X30654Y103548D02*
X31334D01*
X30634Y103568D02*
X31314D01*
X30614Y103588D02*
X31274D01*
X30574Y103608D02*
X31254D01*
X30554Y103628D02*
X31234D01*
X30534Y103648D02*
X31214D01*
X30494Y103668D02*
X31194D01*
X30474Y103688D02*
X31174D01*
X30454Y103708D02*
X31154D01*
X30414Y103728D02*
X31134D01*
X30394Y103748D02*
X31094D01*
X30374Y103768D02*
X31074D01*
X30334Y103788D02*
X31054D01*
X30314Y103808D02*
X31034D01*
X30274Y103828D02*
X31014D01*
X30254Y103848D02*
X30974D01*
X30234Y103868D02*
X30954D01*
X30194Y103888D02*
X30934D01*
X30174Y103908D02*
X30914D01*
X30134Y103928D02*
X30874D01*
X30114Y103948D02*
X30854D01*
X30074Y103968D02*
X30834D01*
X30054Y103988D02*
X30814D01*
X30014Y104008D02*
X30774D01*
X29994Y104028D02*
X30754D01*
X29954Y104048D02*
X30734D01*
X29914Y104068D02*
X30694D01*
X29894Y104088D02*
X30674D01*
X29854Y104108D02*
X30654D01*
X29814Y104128D02*
X30614D01*
X29794Y104148D02*
X30594D01*
X29754Y104168D02*
X30574D01*
X29714Y104188D02*
X30534D01*
X29694Y104208D02*
X30514D01*
X29654Y104228D02*
X30474D01*
X29614Y104248D02*
X30454D01*
X29574Y104268D02*
X30414D01*
X29534Y104288D02*
X30394D01*
X29514Y104308D02*
X30354D01*
X29474Y104328D02*
X30334D01*
X29434Y104348D02*
X30314D01*
X29394Y104368D02*
X30274D01*
X29354Y104388D02*
X30234D01*
X29314Y104408D02*
X30214D01*
X29274Y104428D02*
X30174D01*
X29234Y104448D02*
X30154D01*
X29194Y104468D02*
X30114D01*
X29154Y104488D02*
X30074D01*
X29114Y104508D02*
X30054D01*
X29074Y104528D02*
X30014D01*
X29014Y104548D02*
X29994D01*
X28974Y104568D02*
X29954D01*
X28934Y104588D02*
X29914D01*
X28874Y104608D02*
X29874D01*
X28834Y104628D02*
X29834D01*
X28794Y104648D02*
X29814D01*
X28734Y104668D02*
X29774D01*
X28674Y104688D02*
X29734D01*
X28634Y104708D02*
X29694D01*
X28574Y104728D02*
X29654D01*
X28534Y104748D02*
X29634D01*
X28454Y104768D02*
X29594D01*
X28414Y104788D02*
X29554D01*
X28354Y104808D02*
X29514D01*
X28294Y104828D02*
X29474D01*
X28234Y104848D02*
X29434D01*
X28154Y104868D02*
X29394D01*
X28094Y104888D02*
X29334D01*
X28034Y104908D02*
X29294D01*
X27954Y104928D02*
X29254D01*
X27894Y104948D02*
X29214D01*
X27794Y104968D02*
X29174D01*
X27734Y104988D02*
X29134D01*
X27634Y105008D02*
X29074D01*
X27554Y105028D02*
X29034D01*
X27454Y105048D02*
X28974D01*
X27354Y105068D02*
X28934D01*
X27234Y105088D02*
X28874D01*
X27114Y105108D02*
X28834D01*
X26974Y105128D02*
X28774D01*
X26814Y105148D02*
X28734D01*
X26594Y105168D02*
X28674D01*
X26214Y105188D02*
X28614D01*
X24674Y105528D02*
X27314D01*
X24794Y105548D02*
X27194D01*
X24914Y105568D02*
X27074D01*
X25074Y105588D02*
X26914D01*
X25294Y105608D02*
X26694D01*
X25554Y105628D02*
X26434D01*
X28314Y90068D02*
X29514D01*
X28414Y90088D02*
X29554D01*
X28474Y90108D02*
X29594D01*
X28534Y90128D02*
X29634D01*
X28574Y90148D02*
X29654D01*
X28634Y90168D02*
X29694D01*
X28674Y90188D02*
X29734D01*
X28734Y90208D02*
X29774D01*
X28794Y90228D02*
X29814D01*
X28834Y90248D02*
X29834D01*
X28874Y90268D02*
X29874D01*
X28934Y90288D02*
X29914D01*
X28974Y90308D02*
X29954D01*
X29014Y90328D02*
X29994D01*
X29074Y90348D02*
X30014D01*
X29114Y90368D02*
X30054D01*
X29154Y90388D02*
X30074D01*
X29194Y90408D02*
X30114D01*
X29234Y90428D02*
X30154D01*
X29274Y90448D02*
X30174D01*
X29314Y90468D02*
X30214D01*
X29354Y90488D02*
X30234D01*
X29394Y90508D02*
X30274D01*
X29434Y90528D02*
X30294D01*
X29474Y90548D02*
X30334D01*
X29514Y90568D02*
X30354D01*
X29554Y90588D02*
X30394D01*
X29574Y90608D02*
X30414D01*
X29614Y90628D02*
X30454D01*
X29654Y90648D02*
X30474D01*
X29694Y90668D02*
X30514D01*
X29714Y90688D02*
X30534D01*
X29754Y90708D02*
X30574D01*
X29794Y90728D02*
X30594D01*
X29814Y90748D02*
X30614D01*
X29854Y90768D02*
X30654D01*
X29894Y90788D02*
X30674D01*
X29914Y90808D02*
X30694D01*
X29954Y90828D02*
X30734D01*
X29994Y90848D02*
X30754D01*
X30014Y90868D02*
X30774D01*
X30054Y90888D02*
X30814D01*
X30074Y90908D02*
X30834D01*
X30114Y90928D02*
X30854D01*
X30134Y90948D02*
X30874D01*
X30174Y90968D02*
X30914D01*
X30194Y90988D02*
X30934D01*
X30234Y91008D02*
X30954D01*
X30254Y91028D02*
X30974D01*
X30274Y91048D02*
X31014D01*
X30314Y91068D02*
X31034D01*
X30334Y91088D02*
X31054D01*
X30374Y91108D02*
X31074D01*
X30394Y91128D02*
X31094D01*
X30414Y91148D02*
X31114D01*
X30454Y91168D02*
X31154D01*
X30474Y91188D02*
X31174D01*
X30494Y91208D02*
X31194D01*
X30534Y91228D02*
X31214D01*
X30554Y91248D02*
X31234D01*
X30574Y91268D02*
X31254D01*
X30614Y91288D02*
X31274D01*
X30634Y91308D02*
X31314D01*
X30654Y91328D02*
X31334D01*
X30674Y91348D02*
X31354D01*
X30714Y91368D02*
X31374D01*
X30734Y91388D02*
X31394D01*
X30754Y91408D02*
X31414D01*
X30774Y91428D02*
X31434D01*
X30794Y91448D02*
X31454D01*
X30814Y91468D02*
X31474D01*
X30854Y91488D02*
X31494D01*
X30874Y91508D02*
X31514D01*
X30894Y91528D02*
X31534D01*
X30914Y91548D02*
X31554D01*
X30934Y91568D02*
X31574D01*
X30954Y91588D02*
X31594D01*
X30974Y91608D02*
X31614D01*
X31014Y91628D02*
X31634D01*
X31034Y91648D02*
X31654D01*
X31054Y91668D02*
X31674D01*
X28374Y91688D02*
X28894D01*
X31074D02*
X31694D01*
X28194Y91708D02*
X29054D01*
X31094D02*
X31714D01*
X28074Y91728D02*
X29154D01*
X31114D02*
X31734D01*
X27954Y91748D02*
X29234D01*
X31134D02*
X31754D01*
X31154Y91768D02*
X31774D01*
X31174Y91788D02*
X31794D01*
X31194Y91808D02*
X31814D01*
X31214Y91828D02*
X31834D01*
X31234Y91848D02*
X31834D01*
X31254Y91868D02*
X31854D01*
X31274Y91888D02*
X31874D01*
X31294Y91908D02*
X31894D01*
X31314Y91928D02*
X31914D01*
X31334Y91948D02*
X31934D01*
X31354Y91968D02*
X31954D01*
X31374Y91988D02*
X31974D01*
X31394Y92008D02*
X31994D01*
X31414Y92028D02*
X31994D01*
X31434Y92048D02*
X32014D01*
X31454Y92068D02*
X32034D01*
X31474Y92088D02*
X32054D01*
X31494Y92108D02*
X32074D01*
X31514Y92128D02*
X32094D01*
X31534Y92148D02*
X32094D01*
X31554Y92168D02*
X32114D01*
X31554Y92188D02*
X32134D01*
X31574Y92208D02*
X32154D01*
X31594Y92228D02*
X32174D01*
X31614Y92248D02*
X32174D01*
X31634Y92268D02*
X32194D01*
X31654Y92288D02*
X32214D01*
X31674Y92308D02*
X32234D01*
X31694Y92328D02*
X32254D01*
X31694Y92348D02*
X32254D01*
X31714Y92368D02*
X32274D01*
X31734Y92388D02*
X32294D01*
X31754Y92408D02*
X32314D01*
X31774Y92428D02*
X32314D01*
X31794Y92448D02*
X32334D01*
X31794Y92468D02*
X32354D01*
X31814Y92488D02*
X32374D01*
X31834Y92508D02*
X32374D01*
X31854Y92528D02*
X32394D01*
X31874Y92548D02*
X32414D01*
X31874Y92568D02*
X32434D01*
X31894Y92588D02*
X32434D01*
X31914Y92608D02*
X32454D01*
X31934Y92628D02*
X32474D01*
X31954Y92648D02*
X32474D01*
X31954Y92668D02*
X32494D01*
X31974Y92688D02*
X32514D01*
X31994Y92708D02*
X32514D01*
X32014Y92728D02*
X32534D01*
X32014Y92748D02*
X32554D01*
X32034Y92768D02*
X32574D01*
X28954Y92788D02*
X30434D01*
X32054D02*
X32574D01*
X29054Y92808D02*
X30434D01*
X29134Y92828D02*
X30434D01*
X29194Y92848D02*
X30454D01*
X29254Y92868D02*
X30454D01*
X29294Y92888D02*
X30474D01*
X29334Y92908D02*
X30474D01*
X29374Y92928D02*
X30474D01*
X29414Y92948D02*
X30494D01*
X29454Y92968D02*
X30494D01*
X29494Y92988D02*
X30514D01*
X29514Y93008D02*
X30514D01*
X29554Y93028D02*
X30534D01*
X29574Y93048D02*
X30534D01*
X29594Y93068D02*
X30554D01*
X29614Y93088D02*
X30554D01*
X29654Y93108D02*
X30554D01*
X29674Y93128D02*
X30574D01*
X29694Y93148D02*
X30594D01*
X29714Y93168D02*
X30594D01*
X29734Y93188D02*
X30614D01*
X29754Y93208D02*
X30614D01*
X29774Y93228D02*
X30634D01*
X29794Y93248D02*
X30634D01*
X29814Y93268D02*
X30654D01*
X29834Y93288D02*
X30654D01*
X29834Y93308D02*
X30674D01*
X29854Y93328D02*
X30694D01*
X29874Y93348D02*
X30694D01*
X29894Y93368D02*
X30714D01*
X29914Y93388D02*
X30734D01*
X29914Y93408D02*
X30734D01*
X29934Y93428D02*
X30754D01*
X29954Y93448D02*
X30774D01*
X29954Y93468D02*
X30774D01*
X29974Y93488D02*
X30794D01*
X29994Y93508D02*
X30814D01*
X29994Y93528D02*
X30814D01*
X30014Y93548D02*
X30834D01*
X30034Y93568D02*
X30854D01*
X30034Y93588D02*
X30874D01*
X30054Y93608D02*
X30894D01*
X30054Y93628D02*
X30914D01*
X30074Y93648D02*
X30914D01*
X30094Y93668D02*
X30934D01*
X30094Y93688D02*
X30954D01*
X30114Y93708D02*
X30974D01*
X30134Y93728D02*
X30994D01*
X30134Y93748D02*
X31014D01*
X30154Y93768D02*
X31034D01*
X30174Y93788D02*
X31054D01*
X30194Y93808D02*
X31094D01*
X30194Y93828D02*
X31114D01*
X30214Y93848D02*
X31134D01*
X30234Y93868D02*
X31154D01*
X30254Y93888D02*
X31194D01*
X30274Y93908D02*
X31214D01*
X30294Y93928D02*
X31254D01*
X30294Y93948D02*
X31274D01*
X30314Y93968D02*
X31314D01*
X30334Y93988D02*
X31334D01*
X30354Y94008D02*
X31354D01*
X30394Y94028D02*
X31394D01*
X30414Y94048D02*
X31414D01*
X30434Y94068D02*
X31434D01*
X30454Y94088D02*
X31454D01*
X30474Y94108D02*
X31474D01*
X30494Y94128D02*
X31494D01*
X30534Y94148D02*
X31514D01*
X30554Y94168D02*
X31534D01*
X30574Y94188D02*
X31534D01*
X30614Y94208D02*
X31554D01*
X30634Y94228D02*
X31554D01*
X30674Y94248D02*
X31554D01*
X30714Y94268D02*
X31574D01*
X30754Y94288D02*
X31554D01*
X30794Y94308D02*
X31554D01*
X30834Y94328D02*
X31534D01*
X30894Y94348D02*
X31534D01*
X30954Y94368D02*
X31494D01*
X31014Y94388D02*
X31454D01*
X31114Y94408D02*
X31374D01*
X25554Y89248D02*
X26434D01*
X25294Y89268D02*
X26694D01*
X25074Y89288D02*
X26914D01*
X24914Y89308D02*
X27074D01*
X24794Y89328D02*
X27194D01*
X24674Y89348D02*
X27314D01*
X33534Y98008D02*
X33974D01*
X33534Y98028D02*
X33974D01*
X33534Y98048D02*
X33974D01*
X33534Y98068D02*
X33954D01*
X33534Y98088D02*
X33954D01*
X33534Y98108D02*
X33954D01*
X33534Y98128D02*
X33954D01*
X33534Y98148D02*
X33954D01*
X33534Y98168D02*
X33954D01*
X33514Y98188D02*
X33954D01*
X33514Y98208D02*
X33954D01*
X33514Y98228D02*
X33954D01*
X33514Y98248D02*
X33954D01*
X33514Y98268D02*
X33954D01*
X33514Y98288D02*
X33954D01*
X33514Y98308D02*
X33934D01*
X33514Y98328D02*
X33934D01*
X33514Y98348D02*
X33934D01*
X33514Y98368D02*
X33934D01*
X33494Y98388D02*
X33934D01*
X33494Y98408D02*
X33934D01*
X33494Y98428D02*
X33934D01*
X33494Y98448D02*
X33934D01*
X33494Y98468D02*
X33934D01*
X33494Y98488D02*
X33914D01*
X33494Y98508D02*
X33914D01*
X33494Y98528D02*
X33914D01*
X33474Y98548D02*
X33914D01*
X33474Y98568D02*
X33914D01*
X33474Y98588D02*
X33914D01*
X33474Y98608D02*
X33914D01*
X33474Y98628D02*
X33894D01*
X33474Y98648D02*
X33894D01*
X33474Y98668D02*
X33894D01*
X33454Y98688D02*
X33894D01*
X33454Y98708D02*
X33894D01*
X33454Y98728D02*
X33894D01*
X33454Y98748D02*
X33894D01*
X33454Y98768D02*
X33874D01*
X33434Y98788D02*
X33874D01*
X33434Y98808D02*
X33874D01*
X33434Y98828D02*
X33874D01*
X33434Y98848D02*
X33874D01*
X33434Y98868D02*
X33874D01*
X33434Y98888D02*
X33854D01*
X33414Y98908D02*
X33854D01*
X33414Y98928D02*
X33854D01*
X33414Y98948D02*
X33854D01*
X33414Y98968D02*
X33854D01*
X33414Y98988D02*
X33854D01*
X33414Y99008D02*
X33834D01*
X33394Y99028D02*
X33834D01*
X33394Y99048D02*
X33834D01*
X33394Y99068D02*
X33834D01*
X33394Y99088D02*
X33834D01*
X33374Y99108D02*
X33814D01*
X33374Y99128D02*
X33814D01*
X33374Y99148D02*
X33814D01*
X33374Y99168D02*
X33814D01*
X33374Y99188D02*
X33814D01*
X33354Y99208D02*
X33794D01*
X33354Y99228D02*
X33794D01*
X33354Y99248D02*
X33794D01*
X33354Y99268D02*
X33794D01*
X33334Y99288D02*
X33774D01*
X33334Y99308D02*
X33774D01*
X33334Y99328D02*
X33774D01*
X33334Y99348D02*
X33774D01*
X33314Y99368D02*
X33754D01*
X33314Y99388D02*
X33754D01*
X33314Y99408D02*
X33754D01*
X33314Y99428D02*
X33754D01*
X33294Y99448D02*
X33754D01*
X33294Y99468D02*
X33734D01*
X33294Y99488D02*
X33734D01*
X33294Y99508D02*
X33734D01*
X33274Y99528D02*
X33734D01*
X33274Y99548D02*
X33714D01*
X33274Y99568D02*
X33714D01*
X33274Y99588D02*
X33714D01*
X33254Y99608D02*
X33694D01*
X33254Y99628D02*
X33694D01*
X33254Y99648D02*
X33694D01*
X33234Y99668D02*
X33694D01*
X33234Y99688D02*
X33674D01*
X33234Y99708D02*
X33674D01*
X33214Y99728D02*
X33674D01*
X33214Y99748D02*
X33674D01*
X33214Y99768D02*
X33654D01*
X33214Y99788D02*
X33654D01*
X33194Y99808D02*
X33654D01*
X33194Y99828D02*
X33634D01*
X33194Y99848D02*
X33634D01*
X33174Y99868D02*
X33634D01*
X33174Y99888D02*
X33634D01*
X33174Y99908D02*
X33614D01*
X33154Y99928D02*
X33614D01*
X33154Y99948D02*
X33614D01*
X33154Y99968D02*
X33594D01*
X33134Y99988D02*
X33594D01*
X33134Y100008D02*
X33594D01*
X33134Y100028D02*
X33574D01*
X33114Y100048D02*
X33574D01*
X33114Y100068D02*
X33574D01*
X33114Y100088D02*
X33554D01*
X33094Y100108D02*
X33554D01*
X33094Y100128D02*
X33554D01*
X33094Y100148D02*
X33534D01*
X33074Y100168D02*
X33534D01*
X33074Y100188D02*
X33534D01*
X33054Y100208D02*
X33514D01*
X33054Y100228D02*
X33514D01*
X33054Y100248D02*
X33514D01*
X33034Y100268D02*
X33494D01*
X33034Y100288D02*
X33494D01*
X33014Y100308D02*
X33474D01*
X33014Y100328D02*
X33474D01*
X33014Y100348D02*
X33474D01*
X32994Y100368D02*
X33454D01*
X32994Y100388D02*
X33454D01*
X32994Y100408D02*
X33454D01*
X32974Y100428D02*
X33434D01*
X32974Y100448D02*
X33434D01*
X32954Y100468D02*
X33434D01*
X32954Y100488D02*
X33414D01*
X32934Y100508D02*
X33414D01*
X32934Y100528D02*
X33394D01*
X32934Y100548D02*
X33394D01*
X32914Y100568D02*
X33374D01*
X32914Y100588D02*
X33374D01*
X32894Y100608D02*
X33374D01*
X32894Y100628D02*
X33354D01*
X32874Y100648D02*
X33354D01*
X32874Y100668D02*
X33334D01*
X32874Y100688D02*
X33334D01*
X32854Y100708D02*
X33334D01*
X32854Y100728D02*
X33314D01*
X32834Y100748D02*
X33314D01*
X32834Y100768D02*
X33294D01*
X32814Y100788D02*
X33294D01*
X32814Y100808D02*
X33274D01*
X32794Y100828D02*
X33274D01*
X32794Y100848D02*
X33274D01*
X32774Y100868D02*
X33254D01*
X32774Y100888D02*
X33254D01*
X32754Y100908D02*
X33234D01*
X32754Y100928D02*
X33234D01*
X32734Y100948D02*
X33214D01*
X32734Y100968D02*
X33214D01*
X32714Y100988D02*
X33194D01*
X32714Y101008D02*
X33194D01*
X32694Y101028D02*
X33174D01*
X32694Y101048D02*
X33174D01*
X32674Y101068D02*
X33154D01*
X32674Y101088D02*
X33154D01*
X32654Y101108D02*
X33154D01*
X32654Y101128D02*
X33134D01*
X32634Y101148D02*
X33134D01*
X32634Y101168D02*
X33114D01*
X32614Y101188D02*
X33114D01*
X32614Y101208D02*
X33094D01*
X32614Y93668D02*
X33094D01*
X32614Y93688D02*
X33114D01*
X32634Y93708D02*
X33114D01*
X32634Y93728D02*
X33134D01*
X32654Y93748D02*
X33134D01*
X32654Y93768D02*
X33134D01*
X32674Y93788D02*
X33154D01*
X32674Y93808D02*
X33154D01*
X32694Y93828D02*
X33174D01*
X32694Y93848D02*
X33174D01*
X32714Y93868D02*
X33194D01*
X32714Y93888D02*
X33194D01*
X32734Y93908D02*
X33214D01*
X32734Y93928D02*
X33214D01*
X32754Y93948D02*
X33234D01*
X32754Y93968D02*
X33234D01*
X32774Y93988D02*
X33254D01*
X32774Y94008D02*
X33254D01*
X32794Y94028D02*
X33274D01*
X32794Y94048D02*
X33274D01*
X32814Y94068D02*
X33274D01*
X32814Y94088D02*
X33294D01*
X32834Y94108D02*
X33294D01*
X32834Y94128D02*
X33314D01*
X32854Y94148D02*
X33314D01*
X32854Y94168D02*
X33334D01*
X32874Y94188D02*
X33334D01*
X32874Y94208D02*
X33334D01*
X32874Y94228D02*
X33354D01*
X32894Y94248D02*
X33354D01*
X32894Y94268D02*
X33374D01*
X32914Y94288D02*
X33374D01*
X32914Y94308D02*
X33374D01*
X32934Y94328D02*
X33394D01*
X32934Y94348D02*
X33394D01*
X32934Y94368D02*
X33414D01*
X32954Y94388D02*
X33414D01*
X32954Y94408D02*
X33434D01*
X32974Y94428D02*
X33434D01*
X32974Y94448D02*
X33434D01*
X32994Y94468D02*
X33454D01*
X32994Y94488D02*
X33454D01*
X32994Y94508D02*
X33454D01*
X33014Y94528D02*
X33474D01*
X33014Y94548D02*
X33474D01*
X33014Y94568D02*
X33474D01*
X33034Y94588D02*
X33494D01*
X33034Y94608D02*
X33494D01*
X33054Y94628D02*
X33514D01*
X33054Y94648D02*
X33514D01*
X33054Y94668D02*
X33514D01*
X33074Y94688D02*
X33534D01*
X33074Y94708D02*
X33534D01*
X33094Y94728D02*
X33534D01*
X33094Y94748D02*
X33554D01*
X33094Y94768D02*
X33554D01*
X33114Y94788D02*
X33554D01*
X33114Y94808D02*
X33574D01*
X33114Y94828D02*
X33574D01*
X33134Y94848D02*
X33574D01*
X33134Y94868D02*
X33594D01*
X33134Y94888D02*
X33594D01*
X33154Y94908D02*
X33594D01*
X33154Y94928D02*
X33614D01*
X33154Y94948D02*
X33614D01*
X33174Y94968D02*
X33614D01*
X33174Y94988D02*
X33634D01*
X33174Y95008D02*
X33634D01*
X33194Y95028D02*
X33634D01*
X33194Y95048D02*
X33634D01*
X33194Y95068D02*
X33654D01*
X33214Y95088D02*
X33654D01*
X33214Y95108D02*
X33654D01*
X33214Y95128D02*
X33674D01*
X33214Y95148D02*
X33674D01*
X33234Y95168D02*
X33674D01*
X33234Y95188D02*
X33674D01*
X33234Y95208D02*
X33694D01*
X33254Y95228D02*
X33694D01*
X33254Y95248D02*
X33694D01*
X33254Y95268D02*
X33694D01*
X33274Y95288D02*
X33714D01*
X33274Y95308D02*
X33714D01*
X33274Y95328D02*
X33714D01*
X33274Y95348D02*
X33734D01*
X33294Y95368D02*
X33734D01*
X33294Y95388D02*
X33734D01*
X33294Y95408D02*
X33734D01*
X33294Y95428D02*
X33754D01*
X33314Y95448D02*
X33754D01*
X33314Y95468D02*
X33754D01*
X33314Y95488D02*
X33754D01*
X33314Y95508D02*
X33754D01*
X33334Y95528D02*
X33774D01*
X33334Y95548D02*
X33774D01*
X33334Y95568D02*
X33774D01*
X33334Y95588D02*
X33774D01*
X33354Y95608D02*
X33794D01*
X33354Y95628D02*
X33794D01*
X33354Y95648D02*
X33794D01*
X33354Y95668D02*
X33794D01*
X33374Y95688D02*
X33794D01*
X33374Y95708D02*
X33814D01*
X33374Y95728D02*
X33814D01*
X33374Y95748D02*
X33814D01*
X33374Y95768D02*
X33814D01*
X33394Y95788D02*
X33834D01*
X33394Y95808D02*
X33834D01*
X33394Y95828D02*
X33834D01*
X33394Y95848D02*
X33834D01*
X33414Y95868D02*
X33834D01*
X33414Y95888D02*
X33854D01*
X33414Y95908D02*
X33854D01*
X33414Y95928D02*
X33854D01*
X33414Y95948D02*
X33854D01*
X33414Y95968D02*
X33854D01*
X33434Y95988D02*
X33854D01*
X33434Y96008D02*
X33874D01*
X33434Y96028D02*
X33874D01*
X33434Y96048D02*
X33874D01*
X33434Y96068D02*
X33874D01*
X33434Y96088D02*
X33874D01*
X33454Y96108D02*
X33874D01*
X33454Y96128D02*
X33894D01*
X33454Y96148D02*
X33894D01*
X33454Y96168D02*
X33894D01*
X33454Y96188D02*
X33894D01*
X33474Y96208D02*
X33894D01*
X33474Y96228D02*
X33894D01*
X33474Y96248D02*
X33894D01*
X33474Y96268D02*
X33914D01*
X33474Y96288D02*
X33914D01*
X33474Y96308D02*
X33914D01*
X33474Y96328D02*
X33914D01*
X33494Y96348D02*
X33914D01*
X33494Y96368D02*
X33914D01*
X33494Y96388D02*
X33914D01*
X33494Y96408D02*
X33934D01*
X33494Y96428D02*
X33934D01*
X33494Y96448D02*
X33934D01*
X33494Y96468D02*
X33934D01*
X33494Y96488D02*
X33934D01*
X33514Y96508D02*
X33934D01*
X33514Y96528D02*
X33934D01*
X33514Y96548D02*
X33934D01*
X33514Y96568D02*
X33954D01*
X33514Y96588D02*
X33954D01*
X33514Y96608D02*
X33954D01*
X33514Y96628D02*
X33954D01*
X33514Y96648D02*
X33954D01*
X33514Y96668D02*
X33954D01*
X33514Y96688D02*
X33954D01*
X33534Y96708D02*
X33954D01*
X33534Y96728D02*
X33954D01*
X33534Y96748D02*
X33954D01*
X33534Y96768D02*
X33954D01*
X33534Y96788D02*
X33954D01*
X33534Y96808D02*
X33954D01*
X33534Y96828D02*
X33974D01*
X33534Y96848D02*
X33974D01*
X33534Y96868D02*
X33974D01*
X33534Y96888D02*
X33974D01*
X33534Y96908D02*
X33974D01*
X33534Y96928D02*
X33974D01*
X33534Y96948D02*
X33974D01*
X33534Y96968D02*
X33974D01*
X33554Y96988D02*
X33974D01*
X33554Y97008D02*
X33974D01*
X33554Y97028D02*
X33974D01*
X33554Y97048D02*
X33974D01*
X33554Y97068D02*
X33974D01*
X33554Y97088D02*
X33974D01*
X33554Y97108D02*
X33974D01*
X33554Y97128D02*
X33974D01*
X33554Y97148D02*
X33974D01*
X33554Y97168D02*
X33974D01*
X33554Y97188D02*
X33974D01*
X33554Y97208D02*
X33974D01*
X33554Y97228D02*
X33974D01*
X33554Y97248D02*
X33994D01*
X33554Y97268D02*
X33994D01*
X33554Y97288D02*
X33994D01*
X33554Y97308D02*
X33994D01*
X33554Y97328D02*
X33994D01*
X33554Y97348D02*
X33994D01*
X33554Y97368D02*
X33994D01*
X33554Y97388D02*
X33994D01*
X33554Y97408D02*
X33994D01*
X33554Y97428D02*
X33994D01*
X33554Y97448D02*
X33994D01*
X33554Y97468D02*
X33994D01*
X33554Y97488D02*
X33994D01*
X33554Y97508D02*
X33994D01*
X33554Y97528D02*
X33994D01*
X33554Y97548D02*
X33994D01*
X33554Y97568D02*
X33994D01*
X33554Y97588D02*
X33994D01*
X33554Y97608D02*
X33994D01*
X33554Y97628D02*
X33994D01*
X33554Y97648D02*
X33974D01*
X33554Y97668D02*
X33974D01*
X33554Y97688D02*
X33974D01*
X33554Y97708D02*
X33974D01*
X33554Y97728D02*
X33974D01*
X33554Y97748D02*
X33974D01*
X33554Y97768D02*
X33974D01*
X33554Y97788D02*
X33974D01*
X33554Y97808D02*
X33974D01*
X33554Y97828D02*
X33974D01*
X33554Y97848D02*
X33974D01*
X33554Y97868D02*
X33974D01*
X33554Y97888D02*
X33974D01*
X33534Y97908D02*
X33974D01*
X33534Y97928D02*
X33974D01*
X33534Y97948D02*
X33974D01*
X33534Y97968D02*
X33974D01*
D32*
X-0Y-39272D02*
D03*
M02*
