G04*
G04 #@! TF.GenerationSoftware,Altium Limited,Altium Designer,20.1.8 (145)*
G04*
G04 Layer_Color=255*
%FSLAX25Y25*%
%MOIN*%
G70*
G04*
G04 #@! TF.SameCoordinates,E63724BA-16F5-4366-9E26-62C3D329C696*
G04*
G04*
G04 #@! TF.FilePolarity,Positive*
G04*
G01*
G75*
%ADD23C,0.12598*%
%ADD24C,0.06500*%
%ADD25R,0.06500X0.06500*%
%ADD26R,0.06500X0.06500*%
D23*
X48327Y-69488D02*
D03*
X-48335Y92421D02*
D03*
D24*
X-54921Y-30000D02*
D03*
Y-40000D02*
D03*
Y-20000D02*
D03*
Y3779D02*
D03*
Y13780D02*
D03*
Y47559D02*
D03*
Y37559D02*
D03*
Y57559D02*
D03*
Y67559D02*
D03*
X-25276Y-68721D02*
D03*
X14724Y-68701D02*
D03*
X24724D02*
D03*
X-5276D02*
D03*
X-15276D02*
D03*
X54882Y57279D02*
D03*
Y47280D02*
D03*
Y27279D02*
D03*
Y37279D02*
D03*
X54843Y3500D02*
D03*
X54862Y-36500D02*
D03*
Y-46500D02*
D03*
Y-16500D02*
D03*
Y-6500D02*
D03*
X54921Y91059D02*
D03*
Y81059D02*
D03*
D25*
X-54921Y-50000D02*
D03*
Y-6221D02*
D03*
Y27559D02*
D03*
X54882Y17279D02*
D03*
X54862Y-26500D02*
D03*
X54921Y71059D02*
D03*
D26*
X4724Y-68701D02*
D03*
M02*
