G04*
G04 #@! TF.GenerationSoftware,Altium Limited,Altium Designer,20.1.8 (145)*
G04*
G04 Layer_Color=8388736*
%FSLAX25Y25*%
%MOIN*%
G70*
G04*
G04 #@! TF.SameCoordinates,0646C1E9-0440-4AAE-851A-CF3533030474*
G04*
G04*
G04 #@! TF.FilePolarity,Negative*
G04*
G01*
G75*
%ADD14R,0.08280X0.05013*%
%ADD15C,0.07300*%
%ADD16R,0.07300X0.07300*%
%ADD17C,0.13398*%
%ADD18R,0.07300X0.07300*%
D14*
X-28819Y68209D02*
D03*
Y23209D02*
D03*
Y18209D02*
D03*
Y13209D02*
D03*
Y8209D02*
D03*
Y3209D02*
D03*
Y-1791D02*
D03*
Y-6791D02*
D03*
X28819D02*
D03*
Y-1791D02*
D03*
Y3209D02*
D03*
X-28819Y63209D02*
D03*
X28819Y8209D02*
D03*
Y13209D02*
D03*
Y18209D02*
D03*
Y23209D02*
D03*
Y28209D02*
D03*
Y33209D02*
D03*
Y38209D02*
D03*
Y43209D02*
D03*
Y48209D02*
D03*
Y53209D02*
D03*
X-28819Y58209D02*
D03*
X28819D02*
D03*
Y63209D02*
D03*
Y68209D02*
D03*
X-28819Y53209D02*
D03*
Y48209D02*
D03*
Y43209D02*
D03*
Y38209D02*
D03*
Y33209D02*
D03*
Y28209D02*
D03*
D15*
X54882Y37279D02*
D03*
Y27279D02*
D03*
Y47280D02*
D03*
Y57279D02*
D03*
X-54921Y-30000D02*
D03*
Y-50000D02*
D03*
Y-40000D02*
D03*
Y13780D02*
D03*
Y-6221D02*
D03*
Y3779D02*
D03*
X54921Y81102D02*
D03*
Y71102D02*
D03*
X-54921Y47559D02*
D03*
Y37559D02*
D03*
Y57559D02*
D03*
Y67559D02*
D03*
X-25276Y-68721D02*
D03*
X14724Y-68701D02*
D03*
X24724D02*
D03*
X-5276D02*
D03*
X-15276D02*
D03*
X54803Y3500D02*
D03*
X54823Y-36500D02*
D03*
Y-46500D02*
D03*
Y-16500D02*
D03*
Y-6500D02*
D03*
D16*
X54882Y17279D02*
D03*
X-54921Y-60000D02*
D03*
Y-16220D02*
D03*
X54921Y91102D02*
D03*
X-54921Y27559D02*
D03*
X54823Y-26500D02*
D03*
D17*
X48327Y-69488D02*
D03*
X-48335Y92421D02*
D03*
D18*
X4724Y-68701D02*
D03*
M02*
