M48
;Layer_Color=9474304
;FILE_FORMAT=2:5
INCH,LZ
;TYPE=PLATED
T1F00S00C0.01000
T2F00S00C0.01181
T3F00S00C0.01378
T4F00S00C0.01500
T5F00S00C0.04000
;TYPE=NON_PLATED
T7F00S00C0.12598
%
T01
X-004498Y-0006496
Y0009819
X0050098Y0100689
T02
X006063Y-005876
X0033465Y-0061221
X0032579Y-005315
X0028051Y-0043799
X0020866Y-0047047
X0015059Y-0049803
X0007972Y-0044193
X-0004035Y-0048228
X-0004232Y-0034252
X-0009449Y-0028346
X-0018602Y-0029724
X-0023819Y-0025591
X-0025394Y-0043504
X-0035433Y-0056102
X-0035236Y-0063878
X-0047244Y-0070571
X-004439Y-0076279
X-0049705Y-0078347
X-0054429Y-0073622
X-0023819Y-0078642
X-0011614Y-0077658
X-0001673Y-0079232
X001063Y-007815
X0022047Y-008061
X0033858Y-0077067
X0037598Y-0081693
X0020079Y-0032677
X0025197Y-0027362
X001437Y-0022441
X0008858Y-002185
X-0002657Y-0014173
X-0011909Y-0014075
X0031496Y-0017717
X-0057677Y-0023327
X-0037795Y-0011909
Y0004134
X-0035039Y0007874
X-0045374Y0022539
X-0046752Y0026575
X-0036417Y0043307
X-003622Y0053248
X-003563Y0060433
X-0043898Y0067224
X-0058071Y0077165
X-0060532Y0081004
X-0038287Y010502
X-0031988Y0103839
X-0016143Y0102681
X-0006791Y0102854
X0003347
X0012894Y0080709
X0027264Y0081988
X003061Y0074016
X0035138Y0062894
X0020079Y0066535
X0017126Y0057579
X0014469Y0044587
X0005807Y0039272
X0005709Y0050394
X0002461Y0059842
X-0000787Y0068504
X-0010433Y0056595
X-0016732Y0047441
X-0016831Y0034843
X-0007579Y0041437
X0017618Y0033661
X0042815Y0037697
X0045079Y004065
X0044488Y0028051
X0038287Y0022933
X0039173Y0019685
X0042913Y0017323
X0057579Y0010433
X0035335Y-0009449
X0036024Y0093209
X0036713Y0101476
X-0019783Y0073228
T03
X0014665Y-0030709
X0040059Y0012795
T04
X0038583Y0058268
T05
X-0054921Y-005
Y-004
Y-003
X-0025276Y-0068721
X-0015276Y-0068701
X-0005276
X0014724
X0024724
X0054823Y-00465
Y-00365
Y-00165
Y-00065
X0054803Y00035
X0054882Y0027279
Y0037279
Y004728
Y0057279
X0054921Y0071102
Y0081102
X-0054921Y0067559
Y0057559
Y0047559
Y0037559
Y001378
Y0003779
Y-0006221
T07
X0048327Y-0069488
X-0048335Y0092421
M30
