G04*
G04 #@! TF.GenerationSoftware,Altium Limited,Altium Designer,20.1.8 (145)*
G04*
G04 Layer_Color=255*
%FSLAX25Y25*%
%MOIN*%
G70*
G04*
G04 #@! TF.SameCoordinates,0646C1E9-0440-4AAE-851A-CF3533030474*
G04*
G04*
G04 #@! TF.FilePolarity,Positive*
G04*
G01*
G75*
%ADD22C,0.06500*%
%ADD23R,0.06500X0.06500*%
%ADD24C,0.12598*%
%ADD25R,0.06500X0.06500*%
D22*
X54882Y37279D02*
D03*
Y27279D02*
D03*
Y47280D02*
D03*
Y57279D02*
D03*
X-54921Y-30000D02*
D03*
Y-50000D02*
D03*
Y-40000D02*
D03*
Y13780D02*
D03*
Y-6221D02*
D03*
Y3779D02*
D03*
X54921Y81102D02*
D03*
Y71102D02*
D03*
X-54921Y47559D02*
D03*
Y37559D02*
D03*
Y57559D02*
D03*
Y67559D02*
D03*
X-25276Y-68721D02*
D03*
X14724Y-68701D02*
D03*
X24724D02*
D03*
X-5276D02*
D03*
X-15276D02*
D03*
X54803Y3500D02*
D03*
X54823Y-36500D02*
D03*
Y-46500D02*
D03*
Y-16500D02*
D03*
Y-6500D02*
D03*
D23*
X54882Y17279D02*
D03*
X-54921Y-60000D02*
D03*
Y-16220D02*
D03*
X54921Y91102D02*
D03*
X-54921Y27559D02*
D03*
X54823Y-26500D02*
D03*
D24*
X48327Y-69488D02*
D03*
X-48335Y92421D02*
D03*
D25*
X4724Y-68701D02*
D03*
M02*
