G04*
G04 #@! TF.GenerationSoftware,Altium Limited,Altium Designer,20.1.8 (145)*
G04*
G04 Layer_Color=32896*
%FSLAX25Y25*%
%MOIN*%
G70*
G04*
G04 #@! TF.SameCoordinates,0646C1E9-0440-4AAE-851A-CF3533030474*
G04*
G04*
G04 #@! TF.FilePolarity,Positive*
G04*
G01*
G75*
%ADD10C,0.01000*%
%ADD12C,0.00500*%
%ADD30C,0.00020*%
G36*
X49562Y-56142D02*
X50542Y-56142D01*
X52463Y-56524D01*
X54273Y-57274D01*
X55902Y-58363D01*
X56595Y-59055D01*
Y-59055D01*
X59492Y-61953D01*
X60123Y-62742D01*
X61051Y-64534D01*
X61613Y-66474D01*
X61785Y-68485D01*
X61673Y-69488D01*
X61673Y-69488D01*
X54724D01*
X54654Y-69488D01*
X54517Y-69461D01*
X54387Y-69407D01*
X54270Y-69329D01*
X54220Y-69279D01*
Y-69279D01*
X48228Y-63287D01*
X48327Y-56142D01*
X49562Y-56142D01*
D02*
G37*
G36*
X42137Y-69516D02*
X42267Y-69569D01*
X42384Y-69647D01*
X42433Y-69697D01*
X42433D01*
X48425Y-75689D01*
X48327Y-82834D01*
X47091Y-82834D01*
X46112Y-82834D01*
X44190Y-82452D01*
X42380Y-81702D01*
X40752Y-80614D01*
X40059Y-79921D01*
X40059Y-79921D01*
X37161Y-77023D01*
X36531Y-76235D01*
X35602Y-74442D01*
X35041Y-72503D01*
X34869Y-70491D01*
X34981Y-69488D01*
X34981D01*
D01*
X41929Y-69488D01*
X41999Y-69488D01*
X42137Y-69516D01*
D02*
G37*
G36*
X-47099Y105767D02*
X-46120Y105767D01*
X-44198Y105385D01*
X-42388Y104635D01*
X-40760Y103547D01*
X-40067Y102854D01*
Y102854D01*
X-37169Y99956D01*
X-36539Y99168D01*
X-35610Y97375D01*
X-35049Y95436D01*
X-34877Y93424D01*
X-34989Y92421D01*
X-34989Y92421D01*
X-41937D01*
X-42007Y92421D01*
X-42145Y92449D01*
X-42275Y92502D01*
X-42391Y92580D01*
X-42441Y92630D01*
Y92630D01*
X-48433Y98622D01*
X-48335Y105767D01*
X-47099Y105767D01*
D02*
G37*
G36*
X-54524Y92394D02*
X-54395Y92340D01*
X-54278Y92262D01*
X-54228Y92212D01*
X-54228D01*
X-48236Y86221D01*
X-48335Y79075D01*
X-49570Y79075D01*
X-50550Y79075D01*
X-52471Y79457D01*
X-54281Y80207D01*
X-55910Y81296D01*
X-56602Y81988D01*
X-56602Y81988D01*
X-59500Y84886D01*
X-60131Y85675D01*
X-61059Y87467D01*
X-61620Y89407D01*
X-61792Y91418D01*
X-61681Y92421D01*
X-61681D01*
D01*
X-54732Y92421D01*
X-54662Y92421D01*
X-54524Y92394D01*
D02*
G37*
G36*
X28539Y87790D02*
X27916D01*
Y88341D01*
X28539D01*
Y87790D01*
D02*
G37*
G36*
X-15185Y87790D02*
X-15808D01*
Y88341D01*
X-15185D01*
Y87790D01*
D02*
G37*
G36*
X18776Y87413D02*
X18880Y87402D01*
X18978Y87386D01*
X19071Y87364D01*
X19158Y87331D01*
X19240Y87304D01*
X19311Y87271D01*
X19377Y87238D01*
X19437Y87200D01*
X19491Y87167D01*
X19535Y87140D01*
X19573Y87113D01*
X19601Y87085D01*
X19623Y87069D01*
X19633Y87058D01*
X19639Y87053D01*
X19704Y86981D01*
X19759Y86911D01*
X19808Y86834D01*
X19852Y86758D01*
X19884Y86676D01*
X19917Y86599D01*
X19961Y86457D01*
X19972Y86392D01*
X19983Y86332D01*
X19994Y86277D01*
X19999Y86228D01*
X20005Y86190D01*
Y86163D01*
Y86141D01*
Y86135D01*
X19999Y86026D01*
X19983Y85928D01*
X19961Y85830D01*
X19934Y85742D01*
X19901Y85660D01*
X19863Y85584D01*
X19819Y85513D01*
X19775Y85453D01*
X19737Y85393D01*
X19693Y85343D01*
X19655Y85305D01*
X19623Y85267D01*
X19595Y85240D01*
X19573Y85223D01*
X19557Y85212D01*
X19552Y85207D01*
X19486Y85163D01*
X19415Y85125D01*
X19262Y85065D01*
X19104Y85021D01*
X18951Y84994D01*
X18880Y84983D01*
X18814Y84972D01*
X18760Y84967D01*
X18705D01*
X18667Y84961D01*
X18607D01*
X18481Y84967D01*
X18367Y84972D01*
X18263Y84983D01*
X18159Y85000D01*
X18066Y85016D01*
X17985Y85032D01*
X17908Y85054D01*
X17837Y85076D01*
X17777Y85098D01*
X17728Y85120D01*
X17684Y85136D01*
X17646Y85152D01*
X17619Y85169D01*
X17597Y85180D01*
X17586Y85191D01*
X17580D01*
X17537Y85218D01*
X17499Y85251D01*
X17444Y85305D01*
X17400Y85360D01*
X17368Y85414D01*
X17351Y85453D01*
X17346Y85491D01*
X17340Y85513D01*
Y85518D01*
X17346Y85557D01*
X17351Y85595D01*
X17378Y85655D01*
X17395Y85677D01*
X17411Y85693D01*
X17417Y85698D01*
X17422Y85704D01*
X17449Y85731D01*
X17482Y85753D01*
X17515Y85764D01*
X17542Y85775D01*
X17564Y85780D01*
X17586Y85786D01*
X17602D01*
X17635Y85780D01*
X17673Y85769D01*
X17739Y85737D01*
X17766Y85715D01*
X17788Y85698D01*
X17799Y85688D01*
X17804Y85682D01*
X17848Y85649D01*
X17886Y85622D01*
X17957Y85578D01*
X17990Y85562D01*
X18012Y85551D01*
X18028Y85546D01*
X18034D01*
X18115Y85524D01*
X18203Y85507D01*
X18290Y85496D01*
X18378Y85491D01*
X18449Y85486D01*
X18509Y85480D01*
X18651D01*
X18738Y85486D01*
X18814Y85496D01*
X18885Y85507D01*
X18945Y85518D01*
X19005Y85535D01*
X19060Y85551D01*
X19104Y85567D01*
X19142Y85584D01*
X19180Y85600D01*
X19207Y85616D01*
X19229Y85627D01*
X19262Y85649D01*
X19273Y85655D01*
X19344Y85726D01*
X19399Y85802D01*
X19431Y85884D01*
X19459Y85961D01*
X19475Y86032D01*
X19480Y86086D01*
X19486Y86108D01*
Y86124D01*
Y86130D01*
Y86135D01*
X19475Y86255D01*
X19453Y86359D01*
X19415Y86452D01*
X19377Y86534D01*
X19339Y86594D01*
X19300Y86643D01*
X19278Y86670D01*
X19267Y86681D01*
X19180Y86752D01*
X19082Y86807D01*
X18978Y86845D01*
X18885Y86872D01*
X18803Y86889D01*
X18765Y86894D01*
X18733D01*
X18711Y86900D01*
X18672D01*
X18558Y86894D01*
X18454Y86883D01*
X18367Y86861D01*
X18290Y86840D01*
X18230Y86818D01*
X18187Y86796D01*
X18159Y86785D01*
X18148Y86779D01*
X18110Y86752D01*
X18077Y86714D01*
X18050Y86681D01*
X18034Y86648D01*
X18017Y86616D01*
X18006Y86588D01*
X18001Y86572D01*
Y86567D01*
X17990Y86517D01*
X17974Y86479D01*
X17963Y86446D01*
X17946Y86419D01*
X17935Y86403D01*
X17924Y86392D01*
X17919Y86381D01*
X17886Y86359D01*
X17859Y86348D01*
X17799Y86326D01*
X17772D01*
X17750Y86321D01*
X17733D01*
X17690Y86326D01*
X17657Y86332D01*
X17597Y86359D01*
X17575Y86375D01*
X17559Y86386D01*
X17553Y86392D01*
X17548Y86397D01*
X17520Y86430D01*
X17504Y86474D01*
X17482Y86561D01*
X17477Y86599D01*
X17471Y86632D01*
Y86659D01*
Y86665D01*
Y86998D01*
X17477Y87063D01*
X17482Y87118D01*
X17493Y87162D01*
X17509Y87200D01*
X17526Y87227D01*
X17537Y87249D01*
X17542Y87260D01*
X17548Y87265D01*
X17575Y87293D01*
X17608Y87315D01*
X17635Y87326D01*
X17668Y87336D01*
X17695Y87342D01*
X17711Y87347D01*
X17733D01*
X17772Y87342D01*
X17804Y87331D01*
X17864Y87304D01*
X17892Y87282D01*
X17908Y87271D01*
X17919Y87260D01*
X17924Y87255D01*
X18045Y87309D01*
X18105Y87331D01*
X18154Y87347D01*
X18203Y87358D01*
X18236Y87369D01*
X18258Y87375D01*
X18268D01*
X18410Y87402D01*
X18476Y87407D01*
X18536Y87413D01*
X18590Y87418D01*
X18667D01*
X18776Y87413D01*
D02*
G37*
G36*
X-24948Y87413D02*
X-24844Y87402D01*
X-24746Y87386D01*
X-24653Y87364D01*
X-24565Y87331D01*
X-24483Y87304D01*
X-24412Y87271D01*
X-24347Y87238D01*
X-24287Y87200D01*
X-24232Y87167D01*
X-24189Y87140D01*
X-24150Y87113D01*
X-24123Y87085D01*
X-24101Y87069D01*
X-24090Y87058D01*
X-24085Y87053D01*
X-24019Y86981D01*
X-23965Y86910D01*
X-23916Y86834D01*
X-23872Y86758D01*
X-23839Y86676D01*
X-23806Y86599D01*
X-23763Y86457D01*
X-23752Y86392D01*
X-23741Y86332D01*
X-23730Y86277D01*
X-23724Y86228D01*
X-23719Y86190D01*
Y86163D01*
Y86141D01*
Y86135D01*
X-23724Y86026D01*
X-23741Y85928D01*
X-23763Y85830D01*
X-23790Y85742D01*
X-23823Y85660D01*
X-23861Y85584D01*
X-23905Y85513D01*
X-23948Y85453D01*
X-23987Y85393D01*
X-24030Y85343D01*
X-24069Y85305D01*
X-24101Y85267D01*
X-24128Y85240D01*
X-24150Y85223D01*
X-24167Y85212D01*
X-24172Y85207D01*
X-24238Y85163D01*
X-24309Y85125D01*
X-24462Y85065D01*
X-24620Y85021D01*
X-24773Y84994D01*
X-24844Y84983D01*
X-24909Y84972D01*
X-24964Y84967D01*
X-25019D01*
X-25057Y84961D01*
X-25117D01*
X-25242Y84967D01*
X-25357Y84972D01*
X-25461Y84983D01*
X-25565Y85000D01*
X-25657Y85016D01*
X-25739Y85032D01*
X-25816Y85054D01*
X-25887Y85076D01*
X-25947Y85098D01*
X-25996Y85120D01*
X-26039Y85136D01*
X-26078Y85152D01*
X-26105Y85169D01*
X-26127Y85180D01*
X-26138Y85191D01*
X-26143D01*
X-26187Y85218D01*
X-26225Y85251D01*
X-26280Y85305D01*
X-26324Y85360D01*
X-26356Y85414D01*
X-26373Y85453D01*
X-26378Y85491D01*
X-26384Y85513D01*
Y85518D01*
X-26378Y85557D01*
X-26373Y85595D01*
X-26345Y85655D01*
X-26329Y85677D01*
X-26313Y85693D01*
X-26307Y85698D01*
X-26302Y85704D01*
X-26274Y85731D01*
X-26242Y85753D01*
X-26209Y85764D01*
X-26182Y85775D01*
X-26160Y85780D01*
X-26138Y85786D01*
X-26121D01*
X-26089Y85780D01*
X-26050Y85769D01*
X-25985Y85737D01*
X-25958Y85715D01*
X-25936Y85698D01*
X-25925Y85688D01*
X-25919Y85682D01*
X-25876Y85649D01*
X-25837Y85622D01*
X-25767Y85578D01*
X-25734Y85562D01*
X-25712Y85551D01*
X-25695Y85545D01*
X-25690D01*
X-25608Y85524D01*
X-25521Y85507D01*
X-25433Y85496D01*
X-25346Y85491D01*
X-25275Y85486D01*
X-25215Y85480D01*
X-25073D01*
X-24986Y85486D01*
X-24909Y85496D01*
X-24838Y85507D01*
X-24778Y85518D01*
X-24718Y85535D01*
X-24664Y85551D01*
X-24620Y85567D01*
X-24582Y85584D01*
X-24543Y85600D01*
X-24516Y85616D01*
X-24494Y85627D01*
X-24462Y85649D01*
X-24451Y85655D01*
X-24380Y85726D01*
X-24325Y85802D01*
X-24292Y85884D01*
X-24265Y85961D01*
X-24249Y86032D01*
X-24243Y86086D01*
X-24238Y86108D01*
Y86124D01*
Y86130D01*
Y86135D01*
X-24249Y86255D01*
X-24271Y86359D01*
X-24309Y86452D01*
X-24347Y86534D01*
X-24385Y86594D01*
X-24423Y86643D01*
X-24445Y86670D01*
X-24456Y86681D01*
X-24543Y86752D01*
X-24642Y86807D01*
X-24746Y86845D01*
X-24838Y86872D01*
X-24920Y86889D01*
X-24958Y86894D01*
X-24991D01*
X-25013Y86900D01*
X-25051D01*
X-25166Y86894D01*
X-25270Y86883D01*
X-25357Y86861D01*
X-25433Y86840D01*
X-25493Y86818D01*
X-25537Y86796D01*
X-25565Y86785D01*
X-25575Y86779D01*
X-25614Y86752D01*
X-25646Y86714D01*
X-25674Y86681D01*
X-25690Y86648D01*
X-25706Y86616D01*
X-25717Y86588D01*
X-25723Y86572D01*
Y86567D01*
X-25734Y86517D01*
X-25750Y86479D01*
X-25761Y86446D01*
X-25777Y86419D01*
X-25788Y86403D01*
X-25799Y86392D01*
X-25805Y86381D01*
X-25837Y86359D01*
X-25865Y86348D01*
X-25925Y86326D01*
X-25952D01*
X-25974Y86321D01*
X-25990D01*
X-26034Y86326D01*
X-26067Y86332D01*
X-26127Y86359D01*
X-26149Y86375D01*
X-26165Y86386D01*
X-26171Y86392D01*
X-26176Y86397D01*
X-26203Y86430D01*
X-26220Y86474D01*
X-26242Y86561D01*
X-26247Y86599D01*
X-26252Y86632D01*
Y86659D01*
Y86665D01*
Y86998D01*
X-26247Y87063D01*
X-26242Y87118D01*
X-26231Y87162D01*
X-26214Y87200D01*
X-26198Y87227D01*
X-26187Y87249D01*
X-26182Y87260D01*
X-26176Y87265D01*
X-26149Y87293D01*
X-26116Y87315D01*
X-26089Y87326D01*
X-26056Y87336D01*
X-26029Y87342D01*
X-26012Y87347D01*
X-25990D01*
X-25952Y87342D01*
X-25919Y87331D01*
X-25859Y87304D01*
X-25832Y87282D01*
X-25816Y87271D01*
X-25805Y87260D01*
X-25799Y87255D01*
X-25679Y87309D01*
X-25619Y87331D01*
X-25570Y87347D01*
X-25521Y87358D01*
X-25488Y87369D01*
X-25466Y87375D01*
X-25455D01*
X-25313Y87402D01*
X-25248Y87407D01*
X-25188Y87413D01*
X-25133Y87418D01*
X-25057D01*
X-24948Y87413D01*
D02*
G37*
G36*
X16822Y88336D02*
X16882Y88330D01*
X16931Y88319D01*
X16969Y88303D01*
X16996Y88287D01*
X17018Y88275D01*
X17029Y88270D01*
X17034Y88265D01*
X17062Y88237D01*
X17078Y88205D01*
X17100Y88144D01*
X17105Y88117D01*
X17111Y88101D01*
Y88085D01*
Y88079D01*
X17105Y88041D01*
X17100Y88003D01*
X17073Y87942D01*
X17056Y87921D01*
X17045Y87904D01*
X17040Y87899D01*
X17034Y87893D01*
X16996Y87871D01*
X16958Y87855D01*
X16865Y87833D01*
X16822Y87828D01*
X16789Y87822D01*
X16669D01*
Y85562D01*
X16734D01*
X16789Y85557D01*
X16832Y85546D01*
X16865Y85540D01*
X16892Y85529D01*
X16909Y85518D01*
X16914Y85513D01*
X16920D01*
X16952Y85475D01*
X16980Y85436D01*
X16996Y85404D01*
X17013Y85371D01*
X17018Y85343D01*
X17023Y85322D01*
Y85305D01*
Y85300D01*
X17018Y85262D01*
X17013Y85223D01*
X16985Y85163D01*
X16969Y85141D01*
X16958Y85125D01*
X16952Y85120D01*
X16947Y85114D01*
X16909Y85092D01*
X16871Y85076D01*
X16778Y85054D01*
X16734Y85049D01*
X16701Y85043D01*
X16150D01*
X16084Y85049D01*
X16024Y85054D01*
X15981Y85065D01*
X15942Y85081D01*
X15915Y85092D01*
X15893Y85103D01*
X15882Y85109D01*
X15877Y85114D01*
X15850Y85141D01*
X15828Y85174D01*
X15817Y85207D01*
X15806Y85234D01*
X15800Y85262D01*
X15795Y85283D01*
Y85294D01*
Y85300D01*
X15800Y85343D01*
X15811Y85382D01*
X15850Y85447D01*
X15871Y85475D01*
X15888Y85496D01*
X15899Y85507D01*
X15904Y85513D01*
X15932Y85529D01*
X15964Y85540D01*
X16046Y85557D01*
X16084Y85562D01*
X16150D01*
Y86539D01*
X16068Y86616D01*
X15997Y86681D01*
X15937Y86730D01*
X15888Y86769D01*
X15844Y86796D01*
X15817Y86818D01*
X15795Y86823D01*
X15789Y86829D01*
X15735Y86851D01*
X15686Y86872D01*
X15631Y86883D01*
X15587Y86889D01*
X15544Y86894D01*
X15511Y86900D01*
X15484D01*
X15396Y86894D01*
X15325Y86883D01*
X15265Y86861D01*
X15211Y86845D01*
X15173Y86823D01*
X15145Y86801D01*
X15129Y86790D01*
X15123Y86785D01*
X15091Y86752D01*
X15069Y86708D01*
X15052Y86665D01*
X15042Y86616D01*
X15036Y86572D01*
X15031Y86539D01*
Y86517D01*
Y86506D01*
Y85562D01*
X15096D01*
X15151Y85557D01*
X15194Y85546D01*
X15227Y85540D01*
X15254Y85529D01*
X15271Y85518D01*
X15276Y85513D01*
X15282D01*
X15315Y85475D01*
X15342Y85436D01*
X15358Y85404D01*
X15375Y85371D01*
X15380Y85343D01*
X15385Y85322D01*
Y85305D01*
Y85300D01*
X15380Y85262D01*
X15375Y85223D01*
X15347Y85163D01*
X15331Y85141D01*
X15320Y85125D01*
X15315Y85120D01*
X15309Y85114D01*
X15271Y85092D01*
X15233Y85076D01*
X15140Y85054D01*
X15096Y85049D01*
X15063Y85043D01*
X14512D01*
X14446Y85049D01*
X14386Y85054D01*
X14343Y85065D01*
X14304Y85081D01*
X14277Y85092D01*
X14255Y85103D01*
X14244Y85109D01*
X14239Y85114D01*
X14212Y85141D01*
X14190Y85174D01*
X14179Y85207D01*
X14168Y85234D01*
X14163Y85262D01*
X14157Y85283D01*
Y85294D01*
Y85300D01*
X14163Y85343D01*
X14173Y85382D01*
X14212Y85447D01*
X14233Y85475D01*
X14250Y85496D01*
X14261Y85507D01*
X14266Y85513D01*
X14293Y85529D01*
X14326Y85540D01*
X14408Y85557D01*
X14446Y85562D01*
X14512D01*
Y86539D01*
X14517Y86648D01*
X14534Y86741D01*
X14556Y86829D01*
X14583Y86900D01*
X14610Y86960D01*
X14632Y87003D01*
X14648Y87025D01*
X14654Y87036D01*
X14708Y87107D01*
X14769Y87167D01*
X14823Y87216D01*
X14878Y87255D01*
X14927Y87287D01*
X14965Y87309D01*
X14992Y87320D01*
X15003Y87326D01*
X15085Y87358D01*
X15167Y87380D01*
X15249Y87397D01*
X15325Y87407D01*
X15385Y87413D01*
X15440Y87418D01*
X15484D01*
X15609Y87413D01*
X15669Y87402D01*
X15719Y87397D01*
X15762Y87386D01*
X15800Y87375D01*
X15822Y87369D01*
X15828D01*
X15948Y87326D01*
X16003Y87304D01*
X16052Y87282D01*
X16090Y87260D01*
X16123Y87244D01*
X16144Y87233D01*
X16150Y87227D01*
Y88341D01*
X16756D01*
X16822Y88336D01*
D02*
G37*
G36*
X22101Y87418D02*
X22194Y87407D01*
X22282Y87391D01*
X22363Y87369D01*
X22445Y87342D01*
X22516Y87309D01*
X22587Y87282D01*
X22647Y87249D01*
X22702Y87211D01*
X22751Y87184D01*
X22795Y87151D01*
X22828Y87124D01*
X22855Y87102D01*
X22877Y87085D01*
X22887Y87074D01*
X22893Y87069D01*
X22953Y87003D01*
X23008Y86927D01*
X23057Y86856D01*
X23100Y86779D01*
X23133Y86708D01*
X23160Y86638D01*
X23204Y86496D01*
X23221Y86436D01*
X23232Y86375D01*
X23237Y86321D01*
X23242Y86277D01*
X23248Y86239D01*
Y86212D01*
Y86195D01*
Y86190D01*
X23242Y86092D01*
X23232Y86004D01*
X23215Y85917D01*
X23193Y85830D01*
X23166Y85753D01*
X23133Y85682D01*
X23106Y85616D01*
X23068Y85557D01*
X23035Y85502D01*
X23008Y85453D01*
X22975Y85409D01*
X22948Y85376D01*
X22926Y85349D01*
X22909Y85327D01*
X22898Y85316D01*
X22893Y85311D01*
X22822Y85251D01*
X22751Y85196D01*
X22675Y85147D01*
X22604Y85109D01*
X22527Y85076D01*
X22451Y85049D01*
X22314Y85005D01*
X22249Y84989D01*
X22189Y84978D01*
X22134Y84972D01*
X22090Y84967D01*
X22052Y84961D01*
X22003D01*
X21867Y84972D01*
X21806Y84978D01*
X21752Y84989D01*
X21703Y85000D01*
X21670Y85005D01*
X21643Y85016D01*
X21637D01*
X21506Y85065D01*
X21446Y85092D01*
X21392Y85120D01*
X21348Y85141D01*
X21310Y85163D01*
X21288Y85174D01*
X21282Y85180D01*
Y84934D01*
X21288Y84863D01*
X21304Y84798D01*
X21326Y84743D01*
X21348Y84699D01*
X21370Y84661D01*
X21392Y84628D01*
X21408Y84612D01*
X21413Y84606D01*
X21468Y84563D01*
X21528Y84530D01*
X21588Y84508D01*
X21648Y84492D01*
X21703Y84481D01*
X21746Y84475D01*
X22363D01*
X22429Y84470D01*
X22483Y84465D01*
X22527Y84453D01*
X22565Y84443D01*
X22593Y84426D01*
X22614Y84415D01*
X22625Y84410D01*
X22631Y84404D01*
X22658Y84377D01*
X22675Y84344D01*
X22696Y84284D01*
X22702Y84257D01*
X22707Y84241D01*
Y84224D01*
Y84219D01*
X22702Y84181D01*
X22696Y84142D01*
X22669Y84082D01*
X22653Y84060D01*
X22642Y84044D01*
X22636Y84039D01*
X22631Y84033D01*
X22598Y84006D01*
X22555Y83989D01*
X22467Y83968D01*
X22429Y83962D01*
X22396Y83957D01*
X21774D01*
X21665Y83962D01*
X21561Y83978D01*
X21473Y84006D01*
X21392Y84033D01*
X21326Y84060D01*
X21282Y84088D01*
X21249Y84104D01*
X21239Y84110D01*
X21157Y84170D01*
X21080Y84230D01*
X21020Y84284D01*
X20971Y84344D01*
X20933Y84394D01*
X20906Y84432D01*
X20889Y84453D01*
X20884Y84465D01*
X20845Y84541D01*
X20813Y84623D01*
X20791Y84705D01*
X20780Y84776D01*
X20769Y84841D01*
X20764Y84896D01*
Y84929D01*
Y84934D01*
Y84939D01*
Y86834D01*
X20676D01*
X20611Y86840D01*
X20551Y86845D01*
X20507Y86856D01*
X20469Y86872D01*
X20441Y86883D01*
X20420Y86894D01*
X20409Y86900D01*
X20403Y86905D01*
X20376Y86932D01*
X20354Y86965D01*
X20343Y86998D01*
X20332Y87025D01*
X20327Y87053D01*
X20321Y87074D01*
Y87085D01*
Y87091D01*
X20327Y87134D01*
X20332Y87167D01*
X20359Y87227D01*
X20376Y87249D01*
X20392Y87265D01*
X20398Y87271D01*
X20403Y87276D01*
X20436Y87304D01*
X20480Y87320D01*
X20572Y87342D01*
X20611Y87347D01*
X20643Y87353D01*
X21282D01*
Y87200D01*
X21402Y87271D01*
X21463Y87298D01*
X21517Y87326D01*
X21561Y87342D01*
X21594Y87353D01*
X21615Y87364D01*
X21626D01*
X21692Y87386D01*
X21763Y87397D01*
X21823Y87407D01*
X21883Y87418D01*
X21932D01*
X21970Y87424D01*
X22003D01*
X22101Y87418D01*
D02*
G37*
G36*
X-6007Y87418D02*
X-5914Y87407D01*
X-5827Y87391D01*
X-5745Y87369D01*
X-5663Y87342D01*
X-5592Y87309D01*
X-5521Y87282D01*
X-5461Y87249D01*
X-5406Y87211D01*
X-5357Y87183D01*
X-5313Y87151D01*
X-5281Y87124D01*
X-5253Y87102D01*
X-5232Y87085D01*
X-5221Y87074D01*
X-5215Y87069D01*
X-5155Y87003D01*
X-5100Y86927D01*
X-5051Y86856D01*
X-5008Y86779D01*
X-4975Y86708D01*
X-4947Y86638D01*
X-4904Y86496D01*
X-4888Y86436D01*
X-4877Y86375D01*
X-4871Y86321D01*
X-4866Y86277D01*
X-4860Y86239D01*
Y86212D01*
Y86195D01*
Y86190D01*
X-4866Y86092D01*
X-4877Y86004D01*
X-4893Y85917D01*
X-4915Y85830D01*
X-4942Y85753D01*
X-4975Y85682D01*
X-5002Y85616D01*
X-5040Y85557D01*
X-5073Y85502D01*
X-5100Y85453D01*
X-5133Y85409D01*
X-5161Y85376D01*
X-5182Y85349D01*
X-5199Y85327D01*
X-5210Y85316D01*
X-5215Y85311D01*
X-5286Y85251D01*
X-5357Y85196D01*
X-5434Y85147D01*
X-5505Y85109D01*
X-5581Y85076D01*
X-5657Y85049D01*
X-5794Y85005D01*
X-5859Y84989D01*
X-5919Y84978D01*
X-5974Y84972D01*
X-6018Y84967D01*
X-6056Y84961D01*
X-6105D01*
X-6242Y84972D01*
X-6302Y84978D01*
X-6356Y84989D01*
X-6405Y85000D01*
X-6438Y85005D01*
X-6465Y85016D01*
X-6471D01*
X-6602Y85065D01*
X-6662Y85092D01*
X-6717Y85120D01*
X-6760Y85141D01*
X-6798Y85163D01*
X-6820Y85174D01*
X-6826Y85180D01*
Y84934D01*
X-6820Y84863D01*
X-6804Y84798D01*
X-6782Y84743D01*
X-6760Y84699D01*
X-6738Y84661D01*
X-6717Y84628D01*
X-6700Y84612D01*
X-6695Y84606D01*
X-6640Y84563D01*
X-6580Y84530D01*
X-6520Y84508D01*
X-6460Y84492D01*
X-6405Y84481D01*
X-6362Y84475D01*
X-5745D01*
X-5679Y84470D01*
X-5625Y84465D01*
X-5581Y84453D01*
X-5543Y84443D01*
X-5515Y84426D01*
X-5494Y84415D01*
X-5483Y84410D01*
X-5477Y84404D01*
X-5450Y84377D01*
X-5434Y84344D01*
X-5412Y84284D01*
X-5406Y84257D01*
X-5401Y84241D01*
Y84224D01*
Y84219D01*
X-5406Y84180D01*
X-5412Y84142D01*
X-5439Y84082D01*
X-5455Y84060D01*
X-5466Y84044D01*
X-5472Y84039D01*
X-5477Y84033D01*
X-5510Y84006D01*
X-5554Y83989D01*
X-5641Y83968D01*
X-5679Y83962D01*
X-5712Y83957D01*
X-6334D01*
X-6444Y83962D01*
X-6547Y83978D01*
X-6635Y84006D01*
X-6717Y84033D01*
X-6782Y84060D01*
X-6826Y84088D01*
X-6859Y84104D01*
X-6870Y84110D01*
X-6951Y84170D01*
X-7028Y84230D01*
X-7088Y84284D01*
X-7137Y84344D01*
X-7175Y84394D01*
X-7203Y84432D01*
X-7219Y84453D01*
X-7224Y84465D01*
X-7263Y84541D01*
X-7295Y84623D01*
X-7317Y84705D01*
X-7328Y84776D01*
X-7339Y84841D01*
X-7344Y84896D01*
Y84929D01*
Y84934D01*
Y84939D01*
Y86834D01*
X-7432D01*
X-7497Y86840D01*
X-7557Y86845D01*
X-7601Y86856D01*
X-7639Y86872D01*
X-7667Y86883D01*
X-7688Y86894D01*
X-7699Y86900D01*
X-7705Y86905D01*
X-7732Y86932D01*
X-7741Y86946D01*
X-7749Y86932D01*
X-7765Y86916D01*
X-7770Y86910D01*
X-7776Y86905D01*
X-7809Y86883D01*
X-7852Y86867D01*
X-7940Y86845D01*
X-7983Y86840D01*
X-8016Y86834D01*
X-8049D01*
Y85562D01*
X-7983Y85557D01*
X-7923Y85551D01*
X-7874Y85540D01*
X-7841Y85524D01*
X-7809Y85507D01*
X-7792Y85496D01*
X-7781Y85491D01*
X-7776Y85486D01*
X-7749Y85458D01*
X-7727Y85425D01*
X-7716Y85398D01*
X-7705Y85365D01*
X-7699Y85338D01*
X-7694Y85322D01*
Y85305D01*
Y85300D01*
X-7699Y85262D01*
X-7705Y85223D01*
X-7738Y85163D01*
X-7749Y85141D01*
X-7765Y85125D01*
X-7770Y85120D01*
X-7776Y85114D01*
X-7809Y85092D01*
X-7852Y85076D01*
X-7940Y85054D01*
X-7983Y85049D01*
X-8016Y85043D01*
X-8568D01*
X-8633Y85049D01*
X-8693Y85054D01*
X-8737Y85065D01*
X-8775Y85081D01*
X-8802Y85092D01*
X-8824Y85103D01*
X-8835Y85109D01*
X-8840Y85114D01*
X-8868Y85141D01*
X-8890Y85174D01*
X-8901Y85207D01*
X-8912Y85234D01*
X-8917Y85262D01*
X-8922Y85283D01*
Y85294D01*
Y85300D01*
X-8917Y85343D01*
X-8912Y85376D01*
X-8884Y85436D01*
X-8868Y85458D01*
X-8851Y85475D01*
X-8846Y85480D01*
X-8840Y85486D01*
X-8808Y85513D01*
X-8764Y85529D01*
X-8671Y85551D01*
X-8633Y85557D01*
X-8600Y85562D01*
X-8568D01*
Y86610D01*
X-8611Y86670D01*
X-8649Y86719D01*
X-8688Y86758D01*
X-8715Y86790D01*
X-8742Y86812D01*
X-8759Y86829D01*
X-8770Y86840D01*
X-8775D01*
X-8808Y86861D01*
X-8846Y86872D01*
X-8901Y86894D01*
X-8928D01*
X-8944Y86900D01*
X-8961D01*
X-9021Y86894D01*
X-9059Y86878D01*
X-9086Y86856D01*
X-9092Y86851D01*
X-9108Y86829D01*
X-9119Y86807D01*
X-9135Y86752D01*
X-9141Y86725D01*
Y86703D01*
Y86692D01*
Y86687D01*
Y85043D01*
X-9659D01*
X-9725Y85049D01*
X-9785Y85054D01*
X-9829Y85065D01*
X-9867Y85081D01*
X-9894Y85092D01*
X-9916Y85103D01*
X-9927Y85109D01*
X-9933Y85114D01*
X-9960Y85141D01*
X-9982Y85174D01*
X-9993Y85207D01*
X-10003Y85234D01*
X-10009Y85262D01*
X-10014Y85283D01*
Y85294D01*
Y85300D01*
X-10009Y85343D01*
X-10003Y85376D01*
X-9976Y85436D01*
X-9960Y85458D01*
X-9943Y85475D01*
X-9938Y85480D01*
X-9933Y85486D01*
X-9900Y85513D01*
X-9856Y85529D01*
X-9763Y85551D01*
X-9725Y85557D01*
X-9692Y85562D01*
X-9659D01*
Y86610D01*
X-9709Y86670D01*
X-9752Y86719D01*
X-9791Y86763D01*
X-9823Y86796D01*
X-9845Y86823D01*
X-9867Y86840D01*
X-9878Y86845D01*
X-9883Y86851D01*
X-9938Y86878D01*
X-9993Y86894D01*
X-10014Y86900D01*
X-10042D01*
X-10102Y86894D01*
X-10146Y86878D01*
X-10173Y86856D01*
X-10178Y86851D01*
X-10195Y86829D01*
X-10205Y86807D01*
X-10216Y86752D01*
X-10222Y86725D01*
Y86708D01*
Y86692D01*
Y86687D01*
Y85043D01*
X-10741D01*
X-10806Y85049D01*
X-10866Y85054D01*
X-10910Y85065D01*
X-10948Y85081D01*
X-10975Y85092D01*
X-10997Y85103D01*
X-11008Y85109D01*
X-11014Y85114D01*
X-11041Y85141D01*
X-11063Y85174D01*
X-11074Y85207D01*
X-11085Y85234D01*
X-11090Y85262D01*
X-11095Y85283D01*
Y85294D01*
Y85300D01*
X-11090Y85343D01*
X-11085Y85376D01*
X-11057Y85436D01*
X-11041Y85458D01*
X-11024Y85475D01*
X-11019Y85480D01*
X-11014Y85486D01*
X-10981Y85513D01*
X-10937Y85529D01*
X-10844Y85551D01*
X-10806Y85557D01*
X-10773Y85562D01*
X-10741D01*
Y86725D01*
Y86785D01*
X-10730Y86845D01*
X-10702Y86949D01*
X-10664Y87042D01*
X-10621Y87118D01*
X-10577Y87178D01*
X-10539Y87222D01*
X-10511Y87249D01*
X-10506Y87260D01*
X-10500D01*
X-10429Y87315D01*
X-10353Y87353D01*
X-10271Y87380D01*
X-10200Y87397D01*
X-10135Y87413D01*
X-10080Y87418D01*
X-10031D01*
X-9927Y87407D01*
X-9878Y87402D01*
X-9834Y87391D01*
X-9796Y87380D01*
X-9769Y87375D01*
X-9752Y87364D01*
X-9747D01*
X-9649Y87315D01*
X-9600Y87287D01*
X-9561Y87260D01*
X-9523Y87238D01*
X-9496Y87216D01*
X-9479Y87205D01*
X-9474Y87200D01*
X-9398Y87271D01*
X-9326Y87326D01*
X-9299Y87342D01*
X-9277Y87353D01*
X-9261Y87364D01*
X-9256D01*
X-9174Y87397D01*
X-9103Y87413D01*
X-9075Y87418D01*
X-9032D01*
X-8939Y87413D01*
X-8895Y87402D01*
X-8862Y87397D01*
X-8830Y87386D01*
X-8808Y87375D01*
X-8797Y87369D01*
X-8791D01*
X-8753Y87347D01*
X-8715Y87326D01*
X-8644Y87271D01*
X-8611Y87244D01*
X-8589Y87222D01*
X-8573Y87205D01*
X-8568Y87200D01*
Y87353D01*
X-8049D01*
X-7983Y87347D01*
X-7923Y87342D01*
X-7874Y87331D01*
X-7841Y87315D01*
X-7809Y87298D01*
X-7792Y87287D01*
X-7781Y87282D01*
X-7776Y87276D01*
X-7749Y87249D01*
X-7741Y87238D01*
X-7732Y87249D01*
X-7716Y87265D01*
X-7710Y87271D01*
X-7705Y87276D01*
X-7672Y87304D01*
X-7628Y87320D01*
X-7536Y87342D01*
X-7497Y87347D01*
X-7465Y87353D01*
X-6826D01*
Y87200D01*
X-6706Y87271D01*
X-6646Y87298D01*
X-6591Y87326D01*
X-6547Y87342D01*
X-6515Y87353D01*
X-6493Y87364D01*
X-6482D01*
X-6416Y87386D01*
X-6345Y87397D01*
X-6285Y87407D01*
X-6225Y87418D01*
X-6176D01*
X-6138Y87424D01*
X-6105D01*
X-6007Y87418D01*
D02*
G37*
G36*
X-30801Y87413D02*
X-30757Y87402D01*
X-30724Y87397D01*
X-30691Y87386D01*
X-30670Y87375D01*
X-30659Y87369D01*
X-30653D01*
X-30615Y87347D01*
X-30577Y87326D01*
X-30506Y87271D01*
X-30473Y87244D01*
X-30451Y87222D01*
X-30435Y87205D01*
X-30429Y87200D01*
Y87353D01*
X-29911D01*
X-29845Y87347D01*
X-29785Y87342D01*
X-29736Y87331D01*
X-29703Y87315D01*
X-29670Y87298D01*
X-29654Y87287D01*
X-29643Y87282D01*
X-29638Y87276D01*
X-29610Y87249D01*
X-29588Y87216D01*
X-29578Y87189D01*
X-29567Y87156D01*
X-29561Y87129D01*
X-29556Y87113D01*
Y87096D01*
Y87091D01*
X-29561Y87053D01*
X-29567Y87014D01*
X-29599Y86954D01*
X-29610Y86932D01*
X-29627Y86916D01*
X-29632Y86910D01*
X-29638Y86905D01*
X-29670Y86883D01*
X-29714Y86867D01*
X-29801Y86845D01*
X-29845Y86840D01*
X-29878Y86834D01*
X-29911D01*
Y85562D01*
X-29845Y85557D01*
X-29785Y85551D01*
X-29736Y85540D01*
X-29703Y85524D01*
X-29670Y85507D01*
X-29654Y85496D01*
X-29643Y85491D01*
X-29638Y85486D01*
X-29610Y85458D01*
X-29588Y85425D01*
X-29578Y85398D01*
X-29567Y85365D01*
X-29561Y85338D01*
X-29556Y85322D01*
Y85305D01*
Y85300D01*
X-29561Y85262D01*
X-29567Y85223D01*
X-29599Y85163D01*
X-29610Y85141D01*
X-29627Y85125D01*
X-29632Y85120D01*
X-29638Y85114D01*
X-29670Y85092D01*
X-29714Y85076D01*
X-29801Y85054D01*
X-29845Y85049D01*
X-29878Y85043D01*
X-30429D01*
X-30495Y85049D01*
X-30555Y85054D01*
X-30599Y85065D01*
X-30637Y85081D01*
X-30664Y85092D01*
X-30686Y85103D01*
X-30697Y85109D01*
X-30702Y85114D01*
X-30730Y85141D01*
X-30751Y85174D01*
X-30762Y85207D01*
X-30773Y85234D01*
X-30779Y85262D01*
X-30784Y85283D01*
Y85294D01*
Y85300D01*
X-30779Y85343D01*
X-30773Y85376D01*
X-30746Y85436D01*
X-30730Y85458D01*
X-30713Y85475D01*
X-30708Y85480D01*
X-30702Y85486D01*
X-30670Y85513D01*
X-30626Y85529D01*
X-30533Y85551D01*
X-30495Y85557D01*
X-30462Y85562D01*
X-30429D01*
Y86610D01*
X-30473Y86670D01*
X-30511Y86719D01*
X-30549Y86758D01*
X-30577Y86790D01*
X-30604Y86812D01*
X-30621Y86829D01*
X-30631Y86840D01*
X-30637D01*
X-30670Y86861D01*
X-30708Y86872D01*
X-30762Y86894D01*
X-30790D01*
X-30806Y86900D01*
X-30823D01*
X-30882Y86894D01*
X-30921Y86878D01*
X-30948Y86856D01*
X-30953Y86851D01*
X-30970Y86829D01*
X-30981Y86807D01*
X-30997Y86752D01*
X-31003Y86725D01*
Y86703D01*
Y86692D01*
Y86687D01*
Y85043D01*
X-31521D01*
X-31587Y85049D01*
X-31647Y85054D01*
X-31691Y85065D01*
X-31729Y85081D01*
X-31756Y85092D01*
X-31778Y85103D01*
X-31789Y85109D01*
X-31794Y85114D01*
X-31822Y85141D01*
X-31844Y85174D01*
X-31854Y85207D01*
X-31865Y85234D01*
X-31871Y85262D01*
X-31876Y85283D01*
Y85294D01*
Y85300D01*
X-31871Y85343D01*
X-31865Y85376D01*
X-31838Y85436D01*
X-31822Y85458D01*
X-31805Y85475D01*
X-31800Y85480D01*
X-31794Y85486D01*
X-31762Y85513D01*
X-31718Y85529D01*
X-31625Y85551D01*
X-31587Y85557D01*
X-31554Y85562D01*
X-31521D01*
Y86610D01*
X-31571Y86670D01*
X-31614Y86719D01*
X-31652Y86763D01*
X-31685Y86796D01*
X-31707Y86823D01*
X-31729Y86840D01*
X-31740Y86845D01*
X-31745Y86851D01*
X-31800Y86878D01*
X-31854Y86894D01*
X-31876Y86900D01*
X-31904D01*
X-31964Y86894D01*
X-32007Y86878D01*
X-32035Y86856D01*
X-32040Y86851D01*
X-32056Y86829D01*
X-32067Y86807D01*
X-32078Y86752D01*
X-32084Y86725D01*
Y86708D01*
Y86692D01*
Y86687D01*
Y85043D01*
X-32602D01*
X-32668Y85049D01*
X-32728Y85054D01*
X-32772Y85065D01*
X-32810Y85081D01*
X-32837Y85092D01*
X-32859Y85103D01*
X-32870Y85109D01*
X-32875Y85114D01*
X-32903Y85141D01*
X-32925Y85174D01*
X-32936Y85207D01*
X-32946Y85234D01*
X-32952Y85262D01*
X-32957Y85283D01*
Y85294D01*
Y85300D01*
X-32952Y85343D01*
X-32946Y85376D01*
X-32919Y85436D01*
X-32903Y85458D01*
X-32886Y85475D01*
X-32881Y85480D01*
X-32875Y85486D01*
X-32843Y85513D01*
X-32799Y85529D01*
X-32706Y85551D01*
X-32668Y85557D01*
X-32635Y85562D01*
X-32602D01*
Y86725D01*
Y86785D01*
X-32592Y86845D01*
X-32564Y86949D01*
X-32526Y87042D01*
X-32482Y87118D01*
X-32439Y87178D01*
X-32400Y87222D01*
X-32373Y87249D01*
X-32368Y87260D01*
X-32362D01*
X-32291Y87315D01*
X-32215Y87353D01*
X-32133Y87380D01*
X-32062Y87397D01*
X-31996Y87413D01*
X-31942Y87418D01*
X-31893D01*
X-31789Y87407D01*
X-31740Y87402D01*
X-31696Y87391D01*
X-31658Y87380D01*
X-31631Y87375D01*
X-31614Y87364D01*
X-31609D01*
X-31510Y87315D01*
X-31461Y87287D01*
X-31423Y87260D01*
X-31385Y87238D01*
X-31358Y87216D01*
X-31341Y87205D01*
X-31336Y87200D01*
X-31259Y87271D01*
X-31188Y87326D01*
X-31161Y87342D01*
X-31139Y87353D01*
X-31123Y87364D01*
X-31117D01*
X-31035Y87397D01*
X-30964Y87413D01*
X-30937Y87418D01*
X-30893D01*
X-30801Y87413D01*
D02*
G37*
G36*
X12645Y87413D02*
X12705Y87407D01*
X12765Y87402D01*
X12814Y87397D01*
X12852Y87391D01*
X12874Y87386D01*
X12885D01*
X13032Y87358D01*
X13098Y87342D01*
X13158Y87331D01*
X13207Y87320D01*
X13245Y87309D01*
X13267Y87298D01*
X13278D01*
X13327Y87282D01*
X13365Y87271D01*
X13398Y87260D01*
X13425Y87249D01*
X13447Y87238D01*
X13458Y87233D01*
X13469Y87227D01*
X13496Y87205D01*
X13518Y87178D01*
X13534Y87162D01*
X13540Y87151D01*
X13551Y87113D01*
X13556Y87074D01*
X13562Y87047D01*
Y87042D01*
Y87036D01*
X13556Y86992D01*
X13551Y86960D01*
X13524Y86900D01*
X13513Y86878D01*
X13502Y86861D01*
X13496Y86851D01*
X13491Y86845D01*
X13464Y86823D01*
X13431Y86807D01*
X13376Y86785D01*
X13354Y86779D01*
X13332Y86774D01*
X13283D01*
X13251Y86779D01*
X13180Y86790D01*
X13152Y86796D01*
X13125Y86801D01*
X13109Y86807D01*
X13103D01*
X12972Y86840D01*
X12852Y86861D01*
X12748Y86878D01*
X12661Y86889D01*
X12595Y86894D01*
X12546Y86900D01*
X12503D01*
X12404Y86894D01*
X12322Y86889D01*
X12257Y86878D01*
X12202Y86861D01*
X12164Y86845D01*
X12142Y86834D01*
X12126Y86829D01*
X12120Y86823D01*
X12088Y86790D01*
X12060Y86763D01*
X12044Y86725D01*
X12028Y86698D01*
X12022Y86670D01*
X12017Y86648D01*
Y86632D01*
Y86627D01*
Y86501D01*
X12131Y86517D01*
X12235Y86534D01*
X12328Y86545D01*
X12410Y86550D01*
X12475Y86556D01*
X12568D01*
X12677Y86550D01*
X12776Y86545D01*
X12874Y86528D01*
X12961Y86512D01*
X13043Y86490D01*
X13120Y86468D01*
X13191Y86441D01*
X13251Y86414D01*
X13305Y86386D01*
X13354Y86359D01*
X13398Y86337D01*
X13431Y86315D01*
X13458Y86299D01*
X13475Y86283D01*
X13485Y86277D01*
X13491Y86272D01*
X13551Y86217D01*
X13600Y86168D01*
X13644Y86113D01*
X13682Y86059D01*
X13715Y86010D01*
X13742Y85961D01*
X13780Y85868D01*
X13808Y85786D01*
X13818Y85726D01*
X13824Y85704D01*
Y85688D01*
Y85677D01*
Y85671D01*
X13818Y85622D01*
X13813Y85573D01*
X13780Y85480D01*
X13742Y85398D01*
X13693Y85322D01*
X13644Y85262D01*
X13600Y85218D01*
X13573Y85191D01*
X13567Y85180D01*
X13562D01*
X13458Y85109D01*
X13343Y85054D01*
X13234Y85016D01*
X13125Y84989D01*
X13032Y84972D01*
X12989Y84967D01*
X12956D01*
X12923Y84961D01*
X12885D01*
X12732Y84967D01*
X12661Y84978D01*
X12595Y84989D01*
X12535Y84994D01*
X12492Y85005D01*
X12464Y85010D01*
X12454D01*
X12366Y85032D01*
X12284Y85054D01*
X12208Y85081D01*
X12142Y85103D01*
X12093Y85131D01*
X12049Y85147D01*
X12028Y85158D01*
X12017Y85163D01*
Y85043D01*
X11411D01*
X11345Y85049D01*
X11285Y85054D01*
X11241Y85065D01*
X11203Y85081D01*
X11176Y85092D01*
X11154Y85103D01*
X11143Y85109D01*
X11138Y85114D01*
X11110Y85141D01*
X11089Y85174D01*
X11078Y85207D01*
X11067Y85234D01*
X11061Y85262D01*
X11056Y85283D01*
Y85294D01*
Y85300D01*
X11061Y85343D01*
X11067Y85376D01*
X11094Y85436D01*
X11110Y85458D01*
X11127Y85475D01*
X11132Y85480D01*
X11138Y85486D01*
X11170Y85513D01*
X11214Y85529D01*
X11307Y85551D01*
X11345Y85557D01*
X11378Y85562D01*
X11498D01*
Y86632D01*
X11503Y86698D01*
X11509Y86763D01*
X11542Y86878D01*
X11585Y86976D01*
X11635Y87058D01*
X11684Y87118D01*
X11727Y87167D01*
X11760Y87195D01*
X11766Y87205D01*
X11771D01*
X11880Y87276D01*
X12000Y87331D01*
X12126Y87369D01*
X12246Y87391D01*
X12355Y87407D01*
X12399Y87413D01*
X12437D01*
X12475Y87418D01*
X12519D01*
X12645Y87413D01*
D02*
G37*
G36*
X-12340Y87413D02*
X-12280Y87407D01*
X-12220Y87402D01*
X-12171Y87397D01*
X-12133Y87391D01*
X-12111Y87386D01*
X-12100D01*
X-11953Y87358D01*
X-11887Y87342D01*
X-11827Y87331D01*
X-11778Y87320D01*
X-11740Y87309D01*
X-11718Y87298D01*
X-11707D01*
X-11658Y87282D01*
X-11620Y87271D01*
X-11587Y87260D01*
X-11560Y87249D01*
X-11538Y87238D01*
X-11527Y87233D01*
X-11516Y87227D01*
X-11489Y87205D01*
X-11467Y87178D01*
X-11450Y87162D01*
X-11445Y87151D01*
X-11434Y87113D01*
X-11429Y87074D01*
X-11423Y87047D01*
Y87042D01*
Y87036D01*
X-11429Y86992D01*
X-11434Y86960D01*
X-11461Y86900D01*
X-11472Y86878D01*
X-11483Y86861D01*
X-11489Y86851D01*
X-11494Y86845D01*
X-11521Y86823D01*
X-11554Y86807D01*
X-11609Y86785D01*
X-11631Y86779D01*
X-11652Y86774D01*
X-11702D01*
X-11734Y86779D01*
X-11805Y86790D01*
X-11833Y86796D01*
X-11860Y86801D01*
X-11876Y86807D01*
X-11882D01*
X-12013Y86840D01*
X-12133Y86861D01*
X-12237Y86878D01*
X-12324Y86889D01*
X-12389Y86894D01*
X-12439Y86900D01*
X-12482D01*
X-12581Y86894D01*
X-12663Y86889D01*
X-12728Y86878D01*
X-12783Y86861D01*
X-12821Y86845D01*
X-12843Y86834D01*
X-12859Y86829D01*
X-12865Y86823D01*
X-12897Y86790D01*
X-12925Y86763D01*
X-12941Y86725D01*
X-12957Y86698D01*
X-12963Y86670D01*
X-12968Y86648D01*
Y86632D01*
Y86627D01*
Y86501D01*
X-12854Y86517D01*
X-12750Y86534D01*
X-12657Y86545D01*
X-12575Y86550D01*
X-12510Y86556D01*
X-12417D01*
X-12308Y86550D01*
X-12209Y86545D01*
X-12111Y86528D01*
X-12024Y86512D01*
X-11942Y86490D01*
X-11865Y86468D01*
X-11794Y86441D01*
X-11734Y86414D01*
X-11680Y86386D01*
X-11631Y86359D01*
X-11587Y86337D01*
X-11554Y86315D01*
X-11527Y86299D01*
X-11511Y86283D01*
X-11500Y86277D01*
X-11494Y86272D01*
X-11434Y86217D01*
X-11385Y86168D01*
X-11341Y86113D01*
X-11303Y86059D01*
X-11270Y86010D01*
X-11243Y85961D01*
X-11205Y85868D01*
X-11177Y85786D01*
X-11167Y85726D01*
X-11161Y85704D01*
Y85688D01*
Y85677D01*
Y85671D01*
X-11167Y85622D01*
X-11172Y85573D01*
X-11205Y85480D01*
X-11243Y85398D01*
X-11292Y85322D01*
X-11341Y85262D01*
X-11385Y85218D01*
X-11412Y85191D01*
X-11418Y85180D01*
X-11423D01*
X-11527Y85109D01*
X-11642Y85054D01*
X-11751Y85016D01*
X-11860Y84989D01*
X-11953Y84972D01*
X-11996Y84967D01*
X-12029D01*
X-12062Y84961D01*
X-12100D01*
X-12253Y84967D01*
X-12324Y84978D01*
X-12389Y84989D01*
X-12450Y84994D01*
X-12493Y85005D01*
X-12521Y85010D01*
X-12531D01*
X-12619Y85032D01*
X-12701Y85054D01*
X-12777Y85081D01*
X-12843Y85103D01*
X-12892Y85131D01*
X-12935Y85147D01*
X-12957Y85158D01*
X-12968Y85163D01*
Y85043D01*
X-13574D01*
X-13640Y85049D01*
X-13700Y85054D01*
X-13744Y85065D01*
X-13782Y85081D01*
X-13809Y85092D01*
X-13831Y85103D01*
X-13842Y85109D01*
X-13847Y85114D01*
X-13875Y85141D01*
X-13896Y85174D01*
X-13907Y85207D01*
X-13918Y85234D01*
X-13924Y85262D01*
X-13929Y85283D01*
Y85294D01*
Y85300D01*
X-13924Y85343D01*
X-13918Y85376D01*
X-13891Y85436D01*
X-13875Y85458D01*
X-13858Y85475D01*
X-13853Y85480D01*
X-13847Y85486D01*
X-13815Y85513D01*
X-13771Y85529D01*
X-13678Y85551D01*
X-13640Y85557D01*
X-13607Y85562D01*
X-13487D01*
Y86632D01*
X-13482Y86698D01*
X-13476Y86763D01*
X-13443Y86878D01*
X-13400Y86976D01*
X-13351Y87058D01*
X-13301Y87118D01*
X-13258Y87167D01*
X-13225Y87195D01*
X-13219Y87205D01*
X-13214D01*
X-13105Y87276D01*
X-12985Y87331D01*
X-12859Y87369D01*
X-12739Y87391D01*
X-12630Y87407D01*
X-12586Y87413D01*
X-12548D01*
X-12510Y87418D01*
X-12466D01*
X-12340Y87413D01*
D02*
G37*
G36*
X1321Y87347D02*
X1353Y87342D01*
X1408Y87315D01*
X1430Y87298D01*
X1446Y87287D01*
X1457Y87282D01*
X1462Y87276D01*
X1490Y87249D01*
X1506Y87216D01*
X1528Y87156D01*
X1534Y87129D01*
X1539Y87113D01*
Y87096D01*
Y87091D01*
X1534Y87053D01*
X1528Y87014D01*
X1501Y86954D01*
X1484Y86932D01*
X1473Y86916D01*
X1468Y86910D01*
X1462Y86905D01*
X1430Y86883D01*
X1397Y86867D01*
X1342Y86845D01*
X1315Y86840D01*
X1299Y86834D01*
X1282D01*
X845Y85043D01*
X365D01*
X-6Y85999D01*
X-389Y85043D01*
X-869D01*
X-1300Y86834D01*
X-1338Y86840D01*
X-1371Y86845D01*
X-1426Y86872D01*
X-1448Y86883D01*
X-1464Y86894D01*
X-1475Y86900D01*
X-1481Y86905D01*
X-1508Y86932D01*
X-1530Y86965D01*
X-1541Y86998D01*
X-1551Y87025D01*
X-1557Y87053D01*
X-1562Y87074D01*
Y87085D01*
Y87091D01*
X-1557Y87134D01*
X-1551Y87167D01*
X-1524Y87227D01*
X-1508Y87249D01*
X-1491Y87265D01*
X-1486Y87271D01*
X-1481Y87276D01*
X-1448Y87304D01*
X-1420Y87320D01*
X-1360Y87342D01*
X-1338Y87347D01*
X-1317Y87353D01*
X-765D01*
X-694Y87347D01*
X-634Y87342D01*
X-585Y87331D01*
X-541Y87315D01*
X-514Y87298D01*
X-492Y87287D01*
X-481Y87282D01*
X-476Y87276D01*
X-448Y87249D01*
X-432Y87216D01*
X-410Y87156D01*
X-405Y87129D01*
X-399Y87113D01*
Y87096D01*
Y87091D01*
X-405Y87047D01*
X-416Y87009D01*
X-454Y86943D01*
X-470Y86916D01*
X-487Y86894D01*
X-498Y86883D01*
X-503Y86878D01*
X-530Y86861D01*
X-569Y86851D01*
X-612Y86845D01*
X-656Y86840D01*
X-694Y86834D01*
X-765D01*
X-558Y85999D01*
X-230Y86851D01*
X223D01*
X551Y85999D01*
X753Y86834D01*
X682Y86840D01*
X622Y86845D01*
X573Y86856D01*
X534Y86867D01*
X507Y86878D01*
X491Y86883D01*
X480Y86894D01*
X474D01*
X441Y86927D01*
X420Y86960D01*
X403Y86992D01*
X392Y87025D01*
X387Y87053D01*
X381Y87074D01*
Y87085D01*
Y87091D01*
X387Y87134D01*
X392Y87167D01*
X420Y87227D01*
X436Y87249D01*
X452Y87265D01*
X458Y87271D01*
X463Y87276D01*
X501Y87304D01*
X545Y87320D01*
X638Y87342D01*
X682Y87347D01*
X720Y87353D01*
X1282D01*
X1321Y87347D01*
D02*
G37*
G36*
X32492Y87347D02*
X32552Y87342D01*
X32595Y87331D01*
X32634Y87315D01*
X32661Y87298D01*
X32683Y87287D01*
X32694Y87282D01*
X32699Y87276D01*
X32726Y87249D01*
X32743Y87216D01*
X32765Y87156D01*
X32770Y87129D01*
X32776Y87113D01*
Y87096D01*
Y87091D01*
X32770Y87053D01*
X32765Y87014D01*
X32737Y86954D01*
X32721Y86932D01*
X32710Y86916D01*
X32705Y86911D01*
X32699Y86905D01*
X32666Y86883D01*
X32623Y86867D01*
X32530Y86845D01*
X32492Y86840D01*
X32459Y86834D01*
X32426D01*
X31520Y85054D01*
X31815Y84475D01*
X32333D01*
X32399Y84470D01*
X32459Y84465D01*
X32508Y84453D01*
X32546Y84443D01*
X32574Y84426D01*
X32595Y84415D01*
X32606Y84410D01*
X32612Y84404D01*
X32639Y84377D01*
X32656Y84344D01*
X32677Y84284D01*
X32683Y84257D01*
X32688Y84241D01*
Y84224D01*
Y84219D01*
X32683Y84181D01*
X32677Y84142D01*
X32650Y84082D01*
X32634Y84060D01*
X32623Y84044D01*
X32617Y84039D01*
X32612Y84033D01*
X32574Y84006D01*
X32535Y83989D01*
X32443Y83968D01*
X32399Y83962D01*
X32366Y83957D01*
X31039D01*
X30968Y83962D01*
X30914Y83968D01*
X30865Y83978D01*
X30826Y83995D01*
X30799Y84011D01*
X30777Y84022D01*
X30766Y84028D01*
X30761Y84033D01*
X30734Y84060D01*
X30712Y84093D01*
X30701Y84126D01*
X30690Y84153D01*
X30684Y84181D01*
X30679Y84202D01*
Y84213D01*
Y84219D01*
X30684Y84263D01*
X30706Y84306D01*
X30728Y84350D01*
X30761Y84388D01*
X30788Y84426D01*
X30815Y84453D01*
X30837Y84470D01*
X30843Y84475D01*
X31236D01*
X30035Y86834D01*
X29969Y86840D01*
X29909Y86845D01*
X29865Y86856D01*
X29827Y86872D01*
X29800Y86883D01*
X29778Y86894D01*
X29767Y86900D01*
X29762Y86905D01*
X29734Y86932D01*
X29713Y86965D01*
X29702Y86998D01*
X29691Y87025D01*
X29685Y87053D01*
X29680Y87074D01*
Y87085D01*
Y87091D01*
X29685Y87134D01*
X29691Y87167D01*
X29718Y87227D01*
X29734Y87249D01*
X29751Y87265D01*
X29756Y87271D01*
X29762Y87276D01*
X29794Y87304D01*
X29838Y87320D01*
X29931Y87342D01*
X29969Y87347D01*
X30002Y87353D01*
X30619D01*
X30684Y87347D01*
X30744Y87342D01*
X30788Y87331D01*
X30826Y87315D01*
X30854Y87298D01*
X30876Y87287D01*
X30886Y87282D01*
X30892Y87276D01*
X30919Y87249D01*
X30936Y87216D01*
X30957Y87156D01*
X30963Y87129D01*
X30968Y87113D01*
Y87096D01*
Y87091D01*
X30963Y87053D01*
X30957Y87014D01*
X30930Y86954D01*
X30914Y86932D01*
X30903Y86916D01*
X30897Y86911D01*
X30892Y86905D01*
X30859Y86883D01*
X30815Y86867D01*
X30723Y86845D01*
X30684Y86840D01*
X30652Y86834D01*
X30619D01*
X31230Y85627D01*
X31842Y86834D01*
X31776Y86840D01*
X31716Y86845D01*
X31673Y86856D01*
X31634Y86872D01*
X31607Y86883D01*
X31585Y86894D01*
X31574Y86900D01*
X31569Y86905D01*
X31542Y86932D01*
X31520Y86965D01*
X31509Y86998D01*
X31498Y87025D01*
X31492Y87053D01*
X31487Y87074D01*
Y87085D01*
Y87091D01*
X31492Y87134D01*
X31498Y87167D01*
X31525Y87227D01*
X31542Y87249D01*
X31558Y87265D01*
X31563Y87271D01*
X31569Y87276D01*
X31602Y87304D01*
X31645Y87320D01*
X31738Y87342D01*
X31776Y87347D01*
X31809Y87353D01*
X32426D01*
X32492Y87347D01*
D02*
G37*
G36*
X3548Y88166D02*
X3586Y88161D01*
X3647Y88134D01*
X3668Y88117D01*
X3685Y88101D01*
X3690Y88095D01*
X3696Y88090D01*
X3717Y88057D01*
X3734Y88013D01*
X3756Y87926D01*
X3761Y87888D01*
X3767Y87855D01*
Y87833D01*
Y87822D01*
Y87353D01*
X3958D01*
X4023Y87347D01*
X4078Y87342D01*
X4121Y87331D01*
X4160Y87315D01*
X4187Y87298D01*
X4209Y87287D01*
X4220Y87282D01*
X4225Y87276D01*
X4253Y87249D01*
X4269Y87216D01*
X4291Y87156D01*
X4296Y87129D01*
X4302Y87113D01*
Y87096D01*
Y87091D01*
X4296Y87053D01*
X4291Y87014D01*
X4264Y86954D01*
X4247Y86932D01*
X4236Y86916D01*
X4231Y86911D01*
X4225Y86905D01*
X4192Y86883D01*
X4149Y86867D01*
X4061Y86845D01*
X4023Y86840D01*
X3991Y86834D01*
X3767D01*
Y85682D01*
X3761Y85627D01*
X3756Y85573D01*
X3728Y85475D01*
X3690Y85387D01*
X3647Y85311D01*
X3603Y85251D01*
X3565Y85207D01*
X3537Y85180D01*
X3526Y85169D01*
X3477Y85131D01*
X3428Y85098D01*
X3313Y85049D01*
X3193Y85010D01*
X3073Y84989D01*
X2964Y84972D01*
X2920Y84967D01*
X2882D01*
X2844Y84961D01*
X2800D01*
X2702Y84967D01*
X2598Y84978D01*
X2494Y84994D01*
X2396Y85010D01*
X2314Y85027D01*
X2276Y85038D01*
X2243Y85043D01*
X2216Y85049D01*
X2200Y85054D01*
X2189Y85060D01*
X2183D01*
X2118Y85076D01*
X2058Y85098D01*
X1948Y85136D01*
X1861Y85174D01*
X1796Y85207D01*
X1746Y85234D01*
X1714Y85256D01*
X1692Y85273D01*
X1686Y85278D01*
X1659Y85305D01*
X1637Y85338D01*
X1626Y85365D01*
X1615Y85393D01*
X1610Y85414D01*
X1604Y85436D01*
Y85447D01*
Y85453D01*
X1610Y85491D01*
X1615Y85529D01*
X1643Y85589D01*
X1659Y85611D01*
X1670Y85627D01*
X1675Y85633D01*
X1681Y85638D01*
X1708Y85666D01*
X1741Y85682D01*
X1801Y85704D01*
X1823Y85709D01*
X1845Y85715D01*
X1861D01*
X1888Y85709D01*
X1921Y85704D01*
X1987Y85682D01*
X2019Y85666D01*
X2041Y85655D01*
X2058Y85649D01*
X2063Y85644D01*
X2194Y85589D01*
X2320Y85551D01*
X2445Y85518D01*
X2560Y85502D01*
X2658Y85491D01*
X2696Y85486D01*
X2735D01*
X2762Y85480D01*
X2800D01*
X2893Y85486D01*
X2975Y85491D01*
X3040Y85507D01*
X3095Y85524D01*
X3133Y85535D01*
X3161Y85551D01*
X3177Y85557D01*
X3182Y85562D01*
X3204Y85589D01*
X3221Y85622D01*
X3237Y85693D01*
X3243Y85731D01*
X3248Y85759D01*
Y85780D01*
Y85786D01*
Y86834D01*
X2287D01*
X2221Y86840D01*
X2167Y86845D01*
X2123Y86856D01*
X2085Y86872D01*
X2058Y86883D01*
X2036Y86894D01*
X2025Y86900D01*
X2019Y86905D01*
X1992Y86932D01*
X1970Y86965D01*
X1959Y86998D01*
X1948Y87025D01*
X1943Y87053D01*
X1938Y87074D01*
Y87085D01*
Y87091D01*
X1943Y87134D01*
X1948Y87167D01*
X1976Y87227D01*
X1992Y87249D01*
X2008Y87265D01*
X2014Y87271D01*
X2019Y87276D01*
X2052Y87304D01*
X2096Y87320D01*
X2183Y87342D01*
X2221Y87347D01*
X2254Y87353D01*
X3248D01*
Y87822D01*
X3253Y87888D01*
X3259Y87942D01*
X3270Y87986D01*
X3286Y88024D01*
X3303Y88052D01*
X3313Y88073D01*
X3319Y88084D01*
X3324Y88090D01*
X3352Y88117D01*
X3384Y88139D01*
X3412Y88150D01*
X3444Y88161D01*
X3472Y88166D01*
X3488Y88172D01*
X3510D01*
X3548Y88166D01*
D02*
G37*
G36*
X28850Y87347D02*
X28910Y87342D01*
X28959Y87331D01*
X28997Y87315D01*
X29025Y87298D01*
X29046Y87287D01*
X29057Y87282D01*
X29063Y87276D01*
X29090Y87249D01*
X29107Y87216D01*
X29128Y87156D01*
X29134Y87129D01*
X29139Y87113D01*
Y87096D01*
Y87091D01*
X29134Y87053D01*
X29128Y87014D01*
X29101Y86954D01*
X29085Y86932D01*
X29074Y86916D01*
X29068Y86911D01*
X29063Y86905D01*
X29025Y86883D01*
X28986Y86867D01*
X28894Y86845D01*
X28850Y86840D01*
X28817Y86834D01*
X28364D01*
Y85562D01*
X28986D01*
X29052Y85557D01*
X29112Y85551D01*
X29161Y85540D01*
X29199Y85524D01*
X29227Y85507D01*
X29248Y85496D01*
X29259Y85491D01*
X29265Y85486D01*
X29292Y85458D01*
X29309Y85425D01*
X29330Y85365D01*
X29336Y85338D01*
X29341Y85322D01*
Y85305D01*
Y85300D01*
X29336Y85262D01*
X29330Y85223D01*
X29303Y85163D01*
X29287Y85141D01*
X29276Y85125D01*
X29270Y85120D01*
X29265Y85114D01*
X29227Y85092D01*
X29188Y85076D01*
X29096Y85054D01*
X29052Y85049D01*
X29019Y85043D01*
X27223D01*
X27157Y85049D01*
X27097Y85054D01*
X27053Y85065D01*
X27015Y85081D01*
X26988Y85092D01*
X26966Y85103D01*
X26955Y85109D01*
X26950Y85114D01*
X26923Y85141D01*
X26901Y85174D01*
X26890Y85207D01*
X26879Y85234D01*
X26873Y85262D01*
X26868Y85283D01*
Y85294D01*
Y85300D01*
X26873Y85343D01*
X26879Y85376D01*
X26906Y85436D01*
X26923Y85458D01*
X26939Y85475D01*
X26944Y85480D01*
X26950Y85486D01*
X26983Y85513D01*
X27026Y85529D01*
X27119Y85551D01*
X27157Y85557D01*
X27190Y85562D01*
X27845D01*
Y87353D01*
X28784D01*
X28850Y87347D01*
D02*
G37*
G36*
X24968Y87407D02*
X25033Y87397D01*
X25088Y87386D01*
X25132Y87375D01*
X25170Y87364D01*
X25192Y87358D01*
X25197Y87353D01*
X25257Y87326D01*
X25317Y87298D01*
X25372Y87271D01*
X25416Y87238D01*
X25454Y87216D01*
X25481Y87195D01*
X25503Y87178D01*
X25508Y87173D01*
Y87353D01*
X26027D01*
X26092Y87347D01*
X26153Y87342D01*
X26202Y87331D01*
X26240Y87315D01*
X26267Y87298D01*
X26289Y87287D01*
X26300Y87282D01*
X26305Y87276D01*
X26333Y87249D01*
X26349Y87216D01*
X26371Y87156D01*
X26377Y87129D01*
X26382Y87113D01*
Y87096D01*
Y87091D01*
X26377Y87053D01*
X26371Y87014D01*
X26344Y86954D01*
X26327Y86932D01*
X26316Y86916D01*
X26311Y86911D01*
X26305Y86905D01*
X26267Y86883D01*
X26229Y86867D01*
X26136Y86845D01*
X26092Y86840D01*
X26060Y86834D01*
X26027D01*
Y85562D01*
X26092D01*
X26147Y85557D01*
X26191Y85546D01*
X26224Y85540D01*
X26251Y85529D01*
X26267Y85518D01*
X26273Y85513D01*
X26278D01*
X26311Y85475D01*
X26338Y85436D01*
X26355Y85404D01*
X26371Y85371D01*
X26377Y85343D01*
X26382Y85322D01*
Y85305D01*
Y85300D01*
X26377Y85262D01*
X26371Y85223D01*
X26344Y85163D01*
X26327Y85141D01*
X26316Y85125D01*
X26311Y85120D01*
X26305Y85114D01*
X26267Y85092D01*
X26229Y85076D01*
X26136Y85054D01*
X26092Y85049D01*
X26060Y85043D01*
X25508D01*
X25443Y85049D01*
X25383Y85054D01*
X25339Y85065D01*
X25301Y85081D01*
X25274Y85092D01*
X25252Y85103D01*
X25241Y85109D01*
X25235Y85114D01*
X25208Y85141D01*
X25186Y85174D01*
X25175Y85207D01*
X25164Y85234D01*
X25159Y85262D01*
X25153Y85283D01*
Y85294D01*
Y85300D01*
X25159Y85343D01*
X25170Y85382D01*
X25208Y85447D01*
X25230Y85475D01*
X25246Y85496D01*
X25257Y85507D01*
X25263Y85513D01*
X25290Y85529D01*
X25323Y85540D01*
X25405Y85557D01*
X25443Y85562D01*
X25508D01*
Y86528D01*
X25432Y86605D01*
X25366Y86670D01*
X25306Y86725D01*
X25257Y86763D01*
X25219Y86796D01*
X25186Y86812D01*
X25170Y86823D01*
X25164Y86829D01*
X25110Y86851D01*
X25055Y86872D01*
X25006Y86883D01*
X24957Y86889D01*
X24913Y86894D01*
X24880Y86900D01*
X24848D01*
X24760Y86894D01*
X24689Y86883D01*
X24629Y86867D01*
X24575Y86851D01*
X24536Y86829D01*
X24509Y86812D01*
X24493Y86801D01*
X24487Y86796D01*
X24455Y86763D01*
X24433Y86725D01*
X24416Y86681D01*
X24405Y86638D01*
X24400Y86605D01*
X24395Y86572D01*
Y86550D01*
Y86545D01*
Y85562D01*
X24460Y85557D01*
X24520Y85551D01*
X24569Y85540D01*
X24607Y85524D01*
X24635Y85507D01*
X24657Y85496D01*
X24667Y85491D01*
X24673Y85486D01*
X24700Y85458D01*
X24717Y85425D01*
X24738Y85365D01*
X24744Y85338D01*
X24749Y85322D01*
Y85305D01*
Y85300D01*
X24744Y85262D01*
X24738Y85223D01*
X24711Y85163D01*
X24695Y85141D01*
X24684Y85125D01*
X24678Y85120D01*
X24673Y85114D01*
X24635Y85092D01*
X24597Y85076D01*
X24504Y85054D01*
X24460Y85049D01*
X24427Y85043D01*
X23876D01*
X23810Y85049D01*
X23750Y85054D01*
X23707Y85065D01*
X23668Y85081D01*
X23641Y85092D01*
X23619Y85103D01*
X23608Y85109D01*
X23603Y85114D01*
X23575Y85141D01*
X23554Y85174D01*
X23543Y85207D01*
X23532Y85234D01*
X23526Y85262D01*
X23521Y85283D01*
Y85294D01*
Y85300D01*
X23526Y85343D01*
X23532Y85376D01*
X23559Y85436D01*
X23575Y85458D01*
X23592Y85475D01*
X23597Y85480D01*
X23603Y85486D01*
X23636Y85513D01*
X23679Y85529D01*
X23772Y85551D01*
X23810Y85557D01*
X23843Y85562D01*
X23876D01*
Y86528D01*
X23887Y86659D01*
X23909Y86779D01*
X23947Y86883D01*
X23985Y86971D01*
X24023Y87036D01*
X24061Y87085D01*
X24083Y87118D01*
X24094Y87129D01*
X24149Y87178D01*
X24203Y87227D01*
X24263Y87265D01*
X24324Y87298D01*
X24444Y87347D01*
X24558Y87380D01*
X24662Y87402D01*
X24711Y87407D01*
X24749Y87413D01*
X24782Y87418D01*
X24902D01*
X24968Y87407D01*
D02*
G37*
G36*
X-14874Y87347D02*
X-14814Y87342D01*
X-14765Y87331D01*
X-14726Y87315D01*
X-14699Y87298D01*
X-14677Y87287D01*
X-14666Y87282D01*
X-14661Y87276D01*
X-14634Y87249D01*
X-14617Y87216D01*
X-14595Y87156D01*
X-14590Y87129D01*
X-14584Y87113D01*
Y87096D01*
Y87091D01*
X-14590Y87053D01*
X-14595Y87014D01*
X-14623Y86954D01*
X-14639Y86932D01*
X-14650Y86916D01*
X-14655Y86910D01*
X-14661Y86905D01*
X-14699Y86883D01*
X-14737Y86867D01*
X-14830Y86845D01*
X-14874Y86840D01*
X-14907Y86834D01*
X-15360D01*
Y85562D01*
X-14737D01*
X-14672Y85557D01*
X-14612Y85551D01*
X-14563Y85540D01*
X-14524Y85524D01*
X-14497Y85507D01*
X-14475Y85496D01*
X-14464Y85491D01*
X-14459Y85486D01*
X-14432Y85458D01*
X-14415Y85425D01*
X-14393Y85365D01*
X-14388Y85338D01*
X-14382Y85322D01*
Y85305D01*
Y85300D01*
X-14388Y85262D01*
X-14393Y85223D01*
X-14421Y85163D01*
X-14437Y85141D01*
X-14448Y85125D01*
X-14453Y85120D01*
X-14459Y85114D01*
X-14497Y85092D01*
X-14535Y85076D01*
X-14628Y85054D01*
X-14672Y85049D01*
X-14705Y85043D01*
X-16501D01*
X-16566Y85049D01*
X-16626Y85054D01*
X-16670Y85065D01*
X-16708Y85081D01*
X-16736Y85092D01*
X-16758Y85103D01*
X-16769Y85109D01*
X-16774Y85114D01*
X-16801Y85141D01*
X-16823Y85174D01*
X-16834Y85207D01*
X-16845Y85234D01*
X-16850Y85262D01*
X-16856Y85283D01*
Y85294D01*
Y85300D01*
X-16850Y85343D01*
X-16845Y85376D01*
X-16818Y85436D01*
X-16801Y85458D01*
X-16785Y85475D01*
X-16779Y85480D01*
X-16774Y85486D01*
X-16741Y85513D01*
X-16698Y85529D01*
X-16605Y85551D01*
X-16566Y85557D01*
X-16534Y85562D01*
X-15879D01*
Y87353D01*
X-14939D01*
X-14874Y87347D01*
D02*
G37*
G36*
X-17997Y88336D02*
X-17937Y88330D01*
X-17888Y88319D01*
X-17850Y88303D01*
X-17822Y88287D01*
X-17800Y88275D01*
X-17789Y88270D01*
X-17784Y88265D01*
X-17757Y88237D01*
X-17740Y88205D01*
X-17718Y88144D01*
X-17713Y88117D01*
X-17708Y88101D01*
Y88084D01*
Y88079D01*
X-17713Y88041D01*
X-17718Y88003D01*
X-17746Y87942D01*
X-17762Y87921D01*
X-17773Y87904D01*
X-17779Y87899D01*
X-17784Y87893D01*
X-17822Y87871D01*
X-17861Y87855D01*
X-17953Y87833D01*
X-17997Y87828D01*
X-18030Y87822D01*
X-18483D01*
Y85562D01*
X-17861D01*
X-17795Y85557D01*
X-17735Y85551D01*
X-17686Y85540D01*
X-17648Y85524D01*
X-17620Y85507D01*
X-17598Y85496D01*
X-17587Y85491D01*
X-17582Y85486D01*
X-17555Y85458D01*
X-17538Y85425D01*
X-17516Y85365D01*
X-17511Y85338D01*
X-17505Y85322D01*
Y85305D01*
Y85300D01*
X-17511Y85262D01*
X-17516Y85223D01*
X-17544Y85163D01*
X-17560Y85141D01*
X-17571Y85125D01*
X-17576Y85120D01*
X-17582Y85114D01*
X-17620Y85092D01*
X-17658Y85076D01*
X-17751Y85054D01*
X-17795Y85049D01*
X-17828Y85043D01*
X-19624D01*
X-19690Y85049D01*
X-19750Y85054D01*
X-19793Y85065D01*
X-19831Y85081D01*
X-19859Y85092D01*
X-19881Y85103D01*
X-19892Y85109D01*
X-19897Y85114D01*
X-19924Y85141D01*
X-19946Y85174D01*
X-19957Y85207D01*
X-19968Y85234D01*
X-19974Y85262D01*
X-19979Y85283D01*
Y85294D01*
Y85300D01*
X-19974Y85343D01*
X-19968Y85376D01*
X-19941Y85436D01*
X-19924Y85458D01*
X-19908Y85475D01*
X-19903Y85480D01*
X-19897Y85486D01*
X-19864Y85513D01*
X-19821Y85529D01*
X-19728Y85551D01*
X-19690Y85557D01*
X-19657Y85562D01*
X-19002D01*
Y88341D01*
X-18063D01*
X-17997Y88336D01*
D02*
G37*
G36*
X-3037Y88412D02*
X-2949Y88401D01*
X-2867Y88379D01*
X-2791Y88352D01*
X-2720Y88319D01*
X-2654Y88281D01*
X-2594Y88243D01*
X-2540Y88205D01*
X-2491Y88161D01*
X-2447Y88123D01*
X-2414Y88084D01*
X-2381Y88052D01*
X-2359Y88024D01*
X-2343Y88003D01*
X-2332Y87992D01*
X-2327Y87986D01*
X-2272Y87904D01*
X-2228Y87817D01*
X-2190Y87735D01*
X-2152Y87642D01*
X-2097Y87473D01*
X-2065Y87309D01*
X-2054Y87233D01*
X-2043Y87167D01*
X-2037Y87102D01*
X-2032Y87053D01*
X-2026Y87009D01*
Y86976D01*
Y86954D01*
Y86949D01*
Y86113D01*
X-2032Y85971D01*
X-2048Y85835D01*
X-2070Y85704D01*
X-2097Y85589D01*
X-2108Y85535D01*
X-2119Y85491D01*
X-2130Y85447D01*
X-2141Y85414D01*
X-2152Y85387D01*
X-2158Y85365D01*
X-2163Y85354D01*
Y85349D01*
X-2223Y85212D01*
X-2289Y85098D01*
X-2354Y84994D01*
X-2425Y84912D01*
X-2485Y84847D01*
X-2540Y84803D01*
X-2572Y84776D01*
X-2578Y84765D01*
X-2583D01*
X-2671Y84716D01*
X-2764Y84677D01*
X-2856Y84650D01*
X-2944Y84634D01*
X-3020Y84623D01*
X-3080Y84612D01*
X-3135D01*
X-3288Y84617D01*
X-3430Y84639D01*
X-3544Y84667D01*
X-3648Y84699D01*
X-3725Y84732D01*
X-3757Y84748D01*
X-3779Y84759D01*
X-3801Y84770D01*
X-3817Y84781D01*
X-3823Y84787D01*
X-3828D01*
X-3888Y84830D01*
X-3932Y84874D01*
X-3959Y84918D01*
X-3981Y84956D01*
X-3992Y84989D01*
X-4003Y85010D01*
Y85027D01*
Y85032D01*
Y85060D01*
X-3992Y85087D01*
X-3976Y85131D01*
X-3954Y85158D01*
X-3948Y85169D01*
X-3943D01*
X-3921Y85191D01*
X-3899Y85202D01*
X-3856Y85223D01*
X-3823Y85229D01*
X-3806D01*
X-3779Y85223D01*
X-3757Y85218D01*
X-3714Y85191D01*
X-3675Y85163D01*
X-3670Y85158D01*
X-3664Y85152D01*
X-3632Y85125D01*
X-3599Y85103D01*
X-3528Y85065D01*
X-3501Y85054D01*
X-3473Y85043D01*
X-3457Y85038D01*
X-3452D01*
X-3348Y85010D01*
X-3299Y85005D01*
X-3249Y85000D01*
X-3211Y84994D01*
X-3151D01*
X-3042Y85005D01*
X-2944Y85027D01*
X-2862Y85065D01*
X-2796Y85109D01*
X-2742Y85147D01*
X-2703Y85185D01*
X-2676Y85207D01*
X-2671Y85218D01*
X-2627Y85283D01*
X-2583Y85354D01*
X-2518Y85507D01*
X-2474Y85666D01*
X-2441Y85813D01*
X-2431Y85884D01*
X-2425Y85950D01*
X-2414Y86004D01*
Y86053D01*
X-2409Y86097D01*
Y86124D01*
Y86146D01*
Y86152D01*
Y86922D01*
X-2414Y87047D01*
X-2431Y87173D01*
X-2452Y87287D01*
X-2480Y87386D01*
X-2507Y87473D01*
X-2518Y87511D01*
X-2529Y87538D01*
X-2540Y87566D01*
X-2545Y87582D01*
X-2551Y87593D01*
Y87599D01*
X-2583Y87669D01*
X-2622Y87730D01*
X-2665Y87779D01*
X-2703Y87828D01*
X-2736Y87861D01*
X-2764Y87888D01*
X-2785Y87904D01*
X-2791Y87910D01*
X-2851Y87953D01*
X-2916Y87981D01*
X-2971Y88003D01*
X-3026Y88019D01*
X-3069Y88030D01*
X-3102Y88035D01*
X-3135D01*
X-3217Y88030D01*
X-3293Y88013D01*
X-3353Y87986D01*
X-3408Y87959D01*
X-3452Y87926D01*
X-3484Y87904D01*
X-3506Y87882D01*
X-3512Y87877D01*
X-3561Y87817D01*
X-3599Y87751D01*
X-3621Y87680D01*
X-3643Y87615D01*
X-3653Y87555D01*
X-3659Y87511D01*
Y87478D01*
Y87473D01*
Y87467D01*
Y87309D01*
X-3506Y87287D01*
X-3370Y87255D01*
X-3249Y87205D01*
X-3151Y87156D01*
X-3075Y87113D01*
X-3042Y87091D01*
X-3015Y87069D01*
X-2998Y87053D01*
X-2982Y87042D01*
X-2977Y87036D01*
X-2971Y87031D01*
X-2927Y86987D01*
X-2889Y86938D01*
X-2829Y86840D01*
X-2785Y86747D01*
X-2758Y86659D01*
X-2736Y86583D01*
X-2731Y86523D01*
X-2725Y86501D01*
Y86485D01*
Y86474D01*
Y86468D01*
X-2736Y86359D01*
X-2758Y86255D01*
X-2796Y86168D01*
X-2840Y86092D01*
X-2878Y86026D01*
X-2916Y85977D01*
X-2938Y85950D01*
X-2949Y85939D01*
X-3037Y85862D01*
X-3129Y85808D01*
X-3217Y85769D01*
X-3299Y85742D01*
X-3370Y85726D01*
X-3430Y85720D01*
X-3452Y85715D01*
X-3506D01*
X-3533Y85720D01*
X-3593Y85726D01*
X-3615D01*
X-3637Y85731D01*
X-3659D01*
Y85715D01*
X-3932D01*
X-3976Y85726D01*
X-4008Y85731D01*
X-4036Y85742D01*
X-4058Y85753D01*
X-4074Y85759D01*
X-4085Y85769D01*
X-4107Y85791D01*
X-4123Y85813D01*
X-4145Y85862D01*
X-4150Y85895D01*
Y85906D01*
Y85911D01*
X-4145Y85955D01*
X-4134Y85988D01*
X-4118Y86021D01*
X-4096Y86042D01*
X-4074Y86064D01*
X-4058Y86075D01*
X-4047Y86086D01*
X-4041D01*
Y87473D01*
X-4036Y87577D01*
X-4019Y87675D01*
X-3997Y87762D01*
X-3970Y87839D01*
X-3943Y87904D01*
X-3921Y87953D01*
X-3905Y87981D01*
X-3899Y87992D01*
X-3845Y88073D01*
X-3785Y88144D01*
X-3730Y88199D01*
X-3675Y88243D01*
X-3626Y88275D01*
X-3588Y88303D01*
X-3566Y88314D01*
X-3555Y88319D01*
X-3479Y88352D01*
X-3402Y88374D01*
X-3331Y88396D01*
X-3266Y88407D01*
X-3211Y88412D01*
X-3168Y88418D01*
X-3129D01*
X-3037Y88412D01*
D02*
G37*
G36*
X9494Y87413D02*
X9614Y87391D01*
X9729Y87364D01*
X9833Y87331D01*
X9920Y87298D01*
X9953Y87282D01*
X9986Y87271D01*
X10007Y87260D01*
X10024Y87249D01*
X10035Y87244D01*
X10040D01*
X10155Y87173D01*
X10253Y87096D01*
X10340Y87014D01*
X10411Y86943D01*
X10466Y86872D01*
X10504Y86818D01*
X10521Y86796D01*
X10526Y86779D01*
X10537Y86774D01*
Y86769D01*
X10592Y86654D01*
X10635Y86545D01*
X10663Y86441D01*
X10684Y86348D01*
X10695Y86272D01*
X10701Y86212D01*
X10706Y86190D01*
Y86173D01*
Y86163D01*
Y86157D01*
X10701Y86042D01*
X10679Y85939D01*
X10652Y85835D01*
X10619Y85748D01*
X10592Y85671D01*
X10564Y85616D01*
X10553Y85595D01*
X10543Y85578D01*
X10537Y85573D01*
Y85567D01*
X10466Y85469D01*
X10390Y85376D01*
X10308Y85300D01*
X10226Y85240D01*
X10155Y85185D01*
X10100Y85152D01*
X10078Y85136D01*
X10062Y85125D01*
X10051Y85120D01*
X10046D01*
X9920Y85065D01*
X9800Y85027D01*
X9685Y85000D01*
X9582Y84983D01*
X9494Y84972D01*
X9456Y84967D01*
X9423Y84961D01*
X9363D01*
X9232Y84967D01*
X9101Y84989D01*
X8986Y85016D01*
X8883Y85043D01*
X8795Y85076D01*
X8762Y85087D01*
X8730Y85098D01*
X8708Y85109D01*
X8692Y85120D01*
X8681Y85125D01*
X8675D01*
X8561Y85191D01*
X8457Y85262D01*
X8369Y85338D01*
X8304Y85409D01*
X8249Y85469D01*
X8211Y85524D01*
X8184Y85557D01*
X8178Y85562D01*
Y85567D01*
X8124Y85677D01*
X8080Y85780D01*
X8053Y85879D01*
X8031Y85966D01*
X8020Y86042D01*
X8009Y86102D01*
Y86124D01*
Y86141D01*
Y86146D01*
Y86152D01*
X8015Y86266D01*
X8036Y86381D01*
X8064Y86485D01*
X8091Y86577D01*
X8124Y86654D01*
X8151Y86714D01*
X8162Y86736D01*
X8173Y86752D01*
X8178Y86758D01*
Y86763D01*
X8249Y86872D01*
X8326Y86965D01*
X8413Y87047D01*
X8495Y87113D01*
X8566Y87167D01*
X8626Y87205D01*
X8648Y87222D01*
X8664Y87233D01*
X8675Y87238D01*
X8681D01*
X8806Y87298D01*
X8926Y87342D01*
X9041Y87375D01*
X9145Y87397D01*
X9232Y87407D01*
X9270Y87413D01*
X9303Y87418D01*
X9363D01*
X9494Y87413D01*
D02*
G37*
G36*
X6306Y85649D02*
X6360Y85638D01*
X6409Y85622D01*
X6447Y85606D01*
X6480Y85584D01*
X6502Y85567D01*
X6518Y85557D01*
X6524Y85551D01*
X6557Y85513D01*
X6584Y85469D01*
X6600Y85431D01*
X6617Y85393D01*
X6622Y85360D01*
X6628Y85333D01*
Y85311D01*
Y85305D01*
X6622Y85251D01*
X6611Y85207D01*
X6595Y85163D01*
X6573Y85125D01*
X6557Y85098D01*
X6540Y85076D01*
X6529Y85065D01*
X6524Y85060D01*
X6480Y85027D01*
X6436Y85005D01*
X6387Y84983D01*
X6344Y84972D01*
X6300Y84967D01*
X6267Y84961D01*
X6240D01*
X6174Y84967D01*
X6120Y84978D01*
X6071Y84994D01*
X6033Y85010D01*
X6000Y85027D01*
X5972Y85043D01*
X5962Y85054D01*
X5956Y85060D01*
X5918Y85098D01*
X5891Y85141D01*
X5874Y85180D01*
X5858Y85218D01*
X5852Y85256D01*
X5847Y85283D01*
Y85300D01*
Y85305D01*
X5852Y85360D01*
X5863Y85404D01*
X5880Y85447D01*
X5901Y85486D01*
X5923Y85513D01*
X5940Y85535D01*
X5951Y85546D01*
X5956Y85551D01*
X6000Y85584D01*
X6043Y85611D01*
X6093Y85627D01*
X6136Y85644D01*
X6180Y85649D01*
X6213Y85655D01*
X6240D01*
X6306Y85649D01*
D02*
G37*
G36*
X-21803Y85649D02*
X-21748Y85638D01*
X-21699Y85622D01*
X-21661Y85606D01*
X-21628Y85584D01*
X-21606Y85567D01*
X-21590Y85557D01*
X-21584Y85551D01*
X-21551Y85513D01*
X-21524Y85469D01*
X-21508Y85431D01*
X-21491Y85393D01*
X-21486Y85360D01*
X-21480Y85333D01*
Y85311D01*
Y85305D01*
X-21486Y85251D01*
X-21497Y85207D01*
X-21513Y85163D01*
X-21535Y85125D01*
X-21551Y85098D01*
X-21568Y85076D01*
X-21579Y85065D01*
X-21584Y85060D01*
X-21628Y85027D01*
X-21671Y85005D01*
X-21721Y84983D01*
X-21764Y84972D01*
X-21808Y84967D01*
X-21841Y84961D01*
X-21868D01*
X-21934Y84967D01*
X-21988Y84978D01*
X-22037Y84994D01*
X-22076Y85010D01*
X-22108Y85027D01*
X-22136Y85043D01*
X-22147Y85054D01*
X-22152Y85060D01*
X-22190Y85098D01*
X-22218Y85141D01*
X-22234Y85180D01*
X-22250Y85218D01*
X-22256Y85256D01*
X-22261Y85283D01*
Y85300D01*
Y85305D01*
X-22256Y85360D01*
X-22245Y85404D01*
X-22229Y85447D01*
X-22207Y85486D01*
X-22185Y85513D01*
X-22168Y85535D01*
X-22158Y85545D01*
X-22152Y85551D01*
X-22108Y85584D01*
X-22065Y85611D01*
X-22016Y85627D01*
X-21972Y85644D01*
X-21928Y85649D01*
X-21895Y85655D01*
X-21868D01*
X-21803Y85649D01*
D02*
G37*
G36*
X-27983Y87413D02*
X-27863Y87391D01*
X-27749Y87364D01*
X-27645Y87331D01*
X-27557Y87298D01*
X-27525Y87282D01*
X-27492Y87271D01*
X-27470Y87260D01*
X-27454Y87249D01*
X-27443Y87244D01*
X-27437D01*
X-27323Y87173D01*
X-27224Y87096D01*
X-27137Y87014D01*
X-27066Y86943D01*
X-27011Y86872D01*
X-26973Y86818D01*
X-26957Y86796D01*
X-26951Y86779D01*
X-26940Y86774D01*
Y86769D01*
X-26886Y86654D01*
X-26842Y86545D01*
X-26815Y86441D01*
X-26793Y86348D01*
X-26782Y86272D01*
X-26777Y86212D01*
X-26771Y86190D01*
Y86173D01*
Y86163D01*
Y86157D01*
X-26777Y86042D01*
X-26798Y85939D01*
X-26826Y85835D01*
X-26858Y85748D01*
X-26886Y85671D01*
X-26913Y85616D01*
X-26924Y85595D01*
X-26935Y85578D01*
X-26940Y85573D01*
Y85567D01*
X-27011Y85469D01*
X-27088Y85376D01*
X-27170Y85300D01*
X-27252Y85240D01*
X-27323Y85185D01*
X-27377Y85152D01*
X-27399Y85136D01*
X-27415Y85125D01*
X-27426Y85120D01*
X-27432D01*
X-27557Y85065D01*
X-27678Y85027D01*
X-27792Y85000D01*
X-27896Y84983D01*
X-27983Y84972D01*
X-28021Y84967D01*
X-28054Y84961D01*
X-28114D01*
X-28245Y84967D01*
X-28376Y84989D01*
X-28491Y85016D01*
X-28595Y85043D01*
X-28682Y85076D01*
X-28715Y85087D01*
X-28748Y85098D01*
X-28769Y85109D01*
X-28786Y85120D01*
X-28797Y85125D01*
X-28802D01*
X-28917Y85191D01*
X-29021Y85262D01*
X-29108Y85338D01*
X-29174Y85409D01*
X-29228Y85469D01*
X-29266Y85524D01*
X-29294Y85557D01*
X-29299Y85562D01*
Y85567D01*
X-29354Y85677D01*
X-29397Y85780D01*
X-29425Y85879D01*
X-29447Y85966D01*
X-29458Y86042D01*
X-29468Y86102D01*
Y86124D01*
Y86141D01*
Y86146D01*
Y86152D01*
X-29463Y86266D01*
X-29441Y86381D01*
X-29414Y86485D01*
X-29386Y86577D01*
X-29354Y86654D01*
X-29326Y86714D01*
X-29316Y86736D01*
X-29305Y86752D01*
X-29299Y86758D01*
Y86763D01*
X-29228Y86872D01*
X-29152Y86965D01*
X-29064Y87047D01*
X-28982Y87113D01*
X-28912Y87167D01*
X-28851Y87205D01*
X-28830Y87222D01*
X-28813Y87233D01*
X-28802Y87238D01*
X-28797D01*
X-28671Y87298D01*
X-28551Y87342D01*
X-28436Y87375D01*
X-28333Y87397D01*
X-28245Y87407D01*
X-28207Y87413D01*
X-28174Y87418D01*
X-28114D01*
X-27983Y87413D01*
D02*
G37*
G36*
X8737Y98026D02*
X8115D01*
Y98577D01*
X8737D01*
Y98026D01*
D02*
G37*
G36*
X-1025Y97649D02*
X-922Y97638D01*
X-823Y97622D01*
X-730Y97600D01*
X-643Y97567D01*
X-561Y97540D01*
X-490Y97507D01*
X-425Y97474D01*
X-365Y97436D01*
X-310Y97403D01*
X-266Y97376D01*
X-228Y97349D01*
X-201Y97321D01*
X-179Y97305D01*
X-168Y97294D01*
X-163Y97289D01*
X-97Y97218D01*
X-42Y97147D01*
X7Y97070D01*
X50Y96994D01*
X83Y96912D01*
X116Y96836D01*
X160Y96694D01*
X170Y96628D01*
X181Y96568D01*
X192Y96513D01*
X198Y96464D01*
X203Y96426D01*
Y96399D01*
Y96377D01*
Y96372D01*
X198Y96262D01*
X181Y96164D01*
X160Y96066D01*
X132Y95978D01*
X100Y95896D01*
X61Y95820D01*
X18Y95749D01*
X-26Y95689D01*
X-64Y95629D01*
X-108Y95580D01*
X-146Y95542D01*
X-179Y95503D01*
X-206Y95476D01*
X-228Y95460D01*
X-244Y95449D01*
X-250Y95443D01*
X-315Y95400D01*
X-386Y95361D01*
X-539Y95301D01*
X-698Y95258D01*
X-850Y95230D01*
X-922Y95219D01*
X-987Y95209D01*
X-1042Y95203D01*
X-1096D01*
X-1134Y95198D01*
X-1194D01*
X-1320Y95203D01*
X-1435Y95209D01*
X-1539Y95219D01*
X-1642Y95236D01*
X-1735Y95252D01*
X-1817Y95268D01*
X-1893Y95290D01*
X-1964Y95312D01*
X-2024Y95334D01*
X-2073Y95356D01*
X-2117Y95372D01*
X-2156Y95389D01*
X-2183Y95405D01*
X-2205Y95416D01*
X-2215Y95427D01*
X-2221D01*
X-2265Y95454D01*
X-2303Y95487D01*
X-2358Y95542D01*
X-2401Y95596D01*
X-2434Y95651D01*
X-2450Y95689D01*
X-2456Y95727D01*
X-2461Y95749D01*
Y95754D01*
X-2456Y95793D01*
X-2450Y95831D01*
X-2423Y95891D01*
X-2407Y95913D01*
X-2390Y95929D01*
X-2385Y95935D01*
X-2379Y95940D01*
X-2352Y95967D01*
X-2319Y95989D01*
X-2286Y96000D01*
X-2259Y96011D01*
X-2237Y96017D01*
X-2215Y96022D01*
X-2199D01*
X-2166Y96017D01*
X-2128Y96006D01*
X-2063Y95973D01*
X-2035Y95951D01*
X-2014Y95935D01*
X-2003Y95924D01*
X-1997Y95918D01*
X-1953Y95885D01*
X-1915Y95858D01*
X-1844Y95815D01*
X-1812Y95798D01*
X-1790Y95787D01*
X-1773Y95782D01*
X-1768D01*
X-1686Y95760D01*
X-1599Y95744D01*
X-1511Y95733D01*
X-1424Y95727D01*
X-1353Y95722D01*
X-1293Y95716D01*
X-1151D01*
X-1063Y95722D01*
X-987Y95733D01*
X-916Y95744D01*
X-856Y95754D01*
X-796Y95771D01*
X-741Y95787D01*
X-698Y95804D01*
X-659Y95820D01*
X-621Y95836D01*
X-594Y95853D01*
X-572Y95864D01*
X-539Y95885D01*
X-528Y95891D01*
X-457Y95962D01*
X-403Y96038D01*
X-370Y96120D01*
X-343Y96197D01*
X-326Y96268D01*
X-321Y96322D01*
X-315Y96344D01*
Y96360D01*
Y96366D01*
Y96372D01*
X-326Y96492D01*
X-348Y96595D01*
X-386Y96688D01*
X-425Y96770D01*
X-463Y96830D01*
X-501Y96879D01*
X-523Y96907D01*
X-534Y96917D01*
X-621Y96988D01*
X-720Y97043D01*
X-823Y97081D01*
X-916Y97109D01*
X-998Y97125D01*
X-1036Y97130D01*
X-1069D01*
X-1091Y97136D01*
X-1129D01*
X-1244Y97130D01*
X-1347Y97119D01*
X-1435Y97098D01*
X-1511Y97076D01*
X-1571Y97054D01*
X-1615Y97032D01*
X-1642Y97021D01*
X-1653Y97016D01*
X-1691Y96988D01*
X-1724Y96950D01*
X-1751Y96917D01*
X-1768Y96885D01*
X-1784Y96852D01*
X-1795Y96825D01*
X-1801Y96808D01*
Y96803D01*
X-1812Y96754D01*
X-1828Y96715D01*
X-1839Y96683D01*
X-1855Y96655D01*
X-1866Y96639D01*
X-1877Y96628D01*
X-1883Y96617D01*
X-1915Y96595D01*
X-1942Y96584D01*
X-2003Y96562D01*
X-2030D01*
X-2052Y96557D01*
X-2068D01*
X-2112Y96562D01*
X-2145Y96568D01*
X-2205Y96595D01*
X-2226Y96612D01*
X-2243Y96623D01*
X-2248Y96628D01*
X-2254Y96633D01*
X-2281Y96666D01*
X-2297Y96710D01*
X-2319Y96797D01*
X-2325Y96836D01*
X-2330Y96868D01*
Y96896D01*
Y96901D01*
Y97234D01*
X-2325Y97300D01*
X-2319Y97354D01*
X-2308Y97398D01*
X-2292Y97436D01*
X-2276Y97464D01*
X-2265Y97485D01*
X-2259Y97496D01*
X-2254Y97502D01*
X-2226Y97529D01*
X-2194Y97551D01*
X-2166Y97562D01*
X-2134Y97573D01*
X-2106Y97578D01*
X-2090Y97584D01*
X-2068D01*
X-2030Y97578D01*
X-1997Y97567D01*
X-1937Y97540D01*
X-1910Y97518D01*
X-1893Y97507D01*
X-1883Y97496D01*
X-1877Y97491D01*
X-1757Y97545D01*
X-1697Y97567D01*
X-1648Y97584D01*
X-1599Y97594D01*
X-1566Y97605D01*
X-1544Y97611D01*
X-1533D01*
X-1391Y97638D01*
X-1326Y97644D01*
X-1266Y97649D01*
X-1211Y97654D01*
X-1134D01*
X-1025Y97649D01*
D02*
G37*
G36*
X-16641Y97649D02*
X-16537Y97638D01*
X-16439Y97622D01*
X-16346Y97600D01*
X-16259Y97567D01*
X-16177Y97540D01*
X-16106Y97507D01*
X-16040Y97474D01*
X-15980Y97436D01*
X-15926Y97403D01*
X-15882Y97376D01*
X-15844Y97349D01*
X-15816Y97321D01*
X-15795Y97305D01*
X-15784Y97294D01*
X-15778Y97289D01*
X-15713Y97218D01*
X-15658Y97147D01*
X-15609Y97070D01*
X-15565Y96994D01*
X-15532Y96912D01*
X-15500Y96836D01*
X-15456Y96694D01*
X-15445Y96628D01*
X-15434Y96568D01*
X-15423Y96513D01*
X-15418Y96464D01*
X-15412Y96426D01*
Y96399D01*
Y96377D01*
Y96371D01*
X-15418Y96262D01*
X-15434Y96164D01*
X-15456Y96066D01*
X-15483Y95978D01*
X-15516Y95896D01*
X-15554Y95820D01*
X-15598Y95749D01*
X-15642Y95689D01*
X-15680Y95629D01*
X-15724Y95580D01*
X-15762Y95542D01*
X-15795Y95503D01*
X-15822Y95476D01*
X-15844Y95460D01*
X-15860Y95449D01*
X-15866Y95443D01*
X-15931Y95400D01*
X-16002Y95361D01*
X-16155Y95301D01*
X-16313Y95258D01*
X-16466Y95230D01*
X-16537Y95219D01*
X-16603Y95209D01*
X-16657Y95203D01*
X-16712D01*
X-16750Y95197D01*
X-16810D01*
X-16936Y95203D01*
X-17050Y95209D01*
X-17154Y95219D01*
X-17258Y95236D01*
X-17351Y95252D01*
X-17433Y95268D01*
X-17509Y95290D01*
X-17580Y95312D01*
X-17640Y95334D01*
X-17689Y95356D01*
X-17733Y95372D01*
X-17771Y95389D01*
X-17798Y95405D01*
X-17820Y95416D01*
X-17831Y95427D01*
X-17837D01*
X-17880Y95454D01*
X-17919Y95487D01*
X-17973Y95542D01*
X-18017Y95596D01*
X-18049Y95651D01*
X-18066Y95689D01*
X-18071Y95727D01*
X-18077Y95749D01*
Y95754D01*
X-18071Y95793D01*
X-18066Y95831D01*
X-18039Y95891D01*
X-18022Y95913D01*
X-18006Y95929D01*
X-18000Y95935D01*
X-17995Y95940D01*
X-17968Y95967D01*
X-17935Y95989D01*
X-17902Y96000D01*
X-17875Y96011D01*
X-17853Y96017D01*
X-17831Y96022D01*
X-17815D01*
X-17782Y96017D01*
X-17744Y96006D01*
X-17678Y95973D01*
X-17651Y95951D01*
X-17629Y95935D01*
X-17618Y95924D01*
X-17613Y95918D01*
X-17569Y95885D01*
X-17531Y95858D01*
X-17460Y95815D01*
X-17427Y95798D01*
X-17405Y95787D01*
X-17389Y95782D01*
X-17383D01*
X-17301Y95760D01*
X-17214Y95744D01*
X-17127Y95733D01*
X-17039Y95727D01*
X-16968Y95722D01*
X-16908Y95716D01*
X-16766D01*
X-16679Y95722D01*
X-16603Y95733D01*
X-16532Y95744D01*
X-16472Y95754D01*
X-16411Y95771D01*
X-16357Y95787D01*
X-16313Y95804D01*
X-16275Y95820D01*
X-16237Y95836D01*
X-16209Y95853D01*
X-16188Y95864D01*
X-16155Y95885D01*
X-16144Y95891D01*
X-16073Y95962D01*
X-16018Y96038D01*
X-15986Y96120D01*
X-15958Y96197D01*
X-15942Y96268D01*
X-15936Y96322D01*
X-15931Y96344D01*
Y96360D01*
Y96366D01*
Y96371D01*
X-15942Y96492D01*
X-15964Y96595D01*
X-16002Y96688D01*
X-16040Y96770D01*
X-16079Y96830D01*
X-16117Y96879D01*
X-16138Y96907D01*
X-16149Y96917D01*
X-16237Y96988D01*
X-16335Y97043D01*
X-16439Y97081D01*
X-16532Y97109D01*
X-16613Y97125D01*
X-16652Y97130D01*
X-16684D01*
X-16706Y97136D01*
X-16745D01*
X-16859Y97130D01*
X-16963Y97119D01*
X-17050Y97098D01*
X-17127Y97076D01*
X-17187Y97054D01*
X-17231Y97032D01*
X-17258Y97021D01*
X-17269Y97016D01*
X-17307Y96988D01*
X-17340Y96950D01*
X-17367Y96917D01*
X-17383Y96885D01*
X-17400Y96852D01*
X-17411Y96825D01*
X-17416Y96808D01*
Y96803D01*
X-17427Y96754D01*
X-17444Y96715D01*
X-17454Y96683D01*
X-17471Y96655D01*
X-17482Y96639D01*
X-17493Y96628D01*
X-17498Y96617D01*
X-17531Y96595D01*
X-17558Y96584D01*
X-17618Y96562D01*
X-17646D01*
X-17667Y96557D01*
X-17684D01*
X-17727Y96562D01*
X-17760Y96568D01*
X-17820Y96595D01*
X-17842Y96612D01*
X-17858Y96623D01*
X-17864Y96628D01*
X-17869Y96633D01*
X-17897Y96666D01*
X-17913Y96710D01*
X-17935Y96797D01*
X-17940Y96836D01*
X-17946Y96868D01*
Y96896D01*
Y96901D01*
Y97234D01*
X-17940Y97300D01*
X-17935Y97354D01*
X-17924Y97398D01*
X-17908Y97436D01*
X-17891Y97463D01*
X-17880Y97485D01*
X-17875Y97496D01*
X-17869Y97502D01*
X-17842Y97529D01*
X-17809Y97551D01*
X-17782Y97562D01*
X-17749Y97573D01*
X-17722Y97578D01*
X-17706Y97584D01*
X-17684D01*
X-17646Y97578D01*
X-17613Y97567D01*
X-17553Y97540D01*
X-17525Y97518D01*
X-17509Y97507D01*
X-17498Y97496D01*
X-17493Y97491D01*
X-17372Y97545D01*
X-17312Y97567D01*
X-17263Y97584D01*
X-17214Y97594D01*
X-17181Y97605D01*
X-17160Y97611D01*
X-17149D01*
X-17007Y97638D01*
X-16941Y97644D01*
X-16881Y97649D01*
X-16826Y97654D01*
X-16750D01*
X-16641Y97649D01*
D02*
G37*
G36*
X-2980Y98572D02*
X-2920Y98566D01*
X-2871Y98555D01*
X-2833Y98539D01*
X-2805Y98523D01*
X-2783Y98512D01*
X-2772Y98506D01*
X-2767Y98501D01*
X-2740Y98474D01*
X-2723Y98441D01*
X-2702Y98381D01*
X-2696Y98353D01*
X-2691Y98337D01*
Y98321D01*
Y98315D01*
X-2696Y98277D01*
X-2702Y98239D01*
X-2729Y98179D01*
X-2745Y98157D01*
X-2756Y98141D01*
X-2761Y98135D01*
X-2767Y98130D01*
X-2805Y98108D01*
X-2843Y98091D01*
X-2936Y98070D01*
X-2980Y98064D01*
X-3013Y98059D01*
X-3133D01*
Y95798D01*
X-3067D01*
X-3013Y95793D01*
X-2969Y95782D01*
X-2936Y95776D01*
X-2909Y95765D01*
X-2892Y95754D01*
X-2887Y95749D01*
X-2882D01*
X-2849Y95711D01*
X-2822Y95673D01*
X-2805Y95640D01*
X-2789Y95607D01*
X-2783Y95580D01*
X-2778Y95558D01*
Y95542D01*
Y95536D01*
X-2783Y95498D01*
X-2789Y95460D01*
X-2816Y95400D01*
X-2833Y95378D01*
X-2843Y95361D01*
X-2849Y95356D01*
X-2854Y95350D01*
X-2892Y95329D01*
X-2931Y95312D01*
X-3024Y95290D01*
X-3067Y95285D01*
X-3100Y95279D01*
X-3652D01*
X-3717Y95285D01*
X-3777Y95290D01*
X-3821Y95301D01*
X-3859Y95318D01*
X-3886Y95329D01*
X-3908Y95340D01*
X-3919Y95345D01*
X-3924Y95350D01*
X-3952Y95378D01*
X-3974Y95411D01*
X-3985Y95443D01*
X-3996Y95471D01*
X-4001Y95498D01*
X-4006Y95520D01*
Y95531D01*
Y95536D01*
X-4001Y95580D01*
X-3990Y95618D01*
X-3952Y95683D01*
X-3930Y95711D01*
X-3914Y95733D01*
X-3903Y95744D01*
X-3897Y95749D01*
X-3870Y95765D01*
X-3837Y95776D01*
X-3755Y95793D01*
X-3717Y95798D01*
X-3652D01*
Y96776D01*
X-3733Y96852D01*
X-3804Y96917D01*
X-3864Y96967D01*
X-3914Y97005D01*
X-3957Y97032D01*
X-3985Y97054D01*
X-4006Y97059D01*
X-4012Y97065D01*
X-4066Y97087D01*
X-4116Y97109D01*
X-4170Y97119D01*
X-4214Y97125D01*
X-4258Y97130D01*
X-4290Y97136D01*
X-4318D01*
X-4405Y97130D01*
X-4476Y97119D01*
X-4536Y97098D01*
X-4591Y97081D01*
X-4629Y97059D01*
X-4656Y97038D01*
X-4673Y97027D01*
X-4678Y97021D01*
X-4711Y96988D01*
X-4733Y96945D01*
X-4749Y96901D01*
X-4760Y96852D01*
X-4765Y96808D01*
X-4771Y96776D01*
Y96754D01*
Y96743D01*
Y95798D01*
X-4705D01*
X-4651Y95793D01*
X-4607Y95782D01*
X-4574Y95776D01*
X-4547Y95765D01*
X-4531Y95754D01*
X-4525Y95749D01*
X-4520D01*
X-4487Y95711D01*
X-4460Y95673D01*
X-4443Y95640D01*
X-4427Y95607D01*
X-4421Y95580D01*
X-4416Y95558D01*
Y95542D01*
Y95536D01*
X-4421Y95498D01*
X-4427Y95460D01*
X-4454Y95400D01*
X-4470Y95378D01*
X-4481Y95361D01*
X-4487Y95356D01*
X-4492Y95350D01*
X-4531Y95329D01*
X-4569Y95312D01*
X-4662Y95290D01*
X-4705Y95285D01*
X-4738Y95279D01*
X-5289D01*
X-5355Y95285D01*
X-5415Y95290D01*
X-5459Y95301D01*
X-5497Y95318D01*
X-5524Y95329D01*
X-5546Y95340D01*
X-5557Y95345D01*
X-5562Y95350D01*
X-5590Y95378D01*
X-5612Y95411D01*
X-5623Y95443D01*
X-5633Y95471D01*
X-5639Y95498D01*
X-5644Y95520D01*
Y95531D01*
Y95536D01*
X-5639Y95580D01*
X-5628Y95618D01*
X-5590Y95683D01*
X-5568Y95711D01*
X-5552Y95733D01*
X-5541Y95744D01*
X-5535Y95749D01*
X-5508Y95765D01*
X-5475Y95776D01*
X-5393Y95793D01*
X-5355Y95798D01*
X-5289D01*
Y96776D01*
X-5284Y96885D01*
X-5268Y96978D01*
X-5246Y97065D01*
X-5218Y97136D01*
X-5191Y97196D01*
X-5169Y97240D01*
X-5153Y97261D01*
X-5147Y97272D01*
X-5093Y97343D01*
X-5033Y97403D01*
X-4978Y97452D01*
X-4924Y97491D01*
X-4874Y97523D01*
X-4836Y97545D01*
X-4809Y97556D01*
X-4798Y97562D01*
X-4716Y97594D01*
X-4634Y97616D01*
X-4552Y97633D01*
X-4476Y97644D01*
X-4416Y97649D01*
X-4361Y97654D01*
X-4318D01*
X-4192Y97649D01*
X-4132Y97638D01*
X-4083Y97633D01*
X-4039Y97622D01*
X-4001Y97611D01*
X-3979Y97605D01*
X-3974D01*
X-3853Y97562D01*
X-3799Y97540D01*
X-3750Y97518D01*
X-3712Y97496D01*
X-3679Y97480D01*
X-3657Y97469D01*
X-3652Y97464D01*
Y98577D01*
X-3045D01*
X-2980Y98572D01*
D02*
G37*
G36*
X-18596Y98572D02*
X-18535Y98566D01*
X-18486Y98555D01*
X-18448Y98539D01*
X-18421Y98523D01*
X-18399Y98512D01*
X-18388Y98506D01*
X-18383Y98501D01*
X-18355Y98474D01*
X-18339Y98441D01*
X-18317Y98381D01*
X-18312Y98353D01*
X-18306Y98337D01*
Y98321D01*
Y98315D01*
X-18312Y98277D01*
X-18317Y98239D01*
X-18344Y98179D01*
X-18361Y98157D01*
X-18372Y98141D01*
X-18377Y98135D01*
X-18383Y98130D01*
X-18421Y98108D01*
X-18459Y98091D01*
X-18552Y98070D01*
X-18596Y98064D01*
X-18628Y98059D01*
X-18748D01*
Y95798D01*
X-18683D01*
X-18628Y95793D01*
X-18585Y95782D01*
X-18552Y95776D01*
X-18525Y95765D01*
X-18508Y95754D01*
X-18503Y95749D01*
X-18497D01*
X-18464Y95711D01*
X-18437Y95673D01*
X-18421Y95640D01*
X-18404Y95607D01*
X-18399Y95580D01*
X-18394Y95558D01*
Y95542D01*
Y95536D01*
X-18399Y95498D01*
X-18404Y95460D01*
X-18432Y95400D01*
X-18448Y95378D01*
X-18459Y95361D01*
X-18464Y95356D01*
X-18470Y95350D01*
X-18508Y95329D01*
X-18546Y95312D01*
X-18639Y95290D01*
X-18683Y95285D01*
X-18716Y95279D01*
X-19267D01*
X-19333Y95285D01*
X-19393Y95290D01*
X-19436Y95301D01*
X-19475Y95318D01*
X-19502Y95329D01*
X-19524Y95340D01*
X-19535Y95345D01*
X-19540Y95350D01*
X-19567Y95378D01*
X-19589Y95411D01*
X-19600Y95443D01*
X-19611Y95470D01*
X-19616Y95498D01*
X-19622Y95520D01*
Y95531D01*
Y95536D01*
X-19616Y95580D01*
X-19606Y95618D01*
X-19567Y95683D01*
X-19546Y95711D01*
X-19529Y95733D01*
X-19518Y95744D01*
X-19513Y95749D01*
X-19486Y95765D01*
X-19453Y95776D01*
X-19371Y95793D01*
X-19333Y95798D01*
X-19267D01*
Y96776D01*
X-19349Y96852D01*
X-19420Y96917D01*
X-19480Y96967D01*
X-19529Y97005D01*
X-19573Y97032D01*
X-19600Y97054D01*
X-19622Y97059D01*
X-19627Y97065D01*
X-19682Y97087D01*
X-19731Y97109D01*
X-19786Y97119D01*
X-19829Y97125D01*
X-19873Y97130D01*
X-19906Y97136D01*
X-19933D01*
X-20021Y97130D01*
X-20092Y97119D01*
X-20152Y97098D01*
X-20206Y97081D01*
X-20244Y97059D01*
X-20272Y97038D01*
X-20288Y97027D01*
X-20294Y97021D01*
X-20326Y96988D01*
X-20348Y96945D01*
X-20365Y96901D01*
X-20376Y96852D01*
X-20381Y96808D01*
X-20386Y96776D01*
Y96754D01*
Y96743D01*
Y95798D01*
X-20321D01*
X-20266Y95793D01*
X-20223Y95782D01*
X-20190Y95776D01*
X-20163Y95765D01*
X-20146Y95754D01*
X-20141Y95749D01*
X-20135D01*
X-20102Y95711D01*
X-20075Y95673D01*
X-20059Y95640D01*
X-20042Y95607D01*
X-20037Y95580D01*
X-20031Y95558D01*
Y95542D01*
Y95536D01*
X-20037Y95498D01*
X-20042Y95460D01*
X-20070Y95400D01*
X-20086Y95378D01*
X-20097Y95361D01*
X-20102Y95356D01*
X-20108Y95350D01*
X-20146Y95329D01*
X-20184Y95312D01*
X-20277Y95290D01*
X-20321Y95285D01*
X-20354Y95279D01*
X-20905D01*
X-20971Y95285D01*
X-21031Y95290D01*
X-21074Y95301D01*
X-21113Y95318D01*
X-21140Y95329D01*
X-21162Y95340D01*
X-21173Y95345D01*
X-21178Y95350D01*
X-21205Y95378D01*
X-21227Y95411D01*
X-21238Y95443D01*
X-21249Y95470D01*
X-21254Y95498D01*
X-21260Y95520D01*
Y95531D01*
Y95536D01*
X-21254Y95580D01*
X-21244Y95618D01*
X-21205Y95683D01*
X-21183Y95711D01*
X-21167Y95733D01*
X-21156Y95744D01*
X-21151Y95749D01*
X-21124Y95765D01*
X-21091Y95776D01*
X-21009Y95793D01*
X-20971Y95798D01*
X-20905D01*
Y96776D01*
X-20900Y96885D01*
X-20883Y96978D01*
X-20861Y97065D01*
X-20834Y97136D01*
X-20807Y97196D01*
X-20785Y97240D01*
X-20769Y97261D01*
X-20763Y97272D01*
X-20708Y97343D01*
X-20649Y97403D01*
X-20594Y97452D01*
X-20539Y97491D01*
X-20490Y97523D01*
X-20452Y97545D01*
X-20425Y97556D01*
X-20414Y97562D01*
X-20332Y97594D01*
X-20250Y97616D01*
X-20168Y97633D01*
X-20092Y97644D01*
X-20031Y97649D01*
X-19977Y97654D01*
X-19933D01*
X-19808Y97649D01*
X-19748Y97638D01*
X-19698Y97633D01*
X-19655Y97622D01*
X-19616Y97611D01*
X-19595Y97605D01*
X-19589D01*
X-19469Y97562D01*
X-19414Y97540D01*
X-19365Y97518D01*
X-19327Y97496D01*
X-19294Y97480D01*
X-19273Y97469D01*
X-19267Y97463D01*
Y98577D01*
X-18661D01*
X-18596Y98572D01*
D02*
G37*
G36*
X2300Y97654D02*
X2393Y97644D01*
X2480Y97627D01*
X2562Y97605D01*
X2644Y97578D01*
X2715Y97545D01*
X2786Y97518D01*
X2846Y97485D01*
X2901Y97447D01*
X2950Y97420D01*
X2993Y97387D01*
X3026Y97360D01*
X3053Y97338D01*
X3075Y97321D01*
X3086Y97311D01*
X3092Y97305D01*
X3152Y97240D01*
X3206Y97163D01*
X3255Y97092D01*
X3299Y97016D01*
X3332Y96945D01*
X3359Y96874D01*
X3403Y96732D01*
X3419Y96672D01*
X3430Y96612D01*
X3436Y96557D01*
X3441Y96513D01*
X3447Y96475D01*
Y96448D01*
Y96431D01*
Y96426D01*
X3441Y96328D01*
X3430Y96240D01*
X3414Y96153D01*
X3392Y96066D01*
X3365Y95989D01*
X3332Y95918D01*
X3305Y95853D01*
X3266Y95793D01*
X3234Y95738D01*
X3206Y95689D01*
X3173Y95645D01*
X3146Y95613D01*
X3124Y95585D01*
X3108Y95563D01*
X3097Y95552D01*
X3092Y95547D01*
X3021Y95487D01*
X2950Y95432D01*
X2873Y95383D01*
X2802Y95345D01*
X2726Y95312D01*
X2649Y95285D01*
X2513Y95241D01*
X2447Y95225D01*
X2387Y95214D01*
X2333Y95209D01*
X2289Y95203D01*
X2251Y95198D01*
X2202D01*
X2065Y95209D01*
X2005Y95214D01*
X1950Y95225D01*
X1901Y95236D01*
X1869Y95241D01*
X1841Y95252D01*
X1836D01*
X1705Y95301D01*
X1645Y95329D01*
X1590Y95356D01*
X1546Y95378D01*
X1508Y95400D01*
X1486Y95411D01*
X1481Y95416D01*
Y95170D01*
X1486Y95099D01*
X1503Y95034D01*
X1525Y94979D01*
X1546Y94936D01*
X1568Y94897D01*
X1590Y94864D01*
X1606Y94848D01*
X1612Y94843D01*
X1667Y94799D01*
X1727Y94766D01*
X1787Y94744D01*
X1847Y94728D01*
X1901Y94717D01*
X1945Y94712D01*
X2562D01*
X2627Y94706D01*
X2682Y94701D01*
X2726Y94690D01*
X2764Y94679D01*
X2791Y94662D01*
X2813Y94652D01*
X2824Y94646D01*
X2829Y94641D01*
X2857Y94613D01*
X2873Y94581D01*
X2895Y94520D01*
X2901Y94493D01*
X2906Y94477D01*
Y94460D01*
Y94455D01*
X2901Y94417D01*
X2895Y94379D01*
X2868Y94318D01*
X2851Y94297D01*
X2840Y94280D01*
X2835Y94275D01*
X2829Y94269D01*
X2797Y94242D01*
X2753Y94226D01*
X2666Y94204D01*
X2627Y94198D01*
X2595Y94193D01*
X1972D01*
X1863Y94198D01*
X1759Y94215D01*
X1672Y94242D01*
X1590Y94269D01*
X1525Y94297D01*
X1481Y94324D01*
X1448Y94340D01*
X1437Y94346D01*
X1355Y94406D01*
X1279Y94466D01*
X1219Y94520D01*
X1170Y94581D01*
X1132Y94630D01*
X1104Y94668D01*
X1088Y94690D01*
X1082Y94701D01*
X1044Y94777D01*
X1011Y94859D01*
X989Y94941D01*
X979Y95012D01*
X968Y95077D01*
X962Y95132D01*
Y95165D01*
Y95170D01*
Y95176D01*
Y97070D01*
X875D01*
X809Y97076D01*
X749Y97081D01*
X706Y97092D01*
X667Y97109D01*
X640Y97119D01*
X618Y97130D01*
X607Y97136D01*
X602Y97141D01*
X575Y97169D01*
X553Y97201D01*
X542Y97234D01*
X531Y97261D01*
X525Y97289D01*
X520Y97311D01*
Y97321D01*
Y97327D01*
X525Y97371D01*
X531Y97403D01*
X558Y97464D01*
X575Y97485D01*
X591Y97502D01*
X596Y97507D01*
X602Y97513D01*
X635Y97540D01*
X678Y97556D01*
X771Y97578D01*
X809Y97584D01*
X842Y97589D01*
X1481D01*
Y97436D01*
X1601Y97507D01*
X1661Y97534D01*
X1716Y97562D01*
X1759Y97578D01*
X1792Y97589D01*
X1814Y97600D01*
X1825D01*
X1890Y97622D01*
X1961Y97633D01*
X2021Y97644D01*
X2081Y97654D01*
X2131D01*
X2169Y97660D01*
X2202D01*
X2300Y97654D01*
D02*
G37*
G36*
X-7157Y97649D02*
X-7097Y97644D01*
X-7037Y97638D01*
X-6988Y97633D01*
X-6949Y97627D01*
X-6927Y97622D01*
X-6917D01*
X-6769Y97594D01*
X-6704Y97578D01*
X-6644Y97567D01*
X-6594Y97556D01*
X-6556Y97545D01*
X-6534Y97534D01*
X-6523D01*
X-6474Y97518D01*
X-6436Y97507D01*
X-6403Y97496D01*
X-6376Y97485D01*
X-6354Y97474D01*
X-6343Y97469D01*
X-6332Y97464D01*
X-6305Y97442D01*
X-6283Y97414D01*
X-6267Y97398D01*
X-6261Y97387D01*
X-6250Y97349D01*
X-6245Y97311D01*
X-6239Y97283D01*
Y97278D01*
Y97272D01*
X-6245Y97229D01*
X-6250Y97196D01*
X-6278Y97136D01*
X-6289Y97114D01*
X-6300Y97098D01*
X-6305Y97087D01*
X-6311Y97081D01*
X-6338Y97059D01*
X-6371Y97043D01*
X-6425Y97021D01*
X-6447Y97016D01*
X-6469Y97010D01*
X-6518D01*
X-6551Y97016D01*
X-6622Y97027D01*
X-6649Y97032D01*
X-6676Y97038D01*
X-6693Y97043D01*
X-6698D01*
X-6829Y97076D01*
X-6949Y97098D01*
X-7053Y97114D01*
X-7140Y97125D01*
X-7206Y97130D01*
X-7255Y97136D01*
X-7299D01*
X-7397Y97130D01*
X-7479Y97125D01*
X-7544Y97114D01*
X-7599Y97098D01*
X-7637Y97081D01*
X-7659Y97070D01*
X-7676Y97065D01*
X-7681Y97059D01*
X-7714Y97027D01*
X-7741Y96999D01*
X-7757Y96961D01*
X-7774Y96934D01*
X-7779Y96907D01*
X-7785Y96885D01*
Y96868D01*
Y96863D01*
Y96737D01*
X-7670Y96754D01*
X-7566Y96770D01*
X-7474Y96781D01*
X-7392Y96786D01*
X-7326Y96792D01*
X-7233D01*
X-7124Y96786D01*
X-7026Y96781D01*
X-6927Y96765D01*
X-6840Y96748D01*
X-6758Y96726D01*
X-6682Y96705D01*
X-6611Y96677D01*
X-6551Y96650D01*
X-6496Y96623D01*
X-6447Y96595D01*
X-6403Y96574D01*
X-6371Y96552D01*
X-6343Y96535D01*
X-6327Y96519D01*
X-6316Y96513D01*
X-6311Y96508D01*
X-6250Y96453D01*
X-6201Y96404D01*
X-6158Y96350D01*
X-6119Y96295D01*
X-6087Y96246D01*
X-6059Y96197D01*
X-6021Y96104D01*
X-5994Y96022D01*
X-5983Y95962D01*
X-5977Y95940D01*
Y95924D01*
Y95913D01*
Y95907D01*
X-5983Y95858D01*
X-5988Y95809D01*
X-6021Y95716D01*
X-6059Y95634D01*
X-6109Y95558D01*
X-6158Y95498D01*
X-6201Y95454D01*
X-6229Y95427D01*
X-6234Y95416D01*
X-6239D01*
X-6343Y95345D01*
X-6458Y95290D01*
X-6567Y95252D01*
X-6676Y95225D01*
X-6769Y95209D01*
X-6813Y95203D01*
X-6846D01*
X-6878Y95198D01*
X-6917D01*
X-7069Y95203D01*
X-7140Y95214D01*
X-7206Y95225D01*
X-7266Y95230D01*
X-7310Y95241D01*
X-7337Y95247D01*
X-7348D01*
X-7435Y95268D01*
X-7517Y95290D01*
X-7594Y95318D01*
X-7659Y95340D01*
X-7708Y95367D01*
X-7752Y95383D01*
X-7774Y95394D01*
X-7785Y95400D01*
Y95279D01*
X-8391D01*
X-8456Y95285D01*
X-8516Y95290D01*
X-8560Y95301D01*
X-8598Y95318D01*
X-8625Y95329D01*
X-8647Y95340D01*
X-8658Y95345D01*
X-8664Y95350D01*
X-8691Y95378D01*
X-8713Y95411D01*
X-8724Y95443D01*
X-8735Y95471D01*
X-8740Y95498D01*
X-8746Y95520D01*
Y95531D01*
Y95536D01*
X-8740Y95580D01*
X-8735Y95613D01*
X-8708Y95673D01*
X-8691Y95694D01*
X-8675Y95711D01*
X-8669Y95716D01*
X-8664Y95722D01*
X-8631Y95749D01*
X-8587Y95765D01*
X-8495Y95787D01*
X-8456Y95793D01*
X-8423Y95798D01*
X-8303D01*
Y96868D01*
X-8298Y96934D01*
X-8292Y96999D01*
X-8260Y97114D01*
X-8216Y97212D01*
X-8167Y97294D01*
X-8118Y97354D01*
X-8074Y97403D01*
X-8041Y97431D01*
X-8036Y97442D01*
X-8030D01*
X-7921Y97513D01*
X-7801Y97567D01*
X-7676Y97605D01*
X-7555Y97627D01*
X-7446Y97644D01*
X-7402Y97649D01*
X-7364D01*
X-7326Y97654D01*
X-7282D01*
X-7157Y97649D01*
D02*
G37*
G36*
X-12475Y96519D02*
X-14653Y96519D01*
Y96994D01*
X-12475Y96994D01*
Y96519D01*
D02*
G37*
G36*
X12690Y97584D02*
X12750Y97578D01*
X12794Y97567D01*
X12832Y97551D01*
X12859Y97534D01*
X12881Y97523D01*
X12892Y97518D01*
X12898Y97513D01*
X12925Y97485D01*
X12942Y97452D01*
X12963Y97392D01*
X12969Y97365D01*
X12974Y97349D01*
Y97332D01*
Y97327D01*
X12969Y97289D01*
X12963Y97250D01*
X12936Y97190D01*
X12920Y97169D01*
X12909Y97152D01*
X12903Y97147D01*
X12898Y97141D01*
X12865Y97119D01*
X12821Y97103D01*
X12729Y97081D01*
X12690Y97076D01*
X12657Y97070D01*
X12625D01*
X11718Y95290D01*
X12013Y94712D01*
X12532D01*
X12597Y94706D01*
X12657Y94701D01*
X12707Y94690D01*
X12745Y94679D01*
X12772Y94662D01*
X12794Y94652D01*
X12805Y94646D01*
X12810Y94641D01*
X12838Y94613D01*
X12854Y94581D01*
X12876Y94520D01*
X12881Y94493D01*
X12887Y94477D01*
Y94460D01*
Y94455D01*
X12881Y94417D01*
X12876Y94379D01*
X12849Y94318D01*
X12832Y94297D01*
X12821Y94280D01*
X12816Y94275D01*
X12810Y94269D01*
X12772Y94242D01*
X12734Y94226D01*
X12641Y94204D01*
X12597Y94198D01*
X12565Y94193D01*
X11238D01*
X11167Y94198D01*
X11112Y94204D01*
X11063Y94215D01*
X11025Y94231D01*
X10998Y94248D01*
X10976Y94258D01*
X10965Y94264D01*
X10960Y94269D01*
X10932Y94297D01*
X10910Y94329D01*
X10899Y94362D01*
X10888Y94389D01*
X10883Y94417D01*
X10878Y94439D01*
Y94450D01*
Y94455D01*
X10883Y94499D01*
X10905Y94542D01*
X10927Y94586D01*
X10960Y94624D01*
X10987Y94662D01*
X11014Y94690D01*
X11036Y94706D01*
X11041Y94712D01*
X11434D01*
X10233Y97070D01*
X10168Y97076D01*
X10108Y97081D01*
X10064Y97092D01*
X10026Y97109D01*
X9999Y97119D01*
X9977Y97130D01*
X9966Y97136D01*
X9960Y97141D01*
X9933Y97169D01*
X9911Y97201D01*
X9900Y97234D01*
X9889Y97261D01*
X9884Y97289D01*
X9878Y97311D01*
Y97321D01*
Y97327D01*
X9884Y97371D01*
X9889Y97403D01*
X9917Y97464D01*
X9933Y97485D01*
X9949Y97502D01*
X9955Y97507D01*
X9960Y97513D01*
X9993Y97540D01*
X10037Y97556D01*
X10130Y97578D01*
X10168Y97584D01*
X10200Y97589D01*
X10818D01*
X10883Y97584D01*
X10943Y97578D01*
X10987Y97567D01*
X11025Y97551D01*
X11052Y97534D01*
X11074Y97523D01*
X11085Y97518D01*
X11090Y97513D01*
X11118Y97485D01*
X11134Y97452D01*
X11156Y97392D01*
X11162Y97365D01*
X11167Y97349D01*
Y97332D01*
Y97327D01*
X11162Y97289D01*
X11156Y97250D01*
X11129Y97190D01*
X11112Y97169D01*
X11101Y97152D01*
X11096Y97147D01*
X11090Y97141D01*
X11058Y97119D01*
X11014Y97103D01*
X10921Y97081D01*
X10883Y97076D01*
X10850Y97070D01*
X10818D01*
X11429Y95864D01*
X12041Y97070D01*
X11975Y97076D01*
X11915Y97081D01*
X11871Y97092D01*
X11833Y97109D01*
X11806Y97119D01*
X11784Y97130D01*
X11773Y97136D01*
X11767Y97141D01*
X11740Y97169D01*
X11718Y97201D01*
X11708Y97234D01*
X11697Y97261D01*
X11691Y97289D01*
X11686Y97311D01*
Y97321D01*
Y97327D01*
X11691Y97371D01*
X11697Y97403D01*
X11724Y97464D01*
X11740Y97485D01*
X11757Y97502D01*
X11762Y97507D01*
X11767Y97513D01*
X11800Y97540D01*
X11844Y97556D01*
X11937Y97578D01*
X11975Y97584D01*
X12008Y97589D01*
X12625D01*
X12690Y97584D01*
D02*
G37*
G36*
X-22778Y97649D02*
X-22685Y97638D01*
X-22592Y97622D01*
X-22505Y97600D01*
X-22346Y97545D01*
X-22276Y97513D01*
X-22210Y97485D01*
X-22150Y97452D01*
X-22101Y97420D01*
X-22052Y97392D01*
X-22014Y97365D01*
X-21981Y97343D01*
X-21959Y97327D01*
X-21948Y97316D01*
X-21942Y97311D01*
X-21871Y97245D01*
X-21811Y97174D01*
X-21757Y97103D01*
X-21708Y97027D01*
X-21669Y96950D01*
X-21637Y96874D01*
X-21609Y96803D01*
X-21588Y96732D01*
X-21571Y96666D01*
X-21560Y96606D01*
X-21549Y96552D01*
X-21544Y96508D01*
Y96470D01*
X-21539Y96437D01*
Y96421D01*
Y96415D01*
X-21544Y96322D01*
X-21555Y96229D01*
X-21571Y96142D01*
X-21599Y96066D01*
X-21659Y95913D01*
X-21691Y95847D01*
X-21724Y95787D01*
X-21757Y95733D01*
X-21795Y95689D01*
X-21822Y95645D01*
X-21850Y95613D01*
X-21877Y95585D01*
X-21893Y95563D01*
X-21904Y95552D01*
X-21910Y95547D01*
X-21981Y95487D01*
X-22063Y95432D01*
X-22144Y95383D01*
X-22226Y95345D01*
X-22308Y95312D01*
X-22390Y95285D01*
X-22549Y95241D01*
X-22625Y95225D01*
X-22691Y95214D01*
X-22751Y95209D01*
X-22805Y95203D01*
X-22849Y95197D01*
X-22909D01*
X-23045Y95203D01*
X-23182Y95209D01*
X-23307Y95225D01*
X-23428Y95241D01*
X-23477Y95247D01*
X-23526Y95252D01*
X-23564Y95263D01*
X-23602Y95268D01*
X-23630Y95274D01*
X-23652D01*
X-23662Y95279D01*
X-23668D01*
X-23739Y95296D01*
X-23804Y95312D01*
X-23859Y95329D01*
X-23914Y95345D01*
X-23957Y95361D01*
X-23995Y95378D01*
X-24066Y95405D01*
X-24110Y95427D01*
X-24143Y95443D01*
X-24159Y95454D01*
X-24165Y95460D01*
X-24192Y95487D01*
X-24208Y95514D01*
X-24230Y95569D01*
X-24236Y95596D01*
X-24241Y95613D01*
Y95623D01*
Y95629D01*
X-24236Y95673D01*
X-24230Y95705D01*
X-24203Y95765D01*
X-24186Y95787D01*
X-24176Y95804D01*
X-24170Y95809D01*
X-24165Y95815D01*
X-24137Y95842D01*
X-24110Y95858D01*
X-24050Y95880D01*
X-24028Y95885D01*
X-24006Y95891D01*
X-23957D01*
X-23914Y95880D01*
X-23826Y95864D01*
X-23783Y95853D01*
X-23750Y95847D01*
X-23728Y95836D01*
X-23717D01*
X-23548Y95798D01*
X-23395Y95765D01*
X-23264Y95744D01*
X-23204Y95738D01*
X-23155Y95733D01*
X-23106Y95727D01*
X-23062Y95722D01*
X-23029D01*
X-23002Y95716D01*
X-22947D01*
X-22821Y95722D01*
X-22712Y95733D01*
X-22614Y95754D01*
X-22532Y95776D01*
X-22467Y95798D01*
X-22423Y95820D01*
X-22396Y95831D01*
X-22385Y95836D01*
X-22314Y95885D01*
X-22254Y95940D01*
X-22205Y95995D01*
X-22166Y96049D01*
X-22134Y96098D01*
X-22117Y96137D01*
X-22106Y96158D01*
X-22101Y96169D01*
X-24241D01*
X-24236Y96388D01*
X-24230Y96481D01*
X-24225Y96562D01*
X-24208Y96639D01*
X-24197Y96705D01*
X-24181Y96759D01*
X-24165Y96803D01*
X-24159Y96825D01*
X-24154Y96836D01*
X-24105Y96934D01*
X-24056Y97021D01*
X-24006Y97103D01*
X-23957Y97169D01*
X-23919Y97223D01*
X-23886Y97267D01*
X-23859Y97289D01*
X-23854Y97300D01*
X-23799Y97349D01*
X-23739Y97392D01*
X-23668Y97436D01*
X-23608Y97469D01*
X-23548Y97496D01*
X-23499Y97523D01*
X-23466Y97534D01*
X-23460Y97540D01*
X-23455D01*
X-23357Y97578D01*
X-23253Y97605D01*
X-23155Y97627D01*
X-23067Y97638D01*
X-22991Y97649D01*
X-22931Y97654D01*
X-22876D01*
X-22778Y97649D01*
D02*
G37*
G36*
X9048Y97584D02*
X9109Y97578D01*
X9158Y97567D01*
X9196Y97551D01*
X9223Y97534D01*
X9245Y97523D01*
X9256Y97518D01*
X9261Y97513D01*
X9289Y97485D01*
X9305Y97452D01*
X9327Y97392D01*
X9332Y97365D01*
X9338Y97349D01*
Y97332D01*
Y97327D01*
X9332Y97289D01*
X9327Y97250D01*
X9300Y97190D01*
X9283Y97169D01*
X9272Y97152D01*
X9267Y97147D01*
X9261Y97141D01*
X9223Y97119D01*
X9185Y97103D01*
X9092Y97081D01*
X9048Y97076D01*
X9016Y97070D01*
X8563D01*
Y95798D01*
X9185D01*
X9251Y95793D01*
X9311Y95787D01*
X9360Y95776D01*
X9398Y95760D01*
X9425Y95744D01*
X9447Y95733D01*
X9458Y95727D01*
X9463Y95722D01*
X9491Y95694D01*
X9507Y95662D01*
X9529Y95602D01*
X9534Y95574D01*
X9540Y95558D01*
Y95542D01*
Y95536D01*
X9534Y95498D01*
X9529Y95460D01*
X9502Y95400D01*
X9485Y95378D01*
X9474Y95361D01*
X9469Y95356D01*
X9463Y95350D01*
X9425Y95329D01*
X9387Y95312D01*
X9294Y95290D01*
X9251Y95285D01*
X9218Y95279D01*
X7421D01*
X7356Y95285D01*
X7296Y95290D01*
X7252Y95301D01*
X7214Y95318D01*
X7187Y95329D01*
X7165Y95340D01*
X7154Y95345D01*
X7148Y95350D01*
X7121Y95378D01*
X7099Y95411D01*
X7088Y95443D01*
X7077Y95471D01*
X7072Y95498D01*
X7067Y95520D01*
Y95531D01*
Y95536D01*
X7072Y95580D01*
X7077Y95613D01*
X7105Y95673D01*
X7121Y95694D01*
X7137Y95711D01*
X7143Y95716D01*
X7148Y95722D01*
X7181Y95749D01*
X7225Y95765D01*
X7318Y95787D01*
X7356Y95793D01*
X7389Y95798D01*
X8044D01*
Y97589D01*
X8983D01*
X9048Y97584D01*
D02*
G37*
G36*
X5166Y97644D02*
X5232Y97633D01*
X5286Y97622D01*
X5330Y97611D01*
X5368Y97600D01*
X5390Y97594D01*
X5396Y97589D01*
X5456Y97562D01*
X5516Y97534D01*
X5570Y97507D01*
X5614Y97474D01*
X5652Y97452D01*
X5680Y97431D01*
X5702Y97414D01*
X5707Y97409D01*
Y97589D01*
X6226D01*
X6291Y97584D01*
X6351Y97578D01*
X6400Y97567D01*
X6439Y97551D01*
X6466Y97534D01*
X6488Y97523D01*
X6499Y97518D01*
X6504Y97513D01*
X6531Y97485D01*
X6548Y97452D01*
X6570Y97392D01*
X6575Y97365D01*
X6581Y97349D01*
Y97332D01*
Y97327D01*
X6575Y97289D01*
X6570Y97250D01*
X6542Y97190D01*
X6526Y97169D01*
X6515Y97152D01*
X6510Y97147D01*
X6504Y97141D01*
X6466Y97119D01*
X6428Y97103D01*
X6335Y97081D01*
X6291Y97076D01*
X6258Y97070D01*
X6226D01*
Y95798D01*
X6291D01*
X6346Y95793D01*
X6390Y95782D01*
X6422Y95776D01*
X6449Y95765D01*
X6466Y95754D01*
X6471Y95749D01*
X6477D01*
X6510Y95711D01*
X6537Y95673D01*
X6553Y95640D01*
X6570Y95607D01*
X6575Y95580D01*
X6581Y95558D01*
Y95542D01*
Y95536D01*
X6575Y95498D01*
X6570Y95460D01*
X6542Y95400D01*
X6526Y95378D01*
X6515Y95361D01*
X6510Y95356D01*
X6504Y95350D01*
X6466Y95329D01*
X6428Y95312D01*
X6335Y95290D01*
X6291Y95285D01*
X6258Y95279D01*
X5707D01*
X5641Y95285D01*
X5581Y95290D01*
X5538Y95301D01*
X5500Y95318D01*
X5472Y95329D01*
X5450Y95340D01*
X5439Y95345D01*
X5434Y95350D01*
X5407Y95378D01*
X5385Y95411D01*
X5374Y95443D01*
X5363Y95471D01*
X5358Y95498D01*
X5352Y95520D01*
Y95531D01*
Y95536D01*
X5358Y95580D01*
X5368Y95618D01*
X5407Y95683D01*
X5429Y95711D01*
X5445Y95733D01*
X5456Y95744D01*
X5461Y95749D01*
X5489Y95765D01*
X5521Y95776D01*
X5603Y95793D01*
X5641Y95798D01*
X5707D01*
Y96765D01*
X5630Y96841D01*
X5565Y96907D01*
X5505Y96961D01*
X5456Y96999D01*
X5418Y97032D01*
X5385Y97048D01*
X5368Y97059D01*
X5363Y97065D01*
X5308Y97087D01*
X5254Y97109D01*
X5205Y97119D01*
X5156Y97125D01*
X5112Y97130D01*
X5079Y97136D01*
X5046D01*
X4959Y97130D01*
X4888Y97119D01*
X4828Y97103D01*
X4773Y97087D01*
X4735Y97065D01*
X4708Y97048D01*
X4691Y97038D01*
X4686Y97032D01*
X4653Y96999D01*
X4631Y96961D01*
X4615Y96917D01*
X4604Y96874D01*
X4599Y96841D01*
X4593Y96808D01*
Y96786D01*
Y96781D01*
Y95798D01*
X4659Y95793D01*
X4719Y95787D01*
X4768Y95776D01*
X4806Y95760D01*
X4833Y95744D01*
X4855Y95733D01*
X4866Y95727D01*
X4872Y95722D01*
X4899Y95694D01*
X4915Y95662D01*
X4937Y95602D01*
X4942Y95574D01*
X4948Y95558D01*
Y95542D01*
Y95536D01*
X4942Y95498D01*
X4937Y95460D01*
X4910Y95400D01*
X4893Y95378D01*
X4882Y95361D01*
X4877Y95356D01*
X4872Y95350D01*
X4833Y95329D01*
X4795Y95312D01*
X4702Y95290D01*
X4659Y95285D01*
X4626Y95279D01*
X4074D01*
X4009Y95285D01*
X3949Y95290D01*
X3905Y95301D01*
X3867Y95318D01*
X3840Y95329D01*
X3818Y95340D01*
X3807Y95345D01*
X3801Y95350D01*
X3774Y95378D01*
X3752Y95411D01*
X3741Y95443D01*
X3730Y95471D01*
X3725Y95498D01*
X3720Y95520D01*
Y95531D01*
Y95536D01*
X3725Y95580D01*
X3730Y95613D01*
X3758Y95673D01*
X3774Y95694D01*
X3791Y95711D01*
X3796Y95716D01*
X3801Y95722D01*
X3834Y95749D01*
X3878Y95765D01*
X3971Y95787D01*
X4009Y95793D01*
X4042Y95798D01*
X4074D01*
Y96765D01*
X4085Y96896D01*
X4107Y97016D01*
X4145Y97119D01*
X4184Y97207D01*
X4222Y97272D01*
X4260Y97321D01*
X4282Y97354D01*
X4293Y97365D01*
X4347Y97414D01*
X4402Y97464D01*
X4462Y97502D01*
X4522Y97534D01*
X4642Y97584D01*
X4757Y97616D01*
X4861Y97638D01*
X4910Y97644D01*
X4948Y97649D01*
X4981Y97654D01*
X5101D01*
X5166Y97644D01*
D02*
G37*
G36*
X-26065Y97644D02*
X-25999Y97633D01*
X-25945Y97622D01*
X-25901Y97611D01*
X-25863Y97600D01*
X-25841Y97594D01*
X-25835Y97589D01*
X-25775Y97562D01*
X-25715Y97534D01*
X-25661Y97507D01*
X-25617Y97474D01*
X-25579Y97452D01*
X-25552Y97431D01*
X-25530Y97414D01*
X-25524Y97409D01*
Y97589D01*
X-25005D01*
X-24940Y97584D01*
X-24880Y97578D01*
X-24831Y97567D01*
X-24793Y97551D01*
X-24765Y97534D01*
X-24744Y97523D01*
X-24733Y97518D01*
X-24727Y97513D01*
X-24700Y97485D01*
X-24683Y97452D01*
X-24662Y97392D01*
X-24656Y97365D01*
X-24651Y97349D01*
Y97332D01*
Y97327D01*
X-24656Y97289D01*
X-24662Y97250D01*
X-24689Y97190D01*
X-24705Y97169D01*
X-24716Y97152D01*
X-24722Y97147D01*
X-24727Y97141D01*
X-24765Y97119D01*
X-24803Y97103D01*
X-24896Y97081D01*
X-24940Y97076D01*
X-24973Y97070D01*
X-25005D01*
Y95798D01*
X-24940D01*
X-24885Y95793D01*
X-24842Y95782D01*
X-24809Y95776D01*
X-24782Y95765D01*
X-24765Y95754D01*
X-24760Y95749D01*
X-24754D01*
X-24722Y95711D01*
X-24694Y95673D01*
X-24678Y95640D01*
X-24662Y95607D01*
X-24656Y95580D01*
X-24651Y95558D01*
Y95542D01*
Y95536D01*
X-24656Y95498D01*
X-24662Y95460D01*
X-24689Y95400D01*
X-24705Y95378D01*
X-24716Y95361D01*
X-24722Y95356D01*
X-24727Y95350D01*
X-24765Y95329D01*
X-24803Y95312D01*
X-24896Y95290D01*
X-24940Y95285D01*
X-24973Y95279D01*
X-25524D01*
X-25590Y95285D01*
X-25650Y95290D01*
X-25694Y95301D01*
X-25732Y95318D01*
X-25759Y95329D01*
X-25781Y95340D01*
X-25792Y95345D01*
X-25797Y95350D01*
X-25824Y95378D01*
X-25846Y95411D01*
X-25857Y95443D01*
X-25868Y95470D01*
X-25874Y95498D01*
X-25879Y95520D01*
Y95531D01*
Y95536D01*
X-25874Y95580D01*
X-25863Y95618D01*
X-25824Y95683D01*
X-25803Y95711D01*
X-25786Y95733D01*
X-25775Y95744D01*
X-25770Y95749D01*
X-25743Y95765D01*
X-25710Y95776D01*
X-25628Y95793D01*
X-25590Y95798D01*
X-25524D01*
Y96765D01*
X-25601Y96841D01*
X-25666Y96907D01*
X-25726Y96961D01*
X-25775Y96999D01*
X-25814Y97032D01*
X-25846Y97048D01*
X-25863Y97059D01*
X-25868Y97065D01*
X-25923Y97087D01*
X-25977Y97109D01*
X-26027Y97119D01*
X-26076Y97125D01*
X-26119Y97130D01*
X-26152Y97136D01*
X-26185D01*
X-26272Y97130D01*
X-26343Y97119D01*
X-26403Y97103D01*
X-26458Y97087D01*
X-26496Y97065D01*
X-26523Y97048D01*
X-26540Y97038D01*
X-26545Y97032D01*
X-26578Y96999D01*
X-26600Y96961D01*
X-26616Y96917D01*
X-26627Y96874D01*
X-26633Y96841D01*
X-26638Y96808D01*
Y96786D01*
Y96781D01*
Y95798D01*
X-26573Y95793D01*
X-26513Y95787D01*
X-26463Y95776D01*
X-26425Y95760D01*
X-26398Y95744D01*
X-26376Y95733D01*
X-26365Y95727D01*
X-26360Y95722D01*
X-26332Y95694D01*
X-26316Y95662D01*
X-26294Y95602D01*
X-26289Y95574D01*
X-26283Y95558D01*
Y95542D01*
Y95536D01*
X-26289Y95498D01*
X-26294Y95460D01*
X-26321Y95400D01*
X-26338Y95378D01*
X-26349Y95361D01*
X-26354Y95356D01*
X-26360Y95350D01*
X-26398Y95329D01*
X-26436Y95312D01*
X-26529Y95290D01*
X-26573Y95285D01*
X-26605Y95279D01*
X-27157D01*
X-27222Y95285D01*
X-27282Y95290D01*
X-27326Y95301D01*
X-27364Y95318D01*
X-27392Y95329D01*
X-27413Y95340D01*
X-27424Y95345D01*
X-27430Y95350D01*
X-27457Y95378D01*
X-27479Y95411D01*
X-27490Y95443D01*
X-27501Y95470D01*
X-27506Y95498D01*
X-27512Y95520D01*
Y95531D01*
Y95536D01*
X-27506Y95580D01*
X-27501Y95613D01*
X-27474Y95673D01*
X-27457Y95694D01*
X-27441Y95711D01*
X-27435Y95716D01*
X-27430Y95722D01*
X-27397Y95749D01*
X-27353Y95765D01*
X-27261Y95787D01*
X-27222Y95793D01*
X-27190Y95798D01*
X-27157D01*
Y96765D01*
X-27146Y96896D01*
X-27124Y97016D01*
X-27086Y97119D01*
X-27048Y97207D01*
X-27009Y97272D01*
X-26971Y97321D01*
X-26949Y97354D01*
X-26938Y97365D01*
X-26884Y97414D01*
X-26829Y97463D01*
X-26769Y97502D01*
X-26709Y97534D01*
X-26589Y97584D01*
X-26474Y97616D01*
X-26370Y97638D01*
X-26321Y97644D01*
X-26283Y97649D01*
X-26250Y97654D01*
X-26130D01*
X-26065Y97644D01*
D02*
G37*
G36*
X14639Y98648D02*
X14727Y98637D01*
X14809Y98615D01*
X14885Y98588D01*
X14956Y98555D01*
X15022Y98517D01*
X15082Y98479D01*
X15136Y98441D01*
X15186Y98397D01*
X15229Y98359D01*
X15262Y98321D01*
X15295Y98288D01*
X15317Y98261D01*
X15333Y98239D01*
X15344Y98228D01*
X15349Y98222D01*
X15404Y98141D01*
X15448Y98053D01*
X15486Y97971D01*
X15524Y97878D01*
X15579Y97709D01*
X15611Y97545D01*
X15622Y97469D01*
X15633Y97403D01*
X15639Y97338D01*
X15644Y97289D01*
X15650Y97245D01*
Y97212D01*
Y97190D01*
Y97185D01*
Y96350D01*
X15644Y96208D01*
X15628Y96071D01*
X15606Y95940D01*
X15579Y95825D01*
X15568Y95771D01*
X15557Y95727D01*
X15546Y95683D01*
X15535Y95651D01*
X15524Y95623D01*
X15519Y95602D01*
X15513Y95591D01*
Y95585D01*
X15453Y95449D01*
X15387Y95334D01*
X15322Y95230D01*
X15251Y95148D01*
X15191Y95083D01*
X15136Y95039D01*
X15104Y95012D01*
X15098Y95001D01*
X15093D01*
X15005Y94952D01*
X14912Y94914D01*
X14820Y94886D01*
X14732Y94870D01*
X14656Y94859D01*
X14596Y94848D01*
X14541D01*
X14388Y94854D01*
X14246Y94875D01*
X14132Y94903D01*
X14028Y94936D01*
X13952Y94968D01*
X13919Y94985D01*
X13897Y94995D01*
X13875Y95006D01*
X13859Y95017D01*
X13853Y95023D01*
X13848D01*
X13788Y95066D01*
X13744Y95110D01*
X13717Y95154D01*
X13695Y95192D01*
X13684Y95225D01*
X13673Y95247D01*
Y95263D01*
Y95268D01*
Y95296D01*
X13684Y95323D01*
X13700Y95367D01*
X13722Y95394D01*
X13728Y95405D01*
X13733D01*
X13755Y95427D01*
X13777Y95438D01*
X13821Y95460D01*
X13853Y95465D01*
X13870D01*
X13897Y95460D01*
X13919Y95454D01*
X13962Y95427D01*
X14001Y95400D01*
X14006Y95394D01*
X14012Y95389D01*
X14044Y95361D01*
X14077Y95340D01*
X14148Y95301D01*
X14175Y95290D01*
X14203Y95279D01*
X14219Y95274D01*
X14224D01*
X14328Y95247D01*
X14377Y95241D01*
X14427Y95236D01*
X14465Y95230D01*
X14525D01*
X14634Y95241D01*
X14732Y95263D01*
X14814Y95301D01*
X14880Y95345D01*
X14934Y95383D01*
X14973Y95421D01*
X15000Y95443D01*
X15005Y95454D01*
X15049Y95520D01*
X15093Y95591D01*
X15158Y95744D01*
X15202Y95902D01*
X15235Y96049D01*
X15246Y96120D01*
X15251Y96186D01*
X15262Y96240D01*
Y96289D01*
X15267Y96333D01*
Y96360D01*
Y96382D01*
Y96388D01*
Y97158D01*
X15262Y97283D01*
X15246Y97409D01*
X15224Y97523D01*
X15196Y97622D01*
X15169Y97709D01*
X15158Y97747D01*
X15147Y97775D01*
X15136Y97802D01*
X15131Y97818D01*
X15125Y97829D01*
Y97835D01*
X15093Y97906D01*
X15055Y97966D01*
X15011Y98015D01*
X14973Y98064D01*
X14940Y98097D01*
X14912Y98124D01*
X14891Y98141D01*
X14885Y98146D01*
X14825Y98190D01*
X14760Y98217D01*
X14705Y98239D01*
X14650Y98255D01*
X14607Y98266D01*
X14574Y98272D01*
X14541D01*
X14459Y98266D01*
X14383Y98250D01*
X14323Y98222D01*
X14268Y98195D01*
X14224Y98162D01*
X14192Y98141D01*
X14170Y98119D01*
X14164Y98113D01*
X14115Y98053D01*
X14077Y97988D01*
X14055Y97917D01*
X14033Y97851D01*
X14022Y97791D01*
X14017Y97747D01*
Y97715D01*
Y97709D01*
Y97704D01*
Y97545D01*
X14170Y97523D01*
X14307Y97491D01*
X14427Y97442D01*
X14525Y97392D01*
X14601Y97349D01*
X14634Y97327D01*
X14661Y97305D01*
X14678Y97289D01*
X14694Y97278D01*
X14700Y97272D01*
X14705Y97267D01*
X14749Y97223D01*
X14787Y97174D01*
X14847Y97076D01*
X14891Y96983D01*
X14918Y96896D01*
X14940Y96819D01*
X14945Y96759D01*
X14951Y96737D01*
Y96721D01*
Y96710D01*
Y96705D01*
X14940Y96595D01*
X14918Y96492D01*
X14880Y96404D01*
X14836Y96328D01*
X14798Y96262D01*
X14760Y96213D01*
X14738Y96186D01*
X14727Y96175D01*
X14639Y96099D01*
X14547Y96044D01*
X14459Y96006D01*
X14377Y95978D01*
X14307Y95962D01*
X14246Y95956D01*
X14224Y95951D01*
X14170D01*
X14143Y95956D01*
X14083Y95962D01*
X14061D01*
X14039Y95967D01*
X14017D01*
Y95951D01*
X13744D01*
X13700Y95962D01*
X13668Y95967D01*
X13640Y95978D01*
X13619Y95989D01*
X13602Y95995D01*
X13591Y96006D01*
X13569Y96027D01*
X13553Y96049D01*
X13531Y96099D01*
X13526Y96131D01*
Y96142D01*
Y96148D01*
X13531Y96191D01*
X13542Y96224D01*
X13558Y96257D01*
X13580Y96279D01*
X13602Y96301D01*
X13619Y96311D01*
X13629Y96322D01*
X13635D01*
Y97709D01*
X13640Y97813D01*
X13657Y97911D01*
X13679Y97998D01*
X13706Y98075D01*
X13733Y98141D01*
X13755Y98190D01*
X13771Y98217D01*
X13777Y98228D01*
X13831Y98310D01*
X13892Y98381D01*
X13946Y98435D01*
X14001Y98479D01*
X14050Y98512D01*
X14088Y98539D01*
X14110Y98550D01*
X14121Y98555D01*
X14197Y98588D01*
X14274Y98610D01*
X14345Y98632D01*
X14410Y98643D01*
X14465Y98648D01*
X14509Y98654D01*
X14547D01*
X14639Y98648D01*
D02*
G37*
G36*
X-10307Y97649D02*
X-10187Y97627D01*
X-10073Y97600D01*
X-9969Y97567D01*
X-9881Y97534D01*
X-9849Y97518D01*
X-9816Y97507D01*
X-9794Y97496D01*
X-9778Y97485D01*
X-9767Y97480D01*
X-9761D01*
X-9647Y97409D01*
X-9548Y97332D01*
X-9461Y97250D01*
X-9390Y97180D01*
X-9335Y97109D01*
X-9297Y97054D01*
X-9281Y97032D01*
X-9275Y97016D01*
X-9264Y97010D01*
Y97005D01*
X-9210Y96890D01*
X-9166Y96781D01*
X-9139Y96677D01*
X-9117Y96584D01*
X-9106Y96508D01*
X-9101Y96448D01*
X-9095Y96426D01*
Y96410D01*
Y96399D01*
Y96393D01*
X-9101Y96279D01*
X-9122Y96175D01*
X-9150Y96071D01*
X-9183Y95984D01*
X-9210Y95907D01*
X-9237Y95853D01*
X-9248Y95831D01*
X-9259Y95815D01*
X-9264Y95809D01*
Y95804D01*
X-9335Y95705D01*
X-9412Y95613D01*
X-9494Y95536D01*
X-9576Y95476D01*
X-9647Y95421D01*
X-9701Y95389D01*
X-9723Y95372D01*
X-9739Y95361D01*
X-9750Y95356D01*
X-9756D01*
X-9881Y95301D01*
X-10001Y95263D01*
X-10116Y95236D01*
X-10220Y95219D01*
X-10307Y95209D01*
X-10345Y95203D01*
X-10378Y95198D01*
X-10438D01*
X-10569Y95203D01*
X-10700Y95225D01*
X-10815Y95252D01*
X-10919Y95279D01*
X-11006Y95312D01*
X-11039Y95323D01*
X-11072Y95334D01*
X-11094Y95345D01*
X-11110Y95356D01*
X-11121Y95361D01*
X-11126D01*
X-11241Y95427D01*
X-11345Y95498D01*
X-11432Y95574D01*
X-11497Y95645D01*
X-11552Y95705D01*
X-11590Y95760D01*
X-11618Y95793D01*
X-11623Y95798D01*
Y95804D01*
X-11678Y95913D01*
X-11721Y96017D01*
X-11749Y96115D01*
X-11771Y96202D01*
X-11781Y96279D01*
X-11792Y96339D01*
Y96360D01*
Y96377D01*
Y96382D01*
Y96388D01*
X-11787Y96503D01*
X-11765Y96617D01*
X-11738Y96721D01*
X-11710Y96814D01*
X-11678Y96890D01*
X-11650Y96950D01*
X-11639Y96972D01*
X-11629Y96988D01*
X-11623Y96994D01*
Y96999D01*
X-11552Y97109D01*
X-11476Y97201D01*
X-11388Y97283D01*
X-11306Y97349D01*
X-11235Y97403D01*
X-11175Y97442D01*
X-11153Y97458D01*
X-11137Y97469D01*
X-11126Y97474D01*
X-11121D01*
X-10995Y97534D01*
X-10875Y97578D01*
X-10760Y97611D01*
X-10657Y97633D01*
X-10569Y97644D01*
X-10531Y97649D01*
X-10498Y97654D01*
X-10438D01*
X-10307Y97649D01*
D02*
G37*
%LPC*%
G36*
X61614Y-69347D02*
X61614Y-69367D01*
X61622Y-69405D01*
X61637Y-69442D01*
X61659Y-69474D01*
X61673Y-69488D01*
X61673D01*
X61660Y-69474D01*
X61638Y-69441D01*
X61623Y-69405D01*
X61615Y-69366D01*
X61614Y-69347D01*
D02*
G37*
G36*
X34981Y-69488D02*
X34981Y-69488D01*
X34994Y-69503D01*
X35016Y-69535D01*
X35031Y-69572D01*
X35038Y-69610D01*
X35039Y-69630D01*
X35039Y-69610D01*
X35032Y-69571D01*
X35017Y-69535D01*
X34995Y-69502D01*
X34981Y-69488D01*
D02*
G37*
G36*
X-35047Y92563D02*
X-35047Y92543D01*
X-35040Y92504D01*
X-35025Y92468D01*
X-35003Y92435D01*
X-34989Y92421D01*
X-34989D01*
X-35002Y92436D01*
X-35024Y92468D01*
X-35039Y92505D01*
X-35046Y92543D01*
X-35047Y92563D01*
D02*
G37*
G36*
X-61681Y92421D02*
X-61681Y92421D01*
X-61668Y92407D01*
X-61646Y92374D01*
X-61631Y92338D01*
X-61623Y92299D01*
X-61622Y92280D01*
X-61622Y92300D01*
X-61630Y92338D01*
X-61645Y92375D01*
X-61667Y92407D01*
X-61681Y92421D01*
D02*
G37*
G36*
X22036Y86905D02*
X22008D01*
X21899Y86894D01*
X21801Y86872D01*
X21714Y86840D01*
X21637Y86801D01*
X21577Y86758D01*
X21533Y86725D01*
X21506Y86703D01*
X21495Y86692D01*
X21424Y86610D01*
X21370Y86523D01*
X21331Y86441D01*
X21310Y86359D01*
X21293Y86294D01*
X21288Y86239D01*
X21282Y86217D01*
Y86201D01*
Y86195D01*
Y86190D01*
X21293Y86086D01*
X21315Y85988D01*
X21348Y85906D01*
X21386Y85830D01*
X21430Y85769D01*
X21463Y85726D01*
X21484Y85698D01*
X21495Y85688D01*
X21577Y85616D01*
X21665Y85567D01*
X21752Y85529D01*
X21834Y85507D01*
X21905Y85491D01*
X21959Y85486D01*
X21981Y85480D01*
X22008D01*
X22118Y85491D01*
X22216Y85513D01*
X22303Y85546D01*
X22380Y85584D01*
X22440Y85622D01*
X22483Y85655D01*
X22511Y85677D01*
X22522Y85688D01*
X22593Y85769D01*
X22642Y85857D01*
X22680Y85939D01*
X22702Y86021D01*
X22718Y86086D01*
X22724Y86141D01*
X22729Y86163D01*
Y86179D01*
Y86184D01*
Y86190D01*
X22718Y86294D01*
X22696Y86392D01*
X22664Y86474D01*
X22625Y86550D01*
X22587Y86610D01*
X22555Y86654D01*
X22533Y86681D01*
X22522Y86692D01*
X22440Y86763D01*
X22352Y86818D01*
X22265Y86856D01*
X22183Y86878D01*
X22112Y86894D01*
X22058Y86900D01*
X22036Y86905D01*
D02*
G37*
G36*
X-6072Y86905D02*
X-6100D01*
X-6209Y86894D01*
X-6307Y86872D01*
X-6394Y86840D01*
X-6471Y86801D01*
X-6531Y86758D01*
X-6575Y86725D01*
X-6602Y86703D01*
X-6613Y86692D01*
X-6684Y86610D01*
X-6738Y86523D01*
X-6777Y86441D01*
X-6798Y86359D01*
X-6815Y86294D01*
X-6820Y86239D01*
X-6826Y86217D01*
Y86201D01*
Y86195D01*
Y86190D01*
X-6815Y86086D01*
X-6793Y85988D01*
X-6760Y85906D01*
X-6722Y85830D01*
X-6678Y85769D01*
X-6646Y85726D01*
X-6624Y85698D01*
X-6613Y85688D01*
X-6531Y85616D01*
X-6444Y85567D01*
X-6356Y85529D01*
X-6274Y85507D01*
X-6203Y85491D01*
X-6149Y85486D01*
X-6127Y85480D01*
X-6100D01*
X-5990Y85491D01*
X-5892Y85513D01*
X-5805Y85545D01*
X-5728Y85584D01*
X-5668Y85622D01*
X-5625Y85655D01*
X-5597Y85677D01*
X-5586Y85688D01*
X-5515Y85769D01*
X-5466Y85857D01*
X-5428Y85939D01*
X-5406Y86021D01*
X-5390Y86086D01*
X-5384Y86141D01*
X-5379Y86163D01*
Y86179D01*
Y86184D01*
Y86190D01*
X-5390Y86294D01*
X-5412Y86392D01*
X-5444Y86474D01*
X-5483Y86550D01*
X-5521Y86610D01*
X-5554Y86654D01*
X-5576Y86681D01*
X-5586Y86692D01*
X-5668Y86763D01*
X-5756Y86818D01*
X-5843Y86856D01*
X-5925Y86878D01*
X-5996Y86894D01*
X-6050Y86900D01*
X-6072Y86905D01*
D02*
G37*
G36*
X12650Y86037D02*
X12497D01*
X12393Y86026D01*
X12295Y86015D01*
X12208Y86004D01*
X12131Y85993D01*
X12071Y85982D01*
X12049Y85977D01*
X12033D01*
X12022Y85971D01*
X12017D01*
Y85753D01*
X12088Y85709D01*
X12164Y85666D01*
X12235Y85633D01*
X12306Y85606D01*
X12361Y85578D01*
X12410Y85562D01*
X12437Y85557D01*
X12443Y85551D01*
X12448D01*
X12535Y85529D01*
X12612Y85513D01*
X12683Y85496D01*
X12748Y85491D01*
X12798Y85486D01*
X12836Y85480D01*
X12868D01*
X12945Y85486D01*
X13016Y85491D01*
X13076Y85507D01*
X13125Y85524D01*
X13169Y85535D01*
X13196Y85551D01*
X13212Y85557D01*
X13218Y85562D01*
X13240Y85578D01*
X13256Y85600D01*
X13273Y85638D01*
X13283Y85671D01*
Y85677D01*
Y85682D01*
X13278Y85720D01*
X13262Y85753D01*
X13240Y85786D01*
X13212Y85819D01*
X13185Y85840D01*
X13163Y85862D01*
X13147Y85873D01*
X13141Y85879D01*
X13054Y85933D01*
X12961Y85971D01*
X12868Y85999D01*
X12781Y86015D01*
X12710Y86032D01*
X12650Y86037D01*
D02*
G37*
G36*
X-12335Y86037D02*
X-12488D01*
X-12592Y86026D01*
X-12690Y86015D01*
X-12777Y86004D01*
X-12854Y85993D01*
X-12914Y85982D01*
X-12935Y85977D01*
X-12952D01*
X-12963Y85971D01*
X-12968D01*
Y85753D01*
X-12897Y85709D01*
X-12821Y85666D01*
X-12750Y85633D01*
X-12679Y85606D01*
X-12624Y85578D01*
X-12575Y85562D01*
X-12548Y85557D01*
X-12542Y85551D01*
X-12537D01*
X-12450Y85529D01*
X-12373Y85513D01*
X-12302Y85496D01*
X-12237Y85491D01*
X-12188Y85486D01*
X-12149Y85480D01*
X-12116D01*
X-12040Y85486D01*
X-11969Y85491D01*
X-11909Y85507D01*
X-11860Y85524D01*
X-11816Y85535D01*
X-11789Y85551D01*
X-11772Y85557D01*
X-11767Y85562D01*
X-11745Y85578D01*
X-11729Y85600D01*
X-11712Y85638D01*
X-11702Y85671D01*
Y85677D01*
Y85682D01*
X-11707Y85720D01*
X-11723Y85753D01*
X-11745Y85786D01*
X-11772Y85818D01*
X-11800Y85840D01*
X-11822Y85862D01*
X-11838Y85873D01*
X-11844Y85879D01*
X-11931Y85933D01*
X-12024Y85971D01*
X-12116Y85999D01*
X-12204Y86015D01*
X-12275Y86032D01*
X-12335Y86037D01*
D02*
G37*
G36*
X-3648Y86916D02*
X-3659D01*
Y86113D01*
X-3604Y86108D01*
X-3533D01*
X-3468Y86113D01*
X-3402Y86124D01*
X-3353Y86141D01*
X-3304Y86163D01*
X-3271Y86179D01*
X-3244Y86195D01*
X-3228Y86206D01*
X-3222Y86212D01*
X-3184Y86250D01*
X-3157Y86294D01*
X-3135Y86337D01*
X-3124Y86375D01*
X-3113Y86408D01*
X-3108Y86441D01*
Y86457D01*
Y86463D01*
X-3113Y86523D01*
X-3129Y86577D01*
X-3151Y86627D01*
X-3179Y86670D01*
X-3200Y86708D01*
X-3222Y86736D01*
X-3239Y86752D01*
X-3244Y86758D01*
X-3304Y86801D01*
X-3370Y86840D01*
X-3441Y86867D01*
X-3506Y86889D01*
X-3566Y86900D01*
X-3615Y86910D01*
X-3648Y86916D01*
D02*
G37*
G36*
X9396Y86900D02*
X9363D01*
X9287Y86894D01*
X9221Y86889D01*
X9090Y86856D01*
X8981Y86807D01*
X8888Y86758D01*
X8812Y86703D01*
X8757Y86654D01*
X8741Y86638D01*
X8724Y86621D01*
X8713Y86616D01*
Y86610D01*
X8653Y86534D01*
X8604Y86452D01*
X8571Y86375D01*
X8550Y86304D01*
X8539Y86244D01*
X8528Y86195D01*
Y86163D01*
Y86157D01*
Y86152D01*
Y86102D01*
X8539Y86059D01*
X8566Y85971D01*
X8604Y85895D01*
X8648Y85824D01*
X8692Y85769D01*
X8730Y85726D01*
X8757Y85698D01*
X8762Y85688D01*
X8768D01*
X8861Y85616D01*
X8964Y85567D01*
X9063Y85529D01*
X9156Y85507D01*
X9238Y85491D01*
X9276Y85486D01*
X9303D01*
X9330Y85480D01*
X9363D01*
X9489Y85491D01*
X9603Y85513D01*
X9702Y85546D01*
X9789Y85584D01*
X9860Y85622D01*
X9909Y85655D01*
X9942Y85677D01*
X9947Y85688D01*
X9953D01*
X9996Y85726D01*
X10029Y85769D01*
X10089Y85851D01*
X10127Y85928D01*
X10160Y85999D01*
X10177Y86059D01*
X10182Y86102D01*
X10188Y86135D01*
Y86146D01*
X10182Y86201D01*
X10177Y86255D01*
X10149Y86354D01*
X10111Y86446D01*
X10067Y86523D01*
X10029Y86583D01*
X9991Y86632D01*
X9964Y86659D01*
X9953Y86670D01*
X9860Y86747D01*
X9762Y86801D01*
X9663Y86845D01*
X9571Y86872D01*
X9489Y86889D01*
X9450Y86894D01*
X9423D01*
X9396Y86900D01*
D02*
G37*
G36*
X-28082Y86900D02*
X-28114D01*
X-28191Y86894D01*
X-28256Y86889D01*
X-28387Y86856D01*
X-28497Y86807D01*
X-28589Y86758D01*
X-28666Y86703D01*
X-28720Y86654D01*
X-28737Y86638D01*
X-28753Y86621D01*
X-28764Y86616D01*
Y86610D01*
X-28824Y86534D01*
X-28873Y86452D01*
X-28906Y86375D01*
X-28928Y86304D01*
X-28939Y86244D01*
X-28950Y86195D01*
Y86163D01*
Y86157D01*
Y86152D01*
Y86102D01*
X-28939Y86059D01*
X-28912Y85971D01*
X-28873Y85895D01*
X-28830Y85824D01*
X-28786Y85769D01*
X-28748Y85726D01*
X-28720Y85698D01*
X-28715Y85688D01*
X-28710D01*
X-28617Y85616D01*
X-28513Y85567D01*
X-28415Y85529D01*
X-28322Y85507D01*
X-28240Y85491D01*
X-28202Y85486D01*
X-28174D01*
X-28147Y85480D01*
X-28114D01*
X-27989Y85491D01*
X-27874Y85513D01*
X-27776Y85545D01*
X-27689Y85584D01*
X-27617Y85622D01*
X-27568Y85655D01*
X-27536Y85677D01*
X-27530Y85688D01*
X-27525D01*
X-27481Y85726D01*
X-27448Y85769D01*
X-27388Y85851D01*
X-27350Y85928D01*
X-27317Y85999D01*
X-27301Y86059D01*
X-27295Y86102D01*
X-27290Y86135D01*
Y86146D01*
X-27295Y86201D01*
X-27301Y86255D01*
X-27328Y86354D01*
X-27366Y86446D01*
X-27410Y86523D01*
X-27448Y86583D01*
X-27486Y86632D01*
X-27514Y86659D01*
X-27525Y86670D01*
X-27617Y86747D01*
X-27716Y86801D01*
X-27814Y86845D01*
X-27907Y86872D01*
X-27989Y86889D01*
X-28027Y86894D01*
X-28054D01*
X-28082Y86900D01*
D02*
G37*
G36*
X2234Y97141D02*
X2207D01*
X2098Y97130D01*
X2000Y97109D01*
X1912Y97076D01*
X1836Y97038D01*
X1776Y96994D01*
X1732Y96961D01*
X1705Y96939D01*
X1694Y96928D01*
X1623Y96846D01*
X1568Y96759D01*
X1530Y96677D01*
X1508Y96595D01*
X1492Y96530D01*
X1486Y96475D01*
X1481Y96453D01*
Y96437D01*
Y96431D01*
Y96426D01*
X1492Y96322D01*
X1514Y96224D01*
X1546Y96142D01*
X1585Y96066D01*
X1628Y96006D01*
X1661Y95962D01*
X1683Y95935D01*
X1694Y95924D01*
X1776Y95853D01*
X1863Y95804D01*
X1950Y95765D01*
X2032Y95744D01*
X2103Y95727D01*
X2158Y95722D01*
X2180Y95716D01*
X2207D01*
X2316Y95727D01*
X2415Y95749D01*
X2502Y95782D01*
X2578Y95820D01*
X2638Y95858D01*
X2682Y95891D01*
X2709Y95913D01*
X2720Y95924D01*
X2791Y96006D01*
X2840Y96093D01*
X2879Y96175D01*
X2901Y96257D01*
X2917Y96322D01*
X2922Y96377D01*
X2928Y96399D01*
Y96415D01*
Y96421D01*
Y96426D01*
X2917Y96530D01*
X2895Y96628D01*
X2862Y96710D01*
X2824Y96786D01*
X2786Y96846D01*
X2753Y96890D01*
X2731Y96917D01*
X2720Y96928D01*
X2638Y96999D01*
X2551Y97054D01*
X2464Y97092D01*
X2382Y97114D01*
X2311Y97130D01*
X2256Y97136D01*
X2234Y97141D01*
D02*
G37*
G36*
X-7151Y96273D02*
X-7304D01*
X-7408Y96262D01*
X-7506Y96251D01*
X-7594Y96240D01*
X-7670Y96229D01*
X-7730Y96219D01*
X-7752Y96213D01*
X-7768D01*
X-7779Y96208D01*
X-7785D01*
Y95989D01*
X-7714Y95946D01*
X-7637Y95902D01*
X-7566Y95869D01*
X-7495Y95842D01*
X-7441Y95815D01*
X-7392Y95798D01*
X-7364Y95793D01*
X-7359Y95787D01*
X-7353D01*
X-7266Y95765D01*
X-7190Y95749D01*
X-7119Y95733D01*
X-7053Y95727D01*
X-7004Y95722D01*
X-6966Y95716D01*
X-6933D01*
X-6857Y95722D01*
X-6786Y95727D01*
X-6725Y95744D01*
X-6676Y95760D01*
X-6633Y95771D01*
X-6605Y95787D01*
X-6589Y95793D01*
X-6583Y95798D01*
X-6562Y95815D01*
X-6545Y95836D01*
X-6529Y95875D01*
X-6518Y95907D01*
Y95913D01*
Y95918D01*
X-6523Y95956D01*
X-6540Y95989D01*
X-6562Y96022D01*
X-6589Y96055D01*
X-6616Y96077D01*
X-6638Y96099D01*
X-6655Y96109D01*
X-6660Y96115D01*
X-6747Y96169D01*
X-6840Y96208D01*
X-6933Y96235D01*
X-7020Y96251D01*
X-7091Y96268D01*
X-7151Y96273D01*
D02*
G37*
G36*
X-22843Y97136D02*
X-22887D01*
X-22985Y97130D01*
X-23073Y97119D01*
X-23149Y97098D01*
X-23215Y97081D01*
X-23269Y97059D01*
X-23313Y97038D01*
X-23335Y97027D01*
X-23346Y97021D01*
X-23417Y96978D01*
X-23477Y96923D01*
X-23531Y96868D01*
X-23581Y96814D01*
X-23613Y96765D01*
X-23641Y96726D01*
X-23657Y96699D01*
X-23662Y96688D01*
X-22117D01*
X-22166Y96765D01*
X-22216Y96836D01*
X-22270Y96890D01*
X-22319Y96939D01*
X-22363Y96978D01*
X-22396Y96999D01*
X-22418Y97016D01*
X-22428Y97021D01*
X-22505Y97059D01*
X-22581Y97087D01*
X-22658Y97109D01*
X-22734Y97119D01*
X-22794Y97130D01*
X-22843Y97136D01*
D02*
G37*
G36*
X14028Y97152D02*
X14017D01*
Y96350D01*
X14072Y96344D01*
X14143D01*
X14208Y96350D01*
X14274Y96360D01*
X14323Y96377D01*
X14372Y96399D01*
X14405Y96415D01*
X14432Y96431D01*
X14448Y96442D01*
X14454Y96448D01*
X14492Y96486D01*
X14519Y96530D01*
X14541Y96574D01*
X14552Y96612D01*
X14563Y96644D01*
X14569Y96677D01*
Y96694D01*
Y96699D01*
X14563Y96759D01*
X14547Y96814D01*
X14525Y96863D01*
X14498Y96907D01*
X14476Y96945D01*
X14454Y96972D01*
X14437Y96988D01*
X14432Y96994D01*
X14372Y97038D01*
X14307Y97076D01*
X14235Y97103D01*
X14170Y97125D01*
X14110Y97136D01*
X14061Y97147D01*
X14028Y97152D01*
D02*
G37*
G36*
X-10406Y97136D02*
X-10438D01*
X-10515Y97130D01*
X-10580Y97125D01*
X-10711Y97092D01*
X-10820Y97043D01*
X-10913Y96994D01*
X-10990Y96939D01*
X-11044Y96890D01*
X-11061Y96874D01*
X-11077Y96857D01*
X-11088Y96852D01*
Y96846D01*
X-11148Y96770D01*
X-11197Y96688D01*
X-11230Y96612D01*
X-11252Y96541D01*
X-11263Y96481D01*
X-11274Y96431D01*
Y96399D01*
Y96393D01*
Y96388D01*
Y96339D01*
X-11263Y96295D01*
X-11235Y96208D01*
X-11197Y96131D01*
X-11153Y96060D01*
X-11110Y96006D01*
X-11072Y95962D01*
X-11044Y95935D01*
X-11039Y95924D01*
X-11033D01*
X-10941Y95853D01*
X-10837Y95804D01*
X-10739Y95765D01*
X-10646Y95744D01*
X-10564Y95727D01*
X-10526Y95722D01*
X-10498D01*
X-10471Y95716D01*
X-10438D01*
X-10313Y95727D01*
X-10198Y95749D01*
X-10100Y95782D01*
X-10012Y95820D01*
X-9941Y95858D01*
X-9892Y95891D01*
X-9860Y95913D01*
X-9854Y95924D01*
X-9849D01*
X-9805Y95962D01*
X-9772Y96006D01*
X-9712Y96087D01*
X-9674Y96164D01*
X-9641Y96235D01*
X-9625Y96295D01*
X-9619Y96339D01*
X-9614Y96372D01*
Y96382D01*
X-9619Y96437D01*
X-9625Y96492D01*
X-9652Y96590D01*
X-9690Y96683D01*
X-9734Y96759D01*
X-9772Y96819D01*
X-9810Y96868D01*
X-9838Y96896D01*
X-9849Y96907D01*
X-9941Y96983D01*
X-10040Y97038D01*
X-10138Y97081D01*
X-10231Y97109D01*
X-10313Y97125D01*
X-10351Y97130D01*
X-10378D01*
X-10406Y97136D01*
D02*
G37*
%LPD*%
D10*
X-48335Y105767D02*
G03*
X-61681Y92421I0J-13346D01*
G01*
D02*
G03*
X-48335Y79075I13346J0D01*
G01*
D02*
G03*
X-34989Y92421I0J13346D01*
G01*
D02*
G03*
X-48335Y105767I-13346J0D01*
G01*
X48327Y-56142D02*
G03*
X34981Y-69488I0J-13346D01*
G01*
D02*
G03*
X48327Y-82834I13346J0D01*
G01*
D02*
G03*
X61673Y-69488I0J13346D01*
G01*
D02*
G03*
X48327Y-56142I-13346J0D01*
G01*
D12*
X-61681Y92421D02*
X-34989D01*
X-48335Y79075D02*
Y105767D01*
X34981Y-69488D02*
X61673D01*
X48327Y-82834D02*
Y-56142D01*
D30*
X22634Y89988D02*
X29334D01*
X21174Y97988D02*
X30814D01*
X21174Y98008D02*
X30814D01*
X21174Y98028D02*
X30814D01*
X21174Y98048D02*
X30814D01*
X21174Y98068D02*
X30814D01*
X21174Y98088D02*
X30814D01*
X21174Y98108D02*
X30814D01*
X21174Y98128D02*
X30814D01*
X21174Y98148D02*
X30814D01*
X21174Y98168D02*
X30814D01*
X21174Y98188D02*
X30814D01*
X21174Y98208D02*
X30814D01*
X21194Y98228D02*
X30794D01*
X21194Y98248D02*
X30794D01*
X21194Y98268D02*
X30794D01*
X21194Y98288D02*
X30794D01*
X21194Y98308D02*
X30794D01*
X21194Y98328D02*
X30794D01*
X21194Y98348D02*
X30794D01*
X21194Y98368D02*
X30794D01*
X21214Y98388D02*
X30774D01*
X21214Y98408D02*
X30774D01*
X21214Y98428D02*
X30774D01*
X21214Y98448D02*
X30774D01*
X21214Y98468D02*
X30774D01*
X21214Y98488D02*
X30774D01*
X21234Y98508D02*
X30754D01*
X21234Y98528D02*
X30754D01*
X21234Y98548D02*
X30754D01*
X21234Y98568D02*
X30754D01*
X21234Y98588D02*
X30754D01*
X21254Y98608D02*
X30734D01*
X21254Y98628D02*
X30734D01*
X21254Y98648D02*
X30734D01*
X21274Y98668D02*
X30714D01*
X21274Y98688D02*
X30714D01*
X21274Y98708D02*
X30714D01*
X21274Y98728D02*
X30714D01*
X21294Y98748D02*
X30694D01*
X21294Y98768D02*
X30694D01*
X21294Y98788D02*
X30694D01*
X21314Y98808D02*
X30674D01*
X21314Y98828D02*
X30674D01*
X21314Y98848D02*
X30674D01*
X21314Y98868D02*
X30674D01*
X21334Y98888D02*
X30654D01*
X21334Y98908D02*
X30654D01*
X21334Y98928D02*
X30654D01*
X21354Y98948D02*
X30634D01*
X21354Y98968D02*
X30634D01*
X21374Y98988D02*
X30614D01*
X21374Y99008D02*
X30614D01*
X21374Y99028D02*
X30614D01*
X21394Y99048D02*
X30594D01*
X21394Y99068D02*
X30594D01*
X21414Y99088D02*
X30574D01*
X21414Y99108D02*
X30574D01*
X21414Y99128D02*
X30574D01*
X21434Y99148D02*
X30554D01*
X21434Y99168D02*
X30554D01*
X21454Y99188D02*
X30534D01*
X21454Y99208D02*
X30534D01*
X21474Y99228D02*
X30514D01*
X21474Y99248D02*
X30514D01*
X21494Y99268D02*
X30494D01*
X21494Y99288D02*
X30494D01*
X21514Y99308D02*
X30474D01*
X21514Y99328D02*
X30474D01*
X21534Y99348D02*
X30454D01*
X21534Y99368D02*
X30454D01*
X21554Y99388D02*
X30434D01*
X21574Y99408D02*
X30414D01*
X21574Y99428D02*
X30414D01*
X21594Y99448D02*
X30394D01*
X21594Y99468D02*
X30394D01*
X21614Y99488D02*
X30374D01*
X21634Y99508D02*
X30354D01*
X21634Y99528D02*
X30354D01*
X21654Y99548D02*
X30334D01*
X21654Y99568D02*
X30334D01*
X21674Y99588D02*
X30314D01*
X21694Y99608D02*
X30294D01*
X21714Y99628D02*
X30274D01*
X21714Y99648D02*
X30274D01*
X21734Y99668D02*
X30254D01*
X21754Y99688D02*
X30234D01*
X21754Y99708D02*
X30234D01*
X21774Y99728D02*
X30214D01*
X21794Y99748D02*
X30194D01*
X21814Y99768D02*
X30174D01*
X21814Y99788D02*
X30174D01*
X21834Y99808D02*
X30154D01*
X21854Y99828D02*
X30134D01*
X21874Y99848D02*
X30114D01*
X21894Y99868D02*
X30094D01*
X21914Y99888D02*
X30074D01*
X21934Y99908D02*
X30054D01*
X21934Y99928D02*
X30054D01*
X21934Y99948D02*
X30054D01*
X21934Y99968D02*
X30054D01*
X21914Y99988D02*
X30074D01*
X21914Y100008D02*
X30074D01*
X21914Y100028D02*
X30074D01*
X21894Y100048D02*
X30094D01*
X21894Y100068D02*
X30094D01*
X21894Y100088D02*
X30094D01*
X21874Y100108D02*
X30114D01*
X21874Y100128D02*
X30114D01*
X21874Y100148D02*
X30114D01*
X21874Y100168D02*
X30134D01*
X21854Y100188D02*
X30134D01*
X21854Y100208D02*
X30134D01*
X21854Y100228D02*
X30134D01*
X21854Y100248D02*
X30154D01*
X21834Y100268D02*
X30154D01*
X21834Y100288D02*
X30154D01*
X21834Y100308D02*
X30154D01*
X21834Y100328D02*
X30154D01*
X21834Y100348D02*
X30154D01*
X21834Y100368D02*
X30174D01*
X21814Y100388D02*
X30174D01*
X21814Y100408D02*
X30174D01*
X21814Y100428D02*
X30174D01*
X21814Y100448D02*
X30174D01*
X21814Y100468D02*
X30174D01*
X21814Y100488D02*
X30174D01*
X21814Y100508D02*
X30174D01*
X21794Y100528D02*
X30194D01*
X21794Y100548D02*
X30194D01*
X21794Y100568D02*
X30194D01*
X21794Y100588D02*
X30194D01*
X21794Y100608D02*
X30194D01*
X21794Y100628D02*
X30194D01*
X21794Y100648D02*
X30194D01*
X21794Y100668D02*
X30194D01*
X21794Y100688D02*
X30194D01*
X21794Y100708D02*
X30194D01*
X21794Y100728D02*
X30194D01*
X21794Y100748D02*
X30194D01*
X21794Y100768D02*
X30194D01*
X21794Y100788D02*
X30194D01*
X21794Y100808D02*
X30194D01*
X21794Y100828D02*
X30194D01*
X21794Y100848D02*
X30194D01*
X21794Y100868D02*
X30194D01*
X21794Y100888D02*
X30194D01*
X21794Y100908D02*
X30194D01*
X21794Y100928D02*
X30194D01*
X21794Y100948D02*
X30194D01*
X21794Y100968D02*
X30194D01*
X21794Y100988D02*
X30194D01*
X21794Y101008D02*
X30194D01*
X21794Y101028D02*
X30194D01*
X21794Y101048D02*
X30194D01*
X21794Y101068D02*
X30194D01*
X21794Y101088D02*
X30194D01*
X21814Y101108D02*
X30194D01*
X21814Y101128D02*
X30174D01*
X21814Y101148D02*
X30174D01*
X21814Y101168D02*
X30174D01*
X21814Y101188D02*
X30174D01*
X24174Y101208D02*
X27794D01*
X24254Y101228D02*
X27734D01*
X32594D02*
X33074D01*
X24334Y101248D02*
X27654D01*
X32594D02*
X33074D01*
X24414Y101268D02*
X27574D01*
X32574D02*
X33054D01*
X24494Y101288D02*
X27494D01*
X32554D02*
X33054D01*
X32554Y101308D02*
X33034D01*
X32534Y101328D02*
X33034D01*
X32534Y101348D02*
X33014D01*
X32514Y101368D02*
X33014D01*
X32514Y101388D02*
X32994D01*
X32494Y101408D02*
X32994D01*
X32474Y101428D02*
X32974D01*
X32474Y101448D02*
X32974D01*
X32454Y101468D02*
X32954D01*
X32454Y101488D02*
X32954D01*
X32434Y101508D02*
X32934D01*
X32414Y101528D02*
X32934D01*
X32414Y101548D02*
X32914D01*
X32394Y101568D02*
X32894D01*
X32394Y101588D02*
X32894D01*
X32374Y101608D02*
X32874D01*
X32354Y101628D02*
X32874D01*
X32354Y101648D02*
X32854D01*
X32334Y101668D02*
X32834D01*
X32314Y101688D02*
X32834D01*
X32314Y101708D02*
X32814D01*
X32294Y101728D02*
X32814D01*
X32294Y101748D02*
X32794D01*
X32274Y101768D02*
X32774D01*
X32254Y101788D02*
X32774D01*
X32254Y101808D02*
X32754D01*
X32234Y101828D02*
X32754D01*
X32214Y101848D02*
X32734D01*
X32194Y101868D02*
X32714D01*
X32194Y101888D02*
X32714D01*
X32174Y101908D02*
X32694D01*
X32174Y101928D02*
X32694D01*
X32154Y101948D02*
X32674D01*
X32134Y101968D02*
X32654D01*
X32114Y101988D02*
X32654D01*
X32114Y102008D02*
X32634D01*
X32094Y102028D02*
X32614D01*
X32074Y102048D02*
X32614D01*
X32074Y102068D02*
X32594D01*
X23054Y105068D02*
X24634D01*
X23094Y105088D02*
X24754D01*
X23154Y105108D02*
X24874D01*
X23214Y105128D02*
X25014D01*
X23254Y105148D02*
X25174D01*
X23314Y105168D02*
X25394D01*
X23374Y105188D02*
X25774D01*
X23434Y105208D02*
X28554D01*
X23494Y105228D02*
X28494D01*
X23534Y105248D02*
X28454D01*
X23594Y105268D02*
X28394D01*
X23654Y105288D02*
X28314D01*
X23734Y105308D02*
X28254D01*
X23794Y105328D02*
X28194D01*
X23874Y105348D02*
X28114D01*
X23934Y105368D02*
X28054D01*
X24014Y105388D02*
X27974D01*
X24094Y105408D02*
X27894D01*
X24174Y105428D02*
X27814D01*
X24254Y105448D02*
X27714D01*
X24354Y105468D02*
X27634D01*
X24454Y105488D02*
X27534D01*
X24554Y105508D02*
X27434D01*
X22594Y90008D02*
X29394D01*
X22554Y90028D02*
X29434D01*
X22514Y90048D02*
X29474D01*
X23814Y90068D02*
X28194D01*
X23894Y90088D02*
X28114D01*
X23934Y90108D02*
X28054D01*
X23954Y90128D02*
X28034D01*
X23994Y90148D02*
X27994D01*
X24014Y90168D02*
X27974D01*
X24034Y90188D02*
X27954D01*
X24034Y90208D02*
X27954D01*
X24054Y90228D02*
X27934D01*
X24074Y90248D02*
X27914D01*
X24074Y90268D02*
X27914D01*
X24094Y90288D02*
X27894D01*
X24094Y90308D02*
X27894D01*
X24094Y90328D02*
X27894D01*
X24094Y90348D02*
X27894D01*
X24114Y90368D02*
X27874D01*
X24114Y90388D02*
X27874D01*
X24114Y90408D02*
X27874D01*
X24114Y90428D02*
X27874D01*
X24114Y90448D02*
X27874D01*
X24114Y90468D02*
X27874D01*
X24114Y90488D02*
X27874D01*
X24114Y90508D02*
X27874D01*
X24114Y90528D02*
X27874D01*
X24114Y90548D02*
X27874D01*
X24114Y90568D02*
X27874D01*
X24114Y90588D02*
X27874D01*
X24114Y90608D02*
X27874D01*
X24114Y90628D02*
X27874D01*
X24114Y90648D02*
X27874D01*
X24114Y90668D02*
X27874D01*
X24114Y90688D02*
X27874D01*
X24114Y90708D02*
X27874D01*
X24114Y90728D02*
X27874D01*
X24114Y90748D02*
X27874D01*
X24114Y90768D02*
X27874D01*
X24114Y90788D02*
X27874D01*
X24114Y90808D02*
X27874D01*
X24114Y90828D02*
X27874D01*
X24114Y90848D02*
X27874D01*
X24114Y90868D02*
X27874D01*
X24114Y90888D02*
X27874D01*
X24114Y90908D02*
X27874D01*
X24114Y90928D02*
X27874D01*
X24114Y90948D02*
X27874D01*
X24114Y90968D02*
X27874D01*
X24114Y90988D02*
X27874D01*
X24114Y91008D02*
X27874D01*
X24114Y91028D02*
X27874D01*
X24114Y91048D02*
X27874D01*
X24114Y91068D02*
X27874D01*
X24114Y91088D02*
X27874D01*
X24114Y91108D02*
X27874D01*
X24114Y91128D02*
X27874D01*
X24114Y91148D02*
X27874D01*
X24114Y91168D02*
X27874D01*
X24114Y91188D02*
X27874D01*
X24114Y91208D02*
X27874D01*
X24114Y91228D02*
X27874D01*
X24114Y91248D02*
X27874D01*
X24114Y91268D02*
X27874D01*
X24114Y91288D02*
X27874D01*
X24114Y91308D02*
X27874D01*
X24114Y91328D02*
X27874D01*
X24114Y91348D02*
X27874D01*
X24114Y91368D02*
X27874D01*
X24114Y91388D02*
X27874D01*
X24114Y91408D02*
X27874D01*
X24114Y91428D02*
X27874D01*
X24114Y91448D02*
X27874D01*
X24114Y91468D02*
X27874D01*
X24114Y91488D02*
X27874D01*
X24114Y91508D02*
X27874D01*
X24114Y91528D02*
X27874D01*
X24114Y91548D02*
X27874D01*
X24114Y91568D02*
X27874D01*
X24114Y91588D02*
X27874D01*
X24114Y91608D02*
X27874D01*
X24114Y91628D02*
X27874D01*
X24114Y91648D02*
X27874D01*
X24114Y91668D02*
X27874D01*
X24114Y91688D02*
X27874D01*
X24114Y91708D02*
X27874D01*
X24114Y91728D02*
X27874D01*
X24114Y91748D02*
X27874D01*
X24114Y91768D02*
X29314D01*
X24114Y91788D02*
X29374D01*
X24114Y91808D02*
X29434D01*
X24114Y91828D02*
X29474D01*
X24114Y91848D02*
X29534D01*
X24114Y91868D02*
X29574D01*
X24114Y91888D02*
X29614D01*
X24114Y91908D02*
X29654D01*
X24114Y91928D02*
X29674D01*
X24114Y91948D02*
X29714D01*
X24114Y91968D02*
X29754D01*
X24114Y91988D02*
X29774D01*
X24114Y92008D02*
X29814D01*
X24114Y92028D02*
X29834D01*
X24114Y92048D02*
X29874D01*
X24114Y92068D02*
X29894D01*
X24114Y92088D02*
X29914D01*
X24114Y92108D02*
X29934D01*
X24114Y92128D02*
X29974D01*
X24114Y92148D02*
X29994D01*
X24114Y92168D02*
X30014D01*
X24114Y92188D02*
X30034D01*
X24114Y92208D02*
X30054D01*
X24114Y92228D02*
X30074D01*
X24114Y92248D02*
X30094D01*
X24094Y92268D02*
X30114D01*
X24094Y92288D02*
X30134D01*
X24094Y92308D02*
X30134D01*
X24094Y92328D02*
X30154D01*
X24094Y92348D02*
X30174D01*
X24094Y92368D02*
X30194D01*
X24094Y92388D02*
X30214D01*
X24094Y92408D02*
X30214D01*
X24094Y92428D02*
X30234D01*
X24094Y92448D02*
X30254D01*
X24094Y92468D02*
X30254D01*
X24094Y92488D02*
X30274D01*
X24094Y92508D02*
X30294D01*
X24094Y92528D02*
X30294D01*
X24094Y92548D02*
X30314D01*
X24094Y92568D02*
X30314D01*
X24094Y92588D02*
X30334D01*
X24094Y92608D02*
X30354D01*
X24114Y92628D02*
X30354D01*
X24114Y92648D02*
X30374D01*
X24114Y92668D02*
X30374D01*
X24114Y92688D02*
X30374D01*
X24114Y92708D02*
X30394D01*
X24114Y92728D02*
X30394D01*
X24114Y92748D02*
X30414D01*
X24114Y92768D02*
X30414D01*
X24114Y92788D02*
X28474D01*
X24114Y92808D02*
X28354D01*
X32054D02*
X32594D01*
X24114Y92828D02*
X28274D01*
X32074D02*
X32614D01*
X24114Y92848D02*
X28194D01*
X32094D02*
X32614D01*
X24114Y92868D02*
X28134D01*
X32114D02*
X32634D01*
X24114Y92888D02*
X28074D01*
X32114D02*
X32654D01*
X24114Y92908D02*
X28014D01*
X32134D02*
X32654D01*
X24134Y92928D02*
X27954D01*
X32154D02*
X32674D01*
X24134Y92948D02*
X27914D01*
X32174D02*
X32674D01*
X24134Y92968D02*
X27874D01*
X32174D02*
X32694D01*
X24134Y92988D02*
X27854D01*
X32194D02*
X32714D01*
X24134Y93008D02*
X27854D01*
X32194D02*
X32714D01*
X24134Y93028D02*
X27854D01*
X32214D02*
X32734D01*
X24134Y93048D02*
X27854D01*
X32234D02*
X32754D01*
X24154Y93068D02*
X27834D01*
X32254D02*
X32754D01*
X24154Y93088D02*
X27834D01*
X32254D02*
X32774D01*
X24154Y93108D02*
X27834D01*
X32274D02*
X32774D01*
X24154Y93128D02*
X27834D01*
X32294D02*
X32794D01*
X24154Y93148D02*
X27834D01*
X32294D02*
X32814D01*
X24174Y93168D02*
X27814D01*
X32314D02*
X32814D01*
X24174Y93188D02*
X27814D01*
X32314D02*
X32834D01*
X24174Y93208D02*
X27814D01*
X32334D02*
X32834D01*
X24174Y93228D02*
X27814D01*
X32354D02*
X32854D01*
X24194Y93248D02*
X27794D01*
X32354D02*
X32874D01*
X24194Y93268D02*
X27794D01*
X32374D02*
X32874D01*
X24194Y93288D02*
X27794D01*
X32394D02*
X32894D01*
X24194Y93308D02*
X27794D01*
X32394D02*
X32894D01*
X24214Y93328D02*
X27774D01*
X32414D02*
X32914D01*
X24214Y93348D02*
X27774D01*
X32414D02*
X32934D01*
X24214Y93368D02*
X27774D01*
X32434D02*
X32934D01*
X24234Y93388D02*
X27754D01*
X32454D02*
X32954D01*
X24234Y93408D02*
X27754D01*
X32454D02*
X32954D01*
X24234Y93428D02*
X27754D01*
X32474D02*
X32974D01*
X24254Y93448D02*
X27734D01*
X32474D02*
X32974D01*
X24254Y93468D02*
X27734D01*
X32494D02*
X32994D01*
X24274Y93488D02*
X27734D01*
X32514D02*
X32994D01*
X24274Y93508D02*
X27714D01*
X32514D02*
X33014D01*
X24274Y93528D02*
X27714D01*
X32534D02*
X33014D01*
X24294Y93548D02*
X27694D01*
X32534D02*
X33034D01*
X24294Y93568D02*
X27694D01*
X32554D02*
X33034D01*
X24314Y93588D02*
X27674D01*
X32554D02*
X33054D01*
X24314Y93608D02*
X27674D01*
X32574D02*
X33054D01*
X24334Y93628D02*
X27654D01*
X32594D02*
X33074D01*
X24334Y93648D02*
X27654D01*
X32594D02*
X33074D01*
X24354Y93668D02*
X27634D01*
X24354Y93688D02*
X27634D01*
X24374Y93708D02*
X27614D01*
X24374Y93728D02*
X27614D01*
X24394Y93748D02*
X27594D01*
X24414Y93768D02*
X27574D01*
X24414Y93788D02*
X27574D01*
X24434Y93808D02*
X27554D01*
X24454Y93828D02*
X27534D01*
X24474Y93848D02*
X27514D01*
X24474Y93868D02*
X27514D01*
X24494Y93888D02*
X27494D01*
X24514Y93908D02*
X27474D01*
X24534Y93928D02*
X27454D01*
X24554Y93948D02*
X27434D01*
X24574Y93968D02*
X27414D01*
X24594Y93988D02*
X27394D01*
X24594Y94008D02*
X27414D01*
X24474Y94028D02*
X27574D01*
X24334Y94048D02*
X27694D01*
X24214Y94068D02*
X27814D01*
X24094Y94088D02*
X27914D01*
X23974Y94108D02*
X28034D01*
X23894Y94128D02*
X28114D01*
X23814Y94148D02*
X28194D01*
X23734Y94168D02*
X28274D01*
X23654Y94188D02*
X28354D01*
X23574Y94208D02*
X28434D01*
X23494Y94228D02*
X28494D01*
X23434Y94248D02*
X28554D01*
X23374Y94268D02*
X28614D01*
X23314Y94288D02*
X28674D01*
X23254Y94308D02*
X28734D01*
X23214Y94328D02*
X28794D01*
X23154Y94348D02*
X28834D01*
X23114Y94368D02*
X28874D01*
X23054Y94388D02*
X28934D01*
X23014Y94408D02*
X28974D01*
X22974Y94428D02*
X29014D01*
X22934Y94448D02*
X29074D01*
X22894Y94468D02*
X29094D01*
X22854Y94488D02*
X29134D01*
X22814Y94508D02*
X29174D01*
X22774Y94528D02*
X29214D01*
X22734Y94548D02*
X29254D01*
X22694Y94568D02*
X29294D01*
X22674Y94588D02*
X29314D01*
X22634Y94608D02*
X29354D01*
X22594Y94628D02*
X29394D01*
X22574Y94648D02*
X29414D01*
X22534Y94668D02*
X29454D01*
X22514Y94688D02*
X29474D01*
X22474Y94708D02*
X29514D01*
X22454Y94728D02*
X29534D01*
X22434Y94748D02*
X29554D01*
X22394Y94768D02*
X29594D01*
X22374Y94788D02*
X29614D01*
X22354Y94808D02*
X29634D01*
X22314Y94828D02*
X29674D01*
X22294Y94848D02*
X29694D01*
X22274Y94868D02*
X29714D01*
X22254Y94888D02*
X29734D01*
X22234Y94908D02*
X29754D01*
X22214Y94928D02*
X29774D01*
X22194Y94948D02*
X29794D01*
X22154Y94968D02*
X29834D01*
X22134Y94988D02*
X29854D01*
X22114Y95008D02*
X29874D01*
X22094Y95028D02*
X29894D01*
X22074Y95048D02*
X29914D01*
X22054Y95068D02*
X29934D01*
X22034Y95088D02*
X29954D01*
X22014Y95108D02*
X29974D01*
X22014Y95128D02*
X29974D01*
X21994Y95148D02*
X29994D01*
X21974Y95168D02*
X30014D01*
X21954Y95188D02*
X30034D01*
X21934Y95208D02*
X30054D01*
X21914Y95228D02*
X30074D01*
X21914Y95248D02*
X30074D01*
X21894Y95268D02*
X30094D01*
X21874Y95288D02*
X30114D01*
X21854Y95308D02*
X30134D01*
X21834Y95328D02*
X30154D01*
X21834Y95348D02*
X30154D01*
X21814Y95368D02*
X30174D01*
X21794Y95388D02*
X30194D01*
X21794Y95408D02*
X30194D01*
X21774Y95428D02*
X30214D01*
X21754Y95448D02*
X30234D01*
X21754Y95468D02*
X30234D01*
X21734Y95488D02*
X30254D01*
X21714Y95508D02*
X30274D01*
X21714Y95528D02*
X30274D01*
X21694Y95548D02*
X30294D01*
X21694Y95568D02*
X30294D01*
X21674Y95588D02*
X30314D01*
X21654Y95608D02*
X30334D01*
X21654Y95628D02*
X30334D01*
X21634Y95648D02*
X30354D01*
X21634Y95668D02*
X30354D01*
X21614Y95688D02*
X30374D01*
X21614Y95708D02*
X30374D01*
X21594Y95728D02*
X30394D01*
X21594Y95748D02*
X30394D01*
X21574Y95768D02*
X30414D01*
X21574Y95788D02*
X30414D01*
X21554Y95808D02*
X30434D01*
X21554Y95828D02*
X30434D01*
X21534Y95848D02*
X30454D01*
X21534Y95868D02*
X30454D01*
X21514Y95888D02*
X30474D01*
X21514Y95908D02*
X30474D01*
X21494Y95928D02*
X30494D01*
X21494Y95948D02*
X30494D01*
X21494Y95968D02*
X30494D01*
X21474Y95988D02*
X30514D01*
X21474Y96008D02*
X30514D01*
X21454Y96028D02*
X30534D01*
X21454Y96048D02*
X30534D01*
X21434Y96068D02*
X30554D01*
X21434Y96088D02*
X30554D01*
X21434Y96108D02*
X30554D01*
X21414Y96128D02*
X30574D01*
X21414Y96148D02*
X30574D01*
X21414Y96168D02*
X30574D01*
X21394Y96188D02*
X30594D01*
X21394Y96208D02*
X30594D01*
X21394Y96228D02*
X30594D01*
X21374Y96248D02*
X30614D01*
X21374Y96268D02*
X30614D01*
X21374Y96288D02*
X30614D01*
X21354Y96308D02*
X30634D01*
X21354Y96328D02*
X30634D01*
X21354Y96348D02*
X30634D01*
X21354Y96368D02*
X30634D01*
X21334Y96388D02*
X30654D01*
X21334Y96408D02*
X30654D01*
X21334Y96428D02*
X30654D01*
X21314Y96448D02*
X30674D01*
X21314Y96468D02*
X30674D01*
X21314Y96488D02*
X30674D01*
X21314Y96508D02*
X30674D01*
X21314Y96528D02*
X30674D01*
X21294Y96548D02*
X30694D01*
X21294Y96568D02*
X30694D01*
X21294Y96588D02*
X30694D01*
X21294Y96608D02*
X30694D01*
X21274Y96628D02*
X30714D01*
X21274Y96648D02*
X30714D01*
X21274Y96668D02*
X30714D01*
X21274Y96688D02*
X30714D01*
X21274Y96708D02*
X30714D01*
X21254Y96728D02*
X30734D01*
X21254Y96748D02*
X30734D01*
X21254Y96768D02*
X30734D01*
X21254Y96788D02*
X30734D01*
X21254Y96808D02*
X30734D01*
X21234Y96828D02*
X30754D01*
X21234Y96848D02*
X30754D01*
X21234Y96868D02*
X30754D01*
X21234Y96888D02*
X30754D01*
X21234Y96908D02*
X30754D01*
X21234Y96928D02*
X30754D01*
X21214Y96948D02*
X30774D01*
X21214Y96968D02*
X30774D01*
X21214Y96988D02*
X30774D01*
X21214Y97008D02*
X30774D01*
X21214Y97028D02*
X30774D01*
X21214Y97048D02*
X30774D01*
X21214Y97068D02*
X30774D01*
X21214Y97088D02*
X30774D01*
X21194Y97108D02*
X30794D01*
X21194Y97128D02*
X30794D01*
X21194Y97148D02*
X30794D01*
X21194Y97168D02*
X30794D01*
X21194Y97188D02*
X30794D01*
X21194Y97208D02*
X30794D01*
X21194Y97228D02*
X30794D01*
X21194Y97248D02*
X30794D01*
X21194Y97268D02*
X30794D01*
X21194Y97288D02*
X30794D01*
X21174Y97308D02*
X30814D01*
X21174Y97328D02*
X30814D01*
X21174Y97348D02*
X30814D01*
X21174Y97368D02*
X30814D01*
X21174Y97388D02*
X30814D01*
X21174Y97408D02*
X30814D01*
X21174Y97428D02*
X30814D01*
X21174Y97448D02*
X30814D01*
X21174Y97468D02*
X30814D01*
X21174Y97488D02*
X30814D01*
X21174Y97508D02*
X30814D01*
X21174Y97528D02*
X30814D01*
X21174Y97548D02*
X30814D01*
X21174Y97568D02*
X30814D01*
X21174Y97588D02*
X30814D01*
X21174Y97608D02*
X30814D01*
X21174Y97628D02*
X30814D01*
X21174Y97648D02*
X30814D01*
X21174Y97668D02*
X30814D01*
X21174Y97688D02*
X30814D01*
X21174Y97708D02*
X30814D01*
X21174Y97728D02*
X30834D01*
X21154Y97748D02*
X30834D01*
X21154Y97768D02*
X30834D01*
X21154Y97788D02*
X30834D01*
X21154Y97808D02*
X30834D01*
X21154Y97828D02*
X30834D01*
X21154Y97848D02*
X30834D01*
X21154Y97868D02*
X30834D01*
X21154Y97888D02*
X30834D01*
X21174Y97908D02*
X30814D01*
X21174Y97928D02*
X30814D01*
X21174Y97948D02*
X30814D01*
X21174Y97968D02*
X30814D01*
X24554Y89368D02*
X27434D01*
X24454Y89388D02*
X27534D01*
X24354Y89408D02*
X27634D01*
X24254Y89428D02*
X27714D01*
X24174Y89448D02*
X27814D01*
X24094Y89468D02*
X27894D01*
X24014Y89488D02*
X27974D01*
X23934Y89508D02*
X28054D01*
X23874Y89528D02*
X28114D01*
X23794Y89548D02*
X28194D01*
X23734Y89568D02*
X28254D01*
X23674Y89588D02*
X28314D01*
X23594Y89608D02*
X28394D01*
X23534Y89628D02*
X28454D01*
X23494Y89648D02*
X28494D01*
X23434Y89668D02*
X28554D01*
X23374Y89688D02*
X28614D01*
X23314Y89708D02*
X28674D01*
X23254Y89728D02*
X28734D01*
X23214Y89748D02*
X28774D01*
X23154Y89768D02*
X28834D01*
X23094Y89788D02*
X28874D01*
X23054Y89808D02*
X28934D01*
X23014Y89828D02*
X28974D01*
X22954Y89848D02*
X29034D01*
X22914Y89868D02*
X29074D01*
X22854Y89888D02*
X29134D01*
X22814Y89908D02*
X29174D01*
X22774Y89928D02*
X29214D01*
X22734Y89948D02*
X29254D01*
X22694Y89968D02*
X29294D01*
X18014Y97988D02*
X18454D01*
X33534D02*
X33974D01*
X18014Y98008D02*
X18454D01*
X18014Y98028D02*
X18454D01*
X18014Y98048D02*
X18454D01*
X18034Y98068D02*
X18454D01*
X18034Y98088D02*
X18454D01*
X18034Y98108D02*
X18454D01*
X18034Y98128D02*
X18454D01*
X18034Y98148D02*
X18454D01*
X18034Y98168D02*
X18454D01*
X18034Y98188D02*
X18474D01*
X18034Y98208D02*
X18474D01*
X18034Y98228D02*
X18474D01*
X18034Y98248D02*
X18474D01*
X18034Y98268D02*
X18474D01*
X18034Y98288D02*
X18474D01*
X18054Y98308D02*
X18474D01*
X18054Y98328D02*
X18474D01*
X18054Y98348D02*
X18474D01*
X18054Y98368D02*
X18474D01*
X18054Y98388D02*
X18474D01*
X18054Y98408D02*
X18494D01*
X18054Y98428D02*
X18494D01*
X18054Y98448D02*
X18494D01*
X18054Y98468D02*
X18494D01*
X18074Y98488D02*
X18494D01*
X18074Y98508D02*
X18494D01*
X18074Y98528D02*
X18494D01*
X18074Y98548D02*
X18514D01*
X18074Y98568D02*
X18514D01*
X18074Y98588D02*
X18514D01*
X18074Y98608D02*
X18514D01*
X18094Y98628D02*
X18514D01*
X18094Y98648D02*
X18514D01*
X18094Y98668D02*
X18514D01*
X18094Y98688D02*
X18534D01*
X18094Y98708D02*
X18534D01*
X18094Y98728D02*
X18534D01*
X18094Y98748D02*
X18534D01*
X18114Y98768D02*
X18534D01*
X18114Y98788D02*
X18534D01*
X18114Y98808D02*
X18554D01*
X18114Y98828D02*
X18554D01*
X18114Y98848D02*
X18554D01*
X18114Y98868D02*
X18554D01*
X18134Y98888D02*
X18554D01*
X18134Y98908D02*
X18574D01*
X18134Y98928D02*
X18574D01*
X18134Y98948D02*
X18574D01*
X18134Y98968D02*
X18574D01*
X18134Y98988D02*
X18574D01*
X18154Y99008D02*
X18574D01*
X18154Y99028D02*
X18594D01*
X18154Y99048D02*
X18594D01*
X18154Y99068D02*
X18594D01*
X18154Y99088D02*
X18594D01*
X18174Y99108D02*
X18594D01*
X18174Y99128D02*
X18614D01*
X18174Y99148D02*
X18614D01*
X18174Y99168D02*
X18614D01*
X18194Y99188D02*
X18614D01*
X18194Y99208D02*
X18634D01*
X18194Y99228D02*
X18634D01*
X18194Y99248D02*
X18634D01*
X18194Y99268D02*
X18634D01*
X18214Y99288D02*
X18654D01*
X18214Y99308D02*
X18654D01*
X18214Y99328D02*
X18654D01*
X18214Y99348D02*
X18654D01*
X18234Y99368D02*
X18674D01*
X18234Y99388D02*
X18674D01*
X18234Y99408D02*
X18674D01*
X18234Y99428D02*
X18674D01*
X18234Y99448D02*
X18694D01*
X18254Y99468D02*
X18694D01*
X18254Y99488D02*
X18694D01*
X18254Y99508D02*
X18694D01*
X18254Y99528D02*
X18714D01*
X18274Y99548D02*
X18714D01*
X18274Y99568D02*
X18714D01*
X18274Y99588D02*
X18714D01*
X18294Y99608D02*
X18734D01*
X18294Y99628D02*
X18734D01*
X18294Y99648D02*
X18734D01*
X18294Y99668D02*
X18754D01*
X18314Y99688D02*
X18754D01*
X18314Y99708D02*
X18754D01*
X18314Y99728D02*
X18774D01*
X18314Y99748D02*
X18774D01*
X18334Y99768D02*
X18774D01*
X18334Y99788D02*
X18774D01*
X18334Y99808D02*
X18794D01*
X18354Y99828D02*
X18794D01*
X18354Y99848D02*
X18794D01*
X18354Y99868D02*
X18814D01*
X18354Y99888D02*
X18814D01*
X18374Y99908D02*
X18814D01*
X18374Y99928D02*
X18834D01*
X18374Y99948D02*
X18834D01*
X18394Y99968D02*
X18834D01*
X18394Y99988D02*
X18854D01*
X18394Y100008D02*
X18854D01*
X18414Y100028D02*
X18854D01*
X18414Y100048D02*
X18874D01*
X18414Y100068D02*
X18874D01*
X18434Y100088D02*
X18874D01*
X18434Y100108D02*
X18894D01*
X18434Y100128D02*
X18894D01*
X18454Y100148D02*
X18894D01*
X18454Y100168D02*
X18914D01*
X18454Y100188D02*
X18914D01*
X18474Y100208D02*
X18934D01*
X18474Y100228D02*
X18934D01*
X18474Y100248D02*
X18934D01*
X18494Y100268D02*
X18954D01*
X18494Y100288D02*
X18954D01*
X18514Y100308D02*
X18974D01*
X18514Y100328D02*
X18974D01*
X18514Y100348D02*
X18974D01*
X18534Y100368D02*
X18994D01*
X18534Y100388D02*
X18994D01*
X18534Y100408D02*
X18994D01*
X18554Y100428D02*
X19014D01*
X18554Y100448D02*
X19014D01*
X18554Y100468D02*
X19034D01*
X18574Y100488D02*
X19034D01*
X18574Y100508D02*
X19054D01*
X18594Y100528D02*
X19054D01*
X18594Y100548D02*
X19054D01*
X18614Y100568D02*
X19074D01*
X18614Y100588D02*
X19074D01*
X18614Y100608D02*
X19094D01*
X18634Y100628D02*
X19094D01*
X18634Y100648D02*
X19114D01*
X18654Y100668D02*
X19114D01*
X18654Y100688D02*
X19114D01*
X18654Y100708D02*
X19134D01*
X18674Y100728D02*
X19134D01*
X18674Y100748D02*
X19154D01*
X18694Y100768D02*
X19154D01*
X18694Y100788D02*
X19174D01*
X18714Y100808D02*
X19174D01*
X18714Y100828D02*
X19194D01*
X18714Y100848D02*
X19194D01*
X18734Y100868D02*
X19214D01*
X18734Y100888D02*
X19214D01*
X18754Y100908D02*
X19234D01*
X18754Y100928D02*
X19234D01*
X18774Y100948D02*
X19254D01*
X18774Y100968D02*
X19254D01*
X18794Y100988D02*
X19274D01*
X18794Y101008D02*
X19274D01*
X18814Y101028D02*
X19294D01*
X18814Y101048D02*
X19294D01*
X18834Y101068D02*
X19314D01*
X18834Y101088D02*
X19314D01*
X18854Y101108D02*
X19334D01*
X18854Y101128D02*
X19334D01*
X18854Y101148D02*
X19354D01*
X18874Y101168D02*
X19354D01*
X18874Y101188D02*
X19374D01*
X18894Y101208D02*
X19374D01*
X21814D02*
X24074D01*
X18914Y101228D02*
X19394D01*
X21814D02*
X24034D01*
X18914Y101248D02*
X19394D01*
X21814D02*
X24014D01*
X18934Y101268D02*
X19414D01*
X21834D02*
X23974D01*
X18934Y101288D02*
X19434D01*
X21834D02*
X23954D01*
X18954Y101308D02*
X19434D01*
X21834D02*
X23914D01*
X18954Y101328D02*
X19454D01*
X21834D02*
X23894D01*
X18974Y101348D02*
X19454D01*
X21834D02*
X23854D01*
X18974Y101368D02*
X19474D01*
X21834D02*
X23834D01*
X18994Y101388D02*
X19474D01*
X21834D02*
X23794D01*
X18994Y101408D02*
X19494D01*
X21854D02*
X23754D01*
X19014Y101428D02*
X19514D01*
X21854D02*
X23734D01*
X19014Y101448D02*
X19514D01*
X21854D02*
X23694D01*
X19034Y101468D02*
X19534D01*
X21854D02*
X23674D01*
X19034Y101488D02*
X19534D01*
X21874D02*
X23634D01*
X19054Y101508D02*
X19554D01*
X21874D02*
X23594D01*
X19054Y101528D02*
X19574D01*
X21874D02*
X23554D01*
X19074Y101548D02*
X19574D01*
X21874D02*
X23534D01*
X19094Y101568D02*
X19594D01*
X21894D02*
X23494D01*
X19094Y101588D02*
X19594D01*
X21894D02*
X23454D01*
X19114Y101608D02*
X19614D01*
X21894D02*
X23414D01*
X19114Y101628D02*
X19634D01*
X21894D02*
X23374D01*
X19134Y101648D02*
X19634D01*
X21914D02*
X23334D01*
X19154Y101668D02*
X19654D01*
X21914D02*
X23314D01*
X19154Y101688D02*
X19674D01*
X21914D02*
X23274D01*
X19174Y101708D02*
X19674D01*
X21914D02*
X23214D01*
X19174Y101728D02*
X19694D01*
X21934D02*
X23174D01*
X19194Y101748D02*
X19694D01*
X21934D02*
X23134D01*
X19214Y101768D02*
X19714D01*
X21934D02*
X23094D01*
X19214Y101788D02*
X19734D01*
X21954D02*
X23054D01*
X19234Y101808D02*
X19734D01*
X21954D02*
X22994D01*
X19234Y101828D02*
X19754D01*
X21954D02*
X22934D01*
X19254Y101848D02*
X19774D01*
X21974D02*
X22894D01*
X19274Y101868D02*
X19794D01*
X21974D02*
X22834D01*
X19274Y101888D02*
X19794D01*
X21974D02*
X22794D01*
X19294Y101908D02*
X19814D01*
X21994D02*
X22714D01*
X19294Y101928D02*
X19814D01*
X21994D02*
X22654D01*
X19314Y101948D02*
X19834D01*
X22014D02*
X22574D01*
X19334Y101968D02*
X19854D01*
X22014D02*
X22494D01*
X19334Y101988D02*
X19874D01*
X22034D02*
X22374D01*
X19354Y102008D02*
X19874D01*
X19374Y102028D02*
X19894D01*
X19374Y102048D02*
X19914D01*
X19394Y102068D02*
X19914D01*
X19414Y102088D02*
X19934D01*
X19414Y102108D02*
X19954D01*
X19434Y102128D02*
X19974D01*
X19454Y102148D02*
X19994D01*
X19454Y102168D02*
X19994D01*
X19474Y102188D02*
X20014D01*
X19494Y102208D02*
X20034D01*
X19514Y102228D02*
X20034D01*
X19514Y102248D02*
X20054D01*
X19534Y102268D02*
X20074D01*
X19554Y102288D02*
X20094D01*
X19554Y102308D02*
X20114D01*
X19574Y102328D02*
X20114D01*
X19594Y102348D02*
X20134D01*
X19614Y102368D02*
X20154D01*
X19614Y102388D02*
X20174D01*
X19634Y102408D02*
X20194D01*
X19654Y102428D02*
X20194D01*
X19674Y102448D02*
X20214D01*
X19674Y102468D02*
X20234D01*
X19694Y102488D02*
X20254D01*
X19714Y102508D02*
X20274D01*
X19734Y102528D02*
X20294D01*
X19734Y102548D02*
X20294D01*
X19754Y102568D02*
X20314D01*
X19774Y102588D02*
X20334D01*
X19794Y102608D02*
X20354D01*
X19794Y102628D02*
X20374D01*
X19814Y102648D02*
X20394D01*
X19834Y102668D02*
X20414D01*
X19854Y102688D02*
X20434D01*
X19874Y102708D02*
X20454D01*
X19894Y102728D02*
X20454D01*
X19894Y102748D02*
X20474D01*
X19914Y102768D02*
X20494D01*
X19934Y102788D02*
X20514D01*
X19954Y102808D02*
X20534D01*
X19974Y102828D02*
X20554D01*
X19994Y102848D02*
X20574D01*
X19994Y102868D02*
X20594D01*
X20014Y102888D02*
X20614D01*
X20034Y102908D02*
X20634D01*
X20054Y102928D02*
X20654D01*
X20074Y102948D02*
X20674D01*
X20094Y102968D02*
X20694D01*
X20114Y102988D02*
X20714D01*
X20134Y103008D02*
X20734D01*
X20154Y103028D02*
X20754D01*
X20154Y103048D02*
X20774D01*
X20174Y103068D02*
X20794D01*
X20194Y103088D02*
X20814D01*
X20214Y103108D02*
X20834D01*
X20234Y103128D02*
X20854D01*
X20254Y103148D02*
X20874D01*
X20274Y103168D02*
X20894D01*
X20294Y103188D02*
X20914D01*
X20314Y103208D02*
X20934D01*
X20334Y103228D02*
X20954D01*
X20354Y103248D02*
X20974D01*
X20374Y103268D02*
X21014D01*
X20394Y103288D02*
X21034D01*
X20414Y103308D02*
X21054D01*
X20434Y103328D02*
X21074D01*
X20454Y103348D02*
X21094D01*
X20474Y103368D02*
X21114D01*
X20494Y103388D02*
X21134D01*
X20514Y103408D02*
X21174D01*
X20534Y103428D02*
X21194D01*
X20554Y103448D02*
X21214D01*
X20574Y103468D02*
X21234D01*
X20594Y103488D02*
X21254D01*
X20614Y103508D02*
X21274D01*
X20634Y103528D02*
X21314D01*
X20654Y103548D02*
X21334D01*
X20674Y103568D02*
X21354D01*
X20714Y103588D02*
X21374D01*
X20734Y103608D02*
X21414D01*
X20754Y103628D02*
X21434D01*
X20774Y103648D02*
X21454D01*
X20794Y103668D02*
X21494D01*
X20814Y103688D02*
X21514D01*
X20834Y103708D02*
X21534D01*
X20854Y103728D02*
X21574D01*
X20894Y103748D02*
X21594D01*
X20914Y103768D02*
X21614D01*
X20934Y103788D02*
X21654D01*
X20954Y103808D02*
X21674D01*
X20974Y103828D02*
X21714D01*
X21014Y103848D02*
X21734D01*
X21034Y103868D02*
X21754D01*
X21054Y103888D02*
X21794D01*
X21074Y103908D02*
X21814D01*
X21114Y103928D02*
X21854D01*
X21134Y103948D02*
X21874D01*
X21154Y103968D02*
X21914D01*
X21174Y103988D02*
X21934D01*
X21214Y104008D02*
X21974D01*
X21234Y104028D02*
X21994D01*
X21254Y104048D02*
X22034D01*
X21294Y104068D02*
X22074D01*
X21314Y104088D02*
X22094D01*
X21334Y104108D02*
X22134D01*
X21374Y104128D02*
X22174D01*
X21394Y104148D02*
X22194D01*
X21414Y104168D02*
X22234D01*
X21454Y104188D02*
X22274D01*
X21474Y104208D02*
X22294D01*
X21514Y104228D02*
X22334D01*
X21534Y104248D02*
X22374D01*
X21574Y104268D02*
X22414D01*
X21594Y104288D02*
X22434D01*
X21634Y104308D02*
X22474D01*
X21654Y104328D02*
X22514D01*
X21674Y104348D02*
X22554D01*
X21714Y104368D02*
X22594D01*
X21754Y104388D02*
X22634D01*
X21774Y104408D02*
X22674D01*
X21814Y104428D02*
X22714D01*
X21834Y104448D02*
X22754D01*
X21874Y104468D02*
X22794D01*
X21914Y104488D02*
X22834D01*
X21934Y104508D02*
X22874D01*
X21974Y104528D02*
X22914D01*
X21994Y104548D02*
X22974D01*
X22034Y104568D02*
X23014D01*
X22074Y104588D02*
X23054D01*
X22114Y104608D02*
X23114D01*
X22134Y104628D02*
X23154D01*
X22174Y104648D02*
X23214D01*
X22214Y104668D02*
X23254D01*
X22254Y104688D02*
X23314D01*
X22294Y104708D02*
X23354D01*
X22334Y104728D02*
X23414D01*
X22354Y104748D02*
X23454D01*
X22394Y104768D02*
X23514D01*
X22434Y104788D02*
X23574D01*
X22474Y104808D02*
X23634D01*
X22514Y104828D02*
X23694D01*
X22554Y104848D02*
X23754D01*
X22594Y104868D02*
X23834D01*
X22634Y104888D02*
X23894D01*
X22694Y104908D02*
X23954D01*
X22734Y104928D02*
X24014D01*
X22774Y104948D02*
X24094D01*
X22814Y104968D02*
X24174D01*
X22854Y104988D02*
X24254D01*
X22914Y105008D02*
X24354D01*
X22954Y105028D02*
X24434D01*
X23014Y105048D02*
X24534D01*
X22474Y90068D02*
X23654D01*
X22434Y90088D02*
X23574D01*
X22394Y90108D02*
X23514D01*
X22354Y90128D02*
X23454D01*
X22334Y90148D02*
X23394D01*
X22294Y90168D02*
X23334D01*
X22254Y90188D02*
X23294D01*
X22214Y90208D02*
X23234D01*
X22174Y90228D02*
X23194D01*
X22154Y90248D02*
X23134D01*
X22114Y90268D02*
X23094D01*
X22074Y90288D02*
X23054D01*
X22034Y90308D02*
X23014D01*
X21994Y90328D02*
X22954D01*
X21974Y90348D02*
X22914D01*
X21934Y90368D02*
X22874D01*
X21914Y90388D02*
X22834D01*
X21874Y90408D02*
X22794D01*
X21834Y90428D02*
X22754D01*
X21814Y90448D02*
X22714D01*
X21774Y90468D02*
X22654D01*
X21754Y90488D02*
X22634D01*
X21714Y90508D02*
X22594D01*
X21674Y90528D02*
X22554D01*
X21654Y90548D02*
X22514D01*
X21634Y90568D02*
X22474D01*
X21594Y90588D02*
X22434D01*
X21574Y90608D02*
X22394D01*
X21534Y90628D02*
X22374D01*
X21514Y90648D02*
X22334D01*
X21474Y90668D02*
X22294D01*
X21454Y90688D02*
X22254D01*
X21414Y90708D02*
X22234D01*
X21394Y90728D02*
X22194D01*
X21374Y90748D02*
X22154D01*
X21334Y90768D02*
X22134D01*
X21314Y90788D02*
X22094D01*
X21294Y90808D02*
X22054D01*
X21254Y90828D02*
X22034D01*
X21234Y90848D02*
X21994D01*
X21214Y90868D02*
X21974D01*
X21174Y90888D02*
X21934D01*
X21154Y90908D02*
X21914D01*
X21134Y90928D02*
X21874D01*
X21114Y90948D02*
X21854D01*
X21074Y90968D02*
X21814D01*
X21054Y90988D02*
X21794D01*
X21034Y91008D02*
X21754D01*
X21014Y91028D02*
X21734D01*
X20974Y91048D02*
X21694D01*
X20954Y91068D02*
X21674D01*
X20934Y91088D02*
X21634D01*
X20914Y91108D02*
X21614D01*
X20894Y91128D02*
X21594D01*
X20854Y91148D02*
X21554D01*
X20834Y91168D02*
X21534D01*
X20814Y91188D02*
X21514D01*
X20794Y91208D02*
X21474D01*
X20774Y91228D02*
X21454D01*
X20754Y91248D02*
X21434D01*
X20734Y91268D02*
X21394D01*
X20714Y91288D02*
X21374D01*
X20674Y91308D02*
X21354D01*
X20654Y91328D02*
X21334D01*
X20634Y91348D02*
X21294D01*
X20614Y91368D02*
X21274D01*
X20594Y91388D02*
X21254D01*
X20574Y91408D02*
X21234D01*
X20554Y91428D02*
X21214D01*
X20534Y91448D02*
X21174D01*
X20514Y91468D02*
X21154D01*
X20494Y91488D02*
X21134D01*
X20474Y91508D02*
X21114D01*
X20454Y91528D02*
X21094D01*
X20434Y91548D02*
X21074D01*
X20414Y91568D02*
X21054D01*
X20394Y91588D02*
X21014D01*
X20374Y91608D02*
X20994D01*
X20354Y91628D02*
X20974D01*
X20334Y91648D02*
X20954D01*
X20314Y91668D02*
X20934D01*
X20294Y91688D02*
X20914D01*
X20274Y91708D02*
X20894D01*
X20254Y91728D02*
X20874D01*
X20234Y91748D02*
X20854D01*
X20214Y91768D02*
X20834D01*
X20194Y91788D02*
X20814D01*
X20174Y91808D02*
X20794D01*
X20154Y91828D02*
X20774D01*
X20154Y91848D02*
X20754D01*
X20134Y91868D02*
X20734D01*
X20114Y91888D02*
X20714D01*
X20094Y91908D02*
X20694D01*
X20074Y91928D02*
X20674D01*
X20054Y91948D02*
X20654D01*
X20034Y91968D02*
X20634D01*
X20014Y91988D02*
X20614D01*
X19994Y92008D02*
X20594D01*
X19994Y92028D02*
X20574D01*
X19974Y92048D02*
X20554D01*
X19954Y92068D02*
X20534D01*
X19934Y92088D02*
X20514D01*
X19914Y92108D02*
X20494D01*
X19894Y92128D02*
X20474D01*
X19894Y92148D02*
X20454D01*
X19874Y92168D02*
X20434D01*
X19854Y92188D02*
X20414D01*
X19834Y92208D02*
X20414D01*
X19814Y92228D02*
X20394D01*
X19794Y92248D02*
X20374D01*
X19794Y92268D02*
X20354D01*
X19774Y92288D02*
X20334D01*
X19754Y92308D02*
X20314D01*
X19734Y92328D02*
X20294D01*
X19734Y92348D02*
X20274D01*
X19714Y92368D02*
X20274D01*
X19694Y92388D02*
X20254D01*
X19674Y92408D02*
X20234D01*
X19674Y92428D02*
X20214D01*
X19654Y92448D02*
X20194D01*
X19634Y92468D02*
X20174D01*
X19614Y92488D02*
X20174D01*
X19614Y92508D02*
X20154D01*
X19594Y92528D02*
X20134D01*
X19574Y92548D02*
X20114D01*
X19554Y92568D02*
X20094D01*
X19554Y92588D02*
X20094D01*
X19534Y92608D02*
X20074D01*
X19514Y92628D02*
X20054D01*
X19514Y92648D02*
X20034D01*
X19494Y92668D02*
X20034D01*
X19474Y92688D02*
X20014D01*
X19454Y92708D02*
X19994D01*
X19454Y92728D02*
X19974D01*
X19434Y92748D02*
X19974D01*
X19414Y92768D02*
X19954D01*
X19414Y92788D02*
X19934D01*
X19394Y92808D02*
X19914D01*
X19374Y92828D02*
X19914D01*
X19374Y92848D02*
X19894D01*
X19354Y92868D02*
X19874D01*
X19334Y92888D02*
X19854D01*
X19334Y92908D02*
X19854D01*
X19314Y92928D02*
X19834D01*
X19294Y92948D02*
X19814D01*
X19294Y92968D02*
X19814D01*
X19274Y92988D02*
X19794D01*
X19274Y93008D02*
X19774D01*
X19254Y93028D02*
X19774D01*
X19234Y93048D02*
X19754D01*
X19234Y93068D02*
X19734D01*
X19214Y93088D02*
X19734D01*
X19214Y93108D02*
X19714D01*
X19194Y93128D02*
X19694D01*
X19174Y93148D02*
X19694D01*
X19174Y93168D02*
X19674D01*
X19154Y93188D02*
X19654D01*
X19154Y93208D02*
X19654D01*
X19134Y93228D02*
X19634D01*
X19114Y93248D02*
X19614D01*
X19114Y93268D02*
X19614D01*
X19094Y93288D02*
X19594D01*
X19094Y93308D02*
X19594D01*
X19074Y93328D02*
X19574D01*
X19054Y93348D02*
X19554D01*
X19054Y93368D02*
X19554D01*
X19034Y93388D02*
X19534D01*
X19034Y93408D02*
X19534D01*
X19014Y93428D02*
X19514D01*
X19014Y93448D02*
X19494D01*
X18994Y93468D02*
X19494D01*
X18994Y93488D02*
X19474D01*
X18974Y93508D02*
X19474D01*
X18974Y93528D02*
X19454D01*
X18954Y93548D02*
X19454D01*
X18954Y93568D02*
X19434D01*
X18934Y93588D02*
X19414D01*
X18934Y93608D02*
X19414D01*
X18914Y93628D02*
X19394D01*
X18914Y93648D02*
X19394D01*
X18894Y93668D02*
X19374D01*
X18874Y93688D02*
X19374D01*
X18874Y93708D02*
X19354D01*
X18854Y93728D02*
X19354D01*
X18854Y93748D02*
X19334D01*
X18854Y93768D02*
X19314D01*
X18834Y93788D02*
X19314D01*
X18834Y93808D02*
X19294D01*
X18814Y93828D02*
X19294D01*
X18814Y93848D02*
X19274D01*
X18794Y93868D02*
X19274D01*
X18794Y93888D02*
X19254D01*
X18774Y93908D02*
X19254D01*
X18774Y93928D02*
X19234D01*
X18754Y93948D02*
X19234D01*
X18754Y93968D02*
X19214D01*
X18734Y93988D02*
X19214D01*
X18734Y94008D02*
X19194D01*
X18714Y94028D02*
X19194D01*
X18714Y94048D02*
X19194D01*
X18714Y94068D02*
X19174D01*
X18694Y94088D02*
X19174D01*
X18694Y94108D02*
X19154D01*
X18674Y94128D02*
X19154D01*
X18674Y94148D02*
X19134D01*
X18654Y94168D02*
X19134D01*
X18654Y94188D02*
X19114D01*
X18654Y94208D02*
X19114D01*
X18634Y94228D02*
X19094D01*
X18634Y94248D02*
X19094D01*
X18614Y94268D02*
X19094D01*
X18614Y94288D02*
X19074D01*
X18614Y94308D02*
X19074D01*
X18594Y94328D02*
X19054D01*
X18594Y94348D02*
X19054D01*
X18574Y94368D02*
X19034D01*
X18574Y94388D02*
X19034D01*
X18554Y94408D02*
X19034D01*
X18554Y94428D02*
X19014D01*
X18554Y94448D02*
X19014D01*
X18534Y94468D02*
X18994D01*
X18534Y94488D02*
X18994D01*
X18534Y94508D02*
X18994D01*
X18514Y94528D02*
X18974D01*
X18514Y94548D02*
X18974D01*
X18514Y94568D02*
X18954D01*
X18494Y94588D02*
X18954D01*
X18494Y94608D02*
X18954D01*
X18474Y94628D02*
X18934D01*
X18474Y94648D02*
X18934D01*
X18474Y94668D02*
X18914D01*
X18454Y94688D02*
X18914D01*
X18454Y94708D02*
X18914D01*
X18454Y94728D02*
X18894D01*
X18434Y94748D02*
X18894D01*
X18434Y94768D02*
X18894D01*
X18434Y94788D02*
X18874D01*
X18414Y94808D02*
X18874D01*
X18414Y94828D02*
X18874D01*
X18414Y94848D02*
X18854D01*
X18394Y94868D02*
X18854D01*
X18394Y94888D02*
X18854D01*
X18394Y94908D02*
X18834D01*
X18374Y94928D02*
X18834D01*
X18374Y94948D02*
X18834D01*
X18374Y94968D02*
X18814D01*
X18354Y94988D02*
X18814D01*
X18354Y95008D02*
X18814D01*
X18354Y95028D02*
X18794D01*
X18354Y95048D02*
X18794D01*
X18334Y95068D02*
X18794D01*
X18334Y95088D02*
X18774D01*
X18334Y95108D02*
X18774D01*
X18314Y95128D02*
X18774D01*
X18314Y95148D02*
X18754D01*
X18314Y95168D02*
X18754D01*
X18314Y95188D02*
X18754D01*
X18294Y95208D02*
X18754D01*
X18294Y95228D02*
X18734D01*
X18294Y95248D02*
X18734D01*
X18294Y95268D02*
X18734D01*
X18274Y95288D02*
X18714D01*
X18274Y95308D02*
X18714D01*
X18274Y95328D02*
X18714D01*
X18254Y95348D02*
X18714D01*
X18254Y95368D02*
X18694D01*
X18254Y95388D02*
X18694D01*
X18254Y95408D02*
X18694D01*
X18234Y95428D02*
X18674D01*
X18234Y95448D02*
X18674D01*
X18234Y95468D02*
X18674D01*
X18234Y95488D02*
X18674D01*
X18234Y95508D02*
X18674D01*
X18214Y95528D02*
X18654D01*
X18214Y95548D02*
X18654D01*
X18214Y95568D02*
X18654D01*
X18214Y95588D02*
X18654D01*
X18194Y95608D02*
X18634D01*
X18194Y95628D02*
X18634D01*
X18194Y95648D02*
X18634D01*
X18194Y95668D02*
X18634D01*
X18194Y95688D02*
X18614D01*
X18174Y95708D02*
X18614D01*
X18174Y95728D02*
X18614D01*
X18174Y95748D02*
X18614D01*
X18174Y95768D02*
X18594D01*
X18154Y95788D02*
X18594D01*
X18154Y95808D02*
X18594D01*
X18154Y95828D02*
X18594D01*
X18154Y95848D02*
X18594D01*
X18154Y95868D02*
X18574D01*
X18134Y95888D02*
X18574D01*
X18134Y95908D02*
X18574D01*
X18134Y95928D02*
X18574D01*
X18134Y95948D02*
X18574D01*
X18134Y95968D02*
X18574D01*
X18134Y95988D02*
X18554D01*
X18114Y96008D02*
X18554D01*
X18114Y96028D02*
X18554D01*
X18114Y96048D02*
X18554D01*
X18114Y96068D02*
X18554D01*
X18114Y96088D02*
X18534D01*
X18114Y96108D02*
X18534D01*
X18094Y96128D02*
X18534D01*
X18094Y96148D02*
X18534D01*
X18094Y96168D02*
X18534D01*
X18094Y96188D02*
X18534D01*
X18094Y96208D02*
X18514D01*
X18094Y96228D02*
X18514D01*
X18094Y96248D02*
X18514D01*
X18074Y96268D02*
X18514D01*
X18074Y96288D02*
X18514D01*
X18074Y96308D02*
X18514D01*
X18074Y96328D02*
X18494D01*
X18074Y96348D02*
X18494D01*
X18074Y96368D02*
X18494D01*
X18074Y96388D02*
X18494D01*
X18054Y96408D02*
X18494D01*
X18054Y96428D02*
X18494D01*
X18054Y96448D02*
X18494D01*
X18054Y96468D02*
X18494D01*
X18054Y96488D02*
X18474D01*
X18054Y96508D02*
X18474D01*
X18054Y96528D02*
X18474D01*
X18054Y96548D02*
X18474D01*
X18054Y96568D02*
X18474D01*
X18034Y96588D02*
X18474D01*
X18034Y96608D02*
X18474D01*
X18034Y96628D02*
X18474D01*
X18034Y96648D02*
X18474D01*
X18034Y96668D02*
X18474D01*
X18034Y96688D02*
X18454D01*
X18034Y96708D02*
X18454D01*
X18034Y96728D02*
X18454D01*
X18034Y96748D02*
X18454D01*
X18034Y96768D02*
X18454D01*
X18034Y96788D02*
X18454D01*
X18034Y96808D02*
X18454D01*
X18014Y96828D02*
X18454D01*
X18014Y96848D02*
X18454D01*
X18014Y96868D02*
X18454D01*
X18014Y96888D02*
X18454D01*
X18014Y96908D02*
X18454D01*
X18014Y96928D02*
X18454D01*
X18014Y96948D02*
X18434D01*
X18014Y96968D02*
X18434D01*
X18014Y96988D02*
X18434D01*
X18014Y97008D02*
X18434D01*
X18014Y97028D02*
X18434D01*
X18014Y97048D02*
X18434D01*
X18014Y97068D02*
X18434D01*
X18014Y97088D02*
X18434D01*
X18014Y97108D02*
X18434D01*
X18014Y97128D02*
X18434D01*
X18014Y97148D02*
X18434D01*
X18014Y97168D02*
X18434D01*
X18014Y97188D02*
X18434D01*
X18014Y97208D02*
X18434D01*
X18014Y97228D02*
X18434D01*
X17994Y97248D02*
X18434D01*
X17994Y97268D02*
X18434D01*
X17994Y97288D02*
X18434D01*
X17994Y97308D02*
X18434D01*
X17994Y97328D02*
X18434D01*
X17994Y97348D02*
X18434D01*
X17994Y97368D02*
X18434D01*
X17994Y97388D02*
X18434D01*
X17994Y97408D02*
X18434D01*
X17994Y97428D02*
X18434D01*
X17994Y97448D02*
X18434D01*
X17994Y97468D02*
X18434D01*
X17994Y97488D02*
X18434D01*
X17994Y97508D02*
X18434D01*
X17994Y97528D02*
X18434D01*
X17994Y97548D02*
X18434D01*
X17994Y97568D02*
X18434D01*
X17994Y97588D02*
X18434D01*
X17994Y97608D02*
X18434D01*
X17994Y97628D02*
X18434D01*
X18014Y97648D02*
X18434D01*
X18014Y97668D02*
X18434D01*
X18014Y97688D02*
X18434D01*
X18014Y97708D02*
X18434D01*
X18014Y97728D02*
X18434D01*
X18014Y97748D02*
X18434D01*
X18014Y97768D02*
X18434D01*
X18014Y97788D02*
X18434D01*
X18014Y97808D02*
X18434D01*
X18014Y97828D02*
X18434D01*
X18014Y97848D02*
X18434D01*
X18014Y97868D02*
X18434D01*
X18014Y97888D02*
X18434D01*
X18014Y97908D02*
X18434D01*
X18014Y97928D02*
X18454D01*
X18014Y97948D02*
X18454D01*
X18014Y97968D02*
X18454D01*
X27914Y101208D02*
X30174D01*
X27954Y101228D02*
X30174D01*
X27974Y101248D02*
X30174D01*
X28014Y101268D02*
X30174D01*
X28034Y101288D02*
X30154D01*
X24614Y101308D02*
X27374D01*
X28074D02*
X30154D01*
X24714Y101328D02*
X27274D01*
X28094D02*
X30154D01*
X24814Y101348D02*
X27174D01*
X28134D02*
X30154D01*
X24934Y101368D02*
X27054D01*
X28154D02*
X30154D01*
X25074Y101388D02*
X26914D01*
X28194D02*
X30154D01*
X25254Y101408D02*
X26734D01*
X28234D02*
X30134D01*
X25494Y101428D02*
X26514D01*
X28254D02*
X30134D01*
X25954Y101448D02*
X26034D01*
X28294D02*
X30134D01*
X28314Y101468D02*
X30134D01*
X28354Y101488D02*
X30134D01*
X28394Y101508D02*
X30114D01*
X28434Y101528D02*
X30114D01*
X28454Y101548D02*
X30114D01*
X28494Y101568D02*
X30094D01*
X28534Y101588D02*
X30094D01*
X28574Y101608D02*
X30094D01*
X28614Y101628D02*
X30094D01*
X28654Y101648D02*
X30074D01*
X28674Y101668D02*
X30074D01*
X28734Y101688D02*
X30074D01*
X28774Y101708D02*
X30074D01*
X28814Y101728D02*
X30054D01*
X28854Y101748D02*
X30054D01*
X28894Y101768D02*
X30054D01*
X28934Y101788D02*
X30034D01*
X28994Y101808D02*
X30034D01*
X29034Y101828D02*
X30034D01*
X29094Y101848D02*
X30014D01*
X29154Y101868D02*
X30014D01*
X29194Y101888D02*
X30014D01*
X29274Y101908D02*
X29994D01*
X29334Y101928D02*
X29994D01*
X29414Y101948D02*
X29994D01*
X29514Y101968D02*
X29974D01*
X29614Y101988D02*
X29954D01*
X32054Y102088D02*
X32574D01*
X32034Y102108D02*
X32574D01*
X32014Y102128D02*
X32554D01*
X32014Y102148D02*
X32534D01*
X31994Y102168D02*
X32534D01*
X31974Y102188D02*
X32514D01*
X31954Y102208D02*
X32494D01*
X31954Y102228D02*
X32474D01*
X31934Y102248D02*
X32474D01*
X31914Y102268D02*
X32454D01*
X31894Y102288D02*
X32434D01*
X31874Y102308D02*
X32434D01*
X31874Y102328D02*
X32414D01*
X31854Y102348D02*
X32394D01*
X31834Y102368D02*
X32374D01*
X31814Y102388D02*
X32374D01*
X31794Y102408D02*
X32354D01*
X31794Y102428D02*
X32334D01*
X31774Y102448D02*
X32314D01*
X31754Y102468D02*
X32314D01*
X31734Y102488D02*
X32294D01*
X31714Y102508D02*
X32274D01*
X31694Y102528D02*
X32254D01*
X31694Y102548D02*
X32254D01*
X31674Y102568D02*
X32234D01*
X31654Y102588D02*
X32214D01*
X31634Y102608D02*
X32194D01*
X31614Y102628D02*
X32194D01*
X31594Y102648D02*
X32174D01*
X31574Y102668D02*
X32154D01*
X31554Y102688D02*
X32134D01*
X31534Y102708D02*
X32114D01*
X31534Y102728D02*
X32094D01*
X31514Y102748D02*
X32094D01*
X31494Y102768D02*
X32074D01*
X31474Y102788D02*
X32054D01*
X31454Y102808D02*
X32034D01*
X31434Y102828D02*
X32014D01*
X31414Y102848D02*
X31994D01*
X31394Y102868D02*
X31994D01*
X31374Y102888D02*
X31974D01*
X31354Y102908D02*
X31954D01*
X31334Y102928D02*
X31934D01*
X31314Y102948D02*
X31914D01*
X31294Y102968D02*
X31894D01*
X31274Y102988D02*
X31874D01*
X31254Y103008D02*
X31854D01*
X31234Y103028D02*
X31834D01*
X31214Y103048D02*
X31834D01*
X31194Y103068D02*
X31814D01*
X31174Y103088D02*
X31794D01*
X31154Y103108D02*
X31774D01*
X31134Y103128D02*
X31754D01*
X31114Y103148D02*
X31734D01*
X31094Y103168D02*
X31714D01*
X31074Y103188D02*
X31694D01*
X31054Y103208D02*
X31674D01*
X31034Y103228D02*
X31654D01*
X31014Y103248D02*
X31634D01*
X30974Y103268D02*
X31614D01*
X30954Y103288D02*
X31594D01*
X30934Y103308D02*
X31574D01*
X30914Y103328D02*
X31554D01*
X30894Y103348D02*
X31534D01*
X30874Y103368D02*
X31514D01*
X30854Y103388D02*
X31494D01*
X30814Y103408D02*
X31474D01*
X30794Y103428D02*
X31454D01*
X30774Y103448D02*
X31434D01*
X30754Y103468D02*
X31414D01*
X30734Y103488D02*
X31394D01*
X30714Y103508D02*
X31374D01*
X30674Y103528D02*
X31354D01*
X30654Y103548D02*
X31334D01*
X30634Y103568D02*
X31314D01*
X30614Y103588D02*
X31274D01*
X30574Y103608D02*
X31254D01*
X30554Y103628D02*
X31234D01*
X30534Y103648D02*
X31214D01*
X30494Y103668D02*
X31194D01*
X30474Y103688D02*
X31174D01*
X30454Y103708D02*
X31154D01*
X30414Y103728D02*
X31134D01*
X30394Y103748D02*
X31094D01*
X30374Y103768D02*
X31074D01*
X30334Y103788D02*
X31054D01*
X30314Y103808D02*
X31034D01*
X30274Y103828D02*
X31014D01*
X30254Y103848D02*
X30974D01*
X30234Y103868D02*
X30954D01*
X30194Y103888D02*
X30934D01*
X30174Y103908D02*
X30914D01*
X30134Y103928D02*
X30874D01*
X30114Y103948D02*
X30854D01*
X30074Y103968D02*
X30834D01*
X30054Y103988D02*
X30814D01*
X30014Y104008D02*
X30774D01*
X29994Y104028D02*
X30754D01*
X29954Y104048D02*
X30734D01*
X29914Y104068D02*
X30694D01*
X29894Y104088D02*
X30674D01*
X29854Y104108D02*
X30654D01*
X29814Y104128D02*
X30614D01*
X29794Y104148D02*
X30594D01*
X29754Y104168D02*
X30574D01*
X29714Y104188D02*
X30534D01*
X29694Y104208D02*
X30514D01*
X29654Y104228D02*
X30474D01*
X29614Y104248D02*
X30454D01*
X29574Y104268D02*
X30414D01*
X29534Y104288D02*
X30394D01*
X29514Y104308D02*
X30354D01*
X29474Y104328D02*
X30334D01*
X29434Y104348D02*
X30314D01*
X29394Y104368D02*
X30274D01*
X29354Y104388D02*
X30234D01*
X29314Y104408D02*
X30214D01*
X29274Y104428D02*
X30174D01*
X29234Y104448D02*
X30154D01*
X29194Y104468D02*
X30114D01*
X29154Y104488D02*
X30074D01*
X29114Y104508D02*
X30054D01*
X29074Y104528D02*
X30014D01*
X29014Y104548D02*
X29994D01*
X28974Y104568D02*
X29954D01*
X28934Y104588D02*
X29914D01*
X28874Y104608D02*
X29874D01*
X28834Y104628D02*
X29834D01*
X28794Y104648D02*
X29814D01*
X28734Y104668D02*
X29774D01*
X28674Y104688D02*
X29734D01*
X28634Y104708D02*
X29694D01*
X28574Y104728D02*
X29654D01*
X28534Y104748D02*
X29634D01*
X28454Y104768D02*
X29594D01*
X28414Y104788D02*
X29554D01*
X28354Y104808D02*
X29514D01*
X28294Y104828D02*
X29474D01*
X28234Y104848D02*
X29434D01*
X28154Y104868D02*
X29394D01*
X28094Y104888D02*
X29334D01*
X28034Y104908D02*
X29294D01*
X27954Y104928D02*
X29254D01*
X27894Y104948D02*
X29214D01*
X27794Y104968D02*
X29174D01*
X27734Y104988D02*
X29134D01*
X27634Y105008D02*
X29074D01*
X27554Y105028D02*
X29034D01*
X27454Y105048D02*
X28974D01*
X27354Y105068D02*
X28934D01*
X27234Y105088D02*
X28874D01*
X27114Y105108D02*
X28834D01*
X26974Y105128D02*
X28774D01*
X26814Y105148D02*
X28734D01*
X26594Y105168D02*
X28674D01*
X26214Y105188D02*
X28614D01*
X24674Y105528D02*
X27314D01*
X24794Y105548D02*
X27194D01*
X24914Y105568D02*
X27074D01*
X25074Y105588D02*
X26914D01*
X25294Y105608D02*
X26694D01*
X25554Y105628D02*
X26434D01*
X28314Y90068D02*
X29514D01*
X28414Y90088D02*
X29554D01*
X28474Y90108D02*
X29594D01*
X28534Y90128D02*
X29634D01*
X28574Y90148D02*
X29654D01*
X28634Y90168D02*
X29694D01*
X28674Y90188D02*
X29734D01*
X28734Y90208D02*
X29774D01*
X28794Y90228D02*
X29814D01*
X28834Y90248D02*
X29834D01*
X28874Y90268D02*
X29874D01*
X28934Y90288D02*
X29914D01*
X28974Y90308D02*
X29954D01*
X29014Y90328D02*
X29994D01*
X29074Y90348D02*
X30014D01*
X29114Y90368D02*
X30054D01*
X29154Y90388D02*
X30074D01*
X29194Y90408D02*
X30114D01*
X29234Y90428D02*
X30154D01*
X29274Y90448D02*
X30174D01*
X29314Y90468D02*
X30214D01*
X29354Y90488D02*
X30234D01*
X29394Y90508D02*
X30274D01*
X29434Y90528D02*
X30294D01*
X29474Y90548D02*
X30334D01*
X29514Y90568D02*
X30354D01*
X29554Y90588D02*
X30394D01*
X29574Y90608D02*
X30414D01*
X29614Y90628D02*
X30454D01*
X29654Y90648D02*
X30474D01*
X29694Y90668D02*
X30514D01*
X29714Y90688D02*
X30534D01*
X29754Y90708D02*
X30574D01*
X29794Y90728D02*
X30594D01*
X29814Y90748D02*
X30614D01*
X29854Y90768D02*
X30654D01*
X29894Y90788D02*
X30674D01*
X29914Y90808D02*
X30694D01*
X29954Y90828D02*
X30734D01*
X29994Y90848D02*
X30754D01*
X30014Y90868D02*
X30774D01*
X30054Y90888D02*
X30814D01*
X30074Y90908D02*
X30834D01*
X30114Y90928D02*
X30854D01*
X30134Y90948D02*
X30874D01*
X30174Y90968D02*
X30914D01*
X30194Y90988D02*
X30934D01*
X30234Y91008D02*
X30954D01*
X30254Y91028D02*
X30974D01*
X30274Y91048D02*
X31014D01*
X30314Y91068D02*
X31034D01*
X30334Y91088D02*
X31054D01*
X30374Y91108D02*
X31074D01*
X30394Y91128D02*
X31094D01*
X30414Y91148D02*
X31114D01*
X30454Y91168D02*
X31154D01*
X30474Y91188D02*
X31174D01*
X30494Y91208D02*
X31194D01*
X30534Y91228D02*
X31214D01*
X30554Y91248D02*
X31234D01*
X30574Y91268D02*
X31254D01*
X30614Y91288D02*
X31274D01*
X30634Y91308D02*
X31314D01*
X30654Y91328D02*
X31334D01*
X30674Y91348D02*
X31354D01*
X30714Y91368D02*
X31374D01*
X30734Y91388D02*
X31394D01*
X30754Y91408D02*
X31414D01*
X30774Y91428D02*
X31434D01*
X30794Y91448D02*
X31454D01*
X30814Y91468D02*
X31474D01*
X30854Y91488D02*
X31494D01*
X30874Y91508D02*
X31514D01*
X30894Y91528D02*
X31534D01*
X30914Y91548D02*
X31554D01*
X30934Y91568D02*
X31574D01*
X30954Y91588D02*
X31594D01*
X30974Y91608D02*
X31614D01*
X31014Y91628D02*
X31634D01*
X31034Y91648D02*
X31654D01*
X31054Y91668D02*
X31674D01*
X28374Y91688D02*
X28894D01*
X31074D02*
X31694D01*
X28194Y91708D02*
X29054D01*
X31094D02*
X31714D01*
X28074Y91728D02*
X29154D01*
X31114D02*
X31734D01*
X27954Y91748D02*
X29234D01*
X31134D02*
X31754D01*
X31154Y91768D02*
X31774D01*
X31174Y91788D02*
X31794D01*
X31194Y91808D02*
X31814D01*
X31214Y91828D02*
X31834D01*
X31234Y91848D02*
X31834D01*
X31254Y91868D02*
X31854D01*
X31274Y91888D02*
X31874D01*
X31294Y91908D02*
X31894D01*
X31314Y91928D02*
X31914D01*
X31334Y91948D02*
X31934D01*
X31354Y91968D02*
X31954D01*
X31374Y91988D02*
X31974D01*
X31394Y92008D02*
X31994D01*
X31414Y92028D02*
X31994D01*
X31434Y92048D02*
X32014D01*
X31454Y92068D02*
X32034D01*
X31474Y92088D02*
X32054D01*
X31494Y92108D02*
X32074D01*
X31514Y92128D02*
X32094D01*
X31534Y92148D02*
X32094D01*
X31554Y92168D02*
X32114D01*
X31554Y92188D02*
X32134D01*
X31574Y92208D02*
X32154D01*
X31594Y92228D02*
X32174D01*
X31614Y92248D02*
X32174D01*
X31634Y92268D02*
X32194D01*
X31654Y92288D02*
X32214D01*
X31674Y92308D02*
X32234D01*
X31694Y92328D02*
X32254D01*
X31694Y92348D02*
X32254D01*
X31714Y92368D02*
X32274D01*
X31734Y92388D02*
X32294D01*
X31754Y92408D02*
X32314D01*
X31774Y92428D02*
X32314D01*
X31794Y92448D02*
X32334D01*
X31794Y92468D02*
X32354D01*
X31814Y92488D02*
X32374D01*
X31834Y92508D02*
X32374D01*
X31854Y92528D02*
X32394D01*
X31874Y92548D02*
X32414D01*
X31874Y92568D02*
X32434D01*
X31894Y92588D02*
X32434D01*
X31914Y92608D02*
X32454D01*
X31934Y92628D02*
X32474D01*
X31954Y92648D02*
X32474D01*
X31954Y92668D02*
X32494D01*
X31974Y92688D02*
X32514D01*
X31994Y92708D02*
X32514D01*
X32014Y92728D02*
X32534D01*
X32014Y92748D02*
X32554D01*
X32034Y92768D02*
X32574D01*
X28954Y92788D02*
X30434D01*
X32054D02*
X32574D01*
X29054Y92808D02*
X30434D01*
X29134Y92828D02*
X30434D01*
X29194Y92848D02*
X30454D01*
X29254Y92868D02*
X30454D01*
X29294Y92888D02*
X30474D01*
X29334Y92908D02*
X30474D01*
X29374Y92928D02*
X30474D01*
X29414Y92948D02*
X30494D01*
X29454Y92968D02*
X30494D01*
X29494Y92988D02*
X30514D01*
X29514Y93008D02*
X30514D01*
X29554Y93028D02*
X30534D01*
X29574Y93048D02*
X30534D01*
X29594Y93068D02*
X30554D01*
X29614Y93088D02*
X30554D01*
X29654Y93108D02*
X30554D01*
X29674Y93128D02*
X30574D01*
X29694Y93148D02*
X30594D01*
X29714Y93168D02*
X30594D01*
X29734Y93188D02*
X30614D01*
X29754Y93208D02*
X30614D01*
X29774Y93228D02*
X30634D01*
X29794Y93248D02*
X30634D01*
X29814Y93268D02*
X30654D01*
X29834Y93288D02*
X30654D01*
X29834Y93308D02*
X30674D01*
X29854Y93328D02*
X30694D01*
X29874Y93348D02*
X30694D01*
X29894Y93368D02*
X30714D01*
X29914Y93388D02*
X30734D01*
X29914Y93408D02*
X30734D01*
X29934Y93428D02*
X30754D01*
X29954Y93448D02*
X30774D01*
X29954Y93468D02*
X30774D01*
X29974Y93488D02*
X30794D01*
X29994Y93508D02*
X30814D01*
X29994Y93528D02*
X30814D01*
X30014Y93548D02*
X30834D01*
X30034Y93568D02*
X30854D01*
X30034Y93588D02*
X30874D01*
X30054Y93608D02*
X30894D01*
X30054Y93628D02*
X30914D01*
X30074Y93648D02*
X30914D01*
X30094Y93668D02*
X30934D01*
X30094Y93688D02*
X30954D01*
X30114Y93708D02*
X30974D01*
X30134Y93728D02*
X30994D01*
X30134Y93748D02*
X31014D01*
X30154Y93768D02*
X31034D01*
X30174Y93788D02*
X31054D01*
X30194Y93808D02*
X31094D01*
X30194Y93828D02*
X31114D01*
X30214Y93848D02*
X31134D01*
X30234Y93868D02*
X31154D01*
X30254Y93888D02*
X31194D01*
X30274Y93908D02*
X31214D01*
X30294Y93928D02*
X31254D01*
X30294Y93948D02*
X31274D01*
X30314Y93968D02*
X31314D01*
X30334Y93988D02*
X31334D01*
X30354Y94008D02*
X31354D01*
X30394Y94028D02*
X31394D01*
X30414Y94048D02*
X31414D01*
X30434Y94068D02*
X31434D01*
X30454Y94088D02*
X31454D01*
X30474Y94108D02*
X31474D01*
X30494Y94128D02*
X31494D01*
X30534Y94148D02*
X31514D01*
X30554Y94168D02*
X31534D01*
X30574Y94188D02*
X31534D01*
X30614Y94208D02*
X31554D01*
X30634Y94228D02*
X31554D01*
X30674Y94248D02*
X31554D01*
X30714Y94268D02*
X31574D01*
X30754Y94288D02*
X31554D01*
X30794Y94308D02*
X31554D01*
X30834Y94328D02*
X31534D01*
X30894Y94348D02*
X31534D01*
X30954Y94368D02*
X31494D01*
X31014Y94388D02*
X31454D01*
X31114Y94408D02*
X31374D01*
X25554Y89248D02*
X26434D01*
X25294Y89268D02*
X26694D01*
X25074Y89288D02*
X26914D01*
X24914Y89308D02*
X27074D01*
X24794Y89328D02*
X27194D01*
X24674Y89348D02*
X27314D01*
X33534Y98008D02*
X33974D01*
X33534Y98028D02*
X33974D01*
X33534Y98048D02*
X33974D01*
X33534Y98068D02*
X33954D01*
X33534Y98088D02*
X33954D01*
X33534Y98108D02*
X33954D01*
X33534Y98128D02*
X33954D01*
X33534Y98148D02*
X33954D01*
X33534Y98168D02*
X33954D01*
X33514Y98188D02*
X33954D01*
X33514Y98208D02*
X33954D01*
X33514Y98228D02*
X33954D01*
X33514Y98248D02*
X33954D01*
X33514Y98268D02*
X33954D01*
X33514Y98288D02*
X33954D01*
X33514Y98308D02*
X33934D01*
X33514Y98328D02*
X33934D01*
X33514Y98348D02*
X33934D01*
X33514Y98368D02*
X33934D01*
X33494Y98388D02*
X33934D01*
X33494Y98408D02*
X33934D01*
X33494Y98428D02*
X33934D01*
X33494Y98448D02*
X33934D01*
X33494Y98468D02*
X33934D01*
X33494Y98488D02*
X33914D01*
X33494Y98508D02*
X33914D01*
X33494Y98528D02*
X33914D01*
X33474Y98548D02*
X33914D01*
X33474Y98568D02*
X33914D01*
X33474Y98588D02*
X33914D01*
X33474Y98608D02*
X33914D01*
X33474Y98628D02*
X33894D01*
X33474Y98648D02*
X33894D01*
X33474Y98668D02*
X33894D01*
X33454Y98688D02*
X33894D01*
X33454Y98708D02*
X33894D01*
X33454Y98728D02*
X33894D01*
X33454Y98748D02*
X33894D01*
X33454Y98768D02*
X33874D01*
X33434Y98788D02*
X33874D01*
X33434Y98808D02*
X33874D01*
X33434Y98828D02*
X33874D01*
X33434Y98848D02*
X33874D01*
X33434Y98868D02*
X33874D01*
X33434Y98888D02*
X33854D01*
X33414Y98908D02*
X33854D01*
X33414Y98928D02*
X33854D01*
X33414Y98948D02*
X33854D01*
X33414Y98968D02*
X33854D01*
X33414Y98988D02*
X33854D01*
X33414Y99008D02*
X33834D01*
X33394Y99028D02*
X33834D01*
X33394Y99048D02*
X33834D01*
X33394Y99068D02*
X33834D01*
X33394Y99088D02*
X33834D01*
X33374Y99108D02*
X33814D01*
X33374Y99128D02*
X33814D01*
X33374Y99148D02*
X33814D01*
X33374Y99168D02*
X33814D01*
X33374Y99188D02*
X33814D01*
X33354Y99208D02*
X33794D01*
X33354Y99228D02*
X33794D01*
X33354Y99248D02*
X33794D01*
X33354Y99268D02*
X33794D01*
X33334Y99288D02*
X33774D01*
X33334Y99308D02*
X33774D01*
X33334Y99328D02*
X33774D01*
X33334Y99348D02*
X33774D01*
X33314Y99368D02*
X33754D01*
X33314Y99388D02*
X33754D01*
X33314Y99408D02*
X33754D01*
X33314Y99428D02*
X33754D01*
X33294Y99448D02*
X33754D01*
X33294Y99468D02*
X33734D01*
X33294Y99488D02*
X33734D01*
X33294Y99508D02*
X33734D01*
X33274Y99528D02*
X33734D01*
X33274Y99548D02*
X33714D01*
X33274Y99568D02*
X33714D01*
X33274Y99588D02*
X33714D01*
X33254Y99608D02*
X33694D01*
X33254Y99628D02*
X33694D01*
X33254Y99648D02*
X33694D01*
X33234Y99668D02*
X33694D01*
X33234Y99688D02*
X33674D01*
X33234Y99708D02*
X33674D01*
X33214Y99728D02*
X33674D01*
X33214Y99748D02*
X33674D01*
X33214Y99768D02*
X33654D01*
X33214Y99788D02*
X33654D01*
X33194Y99808D02*
X33654D01*
X33194Y99828D02*
X33634D01*
X33194Y99848D02*
X33634D01*
X33174Y99868D02*
X33634D01*
X33174Y99888D02*
X33634D01*
X33174Y99908D02*
X33614D01*
X33154Y99928D02*
X33614D01*
X33154Y99948D02*
X33614D01*
X33154Y99968D02*
X33594D01*
X33134Y99988D02*
X33594D01*
X33134Y100008D02*
X33594D01*
X33134Y100028D02*
X33574D01*
X33114Y100048D02*
X33574D01*
X33114Y100068D02*
X33574D01*
X33114Y100088D02*
X33554D01*
X33094Y100108D02*
X33554D01*
X33094Y100128D02*
X33554D01*
X33094Y100148D02*
X33534D01*
X33074Y100168D02*
X33534D01*
X33074Y100188D02*
X33534D01*
X33054Y100208D02*
X33514D01*
X33054Y100228D02*
X33514D01*
X33054Y100248D02*
X33514D01*
X33034Y100268D02*
X33494D01*
X33034Y100288D02*
X33494D01*
X33014Y100308D02*
X33474D01*
X33014Y100328D02*
X33474D01*
X33014Y100348D02*
X33474D01*
X32994Y100368D02*
X33454D01*
X32994Y100388D02*
X33454D01*
X32994Y100408D02*
X33454D01*
X32974Y100428D02*
X33434D01*
X32974Y100448D02*
X33434D01*
X32954Y100468D02*
X33434D01*
X32954Y100488D02*
X33414D01*
X32934Y100508D02*
X33414D01*
X32934Y100528D02*
X33394D01*
X32934Y100548D02*
X33394D01*
X32914Y100568D02*
X33374D01*
X32914Y100588D02*
X33374D01*
X32894Y100608D02*
X33374D01*
X32894Y100628D02*
X33354D01*
X32874Y100648D02*
X33354D01*
X32874Y100668D02*
X33334D01*
X32874Y100688D02*
X33334D01*
X32854Y100708D02*
X33334D01*
X32854Y100728D02*
X33314D01*
X32834Y100748D02*
X33314D01*
X32834Y100768D02*
X33294D01*
X32814Y100788D02*
X33294D01*
X32814Y100808D02*
X33274D01*
X32794Y100828D02*
X33274D01*
X32794Y100848D02*
X33274D01*
X32774Y100868D02*
X33254D01*
X32774Y100888D02*
X33254D01*
X32754Y100908D02*
X33234D01*
X32754Y100928D02*
X33234D01*
X32734Y100948D02*
X33214D01*
X32734Y100968D02*
X33214D01*
X32714Y100988D02*
X33194D01*
X32714Y101008D02*
X33194D01*
X32694Y101028D02*
X33174D01*
X32694Y101048D02*
X33174D01*
X32674Y101068D02*
X33154D01*
X32674Y101088D02*
X33154D01*
X32654Y101108D02*
X33154D01*
X32654Y101128D02*
X33134D01*
X32634Y101148D02*
X33134D01*
X32634Y101168D02*
X33114D01*
X32614Y101188D02*
X33114D01*
X32614Y101208D02*
X33094D01*
X32614Y93668D02*
X33094D01*
X32614Y93688D02*
X33114D01*
X32634Y93708D02*
X33114D01*
X32634Y93728D02*
X33134D01*
X32654Y93748D02*
X33134D01*
X32654Y93768D02*
X33134D01*
X32674Y93788D02*
X33154D01*
X32674Y93808D02*
X33154D01*
X32694Y93828D02*
X33174D01*
X32694Y93848D02*
X33174D01*
X32714Y93868D02*
X33194D01*
X32714Y93888D02*
X33194D01*
X32734Y93908D02*
X33214D01*
X32734Y93928D02*
X33214D01*
X32754Y93948D02*
X33234D01*
X32754Y93968D02*
X33234D01*
X32774Y93988D02*
X33254D01*
X32774Y94008D02*
X33254D01*
X32794Y94028D02*
X33274D01*
X32794Y94048D02*
X33274D01*
X32814Y94068D02*
X33274D01*
X32814Y94088D02*
X33294D01*
X32834Y94108D02*
X33294D01*
X32834Y94128D02*
X33314D01*
X32854Y94148D02*
X33314D01*
X32854Y94168D02*
X33334D01*
X32874Y94188D02*
X33334D01*
X32874Y94208D02*
X33334D01*
X32874Y94228D02*
X33354D01*
X32894Y94248D02*
X33354D01*
X32894Y94268D02*
X33374D01*
X32914Y94288D02*
X33374D01*
X32914Y94308D02*
X33374D01*
X32934Y94328D02*
X33394D01*
X32934Y94348D02*
X33394D01*
X32934Y94368D02*
X33414D01*
X32954Y94388D02*
X33414D01*
X32954Y94408D02*
X33434D01*
X32974Y94428D02*
X33434D01*
X32974Y94448D02*
X33434D01*
X32994Y94468D02*
X33454D01*
X32994Y94488D02*
X33454D01*
X32994Y94508D02*
X33454D01*
X33014Y94528D02*
X33474D01*
X33014Y94548D02*
X33474D01*
X33014Y94568D02*
X33474D01*
X33034Y94588D02*
X33494D01*
X33034Y94608D02*
X33494D01*
X33054Y94628D02*
X33514D01*
X33054Y94648D02*
X33514D01*
X33054Y94668D02*
X33514D01*
X33074Y94688D02*
X33534D01*
X33074Y94708D02*
X33534D01*
X33094Y94728D02*
X33534D01*
X33094Y94748D02*
X33554D01*
X33094Y94768D02*
X33554D01*
X33114Y94788D02*
X33554D01*
X33114Y94808D02*
X33574D01*
X33114Y94828D02*
X33574D01*
X33134Y94848D02*
X33574D01*
X33134Y94868D02*
X33594D01*
X33134Y94888D02*
X33594D01*
X33154Y94908D02*
X33594D01*
X33154Y94928D02*
X33614D01*
X33154Y94948D02*
X33614D01*
X33174Y94968D02*
X33614D01*
X33174Y94988D02*
X33634D01*
X33174Y95008D02*
X33634D01*
X33194Y95028D02*
X33634D01*
X33194Y95048D02*
X33634D01*
X33194Y95068D02*
X33654D01*
X33214Y95088D02*
X33654D01*
X33214Y95108D02*
X33654D01*
X33214Y95128D02*
X33674D01*
X33214Y95148D02*
X33674D01*
X33234Y95168D02*
X33674D01*
X33234Y95188D02*
X33674D01*
X33234Y95208D02*
X33694D01*
X33254Y95228D02*
X33694D01*
X33254Y95248D02*
X33694D01*
X33254Y95268D02*
X33694D01*
X33274Y95288D02*
X33714D01*
X33274Y95308D02*
X33714D01*
X33274Y95328D02*
X33714D01*
X33274Y95348D02*
X33734D01*
X33294Y95368D02*
X33734D01*
X33294Y95388D02*
X33734D01*
X33294Y95408D02*
X33734D01*
X33294Y95428D02*
X33754D01*
X33314Y95448D02*
X33754D01*
X33314Y95468D02*
X33754D01*
X33314Y95488D02*
X33754D01*
X33314Y95508D02*
X33754D01*
X33334Y95528D02*
X33774D01*
X33334Y95548D02*
X33774D01*
X33334Y95568D02*
X33774D01*
X33334Y95588D02*
X33774D01*
X33354Y95608D02*
X33794D01*
X33354Y95628D02*
X33794D01*
X33354Y95648D02*
X33794D01*
X33354Y95668D02*
X33794D01*
X33374Y95688D02*
X33794D01*
X33374Y95708D02*
X33814D01*
X33374Y95728D02*
X33814D01*
X33374Y95748D02*
X33814D01*
X33374Y95768D02*
X33814D01*
X33394Y95788D02*
X33834D01*
X33394Y95808D02*
X33834D01*
X33394Y95828D02*
X33834D01*
X33394Y95848D02*
X33834D01*
X33414Y95868D02*
X33834D01*
X33414Y95888D02*
X33854D01*
X33414Y95908D02*
X33854D01*
X33414Y95928D02*
X33854D01*
X33414Y95948D02*
X33854D01*
X33414Y95968D02*
X33854D01*
X33434Y95988D02*
X33854D01*
X33434Y96008D02*
X33874D01*
X33434Y96028D02*
X33874D01*
X33434Y96048D02*
X33874D01*
X33434Y96068D02*
X33874D01*
X33434Y96088D02*
X33874D01*
X33454Y96108D02*
X33874D01*
X33454Y96128D02*
X33894D01*
X33454Y96148D02*
X33894D01*
X33454Y96168D02*
X33894D01*
X33454Y96188D02*
X33894D01*
X33474Y96208D02*
X33894D01*
X33474Y96228D02*
X33894D01*
X33474Y96248D02*
X33894D01*
X33474Y96268D02*
X33914D01*
X33474Y96288D02*
X33914D01*
X33474Y96308D02*
X33914D01*
X33474Y96328D02*
X33914D01*
X33494Y96348D02*
X33914D01*
X33494Y96368D02*
X33914D01*
X33494Y96388D02*
X33914D01*
X33494Y96408D02*
X33934D01*
X33494Y96428D02*
X33934D01*
X33494Y96448D02*
X33934D01*
X33494Y96468D02*
X33934D01*
X33494Y96488D02*
X33934D01*
X33514Y96508D02*
X33934D01*
X33514Y96528D02*
X33934D01*
X33514Y96548D02*
X33934D01*
X33514Y96568D02*
X33954D01*
X33514Y96588D02*
X33954D01*
X33514Y96608D02*
X33954D01*
X33514Y96628D02*
X33954D01*
X33514Y96648D02*
X33954D01*
X33514Y96668D02*
X33954D01*
X33514Y96688D02*
X33954D01*
X33534Y96708D02*
X33954D01*
X33534Y96728D02*
X33954D01*
X33534Y96748D02*
X33954D01*
X33534Y96768D02*
X33954D01*
X33534Y96788D02*
X33954D01*
X33534Y96808D02*
X33954D01*
X33534Y96828D02*
X33974D01*
X33534Y96848D02*
X33974D01*
X33534Y96868D02*
X33974D01*
X33534Y96888D02*
X33974D01*
X33534Y96908D02*
X33974D01*
X33534Y96928D02*
X33974D01*
X33534Y96948D02*
X33974D01*
X33534Y96968D02*
X33974D01*
X33554Y96988D02*
X33974D01*
X33554Y97008D02*
X33974D01*
X33554Y97028D02*
X33974D01*
X33554Y97048D02*
X33974D01*
X33554Y97068D02*
X33974D01*
X33554Y97088D02*
X33974D01*
X33554Y97108D02*
X33974D01*
X33554Y97128D02*
X33974D01*
X33554Y97148D02*
X33974D01*
X33554Y97168D02*
X33974D01*
X33554Y97188D02*
X33974D01*
X33554Y97208D02*
X33974D01*
X33554Y97228D02*
X33974D01*
X33554Y97248D02*
X33994D01*
X33554Y97268D02*
X33994D01*
X33554Y97288D02*
X33994D01*
X33554Y97308D02*
X33994D01*
X33554Y97328D02*
X33994D01*
X33554Y97348D02*
X33994D01*
X33554Y97368D02*
X33994D01*
X33554Y97388D02*
X33994D01*
X33554Y97408D02*
X33994D01*
X33554Y97428D02*
X33994D01*
X33554Y97448D02*
X33994D01*
X33554Y97468D02*
X33994D01*
X33554Y97488D02*
X33994D01*
X33554Y97508D02*
X33994D01*
X33554Y97528D02*
X33994D01*
X33554Y97548D02*
X33994D01*
X33554Y97568D02*
X33994D01*
X33554Y97588D02*
X33994D01*
X33554Y97608D02*
X33994D01*
X33554Y97628D02*
X33994D01*
X33554Y97648D02*
X33974D01*
X33554Y97668D02*
X33974D01*
X33554Y97688D02*
X33974D01*
X33554Y97708D02*
X33974D01*
X33554Y97728D02*
X33974D01*
X33554Y97748D02*
X33974D01*
X33554Y97768D02*
X33974D01*
X33554Y97788D02*
X33974D01*
X33554Y97808D02*
X33974D01*
X33554Y97828D02*
X33974D01*
X33554Y97848D02*
X33974D01*
X33554Y97868D02*
X33974D01*
X33554Y97888D02*
X33974D01*
X33534Y97908D02*
X33974D01*
X33534Y97928D02*
X33974D01*
X33534Y97948D02*
X33974D01*
X33534Y97968D02*
X33974D01*
M02*
