M48
; DRILL file {KiCad (6.0.4-0)} date 
; FORMAT={-:-/ absolute / inch / decimal}
; #@! TF.CreationDate,2022-08-30T14:02:05+08:00
; #@! TF.GenerationSoftware,Kicad,Pcbnew,(6.0.4-0)
; #@! TF.FileFunction,Plated,1,2,PTH
FMAT,2
INCH
; #@! TA.AperFunction,Plated,PTH,ViaDrill
T1C0.0157
; #@! TA.AperFunction,Plated,PTH,ComponentDrill
T2C0.0394
%
G90
G05
T1
X2.8189Y-3.6496
X2.8228Y-3.1811
X2.8248Y-4.2126
X2.8701Y-3.1811
X2.8701Y-3.6496
X2.9007Y-4.1535
X2.9232Y-2.9626
X2.9232Y-3.1496
X2.9518Y-3.1201
X2.9528Y-2.874
X2.9626Y-2.9232
X2.971Y-4.1535
X2.9803Y-3.2874
X2.9852Y-3.0906
X2.9961Y-4.0748
X3.0079Y-3.374
X3.0217Y-2.7559
X3.0217Y-3.0512
X3.0217Y-3.248
X3.0236Y-3.126
X3.0276Y-4.0463
X3.0315Y-2.4409
X3.0315Y-2.5098
X3.0315Y-2.5787
X3.0315Y-2.6476
X3.0413Y-3.4055
X3.0413Y-4.1535
X3.0666Y-3.6516
X3.137Y-3.6516
X3.1496Y-2.4409
X3.1496Y-2.5098
X3.1496Y-2.5787
X3.1496Y-2.6476
X3.1791Y-2.9134
X3.2073Y-3.6516
X3.248Y-2.4409
X3.248Y-2.5098
X3.248Y-2.5787
X3.248Y-2.6476
X3.2776Y-3.6516
X3.3127Y-2.7657
X3.3127Y-2.9035
X3.3127Y-3.0413
X3.3307Y-4.0197
X3.3436Y-2.8346
X3.3436Y-2.9724
X3.3465Y-2.4409
X3.3465Y-2.5098
X3.3465Y-2.5787
X3.3465Y-2.6476
X3.383Y-2.7657
X3.383Y-2.9035
X3.383Y-3.0413
X3.4139Y-2.8346
X3.4139Y-2.9724
X3.4449Y-2.4409
X3.4449Y-2.5098
X3.4449Y-2.5787
X3.4449Y-2.6476
X3.4533Y-2.7657
X3.4533Y-2.9035
X3.4533Y-3.0413
X3.4843Y-2.8346
X3.4843Y-2.9724
X3.5433Y-2.4409
X3.5433Y-2.5098
X3.5433Y-2.5787
X3.5433Y-2.6476
X3.5503Y-4.0354
X3.6206Y-4.0354
X3.6417Y-2.4409
X3.6417Y-2.5098
X3.6417Y-2.5787
X3.6417Y-2.6476
X3.6732Y-4.2224
X3.6909Y-4.0354
X3.7008Y-3.874
X3.7008Y-3.9331
X3.7008Y-3.9843
X3.7283Y-4.2362
X3.7402Y-2.4409
X3.7402Y-2.5098
X3.7402Y-2.5787
X3.7402Y-2.6476
X3.748Y-3.0063
X3.7795Y-2.9677
X3.7874Y-3.1614
X3.7913Y-4.2402
X3.7929Y-3.2524
X3.7959Y-3.3756
X3.8189Y-3.9567
X3.8228Y-3.0157
X3.8228Y-3.0472
X3.8359Y-3.3556
X3.8386Y-3.5925
X3.8819Y-3.6713
X3.8976Y-2.9921
X3.937Y-3.6713
X3.9567Y-2.9921
X3.9803Y-4.0374
T2
X2.8296Y-2.7024
X2.8296Y-2.9024
X2.8296Y-3.1024
X2.8296Y-3.3669
X2.8296Y-3.5669
X2.8296Y-3.8323
X2.8296Y-4.0323
X2.8396Y-2.8024
X2.8396Y-3.0024
X2.8396Y-3.2669
X2.8396Y-3.4669
X2.8396Y-3.7323
X2.8396Y-3.9323
X3.1358Y-4.1446
X3.2358Y-4.1546
X3.3358Y-4.1446
X3.4358Y-4.1546
X3.5358Y-4.1446
X3.6358Y-4.1546
X3.9222Y-3.849
X3.9241Y-2.5008
X3.9241Y-2.7008
X3.9241Y-2.9008
X3.9241Y-3.1858
X3.9241Y-3.3858
X3.9241Y-3.5858
X3.9322Y-3.749
X3.9322Y-3.949
X3.9341Y-2.6008
X3.9341Y-2.8008
X3.9341Y-3.0858
X3.9341Y-3.2858
X3.9341Y-3.4858
T0
M30
