%TF.GenerationSoftware,KiCad,Pcbnew,(6.0.4-0)*%
%TF.CreationDate,2022-08-31T17:38:41+08:00*%
%TF.ProjectId,STLinkV3_Adapter,53544c69-6e6b-4563-935f-416461707465,rev?*%
%TF.SameCoordinates,Original*%
%TF.FileFunction,Legend,Top*%
%TF.FilePolarity,Positive*%
%FSLAX46Y46*%
G04 Gerber Fmt 4.6, Leading zero omitted, Abs format (unit mm)*
G04 Created by KiCad (PCBNEW (6.0.4-0)) date 2022-08-31 17:38:41*
%MOMM*%
%LPD*%
G01*
G04 APERTURE LIST*
%ADD10C,0.150000*%
%TA.AperFunction,Profile*%
%ADD11C,0.100000*%
%TD*%
%ADD12C,0.200000*%
%ADD13C,0.120000*%
%ADD14C,0.127000*%
%TA.AperFunction,Profile*%
%ADD15C,0.120000*%
%TD*%
G04 APERTURE END LIST*
D10*
G36*
X98940000Y-105540000D02*
G01*
X95940000Y-105540000D01*
X96000000Y-105050000D01*
X96100000Y-104600000D01*
X96250000Y-104250000D01*
X96550000Y-103800000D01*
X96750000Y-103550000D01*
X97000000Y-103300000D01*
X97300000Y-103050000D01*
X97550000Y-102900000D01*
X97900000Y-102750000D01*
X98200000Y-102650000D01*
X98600000Y-102600000D01*
X98800000Y-102550000D01*
X98940000Y-102540000D01*
X98940000Y-105540000D01*
G37*
X98940000Y-105540000D02*
X95940000Y-105540000D01*
X96000000Y-105050000D01*
X96100000Y-104600000D01*
X96250000Y-104250000D01*
X96550000Y-103800000D01*
X96750000Y-103550000D01*
X97000000Y-103300000D01*
X97300000Y-103050000D01*
X97550000Y-102900000D01*
X97900000Y-102750000D01*
X98200000Y-102650000D01*
X98600000Y-102600000D01*
X98800000Y-102550000D01*
X98940000Y-102540000D01*
X98940000Y-105540000D01*
X76060000Y-63050000D02*
G75*
G03*
X76060000Y-63050000I-3000000J0D01*
G01*
G36*
X76000000Y-63540000D02*
G01*
X75900000Y-63990000D01*
X75750000Y-64340000D01*
X75450000Y-64790000D01*
X75250000Y-65040000D01*
X75000000Y-65290000D01*
X74700000Y-65540000D01*
X74450000Y-65690000D01*
X74100000Y-65840000D01*
X73800000Y-65940000D01*
X73400000Y-65990000D01*
X73200000Y-66040000D01*
X73060000Y-66050000D01*
X73060000Y-63050000D01*
X76060000Y-63050000D01*
X76000000Y-63540000D01*
G37*
X76000000Y-63540000D02*
X75900000Y-63990000D01*
X75750000Y-64340000D01*
X75450000Y-64790000D01*
X75250000Y-65040000D01*
X75000000Y-65290000D01*
X74700000Y-65540000D01*
X74450000Y-65690000D01*
X74100000Y-65840000D01*
X73800000Y-65940000D01*
X73400000Y-65990000D01*
X73200000Y-66040000D01*
X73060000Y-66050000D01*
X73060000Y-63050000D01*
X76060000Y-63050000D01*
X76000000Y-63540000D01*
G36*
X73060000Y-63050000D02*
G01*
X70060000Y-63050000D01*
X70120000Y-62560000D01*
X70220000Y-62110000D01*
X70370000Y-61760000D01*
X70670000Y-61310000D01*
X70870000Y-61060000D01*
X71120000Y-60810000D01*
X71420000Y-60560000D01*
X71670000Y-60410000D01*
X72020000Y-60260000D01*
X72320000Y-60160000D01*
X72720000Y-60110000D01*
X72920000Y-60060000D01*
X73060000Y-60050000D01*
X73060000Y-63050000D01*
G37*
X73060000Y-63050000D02*
X70060000Y-63050000D01*
X70120000Y-62560000D01*
X70220000Y-62110000D01*
X70370000Y-61760000D01*
X70670000Y-61310000D01*
X70870000Y-61060000D01*
X71120000Y-60810000D01*
X71420000Y-60560000D01*
X71670000Y-60410000D01*
X72020000Y-60260000D01*
X72320000Y-60160000D01*
X72720000Y-60110000D01*
X72920000Y-60060000D01*
X73060000Y-60050000D01*
X73060000Y-63050000D01*
X101940000Y-105540000D02*
G75*
G03*
X101940000Y-105540000I-3000000J0D01*
G01*
G36*
X101880000Y-106030000D02*
G01*
X101780000Y-106480000D01*
X101630000Y-106830000D01*
X101330000Y-107280000D01*
X101130000Y-107530000D01*
X100880000Y-107780000D01*
X100580000Y-108030000D01*
X100330000Y-108180000D01*
X99980000Y-108330000D01*
X99680000Y-108430000D01*
X99280000Y-108480000D01*
X99080000Y-108530000D01*
X98940000Y-108540000D01*
X98940000Y-105540000D01*
X101940000Y-105540000D01*
X101880000Y-106030000D01*
G37*
X101880000Y-106030000D02*
X101780000Y-106480000D01*
X101630000Y-106830000D01*
X101330000Y-107280000D01*
X101130000Y-107530000D01*
X100880000Y-107780000D01*
X100580000Y-108030000D01*
X100330000Y-108180000D01*
X99980000Y-108330000D01*
X99680000Y-108430000D01*
X99280000Y-108480000D01*
X99080000Y-108530000D01*
X98940000Y-108540000D01*
X98940000Y-105540000D01*
X101940000Y-105540000D01*
X101880000Y-106030000D01*
D11*
X70000026Y-105648680D02*
G75*
G03*
X73000000Y-108600000I2952974J1280D01*
G01*
X99000000Y-108600000D02*
X73000000Y-108600000D01*
X102000000Y-63000000D02*
X102000000Y-105600000D01*
X74610000Y-63050000D02*
G75*
G03*
X74610000Y-63050000I-1550000J0D01*
G01*
X100490000Y-105540000D02*
G75*
G03*
X100490000Y-105540000I-1550000J0D01*
G01*
X73000000Y-60000000D02*
G75*
G03*
X70000000Y-63000000I2600J-3002600D01*
G01*
X99000000Y-108600000D02*
G75*
G03*
X102000000Y-105600000I0J3000000D01*
G01*
X102000000Y-63000000D02*
G75*
G03*
X99000000Y-60000000I-3000000J0D01*
G01*
X73000000Y-60000000D02*
X99000000Y-60000000D01*
X70000000Y-105648680D02*
X70000000Y-63000000D01*
D10*
X89363983Y-103899225D02*
X89337046Y-103945882D01*
X89236514Y-104012259D01*
X89162920Y-104031978D01*
X89042668Y-104024761D01*
X88949354Y-103970886D01*
X88892838Y-103907151D01*
X88816601Y-103769822D01*
X88787022Y-103659431D01*
X88784380Y-103502382D01*
X88801458Y-103418928D01*
X88855333Y-103325614D01*
X88955864Y-103259238D01*
X89029459Y-103239518D01*
X89149710Y-103246736D01*
X89196367Y-103273674D01*
X90082849Y-103785484D02*
X89714877Y-103884082D01*
X89507822Y-103111341D01*
X90340429Y-103716466D02*
X90133374Y-102943725D01*
X90781995Y-103598148D02*
X90332503Y-103245320D01*
X90574940Y-102825408D02*
X90251691Y-103385291D01*
D12*
X75046428Y-82078456D02*
X74985952Y-82010420D01*
X74925476Y-81821432D01*
X74925476Y-81700480D01*
X74985952Y-81526611D01*
X75106904Y-81420777D01*
X75227857Y-81375420D01*
X75469761Y-81345182D01*
X75651190Y-81367861D01*
X75893095Y-81458575D01*
X76014047Y-81534170D01*
X76135000Y-81670241D01*
X76195476Y-81859230D01*
X76195476Y-81980182D01*
X76135000Y-82154051D01*
X76074523Y-82206968D01*
X75288333Y-82592503D02*
X75288333Y-83197265D01*
X74925476Y-82426194D02*
X76195476Y-83008277D01*
X74925476Y-83272861D01*
X74925476Y-83696194D02*
X76195476Y-83854944D01*
X74925476Y-84421908D01*
X76195476Y-84580658D01*
D10*
X81920500Y-103962960D02*
X81564322Y-103664007D01*
X81478934Y-104081277D02*
X81271879Y-103308537D01*
X81566256Y-103229658D01*
X81649710Y-103246736D01*
X81696367Y-103273674D01*
X81752884Y-103337408D01*
X81782463Y-103447800D01*
X81765385Y-103531254D01*
X81738448Y-103577911D01*
X81674713Y-103634427D01*
X81380336Y-103713306D01*
X82205017Y-103847285D02*
X82325269Y-103854503D01*
X82509255Y-103805204D01*
X82572989Y-103748687D01*
X82599927Y-103702030D01*
X82617004Y-103618576D01*
X82597285Y-103544982D01*
X82540768Y-103481247D01*
X82494111Y-103454310D01*
X82410657Y-103437232D01*
X82253608Y-103439874D01*
X82170154Y-103422796D01*
X82123497Y-103395859D01*
X82066981Y-103332124D01*
X82047261Y-103258530D01*
X82064339Y-103175076D01*
X82091276Y-103128419D01*
X82155011Y-103071902D01*
X82338997Y-103022603D01*
X82459248Y-103029821D01*
X82670171Y-102933865D02*
X83111737Y-102815548D01*
X83098009Y-103647447D02*
X82890954Y-102874707D01*
X73630707Y-99770073D02*
X73929660Y-99413895D01*
X73512390Y-99328507D02*
X74285130Y-99121452D01*
X74364008Y-99415829D01*
X74346931Y-99499283D01*
X74319993Y-99545940D01*
X74256259Y-99602457D01*
X74145867Y-99632036D01*
X74062413Y-99614959D01*
X74015756Y-99588021D01*
X73959239Y-99524287D01*
X73880361Y-99229909D01*
X73699725Y-100027653D02*
X74323343Y-100294385D01*
X74214886Y-99889616D02*
X73808183Y-100432422D01*
X78516690Y-104098709D02*
X78636941Y-104105927D01*
X78820927Y-104056628D01*
X78884661Y-104000111D01*
X78911599Y-103953454D01*
X78928676Y-103870000D01*
X78908957Y-103796406D01*
X78852440Y-103732671D01*
X78805783Y-103705734D01*
X78722329Y-103688656D01*
X78565280Y-103691298D01*
X78481826Y-103674220D01*
X78435169Y-103647283D01*
X78378653Y-103583548D01*
X78358933Y-103509954D01*
X78376011Y-103426500D01*
X78402948Y-103379843D01*
X78466683Y-103323326D01*
X78650669Y-103274027D01*
X78770920Y-103281245D01*
X79018640Y-103175430D02*
X79409681Y-103898872D01*
X79408974Y-103307475D01*
X79704059Y-103819993D01*
X79680990Y-102997954D01*
X80122556Y-102879637D02*
X80269744Y-102840197D01*
X80353198Y-102857275D01*
X80446512Y-102911150D01*
X80522749Y-103048479D01*
X80591767Y-103306059D01*
X80594409Y-103463107D01*
X80540534Y-103556421D01*
X80476800Y-103612938D01*
X80329611Y-103652377D01*
X80246157Y-103635300D01*
X80152843Y-103581425D01*
X80076607Y-103444096D01*
X80007588Y-103186516D01*
X80004946Y-103029467D01*
X80058821Y-102936153D01*
X80122556Y-102879637D01*
X74280200Y-87353053D02*
X74398518Y-87794619D01*
X73566618Y-87780891D02*
X74339359Y-87573836D01*
X73675076Y-88185660D02*
X74298694Y-88452392D01*
X74190236Y-88047623D02*
X73783533Y-88590429D01*
X73537039Y-70920500D02*
X73835992Y-70564322D01*
X73418722Y-70478934D02*
X74191462Y-70271879D01*
X74270341Y-70566256D01*
X74253263Y-70649710D01*
X74226325Y-70696367D01*
X74162591Y-70752884D01*
X74052199Y-70782463D01*
X73968745Y-70765385D01*
X73922088Y-70738448D01*
X73865572Y-70674713D01*
X73786693Y-70380336D01*
X74368938Y-70934228D02*
X74487256Y-71375794D01*
X73655356Y-71362066D02*
X74428097Y-71155011D01*
X73810471Y-71793772D02*
X73803253Y-71914024D01*
X73852552Y-72098009D01*
X73909068Y-72161744D01*
X73955725Y-72188681D01*
X74039179Y-72205759D01*
X74112774Y-72186039D01*
X74176508Y-72129523D01*
X74203446Y-72082866D01*
X74220523Y-71999412D01*
X74217882Y-71842363D01*
X74234959Y-71758909D01*
X74261897Y-71712252D01*
X74325631Y-71655735D01*
X74399225Y-71636016D01*
X74482680Y-71653094D01*
X74529337Y-71680031D01*
X74585853Y-71743765D01*
X74635152Y-71927751D01*
X74627934Y-72048003D01*
D12*
X96574523Y-96359996D02*
X95304523Y-96201246D01*
X95425476Y-95672079D02*
X95365000Y-95604043D01*
X95304523Y-95475531D01*
X95304523Y-95173150D01*
X95365000Y-95059758D01*
X95425476Y-95006841D01*
X95546428Y-94961484D01*
X95667380Y-94976603D01*
X95848809Y-95059758D01*
X96574523Y-95876186D01*
X96574523Y-95089996D01*
X96453571Y-93804877D02*
X96514047Y-93872912D01*
X96574523Y-94061900D01*
X96574523Y-94182853D01*
X96514047Y-94356722D01*
X96393095Y-94462555D01*
X96272142Y-94507912D01*
X96030238Y-94538150D01*
X95848809Y-94515472D01*
X95606904Y-94424758D01*
X95485952Y-94349162D01*
X95365000Y-94213091D01*
X95304523Y-94024103D01*
X95304523Y-93903150D01*
X95365000Y-93729281D01*
X95425476Y-93676365D01*
D10*
X97371386Y-95742282D02*
X97354308Y-95825736D01*
X97383887Y-95936128D01*
X97450264Y-96036659D01*
X97543578Y-96090534D01*
X97627032Y-96107612D01*
X97784080Y-96104970D01*
X97894472Y-96075390D01*
X98031801Y-95999154D01*
X98095535Y-95942638D01*
X98149410Y-95849324D01*
X98156628Y-95729072D01*
X98136908Y-95655478D01*
X98070532Y-95554946D01*
X98023875Y-95528009D01*
X97766295Y-95597027D01*
X97805734Y-95744216D01*
X98008731Y-95177115D02*
X97235991Y-95384170D01*
X97890414Y-94735549D01*
X97117673Y-94942604D01*
X97791816Y-94367577D02*
X97019076Y-94574632D01*
X96969777Y-94390646D01*
X96976995Y-94270395D01*
X97030869Y-94177081D01*
X97094604Y-94120564D01*
X97231933Y-94044328D01*
X97342324Y-94014749D01*
X97499373Y-94012107D01*
X97582827Y-94029184D01*
X97676141Y-94083059D01*
X97742517Y-94183591D01*
X97791816Y-94367577D01*
X98164200Y-98504519D02*
X98171418Y-98384268D01*
X98122119Y-98200282D01*
X98065602Y-98136548D01*
X98018945Y-98109610D01*
X97935491Y-98092533D01*
X97861897Y-98112252D01*
X97798162Y-98168769D01*
X97771225Y-98215426D01*
X97754147Y-98298880D01*
X97756789Y-98455928D01*
X97739711Y-98539383D01*
X97712774Y-98586039D01*
X97649039Y-98642556D01*
X97575445Y-98662276D01*
X97491991Y-98645198D01*
X97445334Y-98618261D01*
X97388817Y-98554526D01*
X97339518Y-98370540D01*
X97346736Y-98250289D01*
X97993942Y-97721919D02*
X97221201Y-97928974D01*
X97171902Y-97744988D01*
X97179120Y-97624737D01*
X97232995Y-97531423D01*
X97296729Y-97474906D01*
X97434058Y-97398670D01*
X97544450Y-97369091D01*
X97701498Y-97366449D01*
X97784952Y-97383527D01*
X97878266Y-97437401D01*
X97944643Y-97537933D01*
X97993942Y-97721919D01*
X97575963Y-97045134D02*
X97477365Y-96677162D01*
X97816466Y-97059570D02*
X96974707Y-97009045D01*
X97678429Y-96544409D01*
X98205927Y-71913058D02*
X97433186Y-72120113D01*
X98087609Y-71471492D01*
X97314869Y-71678547D01*
X97962074Y-71150177D02*
X97969292Y-71029926D01*
X97919993Y-70845940D01*
X97863477Y-70782206D01*
X97816820Y-70755268D01*
X97733366Y-70738191D01*
X97659771Y-70757910D01*
X97596037Y-70814427D01*
X97569099Y-70861084D01*
X97552022Y-70944538D01*
X97554664Y-71101586D01*
X97537586Y-71185040D01*
X97510648Y-71231697D01*
X97446914Y-71288214D01*
X97373320Y-71307934D01*
X97289865Y-71290856D01*
X97243208Y-71263919D01*
X97186692Y-71200184D01*
X97137393Y-71016198D01*
X97144611Y-70895947D01*
X97764879Y-70414234D02*
X97772097Y-70293983D01*
X97722798Y-70109997D01*
X97666281Y-70046262D01*
X97619624Y-70019325D01*
X97536170Y-70002247D01*
X97462576Y-70021967D01*
X97398841Y-70078483D01*
X97371904Y-70125140D01*
X97354826Y-70208594D01*
X97357468Y-70365643D01*
X97340390Y-70449097D01*
X97313453Y-70495754D01*
X97249718Y-70552271D01*
X97176124Y-70571990D01*
X97092670Y-70554913D01*
X97046013Y-70527975D01*
X96989496Y-70464241D01*
X96940197Y-70280255D01*
X96947415Y-70160003D01*
X73610633Y-68150780D02*
X73563976Y-68123843D01*
X73497600Y-68023311D01*
X73477880Y-67949717D01*
X73485098Y-67829465D01*
X73538973Y-67736152D01*
X73602708Y-67679635D01*
X73740036Y-67603399D01*
X73850428Y-67573819D01*
X74007476Y-67571177D01*
X74090931Y-67588255D01*
X74184244Y-67642130D01*
X74250621Y-67742662D01*
X74270341Y-67816256D01*
X74263123Y-67936507D01*
X74236185Y-67983164D01*
X74368938Y-68184228D02*
X74487256Y-68625794D01*
X73655356Y-68612066D02*
X74428097Y-68405011D01*
X73810471Y-69043772D02*
X73803253Y-69164024D01*
X73852552Y-69348009D01*
X73909068Y-69411744D01*
X73955725Y-69438681D01*
X74039179Y-69455759D01*
X74112774Y-69436039D01*
X74176508Y-69379523D01*
X74203446Y-69332866D01*
X74220523Y-69249412D01*
X74217882Y-69092363D01*
X74234959Y-69008909D01*
X74261897Y-68962252D01*
X74325631Y-68905735D01*
X74399225Y-68886016D01*
X74482680Y-68903094D01*
X74529337Y-68930031D01*
X74585853Y-68993765D01*
X74635152Y-69177751D01*
X74627934Y-69298003D01*
D12*
X95365000Y-79889043D02*
X95304523Y-80002436D01*
X95304523Y-80183865D01*
X95365000Y-80372853D01*
X95485952Y-80508924D01*
X95606904Y-80584519D01*
X95848809Y-80675234D01*
X96030238Y-80697912D01*
X96272142Y-80667674D01*
X96393095Y-80622317D01*
X96514047Y-80516484D01*
X96574523Y-80342615D01*
X96574523Y-80221662D01*
X96514047Y-80032674D01*
X96453571Y-79964638D01*
X96030238Y-79911722D01*
X96030238Y-80153627D01*
X96574523Y-79435472D02*
X95304523Y-79276722D01*
X95304523Y-78792912D01*
X95365000Y-78679519D01*
X95425476Y-78626603D01*
X95546428Y-78581246D01*
X95727857Y-78603924D01*
X95848809Y-78679519D01*
X95909285Y-78747555D01*
X95969761Y-78876067D01*
X95969761Y-79359877D01*
X96574523Y-78165472D02*
X95304523Y-78006722D01*
X95304523Y-77160055D02*
X95304523Y-76918150D01*
X95365000Y-76804758D01*
X95485952Y-76698924D01*
X95727857Y-76668686D01*
X96151190Y-76721603D01*
X96393095Y-76812317D01*
X96514047Y-76948388D01*
X96574523Y-77076900D01*
X96574523Y-77318805D01*
X96514047Y-77432198D01*
X96393095Y-77538031D01*
X96151190Y-77568269D01*
X95727857Y-77515353D01*
X95485952Y-77424638D01*
X95365000Y-77288567D01*
X95304523Y-77160055D01*
D10*
X98156628Y-91729072D02*
X97383887Y-91936128D01*
X97245850Y-91420967D02*
X97206411Y-91273778D01*
X97223489Y-91190324D01*
X97277364Y-91097010D01*
X97414693Y-91020774D01*
X97672273Y-90951756D01*
X97829321Y-90949114D01*
X97922635Y-91002989D01*
X97979152Y-91066723D01*
X98018591Y-91213912D01*
X98001513Y-91297366D01*
X97947639Y-91390680D01*
X97810310Y-91466916D01*
X97552729Y-91535935D01*
X97395681Y-91538576D01*
X97302367Y-91484702D01*
X97245850Y-91420967D01*
X97028935Y-90611429D02*
X97009216Y-90537835D01*
X97026293Y-90454381D01*
X97053231Y-90407724D01*
X97116965Y-90351207D01*
X97254294Y-90274971D01*
X97438280Y-90225672D01*
X97595329Y-90223030D01*
X97678783Y-90240108D01*
X97725440Y-90267045D01*
X97781957Y-90330780D01*
X97801676Y-90404374D01*
X97784598Y-90487828D01*
X97757661Y-90534485D01*
X97693926Y-90591002D01*
X97556598Y-90667238D01*
X97372612Y-90716537D01*
X97215563Y-90719179D01*
X97132109Y-90702101D01*
X97085452Y-90675164D01*
X97028935Y-90611429D01*
X98124761Y-64157331D02*
X98131978Y-64037079D01*
X98082680Y-63853094D01*
X98026163Y-63789359D01*
X97979506Y-63762422D01*
X97896052Y-63745344D01*
X97822457Y-63765063D01*
X97758723Y-63821580D01*
X97731785Y-63868237D01*
X97714708Y-63951691D01*
X97717350Y-64108740D01*
X97700272Y-64192194D01*
X97673335Y-64238851D01*
X97609600Y-64295368D01*
X97536006Y-64315087D01*
X97452552Y-64298009D01*
X97405895Y-64271072D01*
X97349378Y-64207337D01*
X97300079Y-64023352D01*
X97307297Y-63903100D01*
X97954503Y-63374730D02*
X97181762Y-63581785D01*
X97132463Y-63397800D01*
X97139681Y-63277548D01*
X97193556Y-63184234D01*
X97257290Y-63127718D01*
X97394619Y-63051481D01*
X97505011Y-63021902D01*
X97662059Y-63019260D01*
X97745513Y-63036338D01*
X97838827Y-63090213D01*
X97905204Y-63190744D01*
X97954503Y-63374730D01*
X97747447Y-62601990D02*
X96974707Y-62809045D01*
X98159270Y-101086121D02*
X98166488Y-100965869D01*
X98117189Y-100781884D01*
X98060672Y-100718149D01*
X98014015Y-100691212D01*
X97930561Y-100674134D01*
X97856967Y-100693854D01*
X97793232Y-100750370D01*
X97766295Y-100797027D01*
X97749217Y-100880481D01*
X97751859Y-101037530D01*
X97734781Y-101120984D01*
X97707844Y-101167641D01*
X97644109Y-101224158D01*
X97570515Y-101243877D01*
X97487061Y-101226800D01*
X97440404Y-101199862D01*
X97383887Y-101136128D01*
X97334588Y-100952142D01*
X97341806Y-100831890D01*
X97797100Y-99881674D02*
X97843757Y-99908611D01*
X97910134Y-100009143D01*
X97929853Y-100082737D01*
X97922635Y-100202989D01*
X97868760Y-100296302D01*
X97805026Y-100352819D01*
X97667697Y-100429055D01*
X97557305Y-100458635D01*
X97400257Y-100461277D01*
X97316803Y-100444199D01*
X97223489Y-100390324D01*
X97157112Y-100289793D01*
X97137393Y-100216198D01*
X97144611Y-100095947D01*
X97171548Y-100049290D01*
X97683359Y-99162808D02*
X97781957Y-99530780D01*
X97009216Y-99737835D01*
X86557717Y-103271386D02*
X86474263Y-103254308D01*
X86363871Y-103283887D01*
X86263340Y-103350264D01*
X86209465Y-103443578D01*
X86192387Y-103527032D01*
X86195029Y-103684080D01*
X86224609Y-103794472D01*
X86300845Y-103931801D01*
X86357361Y-103995535D01*
X86450675Y-104049410D01*
X86570927Y-104056628D01*
X86644521Y-104036908D01*
X86745053Y-103970532D01*
X86771990Y-103923875D01*
X86702972Y-103666295D01*
X86555783Y-103705734D01*
X87122884Y-103908731D02*
X86915829Y-103135991D01*
X87564450Y-103790414D01*
X87357395Y-103017673D01*
X87932422Y-103691816D02*
X87725367Y-102919076D01*
X87909353Y-102869777D01*
X88029604Y-102876995D01*
X88122918Y-102930869D01*
X88179435Y-102994604D01*
X88255671Y-103131933D01*
X88285250Y-103242324D01*
X88287892Y-103399373D01*
X88270815Y-103482827D01*
X88216940Y-103576141D01*
X88116408Y-103642517D01*
X87932422Y-103691816D01*
X73630707Y-83020073D02*
X73929660Y-82663895D01*
X73512390Y-82578507D02*
X74285130Y-82371452D01*
X74364008Y-82665829D01*
X74346931Y-82749283D01*
X74319993Y-82795940D01*
X74256259Y-82852457D01*
X74145867Y-82882036D01*
X74062413Y-82864959D01*
X74015756Y-82838021D01*
X73959239Y-82774287D01*
X73880361Y-82479909D01*
X73699725Y-83277653D02*
X74323343Y-83544385D01*
X74214886Y-83139616D02*
X73808183Y-83682422D01*
X91106291Y-103352906D02*
X91570927Y-104056628D01*
X91621452Y-103214869D01*
X92507934Y-103726679D02*
X92480996Y-103773336D01*
X92380465Y-103839713D01*
X92306870Y-103859432D01*
X92186619Y-103852215D01*
X92093305Y-103798340D01*
X92036788Y-103734605D01*
X91960552Y-103597276D01*
X91930973Y-103486885D01*
X91928331Y-103329836D01*
X91945408Y-103246382D01*
X91999283Y-103153068D01*
X92099815Y-103086692D01*
X92173409Y-103066972D01*
X92293661Y-103074190D01*
X92340318Y-103101127D01*
X93280674Y-103519624D02*
X93253737Y-103566281D01*
X93153205Y-103632658D01*
X93079611Y-103652377D01*
X92959360Y-103645159D01*
X92866046Y-103591285D01*
X92809529Y-103527550D01*
X92733293Y-103390221D01*
X92703713Y-103279830D01*
X92701071Y-103122781D01*
X92718149Y-103039327D01*
X92772024Y-102946013D01*
X92872556Y-102879637D01*
X92946150Y-102859917D01*
X93066401Y-102867135D01*
X93113058Y-102894072D01*
X98156628Y-89329072D02*
X97383887Y-89536128D01*
X97245850Y-89020967D02*
X97206411Y-88873778D01*
X97223489Y-88790324D01*
X97277364Y-88697010D01*
X97414693Y-88620774D01*
X97672273Y-88551756D01*
X97829321Y-88549114D01*
X97922635Y-88602989D01*
X97979152Y-88666723D01*
X98018591Y-88813912D01*
X98001513Y-88897366D01*
X97947639Y-88990680D01*
X97810310Y-89066916D01*
X97552729Y-89135935D01*
X97395681Y-89138576D01*
X97302367Y-89084702D01*
X97245850Y-89020967D01*
X97732658Y-87746794D02*
X97850975Y-88188360D01*
X97791816Y-87967577D02*
X97019076Y-88174632D01*
X97149187Y-88218647D01*
X97242501Y-88272522D01*
X97299017Y-88336257D01*
X74228613Y-90057717D02*
X74245691Y-89974263D01*
X74216112Y-89863871D01*
X74149735Y-89763340D01*
X74056421Y-89709465D01*
X73972967Y-89692387D01*
X73815919Y-89695029D01*
X73705527Y-89724609D01*
X73568198Y-89800845D01*
X73504464Y-89857361D01*
X73450589Y-89950675D01*
X73443371Y-90070927D01*
X73463091Y-90144521D01*
X73529467Y-90245053D01*
X73576124Y-90271990D01*
X73833704Y-90202972D01*
X73794265Y-90055783D01*
X73591268Y-90622884D02*
X74364008Y-90415829D01*
X73709585Y-91064450D01*
X74482326Y-90857395D01*
X73808183Y-91432422D02*
X74580923Y-91225367D01*
X74630222Y-91409353D01*
X74623004Y-91529604D01*
X74569130Y-91622918D01*
X74505395Y-91679435D01*
X74368066Y-91755671D01*
X74257675Y-91785250D01*
X74100626Y-91787892D01*
X74017172Y-91770815D01*
X73923858Y-91716940D01*
X73857482Y-91616408D01*
X73808183Y-91432422D01*
D12*
X77923991Y-102264047D02*
X78097861Y-102324523D01*
X78400241Y-102324523D01*
X78528753Y-102264047D01*
X78596789Y-102203571D01*
X78672384Y-102082619D01*
X78687503Y-101961666D01*
X78642146Y-101840714D01*
X78589230Y-101780238D01*
X78475837Y-101719761D01*
X78241491Y-101659285D01*
X78128099Y-101598809D01*
X78075182Y-101538333D01*
X78029825Y-101417380D01*
X78044944Y-101296428D01*
X78120539Y-101175476D01*
X78188575Y-101115000D01*
X78317087Y-101054523D01*
X78619468Y-101054523D01*
X78793337Y-101115000D01*
X79163753Y-101054523D02*
X79889468Y-101054523D01*
X79367861Y-102324523D02*
X79526611Y-101054523D01*
X80758813Y-102324523D02*
X80154051Y-102324523D01*
X80312801Y-101054523D01*
X81182146Y-102324523D02*
X81340896Y-101054523D01*
X81786908Y-102324523D02*
X81945658Y-101054523D01*
X82512622Y-102324523D01*
X82671372Y-101054523D01*
X83117384Y-102324523D02*
X83276134Y-101054523D01*
X83843099Y-102324523D02*
X83389527Y-101598809D01*
X84001849Y-101054523D02*
X83185420Y-101780238D01*
D10*
X74383728Y-85239423D02*
X74285130Y-84871452D01*
X73907299Y-84933252D01*
X73953956Y-84960190D01*
X74010472Y-85023924D01*
X74059771Y-85207910D01*
X74042694Y-85291364D01*
X74015756Y-85338021D01*
X73952022Y-85394538D01*
X73768036Y-85443837D01*
X73684582Y-85426759D01*
X73637925Y-85399822D01*
X73581408Y-85336087D01*
X73532109Y-85152101D01*
X73549187Y-85068647D01*
X73576124Y-85021990D01*
X74452746Y-85497004D02*
X73749024Y-85961639D01*
X74590783Y-86012164D01*
D12*
X76195476Y-93595182D02*
X74925476Y-93859765D01*
X76195476Y-94441849D01*
X75046428Y-95447265D02*
X74985952Y-95379230D01*
X74925476Y-95190241D01*
X74925476Y-95069289D01*
X74985952Y-94895420D01*
X75106904Y-94789587D01*
X75227857Y-94744230D01*
X75469761Y-94713991D01*
X75651190Y-94736670D01*
X75893095Y-94827384D01*
X76014047Y-94902980D01*
X76135000Y-95039051D01*
X76195476Y-95228039D01*
X76195476Y-95348991D01*
X76135000Y-95522861D01*
X76074523Y-95575777D01*
X74925476Y-95976432D02*
X76195476Y-96135182D01*
X76195476Y-96618991D01*
X76135000Y-96732384D01*
X76074523Y-96785301D01*
X75953571Y-96830658D01*
X75772142Y-96807980D01*
X75651190Y-96732384D01*
X75590714Y-96664349D01*
X75530238Y-96535837D01*
X75530238Y-96052027D01*
D10*
X97999225Y-69036016D02*
X98045882Y-69062953D01*
X98112259Y-69163485D01*
X98131978Y-69237079D01*
X98124761Y-69357331D01*
X98070886Y-69450645D01*
X98007151Y-69507161D01*
X97869822Y-69583398D01*
X97759431Y-69612977D01*
X97602382Y-69615619D01*
X97518928Y-69598541D01*
X97425614Y-69544666D01*
X97359238Y-69444135D01*
X97339518Y-69370540D01*
X97346736Y-69250289D01*
X97373674Y-69203632D01*
X97885484Y-68317150D02*
X97984082Y-68685122D01*
X97211341Y-68892177D01*
X97816466Y-68059570D02*
X97043725Y-68266625D01*
X97698148Y-67618004D02*
X97345320Y-68067496D01*
X96925408Y-67825059D02*
X97485291Y-68148308D01*
X74228613Y-78057717D02*
X74245691Y-77974263D01*
X74216112Y-77863871D01*
X74149735Y-77763340D01*
X74056421Y-77709465D01*
X73972967Y-77692387D01*
X73815919Y-77695029D01*
X73705527Y-77724609D01*
X73568198Y-77800845D01*
X73504464Y-77857361D01*
X73450589Y-77950675D01*
X73443371Y-78070927D01*
X73463091Y-78144521D01*
X73529467Y-78245053D01*
X73576124Y-78271990D01*
X73833704Y-78202972D01*
X73794265Y-78055783D01*
X73591268Y-78622884D02*
X74364008Y-78415829D01*
X73709585Y-79064450D01*
X74482326Y-78857395D01*
X73808183Y-79432422D02*
X74580923Y-79225367D01*
X74630222Y-79409353D01*
X74623004Y-79529604D01*
X74569130Y-79622918D01*
X74505395Y-79679435D01*
X74368066Y-79755671D01*
X74257675Y-79785250D01*
X74100626Y-79787892D01*
X74017172Y-79770815D01*
X73923858Y-79716940D01*
X73857482Y-79616408D01*
X73808183Y-79432422D01*
D12*
X76195476Y-66657801D02*
X75167380Y-66529289D01*
X75046428Y-66574646D01*
X74985952Y-66627563D01*
X74925476Y-66740956D01*
X74925476Y-66982861D01*
X74985952Y-67111372D01*
X75046428Y-67179408D01*
X75167380Y-67255003D01*
X76195476Y-67383515D01*
X74985952Y-67776611D02*
X74925476Y-67950480D01*
X74925476Y-68252861D01*
X74985952Y-68381372D01*
X75046428Y-68449408D01*
X75167380Y-68525003D01*
X75288333Y-68540122D01*
X75409285Y-68494765D01*
X75469761Y-68441849D01*
X75530238Y-68328456D01*
X75590714Y-68094111D01*
X75651190Y-67980718D01*
X75711666Y-67927801D01*
X75832619Y-67882444D01*
X75953571Y-67897563D01*
X76074523Y-67973158D01*
X76135000Y-68041194D01*
X76195476Y-68169706D01*
X76195476Y-68472087D01*
X76135000Y-68645956D01*
X75288333Y-69023932D02*
X75288333Y-69628694D01*
X74925476Y-68857622D02*
X76195476Y-69439706D01*
X74925476Y-69704289D01*
X74925476Y-70853337D02*
X75530238Y-70505599D01*
X74925476Y-70127622D02*
X76195476Y-70286372D01*
X76195476Y-70770182D01*
X76135000Y-70883575D01*
X76074523Y-70936491D01*
X75953571Y-70981849D01*
X75772142Y-70959170D01*
X75651190Y-70883575D01*
X75590714Y-70815539D01*
X75530238Y-70687027D01*
X75530238Y-70203218D01*
X76195476Y-71374944D02*
X76195476Y-72100658D01*
X74925476Y-71579051D02*
X76195476Y-71737801D01*
D10*
X97371386Y-86742282D02*
X97354308Y-86825736D01*
X97383887Y-86936128D01*
X97450264Y-87036659D01*
X97543578Y-87090534D01*
X97627032Y-87107612D01*
X97784080Y-87104970D01*
X97894472Y-87075390D01*
X98031801Y-86999154D01*
X98095535Y-86942638D01*
X98149410Y-86849324D01*
X98156628Y-86729072D01*
X98136908Y-86655478D01*
X98070532Y-86554946D01*
X98023875Y-86528009D01*
X97766295Y-86597027D01*
X97805734Y-86744216D01*
X98008731Y-86177115D02*
X97235991Y-86384170D01*
X97890414Y-85735549D01*
X97117673Y-85942604D01*
X97791816Y-85367577D02*
X97019076Y-85574632D01*
X96969777Y-85390646D01*
X96976995Y-85270395D01*
X97030869Y-85177081D01*
X97094604Y-85120564D01*
X97231933Y-85044328D01*
X97342324Y-85014749D01*
X97499373Y-85012107D01*
X97582827Y-85029184D01*
X97676141Y-85083059D01*
X97742517Y-85183591D01*
X97791816Y-85367577D01*
X97956628Y-84129072D02*
X97183887Y-84336128D01*
X97045850Y-83820967D02*
X97006411Y-83673778D01*
X97023489Y-83590324D01*
X97077364Y-83497010D01*
X97214693Y-83420774D01*
X97472273Y-83351756D01*
X97629321Y-83349114D01*
X97722635Y-83402989D01*
X97779152Y-83466723D01*
X97818591Y-83613912D01*
X97801513Y-83697366D01*
X97747639Y-83790680D01*
X97610310Y-83866916D01*
X97352729Y-83935935D01*
X97195681Y-83938576D01*
X97102367Y-83884702D01*
X97045850Y-83820967D01*
X96951829Y-83175696D02*
X96905172Y-83148758D01*
X96848655Y-83085024D01*
X96799356Y-82901038D01*
X96816434Y-82817584D01*
X96843371Y-82770927D01*
X96907106Y-82714410D01*
X96980700Y-82694690D01*
X97100951Y-82701908D01*
X97660835Y-83025157D01*
X97532658Y-82546794D01*
X97371386Y-74342282D02*
X97354308Y-74425736D01*
X97383887Y-74536128D01*
X97450264Y-74636659D01*
X97543578Y-74690534D01*
X97627032Y-74707612D01*
X97784080Y-74704970D01*
X97894472Y-74675390D01*
X98031801Y-74599154D01*
X98095535Y-74542638D01*
X98149410Y-74449324D01*
X98156628Y-74329072D01*
X98136908Y-74255478D01*
X98070532Y-74154946D01*
X98023875Y-74128009D01*
X97766295Y-74197027D01*
X97805734Y-74344216D01*
X98008731Y-73777115D02*
X97235991Y-73984170D01*
X97890414Y-73335549D01*
X97117673Y-73542604D01*
X97791816Y-72967577D02*
X97019076Y-73174632D01*
X96969777Y-72990646D01*
X96976995Y-72870395D01*
X97030869Y-72777081D01*
X97094604Y-72720564D01*
X97231933Y-72644328D01*
X97342324Y-72614749D01*
X97499373Y-72612107D01*
X97582827Y-72629184D01*
X97676141Y-72683059D01*
X97742517Y-72783591D01*
X97791816Y-72967577D01*
X74280200Y-96603053D02*
X74398518Y-97044619D01*
X73566618Y-97030891D02*
X74339359Y-96823836D01*
X73675076Y-97435660D02*
X74298694Y-97702392D01*
X74190236Y-97297623D02*
X73783533Y-97840429D01*
X74228613Y-94057717D02*
X74245691Y-93974263D01*
X74216112Y-93863871D01*
X74149735Y-93763340D01*
X74056421Y-93709465D01*
X73972967Y-93692387D01*
X73815919Y-93695029D01*
X73705527Y-93724609D01*
X73568198Y-93800845D01*
X73504464Y-93857361D01*
X73450589Y-93950675D01*
X73443371Y-94070927D01*
X73463091Y-94144521D01*
X73529467Y-94245053D01*
X73576124Y-94271990D01*
X73833704Y-94202972D01*
X73794265Y-94055783D01*
X73591268Y-94622884D02*
X74364008Y-94415829D01*
X73709585Y-95064450D01*
X74482326Y-94857395D01*
X73808183Y-95432422D02*
X74580923Y-95225367D01*
X74630222Y-95409353D01*
X74623004Y-95529604D01*
X74569130Y-95622918D01*
X74505395Y-95679435D01*
X74368066Y-95755671D01*
X74257675Y-95785250D01*
X74100626Y-95787892D01*
X74017172Y-95770815D01*
X73923858Y-95716940D01*
X73857482Y-95616408D01*
X73808183Y-95432422D01*
X74280200Y-73103053D02*
X74398518Y-73544619D01*
X73566618Y-73530891D02*
X74339359Y-73323836D01*
X73675076Y-73935660D02*
X74298694Y-74202392D01*
X74190236Y-73797623D02*
X73783533Y-74340429D01*
X84052528Y-104061558D02*
X83845473Y-103288817D01*
X84029459Y-103239518D01*
X84149710Y-103246736D01*
X84243024Y-103300611D01*
X84299541Y-103364345D01*
X84375777Y-103501674D01*
X84405356Y-103612066D01*
X84407998Y-103769114D01*
X84390921Y-103852569D01*
X84337046Y-103945882D01*
X84236514Y-104012259D01*
X84052528Y-104061558D01*
X84825269Y-103854503D02*
X84618214Y-103081762D01*
X85133374Y-102943725D02*
X85280563Y-102904286D01*
X85364017Y-102921364D01*
X85457331Y-102975238D01*
X85533567Y-103112567D01*
X85602585Y-103370148D01*
X85605227Y-103527196D01*
X85551352Y-103620510D01*
X85487618Y-103677027D01*
X85340429Y-103716466D01*
X85256975Y-103699388D01*
X85163661Y-103645513D01*
X85087425Y-103508184D01*
X85018407Y-103250604D01*
X85015765Y-103093556D01*
X85069639Y-103000242D01*
X85133374Y-102943725D01*
X73630707Y-76270073D02*
X73929660Y-75913895D01*
X73512390Y-75828507D02*
X74285130Y-75621452D01*
X74364008Y-75915829D01*
X74346931Y-75999283D01*
X74319993Y-76045940D01*
X74256259Y-76102457D01*
X74145867Y-76132036D01*
X74062413Y-76114959D01*
X74015756Y-76088021D01*
X73959239Y-76024287D01*
X73880361Y-75729909D01*
X73699725Y-76527653D02*
X74323343Y-76794385D01*
X74214886Y-76389616D02*
X73808183Y-76932422D01*
X98183919Y-66978114D02*
X98191137Y-66857862D01*
X98141838Y-66673877D01*
X98085322Y-66610142D01*
X98038665Y-66583205D01*
X97955210Y-66566127D01*
X97881616Y-66585846D01*
X97817882Y-66642363D01*
X97790944Y-66689020D01*
X97773866Y-66772474D01*
X97776508Y-66929523D01*
X97759431Y-67012977D01*
X97732493Y-67059634D01*
X97668759Y-67116151D01*
X97595164Y-67135870D01*
X97511710Y-67118792D01*
X97465053Y-67091855D01*
X97408537Y-67028120D01*
X97359238Y-66844135D01*
X97366456Y-66723883D01*
X98013661Y-66195513D02*
X97240921Y-66402569D01*
X97191622Y-66218583D01*
X97198840Y-66098331D01*
X97252714Y-66005017D01*
X97316449Y-65948501D01*
X97453778Y-65872264D01*
X97564169Y-65842685D01*
X97721218Y-65840043D01*
X97804672Y-65857121D01*
X97897986Y-65910996D01*
X97964362Y-66011527D01*
X98013661Y-66195513D01*
X96994426Y-65482639D02*
X96954987Y-65335450D01*
X96972065Y-65251996D01*
X97025940Y-65158682D01*
X97163268Y-65082446D01*
X97420849Y-65013428D01*
X97577897Y-65010786D01*
X97671211Y-65064661D01*
X97727728Y-65128395D01*
X97767167Y-65275584D01*
X97750089Y-65359038D01*
X97696214Y-65452352D01*
X97558885Y-65528588D01*
X97301305Y-65597607D01*
X97144257Y-65600249D01*
X97050943Y-65546374D01*
X96994426Y-65482639D01*
D12*
X96514047Y-64662912D02*
X96574523Y-64489043D01*
X96574523Y-64186662D01*
X96514047Y-64058150D01*
X96453571Y-63990115D01*
X96332619Y-63914519D01*
X96211666Y-63899400D01*
X96090714Y-63944758D01*
X96030238Y-63997674D01*
X95969761Y-64111067D01*
X95909285Y-64345412D01*
X95848809Y-64458805D01*
X95788333Y-64511722D01*
X95667380Y-64557079D01*
X95546428Y-64541960D01*
X95425476Y-64466365D01*
X95365000Y-64398329D01*
X95304523Y-64269817D01*
X95304523Y-63967436D01*
X95365000Y-63793567D01*
X96574523Y-63400472D02*
X95304523Y-63241722D01*
X95304523Y-62757912D01*
X95365000Y-62644519D01*
X95425476Y-62591603D01*
X95546428Y-62546246D01*
X95727857Y-62568924D01*
X95848809Y-62644519D01*
X95909285Y-62712555D01*
X95969761Y-62841067D01*
X95969761Y-63324877D01*
X96574523Y-62130472D02*
X95304523Y-61971722D01*
D10*
X97016271Y-78710576D02*
X97114869Y-79078547D01*
X97492700Y-79016747D01*
X97446043Y-78989809D01*
X97389527Y-78926075D01*
X97340228Y-78742089D01*
X97357305Y-78658635D01*
X97384243Y-78611978D01*
X97447977Y-78555461D01*
X97631963Y-78506162D01*
X97715417Y-78523240D01*
X97762074Y-78550177D01*
X97818591Y-78613912D01*
X97867890Y-78797898D01*
X97850812Y-78881352D01*
X97823875Y-78928009D01*
X96947253Y-78452995D02*
X97650975Y-77988360D01*
X96809216Y-77937835D01*
X74383728Y-101989423D02*
X74285130Y-101621452D01*
X73907299Y-101683252D01*
X73953956Y-101710190D01*
X74010472Y-101773924D01*
X74059771Y-101957910D01*
X74042694Y-102041364D01*
X74015756Y-102088021D01*
X73952022Y-102144538D01*
X73768036Y-102193837D01*
X73684582Y-102176759D01*
X73637925Y-102149822D01*
X73581408Y-102086087D01*
X73532109Y-101902101D01*
X73549187Y-101818647D01*
X73576124Y-101771990D01*
X74452746Y-102247004D02*
X73749024Y-102711639D01*
X74590783Y-102762164D01*
X97956628Y-81529072D02*
X97183887Y-81736128D01*
X97045850Y-81220967D02*
X97006411Y-81073778D01*
X97023489Y-80990324D01*
X97077364Y-80897010D01*
X97214693Y-80820774D01*
X97472273Y-80751756D01*
X97629321Y-80749114D01*
X97722635Y-80802989D01*
X97779152Y-80866723D01*
X97818591Y-81013912D01*
X97801513Y-81097366D01*
X97747639Y-81190680D01*
X97610310Y-81266916D01*
X97352729Y-81335935D01*
X97195681Y-81338576D01*
X97102367Y-81284702D01*
X97045850Y-81220967D01*
X96888094Y-80632212D02*
X96759917Y-80153849D01*
X97123313Y-80332551D01*
X97093733Y-80222160D01*
X97110811Y-80138705D01*
X97137749Y-80092048D01*
X97201483Y-80035532D01*
X97385469Y-79986233D01*
X97468923Y-80003311D01*
X97515580Y-80030248D01*
X97572097Y-80093983D01*
X97631255Y-80314766D01*
X97614178Y-80398220D01*
X97587240Y-80444877D01*
%TO.C,U1*%
X94590476Y-67852380D02*
X95209523Y-67852380D01*
X94876190Y-68233333D01*
X95019047Y-68233333D01*
X95114285Y-68280952D01*
X95161904Y-68328571D01*
X95209523Y-68423809D01*
X95209523Y-68661904D01*
X95161904Y-68757142D01*
X95114285Y-68804761D01*
X95019047Y-68852380D01*
X94733333Y-68852380D01*
X94638095Y-68804761D01*
X94590476Y-68757142D01*
X95590476Y-67947619D02*
X95638095Y-67900000D01*
X95733333Y-67852380D01*
X95971428Y-67852380D01*
X96066666Y-67900000D01*
X96114285Y-67947619D01*
X96161904Y-68042857D01*
X96161904Y-68138095D01*
X96114285Y-68280952D01*
X95542857Y-68852380D01*
X96161904Y-68852380D01*
X76509523Y-91852380D02*
X75938095Y-91852380D01*
X76223809Y-91852380D02*
X76223809Y-90852380D01*
X76128571Y-90995238D01*
X76033333Y-91090476D01*
X75938095Y-91138095D01*
X77366666Y-90852380D02*
X77176190Y-90852380D01*
X77080952Y-90900000D01*
X77033333Y-90947619D01*
X76938095Y-91090476D01*
X76890476Y-91280952D01*
X76890476Y-91661904D01*
X76938095Y-91757142D01*
X76985714Y-91804761D01*
X77080952Y-91852380D01*
X77271428Y-91852380D01*
X77366666Y-91804761D01*
X77414285Y-91757142D01*
X77461904Y-91661904D01*
X77461904Y-91423809D01*
X77414285Y-91328571D01*
X77366666Y-91280952D01*
X77271428Y-91233333D01*
X77080952Y-91233333D01*
X76985714Y-91280952D01*
X76938095Y-91328571D01*
X76890476Y-91423809D01*
X77185714Y-68852380D02*
X76614285Y-68852380D01*
X76900000Y-68852380D02*
X76900000Y-67852380D01*
X76804761Y-67995238D01*
X76709523Y-68090476D01*
X76614285Y-68138095D01*
X95209523Y-91852380D02*
X94638095Y-91852380D01*
X94923809Y-91852380D02*
X94923809Y-90852380D01*
X94828571Y-90995238D01*
X94733333Y-91090476D01*
X94638095Y-91138095D01*
X95542857Y-90852380D02*
X96209523Y-90852380D01*
X95780952Y-91852380D01*
D13*
%TO.C,J3*%
X70670000Y-96070000D02*
X73330000Y-96070000D01*
X70670000Y-103750000D02*
X73330000Y-103750000D01*
X70670000Y-96070000D02*
X70670000Y-103750000D01*
X70670000Y-94800000D02*
X70670000Y-93470000D01*
X70670000Y-93470000D02*
X72000000Y-93470000D01*
X73330000Y-96070000D02*
X73330000Y-103750000D01*
%TO.C,J4*%
X101130000Y-72410000D02*
X101130000Y-62190000D01*
X101130000Y-73680000D02*
X101130000Y-75010000D01*
X101130000Y-75010000D02*
X99800000Y-75010000D01*
X101130000Y-72410000D02*
X98470000Y-72410000D01*
X101130000Y-62190000D02*
X98470000Y-62190000D01*
X98470000Y-72410000D02*
X98470000Y-62190000D01*
D14*
%TO.C,U1*%
X91892800Y-60000000D02*
X93620000Y-60000000D01*
X78380000Y-60000000D02*
X80107200Y-60000000D01*
X93620000Y-68994800D02*
X93620000Y-60000000D01*
X78380000Y-68994800D02*
X78380000Y-60000000D01*
X81199400Y-58907800D02*
X90800600Y-58907800D01*
X78380000Y-89972000D02*
X93620000Y-89972000D01*
X90800600Y-58907800D02*
G75*
G03*
X91892800Y-60000000I1092200J0D01*
G01*
X80107200Y-60000000D02*
G75*
G03*
X81199400Y-58907800I0J1092200D01*
G01*
D12*
X77000000Y-69900000D02*
G75*
G03*
X77000000Y-69900000I-100000J0D01*
G01*
D15*
X79900000Y-79700000D02*
X92100000Y-79700000D01*
X92100000Y-79700000D02*
X92100000Y-89800000D01*
X92100000Y-89800000D02*
X79900000Y-89800000D01*
X79900000Y-89800000D02*
X79900000Y-79700000D01*
D13*
%TO.C,J1*%
X98420000Y-96495000D02*
X98420000Y-101635000D01*
X101080000Y-96495000D02*
X101080000Y-101635000D01*
X98420000Y-93895000D02*
X99750000Y-93895000D01*
X98420000Y-96495000D02*
X101080000Y-96495000D01*
X98420000Y-101635000D02*
X101080000Y-101635000D01*
X98420000Y-95225000D02*
X98420000Y-93895000D01*
%TO.C,J6*%
X101130000Y-92410000D02*
X99800000Y-92410000D01*
X101130000Y-77050000D02*
X98470000Y-77050000D01*
X101130000Y-89810000D02*
X98470000Y-89810000D01*
X98470000Y-89810000D02*
X98470000Y-77050000D01*
X101130000Y-89810000D02*
X101130000Y-77050000D01*
X101130000Y-91080000D02*
X101130000Y-92410000D01*
%TO.C,J5*%
X73330000Y-89330000D02*
X70670000Y-89330000D01*
X70670000Y-89330000D02*
X70670000Y-81650000D01*
X73330000Y-90600000D02*
X73330000Y-91930000D01*
X73330000Y-91930000D02*
X72000000Y-91930000D01*
X73330000Y-81650000D02*
X70670000Y-81650000D01*
X73330000Y-89330000D02*
X73330000Y-81650000D01*
%TO.C,J2*%
X73330000Y-77530000D02*
X70670000Y-77530000D01*
X73330000Y-80130000D02*
X72000000Y-80130000D01*
X73330000Y-77530000D02*
X73330000Y-67310000D01*
X73330000Y-78800000D02*
X73330000Y-80130000D01*
X73330000Y-67310000D02*
X70670000Y-67310000D01*
X70670000Y-77530000D02*
X70670000Y-67310000D01*
%TO.C,J7*%
X93680000Y-106840000D02*
X78320000Y-106840000D01*
X92730000Y-106510000D02*
X92730000Y-106840000D01*
X80030000Y-106442929D02*
X80030000Y-106840000D01*
X84350000Y-106442929D02*
X84350000Y-106840000D01*
X82570000Y-115500000D02*
X81810000Y-115500000D01*
X85110000Y-106442929D02*
X85110000Y-106840000D01*
X85110000Y-109500000D02*
X85110000Y-115500000D01*
X92730000Y-109500000D02*
X92730000Y-115500000D01*
X92430000Y-109500000D02*
X92430000Y-115500000D01*
X87650000Y-115500000D02*
X86890000Y-115500000D01*
X92550000Y-109500000D02*
X92550000Y-115500000D01*
X91970000Y-115500000D02*
X91970000Y-109500000D01*
X92310000Y-109500000D02*
X92310000Y-115500000D01*
X80030000Y-109500000D02*
X80030000Y-115500000D01*
X83460000Y-106840000D02*
X83460000Y-109500000D01*
X87650000Y-109500000D02*
X87650000Y-115500000D01*
X93620000Y-104130000D02*
X93620000Y-105400000D01*
X92730000Y-115500000D02*
X91970000Y-115500000D01*
X86000000Y-106840000D02*
X86000000Y-109500000D01*
X88540000Y-106840000D02*
X88540000Y-109500000D01*
X90190000Y-109500000D02*
X90190000Y-115500000D01*
X92070000Y-109500000D02*
X92070000Y-115500000D01*
X89430000Y-115500000D02*
X89430000Y-109500000D01*
X78320000Y-106840000D02*
X78320000Y-109500000D01*
X87650000Y-106442929D02*
X87650000Y-106840000D01*
X84350000Y-115500000D02*
X84350000Y-109500000D01*
X92350000Y-104130000D02*
X93620000Y-104130000D01*
X89430000Y-106442929D02*
X89430000Y-106840000D01*
X86890000Y-106442929D02*
X86890000Y-106840000D01*
X86890000Y-115500000D02*
X86890000Y-109500000D01*
X78320000Y-109500000D02*
X93680000Y-109500000D01*
X91970000Y-106510000D02*
X91970000Y-106840000D01*
X85110000Y-115500000D02*
X84350000Y-115500000D01*
X93680000Y-109500000D02*
X93680000Y-106840000D01*
X80030000Y-115500000D02*
X79270000Y-115500000D01*
X92190000Y-109500000D02*
X92190000Y-115500000D01*
X80920000Y-106840000D02*
X80920000Y-109500000D01*
X79270000Y-115500000D02*
X79270000Y-109500000D01*
X81810000Y-115500000D02*
X81810000Y-109500000D01*
X81810000Y-106442929D02*
X81810000Y-106840000D01*
X79270000Y-106442929D02*
X79270000Y-106840000D01*
X90190000Y-106442929D02*
X90190000Y-106840000D01*
X92670000Y-109500000D02*
X92670000Y-115500000D01*
X90190000Y-115500000D02*
X89430000Y-115500000D01*
X82570000Y-106442929D02*
X82570000Y-106840000D01*
X82570000Y-109500000D02*
X82570000Y-115500000D01*
X91080000Y-106840000D02*
X91080000Y-109500000D01*
%TD*%
M02*
