%TF.GenerationSoftware,KiCad,Pcbnew,(6.0.4-0)*%
%TF.CreationDate,2022-08-30T14:02:01+08:00*%
%TF.ProjectId,STLinkV3_Adapter,53544c69-6e6b-4563-935f-416461707465,rev?*%
%TF.SameCoordinates,Original*%
%TF.FileFunction,Copper,L2,Bot*%
%TF.FilePolarity,Positive*%
%FSLAX46Y46*%
G04 Gerber Fmt 4.6, Leading zero omitted, Abs format (unit mm)*
G04 Created by KiCad (PCBNEW (6.0.4-0)) date 2022-08-30 14:02:01*
%MOMM*%
%LPD*%
G01*
G04 APERTURE LIST*
G04 Aperture macros list*
%AMRoundRect*
0 Rectangle with rounded corners*
0 $1 Rounding radius*
0 $2 $3 $4 $5 $6 $7 $8 $9 X,Y pos of 4 corners*
0 Add a 4 corners polygon primitive as box body*
4,1,4,$2,$3,$4,$5,$6,$7,$8,$9,$2,$3,0*
0 Add four circle primitives for the rounded corners*
1,1,$1+$1,$2,$3*
1,1,$1+$1,$4,$5*
1,1,$1+$1,$6,$7*
1,1,$1+$1,$8,$9*
0 Add four rect primitives between the rounded corners*
20,1,$1+$1,$2,$3,$4,$5,0*
20,1,$1+$1,$4,$5,$6,$7,0*
20,1,$1+$1,$6,$7,$8,$9,0*
20,1,$1+$1,$8,$9,$2,$3,0*%
G04 Aperture macros list end*
%TA.AperFunction,Profile*%
%ADD10C,0.100000*%
%TD*%
%TA.AperFunction,Profile*%
%ADD11C,0.120000*%
%TD*%
%TA.AperFunction,ComponentPad*%
%ADD12R,1.700000X1.700000*%
%TD*%
%TA.AperFunction,ComponentPad*%
%ADD13O,1.700000X1.700000*%
%TD*%
%TA.AperFunction,SMDPad,CuDef*%
%ADD14RoundRect,0.200000X0.200000X0.275000X-0.200000X0.275000X-0.200000X-0.275000X0.200000X-0.275000X0*%
%TD*%
%TA.AperFunction,SMDPad,CuDef*%
%ADD15RoundRect,0.200000X0.275000X-0.200000X0.275000X0.200000X-0.275000X0.200000X-0.275000X-0.200000X0*%
%TD*%
%TA.AperFunction,ViaPad*%
%ADD16C,0.600000*%
%TD*%
%TA.AperFunction,ViaPad*%
%ADD17C,0.800000*%
%TD*%
%TA.AperFunction,Conductor*%
%ADD18C,0.250000*%
%TD*%
%TA.AperFunction,Conductor*%
%ADD19C,0.400000*%
%TD*%
%TA.AperFunction,Conductor*%
%ADD20C,0.508000*%
%TD*%
G04 APERTURE END LIST*
D10*
X100490000Y-105540000D02*
G75*
G03*
X100490000Y-105540000I-1550000J0D01*
G01*
X74610000Y-63050000D02*
G75*
G03*
X74610000Y-63050000I-1550000J0D01*
G01*
X70000000Y-105648680D02*
G75*
G03*
X73000000Y-108600000I2952979J1285D01*
G01*
X99000000Y-108600000D02*
X73000000Y-108600000D01*
X102000000Y-63000000D02*
X102000000Y-105600000D01*
X73000000Y-60000000D02*
G75*
G03*
X70000000Y-63000000I2622J-3002622D01*
G01*
X99000000Y-108600000D02*
G75*
G03*
X102000000Y-105600000I0J3000000D01*
G01*
X102000000Y-63000000D02*
G75*
G03*
X99000000Y-60000000I-3000000J0D01*
G01*
X73000000Y-60000000D02*
X99000000Y-60000000D01*
X70000000Y-105648680D02*
X70000000Y-63000000D01*
D11*
%TO.C,U1*%
X79900000Y-79700000D02*
X92100000Y-79700000D01*
X92100000Y-79700000D02*
X92100000Y-89800000D01*
X92100000Y-89800000D02*
X79900000Y-89800000D01*
X79900000Y-89800000D02*
X79900000Y-79700000D01*
%TD*%
D12*
%TO.P,J1,1,Pin_1*%
%TO.N,GNDREF*%
X99877000Y-95225000D03*
D13*
%TO.P,J1,2,Pin_2*%
%TO.N,/I2C_SDA*%
X99623000Y-97765000D03*
%TO.P,J1,3,Pin_3*%
%TO.N,/I2C_SCL*%
X99877000Y-100305000D03*
%TD*%
%TO.P,J6,6,Pin_6*%
%TO.N,/5V*%
X99927000Y-78380000D03*
%TO.P,J6,5,Pin_5*%
%TO.N,/GPIO3*%
X99673000Y-80920000D03*
%TO.P,J6,4,Pin_4*%
%TO.N,/GPIO2*%
X99927000Y-83460000D03*
%TO.P,J6,3,Pin_3*%
%TO.N,GNDREF*%
X99673000Y-86000000D03*
%TO.P,J6,2,Pin_2*%
%TO.N,/GPIO1*%
X99927000Y-88540000D03*
D12*
%TO.P,J6,1,Pin_1*%
%TO.N,/GPIO0*%
X99673000Y-91080000D03*
%TD*%
%TO.P,J4,1,Pin_1*%
%TO.N,GNDREF*%
X99673000Y-73680000D03*
D13*
%TO.P,J4,2,Pin_2*%
%TO.N,/SPI_NSS*%
X99927000Y-71140000D03*
%TO.P,J4,3,Pin_3*%
%TO.N,/SPI_CLK*%
X99673000Y-68600000D03*
%TO.P,J4,4,Pin_4*%
%TO.N,/SPI_MISO*%
X99927000Y-66060000D03*
%TO.P,J4,5,Pin_5*%
%TO.N,/SPI_MOSI*%
X99673000Y-63520000D03*
%TD*%
%TO.P,J2,5,Pin_5*%
%TO.N,/UART_CTS*%
X71873000Y-68640000D03*
%TO.P,J2,4,Pin_4*%
%TO.N,/UART_RTS*%
X72127000Y-71180000D03*
%TO.P,J2,3,Pin_3*%
%TO.N,/UART_Tx*%
X71873000Y-73720000D03*
%TO.P,J2,2,Pin_2*%
%TO.N,/UART_Rx*%
X72127000Y-76260000D03*
D12*
%TO.P,J2,1,Pin_1*%
%TO.N,GNDREF*%
X71873000Y-78800000D03*
%TD*%
%TO.P,J5,1,Pin_1*%
%TO.N,GNDREF*%
X71873000Y-90600000D03*
D13*
%TO.P,J5,2,Pin_2*%
%TO.N,/CAN_Tx*%
X72127000Y-88060000D03*
%TO.P,J5,3,Pin_3*%
%TO.N,/5V*%
X71873000Y-85520000D03*
%TO.P,J5,4,Pin_4*%
%TO.N,/CAN_Rx*%
X72127000Y-82980000D03*
%TD*%
D12*
%TO.P,J3,1,Pin_1*%
%TO.N,GNDREF*%
X72127000Y-94800000D03*
D13*
%TO.P,J3,2,Pin_2*%
%TO.N,/VCP_Tx*%
X71873000Y-97340000D03*
%TO.P,J3,3,Pin_3*%
%TO.N,/VCP_Rx*%
X72127000Y-99880000D03*
%TO.P,J3,4,Pin_4*%
%TO.N,/5V*%
X71873000Y-102420000D03*
%TD*%
%TO.P,J7,6,Pin_6*%
%TO.N,/T_SWO*%
X79650000Y-105273000D03*
%TO.P,J7,5,Pin_5*%
%TO.N,/T_NRST*%
X82190000Y-105527000D03*
%TO.P,J7,4,Pin_4*%
%TO.N,/T_SWDIO*%
X84730000Y-105273000D03*
%TO.P,J7,3,Pin_3*%
%TO.N,/T_GND*%
X87270000Y-105527000D03*
%TO.P,J7,2,Pin_2*%
%TO.N,/T_SWCLK*%
X89810000Y-105273000D03*
D12*
%TO.P,J7,1,Pin_1*%
%TO.N,/T_VCC*%
X92350000Y-105527000D03*
%TD*%
D14*
%TO.P,R2,1*%
%TO.N,/T_GND*%
X87275000Y-107650000D03*
%TO.P,R2,2*%
%TO.N,GNDREF*%
X85625000Y-107650000D03*
%TD*%
D15*
%TO.P,R1,1*%
%TO.N,Net-(R1-Pad1)*%
X97730000Y-82545000D03*
%TO.P,R1,2*%
%TO.N,/5V*%
X97730000Y-80895000D03*
%TD*%
D16*
%TO.N,GNDREF*%
X75700000Y-83500000D03*
X72900000Y-92700000D03*
X71700000Y-80800000D03*
X72900000Y-80800000D03*
X96300000Y-107700000D03*
X101100000Y-102550000D03*
X94000000Y-98400000D03*
X94000000Y-99900000D03*
X94000000Y-101200000D03*
X76800000Y-79400000D03*
X97100000Y-77400000D03*
X97100000Y-76600000D03*
X96416000Y-85740000D03*
X97432000Y-85232000D03*
X98600000Y-93250000D03*
D17*
%TO.N,/T_SWCLK*%
X84600000Y-102100000D03*
D16*
%TO.N,GNDREF*%
X96200000Y-80300000D03*
X100000000Y-93250000D03*
X100500000Y-76000000D03*
X99000000Y-76000000D03*
X71600000Y-92700000D03*
X95000000Y-67250000D03*
X95000000Y-65500000D03*
X95000000Y-63750000D03*
X95000000Y-62000000D03*
X77000000Y-67250000D03*
X77000000Y-65500000D03*
X77000000Y-63750000D03*
X77000000Y-62000000D03*
X75250000Y-74250000D03*
X74250000Y-75250000D03*
D17*
%TO.N,/UART_Tx*%
X75000000Y-73000000D03*
X76750000Y-82500000D03*
D16*
%TO.N,GNDREF*%
X76750000Y-77500000D03*
X97500000Y-91250000D03*
X97000000Y-100500000D03*
X71750000Y-107000000D03*
X75464286Y-105500000D03*
X73678572Y-105500000D03*
X77250000Y-105500000D03*
X93750000Y-102500000D03*
X90178572Y-102500000D03*
X91964286Y-102500000D03*
X83250000Y-92750000D03*
X79678572Y-92750000D03*
X81464286Y-92750000D03*
X77892858Y-92750000D03*
X85928572Y-77250000D03*
X87714286Y-77250000D03*
X84142858Y-77250000D03*
X86714286Y-75500000D03*
X88500000Y-75500000D03*
X84928572Y-75500000D03*
X85928572Y-73750000D03*
X87714286Y-73750000D03*
X84142858Y-73750000D03*
X86714286Y-72000000D03*
X88500000Y-72000000D03*
X84928572Y-72000000D03*
X85928572Y-70250000D03*
X87714286Y-70250000D03*
X84142858Y-70250000D03*
X90000000Y-67250000D03*
X92500000Y-67250000D03*
X85000000Y-67250000D03*
X87500000Y-67250000D03*
X80000000Y-67250000D03*
X82500000Y-67250000D03*
X90000000Y-65500000D03*
X92500000Y-65500000D03*
X85000000Y-65500000D03*
X87500000Y-65500000D03*
X80000000Y-65500000D03*
X82500000Y-65500000D03*
X90000000Y-63750000D03*
X92500000Y-63750000D03*
X85000000Y-63750000D03*
X87500000Y-63750000D03*
X80000000Y-63750000D03*
X82500000Y-63750000D03*
X90000000Y-62000000D03*
X87500000Y-62000000D03*
X85000000Y-62000000D03*
X82500000Y-62000000D03*
X92500000Y-62000000D03*
X80000000Y-62000000D03*
D17*
%TO.N,/5V*%
X94700000Y-107600000D03*
%TO.N,/T_SWO*%
X75824500Y-78500000D03*
%TO.N,/T_GND*%
X74974500Y-79250000D03*
X76900000Y-102775500D03*
%TO.N,/T_SWDIO*%
X76100000Y-103500000D03*
X74250000Y-80000000D03*
%TO.N,/T_SWCLK*%
X76400000Y-85700000D03*
%TO.N,/T_NRST*%
X93300000Y-107250000D03*
X96000000Y-75380000D03*
%TO.N,/T_VCC*%
X95199989Y-76360000D03*
%TO.N,/SPI_NSS*%
X77250000Y-86500000D03*
%TO.N,/SPI_CLK*%
X80750000Y-74000000D03*
%TO.N,/UART_Rx*%
X76750000Y-70000000D03*
%TO.N,Net-(R1-Pad1)*%
X96340000Y-82610000D03*
%TD*%
D18*
%TO.N,/T_SWCLK*%
X76400000Y-85700000D02*
X76400000Y-100200000D01*
X76400000Y-100200000D02*
X78300000Y-102100000D01*
X78300000Y-102100000D02*
X84600000Y-102100000D01*
%TO.N,/T_SWDIO*%
X74250000Y-80000000D02*
X74000000Y-80250000D01*
X74000000Y-86946000D02*
X74942960Y-87888960D01*
X74942960Y-87888960D02*
X74942960Y-102342960D01*
X74942960Y-102342960D02*
X76100000Y-103500000D01*
X74000000Y-80250000D02*
X74000000Y-86946000D01*
%TO.N,/T_SWO*%
X75824500Y-78500000D02*
X75824500Y-79599520D01*
X75824500Y-79599520D02*
X75424020Y-80000000D01*
X74899040Y-86321040D02*
X75842000Y-87264000D01*
X75424020Y-80000000D02*
X75424020Y-80750020D01*
X75424020Y-80750020D02*
X74899040Y-81275000D01*
X79650000Y-104280000D02*
X79650000Y-105273000D01*
X74899040Y-81275000D02*
X74899040Y-86321040D01*
X75842000Y-87264000D02*
X75842000Y-100472000D01*
X75842000Y-100472000D02*
X79650000Y-104280000D01*
%TO.N,/T_GND*%
X74974500Y-79250000D02*
X74974500Y-80525500D01*
X75392480Y-87576480D02*
X75392480Y-101267980D01*
X74974500Y-80525500D02*
X74449520Y-81050480D01*
X74449520Y-81050480D02*
X74449520Y-86633520D01*
X74449520Y-86633520D02*
X75392480Y-87576480D01*
X75392480Y-101267980D02*
X76900000Y-102775500D01*
%TO.N,/T_VCC*%
X92350000Y-105527000D02*
X93723000Y-105527000D01*
X93723000Y-105527000D02*
X94970000Y-104280000D01*
X94970000Y-104280000D02*
X94970000Y-76920000D01*
X94970000Y-76920000D02*
X95199989Y-76690011D01*
X95199989Y-76690011D02*
X95199989Y-76360000D01*
%TO.N,/UART_Rx*%
X76750000Y-70000000D02*
X75000000Y-70000000D01*
X75000000Y-70000000D02*
X73500000Y-71500000D01*
X73500000Y-71500000D02*
X73500000Y-74500000D01*
X73500000Y-74500000D02*
X72000000Y-76000000D01*
X72000000Y-76000000D02*
X72000000Y-76260000D01*
%TO.N,/UART_Tx*%
X77250000Y-73000000D02*
X78250000Y-74000000D01*
X75000000Y-73000000D02*
X77250000Y-73000000D01*
X78250000Y-80500000D02*
X76750000Y-82000000D01*
X78250000Y-74000000D02*
X78250000Y-80500000D01*
X76750000Y-82000000D02*
X76750000Y-82500000D01*
D19*
%TO.N,/5V*%
X99800000Y-78380000D02*
X101400000Y-79980000D01*
X101400000Y-79980000D02*
X101400000Y-101100000D01*
X97900000Y-101900000D02*
X96200000Y-103600000D01*
X101400000Y-101100000D02*
X100600000Y-101900000D01*
X96200000Y-106100000D02*
X94700000Y-107600000D01*
X100600000Y-101900000D02*
X97900000Y-101900000D01*
X96200000Y-103600000D02*
X96200000Y-106100000D01*
X72000000Y-102420000D02*
X71320000Y-102420000D01*
X70500000Y-86600000D02*
X71580000Y-85520000D01*
X71320000Y-102420000D02*
X70500000Y-101600000D01*
X70500000Y-101600000D02*
X70500000Y-86600000D01*
X71580000Y-85520000D02*
X72000000Y-85520000D01*
D18*
X99800000Y-78380000D02*
X98400000Y-79780000D01*
X98400000Y-79780000D02*
X98400000Y-80225000D01*
X98400000Y-80225000D02*
X97730000Y-80895000D01*
%TO.N,/T_NRST*%
X95805000Y-76985000D02*
X95480000Y-77310000D01*
X95480000Y-105070000D02*
X93300000Y-107250000D01*
X95480000Y-77310000D02*
X95480000Y-105070000D01*
X96000000Y-76790000D02*
X95805000Y-76985000D01*
X95805000Y-76985000D02*
X95649509Y-77140491D01*
X96000000Y-75380000D02*
X96000000Y-76790000D01*
%TO.N,Net-(R1-Pad1)*%
X96340000Y-82610000D02*
X97665000Y-82610000D01*
X97665000Y-82610000D02*
X97730000Y-82545000D01*
%TO.N,/SPI_NSS*%
X99800000Y-71140000D02*
X99690000Y-71250000D01*
X99690000Y-71250000D02*
X99000000Y-71250000D01*
X99000000Y-71250000D02*
X94475489Y-75774511D01*
X94475489Y-75774511D02*
X94475489Y-89884511D01*
X94475489Y-89884511D02*
X93610000Y-90750000D01*
X78750000Y-91500000D02*
X77250000Y-90000000D01*
X77250000Y-90000000D02*
X77250000Y-86500000D01*
X93610000Y-90750000D02*
X92500000Y-90750000D01*
X92500000Y-90750000D02*
X91750000Y-91500000D01*
X91750000Y-91500000D02*
X78750000Y-91500000D01*
%TO.N,/SPI_CLK*%
X80750000Y-74000000D02*
X80750000Y-69364283D01*
X80750000Y-69364283D02*
X81514283Y-68600000D01*
X81514283Y-68600000D02*
X99800000Y-68600000D01*
D20*
%TO.N,/T_GND*%
X87270000Y-105400000D02*
X87270000Y-107645000D01*
D18*
X87270000Y-107645000D02*
X87275000Y-107650000D01*
%TD*%
%TA.AperFunction,Conductor*%
%TO.N,GNDREF*%
G36*
X101409532Y-102196604D02*
G01*
X101466368Y-102239151D01*
X101491179Y-102305671D01*
X101491500Y-102314660D01*
X101491500Y-105550633D01*
X101490000Y-105570018D01*
X101487690Y-105584851D01*
X101487690Y-105584855D01*
X101486309Y-105593724D01*
X101488558Y-105610919D01*
X101489391Y-105634863D01*
X101473794Y-105892710D01*
X101471960Y-105907814D01*
X101467044Y-105934639D01*
X101426390Y-106156489D01*
X101420477Y-106188754D01*
X101416836Y-106203526D01*
X101336758Y-106460507D01*
X101331859Y-106476227D01*
X101326466Y-106490445D01*
X101252428Y-106654953D01*
X101209243Y-106750906D01*
X101202172Y-106764379D01*
X101054405Y-107008813D01*
X101045762Y-107021334D01*
X100993102Y-107088550D01*
X100871759Y-107243435D01*
X100869615Y-107246171D01*
X100859525Y-107257560D01*
X100657560Y-107459525D01*
X100646171Y-107469615D01*
X100421334Y-107645762D01*
X100408813Y-107654405D01*
X100164379Y-107802172D01*
X100150908Y-107809242D01*
X99890445Y-107926466D01*
X99876231Y-107931858D01*
X99607330Y-108015651D01*
X99603527Y-108016836D01*
X99588760Y-108020475D01*
X99400025Y-108055062D01*
X99307814Y-108071960D01*
X99292710Y-108073794D01*
X99042096Y-108088953D01*
X99015284Y-108087692D01*
X99015148Y-108087690D01*
X99006276Y-108086309D01*
X98997374Y-108087473D01*
X98997372Y-108087473D01*
X98982323Y-108089441D01*
X98974714Y-108090436D01*
X98958379Y-108091500D01*
X95668979Y-108091500D01*
X95600858Y-108071498D01*
X95554365Y-108017842D01*
X95544261Y-107947568D01*
X95549146Y-107926564D01*
X95591502Y-107796207D01*
X95591502Y-107796205D01*
X95593542Y-107789928D01*
X95598450Y-107743230D01*
X95625463Y-107677573D01*
X95634665Y-107667305D01*
X96149391Y-107152580D01*
X96680528Y-106621443D01*
X96686793Y-106615589D01*
X96724664Y-106582552D01*
X96724665Y-106582551D01*
X96730385Y-106577561D01*
X96767136Y-106525271D01*
X96771028Y-106520029D01*
X96810476Y-106469718D01*
X96813600Y-106462799D01*
X96814988Y-106460507D01*
X96823357Y-106445835D01*
X96824622Y-106443475D01*
X96828990Y-106437261D01*
X96838879Y-106411897D01*
X96882261Y-106355696D01*
X96949140Y-106331870D01*
X97018284Y-106347984D01*
X97068836Y-106401053D01*
X97120734Y-106504240D01*
X97160377Y-106583062D01*
X97164022Y-106590310D01*
X97166448Y-106593839D01*
X97166451Y-106593845D01*
X97206341Y-106651885D01*
X97322997Y-106821620D01*
X97511894Y-107029215D01*
X97515183Y-107031965D01*
X97723925Y-107206501D01*
X97723930Y-107206505D01*
X97727217Y-107209253D01*
X97794711Y-107251592D01*
X97961341Y-107356119D01*
X97961345Y-107356121D01*
X97964981Y-107358402D01*
X98220788Y-107473903D01*
X98224907Y-107475123D01*
X98485790Y-107552401D01*
X98485795Y-107552402D01*
X98489903Y-107553619D01*
X98494137Y-107554267D01*
X98494142Y-107554268D01*
X98733071Y-107590829D01*
X98767347Y-107596074D01*
X98910292Y-107598319D01*
X99043694Y-107600415D01*
X99043700Y-107600415D01*
X99047985Y-107600482D01*
X99326626Y-107566763D01*
X99598112Y-107495540D01*
X99602072Y-107493900D01*
X99602077Y-107493898D01*
X99748216Y-107433365D01*
X99857420Y-107388131D01*
X99867139Y-107382452D01*
X100096054Y-107248685D01*
X100096055Y-107248685D01*
X100099752Y-107246524D01*
X100320624Y-107073338D01*
X100515948Y-106871779D01*
X100518481Y-106868331D01*
X100518485Y-106868326D01*
X100679572Y-106649032D01*
X100682110Y-106645577D01*
X100690084Y-106630891D01*
X100813986Y-106402692D01*
X100813987Y-106402690D01*
X100816036Y-106398916D01*
X100887095Y-106210865D01*
X100913729Y-106140380D01*
X100913730Y-106140376D01*
X100915247Y-106136362D01*
X100967591Y-105907814D01*
X100976949Y-105866957D01*
X100976950Y-105866953D01*
X100977907Y-105862773D01*
X100986121Y-105770743D01*
X101002637Y-105585677D01*
X101002637Y-105585675D01*
X101002857Y-105583211D01*
X101003310Y-105540000D01*
X100984220Y-105259977D01*
X100927303Y-104985135D01*
X100833612Y-104720561D01*
X100823401Y-104700776D01*
X100706847Y-104474957D01*
X100706847Y-104474956D01*
X100704882Y-104471150D01*
X100662886Y-104411395D01*
X100599298Y-104320919D01*
X100543493Y-104241517D01*
X100449900Y-104140799D01*
X100355354Y-104039055D01*
X100355351Y-104039052D01*
X100352433Y-104035912D01*
X100135237Y-103858139D01*
X99895923Y-103711487D01*
X99873348Y-103701577D01*
X99642853Y-103600397D01*
X99638921Y-103598671D01*
X99619519Y-103593144D01*
X99373114Y-103522954D01*
X99373115Y-103522954D01*
X99368986Y-103521778D01*
X99163217Y-103492493D01*
X99095365Y-103482836D01*
X99095363Y-103482836D01*
X99091113Y-103482231D01*
X99086824Y-103482209D01*
X99086817Y-103482208D01*
X98814730Y-103480783D01*
X98814723Y-103480783D01*
X98810444Y-103480761D01*
X98806199Y-103481320D01*
X98806197Y-103481320D01*
X98742813Y-103489665D01*
X98532172Y-103517397D01*
X98261446Y-103591459D01*
X98003277Y-103701577D01*
X97884717Y-103772534D01*
X97766123Y-103843511D01*
X97766119Y-103843514D01*
X97762441Y-103845715D01*
X97543395Y-104021204D01*
X97540451Y-104024306D01*
X97540447Y-104024310D01*
X97394573Y-104178029D01*
X97350192Y-104224797D01*
X97186408Y-104452727D01*
X97184405Y-104456511D01*
X97184397Y-104456523D01*
X97145854Y-104529318D01*
X97096301Y-104580161D01*
X97027127Y-104596143D01*
X96960293Y-104572189D01*
X96917020Y-104515905D01*
X96908500Y-104470359D01*
X96908500Y-103945660D01*
X96928502Y-103877539D01*
X96945405Y-103856565D01*
X98156565Y-102645405D01*
X98218877Y-102611379D01*
X98245660Y-102608500D01*
X100571088Y-102608500D01*
X100579658Y-102608792D01*
X100629776Y-102612209D01*
X100629780Y-102612209D01*
X100637352Y-102612725D01*
X100644829Y-102611420D01*
X100644830Y-102611420D01*
X100690914Y-102603377D01*
X100700303Y-102601738D01*
X100706821Y-102600777D01*
X100770242Y-102593102D01*
X100777343Y-102590419D01*
X100779952Y-102589778D01*
X100796262Y-102585315D01*
X100798798Y-102584550D01*
X100806284Y-102583243D01*
X100864800Y-102557556D01*
X100870904Y-102555065D01*
X100923548Y-102535173D01*
X100923549Y-102535172D01*
X100930656Y-102532487D01*
X100936919Y-102528183D01*
X100939285Y-102526946D01*
X100954097Y-102518701D01*
X100956351Y-102517368D01*
X100963305Y-102514315D01*
X101014002Y-102475413D01*
X101019332Y-102471541D01*
X101065720Y-102439661D01*
X101065725Y-102439656D01*
X101071981Y-102435357D01*
X101082666Y-102423365D01*
X101113435Y-102388830D01*
X101118416Y-102383554D01*
X101276405Y-102225565D01*
X101338717Y-102191539D01*
X101409532Y-102196604D01*
G37*
%TD.AperFunction*%
%TA.AperFunction,Conductor*%
G36*
X73557304Y-87419473D02*
G01*
X73608701Y-87450606D01*
X74272555Y-88114460D01*
X74306581Y-88176772D01*
X74309460Y-88203555D01*
X74309460Y-102264193D01*
X74308933Y-102275376D01*
X74307258Y-102282869D01*
X74307507Y-102290795D01*
X74307507Y-102290796D01*
X74309398Y-102350946D01*
X74309460Y-102354905D01*
X74309460Y-102382816D01*
X74309957Y-102386750D01*
X74309957Y-102386751D01*
X74309965Y-102386816D01*
X74310898Y-102398653D01*
X74312287Y-102442849D01*
X74316064Y-102455849D01*
X74317938Y-102462299D01*
X74321947Y-102481660D01*
X74324486Y-102501757D01*
X74327405Y-102509128D01*
X74327405Y-102509130D01*
X74340764Y-102542872D01*
X74344609Y-102554102D01*
X74356942Y-102596553D01*
X74360975Y-102603372D01*
X74360977Y-102603377D01*
X74367253Y-102613988D01*
X74375948Y-102631736D01*
X74383408Y-102650577D01*
X74388070Y-102656993D01*
X74388070Y-102656994D01*
X74409396Y-102686347D01*
X74415912Y-102696267D01*
X74425822Y-102713023D01*
X74438418Y-102734322D01*
X74452739Y-102748643D01*
X74465579Y-102763676D01*
X74477488Y-102780067D01*
X74483594Y-102785118D01*
X74511565Y-102808258D01*
X74520344Y-102816248D01*
X75152878Y-103448782D01*
X75186904Y-103511094D01*
X75189092Y-103524703D01*
X75193090Y-103562737D01*
X75202386Y-103651181D01*
X75206458Y-103689928D01*
X75265473Y-103871556D01*
X75268776Y-103877278D01*
X75268777Y-103877279D01*
X75300261Y-103931811D01*
X75360960Y-104036944D01*
X75365378Y-104041851D01*
X75365379Y-104041852D01*
X75481484Y-104170800D01*
X75488747Y-104178866D01*
X75554151Y-104226385D01*
X75632953Y-104283638D01*
X75643248Y-104291118D01*
X75649276Y-104293802D01*
X75649278Y-104293803D01*
X75778862Y-104351497D01*
X75817712Y-104368794D01*
X75911113Y-104388647D01*
X75998056Y-104407128D01*
X75998061Y-104407128D01*
X76004513Y-104408500D01*
X76195487Y-104408500D01*
X76201939Y-104407128D01*
X76201944Y-104407128D01*
X76288887Y-104388647D01*
X76382288Y-104368794D01*
X76421138Y-104351497D01*
X76550722Y-104293803D01*
X76550724Y-104293802D01*
X76556752Y-104291118D01*
X76567048Y-104283638D01*
X76645849Y-104226385D01*
X76711253Y-104178866D01*
X76718516Y-104170800D01*
X76834621Y-104041852D01*
X76834622Y-104041851D01*
X76839040Y-104036944D01*
X76899739Y-103931811D01*
X76931223Y-103877279D01*
X76931224Y-103877278D01*
X76934527Y-103871556D01*
X76963706Y-103781753D01*
X76972987Y-103753190D01*
X77013061Y-103694585D01*
X77066622Y-103668881D01*
X77175824Y-103645669D01*
X77175833Y-103645666D01*
X77182288Y-103644294D01*
X77280883Y-103600397D01*
X77350722Y-103569303D01*
X77350724Y-103569302D01*
X77356752Y-103566618D01*
X77511253Y-103454366D01*
X77620081Y-103333500D01*
X77680527Y-103296261D01*
X77751511Y-103297613D01*
X77802812Y-103328716D01*
X78649447Y-104175351D01*
X78683473Y-104237663D01*
X78678408Y-104308478D01*
X78651446Y-104351497D01*
X78611328Y-104393478D01*
X78590629Y-104415138D01*
X78464743Y-104599680D01*
X78432793Y-104668510D01*
X78373672Y-104795877D01*
X78370688Y-104802305D01*
X78310989Y-105017570D01*
X78287251Y-105239695D01*
X78300110Y-105462715D01*
X78301247Y-105467761D01*
X78301248Y-105467767D01*
X78314250Y-105525458D01*
X78349222Y-105680639D01*
X78368458Y-105728011D01*
X78425866Y-105869391D01*
X78433266Y-105887616D01*
X78435965Y-105892020D01*
X78535947Y-106055176D01*
X78549987Y-106078088D01*
X78696250Y-106246938D01*
X78868126Y-106389632D01*
X79061000Y-106502338D01*
X79065825Y-106504180D01*
X79065826Y-106504181D01*
X79096861Y-106516032D01*
X79269692Y-106582030D01*
X79274760Y-106583061D01*
X79274763Y-106583062D01*
X79327764Y-106593845D01*
X79488597Y-106626567D01*
X79493772Y-106626757D01*
X79493774Y-106626757D01*
X79706673Y-106634564D01*
X79706677Y-106634564D01*
X79711837Y-106634753D01*
X79716957Y-106634097D01*
X79716959Y-106634097D01*
X79928288Y-106607025D01*
X79928289Y-106607025D01*
X79933416Y-106606368D01*
X79986940Y-106590310D01*
X80142429Y-106543661D01*
X80142434Y-106543659D01*
X80147384Y-106542174D01*
X80347994Y-106443896D01*
X80529860Y-106314173D01*
X80566671Y-106277491D01*
X80684435Y-106160137D01*
X80688096Y-106156489D01*
X80698783Y-106141616D01*
X80740970Y-106082908D01*
X80796965Y-106039261D01*
X80867668Y-106032815D01*
X80930632Y-106065618D01*
X80960035Y-106109032D01*
X80973266Y-106141616D01*
X81006749Y-106196255D01*
X81079009Y-106314173D01*
X81089987Y-106332088D01*
X81236250Y-106500938D01*
X81328543Y-106577561D01*
X81397204Y-106634564D01*
X81408126Y-106643632D01*
X81601000Y-106756338D01*
X81809692Y-106836030D01*
X81814760Y-106837061D01*
X81814763Y-106837062D01*
X81922017Y-106858883D01*
X82028597Y-106880567D01*
X82033772Y-106880757D01*
X82033774Y-106880757D01*
X82246673Y-106888564D01*
X82246677Y-106888564D01*
X82251837Y-106888753D01*
X82256957Y-106888097D01*
X82256959Y-106888097D01*
X82468288Y-106861025D01*
X82468289Y-106861025D01*
X82473416Y-106860368D01*
X82478366Y-106858883D01*
X82682429Y-106797661D01*
X82682434Y-106797659D01*
X82687384Y-106796174D01*
X82887994Y-106697896D01*
X83069860Y-106568173D01*
X83080868Y-106557204D01*
X83177903Y-106460507D01*
X83228096Y-106410489D01*
X83287594Y-106327689D01*
X83355435Y-106233277D01*
X83358453Y-106229077D01*
X83396404Y-106152289D01*
X83420660Y-106103211D01*
X83468774Y-106051004D01*
X83537475Y-106033097D01*
X83604951Y-106055176D01*
X83629234Y-106078740D01*
X83629987Y-106078088D01*
X83776250Y-106246938D01*
X83948126Y-106389632D01*
X84141000Y-106502338D01*
X84145825Y-106504180D01*
X84145826Y-106504181D01*
X84176861Y-106516032D01*
X84349692Y-106582030D01*
X84354760Y-106583061D01*
X84354763Y-106583062D01*
X84407764Y-106593845D01*
X84568597Y-106626567D01*
X84573772Y-106626757D01*
X84573774Y-106626757D01*
X84786673Y-106634564D01*
X84786677Y-106634564D01*
X84791837Y-106634753D01*
X84796957Y-106634097D01*
X84796959Y-106634097D01*
X85008288Y-106607025D01*
X85008289Y-106607025D01*
X85013416Y-106606368D01*
X85066940Y-106590310D01*
X85222429Y-106543661D01*
X85222434Y-106543659D01*
X85227384Y-106542174D01*
X85427994Y-106443896D01*
X85609860Y-106314173D01*
X85646671Y-106277491D01*
X85764435Y-106160137D01*
X85768096Y-106156489D01*
X85778783Y-106141616D01*
X85820970Y-106082908D01*
X85876965Y-106039261D01*
X85947668Y-106032815D01*
X86010632Y-106065618D01*
X86040035Y-106109032D01*
X86053266Y-106141616D01*
X86086749Y-106196255D01*
X86159009Y-106314173D01*
X86169987Y-106332088D01*
X86316250Y-106500938D01*
X86461987Y-106621931D01*
X86501620Y-106680831D01*
X86507500Y-106718873D01*
X86507500Y-106909118D01*
X86489276Y-106974388D01*
X86424528Y-107081301D01*
X86422256Y-107088550D01*
X86419131Y-107095472D01*
X86416766Y-107094404D01*
X86384201Y-107143131D01*
X86319101Y-107171460D01*
X86249020Y-107160097D01*
X86202060Y-107121301D01*
X86155245Y-107057919D01*
X86142078Y-107044752D01*
X86047420Y-106974837D01*
X86030951Y-106966116D01*
X85918277Y-106926548D01*
X85903386Y-106923281D01*
X85892765Y-106922277D01*
X85881876Y-106925475D01*
X85880671Y-106926865D01*
X85879000Y-106934548D01*
X85879000Y-107778000D01*
X85858998Y-107846121D01*
X85805342Y-107892614D01*
X85753000Y-107904000D01*
X84989116Y-107904000D01*
X84973877Y-107908475D01*
X84972672Y-107909865D01*
X84971001Y-107917548D01*
X84971001Y-107965500D01*
X84950999Y-108033621D01*
X84897343Y-108080114D01*
X84845001Y-108091500D01*
X73044322Y-108091500D01*
X73026920Y-108090293D01*
X73024755Y-108089991D01*
X73016063Y-108088779D01*
X73006985Y-108087513D01*
X73006984Y-108087513D01*
X72998099Y-108086274D01*
X72989220Y-108087579D01*
X72989218Y-108087579D01*
X72981053Y-108088779D01*
X72957050Y-108089991D01*
X72767787Y-108081451D01*
X72701808Y-108078474D01*
X72686529Y-108076847D01*
X72407765Y-108029822D01*
X72392798Y-108026347D01*
X72121829Y-107945741D01*
X72107397Y-107940470D01*
X71848268Y-107827488D01*
X71834584Y-107820500D01*
X71591117Y-107676807D01*
X71578385Y-107668205D01*
X71555299Y-107650464D01*
X71354226Y-107495951D01*
X71342636Y-107485863D01*
X71295944Y-107439928D01*
X71232878Y-107377885D01*
X84971000Y-107377885D01*
X84975475Y-107393124D01*
X84976865Y-107394329D01*
X84984548Y-107396000D01*
X85352885Y-107396000D01*
X85368124Y-107391525D01*
X85369329Y-107390135D01*
X85371000Y-107382452D01*
X85371000Y-106939116D01*
X85366525Y-106923877D01*
X85365135Y-106922672D01*
X85361479Y-106921877D01*
X85346618Y-106923281D01*
X85331720Y-106926549D01*
X85219049Y-106966116D01*
X85202580Y-106974837D01*
X85107922Y-107044752D01*
X85094752Y-107057922D01*
X85024837Y-107152580D01*
X85016116Y-107169049D01*
X84976548Y-107281723D01*
X84973281Y-107296614D01*
X84971279Y-107317799D01*
X84971000Y-107323713D01*
X84971000Y-107377885D01*
X71232878Y-107377885D01*
X71141102Y-107287597D01*
X71130840Y-107276189D01*
X70986361Y-107094404D01*
X70954940Y-107054869D01*
X70946131Y-107042281D01*
X70925633Y-107008813D01*
X70798474Y-106801194D01*
X70791267Y-106787632D01*
X70674059Y-106530376D01*
X70668553Y-106516032D01*
X70583529Y-106246422D01*
X70579810Y-106231513D01*
X70550588Y-106074024D01*
X70528234Y-105953552D01*
X70526358Y-105938309D01*
X70526133Y-105934639D01*
X70511106Y-105690395D01*
X70512307Y-105664459D01*
X70512317Y-105663601D01*
X70513694Y-105654733D01*
X70509571Y-105623309D01*
X70508500Y-105606918D01*
X70508500Y-103240247D01*
X70528502Y-103172126D01*
X70582158Y-103125633D01*
X70652432Y-103115529D01*
X70717012Y-103145023D01*
X70741933Y-103174413D01*
X70770287Y-103220683D01*
X70770291Y-103220688D01*
X70772987Y-103225088D01*
X70919250Y-103393938D01*
X71091126Y-103536632D01*
X71284000Y-103649338D01*
X71492692Y-103729030D01*
X71497760Y-103730061D01*
X71497763Y-103730062D01*
X71605017Y-103751883D01*
X71711597Y-103773567D01*
X71716772Y-103773757D01*
X71716774Y-103773757D01*
X71929673Y-103781564D01*
X71929677Y-103781564D01*
X71934837Y-103781753D01*
X71939957Y-103781097D01*
X71939959Y-103781097D01*
X72151288Y-103754025D01*
X72151289Y-103754025D01*
X72156416Y-103753368D01*
X72161366Y-103751883D01*
X72365429Y-103690661D01*
X72365434Y-103690659D01*
X72370384Y-103689174D01*
X72570994Y-103590896D01*
X72752860Y-103461173D01*
X72765295Y-103448782D01*
X72885781Y-103328716D01*
X72911096Y-103303489D01*
X73041453Y-103122077D01*
X73140430Y-102921811D01*
X73197546Y-102733821D01*
X73203865Y-102713023D01*
X73203865Y-102713021D01*
X73205370Y-102708069D01*
X73234529Y-102486590D01*
X73234611Y-102483240D01*
X73236074Y-102423365D01*
X73236074Y-102423361D01*
X73236156Y-102420000D01*
X73217852Y-102197361D01*
X73163431Y-101980702D01*
X73074354Y-101775840D01*
X72953014Y-101588277D01*
X72802670Y-101423051D01*
X72798619Y-101419852D01*
X72798615Y-101419848D01*
X72682896Y-101328459D01*
X72677411Y-101324127D01*
X72636349Y-101266211D01*
X72633117Y-101195288D01*
X72668742Y-101133876D01*
X72700070Y-101112096D01*
X72824994Y-101050896D01*
X73006860Y-100921173D01*
X73165096Y-100763489D01*
X73295453Y-100582077D01*
X73394430Y-100381811D01*
X73459370Y-100168069D01*
X73488529Y-99946590D01*
X73490156Y-99880000D01*
X73471852Y-99657361D01*
X73417431Y-99440702D01*
X73328354Y-99235840D01*
X73273797Y-99151507D01*
X73209822Y-99052617D01*
X73209820Y-99052614D01*
X73207014Y-99048277D01*
X73056670Y-98883051D01*
X73052619Y-98879852D01*
X73052615Y-98879848D01*
X72885414Y-98747800D01*
X72885410Y-98747798D01*
X72881359Y-98744598D01*
X72696868Y-98642754D01*
X72646898Y-98592321D01*
X72632126Y-98522878D01*
X72657242Y-98456473D01*
X72684593Y-98429867D01*
X72752860Y-98381173D01*
X72911096Y-98223489D01*
X73041453Y-98042077D01*
X73140430Y-97841811D01*
X73205370Y-97628069D01*
X73234529Y-97406590D01*
X73236156Y-97340000D01*
X73217852Y-97117361D01*
X73163431Y-96900702D01*
X73074354Y-96695840D01*
X72961658Y-96521638D01*
X72955822Y-96512617D01*
X72955820Y-96512614D01*
X72953014Y-96508277D01*
X72802670Y-96343051D01*
X72798619Y-96339852D01*
X72798615Y-96339848D01*
X72631414Y-96207800D01*
X72631410Y-96207798D01*
X72627359Y-96204598D01*
X72510897Y-96140308D01*
X72460927Y-96089875D01*
X72446155Y-96020432D01*
X72471271Y-95954027D01*
X72528302Y-95911742D01*
X72571791Y-95903999D01*
X72995828Y-95903999D01*
X73008088Y-95902791D01*
X73063931Y-95891685D01*
X73086427Y-95882367D01*
X73149808Y-95840017D01*
X73167017Y-95822808D01*
X73209368Y-95759425D01*
X73218684Y-95736934D01*
X73229793Y-95681085D01*
X73231000Y-95668830D01*
X73231000Y-95072115D01*
X73226525Y-95056876D01*
X73225135Y-95055671D01*
X73217452Y-95054000D01*
X71999000Y-95054000D01*
X71930879Y-95033998D01*
X71884386Y-94980342D01*
X71873000Y-94928000D01*
X71873000Y-94527885D01*
X72381000Y-94527885D01*
X72385475Y-94543124D01*
X72386865Y-94544329D01*
X72394548Y-94546000D01*
X73212884Y-94546000D01*
X73228123Y-94541525D01*
X73229328Y-94540135D01*
X73230999Y-94532452D01*
X73230999Y-93931172D01*
X73229791Y-93918912D01*
X73218685Y-93863069D01*
X73209367Y-93840573D01*
X73167017Y-93777192D01*
X73149808Y-93759983D01*
X73086425Y-93717632D01*
X73063934Y-93708316D01*
X73008085Y-93697207D01*
X72995830Y-93696000D01*
X72399115Y-93696000D01*
X72383876Y-93700475D01*
X72382671Y-93701865D01*
X72381000Y-93709548D01*
X72381000Y-94527885D01*
X71873000Y-94527885D01*
X71873000Y-93714116D01*
X71868525Y-93698877D01*
X71867135Y-93697672D01*
X71859452Y-93696001D01*
X71334500Y-93696001D01*
X71266379Y-93675999D01*
X71219886Y-93622343D01*
X71208500Y-93570001D01*
X71208500Y-91830000D01*
X71228502Y-91761879D01*
X71282158Y-91715386D01*
X71334500Y-91704000D01*
X71600885Y-91704000D01*
X71616124Y-91699525D01*
X71617329Y-91698135D01*
X71619000Y-91690452D01*
X71619000Y-91685884D01*
X72127000Y-91685884D01*
X72131475Y-91701123D01*
X72132865Y-91702328D01*
X72140548Y-91703999D01*
X72741828Y-91703999D01*
X72754088Y-91702791D01*
X72809931Y-91691685D01*
X72832427Y-91682367D01*
X72895808Y-91640017D01*
X72913017Y-91622808D01*
X72955368Y-91559425D01*
X72964684Y-91536934D01*
X72975793Y-91481085D01*
X72977000Y-91468830D01*
X72977000Y-90872115D01*
X72972525Y-90856876D01*
X72971135Y-90855671D01*
X72963452Y-90854000D01*
X72145115Y-90854000D01*
X72129876Y-90858475D01*
X72128671Y-90859865D01*
X72127000Y-90867548D01*
X72127000Y-91685884D01*
X71619000Y-91685884D01*
X71619000Y-90472000D01*
X71639002Y-90403879D01*
X71692658Y-90357386D01*
X71745000Y-90346000D01*
X72958884Y-90346000D01*
X72974123Y-90341525D01*
X72975328Y-90340135D01*
X72976999Y-90332452D01*
X72976999Y-89731172D01*
X72975791Y-89718912D01*
X72964685Y-89663069D01*
X72955367Y-89640573D01*
X72913017Y-89577192D01*
X72895808Y-89559983D01*
X72832425Y-89517632D01*
X72809933Y-89508316D01*
X72783515Y-89503061D01*
X72720605Y-89470154D01*
X72685472Y-89408460D01*
X72689272Y-89337565D01*
X72730797Y-89279978D01*
X72752662Y-89266331D01*
X72789597Y-89248237D01*
X72824994Y-89230896D01*
X73006860Y-89101173D01*
X73165096Y-88943489D01*
X73295453Y-88762077D01*
X73308951Y-88734767D01*
X73392136Y-88566453D01*
X73392137Y-88566451D01*
X73394430Y-88561811D01*
X73459370Y-88348069D01*
X73488529Y-88126590D01*
X73488611Y-88123240D01*
X73490074Y-88063365D01*
X73490074Y-88063361D01*
X73490156Y-88060000D01*
X73471852Y-87837361D01*
X73417431Y-87620702D01*
X73404056Y-87589941D01*
X73395236Y-87519497D01*
X73425903Y-87455465D01*
X73486319Y-87418177D01*
X73557304Y-87419473D01*
G37*
%TD.AperFunction*%
%TA.AperFunction,Conductor*%
G36*
X77242012Y-90888370D02*
G01*
X77248595Y-90894499D01*
X78246343Y-91892247D01*
X78253887Y-91900537D01*
X78258000Y-91907018D01*
X78263777Y-91912443D01*
X78307667Y-91953658D01*
X78310509Y-91956413D01*
X78330230Y-91976134D01*
X78333425Y-91978612D01*
X78342447Y-91986318D01*
X78374679Y-92016586D01*
X78381628Y-92020406D01*
X78392432Y-92026346D01*
X78408956Y-92037199D01*
X78424959Y-92049613D01*
X78465543Y-92067176D01*
X78476173Y-92072383D01*
X78514940Y-92093695D01*
X78522617Y-92095666D01*
X78522622Y-92095668D01*
X78534558Y-92098732D01*
X78553266Y-92105137D01*
X78571855Y-92113181D01*
X78579680Y-92114420D01*
X78579682Y-92114421D01*
X78615519Y-92120097D01*
X78627140Y-92122504D01*
X78658959Y-92130673D01*
X78669970Y-92133500D01*
X78690231Y-92133500D01*
X78709940Y-92135051D01*
X78729943Y-92138219D01*
X78737835Y-92137473D01*
X78743062Y-92136979D01*
X78773954Y-92134059D01*
X78785811Y-92133500D01*
X91671233Y-92133500D01*
X91682416Y-92134027D01*
X91689909Y-92135702D01*
X91697835Y-92135453D01*
X91697836Y-92135453D01*
X91757986Y-92133562D01*
X91761945Y-92133500D01*
X91789856Y-92133500D01*
X91793791Y-92133003D01*
X91793856Y-92132995D01*
X91805693Y-92132062D01*
X91837951Y-92131048D01*
X91841970Y-92130922D01*
X91849889Y-92130673D01*
X91869343Y-92125021D01*
X91888700Y-92121013D01*
X91900930Y-92119468D01*
X91900931Y-92119468D01*
X91908797Y-92118474D01*
X91916168Y-92115555D01*
X91916170Y-92115555D01*
X91949912Y-92102196D01*
X91961142Y-92098351D01*
X91995983Y-92088229D01*
X91995984Y-92088229D01*
X92003593Y-92086018D01*
X92010412Y-92081985D01*
X92010417Y-92081983D01*
X92021028Y-92075707D01*
X92038776Y-92067012D01*
X92057617Y-92059552D01*
X92073910Y-92047715D01*
X92093387Y-92033564D01*
X92103307Y-92027048D01*
X92134535Y-92008580D01*
X92134538Y-92008578D01*
X92141362Y-92004542D01*
X92155683Y-91990221D01*
X92170717Y-91977380D01*
X92174382Y-91974717D01*
X92187107Y-91965472D01*
X92215298Y-91931395D01*
X92223288Y-91922616D01*
X92725499Y-91420405D01*
X92787811Y-91386379D01*
X92814594Y-91383500D01*
X93531233Y-91383500D01*
X93542416Y-91384027D01*
X93549909Y-91385702D01*
X93557835Y-91385453D01*
X93557836Y-91385453D01*
X93617986Y-91383562D01*
X93621945Y-91383500D01*
X93649856Y-91383500D01*
X93653791Y-91383003D01*
X93653856Y-91382995D01*
X93665693Y-91382062D01*
X93697951Y-91381048D01*
X93701970Y-91380922D01*
X93709889Y-91380673D01*
X93729343Y-91375021D01*
X93748700Y-91371013D01*
X93760930Y-91369468D01*
X93760931Y-91369468D01*
X93768797Y-91368474D01*
X93776168Y-91365555D01*
X93776170Y-91365555D01*
X93809912Y-91352196D01*
X93821142Y-91348351D01*
X93855983Y-91338229D01*
X93855984Y-91338229D01*
X93863593Y-91336018D01*
X93870412Y-91331985D01*
X93870417Y-91331983D01*
X93881028Y-91325707D01*
X93898776Y-91317012D01*
X93917617Y-91309552D01*
X93953387Y-91283564D01*
X93963307Y-91277048D01*
X93994535Y-91258580D01*
X93994538Y-91258578D01*
X94001362Y-91254542D01*
X94015683Y-91240221D01*
X94030717Y-91227380D01*
X94040694Y-91220131D01*
X94047107Y-91215472D01*
X94075298Y-91181395D01*
X94083288Y-91172616D01*
X94121405Y-91134499D01*
X94183717Y-91100473D01*
X94254532Y-91105538D01*
X94311368Y-91148085D01*
X94336179Y-91214605D01*
X94336500Y-91223594D01*
X94336500Y-103965405D01*
X94316498Y-104033526D01*
X94299595Y-104054500D01*
X93863484Y-104490611D01*
X93801172Y-104524637D01*
X93730357Y-104519572D01*
X93673521Y-104477025D01*
X93656406Y-104445743D01*
X93653767Y-104438702D01*
X93653766Y-104438700D01*
X93650615Y-104430295D01*
X93563261Y-104313739D01*
X93446705Y-104226385D01*
X93310316Y-104175255D01*
X93248134Y-104168500D01*
X91451866Y-104168500D01*
X91389684Y-104175255D01*
X91253295Y-104226385D01*
X91136739Y-104313739D01*
X91131358Y-104320919D01*
X91131357Y-104320920D01*
X91064316Y-104410372D01*
X91007456Y-104452887D01*
X90936638Y-104457912D01*
X90870297Y-104419607D01*
X90743152Y-104279876D01*
X90743142Y-104279867D01*
X90739670Y-104276051D01*
X90735619Y-104272852D01*
X90735615Y-104272848D01*
X90568414Y-104140800D01*
X90568410Y-104140798D01*
X90564359Y-104137598D01*
X90368789Y-104029638D01*
X90363920Y-104027914D01*
X90363916Y-104027912D01*
X90163087Y-103956795D01*
X90163083Y-103956794D01*
X90158212Y-103955069D01*
X90153119Y-103954162D01*
X90153116Y-103954161D01*
X89943373Y-103916800D01*
X89943367Y-103916799D01*
X89938284Y-103915894D01*
X89864452Y-103914992D01*
X89720081Y-103913228D01*
X89720079Y-103913228D01*
X89714911Y-103913165D01*
X89494091Y-103946955D01*
X89281756Y-104016357D01*
X89083607Y-104119507D01*
X89079474Y-104122610D01*
X89079471Y-104122612D01*
X88916436Y-104245022D01*
X88904965Y-104253635D01*
X88873905Y-104286137D01*
X88758284Y-104407128D01*
X88750629Y-104415138D01*
X88747715Y-104419410D01*
X88747714Y-104419411D01*
X88699145Y-104490611D01*
X88624743Y-104599680D01*
X88592502Y-104669138D01*
X88580236Y-104695563D01*
X88533412Y-104748930D01*
X88465169Y-104768511D01*
X88397173Y-104748088D01*
X88360158Y-104710957D01*
X88353571Y-104700776D01*
X88350014Y-104695277D01*
X88199670Y-104530051D01*
X88195619Y-104526852D01*
X88195615Y-104526848D01*
X88028414Y-104394800D01*
X88028410Y-104394798D01*
X88024359Y-104391598D01*
X87983050Y-104368794D01*
X87951716Y-104351497D01*
X87828789Y-104283638D01*
X87823920Y-104281914D01*
X87823916Y-104281912D01*
X87623087Y-104210795D01*
X87623083Y-104210794D01*
X87618212Y-104209069D01*
X87613119Y-104208162D01*
X87613116Y-104208161D01*
X87403373Y-104170800D01*
X87403367Y-104170799D01*
X87398284Y-104169894D01*
X87324452Y-104168992D01*
X87180081Y-104167228D01*
X87180079Y-104167228D01*
X87174911Y-104167165D01*
X86954091Y-104200955D01*
X86741756Y-104270357D01*
X86711443Y-104286137D01*
X86552661Y-104368794D01*
X86543607Y-104373507D01*
X86539474Y-104376610D01*
X86539471Y-104376612D01*
X86377098Y-104498525D01*
X86364965Y-104507635D01*
X86210629Y-104669138D01*
X86192604Y-104695563D01*
X86179395Y-104714926D01*
X86124484Y-104759928D01*
X86053959Y-104768099D01*
X85990212Y-104736845D01*
X85959758Y-104694164D01*
X85933419Y-104633590D01*
X85931354Y-104628840D01*
X85850934Y-104504530D01*
X85812822Y-104445617D01*
X85812820Y-104445614D01*
X85810014Y-104441277D01*
X85659670Y-104276051D01*
X85655619Y-104272852D01*
X85655615Y-104272848D01*
X85488414Y-104140800D01*
X85488410Y-104140798D01*
X85484359Y-104137598D01*
X85288789Y-104029638D01*
X85283920Y-104027914D01*
X85283916Y-104027912D01*
X85083087Y-103956795D01*
X85083083Y-103956794D01*
X85078212Y-103955069D01*
X85073119Y-103954162D01*
X85073116Y-103954161D01*
X84863373Y-103916800D01*
X84863367Y-103916799D01*
X84858284Y-103915894D01*
X84784452Y-103914992D01*
X84640081Y-103913228D01*
X84640079Y-103913228D01*
X84634911Y-103913165D01*
X84414091Y-103946955D01*
X84201756Y-104016357D01*
X84003607Y-104119507D01*
X83999474Y-104122610D01*
X83999471Y-104122612D01*
X83836436Y-104245022D01*
X83824965Y-104253635D01*
X83793905Y-104286137D01*
X83678284Y-104407128D01*
X83670629Y-104415138D01*
X83667715Y-104419410D01*
X83667714Y-104419411D01*
X83619145Y-104490611D01*
X83544743Y-104599680D01*
X83512502Y-104669138D01*
X83500236Y-104695563D01*
X83453412Y-104748930D01*
X83385169Y-104768511D01*
X83317173Y-104748088D01*
X83280158Y-104710957D01*
X83273571Y-104700776D01*
X83270014Y-104695277D01*
X83119670Y-104530051D01*
X83115619Y-104526852D01*
X83115615Y-104526848D01*
X82948414Y-104394800D01*
X82948410Y-104394798D01*
X82944359Y-104391598D01*
X82903050Y-104368794D01*
X82871716Y-104351497D01*
X82748789Y-104283638D01*
X82743920Y-104281914D01*
X82743916Y-104281912D01*
X82543087Y-104210795D01*
X82543083Y-104210794D01*
X82538212Y-104209069D01*
X82533119Y-104208162D01*
X82533116Y-104208161D01*
X82323373Y-104170800D01*
X82323367Y-104170799D01*
X82318284Y-104169894D01*
X82244452Y-104168992D01*
X82100081Y-104167228D01*
X82100079Y-104167228D01*
X82094911Y-104167165D01*
X81874091Y-104200955D01*
X81661756Y-104270357D01*
X81631443Y-104286137D01*
X81472661Y-104368794D01*
X81463607Y-104373507D01*
X81459474Y-104376610D01*
X81459471Y-104376612D01*
X81297098Y-104498525D01*
X81284965Y-104507635D01*
X81130629Y-104669138D01*
X81112604Y-104695563D01*
X81099395Y-104714926D01*
X81044484Y-104759928D01*
X80973959Y-104768099D01*
X80910212Y-104736845D01*
X80879758Y-104694164D01*
X80853419Y-104633590D01*
X80851354Y-104628840D01*
X80770934Y-104504530D01*
X80732822Y-104445617D01*
X80732820Y-104445614D01*
X80730014Y-104441277D01*
X80579670Y-104276051D01*
X80575619Y-104272852D01*
X80575615Y-104272848D01*
X80408412Y-104140799D01*
X80404359Y-104137598D01*
X80399840Y-104135104D01*
X80399835Y-104135100D01*
X80282127Y-104070122D01*
X80234564Y-104023948D01*
X80225705Y-104008967D01*
X80217010Y-103991218D01*
X80212472Y-103979756D01*
X80212469Y-103979751D01*
X80209552Y-103972383D01*
X80183573Y-103936625D01*
X80177057Y-103926707D01*
X80158575Y-103895457D01*
X80154542Y-103888637D01*
X80140218Y-103874313D01*
X80127376Y-103859278D01*
X80115472Y-103842893D01*
X80081406Y-103814711D01*
X80072627Y-103806722D01*
X79214500Y-102948595D01*
X79180474Y-102886283D01*
X79185539Y-102815468D01*
X79228086Y-102758632D01*
X79294606Y-102733821D01*
X79303595Y-102733500D01*
X83891800Y-102733500D01*
X83959921Y-102753502D01*
X83979147Y-102769843D01*
X83979420Y-102769540D01*
X83984332Y-102773963D01*
X83988747Y-102778866D01*
X84143248Y-102891118D01*
X84149276Y-102893802D01*
X84149278Y-102893803D01*
X84222612Y-102926453D01*
X84317712Y-102968794D01*
X84411112Y-102988647D01*
X84498056Y-103007128D01*
X84498061Y-103007128D01*
X84504513Y-103008500D01*
X84695487Y-103008500D01*
X84701939Y-103007128D01*
X84701944Y-103007128D01*
X84788888Y-102988647D01*
X84882288Y-102968794D01*
X84977388Y-102926453D01*
X85050722Y-102893803D01*
X85050724Y-102893802D01*
X85056752Y-102891118D01*
X85211253Y-102778866D01*
X85229472Y-102758632D01*
X85334621Y-102641852D01*
X85334622Y-102641851D01*
X85339040Y-102636944D01*
X85402548Y-102526946D01*
X85431223Y-102477279D01*
X85431224Y-102477278D01*
X85434527Y-102471556D01*
X85493542Y-102289928D01*
X85495001Y-102276053D01*
X85512814Y-102106565D01*
X85513504Y-102100000D01*
X85501493Y-101985720D01*
X85494232Y-101916635D01*
X85494232Y-101916633D01*
X85493542Y-101910072D01*
X85434527Y-101728444D01*
X85339040Y-101563056D01*
X85211253Y-101421134D01*
X85083697Y-101328459D01*
X85062094Y-101312763D01*
X85062093Y-101312762D01*
X85056752Y-101308882D01*
X85050724Y-101306198D01*
X85050722Y-101306197D01*
X84888319Y-101233891D01*
X84888318Y-101233891D01*
X84882288Y-101231206D01*
X84783567Y-101210222D01*
X84701944Y-101192872D01*
X84701939Y-101192872D01*
X84695487Y-101191500D01*
X84504513Y-101191500D01*
X84498061Y-101192872D01*
X84498056Y-101192872D01*
X84416433Y-101210222D01*
X84317712Y-101231206D01*
X84311682Y-101233891D01*
X84311681Y-101233891D01*
X84149278Y-101306197D01*
X84149276Y-101306198D01*
X84143248Y-101308882D01*
X84137907Y-101312762D01*
X84137906Y-101312763D01*
X84072424Y-101360339D01*
X83988747Y-101421134D01*
X83984332Y-101426037D01*
X83979420Y-101430460D01*
X83978295Y-101429211D01*
X83924986Y-101462051D01*
X83891800Y-101466500D01*
X78614594Y-101466500D01*
X78546473Y-101446498D01*
X78525499Y-101429595D01*
X77070405Y-99974500D01*
X77036379Y-99912188D01*
X77033500Y-99885405D01*
X77033500Y-90983594D01*
X77053502Y-90915473D01*
X77107158Y-90868980D01*
X77177432Y-90858876D01*
X77242012Y-90888370D01*
G37*
%TD.AperFunction*%
%TA.AperFunction,Conductor*%
G36*
X97038325Y-83320996D02*
G01*
X97112817Y-83366109D01*
X97161301Y-83395472D01*
X97168548Y-83397743D01*
X97168550Y-83397744D01*
X97202873Y-83408500D01*
X97324938Y-83446753D01*
X97398365Y-83453500D01*
X97401263Y-83453500D01*
X97730860Y-83453499D01*
X98061634Y-83453499D01*
X98064492Y-83453236D01*
X98064501Y-83453236D01*
X98100004Y-83449974D01*
X98135062Y-83446753D01*
X98199067Y-83426695D01*
X98291450Y-83397744D01*
X98291452Y-83397743D01*
X98298699Y-83395472D01*
X98368539Y-83353176D01*
X98374538Y-83349543D01*
X98443168Y-83331365D01*
X98510731Y-83353176D01*
X98555777Y-83408052D01*
X98565598Y-83450065D01*
X98577110Y-83649715D01*
X98578247Y-83654761D01*
X98578248Y-83654767D01*
X98584403Y-83682077D01*
X98626222Y-83867639D01*
X98710266Y-84074616D01*
X98826987Y-84265088D01*
X98973250Y-84433938D01*
X99145126Y-84576632D01*
X99338000Y-84689338D01*
X99342829Y-84691182D01*
X99367309Y-84700530D01*
X99423812Y-84743516D01*
X99448106Y-84810227D01*
X99432476Y-84879482D01*
X99381886Y-84929293D01*
X99365972Y-84936452D01*
X99201095Y-84997279D01*
X99190717Y-85002229D01*
X99026273Y-85100063D01*
X99016961Y-85106829D01*
X98873097Y-85232994D01*
X98865180Y-85241337D01*
X98746718Y-85391605D01*
X98740450Y-85401256D01*
X98651358Y-85570592D01*
X98646953Y-85581227D01*
X98601162Y-85728698D01*
X98600943Y-85742799D01*
X98607675Y-85746000D01*
X99801000Y-85746000D01*
X99869121Y-85766002D01*
X99915614Y-85819658D01*
X99927000Y-85872000D01*
X99927000Y-86128000D01*
X99906998Y-86196121D01*
X99853342Y-86242614D01*
X99801000Y-86254000D01*
X98616494Y-86254000D01*
X98602963Y-86257973D01*
X98601671Y-86266962D01*
X98626443Y-86364502D01*
X98630284Y-86375348D01*
X98710394Y-86549120D01*
X98716145Y-86559081D01*
X98826579Y-86715343D01*
X98834057Y-86724098D01*
X98971114Y-86857612D01*
X98980058Y-86864855D01*
X99139156Y-86971161D01*
X99149266Y-86976651D01*
X99325077Y-87052185D01*
X99336020Y-87055740D01*
X99349153Y-87058712D01*
X99411180Y-87093255D01*
X99444684Y-87155848D01*
X99439030Y-87226619D01*
X99396011Y-87283099D01*
X99379525Y-87293368D01*
X99295014Y-87337362D01*
X99200607Y-87386507D01*
X99196474Y-87389610D01*
X99196471Y-87389612D01*
X99162555Y-87415077D01*
X99021965Y-87520635D01*
X98867629Y-87682138D01*
X98741743Y-87866680D01*
X98647688Y-88069305D01*
X98587989Y-88284570D01*
X98564251Y-88506695D01*
X98564548Y-88511848D01*
X98564548Y-88511851D01*
X98576812Y-88724547D01*
X98577110Y-88729715D01*
X98578247Y-88734761D01*
X98578248Y-88734767D01*
X98602304Y-88841508D01*
X98626222Y-88947639D01*
X98710266Y-89154616D01*
X98732954Y-89191640D01*
X98775589Y-89261213D01*
X98826987Y-89345088D01*
X98830366Y-89348989D01*
X98830372Y-89348997D01*
X98972439Y-89513003D01*
X99001922Y-89577588D01*
X98991807Y-89647860D01*
X98945306Y-89701509D01*
X98877202Y-89721500D01*
X98774866Y-89721500D01*
X98712684Y-89728255D01*
X98576295Y-89779385D01*
X98459739Y-89866739D01*
X98372385Y-89983295D01*
X98321255Y-90119684D01*
X98314500Y-90181866D01*
X98314500Y-91978134D01*
X98321255Y-92040316D01*
X98372385Y-92176705D01*
X98459739Y-92293261D01*
X98576295Y-92380615D01*
X98712684Y-92431745D01*
X98774866Y-92438500D01*
X100565500Y-92438500D01*
X100633621Y-92458502D01*
X100680114Y-92512158D01*
X100691500Y-92564500D01*
X100691500Y-93995000D01*
X100671498Y-94063121D01*
X100617842Y-94109614D01*
X100565500Y-94121000D01*
X100149115Y-94121000D01*
X100133876Y-94125475D01*
X100132671Y-94126865D01*
X100131000Y-94134548D01*
X100131000Y-95353000D01*
X100110998Y-95421121D01*
X100057342Y-95467614D01*
X100005000Y-95479000D01*
X98791116Y-95479000D01*
X98775877Y-95483475D01*
X98774672Y-95484865D01*
X98773001Y-95492548D01*
X98773001Y-96093828D01*
X98774209Y-96106088D01*
X98785315Y-96161931D01*
X98794633Y-96184427D01*
X98836983Y-96247808D01*
X98854192Y-96265017D01*
X98917575Y-96307368D01*
X98940067Y-96316684D01*
X98966983Y-96322038D01*
X99029893Y-96354944D01*
X99065025Y-96416639D01*
X99061226Y-96487534D01*
X99019702Y-96545120D01*
X99000585Y-96557380D01*
X98896607Y-96611507D01*
X98892474Y-96614610D01*
X98892471Y-96614612D01*
X98722100Y-96742530D01*
X98717965Y-96745635D01*
X98563629Y-96907138D01*
X98437743Y-97091680D01*
X98343688Y-97294305D01*
X98283989Y-97509570D01*
X98260251Y-97731695D01*
X98273110Y-97954715D01*
X98274247Y-97959761D01*
X98274248Y-97959767D01*
X98291753Y-98037438D01*
X98322222Y-98172639D01*
X98406266Y-98379616D01*
X98437059Y-98429866D01*
X98517379Y-98560936D01*
X98522987Y-98570088D01*
X98669250Y-98738938D01*
X98841126Y-98881632D01*
X99034000Y-98994338D01*
X99038826Y-98996181D01*
X99043495Y-98998418D01*
X99042768Y-98999936D01*
X99093334Y-99038416D01*
X99117619Y-99105130D01*
X99101980Y-99174382D01*
X99067526Y-99213886D01*
X98971965Y-99285635D01*
X98817629Y-99447138D01*
X98691743Y-99631680D01*
X98597688Y-99834305D01*
X98537989Y-100049570D01*
X98514251Y-100271695D01*
X98527110Y-100494715D01*
X98528247Y-100499761D01*
X98528248Y-100499767D01*
X98545753Y-100577438D01*
X98576222Y-100712639D01*
X98660266Y-100919616D01*
X98707461Y-100996632D01*
X98709320Y-100999665D01*
X98727858Y-101068199D01*
X98706402Y-101135875D01*
X98651762Y-101181208D01*
X98601887Y-101191500D01*
X97928912Y-101191500D01*
X97920342Y-101191208D01*
X97870224Y-101187791D01*
X97870220Y-101187791D01*
X97862648Y-101187275D01*
X97855171Y-101188580D01*
X97855170Y-101188580D01*
X97830578Y-101192872D01*
X97799697Y-101198262D01*
X97793179Y-101199223D01*
X97729758Y-101206898D01*
X97722657Y-101209581D01*
X97720048Y-101210222D01*
X97703738Y-101214685D01*
X97701202Y-101215450D01*
X97693716Y-101216757D01*
X97686759Y-101219811D01*
X97635205Y-101242442D01*
X97629101Y-101244933D01*
X97569344Y-101267513D01*
X97563081Y-101271817D01*
X97560715Y-101273054D01*
X97545903Y-101281299D01*
X97543649Y-101282632D01*
X97536695Y-101285685D01*
X97485998Y-101324587D01*
X97480668Y-101328459D01*
X97434280Y-101360339D01*
X97434275Y-101360344D01*
X97428019Y-101364643D01*
X97422968Y-101370313D01*
X97422966Y-101370314D01*
X97386565Y-101411170D01*
X97381584Y-101416446D01*
X96328595Y-102469435D01*
X96266283Y-102503461D01*
X96195468Y-102498396D01*
X96138632Y-102455849D01*
X96113821Y-102389329D01*
X96113500Y-102380340D01*
X96113500Y-94952885D01*
X98773000Y-94952885D01*
X98777475Y-94968124D01*
X98778865Y-94969329D01*
X98786548Y-94971000D01*
X99604885Y-94971000D01*
X99620124Y-94966525D01*
X99621329Y-94965135D01*
X99623000Y-94957452D01*
X99623000Y-94139116D01*
X99618525Y-94123877D01*
X99617135Y-94122672D01*
X99609452Y-94121001D01*
X99008172Y-94121001D01*
X98995912Y-94122209D01*
X98940069Y-94133315D01*
X98917573Y-94142633D01*
X98854192Y-94184983D01*
X98836983Y-94202192D01*
X98794632Y-94265575D01*
X98785316Y-94288066D01*
X98774207Y-94343915D01*
X98773000Y-94356170D01*
X98773000Y-94952885D01*
X96113500Y-94952885D01*
X96113500Y-83643973D01*
X96133502Y-83575852D01*
X96187158Y-83529359D01*
X96244513Y-83519996D01*
X96244513Y-83518500D01*
X96435487Y-83518500D01*
X96441939Y-83517128D01*
X96441944Y-83517128D01*
X96528887Y-83498647D01*
X96622288Y-83478794D01*
X96679102Y-83453499D01*
X96790722Y-83403803D01*
X96790724Y-83403802D01*
X96796752Y-83401118D01*
X96809939Y-83391537D01*
X96898993Y-83326836D01*
X96965861Y-83302977D01*
X97038325Y-83320996D01*
G37*
%TD.AperFunction*%
%TA.AperFunction,Conductor*%
G36*
X98970018Y-60510000D02*
G01*
X98984851Y-60512310D01*
X98984855Y-60512310D01*
X98993724Y-60513691D01*
X99010923Y-60511442D01*
X99034863Y-60510609D01*
X99292710Y-60526206D01*
X99307814Y-60528040D01*
X99309135Y-60528282D01*
X99588760Y-60579525D01*
X99603526Y-60583164D01*
X99876231Y-60668142D01*
X99890445Y-60673534D01*
X100108223Y-60771547D01*
X100150906Y-60790757D01*
X100164379Y-60797828D01*
X100408813Y-60945595D01*
X100421334Y-60954238D01*
X100646171Y-61130385D01*
X100657560Y-61140475D01*
X100859525Y-61342440D01*
X100869614Y-61353828D01*
X100873194Y-61358397D01*
X101045762Y-61578666D01*
X101054405Y-61591187D01*
X101202172Y-61835621D01*
X101209242Y-61849092D01*
X101326466Y-62109555D01*
X101331858Y-62123769D01*
X101388605Y-62305877D01*
X101416836Y-62396473D01*
X101420475Y-62411240D01*
X101441665Y-62526870D01*
X101471960Y-62692186D01*
X101473794Y-62707290D01*
X101488953Y-62957904D01*
X101487692Y-62984716D01*
X101487690Y-62984852D01*
X101486309Y-62993724D01*
X101487473Y-63002626D01*
X101487473Y-63002628D01*
X101490436Y-63025283D01*
X101491500Y-63041621D01*
X101491500Y-65692979D01*
X101471498Y-65761100D01*
X101417842Y-65807593D01*
X101347568Y-65817697D01*
X101282988Y-65788203D01*
X101243296Y-65723674D01*
X101218692Y-65625723D01*
X101217431Y-65620702D01*
X101128354Y-65415840D01*
X101007014Y-65228277D01*
X100856670Y-65063051D01*
X100852619Y-65059852D01*
X100852615Y-65059848D01*
X100685414Y-64927800D01*
X100685410Y-64927798D01*
X100681359Y-64924598D01*
X100496868Y-64822754D01*
X100446898Y-64772321D01*
X100432126Y-64702878D01*
X100457242Y-64636473D01*
X100484593Y-64609867D01*
X100552860Y-64561173D01*
X100711096Y-64403489D01*
X100724485Y-64384857D01*
X100838435Y-64226277D01*
X100841453Y-64222077D01*
X100876182Y-64151809D01*
X100938136Y-64026453D01*
X100938137Y-64026451D01*
X100940430Y-64021811D01*
X101005370Y-63808069D01*
X101034529Y-63586590D01*
X101034611Y-63583240D01*
X101036074Y-63523365D01*
X101036074Y-63523361D01*
X101036156Y-63520000D01*
X101017852Y-63297361D01*
X100963431Y-63080702D01*
X100874354Y-62875840D01*
X100765314Y-62707290D01*
X100755822Y-62692617D01*
X100755820Y-62692614D01*
X100753014Y-62688277D01*
X100602670Y-62523051D01*
X100598619Y-62519852D01*
X100598615Y-62519848D01*
X100431414Y-62387800D01*
X100431410Y-62387798D01*
X100427359Y-62384598D01*
X100231789Y-62276638D01*
X100226920Y-62274914D01*
X100226916Y-62274912D01*
X100026087Y-62203795D01*
X100026083Y-62203794D01*
X100021212Y-62202069D01*
X100016119Y-62201162D01*
X100016116Y-62201161D01*
X99806373Y-62163800D01*
X99806367Y-62163799D01*
X99801284Y-62162894D01*
X99727452Y-62161992D01*
X99583081Y-62160228D01*
X99583079Y-62160228D01*
X99577911Y-62160165D01*
X99357091Y-62193955D01*
X99144756Y-62263357D01*
X98946607Y-62366507D01*
X98942474Y-62369610D01*
X98942471Y-62369612D01*
X98797390Y-62478542D01*
X98767965Y-62500635D01*
X98764393Y-62504373D01*
X98622252Y-62653115D01*
X98613629Y-62662138D01*
X98610715Y-62666410D01*
X98610714Y-62666411D01*
X98557516Y-62744396D01*
X98487743Y-62846680D01*
X98472003Y-62880590D01*
X98397255Y-63041621D01*
X98393688Y-63049305D01*
X98333989Y-63264570D01*
X98310251Y-63486695D01*
X98310548Y-63491848D01*
X98310548Y-63491851D01*
X98316202Y-63589908D01*
X98323110Y-63709715D01*
X98324247Y-63714761D01*
X98324248Y-63714767D01*
X98337482Y-63773487D01*
X98372222Y-63927639D01*
X98456266Y-64134616D01*
X98572987Y-64325088D01*
X98719250Y-64493938D01*
X98891126Y-64636632D01*
X99084000Y-64749338D01*
X99088826Y-64751181D01*
X99093495Y-64753418D01*
X99092768Y-64754936D01*
X99143334Y-64793416D01*
X99167619Y-64860130D01*
X99151980Y-64929382D01*
X99117526Y-64968886D01*
X99021965Y-65040635D01*
X98867629Y-65202138D01*
X98741743Y-65386680D01*
X98647688Y-65589305D01*
X98587989Y-65804570D01*
X98564251Y-66026695D01*
X98577110Y-66249715D01*
X98578247Y-66254761D01*
X98578248Y-66254767D01*
X98590089Y-66307306D01*
X98626222Y-66467639D01*
X98710266Y-66674616D01*
X98826987Y-66865088D01*
X98973250Y-67033938D01*
X99122500Y-67157848D01*
X99162135Y-67216749D01*
X99163633Y-67287730D01*
X99126519Y-67348253D01*
X99100195Y-67366554D01*
X98946607Y-67446507D01*
X98942474Y-67449610D01*
X98942471Y-67449612D01*
X98864972Y-67507800D01*
X98767965Y-67580635D01*
X98613629Y-67742138D01*
X98610715Y-67746410D01*
X98610714Y-67746411D01*
X98498095Y-67911504D01*
X98443184Y-67956507D01*
X98394007Y-67966500D01*
X81593046Y-67966500D01*
X81581862Y-67965973D01*
X81574374Y-67964299D01*
X81566451Y-67964548D01*
X81506316Y-67966438D01*
X81502358Y-67966500D01*
X81474427Y-67966500D01*
X81470512Y-67966995D01*
X81470508Y-67966995D01*
X81470450Y-67967003D01*
X81470421Y-67967006D01*
X81458579Y-67967939D01*
X81414393Y-67969327D01*
X81397027Y-67974372D01*
X81394941Y-67974978D01*
X81375589Y-67978986D01*
X81363351Y-67980532D01*
X81363349Y-67980533D01*
X81355486Y-67981526D01*
X81314369Y-67997806D01*
X81303168Y-68001641D01*
X81260689Y-68013982D01*
X81253870Y-68018015D01*
X81253865Y-68018017D01*
X81243254Y-68024293D01*
X81225504Y-68032990D01*
X81206666Y-68040448D01*
X81200250Y-68045109D01*
X81200249Y-68045110D01*
X81170908Y-68066428D01*
X81160984Y-68072947D01*
X81129743Y-68091422D01*
X81129738Y-68091426D01*
X81122920Y-68095458D01*
X81108596Y-68109782D01*
X81093564Y-68122621D01*
X81077176Y-68134528D01*
X81059451Y-68155954D01*
X81048995Y-68168593D01*
X81041005Y-68177373D01*
X80357747Y-68860631D01*
X80349461Y-68868171D01*
X80342982Y-68872283D01*
X80337557Y-68878060D01*
X80296357Y-68921934D01*
X80293602Y-68924776D01*
X80273865Y-68944513D01*
X80271385Y-68947710D01*
X80263682Y-68956730D01*
X80233414Y-68988962D01*
X80229595Y-68995908D01*
X80229593Y-68995911D01*
X80223652Y-69006717D01*
X80212801Y-69023236D01*
X80200386Y-69039242D01*
X80197241Y-69046511D01*
X80197238Y-69046515D01*
X80182826Y-69079820D01*
X80177609Y-69090470D01*
X80156305Y-69129223D01*
X80154334Y-69136898D01*
X80154334Y-69136899D01*
X80151267Y-69148845D01*
X80144863Y-69167549D01*
X80136819Y-69186138D01*
X80135580Y-69193961D01*
X80135577Y-69193971D01*
X80129901Y-69229807D01*
X80127495Y-69241427D01*
X80116500Y-69284253D01*
X80116500Y-69304507D01*
X80114949Y-69324217D01*
X80111780Y-69344226D01*
X80112526Y-69352118D01*
X80115941Y-69388244D01*
X80116500Y-69400102D01*
X80116500Y-73297476D01*
X80096498Y-73365597D01*
X80084142Y-73381779D01*
X80010960Y-73463056D01*
X80007659Y-73468774D01*
X79922968Y-73615463D01*
X79915473Y-73628444D01*
X79856458Y-73810072D01*
X79855768Y-73816633D01*
X79855768Y-73816635D01*
X79842962Y-73938475D01*
X79836496Y-74000000D01*
X79856458Y-74189928D01*
X79915473Y-74371556D01*
X80010960Y-74536944D01*
X80015378Y-74541851D01*
X80015379Y-74541852D01*
X80102292Y-74638379D01*
X80138747Y-74678866D01*
X80205518Y-74727378D01*
X80283450Y-74783999D01*
X80293248Y-74791118D01*
X80299276Y-74793802D01*
X80299278Y-74793803D01*
X80461681Y-74866109D01*
X80467712Y-74868794D01*
X80525612Y-74881101D01*
X80648056Y-74907128D01*
X80648061Y-74907128D01*
X80654513Y-74908500D01*
X80845487Y-74908500D01*
X80851939Y-74907128D01*
X80851944Y-74907128D01*
X80974388Y-74881101D01*
X81032288Y-74868794D01*
X81038319Y-74866109D01*
X81200722Y-74793803D01*
X81200724Y-74793802D01*
X81206752Y-74791118D01*
X81216551Y-74783999D01*
X81294482Y-74727378D01*
X81361253Y-74678866D01*
X81397708Y-74638379D01*
X81484621Y-74541852D01*
X81484622Y-74541851D01*
X81489040Y-74536944D01*
X81584527Y-74371556D01*
X81643542Y-74189928D01*
X81663504Y-74000000D01*
X81657038Y-73938475D01*
X81644232Y-73816635D01*
X81644232Y-73816633D01*
X81643542Y-73810072D01*
X81584527Y-73628444D01*
X81577033Y-73615463D01*
X81492341Y-73468774D01*
X81489040Y-73463056D01*
X81415863Y-73381785D01*
X81385147Y-73317779D01*
X81383500Y-73297476D01*
X81383500Y-69678877D01*
X81403502Y-69610756D01*
X81420405Y-69589782D01*
X81739782Y-69270405D01*
X81802094Y-69236379D01*
X81828877Y-69233500D01*
X98397274Y-69233500D01*
X98465395Y-69253502D01*
X98504707Y-69293665D01*
X98572987Y-69405088D01*
X98719250Y-69573938D01*
X98891126Y-69716632D01*
X99084000Y-69829338D01*
X99088826Y-69831181D01*
X99093495Y-69833418D01*
X99092768Y-69834936D01*
X99143334Y-69873416D01*
X99167619Y-69940130D01*
X99151980Y-70009382D01*
X99117526Y-70048886D01*
X99021965Y-70120635D01*
X98867629Y-70282138D01*
X98864715Y-70286410D01*
X98864714Y-70286411D01*
X98806632Y-70371556D01*
X98741743Y-70466680D01*
X98647688Y-70669305D01*
X98642206Y-70689071D01*
X98607725Y-70744545D01*
X98608638Y-70745458D01*
X98594317Y-70759779D01*
X98579284Y-70772619D01*
X98562893Y-70784528D01*
X98555220Y-70793803D01*
X98534702Y-70818605D01*
X98526712Y-70827384D01*
X94083236Y-75270859D01*
X94074950Y-75278399D01*
X94068471Y-75282511D01*
X94063046Y-75288288D01*
X94021846Y-75332162D01*
X94019091Y-75335004D01*
X93999354Y-75354741D01*
X93996874Y-75357938D01*
X93989171Y-75366958D01*
X93958903Y-75399190D01*
X93955084Y-75406136D01*
X93955082Y-75406139D01*
X93949141Y-75416945D01*
X93938290Y-75433464D01*
X93925875Y-75449470D01*
X93922730Y-75456739D01*
X93922727Y-75456743D01*
X93908315Y-75490048D01*
X93903098Y-75500698D01*
X93881794Y-75539451D01*
X93879823Y-75547126D01*
X93879823Y-75547127D01*
X93876756Y-75559073D01*
X93870352Y-75577777D01*
X93862308Y-75596366D01*
X93861069Y-75604189D01*
X93861066Y-75604199D01*
X93855390Y-75640035D01*
X93852984Y-75651655D01*
X93841989Y-75694481D01*
X93841989Y-75714735D01*
X93840438Y-75734445D01*
X93837269Y-75754454D01*
X93838015Y-75762346D01*
X93841430Y-75798472D01*
X93841989Y-75810330D01*
X93841989Y-89569916D01*
X93821987Y-89638037D01*
X93805084Y-89659011D01*
X93384500Y-90079595D01*
X93322188Y-90113621D01*
X93295405Y-90116500D01*
X92709387Y-90116500D01*
X92641266Y-90096498D01*
X92594773Y-90042842D01*
X92584669Y-89972568D01*
X92588200Y-89956762D01*
X92591281Y-89950200D01*
X92592661Y-89941339D01*
X92592662Y-89941335D01*
X92595830Y-89920985D01*
X92599613Y-89904268D01*
X92605515Y-89884534D01*
X92605516Y-89884528D01*
X92608086Y-89875934D01*
X92608296Y-89841494D01*
X92608329Y-89840711D01*
X92608500Y-89839614D01*
X92608500Y-89808623D01*
X92608502Y-89807853D01*
X92608952Y-89734215D01*
X92608952Y-89734214D01*
X92608976Y-89730279D01*
X92608592Y-89728935D01*
X92608500Y-89727590D01*
X92608500Y-79708623D01*
X92608502Y-79707853D01*
X92608628Y-79687231D01*
X92608976Y-79630279D01*
X92600850Y-79601847D01*
X92597272Y-79585085D01*
X92593080Y-79555813D01*
X92588137Y-79544940D01*
X92582452Y-79532438D01*
X92576004Y-79514913D01*
X92571416Y-79498862D01*
X92568949Y-79490229D01*
X92564156Y-79482632D01*
X92553170Y-79465220D01*
X92545030Y-79450135D01*
X92542564Y-79444711D01*
X92532792Y-79423218D01*
X92516030Y-79403765D01*
X92504927Y-79388761D01*
X92491224Y-79367042D01*
X92484499Y-79361103D01*
X92484496Y-79361099D01*
X92469062Y-79347468D01*
X92457018Y-79335276D01*
X92443573Y-79319673D01*
X92443570Y-79319671D01*
X92437713Y-79312873D01*
X92424009Y-79303990D01*
X92416165Y-79298906D01*
X92401291Y-79287615D01*
X92388783Y-79276569D01*
X92388782Y-79276568D01*
X92382049Y-79270622D01*
X92355287Y-79258057D01*
X92340309Y-79249737D01*
X92323017Y-79238529D01*
X92323012Y-79238527D01*
X92315485Y-79233648D01*
X92306892Y-79231078D01*
X92306887Y-79231076D01*
X92290880Y-79226289D01*
X92273436Y-79219628D01*
X92258324Y-79212533D01*
X92258322Y-79212532D01*
X92250200Y-79208719D01*
X92241333Y-79207338D01*
X92241332Y-79207338D01*
X92230478Y-79205648D01*
X92220983Y-79204170D01*
X92204268Y-79200387D01*
X92184534Y-79194485D01*
X92184528Y-79194484D01*
X92175934Y-79191914D01*
X92166963Y-79191859D01*
X92166962Y-79191859D01*
X92156903Y-79191798D01*
X92141494Y-79191704D01*
X92140711Y-79191671D01*
X92139614Y-79191500D01*
X92108623Y-79191500D01*
X92107853Y-79191498D01*
X92034215Y-79191048D01*
X92034214Y-79191048D01*
X92030279Y-79191024D01*
X92028935Y-79191408D01*
X92027590Y-79191500D01*
X79908623Y-79191500D01*
X79907853Y-79191498D01*
X79907037Y-79191493D01*
X79830279Y-79191024D01*
X79807918Y-79197415D01*
X79801847Y-79199150D01*
X79785085Y-79202728D01*
X79755813Y-79206920D01*
X79747645Y-79210634D01*
X79747644Y-79210634D01*
X79732438Y-79217548D01*
X79714914Y-79223996D01*
X79690229Y-79231051D01*
X79682635Y-79235843D01*
X79682632Y-79235844D01*
X79665220Y-79246830D01*
X79650137Y-79254969D01*
X79623218Y-79267208D01*
X79616416Y-79273069D01*
X79603765Y-79283970D01*
X79588761Y-79295073D01*
X79567042Y-79308776D01*
X79561103Y-79315501D01*
X79561099Y-79315504D01*
X79547468Y-79330938D01*
X79535276Y-79342982D01*
X79519673Y-79356427D01*
X79519671Y-79356430D01*
X79512873Y-79362287D01*
X79507993Y-79369816D01*
X79507992Y-79369817D01*
X79498906Y-79383835D01*
X79487615Y-79398709D01*
X79482343Y-79404679D01*
X79470622Y-79417951D01*
X79458058Y-79444711D01*
X79449737Y-79459691D01*
X79438529Y-79476983D01*
X79438527Y-79476988D01*
X79433648Y-79484515D01*
X79431078Y-79493108D01*
X79431076Y-79493113D01*
X79426289Y-79509120D01*
X79419628Y-79526564D01*
X79412533Y-79541676D01*
X79408719Y-79549800D01*
X79407338Y-79558667D01*
X79407338Y-79558668D01*
X79404170Y-79579015D01*
X79400387Y-79595732D01*
X79394485Y-79615466D01*
X79394484Y-79615472D01*
X79391914Y-79624066D01*
X79391760Y-79649378D01*
X79391704Y-79658497D01*
X79391671Y-79659289D01*
X79391500Y-79660386D01*
X79391500Y-79691377D01*
X79391498Y-79692147D01*
X79391024Y-79769721D01*
X79391408Y-79771065D01*
X79391500Y-79772410D01*
X79391500Y-89791377D01*
X79391498Y-89792147D01*
X79391024Y-89869721D01*
X79393491Y-89878352D01*
X79399150Y-89898153D01*
X79402728Y-89914915D01*
X79406920Y-89944187D01*
X79410634Y-89952355D01*
X79410634Y-89952356D01*
X79417548Y-89967562D01*
X79423996Y-89985086D01*
X79431051Y-90009771D01*
X79435843Y-90017365D01*
X79435844Y-90017368D01*
X79446830Y-90034780D01*
X79454969Y-90049863D01*
X79467208Y-90076782D01*
X79473069Y-90083584D01*
X79483970Y-90096235D01*
X79495073Y-90111239D01*
X79508776Y-90132958D01*
X79515501Y-90138897D01*
X79515504Y-90138901D01*
X79530938Y-90152532D01*
X79542982Y-90164724D01*
X79556427Y-90180327D01*
X79556430Y-90180329D01*
X79562287Y-90187127D01*
X79569816Y-90192007D01*
X79569817Y-90192008D01*
X79583835Y-90201094D01*
X79598709Y-90212385D01*
X79611217Y-90223431D01*
X79617951Y-90229378D01*
X79644711Y-90241942D01*
X79659691Y-90250263D01*
X79676983Y-90261471D01*
X79676988Y-90261473D01*
X79684515Y-90266352D01*
X79693108Y-90268922D01*
X79693113Y-90268924D01*
X79709120Y-90273711D01*
X79726564Y-90280372D01*
X79741676Y-90287467D01*
X79741678Y-90287468D01*
X79749800Y-90291281D01*
X79758667Y-90292662D01*
X79758668Y-90292662D01*
X79768310Y-90294163D01*
X79779017Y-90295830D01*
X79795732Y-90299613D01*
X79815466Y-90305515D01*
X79815472Y-90305516D01*
X79824066Y-90308086D01*
X79833037Y-90308141D01*
X79833038Y-90308141D01*
X79843097Y-90308202D01*
X79858506Y-90308296D01*
X79859289Y-90308329D01*
X79860386Y-90308500D01*
X79891377Y-90308500D01*
X79892147Y-90308502D01*
X79965785Y-90308952D01*
X79965786Y-90308952D01*
X79969721Y-90308976D01*
X79971065Y-90308592D01*
X79972410Y-90308500D01*
X91741405Y-90308500D01*
X91809526Y-90328502D01*
X91856019Y-90382158D01*
X91866123Y-90452432D01*
X91836629Y-90517012D01*
X91830500Y-90523595D01*
X91524500Y-90829595D01*
X91462188Y-90863621D01*
X91435405Y-90866500D01*
X79064595Y-90866500D01*
X78996474Y-90846498D01*
X78975500Y-90829595D01*
X77920405Y-89774500D01*
X77886379Y-89712188D01*
X77883500Y-89685405D01*
X77883500Y-87202524D01*
X77903502Y-87134403D01*
X77915858Y-87118221D01*
X77989040Y-87036944D01*
X78055343Y-86922104D01*
X78081223Y-86877279D01*
X78081224Y-86877278D01*
X78084527Y-86871556D01*
X78143542Y-86689928D01*
X78156760Y-86564171D01*
X78162814Y-86506565D01*
X78163504Y-86500000D01*
X78153744Y-86407137D01*
X78144232Y-86316635D01*
X78144232Y-86316633D01*
X78143542Y-86310072D01*
X78084527Y-86128444D01*
X77989040Y-85963056D01*
X77861253Y-85821134D01*
X77706752Y-85708882D01*
X77700724Y-85706198D01*
X77700722Y-85706197D01*
X77538319Y-85633891D01*
X77538318Y-85633891D01*
X77532288Y-85631206D01*
X77388508Y-85600644D01*
X77326036Y-85566917D01*
X77294777Y-85509671D01*
X77293542Y-85510072D01*
X77236569Y-85334729D01*
X77234527Y-85328444D01*
X77139040Y-85163056D01*
X77080138Y-85097638D01*
X77015675Y-85026045D01*
X77015671Y-85026041D01*
X77011253Y-85021134D01*
X76856752Y-84908882D01*
X76850724Y-84906198D01*
X76850722Y-84906197D01*
X76688319Y-84833891D01*
X76688318Y-84833891D01*
X76682288Y-84831206D01*
X76583590Y-84810227D01*
X76501944Y-84792872D01*
X76501939Y-84792872D01*
X76495487Y-84791500D01*
X76304513Y-84791500D01*
X76298061Y-84792872D01*
X76298056Y-84792872D01*
X76216410Y-84810227D01*
X76117712Y-84831206D01*
X76111682Y-84833891D01*
X76111681Y-84833891D01*
X75949278Y-84906197D01*
X75949276Y-84906198D01*
X75943248Y-84908882D01*
X75788747Y-85021134D01*
X75752174Y-85061752D01*
X75691730Y-85098990D01*
X75620746Y-85097638D01*
X75561762Y-85058124D01*
X75533504Y-84992994D01*
X75532540Y-84977440D01*
X75532540Y-81589595D01*
X75552542Y-81521474D01*
X75569445Y-81500499D01*
X75681246Y-81388699D01*
X75816278Y-81253667D01*
X75824557Y-81246133D01*
X75831038Y-81242020D01*
X75877664Y-81192368D01*
X75880418Y-81189527D01*
X75900155Y-81169790D01*
X75902635Y-81166593D01*
X75910340Y-81157571D01*
X75915915Y-81151634D01*
X75940606Y-81125341D01*
X75944425Y-81118395D01*
X75944427Y-81118392D01*
X75950368Y-81107586D01*
X75961219Y-81091067D01*
X75968778Y-81081321D01*
X75973634Y-81075061D01*
X75976779Y-81067792D01*
X75976782Y-81067788D01*
X75991194Y-81034483D01*
X75996411Y-81023833D01*
X76017715Y-80985080D01*
X76022753Y-80965457D01*
X76029157Y-80946754D01*
X76034053Y-80935440D01*
X76034053Y-80935439D01*
X76037201Y-80928165D01*
X76038440Y-80920342D01*
X76038443Y-80920332D01*
X76044119Y-80884496D01*
X76046525Y-80872876D01*
X76055548Y-80837731D01*
X76055548Y-80837730D01*
X76057520Y-80830050D01*
X76057520Y-80809796D01*
X76059071Y-80790085D01*
X76061000Y-80777906D01*
X76062240Y-80770077D01*
X76058079Y-80726058D01*
X76057520Y-80714201D01*
X76057520Y-80314594D01*
X76077522Y-80246473D01*
X76094425Y-80225499D01*
X76216747Y-80103177D01*
X76225037Y-80095633D01*
X76231518Y-80091520D01*
X76278159Y-80041852D01*
X76280913Y-80039011D01*
X76300634Y-80019290D01*
X76303112Y-80016095D01*
X76310818Y-80007073D01*
X76323625Y-79993435D01*
X76341086Y-79974841D01*
X76350846Y-79957088D01*
X76361699Y-79940565D01*
X76369253Y-79930826D01*
X76374113Y-79924561D01*
X76391676Y-79883977D01*
X76396883Y-79873347D01*
X76418195Y-79834580D01*
X76420166Y-79826903D01*
X76420168Y-79826898D01*
X76423232Y-79814962D01*
X76429638Y-79796250D01*
X76434533Y-79784939D01*
X76437681Y-79777665D01*
X76438921Y-79769837D01*
X76438923Y-79769830D01*
X76444599Y-79733996D01*
X76447005Y-79722376D01*
X76456028Y-79687231D01*
X76456028Y-79687230D01*
X76458000Y-79679550D01*
X76458000Y-79659296D01*
X76459551Y-79639585D01*
X76461480Y-79627406D01*
X76462720Y-79619577D01*
X76458559Y-79575558D01*
X76458000Y-79563701D01*
X76458000Y-79202524D01*
X76478002Y-79134403D01*
X76490358Y-79118221D01*
X76563540Y-79036944D01*
X76651422Y-78884729D01*
X76655723Y-78877279D01*
X76655724Y-78877278D01*
X76659027Y-78871556D01*
X76718042Y-78689928D01*
X76720340Y-78668069D01*
X76737314Y-78506565D01*
X76738004Y-78500000D01*
X76733400Y-78456197D01*
X76718732Y-78316635D01*
X76718732Y-78316633D01*
X76718042Y-78310072D01*
X76659027Y-78128444D01*
X76563540Y-77963056D01*
X76543413Y-77940702D01*
X76440175Y-77826045D01*
X76440174Y-77826044D01*
X76435753Y-77821134D01*
X76293297Y-77717633D01*
X76286594Y-77712763D01*
X76286593Y-77712762D01*
X76281252Y-77708882D01*
X76275224Y-77706198D01*
X76275222Y-77706197D01*
X76112819Y-77633891D01*
X76112818Y-77633891D01*
X76106788Y-77631206D01*
X75999777Y-77608460D01*
X75926444Y-77592872D01*
X75926439Y-77592872D01*
X75919987Y-77591500D01*
X75729013Y-77591500D01*
X75722561Y-77592872D01*
X75722556Y-77592872D01*
X75649223Y-77608460D01*
X75542212Y-77631206D01*
X75536182Y-77633891D01*
X75536181Y-77633891D01*
X75373778Y-77706197D01*
X75373776Y-77706198D01*
X75367748Y-77708882D01*
X75362407Y-77712762D01*
X75362406Y-77712763D01*
X75355703Y-77717633D01*
X75213247Y-77821134D01*
X75208826Y-77826044D01*
X75208825Y-77826045D01*
X75105588Y-77940702D01*
X75085460Y-77963056D01*
X74989973Y-78128444D01*
X74986967Y-78137697D01*
X74946323Y-78262785D01*
X74906250Y-78321391D01*
X74852688Y-78347096D01*
X74692212Y-78381206D01*
X74686182Y-78383891D01*
X74686181Y-78383891D01*
X74523778Y-78456197D01*
X74523776Y-78456198D01*
X74517748Y-78458882D01*
X74363247Y-78571134D01*
X74358826Y-78576044D01*
X74358825Y-78576045D01*
X74256285Y-78689928D01*
X74235460Y-78713056D01*
X74139973Y-78878444D01*
X74137931Y-78884729D01*
X74087012Y-79041440D01*
X74046938Y-79100046D01*
X73993376Y-79125751D01*
X73967712Y-79131206D01*
X73961682Y-79133891D01*
X73961681Y-79133891D01*
X73799278Y-79206197D01*
X73799276Y-79206198D01*
X73793248Y-79208882D01*
X73787907Y-79212762D01*
X73787906Y-79212763D01*
X73741017Y-79246830D01*
X73638747Y-79321134D01*
X73634326Y-79326044D01*
X73634325Y-79326045D01*
X73518251Y-79454959D01*
X73510960Y-79463056D01*
X73415473Y-79628444D01*
X73356458Y-79810072D01*
X73355768Y-79816633D01*
X73355768Y-79816635D01*
X73341006Y-79957088D01*
X73336496Y-80000000D01*
X73356458Y-80189928D01*
X73358499Y-80196208D01*
X73359872Y-80202670D01*
X73358384Y-80202986D01*
X73362009Y-80228495D01*
X73361780Y-80229943D01*
X73362526Y-80237835D01*
X73362526Y-80237836D01*
X73365941Y-80273961D01*
X73366500Y-80285819D01*
X73366500Y-81997859D01*
X73346498Y-82065980D01*
X73292842Y-82112473D01*
X73222568Y-82122577D01*
X73157988Y-82093083D01*
X73147306Y-82082658D01*
X73060151Y-81986876D01*
X73060148Y-81986873D01*
X73056670Y-81983051D01*
X73052619Y-81979852D01*
X73052615Y-81979848D01*
X72885414Y-81847800D01*
X72885410Y-81847798D01*
X72881359Y-81844598D01*
X72872891Y-81839923D01*
X72790001Y-81794166D01*
X72685789Y-81736638D01*
X72680920Y-81734914D01*
X72680916Y-81734912D01*
X72480087Y-81663795D01*
X72480083Y-81663794D01*
X72475212Y-81662069D01*
X72470119Y-81661162D01*
X72470116Y-81661161D01*
X72260373Y-81623800D01*
X72260367Y-81623799D01*
X72255284Y-81622894D01*
X72181452Y-81621992D01*
X72037081Y-81620228D01*
X72037079Y-81620228D01*
X72031911Y-81620165D01*
X71811091Y-81653955D01*
X71598756Y-81723357D01*
X71559311Y-81743891D01*
X71406234Y-81823578D01*
X71400607Y-81826507D01*
X71396474Y-81829610D01*
X71396471Y-81829612D01*
X71296571Y-81904619D01*
X71221965Y-81960635D01*
X71186393Y-81997859D01*
X71097485Y-82090896D01*
X71067629Y-82122138D01*
X71064715Y-82126410D01*
X71064714Y-82126411D01*
X71004325Y-82214938D01*
X70941743Y-82306680D01*
X70912868Y-82368886D01*
X70855055Y-82493435D01*
X70847688Y-82509305D01*
X70787989Y-82724570D01*
X70764251Y-82946695D01*
X70764548Y-82951848D01*
X70764548Y-82951851D01*
X70773329Y-83104136D01*
X70777110Y-83169715D01*
X70778247Y-83174761D01*
X70778248Y-83174767D01*
X70802304Y-83281508D01*
X70826222Y-83387639D01*
X70910266Y-83594616D01*
X71026987Y-83785088D01*
X71173250Y-83953938D01*
X71322500Y-84077848D01*
X71362135Y-84136749D01*
X71363633Y-84207730D01*
X71326519Y-84268253D01*
X71300195Y-84286554D01*
X71146607Y-84366507D01*
X71142474Y-84369610D01*
X71142471Y-84369612D01*
X71056797Y-84433938D01*
X70967965Y-84500635D01*
X70964393Y-84504373D01*
X70843485Y-84630896D01*
X70813629Y-84662138D01*
X70810715Y-84666410D01*
X70810714Y-84666411D01*
X70738588Y-84772144D01*
X70683677Y-84817147D01*
X70613152Y-84825318D01*
X70549405Y-84794064D01*
X70512675Y-84733307D01*
X70508500Y-84701140D01*
X70508500Y-79668828D01*
X70769001Y-79668828D01*
X70770209Y-79681088D01*
X70781315Y-79736931D01*
X70790633Y-79759427D01*
X70832983Y-79822808D01*
X70850192Y-79840017D01*
X70913575Y-79882368D01*
X70936066Y-79891684D01*
X70991915Y-79902793D01*
X71004170Y-79904000D01*
X71600885Y-79904000D01*
X71616124Y-79899525D01*
X71617329Y-79898135D01*
X71619000Y-79890452D01*
X71619000Y-79885884D01*
X72127000Y-79885884D01*
X72131475Y-79901123D01*
X72132865Y-79902328D01*
X72140548Y-79903999D01*
X72741828Y-79903999D01*
X72754088Y-79902791D01*
X72809931Y-79891685D01*
X72832427Y-79882367D01*
X72895808Y-79840017D01*
X72913017Y-79822808D01*
X72955368Y-79759425D01*
X72964684Y-79736934D01*
X72975793Y-79681085D01*
X72977000Y-79668830D01*
X72977000Y-79072115D01*
X72972525Y-79056876D01*
X72971135Y-79055671D01*
X72963452Y-79054000D01*
X72145115Y-79054000D01*
X72129876Y-79058475D01*
X72128671Y-79059865D01*
X72127000Y-79067548D01*
X72127000Y-79885884D01*
X71619000Y-79885884D01*
X71619000Y-79072115D01*
X71614525Y-79056876D01*
X71613135Y-79055671D01*
X71605452Y-79054000D01*
X70787116Y-79054000D01*
X70771877Y-79058475D01*
X70770672Y-79059865D01*
X70769001Y-79067548D01*
X70769001Y-79668828D01*
X70508500Y-79668828D01*
X70508500Y-74540247D01*
X70528502Y-74472126D01*
X70582158Y-74425633D01*
X70652432Y-74415529D01*
X70717012Y-74445023D01*
X70741933Y-74474413D01*
X70770287Y-74520683D01*
X70770291Y-74520688D01*
X70772987Y-74525088D01*
X70919250Y-74693938D01*
X71091126Y-74836632D01*
X71284000Y-74949338D01*
X71288826Y-74951181D01*
X71293495Y-74953418D01*
X71292768Y-74954936D01*
X71343334Y-74993416D01*
X71367619Y-75060130D01*
X71351980Y-75129382D01*
X71317526Y-75168886D01*
X71280568Y-75196635D01*
X71221965Y-75240635D01*
X71218393Y-75244373D01*
X71088785Y-75380000D01*
X71067629Y-75402138D01*
X71064715Y-75406410D01*
X71064714Y-75406411D01*
X71035341Y-75449470D01*
X70941743Y-75586680D01*
X70916977Y-75640035D01*
X70873153Y-75734446D01*
X70847688Y-75789305D01*
X70787989Y-76004570D01*
X70764251Y-76226695D01*
X70764548Y-76231848D01*
X70764548Y-76231851D01*
X70770011Y-76326590D01*
X70777110Y-76449715D01*
X70778247Y-76454761D01*
X70778248Y-76454767D01*
X70798119Y-76542939D01*
X70826222Y-76667639D01*
X70864461Y-76761811D01*
X70900180Y-76849776D01*
X70910266Y-76874616D01*
X70937226Y-76918611D01*
X71020165Y-77053955D01*
X71026987Y-77065088D01*
X71173250Y-77233938D01*
X71345126Y-77376632D01*
X71411678Y-77415521D01*
X71489869Y-77461213D01*
X71538593Y-77512852D01*
X71551664Y-77582635D01*
X71524933Y-77648407D01*
X71466886Y-77689285D01*
X71426299Y-77696001D01*
X71004172Y-77696001D01*
X70991912Y-77697209D01*
X70936069Y-77708315D01*
X70913573Y-77717633D01*
X70850192Y-77759983D01*
X70832983Y-77777192D01*
X70790632Y-77840575D01*
X70781316Y-77863066D01*
X70770207Y-77918915D01*
X70769000Y-77931170D01*
X70769000Y-78527885D01*
X70773475Y-78543124D01*
X70774865Y-78544329D01*
X70782548Y-78546000D01*
X72958884Y-78546000D01*
X72974123Y-78541525D01*
X72975328Y-78540135D01*
X72976999Y-78532452D01*
X72976999Y-77931172D01*
X72975791Y-77918912D01*
X72964685Y-77863069D01*
X72955367Y-77840573D01*
X72913017Y-77777192D01*
X72895808Y-77759983D01*
X72832425Y-77717632D01*
X72809933Y-77708316D01*
X72783515Y-77703061D01*
X72720605Y-77670154D01*
X72685472Y-77608460D01*
X72689272Y-77537565D01*
X72730797Y-77479978D01*
X72752662Y-77466331D01*
X72820350Y-77433171D01*
X72820349Y-77433171D01*
X72824994Y-77430896D01*
X73006860Y-77301173D01*
X73014403Y-77293657D01*
X73137388Y-77171100D01*
X73165096Y-77143489D01*
X73218612Y-77069014D01*
X73292435Y-76966277D01*
X73295453Y-76962077D01*
X73314037Y-76924476D01*
X73392136Y-76766453D01*
X73392137Y-76766451D01*
X73394430Y-76761811D01*
X73459370Y-76548069D01*
X73488529Y-76326590D01*
X73490156Y-76260000D01*
X73471852Y-76037361D01*
X73417431Y-75820702D01*
X73347929Y-75660859D01*
X73339108Y-75590412D01*
X73374383Y-75521521D01*
X73892247Y-75003657D01*
X73900537Y-74996113D01*
X73907018Y-74992000D01*
X73953659Y-74942332D01*
X73956413Y-74939491D01*
X73976134Y-74919770D01*
X73978612Y-74916575D01*
X73986318Y-74907553D01*
X74011158Y-74881101D01*
X74016586Y-74875321D01*
X74026346Y-74857568D01*
X74037199Y-74841045D01*
X74040622Y-74836632D01*
X74049613Y-74825041D01*
X74067176Y-74784457D01*
X74072383Y-74773827D01*
X74093695Y-74735060D01*
X74095666Y-74727383D01*
X74095668Y-74727378D01*
X74098732Y-74715442D01*
X74105138Y-74696730D01*
X74106347Y-74693938D01*
X74113181Y-74678145D01*
X74119314Y-74639427D01*
X74120097Y-74634481D01*
X74122504Y-74622860D01*
X74131528Y-74587711D01*
X74131528Y-74587710D01*
X74133500Y-74580030D01*
X74133500Y-74559769D01*
X74135051Y-74540058D01*
X74136979Y-74527885D01*
X74138219Y-74520057D01*
X74134059Y-74476046D01*
X74133500Y-74464189D01*
X74133500Y-73723626D01*
X74153502Y-73655505D01*
X74207158Y-73609012D01*
X74277432Y-73598908D01*
X74342012Y-73628402D01*
X74353136Y-73639316D01*
X74388747Y-73678866D01*
X74543248Y-73791118D01*
X74549276Y-73793802D01*
X74549278Y-73793803D01*
X74600560Y-73816635D01*
X74717712Y-73868794D01*
X74811112Y-73888647D01*
X74898056Y-73907128D01*
X74898061Y-73907128D01*
X74904513Y-73908500D01*
X75095487Y-73908500D01*
X75101939Y-73907128D01*
X75101944Y-73907128D01*
X75188888Y-73888647D01*
X75282288Y-73868794D01*
X75399440Y-73816635D01*
X75450722Y-73793803D01*
X75450724Y-73793802D01*
X75456752Y-73791118D01*
X75611253Y-73678866D01*
X75615668Y-73673963D01*
X75620580Y-73669540D01*
X75621705Y-73670789D01*
X75675014Y-73637949D01*
X75708200Y-73633500D01*
X76935406Y-73633500D01*
X77003527Y-73653502D01*
X77024501Y-73670405D01*
X77579595Y-74225499D01*
X77613621Y-74287811D01*
X77616500Y-74314594D01*
X77616500Y-80185405D01*
X77596498Y-80253526D01*
X77579595Y-80274500D01*
X76357747Y-81496348D01*
X76349461Y-81503888D01*
X76342982Y-81508000D01*
X76337557Y-81513777D01*
X76296357Y-81557651D01*
X76293602Y-81560493D01*
X76273865Y-81580230D01*
X76271385Y-81583427D01*
X76263682Y-81592447D01*
X76233414Y-81624679D01*
X76229595Y-81631625D01*
X76229593Y-81631628D01*
X76223652Y-81642434D01*
X76212801Y-81658953D01*
X76200386Y-81674959D01*
X76197241Y-81682228D01*
X76197238Y-81682232D01*
X76182826Y-81715537D01*
X76177609Y-81726187D01*
X76156305Y-81764940D01*
X76154334Y-81772615D01*
X76154334Y-81772616D01*
X76151267Y-81784562D01*
X76144862Y-81803269D01*
X76143829Y-81805656D01*
X76121829Y-81839923D01*
X76015936Y-81957530D01*
X76010960Y-81963056D01*
X75960012Y-82051301D01*
X75922244Y-82116717D01*
X75915473Y-82128444D01*
X75856458Y-82310072D01*
X75855768Y-82316633D01*
X75855768Y-82316635D01*
X75853750Y-82335840D01*
X75836496Y-82500000D01*
X75856458Y-82689928D01*
X75915473Y-82871556D01*
X76010960Y-83036944D01*
X76138747Y-83178866D01*
X76293248Y-83291118D01*
X76299276Y-83293802D01*
X76299278Y-83293803D01*
X76424473Y-83349543D01*
X76467712Y-83368794D01*
X76556370Y-83387639D01*
X76648056Y-83407128D01*
X76648061Y-83407128D01*
X76654513Y-83408500D01*
X76845487Y-83408500D01*
X76851939Y-83407128D01*
X76851944Y-83407128D01*
X76943630Y-83387639D01*
X77032288Y-83368794D01*
X77075527Y-83349543D01*
X77200722Y-83293803D01*
X77200724Y-83293802D01*
X77206752Y-83291118D01*
X77361253Y-83178866D01*
X77489040Y-83036944D01*
X77584527Y-82871556D01*
X77643542Y-82689928D01*
X77663504Y-82500000D01*
X77646250Y-82335840D01*
X77644232Y-82316635D01*
X77644232Y-82316633D01*
X77643542Y-82310072D01*
X77616558Y-82227023D01*
X77591940Y-82151257D01*
X77589913Y-82080289D01*
X77622678Y-82023226D01*
X78642247Y-81003657D01*
X78650537Y-80996113D01*
X78657018Y-80992000D01*
X78670725Y-80977404D01*
X78703658Y-80942333D01*
X78706413Y-80939491D01*
X78726134Y-80919770D01*
X78728612Y-80916575D01*
X78736318Y-80907553D01*
X78761158Y-80881101D01*
X78766586Y-80875321D01*
X78776346Y-80857568D01*
X78787199Y-80841045D01*
X78788356Y-80839553D01*
X78799613Y-80825041D01*
X78817176Y-80784457D01*
X78822383Y-80773827D01*
X78843695Y-80735060D01*
X78845666Y-80727383D01*
X78845668Y-80727378D01*
X78848732Y-80715442D01*
X78855138Y-80696730D01*
X78860034Y-80685417D01*
X78863181Y-80678145D01*
X78869940Y-80635474D01*
X78870097Y-80634481D01*
X78872504Y-80622860D01*
X78881528Y-80587711D01*
X78881528Y-80587710D01*
X78883500Y-80580030D01*
X78883500Y-80559769D01*
X78885051Y-80540058D01*
X78886979Y-80527885D01*
X78888219Y-80520057D01*
X78884059Y-80476046D01*
X78883500Y-80464189D01*
X78883500Y-74078768D01*
X78884027Y-74067585D01*
X78885702Y-74060092D01*
X78883562Y-73992001D01*
X78883500Y-73988044D01*
X78883500Y-73960144D01*
X78882996Y-73956153D01*
X78882063Y-73944311D01*
X78881924Y-73939865D01*
X78880674Y-73900111D01*
X78875021Y-73880652D01*
X78871012Y-73861293D01*
X78870846Y-73859983D01*
X78868474Y-73841203D01*
X78865558Y-73833837D01*
X78865556Y-73833831D01*
X78852200Y-73800098D01*
X78848355Y-73788868D01*
X78838230Y-73754017D01*
X78838230Y-73754016D01*
X78836019Y-73746407D01*
X78825705Y-73728966D01*
X78817008Y-73711213D01*
X78812472Y-73699758D01*
X78809552Y-73692383D01*
X78783563Y-73656612D01*
X78777047Y-73646692D01*
X78772685Y-73639316D01*
X78754542Y-73608638D01*
X78740221Y-73594317D01*
X78727380Y-73579283D01*
X78720131Y-73569306D01*
X78715472Y-73562893D01*
X78709368Y-73557843D01*
X78709363Y-73557838D01*
X78681402Y-73534707D01*
X78672621Y-73526717D01*
X77753647Y-72607742D01*
X77746113Y-72599463D01*
X77742000Y-72592982D01*
X77692348Y-72546356D01*
X77689507Y-72543602D01*
X77669770Y-72523865D01*
X77666573Y-72521385D01*
X77657551Y-72513680D01*
X77631100Y-72488841D01*
X77625321Y-72483414D01*
X77618375Y-72479595D01*
X77618372Y-72479593D01*
X77607566Y-72473652D01*
X77591047Y-72462801D01*
X77590583Y-72462441D01*
X77575041Y-72450386D01*
X77567772Y-72447241D01*
X77567768Y-72447238D01*
X77534463Y-72432826D01*
X77523813Y-72427609D01*
X77485060Y-72406305D01*
X77465437Y-72401267D01*
X77446734Y-72394863D01*
X77435420Y-72389967D01*
X77435419Y-72389967D01*
X77428145Y-72386819D01*
X77420322Y-72385580D01*
X77420312Y-72385577D01*
X77384476Y-72379901D01*
X77372856Y-72377495D01*
X77337711Y-72368472D01*
X77337710Y-72368472D01*
X77330030Y-72366500D01*
X77309776Y-72366500D01*
X77290065Y-72364949D01*
X77277886Y-72363020D01*
X77270057Y-72361780D01*
X77262165Y-72362526D01*
X77226039Y-72365941D01*
X77214181Y-72366500D01*
X75708200Y-72366500D01*
X75640079Y-72346498D01*
X75620853Y-72330157D01*
X75620580Y-72330460D01*
X75615668Y-72326037D01*
X75611253Y-72321134D01*
X75571055Y-72291928D01*
X75462094Y-72212763D01*
X75462093Y-72212762D01*
X75456752Y-72208882D01*
X75450724Y-72206198D01*
X75450722Y-72206197D01*
X75288319Y-72133891D01*
X75288318Y-72133891D01*
X75282288Y-72131206D01*
X75188888Y-72111353D01*
X75101944Y-72092872D01*
X75101939Y-72092872D01*
X75095487Y-72091500D01*
X74904513Y-72091500D01*
X74898061Y-72092872D01*
X74898056Y-72092872D01*
X74811112Y-72111353D01*
X74717712Y-72131206D01*
X74711682Y-72133891D01*
X74711681Y-72133891D01*
X74549278Y-72206197D01*
X74549276Y-72206198D01*
X74543248Y-72208882D01*
X74388747Y-72321134D01*
X74384326Y-72326044D01*
X74384325Y-72326045D01*
X74353136Y-72360684D01*
X74292690Y-72397924D01*
X74221706Y-72396572D01*
X74162722Y-72357059D01*
X74134464Y-72291928D01*
X74133500Y-72276374D01*
X74133500Y-71814594D01*
X74153502Y-71746473D01*
X74170405Y-71725499D01*
X75225499Y-70670405D01*
X75287811Y-70636379D01*
X75314594Y-70633500D01*
X76041800Y-70633500D01*
X76109921Y-70653502D01*
X76129147Y-70669843D01*
X76129420Y-70669540D01*
X76134332Y-70673963D01*
X76138747Y-70678866D01*
X76152789Y-70689068D01*
X76284178Y-70784528D01*
X76293248Y-70791118D01*
X76299276Y-70793802D01*
X76299278Y-70793803D01*
X76461681Y-70866109D01*
X76467712Y-70868794D01*
X76556154Y-70887593D01*
X76648056Y-70907128D01*
X76648061Y-70907128D01*
X76654513Y-70908500D01*
X76845487Y-70908500D01*
X76851939Y-70907128D01*
X76851944Y-70907128D01*
X76943846Y-70887593D01*
X77032288Y-70868794D01*
X77038319Y-70866109D01*
X77200722Y-70793803D01*
X77200724Y-70793802D01*
X77206752Y-70791118D01*
X77215823Y-70784528D01*
X77287055Y-70732774D01*
X77361253Y-70678866D01*
X77369862Y-70669305D01*
X77484621Y-70541852D01*
X77484622Y-70541851D01*
X77489040Y-70536944D01*
X77584527Y-70371556D01*
X77643542Y-70189928D01*
X77644602Y-70179848D01*
X77662814Y-70006565D01*
X77663504Y-70000000D01*
X77657487Y-69942754D01*
X77644232Y-69816635D01*
X77644232Y-69816633D01*
X77643542Y-69810072D01*
X77584527Y-69628444D01*
X77578059Y-69617240D01*
X77547314Y-69563990D01*
X77489040Y-69463056D01*
X77472881Y-69445109D01*
X77365675Y-69326045D01*
X77365674Y-69326044D01*
X77361253Y-69321134D01*
X77206752Y-69208882D01*
X77200724Y-69206198D01*
X77200722Y-69206197D01*
X77038319Y-69133891D01*
X77038318Y-69133891D01*
X77032288Y-69131206D01*
X76938888Y-69111353D01*
X76851944Y-69092872D01*
X76851939Y-69092872D01*
X76845487Y-69091500D01*
X76654513Y-69091500D01*
X76648061Y-69092872D01*
X76648056Y-69092872D01*
X76561112Y-69111353D01*
X76467712Y-69131206D01*
X76461682Y-69133891D01*
X76461681Y-69133891D01*
X76299278Y-69206197D01*
X76299276Y-69206198D01*
X76293248Y-69208882D01*
X76138747Y-69321134D01*
X76134332Y-69326037D01*
X76129420Y-69330460D01*
X76128295Y-69329211D01*
X76074986Y-69362051D01*
X76041800Y-69366500D01*
X75078763Y-69366500D01*
X75067579Y-69365973D01*
X75060091Y-69364299D01*
X75052168Y-69364548D01*
X74992033Y-69366438D01*
X74988075Y-69366500D01*
X74960144Y-69366500D01*
X74956229Y-69366995D01*
X74956225Y-69366995D01*
X74956167Y-69367003D01*
X74956138Y-69367006D01*
X74944296Y-69367939D01*
X74900110Y-69369327D01*
X74882744Y-69374372D01*
X74880658Y-69374978D01*
X74861306Y-69378986D01*
X74854235Y-69379880D01*
X74841203Y-69381526D01*
X74833834Y-69384443D01*
X74833832Y-69384444D01*
X74800097Y-69397800D01*
X74788869Y-69401645D01*
X74746407Y-69413982D01*
X74739585Y-69418016D01*
X74739579Y-69418019D01*
X74728968Y-69424294D01*
X74711218Y-69432990D01*
X74699756Y-69437528D01*
X74699751Y-69437531D01*
X74692383Y-69440448D01*
X74685968Y-69445109D01*
X74656625Y-69466427D01*
X74646707Y-69472943D01*
X74635972Y-69479292D01*
X74608637Y-69495458D01*
X74594313Y-69509782D01*
X74579281Y-69522621D01*
X74562893Y-69534528D01*
X74534712Y-69568593D01*
X74526722Y-69577373D01*
X73531743Y-70572352D01*
X73469431Y-70606378D01*
X73398616Y-70601313D01*
X73341780Y-70558766D01*
X73331602Y-70542796D01*
X73330420Y-70540592D01*
X73328354Y-70535840D01*
X73280844Y-70462401D01*
X73209822Y-70352617D01*
X73209820Y-70352614D01*
X73207014Y-70348277D01*
X73056670Y-70183051D01*
X73052619Y-70179852D01*
X73052615Y-70179848D01*
X72885414Y-70047800D01*
X72885410Y-70047798D01*
X72881359Y-70044598D01*
X72696868Y-69942754D01*
X72646898Y-69892321D01*
X72632126Y-69822878D01*
X72657242Y-69756473D01*
X72684593Y-69729867D01*
X72752860Y-69681173D01*
X72911096Y-69523489D01*
X72915906Y-69516796D01*
X73038435Y-69346277D01*
X73041453Y-69342077D01*
X73047195Y-69330460D01*
X73138136Y-69146453D01*
X73138137Y-69146451D01*
X73140430Y-69141811D01*
X73188625Y-68983183D01*
X73203865Y-68933023D01*
X73203865Y-68933021D01*
X73205370Y-68928069D01*
X73234529Y-68706590D01*
X73235425Y-68669908D01*
X73236074Y-68643365D01*
X73236074Y-68643361D01*
X73236156Y-68640000D01*
X73217852Y-68417361D01*
X73163431Y-68200702D01*
X73074354Y-67995840D01*
X72982145Y-67853307D01*
X72955822Y-67812617D01*
X72955820Y-67812614D01*
X72953014Y-67808277D01*
X72802670Y-67643051D01*
X72798619Y-67639852D01*
X72798615Y-67639848D01*
X72631414Y-67507800D01*
X72631410Y-67507798D01*
X72627359Y-67504598D01*
X72431789Y-67396638D01*
X72426920Y-67394914D01*
X72426916Y-67394912D01*
X72226087Y-67323795D01*
X72226083Y-67323794D01*
X72221212Y-67322069D01*
X72216119Y-67321162D01*
X72216116Y-67321161D01*
X72006373Y-67283800D01*
X72006367Y-67283799D01*
X72001284Y-67282894D01*
X71927452Y-67281992D01*
X71783081Y-67280228D01*
X71783079Y-67280228D01*
X71777911Y-67280165D01*
X71557091Y-67313955D01*
X71344756Y-67383357D01*
X71314443Y-67399137D01*
X71217482Y-67449612D01*
X71146607Y-67486507D01*
X71142474Y-67489610D01*
X71142471Y-67489612D01*
X70986298Y-67606870D01*
X70967965Y-67620635D01*
X70964393Y-67624373D01*
X70847771Y-67746411D01*
X70813629Y-67782138D01*
X70810715Y-67786410D01*
X70810714Y-67786411D01*
X70738588Y-67892144D01*
X70683677Y-67937147D01*
X70613152Y-67945318D01*
X70549405Y-67914064D01*
X70512675Y-67853307D01*
X70508500Y-67821140D01*
X70508500Y-63049638D01*
X70510017Y-63030145D01*
X70510291Y-63028393D01*
X70996803Y-63028393D01*
X70997210Y-63035458D01*
X71012960Y-63308601D01*
X71013785Y-63312806D01*
X71013786Y-63312814D01*
X71024711Y-63368497D01*
X71066996Y-63584024D01*
X71068383Y-63588074D01*
X71068384Y-63588079D01*
X71145400Y-63813023D01*
X71157911Y-63849565D01*
X71194642Y-63922596D01*
X71235781Y-64004392D01*
X71284022Y-64100310D01*
X71286448Y-64103839D01*
X71286451Y-64103845D01*
X71364522Y-64217438D01*
X71442997Y-64331620D01*
X71631894Y-64539215D01*
X71635183Y-64541965D01*
X71843925Y-64716501D01*
X71843930Y-64716505D01*
X71847217Y-64719253D01*
X71881783Y-64740936D01*
X72081341Y-64866119D01*
X72081345Y-64866121D01*
X72084981Y-64868402D01*
X72340788Y-64983903D01*
X72344907Y-64985123D01*
X72605790Y-65062401D01*
X72605795Y-65062402D01*
X72609903Y-65063619D01*
X72614137Y-65064267D01*
X72614142Y-65064268D01*
X72858514Y-65101662D01*
X72887347Y-65106074D01*
X73030292Y-65108319D01*
X73163694Y-65110415D01*
X73163700Y-65110415D01*
X73167985Y-65110482D01*
X73446626Y-65076763D01*
X73718112Y-65005540D01*
X73722072Y-65003900D01*
X73722077Y-65003898D01*
X73901973Y-64929382D01*
X73977420Y-64898131D01*
X74028296Y-64868402D01*
X74216054Y-64758685D01*
X74216055Y-64758685D01*
X74219752Y-64756524D01*
X74232242Y-64746731D01*
X74437252Y-64585982D01*
X74440624Y-64583338D01*
X74462104Y-64561173D01*
X74611374Y-64407137D01*
X74635948Y-64381779D01*
X74638481Y-64378331D01*
X74638485Y-64378326D01*
X74799572Y-64159032D01*
X74802110Y-64155577D01*
X74923272Y-63932425D01*
X74933986Y-63912692D01*
X74933987Y-63912690D01*
X74936036Y-63908916D01*
X75035247Y-63646362D01*
X75070635Y-63491851D01*
X75096949Y-63376957D01*
X75096950Y-63376953D01*
X75097907Y-63372773D01*
X75104638Y-63297361D01*
X75122637Y-63095677D01*
X75122637Y-63095675D01*
X75122857Y-63093211D01*
X75123310Y-63050000D01*
X75122129Y-63032676D01*
X75104512Y-62774254D01*
X75104511Y-62774248D01*
X75104220Y-62769977D01*
X75098923Y-62744396D01*
X75048172Y-62499332D01*
X75047303Y-62495135D01*
X74953612Y-62230561D01*
X74943401Y-62210776D01*
X74826847Y-61984957D01*
X74826847Y-61984956D01*
X74824882Y-61981150D01*
X74814595Y-61966512D01*
X74727185Y-61842142D01*
X74663493Y-61751517D01*
X74509108Y-61585379D01*
X74475354Y-61549055D01*
X74475351Y-61549052D01*
X74472433Y-61545912D01*
X74255237Y-61368139D01*
X74015923Y-61221487D01*
X73993348Y-61211577D01*
X73762853Y-61110397D01*
X73758921Y-61108671D01*
X73739519Y-61103144D01*
X73493114Y-61032954D01*
X73493115Y-61032954D01*
X73488986Y-61031778D01*
X73283217Y-61002493D01*
X73215365Y-60992836D01*
X73215363Y-60992836D01*
X73211113Y-60992231D01*
X73206824Y-60992209D01*
X73206817Y-60992208D01*
X72934730Y-60990783D01*
X72934723Y-60990783D01*
X72930444Y-60990761D01*
X72926199Y-60991320D01*
X72926197Y-60991320D01*
X72862813Y-60999665D01*
X72652172Y-61027397D01*
X72381446Y-61101459D01*
X72123277Y-61211577D01*
X71977721Y-61298691D01*
X71886123Y-61353511D01*
X71886119Y-61353514D01*
X71882441Y-61355715D01*
X71663395Y-61531204D01*
X71660451Y-61534306D01*
X71660447Y-61534310D01*
X71606473Y-61591187D01*
X71470192Y-61734797D01*
X71306408Y-61962727D01*
X71304404Y-61966512D01*
X71200459Y-62162831D01*
X71175073Y-62210776D01*
X71173601Y-62214799D01*
X71173599Y-62214803D01*
X71166354Y-62234602D01*
X71078616Y-62474355D01*
X71077703Y-62478541D01*
X71077703Y-62478542D01*
X71027728Y-62707753D01*
X71018825Y-62748585D01*
X70996803Y-63028393D01*
X70510291Y-63028393D01*
X70512297Y-63015587D01*
X70512297Y-63015585D01*
X70513685Y-63006721D01*
X70511450Y-62989512D01*
X70510637Y-62965577D01*
X70516137Y-62875840D01*
X70526440Y-62707748D01*
X70528281Y-62692675D01*
X70579954Y-62411757D01*
X70583599Y-62397006D01*
X70668720Y-62124355D01*
X70674115Y-62110151D01*
X70710329Y-62029772D01*
X70791447Y-61849727D01*
X70798507Y-61836288D01*
X70946338Y-61591893D01*
X70954971Y-61579390D01*
X70955539Y-61578666D01*
X71131158Y-61354567D01*
X71141238Y-61343192D01*
X71343192Y-61141238D01*
X71354567Y-61131158D01*
X71381059Y-61110397D01*
X71579394Y-60954968D01*
X71591893Y-60946338D01*
X71836288Y-60798507D01*
X71849727Y-60791447D01*
X72110154Y-60674114D01*
X72124355Y-60668720D01*
X72397008Y-60583599D01*
X72411757Y-60579954D01*
X72692673Y-60528281D01*
X72707750Y-60526439D01*
X72958345Y-60511080D01*
X72985194Y-60512322D01*
X72985302Y-60512323D01*
X72994169Y-60513696D01*
X73025451Y-60509578D01*
X73041895Y-60508500D01*
X98950633Y-60508500D01*
X98970018Y-60510000D01*
G37*
%TD.AperFunction*%
%TA.AperFunction,Conductor*%
G36*
X101418913Y-71398067D02*
G01*
X101472131Y-71445061D01*
X101491500Y-71512186D01*
X101491500Y-78012979D01*
X101471498Y-78081100D01*
X101417842Y-78127593D01*
X101347568Y-78137697D01*
X101282988Y-78108203D01*
X101243296Y-78043674D01*
X101218692Y-77945723D01*
X101217431Y-77940702D01*
X101128354Y-77735840D01*
X101029241Y-77582635D01*
X101009822Y-77552617D01*
X101009820Y-77552614D01*
X101007014Y-77548277D01*
X100856670Y-77383051D01*
X100852619Y-77379852D01*
X100852615Y-77379848D01*
X100685414Y-77247800D01*
X100685410Y-77247798D01*
X100681359Y-77244598D01*
X100662049Y-77233938D01*
X100525158Y-77158371D01*
X100485789Y-77136638D01*
X100480920Y-77134914D01*
X100480916Y-77134912D01*
X100280087Y-77063795D01*
X100280083Y-77063794D01*
X100275212Y-77062069D01*
X100270119Y-77061162D01*
X100270116Y-77061161D01*
X100060373Y-77023800D01*
X100060367Y-77023799D01*
X100055284Y-77022894D01*
X99981452Y-77021992D01*
X99837081Y-77020228D01*
X99837079Y-77020228D01*
X99831911Y-77020165D01*
X99611091Y-77053955D01*
X99398756Y-77123357D01*
X99200607Y-77226507D01*
X99196474Y-77229610D01*
X99196471Y-77229612D01*
X99119493Y-77287409D01*
X99021965Y-77360635D01*
X98867629Y-77522138D01*
X98864715Y-77526410D01*
X98864714Y-77526411D01*
X98819039Y-77593368D01*
X98741743Y-77706680D01*
X98647688Y-77909305D01*
X98587989Y-78124570D01*
X98564251Y-78346695D01*
X98564548Y-78351848D01*
X98564548Y-78351851D01*
X98570943Y-78462763D01*
X98577110Y-78569715D01*
X98578247Y-78574762D01*
X98578248Y-78574766D01*
X98587096Y-78614025D01*
X98582560Y-78684876D01*
X98553274Y-78730821D01*
X98007747Y-79276348D01*
X97999461Y-79283888D01*
X97992982Y-79288000D01*
X97987557Y-79293777D01*
X97946357Y-79337651D01*
X97943602Y-79340493D01*
X97923865Y-79360230D01*
X97921385Y-79363427D01*
X97913682Y-79372447D01*
X97883414Y-79404679D01*
X97879595Y-79411625D01*
X97879593Y-79411628D01*
X97873652Y-79422434D01*
X97862801Y-79438953D01*
X97850386Y-79454959D01*
X97847241Y-79462228D01*
X97847238Y-79462232D01*
X97832826Y-79495537D01*
X97827609Y-79506187D01*
X97806305Y-79544940D01*
X97804334Y-79552615D01*
X97804334Y-79552616D01*
X97801267Y-79564562D01*
X97794863Y-79583266D01*
X97790396Y-79593590D01*
X97786819Y-79601855D01*
X97785580Y-79609678D01*
X97785577Y-79609688D01*
X97779901Y-79645524D01*
X97777495Y-79657144D01*
X97768472Y-79692289D01*
X97766500Y-79699970D01*
X97766500Y-79720224D01*
X97764949Y-79739934D01*
X97761780Y-79759943D01*
X97762526Y-79767835D01*
X97765941Y-79803961D01*
X97766500Y-79815819D01*
X97766500Y-79860500D01*
X97746498Y-79928621D01*
X97692842Y-79975114D01*
X97640501Y-79986500D01*
X97407823Y-79986501D01*
X97398366Y-79986501D01*
X97395508Y-79986764D01*
X97395499Y-79986764D01*
X97359996Y-79990026D01*
X97324938Y-79993247D01*
X97318560Y-79995246D01*
X97318559Y-79995246D01*
X97168550Y-80042256D01*
X97168548Y-80042257D01*
X97161301Y-80044528D01*
X97014619Y-80133361D01*
X96893361Y-80254619D01*
X96804528Y-80401301D01*
X96753247Y-80564938D01*
X96746500Y-80638365D01*
X96746501Y-81151634D01*
X96746764Y-81154492D01*
X96746764Y-81154501D01*
X96749982Y-81189527D01*
X96753247Y-81225062D01*
X96804528Y-81388699D01*
X96893361Y-81535381D01*
X96988885Y-81630905D01*
X97022911Y-81693217D01*
X97017846Y-81764032D01*
X96988885Y-81809095D01*
X96978460Y-81819520D01*
X96916148Y-81853546D01*
X96845333Y-81848481D01*
X96815307Y-81832363D01*
X96796752Y-81818882D01*
X96790724Y-81816198D01*
X96790722Y-81816197D01*
X96628319Y-81743891D01*
X96628318Y-81743891D01*
X96622288Y-81741206D01*
X96501526Y-81715537D01*
X96441944Y-81702872D01*
X96441939Y-81702872D01*
X96435487Y-81701500D01*
X96244513Y-81701500D01*
X96244513Y-81699844D01*
X96182835Y-81688566D01*
X96130987Y-81640065D01*
X96113500Y-81576027D01*
X96113500Y-77624594D01*
X96133502Y-77556473D01*
X96150405Y-77535499D01*
X96392247Y-77293657D01*
X96400537Y-77286113D01*
X96407018Y-77282000D01*
X96453659Y-77232332D01*
X96456413Y-77229491D01*
X96476135Y-77209769D01*
X96478612Y-77206576D01*
X96486317Y-77197555D01*
X96511159Y-77171100D01*
X96516586Y-77165321D01*
X96520407Y-77158371D01*
X96526346Y-77147568D01*
X96537202Y-77131041D01*
X96544757Y-77121302D01*
X96544758Y-77121300D01*
X96549614Y-77115040D01*
X96567174Y-77074460D01*
X96572391Y-77063812D01*
X96589875Y-77032009D01*
X96589876Y-77032007D01*
X96593695Y-77025060D01*
X96598733Y-77005437D01*
X96605137Y-76986734D01*
X96610033Y-76975420D01*
X96610033Y-76975419D01*
X96613181Y-76968145D01*
X96614420Y-76960322D01*
X96614423Y-76960312D01*
X96620099Y-76924476D01*
X96622505Y-76912856D01*
X96631528Y-76877711D01*
X96631528Y-76877710D01*
X96633500Y-76870030D01*
X96633500Y-76849776D01*
X96635051Y-76830065D01*
X96636980Y-76817886D01*
X96638220Y-76810057D01*
X96634059Y-76766038D01*
X96633500Y-76754181D01*
X96633500Y-76082524D01*
X96653502Y-76014403D01*
X96665858Y-75998221D01*
X96739040Y-75916944D01*
X96815443Y-75784610D01*
X96831223Y-75757279D01*
X96831224Y-75757278D01*
X96834527Y-75751556D01*
X96893542Y-75569928D01*
X96895939Y-75547127D01*
X96912814Y-75386565D01*
X96913504Y-75380000D01*
X96910849Y-75354741D01*
X96894232Y-75196635D01*
X96894232Y-75196633D01*
X96893542Y-75190072D01*
X96834527Y-75008444D01*
X96739040Y-74843056D01*
X96612381Y-74702387D01*
X96581664Y-74638379D01*
X96590429Y-74567926D01*
X96603422Y-74548828D01*
X98569001Y-74548828D01*
X98570209Y-74561088D01*
X98581315Y-74616931D01*
X98590633Y-74639427D01*
X98632983Y-74702808D01*
X98650192Y-74720017D01*
X98713575Y-74762368D01*
X98736066Y-74771684D01*
X98791915Y-74782793D01*
X98804170Y-74784000D01*
X99400885Y-74784000D01*
X99416124Y-74779525D01*
X99417329Y-74778135D01*
X99419000Y-74770452D01*
X99419000Y-74765884D01*
X99927000Y-74765884D01*
X99931475Y-74781123D01*
X99932865Y-74782328D01*
X99940548Y-74783999D01*
X100541828Y-74783999D01*
X100554088Y-74782791D01*
X100609931Y-74771685D01*
X100632427Y-74762367D01*
X100695808Y-74720017D01*
X100713017Y-74702808D01*
X100755368Y-74639425D01*
X100764684Y-74616934D01*
X100775793Y-74561085D01*
X100777000Y-74548830D01*
X100777000Y-73952115D01*
X100772525Y-73936876D01*
X100771135Y-73935671D01*
X100763452Y-73934000D01*
X99945115Y-73934000D01*
X99929876Y-73938475D01*
X99928671Y-73939865D01*
X99927000Y-73947548D01*
X99927000Y-74765884D01*
X99419000Y-74765884D01*
X99419000Y-73952115D01*
X99414525Y-73936876D01*
X99413135Y-73935671D01*
X99405452Y-73934000D01*
X98587116Y-73934000D01*
X98571877Y-73938475D01*
X98570672Y-73939865D01*
X98569001Y-73947548D01*
X98569001Y-74548828D01*
X96603422Y-74548828D01*
X96616923Y-74528982D01*
X98353905Y-72792000D01*
X98416217Y-72757974D01*
X98487032Y-72763039D01*
X98543868Y-72805586D01*
X98568679Y-72872106D01*
X98569000Y-72881095D01*
X98569000Y-73407885D01*
X98573475Y-73423124D01*
X98574865Y-73424329D01*
X98582548Y-73426000D01*
X100758884Y-73426000D01*
X100774123Y-73421525D01*
X100775328Y-73420135D01*
X100776999Y-73412452D01*
X100776999Y-72811172D01*
X100775791Y-72798912D01*
X100764685Y-72743069D01*
X100755367Y-72720573D01*
X100713017Y-72657192D01*
X100695808Y-72639983D01*
X100632425Y-72597632D01*
X100609933Y-72588316D01*
X100583515Y-72583061D01*
X100520605Y-72550154D01*
X100485472Y-72488460D01*
X100489272Y-72417565D01*
X100530797Y-72359978D01*
X100552662Y-72346331D01*
X100572222Y-72336749D01*
X100624994Y-72310896D01*
X100806860Y-72181173D01*
X100834191Y-72153938D01*
X100961435Y-72027137D01*
X100965096Y-72023489D01*
X101095453Y-71842077D01*
X101121276Y-71789829D01*
X101192136Y-71646453D01*
X101192137Y-71646451D01*
X101194430Y-71641811D01*
X101244942Y-71475557D01*
X101283883Y-71416193D01*
X101348737Y-71387306D01*
X101418913Y-71398067D01*
G37*
%TD.AperFunction*%
%TD*%
M02*
