%TF.GenerationSoftware,KiCad,Pcbnew,(6.0.4-0)*%
%TF.CreationDate,2022-08-30T14:02:01+08:00*%
%TF.ProjectId,STLinkV3_Adapter,53544c69-6e6b-4563-935f-416461707465,rev?*%
%TF.SameCoordinates,Original*%
%TF.FileFunction,Paste,Top*%
%TF.FilePolarity,Positive*%
%FSLAX46Y46*%
G04 Gerber Fmt 4.6, Leading zero omitted, Abs format (unit mm)*
G04 Created by KiCad (PCBNEW (6.0.4-0)) date 2022-08-30 14:02:01*
%MOMM*%
%LPD*%
G01*
G04 APERTURE LIST*
%TA.AperFunction,Profile*%
%ADD10C,0.100000*%
%TD*%
%TA.AperFunction,Profile*%
%ADD11C,0.120000*%
%TD*%
%ADD12R,1.899920X1.070100*%
G04 APERTURE END LIST*
D10*
X100490000Y-105540000D02*
G75*
G03*
X100490000Y-105540000I-1550000J0D01*
G01*
X74610000Y-63050000D02*
G75*
G03*
X74610000Y-63050000I-1550000J0D01*
G01*
X70000000Y-105648680D02*
G75*
G03*
X73000000Y-108600000I2952979J1285D01*
G01*
X99000000Y-108600000D02*
X73000000Y-108600000D01*
X102000000Y-63000000D02*
X102000000Y-105600000D01*
X73000000Y-60000000D02*
G75*
G03*
X70000000Y-63000000I2622J-3002622D01*
G01*
X99000000Y-108600000D02*
G75*
G03*
X102000000Y-105600000I0J3000000D01*
G01*
X102000000Y-63000000D02*
G75*
G03*
X99000000Y-60000000I-3000000J0D01*
G01*
X73000000Y-60000000D02*
X99000000Y-60000000D01*
X70000000Y-105648680D02*
X70000000Y-63000000D01*
D11*
%TO.C,U1*%
X79900000Y-79700000D02*
X92100000Y-79700000D01*
X92100000Y-79700000D02*
X92100000Y-89800000D01*
X92100000Y-89800000D02*
X79900000Y-89800000D01*
X79900000Y-89800000D02*
X79900000Y-79700000D01*
%TD*%
D12*
%TO.C,U1*%
X78679970Y-69906000D03*
X78679970Y-71176000D03*
X78679970Y-72446000D03*
X78679970Y-73716000D03*
X78679970Y-74986000D03*
X78679970Y-76256000D03*
X78679970Y-77526000D03*
X78679970Y-78796000D03*
X78679970Y-80066000D03*
X78679970Y-81336000D03*
X78679970Y-82606000D03*
X78679970Y-83876000D03*
X78679970Y-85146000D03*
X78679970Y-86416000D03*
X78679970Y-87686000D03*
X78679970Y-88956000D03*
X93320030Y-88956000D03*
X93320030Y-87686000D03*
X93320030Y-86416000D03*
X93320030Y-85146000D03*
X93320030Y-83876000D03*
X93320030Y-82606000D03*
X93320030Y-81336000D03*
X93320030Y-80066000D03*
X93320030Y-78796000D03*
X93320030Y-77526000D03*
X93320030Y-76256000D03*
X93320030Y-74986000D03*
X93320030Y-73716000D03*
X93320030Y-72446000D03*
X93320030Y-71176000D03*
X93320030Y-69906000D03*
%TD*%
M02*
